<?xml version="1.0" encoding="UTF-8"?>
<svg width="55px" height="128px" viewBox="0 0 55 128" version="1.1" xmlns="http://www.w3.org/2000/svg" xmlns:xlink="http://www.w3.org/1999/xlink">
    <!-- Generator: Sketch 61.2 (89653) - https://sketch.com -->
    <title>beer-2</title>
    <desc>Created with Sketch.</desc>
    <g id="Page-1" stroke="none" stroke-width="1" fill="none" fill-rule="evenodd">
        <g id="100-Summer-Food-and-Drink-Icons" transform="translate(-1123.000000, -1386.000000)" fill-rule="nonzero">
            <g id="beer-2" transform="translate(1123.000000, 1386.000000)">
                <path d="M51.2259404,21.551 L51.2259404,16.3265 C51.2259404,8.3915 44.7344266,1.95925 36.7268807,1.95925 L18.2733716,1.95925 C10.2655734,1.95925 3.77431193,8.39175 3.77431193,16.3265 L3.77431193,21.551" id="Shape" fill="#FFFFFF"></path>
                <path d="M36.7266284,1.95925 L31.4541972,1.95925 C39.4619954,1.95925 45.9532569,8.392 45.9532569,16.3265 L45.9532569,21.551 L51.2256881,21.551 L51.2256881,16.3265 C51.2259404,8.39175 44.7344266,1.95925 36.7266284,1.95925 Z" id="Shape" fill="#FFF5CC"></path>
                <path d="M3.77405963,21.551 L3.6693578,22.16125 C0.54016055,40.41275 1.72669725,59.17175 7.43029817,76.80075 C7.58470183,77.278 7.74188073,77.7545 7.90183486,78.23025 L13.5143578,91.152 C17.3297936,99.9365 16.6483486,110.0035 11.6827064,118.20425 L11.6827064,118.20425 L11.6827064,126.041 L43.3172936,126.041 L43.3172936,118.20425 L43.3172936,118.20425 C38.3516514,110.00375 37.6699541,99.9365 41.4856422,91.152 L47.0981651,78.23025 C47.2581193,77.7545 47.4152982,77.278 47.5697018,76.80075 C53.2730505,59.17175 54.4595872,40.41275 51.3303899,22.16125 L51.2256881,21.551 L3.77405963,21.551 L3.77405963,21.551 Z" id="Shape" fill="#FFDA44"></path>
                <ellipse id="Oval" fill="#FFF5CC" cx="30.1440367" cy="86.90675" rx="1.97722477" ry="1.95925"></ellipse>
                <ellipse id="Oval" fill="#FFF5CC" cx="35.4164679" cy="76.45775" rx="1.97722477" ry="1.95925"></ellipse>
                <ellipse id="Oval" fill="#FFF5CC" cx="30.1440367" cy="68.621" rx="1.97722477" ry="1.95925"></ellipse>
                <ellipse id="Oval" fill="#FFF5CC" cx="41.3478899" cy="68.5715" rx="1.97722477" ry="1.95925"></ellipse>
                <rect id="Rectangle-path" fill="#FFFFFF" x="11.6827064" y="118.204" width="31.6345872" height="7.83675"></rect>
                <rect id="Rectangle-path" fill="#EBE5DD" x="38.0448624" y="118.204" width="5.27243119" height="7.83675"></rect>
                <path d="M52.5941284,32 L38.2873165,32 L38.2873165,54.85725 C38.2873165,55.7585 37.918211,56.576 37.3225459,57.1665 C36.7268807,57.757 35.9041514,58.1225 34.9921101,58.1225 C33.1730734,58.1225 31.6969037,56.65975 31.6969037,54.85725 L31.6969037,32 L2.40587156,32 C2.68541284,28.71125 3.10699541,25.4275 3.66860092,22.16225 L3.77405963,21.551 L51.2259404,21.551 L51.3313991,22.16225 C51.8927523,25.4275 52.3145872,28.71125 52.5941284,32 Z" id="Shape" fill="#FFFFFF"></path>
                <path d="M52.5941284,32 L47.3216972,32 C47.042156,28.71125 46.6205734,25.4275 46.0589679,22.16225 L45.9535092,21.551 L51.2259404,21.551 L51.3313991,22.16225 C51.8927523,25.4275 52.3145872,28.71125 52.5941284,32 Z" id="Shape" fill="#EBE5DD"></path>
                <path d="M16.9551376,118.204 L11.6827064,118.204 C16.6493578,110.00425 17.3295413,99.9365 13.5148624,91.1515 L7.90233945,78.23125 C7.74162844,77.75325 7.5859633,77.27775 7.43055046,76.79975 C2.7459633,62.328 1.10883028,47.09075 2.40587156,31.99975 L7.67830275,31.99975 C6.38126147,47.09075 8.0183945,62.328 12.7029817,76.79975 C12.8583945,77.27775 13.0140596,77.75325 13.1747706,78.23125 L18.7872936,91.1515 C22.6019725,99.93675 21.921789,110.00425 16.9551376,118.204 Z" id="Shape" fill="#FFF5CC"></path>
                <path d="M47.5694495,76.8 C47.4165596,77.278 47.2583716,77.7535 47.0976606,78.2315 L41.4851376,91.15175 C39.8507798,94.91575 39.041422,98.91775 39.041422,102.90675 C39.041422,108.22275 40.4782339,113.5175 43.3172936,118.204 L38.0448624,118.204 C33.078211,110.00425 32.3980275,99.9365 36.2127064,91.1515 L41.8252294,78.23125 C41.9859404,77.75325 42.1441284,77.27775 42.2970183,76.79975 C46.9816055,62.328 48.6187385,47.09075 47.3216972,31.99975 L52.5941284,31.99975 C53.8911697,47.091 52.2540367,62.32825 47.5694495,76.8 Z" id="Shape" fill="#EEBF00"></path>
                <path d="M18.2733716,3.91825 L36.7268807,3.91825 C43.6313991,3.91825 49.2489679,9.48475 49.2489679,16.3265 L53.2031651,16.3265 C53.2029128,7.324 45.8117202,0 36.7266284,0 L18.2731193,0 C9.18827982,0 1.79683486,7.324 1.79683486,16.3265 L5.75103211,16.3265 C5.7512844,9.48475 11.3688532,3.91825 18.2733716,3.91825 Z" id="Shape" fill="#000000"></path>
                <path d="M53.2798624,21.833 L52.8956193,19.592 L2.10463303,19.592 L1.72038991,21.83325 C-1.48600917,40.53475 -0.162729358,59.74925 5.54793578,77.39925 C5.70461009,77.88325 5.86405963,78.36675 6.0262844,78.84975 L6.05302752,78.92875 L11.6988532,91.9265 C15.2531651,100.11 14.6136009,109.5565 9.98805046,117.19625 L9.70623853,117.6615 L9.70623853,128 L45.2950229,128 L45.2950229,117.6615 L45.013211,117.19625 C40.3874083,109.5565 39.7475917,100.10975 43.3024083,91.9265 L48.9149312,79.005 L48.9744725,78.84975 C49.1369495,78.36675 49.2963991,77.8835 49.4533257,77.399 C55.1627294,59.749 56.4862615,40.53475 53.2798624,21.833 Z M49.5517202,23.51025 C49.903922,25.68175 50.1922936,27.86 50.4188532,30.04075 L36.3100917,30.04075 L36.3100917,54.857 C36.3100917,55.20625 36.1730963,55.53425 35.9243349,55.78075 C35.6755734,56.02725 35.3443119,56.16325 34.9918578,56.16325 C34.265,56.16325 33.6738761,55.57725 33.6738761,54.85725 L33.6738761,30.041 L4.58139908,30.041 C4.80795872,27.86 5.09633028,25.682 5.44853211,23.5105 L49.5517202,23.5105 L49.5517202,23.51025 Z M13.6599312,124.08175 L13.6599312,120.1635 L41.3400688,120.1635 L41.3400688,124.08175 L13.6599312,124.08175 Z M45.6868349,76.2025 C45.5430275,76.64625 45.3972018,77.08975 45.2483486,77.5325 L39.6691284,90.3775 C36.0625917,98.68125 36.2404587,108.125 40.0359633,116.245 L14.9635321,116.245 C18.7590367,108.125 18.937156,98.68125 15.330367,90.3775 L9.75114679,77.5325 C9.60279817,77.09 9.45672018,76.64675 9.31291284,76.20275 C4.95681193,62.739 3.24575688,48.3285 4.24307339,33.959 L29.7194266,33.959 L29.7194266,54.857 C29.7194266,57.73775 32.0846789,60.0815 34.9918578,60.0815 C36.4004128,60.0815 37.7244495,59.53825 38.7202523,58.55175 C39.716055,57.56525 40.264289,56.25325 40.264289,54.857 L40.264289,33.959 L50.756422,33.959 C51.7539908,48.3285 50.0426835,62.739 45.6868349,76.2025 Z" id="Shape" fill="#000000"></path>
            </g>
        </g>
    </g>
</svg>