<?xml version="1.0" encoding="utf-8"?>
<!-- Generator: Adobe Illustrator 16.0.0, SVG Export Plug-In . SVG Version: 6.00 Build 0)  -->
<!DOCTYPE svg PUBLIC "-//W3C//DTD SVG 1.1//EN" "http://www.w3.org/Graphics/SVG/1.1/DTD/svg11.dtd">
<svg version="1.1" id="Layer_1" xmlns="http://www.w3.org/2000/svg" xmlns:xlink="http://www.w3.org/1999/xlink" x="0px" y="0px"
	 width="512px" height="512px" viewBox="0 0 512 512" enable-background="new 0 0 512 512" xml:space="preserve">
<g id="chinese_noodles">
	<g>
		<path fill="#EAAD7A" d="M437.402,35.654c1.984-5.546-0.922-11.64-6.469-13.624c-5.547-1.969-11.656,0.922-13.625,6.468v0.016
			L309.951,329.952l20.094,7.156L437.402,35.654L437.402,35.654L437.402,35.654z"/>
		<path fill="#EAAD7A" d="M404.715,14.249c1.969-5.547-0.922-11.641-6.469-13.625c-5.562-1.969-11.656,0.922-13.641,6.469l0,0
			L277.25,308.547l20.109,7.156L404.715,14.249L404.715,14.249z"/>
	</g>
	<path fill="#FFCE54" d="M330.67,330.671c-47.061,0-85.341-38.28-85.341-85.334c0-47.062,38.281-85.342,85.341-85.342
		c47.047,0,85.326,38.28,85.326,85.342C415.996,292.391,377.717,330.671,330.67,330.671z"/>
	<path fill="#F6BB42" d="M330.67,189.854c-30.639,0-55.482,24.843-55.482,55.483c0,30.647,24.844,55.476,55.482,55.476
		c30.641,0,55.467-24.828,55.467-55.476C386.137,214.697,361.311,189.854,330.67,189.854z M330.67,279.484
		c-18.828,0-34.139-15.319-34.139-34.147c0-18.828,15.311-34.155,34.139-34.155s34.141,15.328,34.141,34.155
		C364.811,264.165,349.498,279.484,330.67,279.484z"/>
	<path fill="#F6BB42" d="M426.668,245.337c0-53.03-42.984-95.998-95.998-95.998s-95.997,42.968-95.997,95.998
		c0,53.022,42.983,96.006,95.997,96.006c27.953,0,53.107-11.953,70.654-31.03l-10.516-10.516l33.578-33.585
		C425.871,259.493,426.668,252.509,426.668,245.337z M383.465,298.141c-14.107,14.094-32.857,21.858-52.795,21.858
		c-19.953,0-38.701-7.765-52.795-21.858C263.766,284.031,256,265.274,256,245.337c0-19.952,7.765-38.702,21.875-52.795
		c14.094-14.109,32.842-21.875,52.795-21.875c19.938,0,38.688,7.766,52.795,21.875c14.094,14.093,21.859,32.843,21.859,52.795
		C405.324,265.274,397.559,284.031,383.465,298.141z"/>
	<path fill="#FFCE54" d="M202.673,341.343c-58.827,0-106.669-47.858-106.669-106.677c0-58.811,47.842-106.669,106.669-106.669
		c58.811,0,106.653,47.858,106.653,106.669C309.326,293.484,261.484,341.343,202.673,341.343z"/>
	<path fill="#F6BB42" d="M202.673,159.995c-41.249,0-74.67,33.437-74.67,74.67c0,41.241,33.421,74.678,74.67,74.678
		c41.233,0,74.655-33.438,74.655-74.678C277.328,193.432,243.907,159.995,202.673,159.995z M202.673,288
		c-29.405,0-53.342-23.929-53.342-53.334s23.937-53.327,53.342-53.327c29.406,0,53.327,23.921,53.327,53.327
		S232.079,288,202.673,288z"/>
	<path fill="#F6BB42" d="M202.673,117.34c-64.811,0-117.341,52.53-117.341,117.326c0,11.093,1.547,21.828,4.422,31.999h19.625
		v39.164c21.437,28.062,55.249,46.17,93.294,46.17c64.795,0,117.325-52.529,117.325-117.333
		C319.998,169.87,267.469,117.34,202.673,117.34z M270.547,302.562c-18.125,18.124-42.233,28.108-67.874,28.108
		c-25.64,0-49.749-9.984-67.889-28.108c-18.125-18.141-28.109-42.257-28.109-67.897s9.984-49.749,28.109-67.874
		c18.14-18.14,42.249-28.124,67.889-28.124c25.64,0,49.749,9.984,67.874,28.124c18.141,18.125,28.125,42.233,28.125,67.874
		S288.688,284.422,270.547,302.562z"/>
	<g>
		<path fill="#ED5564" d="M469.229,188.667c0-5.89-4.766-10.671-10.654-10.671c-3.891,0-7.281,2.094-9.141,5.203h-0.016
			l-63.812,106.661l18.312,10.953l63.811-106.662l-0.016-0.016C468.666,192.542,469.229,190.667,469.229,188.667z"/>
		<path fill="#ED5564" d="M62.567,183.198c-1.859-3.109-5.25-5.203-9.14-5.203c-5.891,0-10.656,4.781-10.656,10.671
			c0,2,0.562,3.875,1.516,5.469l-0.016,0.016l63.811,106.662l18.312-10.953L62.583,183.198H62.567z"/>
	</g>
	<g>
		<polygon fill="#DA4453" points="319.904,191.995 191.908,191.995 106.582,298.672 127.91,511.994 383.902,511.994 405.23,298.672 
					"/>
	</g>
	<polygon fill="#ED5564" points="405.23,298.672 106.582,298.672 191.908,191.995 319.045,191.995 	"/>
</g>
</svg>
