<?xml version="1.0" encoding="UTF-8"?>
<svg width="105px" height="128px" viewBox="0 0 105 128" version="1.1" xmlns="http://www.w3.org/2000/svg" xmlns:xlink="http://www.w3.org/1999/xlink">
    <!-- Generator: Sketch 61.2 (89653) - https://sketch.com -->
    <title>cocktail</title>
    <desc>Created with Sketch.</desc>
    <g id="Page-1" stroke="none" stroke-width="1" fill="none" fill-rule="evenodd">
        <g id="100-Summer-Food-and-Drink-Icons" transform="translate(-1098.000000, -1986.000000)" fill-rule="nonzero">
            <g id="cocktail" transform="translate(1098.000000, 1986.000000)">
                <polygon id="Shape" fill="#FF505D" points="68.7476196 1.95925 102.869354 1.95925 102.869354 35.91825"></polygon>
                <polygon id="Shape" fill="#E21220" points="102.869354 1.95925 102.869354 35.91825 85.8086124 18.93875"></polygon>
                <polyline id="Shape" fill="#FFFFFF" points="52.9991268 126.04075 52.9991268 119.51025 33.3136364 119.51025 33.3136364 126.04075"></polyline>
                <polygon id="Shape" fill="#FFDA44" points="69.4039952 51.65975 43.1565072 77.78225 16.9090191 51.65975"></polygon>
                <path d="M58.905,51.65975 L44.2436842,66.25125 C42.1936722,68.2915 38.8698445,68.2915 36.8198325,66.25125 L22.1585167,51.65975 L16.9090191,51.65975 L43.1565072,77.78225 L69.4039952,51.65975 L58.905,51.65975 L58.905,51.65975 Z" id="Shape" fill="#EEBF00"></path>
                <ellipse id="Oval" fill="#3FC378" transform="translate(11.952756, 26.711689) rotate(-135.000000) translate(-11.952756, -26.711689) " cx="11.9527562" cy="26.7116885" rx="6.56168348" ry="5.2244499"></ellipse>
                <path d="M104.837978,40.64825 L104.837978,0 L63.994988,0 L83.0243541,18.93875 L56.7884211,45.05 L59.5724282,47.8205 L66.8699282,40.55775 L75.309366,40.55775 L75.309366,43.0115 L68.5891148,49.69975 L37.8369258,49.69975 L28.6511842,40.55775 L58.1805502,40.55775 L58.1805502,36.6395 L24.7139354,36.6395 L19.1466746,31.09875 C19.7324641,29.931 19.9733612,28.56425 19.8153589,27.147 C19.5910407,25.1365 18.6113756,23.1775 17.0569737,21.63075 L17.0569737,21.63075 C15.502823,20.084 13.5341986,19.10925 11.5143301,18.88575 C10.0897967,18.7285 8.71650718,18.968 7.54342105,19.551 L2.94602871,14.97525 L0.162021531,17.74575 L4.75891148,22.32075 C3.33739234,25.16475 4.09324163,29.04675 6.84911483,31.78925 C8.40326555,33.33625 10.37189,34.311 12.3917584,34.5345 C12.679378,34.56625 12.9647368,34.582 13.2470813,34.582 C14.3628947,34.582 15.4269617,34.3355 16.3634211,33.87 L19.1459211,36.63925 L7.06639952,36.63925 L7.06639952,44.63475 L41.1878828,78.59375 L41.1878828,117.551 L31.345012,117.551 L31.345012,124.0815 L23.4707656,124.0815 L23.4707656,128 L62.8419976,128 L62.8419976,124.08175 L54.9677512,124.08175 L54.9677512,117.55125 L45.1248804,117.55125 L45.1248804,78.59375 L79.2466148,44.6345 L79.2466148,36.63925 L70.807177,36.63925 L85.8086124,21.7095 L104.837978,40.64825 Z M12.8268301,30.64025 C11.7085048,30.5165 10.5444617,29.9255 9.63312201,29.01875 C7.87273923,27.2665 7.44771531,24.729 8.70520335,23.4775 C9.29677033,22.88875 10.0727153,22.756 10.6517225,22.756 C10.8119856,22.756 10.9574282,22.76625 11.0795096,22.77975 C12.1978349,22.90325 13.361878,23.4945 14.2729665,24.40125 C15.184055,25.308 15.7776316,26.4665 15.9022249,27.5795 C15.9647727,28.13925 15.9564833,29.1905 15.2008852,29.9425 C14.4455383,30.69475 13.3890072,30.70225 12.8268301,30.64025 Z M51.0307536,124.08175 L35.2822608,124.08175 L35.2822608,121.4695 L51.0307536,121.4695 L51.0307536,124.08175 Z M11.0036483,40.55775 L23.0831699,40.55775 L32.2689115,49.69975 L24.7832656,49.69975 L24.7832656,53.618 L36.2061603,53.618 L42.1580024,59.5415 L44.9417584,56.771 L41.7736722,53.618 L64.651866,53.618 L43.1560048,75.0115 L11.0033971,43.0115 L11.0033971,40.55775 L11.0036483,40.55775 Z M88.5923684,18.93875 L98.3646531,9.213 L93.4783852,23.8015 L88.5923684,18.93875 Z M96.5912081,26.89925 L100.90073,14.032 L100.90073,31.18825 L96.5912081,26.89925 Z M90.7383373,3.91825 L77.8095215,8.2075 L73.5,3.91825 L90.7383373,3.91825 Z M80.9223445,11.30525 L95.5806459,6.44225 L85.80811,16.16825 L80.9223445,11.30525 Z" id="Shape" fill="#000000"></path>
            </g>
        </g>
    </g>
</svg>