<?xml version="1.0" encoding="UTF-8"?>
<svg width="80px" height="128px" viewBox="0 0 80 128" version="1.1" xmlns="http://www.w3.org/2000/svg" xmlns:xlink="http://www.w3.org/1999/xlink">
    <!-- Generator: Sketch 61.2 (89653) - https://sketch.com -->
    <title>cupcake</title>
    <desc>Created with Sketch.</desc>
    <g id="Page-1" stroke="none" stroke-width="1" fill="none" fill-rule="evenodd">
        <g id="100-Summer-Food-and-Drink-Icons" transform="translate(-810.000000, -2286.000000)" fill-rule="nonzero">
            <g id="cupcake" transform="translate(810.000000, 2286.000000)">
                <path d="M66.2867925,60.73475 L61.029434,60.73475 C64.6588679,60.73475 67.6010063,57.81075 67.6010063,54.20425 L67.6010063,54.20425 C67.6010063,50.5975 64.6586164,47.67375 61.029434,47.67375 L49.2005031,47.67375 C56.4593711,47.67375 62.3438994,41.826 62.3438994,34.6125 L62.3438994,34.6125 L30.7997484,34.6125 C23.5408805,34.6125 17.6563522,40.46025 17.6563522,47.67375 L17.6563522,47.67375 L18.9708176,47.67375 C15.3413836,47.67375 12.3992453,50.59775 12.3992453,54.20425 L12.3992453,54.20425 C12.3992453,57.811 15.3416352,60.73475 18.9708176,60.73475 L13.7132075,60.73475 C10.0837736,60.73475 7.14163522,63.65875 7.14163522,67.26525 L7.14163522,67.26525 C7.14163522,70.872 10.0840252,73.79575 13.7132075,73.79575 L66.2867925,73.79575 C69.9162264,73.79575 72.8583648,70.87175 72.8583648,67.26525 L72.8583648,67.26525 C72.8583648,63.6585 69.9162264,60.73475 66.2867925,60.73475 Z" id="Shape" fill="#FFF5CC"></path>
                <path d="M66.2867925,60.73475 L58.4007547,60.73475 C62.0301887,60.73475 64.972327,63.65875 64.972327,67.26525 L64.972327,67.26525 C64.972327,70.872 62.0299371,73.79575 58.4007547,73.79575 L66.2867925,73.79575 C69.9162264,73.79575 72.8583648,70.87175 72.8583648,67.26525 L72.8583648,67.26525 C72.8583648,63.6585 69.9162264,60.73475 66.2867925,60.73475 Z" id="Shape" fill="#FFDA44"></path>
                <path d="M54.4576101,34.61225 L54.4576101,34.61225 C54.4576101,41.82575 48.5730818,47.6735 41.3142138,47.6735 L49.2002516,47.6735 C56.4591195,47.6735 62.3436478,41.82575 62.3436478,34.61225 L62.3436478,34.61225 L54.4576101,34.61225 Z" id="Shape" fill="#FFDA44"></path>
                <path d="M61.029434,47.6735 L53.1433962,47.6735 C56.7728302,47.6735 59.7149686,50.5975 59.7149686,54.204 L59.7149686,54.204 C59.7149686,57.81075 56.7725786,60.7345 53.1433962,60.7345 L61.029434,60.7345 C64.6588679,60.7345 67.6010063,57.8105 67.6010063,54.204 L67.6010063,54.204 C67.6010063,50.59725 64.6588679,47.6735 61.029434,47.6735 Z" id="Shape" fill="#FFDA44"></path>
                <ellipse id="Oval" fill="#FF505D" cx="34.0855346" cy="25.0775" rx="8.54314465" ry="8.48975"></ellipse>
                <path d="M37.8249057,17.443 C38.3755975,18.5655 38.6855346,19.82625 38.6855346,21.15925 C38.6855346,25.848 34.8606289,29.649 30.1423899,29.649 C28.8012579,29.649 27.532327,29.341 26.4027673,28.79375 C27.7896855,31.62 30.7081761,33.56725 34.085283,33.56725 C38.803522,33.56725 42.6284277,29.76625 42.6284277,25.0775 C42.6286792,21.7215 40.6686792,18.82125 37.8249057,17.443 Z" id="Shape" fill="#E21220"></path>
                <ellipse id="Oval" fill="#FF505D" cx="51.1718239" cy="25.0775" rx="8.54314465" ry="8.48975"></ellipse>
                <path d="M54.9114465,17.443 C55.4621384,18.5655 55.7720755,19.82625 55.7720755,21.15925 C55.7720755,25.848 51.9471698,29.649 47.2289308,29.649 C45.8875472,29.649 44.6188679,29.341 43.4893082,28.79375 C44.8762264,31.62 47.794717,33.56725 51.1718239,33.56725 C55.8900629,33.56725 59.7149686,29.76625 59.7149686,25.0775 C59.7149686,21.7215 57.7552201,18.82125 54.9114465,17.443 Z" id="Shape" fill="#E21220"></path>
                <ellipse id="Oval" fill="#FF505D" cx="42.6286792" cy="10.449" rx="8.54314465" ry="8.48975"></ellipse>
                <path d="M46.3683019,2.8145 C46.9189937,3.937 47.2289308,5.19775 47.2289308,6.53075 C47.2289308,11.2195 43.4040252,15.0205 38.6857862,15.0205 C37.3446541,15.0205 36.0757233,14.7125 34.9461635,14.16525 C36.3330818,16.99125 39.2515723,18.93875 42.6286792,18.93875 C47.3469182,18.93875 51.1718239,15.13775 51.1718239,10.449 C51.1718239,7.093 49.2118239,4.19275 46.3683019,2.8145 Z" id="Shape" fill="#E21220"></path>
                <ellipse id="Oval" fill="#FF7C80" cx="48.5431447" cy="22.46525" rx="1.97157233" ry="1.95925"></ellipse>
                <ellipse id="Oval" fill="#FF7C80" cx="31.4568553" cy="22.46525" rx="1.97157233" ry="1.95925"></ellipse>
                <ellipse id="Oval" fill="#FF7C80" cx="40" cy="7.83675" rx="1.97157233" ry="1.95925"></ellipse>
                <path d="M62.6339623,126.04075 L17.3660377,126.04075 C14.8598742,126.04075 12.7021384,124.283 12.210566,121.84075 L2.54113208,73.79575 L77.4583648,73.79575 L67.7889308,121.84075 C67.2976101,124.283 65.1401258,126.04075 62.6339623,126.04075 Z" id="Shape" fill="#0DD9DD"></path>
                <path d="M72.2012579,73.796 L62.5318239,121.841 C62.0402516,124.28325 59.8827673,126.041 57.3763522,126.041 L62.6337107,126.041 C65.1398742,126.041 67.2976101,124.28325 67.7891824,121.841 L77.4586164,73.796 L72.2012579,73.796 Z" id="Shape" fill="#02A6AA"></path>
                <path d="M17.4684277,121.84075 L7.79874214,73.796 L2.54138365,73.796 L12.2110692,121.841 C12.7026415,124.28325 14.8601258,126.041 17.3665409,126.041 L22.6238994,126.041 C20.1174843,126.04075 17.9594969,124.283 17.4684277,121.84075 Z" id="Shape" fill="#AAFFF5"></path>
                <path d="M73.48,71.83675 C74.3330818,70.516 74.8299371,68.9475 74.8299371,67.26525 C74.8299371,63.20075 71.9403774,59.796 68.0963522,58.96875 C69.0274214,57.60925 69.5725786,55.96875 69.5725786,54.204 C69.5725786,49.5225 65.7401258,45.71425 61.029434,45.71425 L59.370566,45.71425 C62.407044,42.965 64.3154717,39.006 64.3154717,34.61225 L64.3154717,32.653 L58.4025157,32.653 C60.4228931,30.74775 61.6867925,28.05725 61.6867925,25.0775 C61.6867925,19.6735 57.5373585,15.215 52.2384906,14.682 C52.8183648,13.38675 53.1436478,11.95525 53.1436478,10.44875 C53.1433962,4.6875 48.4264151,0 42.6286792,0 C36.8309434,0 32.1139623,4.6875 32.1139623,10.449 C32.1139623,11.9555 32.4387421,13.387 33.0191195,14.68225 C27.7202516,15.21525 23.5708176,19.67375 23.5708176,25.07775 C23.5708176,28.27675 25.0264151,31.143 27.3122013,33.06125 C21.0754717,34.5315 16.323522,39.84925 15.7474214,46.344 C12.6304403,47.611 10.4274214,50.65575 10.4274214,54.20425 C10.4274214,55.969 10.9725786,57.6095 11.9038994,58.969 C8.05962264,59.79625 5.17006289,63.201 5.17006289,67.2655 C5.17006289,68.94775 5.66716981,70.51625 6.52,71.837 L0.136603774,71.837 L10.2777358,122.225 C10.9509434,125.571 13.9320755,128 17.3660377,128 L62.6337107,128 C66.0679245,128 69.048805,125.5715 69.7225157,122.225 L79.8633962,71.83675 L73.48,71.83675 Z M42.6286792,31.1575 C43.0183648,31.6965 43.4581132,32.197 43.9413836,32.653 L41.3159748,32.653 C41.7992453,32.19725 42.2389937,31.69675 42.6286792,31.1575 Z M57.7436478,25.0775 C57.7436478,28.6785 54.7954717,31.608 51.1720755,31.608 C47.5486792,31.608 44.6005031,28.67825 44.6005031,25.0775 C44.6005031,22.917 45.6626415,20.99875 47.2945912,19.8095 C47.7122013,19.60275 48.1154717,19.3715 48.4996226,19.1135 C49.3169811,18.7505 50.2206289,18.547 51.1720755,18.547 C54.7954717,18.547 57.7436478,21.4765 57.7436478,25.0775 Z M42.6286792,3.91825 C46.252327,3.91825 49.2002516,6.848 49.2002516,10.44875 C49.2002516,12.60925 48.1381132,14.5275 46.5061635,15.71675 C46.0885535,15.9235 45.685283,16.15475 45.3011321,16.41275 C44.4837736,16.77575 43.5801258,16.97925 42.6286792,16.97925 C41.6774843,16.97925 40.7733333,16.77575 39.956478,16.41275 C39.5720755,16.155 39.168805,15.92325 38.751195,15.71675 C37.1189937,14.52725 36.0571069,12.60925 36.0571069,10.44875 C36.0571069,6.848 39.0050314,3.91825 42.6286792,3.91825 Z M34.0855346,18.547 C35.0367296,18.547 35.9408805,18.7505 36.7577358,19.1135 C37.1421384,19.37125 37.5454088,19.603 37.9630189,19.8095 C39.5952201,20.999 40.6571069,22.917 40.6571069,25.0775 C40.6571069,28.6785 37.7089308,31.608 34.0855346,31.608 C30.4618868,31.608 27.5139623,28.67825 27.5139623,25.0775 C27.5139623,21.47675 30.4618868,18.547 34.0855346,18.547 Z M9.11295597,67.26525 C9.11295597,64.74475 11.1766038,62.69375 13.7132075,62.69375 L45.2749686,62.69375 L45.2749686,58.7755 L18.970566,58.7755 C16.4342138,58.7755 14.3703145,56.72475 14.3703145,54.204 C14.3703145,51.6835 16.4339623,49.6325 18.970566,49.6325 L29.485283,49.6325 L29.485283,45.71425 L19.8055346,45.71425 C20.7398742,40.52425 25.3124528,36.5715 30.7997484,36.5715 L60.1979874,36.5715 C59.2638994,41.762 54.6880503,45.71425 49.2005031,45.71425 L37.3715723,45.71425 L37.3715723,49.6325 L61.0296855,49.6325 C63.5660377,49.6325 65.6299371,51.68325 65.6299371,54.204 C65.6299371,56.7245 63.5660377,58.7755 61.0296855,58.7755 L53.1612579,58.7755 L53.1612579,62.69375 L66.287044,62.69375 C68.8233962,62.69375 70.8872956,64.74475 70.8872956,67.26525 C70.8872956,69.78575 68.8236478,71.83675 66.287044,71.83675 L13.7132075,71.83675 C11.1768553,71.83675 9.11295597,69.78575 9.11295597,67.26525 Z M41.989434,75.755 L56.5778616,75.755 L51.714717,124.0815 L41.989434,124.0815 L41.989434,75.755 L41.989434,75.755 Z M38.0462893,124.08175 L28.3210063,124.08175 L23.4581132,75.755 L38.0465409,75.755 L38.0465409,124.08175 L38.0462893,124.08175 Z M14.1441509,121.4565 L4.94616352,75.755 L19.4953459,75.755 L24.3584906,124.0815 L17.3660377,124.0815 C15.8050314,124.08175 14.4503145,122.9775 14.1441509,121.4565 Z M65.8558491,121.4565 C65.5496855,122.97725 64.1944654,124.0815 62.6337107,124.0815 L55.6774843,124.0815 L60.5406289,75.755 L75.0540881,75.755 L65.8558491,121.4565 Z" id="Shape" fill="#000000"></path>
            </g>
        </g>
    </g>
</svg>