<?xml version="1.0" encoding="UTF-8"?>
<svg width="128px" height="102px" viewBox="0 0 128 102" version="1.1" xmlns="http://www.w3.org/2000/svg" xmlns:xlink="http://www.w3.org/1999/xlink">
    <!-- Generator: Sketch 61.2 (89653) - https://sketch.com -->
    <title>canape</title>
    <desc>Created with Sketch.</desc>
    <g id="Page-1" stroke="none" stroke-width="1" fill="none" fill-rule="evenodd">
        <g id="100-Summer-Food-and-Drink-Icons" transform="translate(-486.000000, -1699.000000)" fill-rule="nonzero">
            <g id="canape" transform="translate(486.000000, 1699.000000)">
                <ellipse id="Oval" fill="#FFFFFF" cx="64" cy="66.9476749" rx="62.04075" ry="33.0763892"></ellipse>
                <path d="M64,33.8712857 C52.49275,33.8712857 41.72025,35.5434828 32.48275,38.454 C39.06075,37.1877931 46.15425,36.4964039 53.551,36.4964039 C87.81525,36.4964039 115.59175,51.3052463 115.59175,69.5727931 C115.59175,81.7055172 103.3365,92.3105025 85.06825,98.066468 C108.96125,93.4674236 126.04075,81.2716404 126.04075,66.9476749 C126.04075,48.6801281 98.26425,33.8712857 64,33.8712857 Z" id="Shape" fill="#EBE5DD"></path>
                <path d="M19.7675,58.0638768 L19.7675,67.0343498 C19.7675,79.3087685 39.57125,89.2595468 64,89.2595468 C88.42875,89.2595468 108.2325,79.3090197 108.2325,67.0343498 L108.2325,58.0638768 L19.7675,58.0638768 L19.7675,58.0638768 Z" id="Shape" fill="#E21220"></path>
                <ellipse id="Oval" fill="#FF505D" cx="64" cy="58.0641281" rx="44.23325" ry="22.2241921"></ellipse>
                <path d="M92.554,41.0914286 C99.07425,44.9631576 103.008,49.9694483 103.008,55.4387586 C103.008,67.7131773 83.20425,77.6637044 58.7755,77.6637044 C47.891,77.6637044 37.927,75.687266 30.2215,72.4112069 C38.33525,77.2290739 50.4555,80.2888227 64,80.2888227 C88.429,80.2888227 108.2325,70.3382956 108.2325,58.0638768 C108.2325,51.2580148 102.14275,45.1684138 92.554,41.0914286 Z" id="Shape" fill="#E21220"></path>
                <polygon id="Shape" fill="#FFDA44" points="64 84.0095616 18.93875 51.1954581 64 18.3816059 109.06125 51.1954581"></polygon>
                <path d="M33.95925,46.4702956 L33.95925,54.3456502 C33.95925,62.6820148 47.409,69.4401429 64,69.4401429 C80.591,69.4401429 94.04075,62.6820148 94.04075,54.3456502 L94.04075,46.4702956" id="Shape" fill="#3FC378"></path>
                <path d="M86.204,46.4702956 L86.204,54.3456502 C86.204,62.0147438 74.82125,68.3475369 60.0815,69.3125172 C61.364,69.3961773 62.67175,69.4401429 63.99975,69.4401429 C80.591,69.4401429 94.0405,62.6820148 94.0405,54.3456502 L94.0405,46.4702956 L86.204,46.4702956 Z" id="Shape" fill="#2B8C4A"></path>
                <ellipse id="Oval" fill="#C9EEAE" cx="64" cy="46.4715517" rx="30.04075" ry="15.0944926"></ellipse>
                <path d="M82.46875,34.5651872 C86.446,37.1252365 88.81625,40.3460246 88.81625,43.8451773 C88.81625,52.1815419 75.3665,58.93967 58.7755,58.93967 C51.8115,58.93967 45.40125,57.7485813 40.30675,55.7505369 C45.8045,59.289133 54.37325,61.5647882 64,61.5647882 C80.59125,61.5647882 94.04075,54.8066601 94.04075,46.4702956 C94.04075,41.6330837 89.51175,37.3279803 82.46875,34.5651872 Z" id="Shape" fill="#A4E276"></path>
                <path d="M56.24,51 C56.24,51 52.30825,51.5009557 51.2495,52.1192365 C50.1925,52.7367635 50.02625,53.638936 50.8765,54.1321034 C51.7285,54.6267783 53.27825,54.5265369 54.33525,53.9095123 C55.39425,53.2912315 56.24,51 56.24,51" id="Shape" fill="#000000"></path>
                <path d="M77.1215,38.8069803 C76.27125,38.3138128 74.722,38.4133005 73.66475,39.0305764 C72.606,39.6491084 71.76,41.9380788 71.76,41.9380788 C71.76,41.9380788 75.69175,41.4393842 76.7505,40.8208522 C77.8075,40.2033251 77.97375,39.3011527 77.1215,38.8069803" id="Shape" fill="#000000"></path>
                <path d="M53.1555,46.4697931 C53.1555,46.4697931 49.758,45.2048424 48.25875,45.2048424 C46.75575,45.2048424 45.544,45.7716207 45.546,46.4700443 C45.54775,46.7690099 45.772,47.0438571 46.14525,47.2604187 C46.64525,47.5505911 47.41275,47.7362512 48.27075,47.7362512 C49.7725,47.7349951 53.1555,46.4697931 53.1555,46.4697931" id="Shape" fill="#000000"></path>
                <path d="M81.854,45.6799212 C81.35425,45.39 80.587,45.2043399 79.72875,45.2043399 C78.22775,45.2053448 74.84425,46.470798 74.84425,46.470798 C74.84425,46.470798 78.24175,47.7357488 79.74275,47.7347438 C81.244,47.7357488 82.4555,47.1689704 82.45175,46.4695419 C82.45075,46.1708276 82.227,45.8964828 81.854,45.6799212" id="Shape" fill="#000000"></path>
                <path d="M54.25475,39.0318325 C53.189,38.4135517 51.642,38.3138128 50.79525,38.8082365 C49.9485,39.3026601 50.125,40.2025714 51.19075,40.8211034 C52.25475,41.4383793 56.192,41.939335 56.192,41.939335 C56.192,41.939335 55.31875,39.6491084 54.25475,39.0318325" id="Shape" fill="#000000"></path>
                <path d="M76.80925,52.1192365 C75.7455,51.5019606 71.80775,51.0010049 71.80775,51.0010049 C71.80775,51.0010049 72.68125,53.2912315 73.74525,53.9085074 C74.811,54.5267882 76.35775,54.6265271 77.2045,54.1321034 C78.05125,53.6376798 77.87275,52.7365123 76.80925,52.1192365" id="Shape" fill="#000000"></path>
                <path d="M64.03775,52.7827389 C64.03775,52.7827389 61.87525,54.7564138 61.87825,55.630197 C61.881,56.1296453 62.20275,56.5758325 62.7025,56.8657537 C63.0755,57.0823153 63.54775,57.2114483 64.06075,57.2109458 C65.2625,57.2109458 66.23225,56.5037291 66.22725,55.6286897 C66.2225,54.7559113 64.03775,52.7827389 64.03775,52.7827389" id="Shape" fill="#000000"></path>
                <ellipse id="Oval" fill="#57565C" cx="64" cy="35.97133" rx="9.14275" ry="10.5004729"></ellipse>
                <path d="M64.86825,25.5180887 C66.73975,27.4407635 67.91825,30.2344581 67.91825,33.3449557 C67.91825,39.1443842 63.82475,43.8454286 58.7755,43.8454286 C58.4825,43.8454286 58.193,43.8280936 57.90725,43.7969409 C59.5245,45.4588374 61.65925,46.4705468 64,46.4705468 C69.0495,46.4705468 73.14275,41.7695025 73.14275,35.9700739 C73.14275,30.5070443 69.51025,26.0205517 64.86825,25.5180887 Z" id="Shape" fill="#3E3D42"></path>
                <path d="M116.97525,47.161936 C110.264,41.7634729 100.94275,37.522936 90.002,34.8847537 L70.37375,20.5911872 L68.07475,23.7795665 L78.15325,31.1190443 C76.776,30.766064 75.33825,30.4615714 73.84225,30.2113448 C72.27725,26.8506207 69.38925,24.387798 65.959,23.69867 L65.959,0.00577832512 L62.04075,0.00577832512 L62.04075,23.6989212 C58.61025,24.3880493 55.72225,26.8508719 54.1575,30.2115961 C52.6615,30.4618227 51.22375,30.7663153 49.8465,31.1192956 L59.925,23.7798177 L57.626,20.5914384 L15.6,51.1954581 L18.63525,53.4057931 C18.086,54.9317734 17.80775,56.4919212 17.80775,58.0626207 C17.80775,58.0769409 17.8085,58.0910099 17.8085,58.10533 L17.8085,67.0340985 C17.8085,73.7555468 22.79425,79.9619704 31.84675,84.5107685 C40.468,88.8425025 51.88675,91.228197 64,91.228197 C76.11325,91.228197 87.53225,88.8425025 96.15325,84.5107685 C105.20575,79.9619704 110.1915,73.7550443 110.1915,67.0340985 L110.1915,58.0977931 C110.1915,58.0859852 110.19225,58.0744286 110.19225,58.0626207 C110.19225,56.49167 109.914,54.9312709 109.36475,53.4057931 L112.4,51.1954581 L99.8235,42.037064 C114.86225,47.8621182 124.0815,57.0732709 124.0815,66.948931 C124.0815,75.0194926 117.99775,82.7076798 106.9515,88.5975517 C95.511,94.697202 80.257,98.0564187 64,98.0564187 C47.743,98.0564187 32.489,94.6969507 21.0485,88.5973005 C10.002,82.7076798 3.9185,75.0194926 3.9185,66.9486798 C3.9185,57.8744483 11.70075,49.2378621 25.26925,43.2537783 L23.69475,39.6478522 C8.63625,46.2891576 0,56.239936 0,66.948931 C0,76.5472315 6.823,85.4707241 19.212,92.0761034 C31.20825,98.4719557 47.11425,101.994222 64,101.994222 C80.88575,101.994222 96.79175,98.4719557 108.788,92.0761034 C121.177,85.4704729 128,76.5467291 128,66.948931 C128,59.805665 124.18775,52.9636256 116.97525,47.161936 Z M64,27.4382512 C67.961,27.4382512 71.18375,31.2655123 71.18375,35.9698227 C71.18375,40.674133 67.961,44.5016453 64,44.5016453 C60.039,44.5016453 56.81625,40.6743842 56.81625,35.9700739 C56.81625,31.2657635 60.039,27.4382512 64,27.4382512 Z M62.04075,48.2407241 L62.04075,52.2164631 L65.959,52.2164631 L65.959,48.2407241 C71.149,47.1978621 75.10175,42.0943448 75.10175,35.9698227 C75.10175,35.4505271 75.07,34.9397734 75.01475,34.4370591 C85.057,36.519266 92.08125,41.3690394 92.08125,46.4702956 C92.08125,49.6704828 89.269,52.9191576 84.36525,55.382734 C78.95825,58.099803 71.7255,59.5958867 63.99975,59.5958867 C56.274,59.5958867 49.04125,58.099803 43.63425,55.382734 C38.73025,52.9191576 35.91825,49.6704828 35.91825,46.4702956 C35.91825,41.3690394 42.94225,36.519266 52.98475,34.4370591 C52.92975,34.9397734 52.89775,35.4505271 52.89775,35.9698227 C52.898,42.0943448 56.85075,47.1981133 62.04075,48.2407241 Z M35.93875,54.7940985 C41.33425,60.0465961 51.76225,63.5336897 64,63.5336897 C76.23775,63.5336897 86.66575,60.0468473 92.06125,54.7940985 C91.8125,57.8473153 89.0405,60.9093251 84.36575,63.2580887 C78.95875,65.9751576 71.726,67.4714926 64,67.4714926 C56.274,67.4714926 49.04125,65.9751576 43.63425,63.2580887 C38.9595,60.9093251 36.1875,57.8473153 35.93875,54.7940985 Z M64,71.4090443 C70.64875,71.4090443 76.7625,70.3792463 81.82625,68.5970099 L64,81.5781429 L46.17375,68.5970099 C51.2375,70.3789951 57.35125,71.4090443 64,71.4090443 Z M32.366,43.8489458 C32.12825,44.7041379 32,45.5791773 32,46.4702956 L32,54.3456502 C32,56.0371921 32.44125,57.6639163 33.26375,59.1961773 L22.2775,51.1954581 L32.366,43.8489458 Z M94.40075,80.9890049 C86.31325,85.0526749 75.5165,87.2908966 64,87.2908966 C52.4835,87.2908966 41.68675,85.0529261 33.59925,80.9890049 C26.43075,77.3870985 22.278,72.8131773 21.77825,68.0159113 C26.64375,73.779665 35.71775,78.3832315 47.52475,80.7018473 L48.27625,76.8374039 C32.42,73.7236404 21.75925,66.1969951 21.7265,58.099803 L21.7265,58.0636256 L21.726,58.0636256 L21.726,58.0626207 C21.726,57.324 21.815,56.5843744 21.9905,55.8487685 L64,86.4407291 L70.0205,82.0567389 C80.747,81.338468 90.64925,78.6924975 97.95725,74.5810936 C101.416,72.6353054 104.19375,70.4149212 106.22275,68.0113892 C105.72425,72.8104138 101.5715,77.3860936 94.40075,80.9890049 Z M106.274,58.0628719 L106.274,58.0638768 L106.27325,58.0638768 L106.27325,58.0930197 C106.2445,66.9079803 93.612,74.7966502 76.40725,77.4056897 L106.00975,55.8490197 C106.185,56.5846256 106.274,57.3245025 106.274,58.0628719 Z M94.736,59.1961773 C95.5585,57.6639163 96,56.0376946 96,54.3456502 L96,46.4702956 C96,45.5789261 95.87175,44.7038867 95.634,43.8489458 L105.7225,51.1957094 L94.736,59.1961773 Z" id="Shape" fill="#000000"></path>
                <ellipse id="Oval" fill="#000000" cx="61.38775" cy="33.3462118" rx="1.95925" ry="1.96890148"></ellipse>
            </g>
        </g>
    </g>
</svg>