<?xml version="1.0" encoding="UTF-8"?>
<svg width="33px" height="33px" viewBox="0 0 33 33" version="1.1" xmlns="http://www.w3.org/2000/svg" xmlns:xlink="http://www.w3.org/1999/xlink">
    <!-- Generator: Sketch 62 (91390) - https://sketch.com -->
    <title>GRAPH</title>
    <desc>Created with Sketch.</desc>
    <g id="Page-1" stroke="none" stroke-width="1" fill="none" fill-rule="evenodd">
        <g id="15.1-MAIN-UI---ALL-ITEMS" transform="translate(-562.000000, -932.000000)">
            <g id="ITEMS" transform="translate(293.000000, 203.000000)">
                <g id="FOOD" transform="translate(19.000000, 189.000000)">
                    <g id="APPETIZERS" transform="translate(2.000000, 0.000000)">
                        <g id="ITEM-1" transform="translate(0.000000, 118.677591)">
                            <g id="GRAPH" transform="translate(248.000000, 421.322409)">
                                <g id="Path">
                                    <polygon fill="#FF7058" fill-rule="nonzero" points="22.2167643 2.44588231 25.0023525 5.2314705 18.8876467 11.3461763 12.0935292 4.55205875 2.37794114 14.2676468 4.82382345 16.645588 12.0935292 9.37588219 18.8876467 16.1699997 27.4482348 7.67735281 30.233823 10.462941 30.233823 2.44588231"></polygon>
                                    <polygon fill="#84DBFF" fill-rule="nonzero" points="6.86205871 17.053235 6.86205871 30.1658818 3.26117642 30.1658818 3.26117642 17.5967644 4.82382345 19.0914703"></polygon>
                                    <polygon fill="#ACB3BA" fill-rule="nonzero" points="12.0935292 11.8217645 12.5011763 12.2294116 12.5011763 30.1658818 8.90029397 30.1658818 8.90029397 15.0149997"></polygon>
                                    <polygon fill="#FFD15C" fill-rule="nonzero" points="18.1402938 17.8685291 18.1402938 30.1658818 14.4714703 30.1658818 14.4714703 14.1997056"></polygon>
                                    <polygon fill="#CDD6E0" fill-rule="nonzero" points="23.7114702 13.7920586 23.7114702 30.1658818 20.1105879 30.1658818 20.1105879 17.4608821"></polygon>
                                    <polygon fill="#4CDBC4" fill-rule="nonzero" points="29.3505877 12.025588 29.3505877 30.1658818 25.7497054 30.1658818 25.7497054 11.8217645 27.4482348 10.1232351"></polygon>
                                    <path d="M2.51382349,30.0979407 L2.51382349,1.29088233 C2.51382349,0.611470578 1.97029408,0 1.22294116,0 L1.22294116,0 C0.543529403,0 0,0.543529403 0,1.29088233 L0,32.6117642 L31.3208818,32.6117642 C32.0002936,32.6117642 32.6117642,32.0682347 32.6117642,31.3208818 L32.6117642,31.3208818 C32.6117642,30.6414701 32.0682347,30.0299995 31.3208818,30.0299995 L2.51382349,30.0299995 L2.51382349,30.0979407 Z" fill="#54C0EB" fill-rule="nonzero"></path>
                                </g>
                            </g>
                        </g>
                    </g>
                </g>
            </g>
        </g>
    </g>
</svg>