<?xml version="1.0" encoding="UTF-8"?>
<svg width="88px" height="128px" viewBox="0 0 88 128" version="1.1" xmlns="http://www.w3.org/2000/svg" xmlns:xlink="http://www.w3.org/1999/xlink">
    <!-- Generator: Sketch 61.2 (89653) - https://sketch.com -->
    <title>martini</title>
    <desc>Created with Sketch.</desc>
    <g id="Page-1" stroke="none" stroke-width="1" fill="none" fill-rule="evenodd">
        <g id="100-Summer-Food-and-Drink-Icons" transform="translate(-206.000000, -4386.000000)" fill-rule="nonzero">
            <g id="martini" transform="translate(206.000000, 4386.000000)">
                <ellipse id="Oval" fill="#FFFFFF" cx="51.837" cy="119.51025" rx="19.59175" ry="6.5305"></ellipse>
                <path d="M83.94925,33.3165 L51.837,77.78225 L19.72475,33.3165 C24.3145,36.391 36.95775,38.5985 51.837,38.5985 C66.71625,38.5985 79.3595,36.39125 83.94925,33.3165 Z" id="Shape" fill="#FFFFFF"></path>
                <ellipse id="Oval" fill="#FFFFFF" cx="51.837" cy="30.76175" rx="33.95925" ry="7.83675"></ellipse>
                <circle id="Oval" fill="#91DC5A" cx="17.87775" cy="30.76175" r="15.6735"></circle>
                <path d="M26.82525,17.89525 C28.59325,20.43275 29.633,23.5155 29.633,26.84275 C29.633,35.499 22.61575,42.51625 13.9595,42.51625 C10.63225,42.51625 7.5495,41.4765 5.012,39.70825 C7.84375,43.7725 12.5485,46.4345 17.87775,46.4345 C26.534,46.4345 33.55125,39.41725 33.55125,30.761 C33.55125,25.43175 30.8895,20.727 26.82525,17.89525 Z" id="Shape" fill="#6DC82A"></path>
                <path d="M71.2095,50.95975 L51.837,77.78225 L32.4645,50.95975 C34.87825,52.59775 42.6365,53.79675 51.837,53.79675 C61.0375,53.79675 68.79575,52.5975 71.2095,50.95975 Z" id="Shape" fill="#91DC5A"></path>
                <path d="M64.5735,52.914 L49.22475,74.1655 L51.837,77.7825 L71.2095,50.96 C70.0635,51.73725 67.711,52.41575 64.5735,52.914 Z" id="Shape" fill="#6DC82A"></path>
                <ellipse id="Oval" fill="#FFFFFF" cx="51.837" cy="49.87825" rx="20.15075" ry="3.91825"></ellipse>
                <ellipse id="Oval" fill="#C9EEAE" cx="51.837" cy="49.87825" rx="20.15075" ry="3.91825"></ellipse>
                <ellipse id="Oval" fill="#3FC378" cx="51.837" cy="21.48575" rx="5.2245" ry="6.5305"></ellipse>
                <path d="M87.75525,30.761 L87.75525,30.761 C87.75475,28.04575 85.12,25.9075 79.701,24.2235 C75.27725,22.84875 69.26225,21.85275 62.3065,21.34225 L62.01975,25.25 C68.40875,25.719 73.95675,26.608 78.06375,27.822 C83.10025,29.31025 83.7865,30.6555 83.83375,30.75525 C83.7635,30.9115 82.73775,32.78525 74.8375,34.52225 C69.1025,35.78325 61.6925,36.51925 53.79625,36.624 L53.79625,29.6515 C56.80775,28.64075 59.02075,25.36375 59.02075,21.48525 C59.02075,17.6065 56.80775,14.3295 53.79625,13.319 L53.79625,0 L49.8775,0 L49.8775,13.31925 C46.9555,14.3 44.78675,17.41425 44.66025,21.1415 C42.11625,21.2655 39.65475,21.45425 37.32175,21.70575 L37.742,25.60175 C40.13975,25.343 42.68075,25.153 45.3125,25.03325 C46.184,27.26225 47.84875,28.971 49.87725,29.65175 L49.87725,36.624 C41.981,36.519 34.57075,35.783 28.836,34.52225 C23.73175,33.4 21.49775,32.22025 20.53675,31.48775 L30.60875,25.67275 C31.2405,27.2475 31.59175,28.964 31.59175,30.76175 C31.59175,31.15575 31.574,31.56025 31.539,31.964 L35.44275,32.30225 C35.4875,31.78625 35.51025,31.268 35.51025,30.76175 C35.51025,21.039 27.6005,13.129 17.8775,13.129 C8.1545,13.129 0.24475,21.039 0.24475,30.76175 C0.24475,40.4845 8.15475,48.3945 17.8775,48.3945 C19.56625,48.3945 21.2395,48.15425 22.8505,47.68025 L21.7445,43.921 C21.1195,44.105 20.482,44.2435 19.83675,44.33625 L19.83675,36.8185 L49.8775,78.416 L49.8775,111.05225 C45.173,111.20275 40.7875,111.89275 37.3635,113.034 C31.51425,114.98375 30.28625,117.632 30.28625,119.51025 C30.28625,121.3885 31.51425,124.03675 37.36425,125.98675 C41.25925,127.285 46.39925,128 51.8375,128 C57.2755,128 62.4155,127.285 66.3105,125.98675 C72.1605,124.03675 73.38875,121.3885 73.38875,119.51025 C73.38875,117.632 72.16075,114.98375 66.3105,113.03375 C62.887,111.89275 58.501,111.2025 53.79675,111.052 L53.79675,78.41575 L85.3375,34.741 C86.955,33.57475 87.7555,32.253 87.756,30.76175 L87.756,30.76175 L87.756,30.76125 L87.756,30.761 L87.75525,30.761 Z M5.146,35.8495 C4.5145,34.275 4.1635,32.559 4.1635,30.762 C4.1635,28.96425 4.5145,27.248 5.14625,25.67325 L13.95875,30.7615 L5.146,35.8495 Z M15.91875,44.33375 C12.36,43.82225 9.2405,41.93975 7.11025,39.23975 L15.91875,34.15425 L15.91875,44.33375 Z M15.91875,27.3685 L7.11075,22.283 C9.241,19.5835 12.36025,17.701 15.91875,17.18975 L15.91875,27.3685 Z M19.837,17.1895 C23.39525,17.701 26.5145,19.58325 28.64475,22.28225 L19.837,27.3675 L19.837,17.1895 Z M48.57175,21.4855 C48.57175,19.0075 50.067,16.914 51.837,16.914 C53.60675,16.914 55.10225,19.0075 55.10225,21.4855 C55.10225,23.9635 53.60675,26.057 51.837,26.057 C50.067,26.057 48.57175,23.9635 48.57175,21.4855 Z M27.41125,40.614 L25.298,37.68775 C25.95775,37.86825 26.653,38.043 27.384,38.2115 C27.951,38.34225 28.54,38.4665 29.138,38.587 C28.62975,39.316 28.05125,39.99475 27.41125,40.614 Z M29.725,43.81775 C31.155,42.51975 32.3645,40.99525 33.3015,39.308 C38.26025,40.04 43.9305,40.46625 49.87775,40.543 L49.87775,44.01875 C45.109,44.10625 40.67,44.51225 37.21425,45.184 C35.36675,45.54325 33.37475,46.034 31.91,46.84325 L29.725,43.81775 Z M49.87775,47.937 L49.87775,51.818 C42.73975,51.6815 37.234,50.81525 34.682,49.872 C36.95525,49.04875 42.0855,48.079 49.87775,47.937 Z M69.46975,119.51025 C69.46975,120.837 63.291,124.08175 51.837,124.08175 C40.38325,124.08175 34.20425,120.837 34.20425,119.51025 C34.20425,118.26125 39.68125,115.31375 49.87775,114.97225 L49.87775,119.51025 L53.796,119.51025 L53.796,114.97225 C63.99275,115.31375 69.46975,118.26125 69.46975,119.51025 Z M51.837,74.43575 L37.5355,54.6325 C41.24775,55.32225 45.8015,55.65575 49.87775,55.736 L49.87775,64 L53.796,64 L53.796,55.736 C57.8725,55.65575 62.42575,55.3225 66.13825,54.6325 L51.837,74.43575 Z M53.79625,51.81825 L53.79625,47.93725 C61.5885,48.079 66.71875,49.049 68.992,49.8725 C66.43975,50.81525 60.934,51.68175 53.79625,51.81825 Z M71.7635,46.8435 C70.29875,46.0345 68.307,45.54375 66.4595,45.1845 C63.0035,44.51275 58.5645,44.10675 53.79575,44.01925 L53.79575,40.5435 C62.27675,40.434 70.20225,39.61675 76.28975,38.21175 C77.0205,38.043 77.71525,37.8685 78.375,37.688 L71.7635,46.8435 Z" id="Shape" fill="#000000"></path>
            </g>
        </g>
    </g>
</svg>