<?xml version="1.0" encoding="UTF-8"?>
<svg width="128px" height="109px" viewBox="0 0 128 109" version="1.1" xmlns="http://www.w3.org/2000/svg" xmlns:xlink="http://www.w3.org/1999/xlink">
    <!-- Generator: Sketch 61.2 (89653) - https://sketch.com -->
    <title>salad</title>
    <desc>Created with Sketch.</desc>
    <g id="Page-1" stroke="none" stroke-width="1" fill="none" fill-rule="evenodd">
        <g id="100-Summer-Food-and-Drink-Icons" transform="translate(-1386.000000, -1095.000000)" fill-rule="nonzero">
            <g id="salad" transform="translate(1386.000000, 1095.000000)">
                <path d="M1.95925,44.6588571 C1.95925,10.5431129 126.041,10.5431129 126.041,44.6588571 C126.041,78.7746014 1.95925,78.7746014 1.95925,44.6588571 Z" id="Shape" fill="#FFFFFF"></path>
                <ellipse id="Oval" fill="#FFFFFF" cx="89.425" cy="24.3208134" rx="16.9795" ry="22.3063226"></ellipse>
                <ellipse id="Oval" fill="#FFDA44" cx="89.425" cy="24.3208134" rx="9.14275" ry="9.18488249"></ellipse>
                <path d="M47.45275,13.2987535 L40.92225,13.2987535 C31.54475,13.2987535 23.94275,20.9360369 23.94275,30.3565 C23.94275,39.7769631 31.545,47.4142465 40.92225,47.4142465 L47.45275,47.4142465" id="Shape" fill="#3FC378"></path>
                <ellipse id="Oval" fill="#C9EEAE" cx="47.454" cy="30.3565" rx="16.9795" ry="17.0577465"></ellipse>
                <path d="M49.3715,20.9566313 C49.3715,19.6257765 48.5125,18.5473295 47.45275,18.5473295 C46.393,18.5473295 45.534,19.6260276 45.534,20.9566313 C45.534,22.287235 47.45275,25.2935253 47.45275,25.2935253 C47.45275,25.2935253 49.3715,22.2874862 49.3715,20.9566313 Z" id="Shape" fill="#000000"></path>
                <path d="M55.4255,25.0727627 C56.362,24.131947 56.514,22.7588986 55.7645,22.0059447 C55.01525,21.2532419 53.6485,21.4056912 52.71175,22.3465069 C51.77525,23.2875737 51.016,26.776076 51.016,26.776076 C51.016,26.776076 54.489,26.0135783 55.4255,25.0727627 Z" id="Shape" fill="#000000"></path>
                <path d="M38.096,28.429159 C36.77125,28.429159 35.69775,29.2921175 35.69775,30.3567512 C35.69775,31.4213848 36.77175,32.2843433 38.096,32.2843433 C39.42075,32.2843433 42.413,30.3567512 42.413,30.3567512 C42.413,30.3567512 39.4205,28.429159 38.096,28.429159 Z" id="Shape" fill="#000000"></path>
                <path d="M56.8095,32.2840922 C58.13425,32.2840922 59.20775,31.4211336 59.20775,30.3565 C59.20775,29.2921175 58.13375,28.4289078 56.8095,28.4289078 C55.48475,28.4289078 52.4925,30.3565 52.4925,30.3565 C52.4925,30.3565 55.48475,32.2840922 56.8095,32.2840922 Z" id="Shape" fill="#000000"></path>
                <path d="M42.19325,22.3470092 C41.25675,21.4059424 39.89,21.2534931 39.1405,22.006447 C38.39125,22.7591498 38.543,24.1321982 39.4795,25.073265 C40.416,26.0140806 43.88875,26.7768295 43.88875,26.7768295 C43.88875,26.7768295 43.12975,23.2878249 42.19325,22.3470092 Z" id="Shape" fill="#000000"></path>
                <path d="M37.82675,77.4625829 C26.285,77.4625829 16.92875,68.0632166 16.92875,56.4682788 C16.92875,44.873341 26.285,35.4739747 37.82675,35.4739747" id="Shape" fill="#E21220"></path>
                <ellipse id="Oval" fill="#FF505D" cx="44.3585" cy="56.4682788" rx="20.898" ry="20.9943041"></ellipse>
                <path d="M41.372,50.2507581 L41.372,46.3458456 C35.8075,46.3458456 31.29625,50.8776336 31.29625,56.4680276 C31.29625,62.0584217 35.80725,66.5902097 41.372,66.5902097 L41.372,62.6850461 C39.35175,61.3589631 38.0135,59.0677028 38.0135,56.4675253 C38.0135,53.8683525 39.35175,51.5770922 41.372,50.2507581 Z" id="Shape" fill="#FF7C80"></path>
                <path d="M47.34275,46.3460968 L47.34275,50.2510092 C49.363,51.5770922 50.70125,53.8683525 50.70125,56.46853 C50.70125,59.0684562 49.36275,61.3597166 47.34275,62.6860507 L47.34275,66.5909631 C52.9075,66.5909631 57.41875,62.0591751 57.41875,56.4687811 C57.41875,50.8778848 52.9075,46.3460968 47.34275,46.3460968 Z" id="Shape" fill="#FF7C80"></path>
                <path d="M82.235,69.5897189 C70.69325,69.5897189 61.337,60.1903525 61.337,48.5954147 C61.337,37.000477 70.69325,27.6011106 82.235,27.6011106" id="Shape" fill="#93298D"></path>
                <ellipse id="Oval" fill="#FFF5CC" cx="88.76675" cy="48.5954147" rx="20.898" ry="20.9943041"></ellipse>
                <path d="M126.04075,44.6588571 C126.04075,79.0815092 98.26475,106.985509 64,106.985509 C29.73525,106.985509 1.95925,79.0817604 1.95925,44.6588571 C1.95925,78.7746014 126.04075,78.7746014 126.04075,44.6588571 Z" id="Shape" fill="#0DD9DD"></path>
                <path d="M117.97925,58.0929816 C110.0785,83.3875115 86.56125,101.737184 58.7755,101.737184 C42.9725,101.737184 28.55275,95.7984424 17.59875,86.0256129 C28.96325,98.8820876 45.53825,106.98576 64,106.98576 C98.26475,106.98576 126.04075,79.0817604 126.04075,44.6591083 C126.04075,49.9611797 123.042,54.43897 117.97925,58.0929816 Z" id="Shape" fill="#02A6AA"></path>
                <path d="M112.31425,25.6890899 L110.6565,29.2559516 C116.78125,32.1281267 124.0815,37.1318295 124.0815,44.6588571 C124.0815,52.8665069 115.61275,58.1622995 107.79575,61.3019516 C110.25525,57.5803802 111.6235,53.1678894 111.6235,48.5951636 C111.6235,43.2182488 109.7735,38.2675392 106.6805,34.3503203 C107.78275,31.2259885 108.3635,27.7844516 108.3635,24.3205622 C108.3635,10.9354124 99.86775,0.0459608295 89.42475,0.0459608295 C78.98175,0.0459608295 70.486,10.9354124 70.486,24.3205622 C70.486,25.813159 70.59525,27.2806406 70.7995,28.7197419 C66.25425,31.3693963 62.697,35.5475622 60.82825,40.5485023 C56.55375,36.0850276 50.63375,33.5056959 44.35825,33.5056959 L37.82775,33.5056959 C36.13275,33.5056959 34.48075,33.6935576 32.89,34.0471797 C32.589,32.848682 32.43375,31.6142696 32.43375,30.3567512 C32.43375,22.0360829 39.17175,15.2670323 47.45425,15.2670323 C55.4375,15.2670323 62.02625,21.5345323 62.454,29.535735 L66.367,29.3245161 C66.20625,26.3179747 65.35175,23.5083364 63.97025,21.0412696 C65.16875,21.0415207 66.37175,21.0538272 67.5715,21.0796959 L67.6545,17.144394 C65.45575,17.0971774 63.24775,17.0951682 61.07275,17.1320876 C57.621,13.5481475 52.78425,11.3307258 47.454,11.3307258 L40.9235,11.3307258 C30.4805,11.3307258 21.98475,19.8656267 21.98475,30.3567512 C21.98475,33.1415253 22.59325,35.8848594 23.75325,38.3875899 C18.41025,42.5946382 14.971,49.1353917 14.971,56.4682788 C14.971,57.296076 15.01525,58.1203571 15.1025,58.937606 C9.103,55.7183387 3.91875,51.0800622 3.91875,44.6588571 C3.91875,36.4137857 12.56575,31.142606 19.81975,28.1719793 L18.34075,24.5265069 C6.342,29.4402972 0,36.4017304 0,44.6588571 C0,61.8326359 6.657,77.9787005 18.74525,90.1221544 C30.8335,102.265608 46.905,108.953788 64,108.953788 C81.095,108.953788 97.167,102.266111 109.25475,90.1221544 C121.3425,77.9781982 128,61.8328871 128,44.6588571 C128,37.0612558 122.576,30.5016659 112.31425,25.6890899 Z M100.00225,63.9099147 C95.175,65.2523226 89.825,66.3041475 84.1145,67.0380138 C75.68775,64.9064862 69.82775,57.3691613 69.82775,48.5954147 C69.82775,38.1042903 78.3235,29.5693894 88.7665,29.5693894 C99.2095,29.5693894 107.70525,38.1042903 107.70525,48.5954147 C107.7055,54.6295945 104.831,60.3284862 100.00225,63.9099147 Z M70.24425,68.1621705 C68.186,68.2380184 66.10275,68.2774493 64,68.2774493 L63.96,68.2774493 C64.67175,67.0869885 65.274,65.8347442 65.75975,64.5365392 C67.09,65.925159 68.59575,67.1442512 70.24425,68.1621705 Z M74.4045,24.3208134 C74.4045,13.106371 81.1425,3.98251843 89.425,3.98251843 C97.7075,3.98251843 104.4455,13.106371 104.4455,24.3208134 C104.4455,26.6429654 104.14225,28.9447742 103.57125,31.1152304 C99.58,27.6985576 94.40925,25.6328318 88.767,25.6328318 L82.3635,25.6328318 C82.28425,25.2016037 82.2415,24.762841 82.2415,24.3208134 C82.2415,24.1673594 82.246,24.0327419 82.25475,23.9096774 L82.2565,23.882553 C82.47925,20.0816175 85.62775,17.1039585 89.425,17.1039585 C93.36575,17.1039585 96.58825,20.3237281 96.60875,24.2811313 L100.527,24.2605369 C100.4955,18.1439793 95.51525,13.1676521 89.425,13.1676521 C83.5605,13.1676521 78.69625,17.7657442 78.3455,23.638182 C78.33025,23.8529171 78.323,24.0764424 78.323,24.3208134 C78.323,24.8683249 78.3675,25.4123203 78.44625,25.9505392 C77.09975,26.1773295 75.7925,26.5221613 74.536,26.9749885 C74.452,26.1012304 74.4045,25.216924 74.4045,24.3208134 Z M71.677,32.8084977 C71.71775,32.9481382 71.75475,33.0890346 71.7975,33.2281728 C68.1395,37.3008548 65.90925,42.6910806 65.90925,48.5954147 C65.90925,53.8007926 67.69125,58.899682 70.927,62.952523 C71.5735,63.7624885 72.2755,64.5222235 73.021,65.2327327 C67.1755,61.9737834 63.297,55.7200968 63.297,48.5954147 C63.29725,42.0287926 66.626,36.2289378 71.677,32.8084977 Z M59.62725,45.2128986 C59.46425,46.3172143 59.37875,47.446394 59.37875,48.5954147 C59.37875,53.0423134 60.6315,57.2086751 62.8165,60.7398733 C62.194,63.4583433 60.976,66.0120576 59.255,68.210894 C56.62975,68.1375576 54.04375,68.0034424 51.5085,67.8113111 C56.09775,66.1049839 59.378,61.6643641 59.378,56.4682788 C59.378,49.8016982 53.979,44.3780691 47.34325,44.3780691 L45.384,44.3780691 L45.384,51.3163963 L46.2715,51.8990691 C47.819,52.9147281 48.74275,54.6230645 48.74275,56.4687811 C48.74275,58.3144977 47.819,60.0228341 46.2715,61.0387442 L45.384,61.6214171 L45.384,67.2226106 C44.69475,67.1414885 44.01075,67.0550922 43.3315,66.9651797 L43.3315,61.6214171 L42.44375,61.0387442 C40.89625,60.0230853 39.9725,58.3147488 39.9725,56.4690323 C39.9725,54.6233157 40.89625,52.9149793 42.44375,51.8993203 L43.3315,51.3166475 L43.3315,44.3783203 L41.37225,44.3783203 C34.73625,44.3783203 29.3375,49.8022005 29.3375,56.46853 C29.3375,59.8779194 30.752,62.9603088 33.0195,65.1604009 C30.855,64.6804493 28.77325,64.1477558 26.78625,63.5640783 C25.88125,61.3137558 25.42,58.9315783 25.42,56.4687811 C25.42,45.9776567 33.91575,37.4427558 44.35875,37.4427558 C50.40675,37.4422535 56.05775,40.3337673 59.62725,45.2128986 Z M49.302,49.2627258 L49.302,48.554477 C52.834,49.4372765 55.45925,52.6505161 55.45925,56.4682788 C55.45925,60.2860415 52.834,63.4992811 49.302,64.3820806 L49.302,63.6740829 C51.4225,61.8974332 52.6605,59.276159 52.6605,56.4682788 C52.66075,53.6601475 51.4225,51.0388733 49.302,49.2627258 Z M39.41275,63.6735806 L39.41275,64.3818295 C35.88075,63.49903 33.2555,60.2857903 33.2555,56.4680276 C33.2555,52.650265 35.88075,49.4370253 39.41275,48.5542258 L39.41275,49.2624747 C37.29225,51.0386221 36.05425,53.6598963 36.05425,56.4680276 C36.05425,59.276159 37.29225,61.8976843 39.41275,63.6735806 Z M26.035,28.3884724 C26.21475,27.0098986 26.5765,25.6883364 27.10175,24.4521659 L29.4535,24.4521659 C29.04275,25.7126982 28.756,27.028735 28.6165,28.3884724 L26.035,28.3884724 Z M34.01775,16.9630622 C32.963,18.0309608 32.03225,19.2226774 31.251,20.5156083 L29.55125,20.5156083 C30.797,19.0644516 32.3115,17.8544009 34.01775,16.9630622 Z M26.03125,32.3247788 L28.619,32.3247788 C28.7195,33.307788 28.89625,34.2767327 29.147,35.2275945 C28.43825,35.5209401 27.74725,35.8486935 27.07625,36.2095991 C26.5575,34.9701636 26.206,33.6629171 26.03125,32.3247788 Z M18.88925,56.4682788 C18.88925,49.3541452 22.7985,43.1434055 28.57,39.8796843 C24.21675,44.0631244 21.5015,49.9528917 21.5015,56.4682788 C21.5015,58.3765323 21.73075,60.2453548 22.18375,62.0591751 C22.12925,62.0393341 22.07325,62.0202465 22.01875,62.0001544 C21.16875,61.6884747 20.3015,61.3496705 19.43025,60.9849977 C19.0725,59.5147535 18.88925,57.9998041 18.88925,56.4682788 Z M106.48425,87.3388871 C95.13625,98.7389309 80.04825,105.017482 64,105.017482 C47.95175,105.017482 32.86375,98.739182 21.51575,87.3388871 C12.9715,78.7552627 7.31925,68.0413664 5.04675,56.3896682 C8.52525,60.0263502 13.76625,63.1649977 20.675,65.6981175 C32.137,69.8998917 47.5235,72.2140069 63.99975,72.2140069 C80.476,72.2140069 95.8625,69.8998917 107.32425,65.6981175 C114.233,63.1652488 119.474,60.0268525 122.9525,56.3896682 C120.68075,68.0416175 115.02825,78.7552627 106.48425,87.3388871 Z" id="Shape" fill="#000000"></path>
                <polygon id="Rectangle-path" fill="#000000" points="86.8075 36.7859931 90.72575 36.7859931 90.72575 40.7222995 86.8075 40.7222995"></polygon>
                <polygon id="Rectangle-path" fill="#000000" points="86.8075 56.4682788 90.72575 56.4682788 90.72575 60.4045853 86.8075 60.4045853"></polygon>
                <polygon id="Rectangle-path" fill="#000000" transform="translate(97.247972, 43.674991) rotate(59.999272) translate(-97.247972, -43.674991) " points="95.2888904 41.7068813 99.2070541 41.7068813 99.2070541 45.6431012 95.2888904 45.6431012"></polygon>
                <polygon id="Rectangle-path" fill="#000000" transform="translate(80.281686, 53.515517) rotate(59.999272) translate(-80.281686, -53.515517) " points="78.3226039 51.5474073 82.2407676 51.5474073 82.2407676 55.4836272 78.3226039 55.4836272"></polygon>
                <polygon id="Rectangle-path" fill="#000000" transform="translate(97.250203, 53.515574) rotate(30.000728) translate(-97.250203, -53.515574) " points="95.2911214 51.5474636 99.2092851 51.5474636 99.2092851 55.4836835 95.2911214 55.4836835"></polygon>
                <polygon id="Rectangle-path" fill="#000000" transform="translate(80.282973, 43.674771) rotate(30.000728) translate(-80.282973, -43.674771) " points="78.3238914 41.7066613 82.2420551 41.7066613 82.2420551 45.6428812 78.3238914 45.6428812"></polygon>
            </g>
        </g>
    </g>
</svg>