<?xml version="1.0" encoding="UTF-8"?>
<svg width="128px" height="87px" viewBox="0 0 128 87" version="1.1" xmlns="http://www.w3.org/2000/svg" xmlns:xlink="http://www.w3.org/1999/xlink">
    <!-- Generator: Sketch 61.2 (89653) - https://sketch.com -->
    <title>shrimp</title>
    <desc>Created with Sketch.</desc>
    <g id="Page-1" stroke="none" stroke-width="1" fill="none" fill-rule="evenodd">
        <g id="100-Summer-Food-and-Drink-Icons" transform="translate(-186.000000, -1106.000000)" fill-rule="nonzero">
            <g id="shrimp" transform="translate(186.000000, 1106.000000)">
                <polyline id="Shape" fill="#E21220" points="85.94275 51.01 64.087 70.602 85.94275 70.602"></polyline>
                <path d="M85.94275,18.357 C100.36975,18.357 112.06525,30.05225 112.06525,44.4795 C112.06525,58.90675 100.36975,70.602 85.94275,70.602 L85.94275,51.01 C89.5495,51.01 92.47325,48.086 92.47325,44.4795 C92.47325,40.87275 89.54925,37.949 85.94275,37.949 L85.94275,18.357 Z" id="Shape" fill="#FF505D"></path>
                <path d="M85.94275,18.357 L85.94275,18.88 C97.86625,21.3005 106.84075,31.84175 106.84075,44.4795 C106.84075,57.11725 97.8665,67.6585 85.94275,70.079 L85.94275,70.602 C100.36975,70.602 112.06525,58.9065 112.06525,44.4795 C112.06525,30.0525 100.36975,18.357 85.94275,18.357 Z" id="Shape" fill="#E21220"></path>
                <path d="M80.71825,37.94875 L85.94275,37.94875 L85.94275,18.357 L61.1265,18.357 L61.1265,18.357 C61.1265,29.17725 69.89825,37.94875 80.71825,37.94875 Z" id="Shape" fill="#FF7C80"></path>
                <circle id="Oval" fill="#FFFFFF" cx="73.53475" cy="18.357" r="5.2245"></circle>
                <polyline id="Shape" fill="#E21220" points="53.81225 51.01 31.9565 70.602 53.81225 70.602"></polyline>
                <path d="M53.81225,18.357 C68.23925,18.357 79.93475,30.05225 79.93475,44.4795 C79.93475,58.90675 68.23925,70.602 53.81225,70.602 L53.81225,51.01 C57.419,51.01 60.34275,48.086 60.34275,44.4795 C60.34275,40.87275 57.41875,37.949 53.81225,37.949 L53.81225,18.357 L53.81225,18.357 Z" id="Shape" fill="#FF505D"></path>
                <path d="M53.81225,18.357 L53.81225,18.88 C65.73575,21.3005 74.71025,31.84175 74.71025,44.4795 C74.71025,57.11725 65.736,67.6585 53.81225,70.079 L53.81225,70.602 C68.23925,70.602 79.93475,58.9065 79.93475,44.4795 C79.93475,30.0525 68.23925,18.357 53.81225,18.357 Z" id="Shape" fill="#E21220"></path>
                <path d="M48.58775,37.94875 L53.81225,37.94875 L53.81225,18.357 L28.996,18.357 L28.996,18.357 C28.996,29.17725 37.7675,37.94875 48.58775,37.94875 Z" id="Shape" fill="#FF7C80"></path>
                <circle id="Oval" fill="#FFFFFF" cx="41.404" cy="18.357" r="5.2245"></circle>
                <path d="M47.28175,65.2235 C40.1105,72.39475 28.484,72.39475 21.31325,65.2235 C14.142,58.05225 14.142,46.42575 21.31325,39.255 L47.28175,65.2235 Z" id="Shape" fill="#FFDA44"></path>
                <path d="M45.131,63.07325 C37.9475,68.335 27.8045,67.7205 21.31275,61.2285 C18.236,58.15175 16.481,54.25475 16.044,50.24175 C15.463,55.5825 17.21825,61.12925 21.31275,65.22375 C28.484,72.395 40.1105,72.395 47.28125,65.22375 L45.131,63.07325 Z" id="Shape" fill="#EEBF00"></path>
                <rect id="Rectangle-path" fill="#FFFFFF" x="1.95925" y="70.602" width="124.08175" height="6.5305"></rect>
                <polyline id="Shape" fill="#FFFFFF" points="116.245 77.1325 111.0205 84.96925 16.9795 84.96925 11.755 77.1325"></polyline>
                <path d="M100.23475,68.64275 C108.48325,63.74525 114.0245,54.74825 114.0245,44.4795 C114.0245,29.654 102.4755,17.47675 87.902,16.46725 L87.902,16.39775 L85.94275,16.39775 L83.9835,16.39775 L80.4445,16.39775 C79.8045,14.14375 78.09,12.33825 75.89125,11.5725 C76.4455,10.5575 77.523,9.86725 78.759,9.86725 L94.4325,9.86725 C98.3935,9.86725 101.61625,6.6445 101.61625,2.6835 L101.61625,0.07125 L97.698,0.07125 L97.698,2.6835 C97.698,4.484 96.23325,5.94875 94.43275,5.94875 L78.75925,5.94875 C75.39975,5.94875 72.57225,8.26775 71.79075,11.3885 C68.67,12.16975 66.351,14.99725 66.351,18.357 C66.351,18.71 66.37775,19.0565 66.427,19.396 C63.183,17.758 59.58075,16.73125 55.7715,16.4675 L55.7715,16.398 L53.81225,16.398 L51.853,16.398 L48.314,16.398 C47.674,14.144 45.9595,12.3385 43.76075,11.57275 C44.315,10.55775 45.3925,9.8675 46.6285,9.8675 L62.302,9.8675 C66.263,9.8675 69.48575,6.64475 69.48575,2.68375 L69.48575,0.07125 L65.5675,0.07125 L65.5675,2.6835 C65.5675,4.484 64.10275,5.94875 62.30225,5.94875 L46.62875,5.94875 C43.26925,5.94875 40.44175,8.26775 39.66025,11.3885 C37.17025,12.01175 35.19275,13.938 34.4945,16.39775 L27.03675,16.39775 L27.03675,18.357 C27.03675,24.11225 29.2785,29.52375 33.34975,33.59525 C37.421,37.66625 42.8325,39.908 48.58775,39.908 L51.853,39.908 L53.81225,39.908 C56.33275,39.908 58.38375,41.95875 58.38375,44.4795 C58.38375,47 56.333,49.051 53.81225,49.051 L53.0625,49.051 L45.46175,55.86525 L48.07775,58.7825 L51.85325,55.39775 L51.85325,68.6425 L46.297,68.6425 C47.12975,68.03075 47.92275,67.35325 48.667,66.60875 L50.05225,65.22325 L21.313,36.4845 L19.9275,37.86975 C16.08925,41.70825 13.9755,46.8115 13.9755,52.23975 C13.9755,57.66775 16.08925,62.771 19.9275,66.60925 C20.672,67.35375 21.465,68.03125 22.29775,68.64325 L0,68.64325 L0,79.09225 L10.7065,79.09225 L15.931,86.929 L112.06875,86.929 L117.29325,79.09225 L128,79.09225 L128,68.64325 L100.23475,68.64325 L100.23475,68.64275 Z M41.404,15.09175 C43.2045,15.09175 44.66925,16.5565 44.66925,18.357 C44.66925,20.1575 43.2045,21.62225 41.404,21.62225 C39.6035,21.62225 38.13875,20.1575 38.13875,18.357 C38.13875,16.5565 39.6035,15.09175 41.404,15.09175 Z M51.853,35.98975 L48.58775,35.98975 C43.87925,35.98975 39.45125,34.15525 36.12025,30.8245 C33.25575,27.95975 31.49825,24.28425 31.062,20.31625 L34.49425,20.31625 C35.3495,23.32775 38.1225,25.54075 41.40425,25.54075 C44.686,25.54075 47.459,23.32775 48.31425,20.31625 L51.85325,20.31625 L51.85325,35.98975 L51.853,35.98975 Z M87.902,68.564 L87.902,52.741 C88.79625,52.529 89.63525,52.1735 90.396,51.70325 L101.57575,62.88275 C97.825,66.0735 93.09475,68.1455 87.902,68.564 Z M104.3495,60.11525 L93.16775,48.93325 C93.63825,48.17275 93.9905,47.3325 94.20275,46.43825 L110.02125,46.43825 C109.60225,51.6305 107.54,56.36525 104.3495,60.11525 Z M110.02125,42.52025 L94.20275,42.52025 C93.99075,41.626 93.6385,40.78575 93.16775,40.02525 L104.3495,28.84325 C107.54,32.59375 109.60225,37.3285 110.02125,42.52025 Z M87.902,20.39475 C93.0945,20.8135 97.82475,22.88525 101.57525,26.07575 L90.3955,37.25525 C89.635,36.78475 88.79575,36.4295 87.9015,36.2175 L87.9015,20.3945 L87.902,20.3945 L87.902,20.39475 Z M84.47225,39.908 L85.943,39.908 C88.4635,39.908 90.5145,41.95875 90.5145,44.4795 C90.5145,47 88.4635,49.051 85.943,49.051 L83.98375,49.051 L83.98375,68.64275 L68.10425,68.64275 C76.35275,63.74525 81.894,54.74825 81.894,44.4795 C81.894,42.92275 81.76475,41.39625 81.52,39.908 L83.98375,39.908 L84.47225,39.908 Z M62.072,46.43875 L77.8905,46.43875 C77.4715,51.6305 75.4095,56.36525 72.21875,60.1155 L61.037,48.9335 C61.50775,48.17325 61.86,47.33275 62.072,46.43875 Z M61.03725,40.02525 L72.219,28.84325 C75.4095,32.5935 77.47175,37.328 77.89075,42.52 L62.07225,42.52 C61.86,41.626 61.50775,40.78575 61.03725,40.02525 Z M80.4445,20.31625 L83.9835,20.31625 L83.9835,35.98975 L80.58075,35.98975 C79.32425,32.03675 77.2145,28.4605 74.469,25.478 C77.33375,25.104 79.672,23.03675 80.4445,20.31625 Z M73.53475,15.09175 C75.33525,15.09175 76.8,16.5565 76.8,18.357 C76.8,20.1575 75.33525,21.62225 73.53475,21.62225 C71.73425,21.62225 70.2695,20.1575 70.2695,18.357 C70.2695,16.5565 71.734,15.09175 73.53475,15.09175 Z M58.26525,37.2555 C57.50475,36.785 56.6655,36.42975 55.77125,36.21775 L55.77125,20.39475 C60.9635,20.8135 65.694,22.88525 69.4445,26.07575 L58.26525,37.2555 Z M55.7715,52.74125 C56.66575,52.52925 57.50475,52.17375 58.2655,51.7035 L69.44525,62.883 C65.6945,66.0735 60.96425,68.14575 55.772,68.564 L55.772,52.741 L55.7715,52.741 L55.7715,52.74125 Z M36.2565,56.96875 L44.42975,65.142 C42.062,67.009 39.251,68.1715 36.2565,68.5255 L36.2565,56.96875 Z M21.39425,42.107 L29.5675,50.28025 L18.011,50.28025 C18.36525,47.28575 19.52725,44.47475 21.39425,42.107 Z M32.338,56.96975 L32.338,68.523 C29.34425,68.169 26.536,67.0055 24.1685,65.139 L32.338,56.96975 Z M21.39775,62.36775 C19.53125,60.00075 18.368,57.19175 18.01375,54.1985 L29.56725,54.1985 L21.39775,62.36775 Z M109.97175,83.01 L18.02825,83.01 L15.416,79.09175 L112.5845,79.09175 L109.97175,83.01 Z M124.08175,75.17325 L3.91825,75.17325 L3.91825,72.561 L51.853,72.561 L53.81225,72.561 L83.98375,72.561 L85.943,72.561 L124.08175,72.561 L124.08175,75.17325 Z" id="Shape" fill="#000000"></path>
            </g>
        </g>
    </g>
</svg>