<?xml version="1.0" encoding="UTF-8"?>
<svg width="88px" height="128px" viewBox="0 0 88 128" version="1.1" xmlns="http://www.w3.org/2000/svg" xmlns:xlink="http://www.w3.org/1999/xlink">
    <!-- Generator: Sketch 61.2 (89653) - https://sketch.com -->
    <title>fish-and-chips</title>
    <desc>Created with Sketch.</desc>
    <g id="Page-1" stroke="none" stroke-width="1" fill="none" fill-rule="evenodd">
        <g id="100-Summer-Food-and-Drink-Icons" transform="translate(-1106.000000, -2586.000000)" fill-rule="nonzero">
            <g id="fish-and-chips" transform="translate(1106.000000, 2586.000000)">
                <rect id="Rectangle-path" fill="#FFDA44" x="28.431" y="9.1925" width="7.83675" height="39.787"></rect>
                <polygon id="Shape" fill="#FFDA44" points="23.58 48.9795 14.014 48.9795 3.343 33.74225 9.76125 29.24675"></polygon>
                <path d="M78.90475,44.0085 C78.86825,45.699 78.68275,47.36 78.37175,48.9795 L42.78275,48.9795 C42.4955,47.35725 42.33875,45.6985 42.33875,44.0085 C42.33875,25.83525 60.62175,11.09975 60.62175,11.09975 C60.62175,11.09975 79.2835,25.83775 78.90475,44.0085 Z" id="Shape" fill="#0DD9DD"></path>
                <path d="M60.62175,11.0995 C60.62175,11.0995 59.597,11.92575 58.0335,13.42675 C63.164,18.268 73.96925,30.13775 73.68025,44.00825 C73.64375,45.69875 73.45825,47.35975 73.14725,48.97925 L78.37175,48.97925 C78.6825,47.35975 78.868,45.69825 78.90475,44.00825 C79.2835,25.83775 60.62175,11.0995 60.62175,11.0995 Z" id="Shape" fill="#02A6AA"></path>
                <polygon id="Shape" fill="#0DD9DD" points="69.766 1.95925 60.6245 11.1005 51.48325 1.95925"></polygon>
                <polygon id="Shape" fill="#FFDA44" points="28.83075 48.9795 20.717 48.9795 12.6295 18.80025 20.19975 16.7705"></polygon>
                <polygon id="Shape" fill="#FFDA44" points="50.50975 25.98925 39.789 48.9795 31.1425 48.9795 43.407 22.677"></polygon>
                <polygon id="Shape" fill="#EBE5DD" points="85.796 51.0695 44.81775 126.04075 43.185 126.04075 2.204 51.0695 2.204 48.9795 85.796 48.9795"></polygon>
                <polygon id="Shape" fill="#D9CCBC" points="80.5715 48.9795 80.5715 51.0695 41.389 122.75525 43.185 126.04075 44.81775 126.04075 85.796 51.0695 85.796 48.9795"></polygon>
                <path d="M60.6245,27.44175 C62.5685,27.44175 64.15,29.0235 64.15,30.96725 L68.06825,30.96725 C68.06825,26.86275 64.729,23.5235 60.6245,23.5235 C56.52,23.5235 53.18075,26.86275 53.18075,30.96725 L57.099,30.96725 C57.099,29.023 58.6805,27.44175 60.6245,27.44175 Z" id="Shape" fill="#000000"></path>
                <path d="M46.6265,41.9365 L50.54475,41.9365 C50.54475,39.99275 52.12625,38.411 54.07025,38.411 C56.01425,38.411 57.59575,39.99275 57.59575,41.9365 L61.514,41.9365 C61.514,39.99275 63.09575,38.411 65.03975,38.411 C66.98375,38.411 68.56525,39.99275 68.56525,41.9365 L72.4835,41.9365 C72.4835,37.832 69.14425,34.49275 65.03975,34.49275 C62.871,34.49275 60.91675,35.42525 59.555,36.90975 C58.19325,35.42525 56.23875,34.49275 54.07025,34.49275 C49.96575,34.4925 46.6265,37.83175 46.6265,41.9365 Z" id="Shape" fill="#000000"></path>
                <path d="M80.64925,47.0205 C80.76675,46.01925 80.84125,45.02525 80.86075,44.0495 C81.19275,28.23025 68.2365,15.205 63.5085,10.98725 L74.4955,0 L46.7535,0 L57.7555,11.00225 C55.97475,12.62825 52.98125,15.57425 49.96225,19.4995 L53.0685,21.8885 C55.975,18.109 58.8985,15.26275 60.532,13.7785 L60.62475,13.871 L60.72525,13.7705 C64.854,17.4645 77.242,29.75375 76.94325,43.969 C76.92325,44.9675 76.83775,45.98925 76.69975,47.02025 L42.8645,47.02025 L53.1135,25.0415 L42.45975,20.07275 L38.22725,29.14975 L38.22725,7.23325 L26.47225,7.23325 L26.47225,27.30275 L30.3905,27.30275 L30.3905,11.15175 L34.30875,11.15175 L34.30875,37.55375 L30.17375,46.4215 L21.585,14.371 L10.23,17.41525 L14.17375,32.13175 L10.242,26.51775 L0.61425,33.26125 L8.74925,44.87875 L11.959,42.63125 L6.07125,34.223 L9.2805,31.9755 L17.139,43.1965 L18.16375,47.0205 L0.245,47.0205 L0.245,51.57 L42.023,128 L45.9795,128 L87.755,51.57 L87.755,47.0205 L80.64925,47.0205 Z M65.036,3.91825 L60.6245,8.33 L56.21325,3.9185 L65.036,3.9185 L65.036,3.91825 Z M44.3545,25.2805 L47.906,26.93675 L38.54075,47.0205 L34.21775,47.0205 L44.3545,25.2805 Z M15.02925,20.185 L18.815,19.17025 L26.27775,47.0205 L22.22075,47.0205 L15.02925,20.185 Z M44.00125,123.4495 L4.3655,50.93875 L10.35,50.93875 L46.9925,117.9775 L44.00125,123.4495 Z M49.22475,113.8925 L14.815,50.93875 L83.6345,50.93875 L49.22475,113.8925 Z" id="Shape" fill="#000000"></path>
            </g>
        </g>
    </g>
</svg>