<?xml version="1.0" encoding="UTF-8"?>
<svg width="96px" height="128px" viewBox="0 0 96 128" version="1.1" xmlns="http://www.w3.org/2000/svg" xmlns:xlink="http://www.w3.org/1999/xlink">
    <!-- Generator: Sketch 61.2 (89653) - https://sketch.com -->
    <title>margarita</title>
    <desc>Created with Sketch.</desc>
    <g id="Page-1" stroke="none" stroke-width="1" fill="none" fill-rule="evenodd">
        <g id="100-Summer-Food-and-Drink-Icons" transform="translate(-802.000000, -4386.000000)" fill-rule="nonzero">
            <g id="margarita" transform="translate(802.000000, 4386.000000)">
                <polygon id="Shape" fill="#FFFFFF" points="70.28975 125.795057 10.2085 125.795057 2.37175 33.241575 78.1265 33.241575"></polygon>
                <polygon id="Shape" fill="#FFDA44" points="76.802 48.8845224 70.28975 125.795057 10.2085 125.795057 3.696 48.8845224"></polygon>
                <polygon id="Shape" fill="#91DC5A" points="73.54475 87.3396647 70.28975 125.795057 10.2085 125.795057 6.9535 87.3396647"></polygon>
                <polygon id="Shape" fill="#FFF5CC" points="12.178 87.3396647 6.9535 87.3396647 3.696 48.8845224 8.9205 48.8845224"></polygon>
                <polygon id="Shape" fill="#C9EEAE" points="12.178 87.3396647 14.55 115.366674 9.3255 115.366674 6.9535 87.3396647"></polygon>
                <polygon id="Shape" fill="#6DC82A" points="73.54475 87.3396647 71.17275 115.366674 65.94825 115.366674 68.32025 87.3396647"></polygon>
                <polygon id="Shape" fill="#EEBF00" points="76.802 48.8845224 73.54475 87.3396647 68.32025 87.3396647 71.57775 48.8845224"></polygon>
                <polygon id="Shape" fill="#FFFFFF" points="71.17275 115.366674 70.28975 125.795057 10.2085 125.795057 9.3255 115.366674"></polygon>
                <polygon id="Shape" fill="#EBE5DD" points="71.17275 115.366674 70.28975 125.795057 65.06525 125.795057 65.94825 115.366674"></polygon>
                <path d="M84.6185,55.3631189 L79.394,50.1488031 L72.072,42.841076 L66.1475,36.9281248 C68.18775,34.8918519 68.18775,31.5912982 66.1475,29.5550253 C64.10725,27.5187524 60.80025,27.5187524 58.76,29.5550253 L45.51325,16.3340975 L40.28875,11.1197817 C52.52975,-1.09985185 72.3775,-1.09985185 84.61825,11.1197817 C96.85925,23.3371696 96.85925,43.14623 84.6185,55.3631189 Z" id="Shape" fill="#3FC378"></path>
                <path d="M79.394,50.1488031 L72.072,42.841076 L66.1475,36.9281248 C68.18775,34.8918519 68.18775,31.5912982 66.1475,29.5550253 C64.10725,27.5187524 60.80025,27.5187524 58.76,29.5550253 L45.51325,16.3340975 C54.86775,6.99533723 70.037,6.99533723 79.394,16.3340975 C88.751,25.6703626 88.751,40.8127875 79.394,50.1488031 Z" id="Shape" fill="#C9EEAE"></path>
                <path d="M84.61875,11.1192827 C83.73475,10.2370058 82.81,9.4208499 81.8525,8.66607407 C91.57,20.9453411 90.752,38.814191 79.3945,50.1498012 L84.619,55.364117 C96.8605,43.14623 96.8605,23.3371696 84.61875,11.1192827 Z" id="Shape" fill="#2B8C4A"></path>
                <polygon id="Rectangle-path" fill="#C9EEAE" points="33.88075 84.5079454 57.39075 84.5079454 57.39075 107.972117 33.88075 107.972117"></polygon>
                <rect id="Rectangle-path" fill="#FFF5CC" transform="translate(29.964884, 70.165272) rotate(-14.999329) translate(-29.964884, -70.165272) " x="18.2104852" y="58.4337864" width="23.5087976" height="23.4629715"></rect>
                <path d="M86.00375,9.73773099 C79.7135,3.45849513 71.34975,0 62.4535,0 C53.55725,0 45.19375,3.45849513 38.9035,9.73773099 L37.5185,11.1205302 L58.759,32.3198752 L60.1445,30.9373255 C60.761,30.3217778 61.58125,29.9829396 62.4535,29.9829396 C63.3255,29.9829396 64.14575,30.3217778 64.7625,30.9373255 C65.379,31.5526238 65.71875,32.3710253 65.71875,33.241575 C65.71875,34.1121248 65.379,34.9307758 64.76225,35.5460741 L63.377,36.9288733 L70.68675,44.2238752 L73.457,41.4585263 L68.72775,36.7389942 C69.00125,36.2519454 69.21275,35.7344561 69.3645,35.1970058 L84.3625,35.1970058 C83.94775,39.9180351 82.03575,44.3271735 78.854,47.8705029 L79.63725,38.6205692 L75.73275,38.290963 L71.7455,85.3842339 L62.61525,85.3842339 L62.61525,89.294846 L71.41425,89.294846 L69.37225,113.410994 L11.126,113.410994 L9.084,89.294846 L31.92275,89.294846 L31.92275,109.92655 L59.35125,109.92655 L59.35125,82.5520156 L36.644,82.5520156 L46.76025,79.8467992 L39.66125,53.4044444 L13.16725,60.4896062 L19.851,85.3847329 L8.753,85.3847329 L5.828,50.8402027 L71.57775,50.8402027 L71.57775,46.9295906 L5.497,46.9295906 L4.5035,35.1975049 L54.6165,35.1975049 L54.6165,31.2863938 L0.24025,31.2863938 L8.40825,127.750737 L72.0905,127.750737 L78.5025,52.0246394 L84.618,58.1284678 L86.0035,56.7459181 C92.295,50.4679298 95.76025,42.1207329 95.76025,33.2418246 C95.76025,24.3629162 92.295,16.0154698 86.00375,9.73773099 Z M55.433,106.015938 L35.84125,106.015938 L35.84125,86.4623782 L55.433,86.4623782 L55.433,106.015938 Z M36.89,58.1938402 L41.96075,77.0809513 L23.03675,82.1415673 L17.966,63.2547057 L36.89,58.1938402 Z M31.92275,83.8140507 L31.92275,85.3842339 L26.051,85.3842339 L31.92275,83.8140507 Z M12.009,123.839875 L11.457,117.322105 L69.041,117.322105 L68.489,123.839875 L12.009,123.839875 Z M58.95125,26.9808031 L48.34425,16.3944795 C51.7965,13.5036257 56.00525,11.7640234 60.4945,11.3710409 L60.4945,26.34754 C59.96225,26.4972476 59.4435,26.7068382 58.95125,26.9808031 Z M68.72675,29.746152 L79.3305,19.1630721 C82.22625,22.6080936 83.96875,26.8061442 84.3625,31.2863938 L69.36575,31.2863938 C69.214,30.749193 69,30.2329513 68.72675,29.746152 Z M65.95175,26.9847953 C65.46025,26.7113294 64.944,26.4982456 64.413,26.349037 L64.413,11.3752827 C68.901,11.7685146 73.10725,13.5076179 76.5595,16.3977232 L65.95175,26.9847953 Z M84.57325,52.5528577 L82.11325,50.097653 C86.162,45.409809 88.3705,39.4948616 88.3705,33.2413255 C88.3705,26.3313216 85.6745,19.8360078 80.779,14.9517973 C75.8835,10.0658402 69.375,7.37459649 62.45225,7.37459649 C56.18675,7.37459649 50.26125,9.57879142 45.56425,13.6196491 L43.10425,11.1644444 C48.462,6.47235867 55.26,3.91036257 62.45325,3.91036257 C70.30275,3.91036257 77.68225,6.96140351 83.23275,12.5025809 C88.78425,18.0420117 91.84125,25.4071267 91.84125,33.2413255 C91.84175,40.4205536 89.2745,47.2058012 84.57325,52.5528577 Z" id="Shape" fill="#000000"></path>
            </g>
        </g>
    </g>
</svg>