<?xml version="1.0" encoding="UTF-8"?>
<svg width="50px" height="128px" viewBox="0 0 50 128" version="1.1" xmlns="http://www.w3.org/2000/svg" xmlns:xlink="http://www.w3.org/1999/xlink">
    <!-- Generator: Sketch 61.2 (89653) - https://sketch.com -->
    <title>beer-1</title>
    <desc>Created with Sketch.</desc>
    <g id="Page-1" stroke="none" stroke-width="1" fill="none" fill-rule="evenodd">
        <g id="100-Summer-Food-and-Drink-Icons" transform="translate(-1425.000000, -1386.000000)" fill-rule="nonzero">
            <g id="beer-1" transform="translate(1425.000000, 1386.000000)">
                <path d="M31.48875,8.48975 L34.79575,43.755 L41.5145,47.78575 C45.45125,50.14725 47.857,54.4 47.857,58.987 L47.857,120.81625 C47.857,123.70275 45.519,126.04075 42.6325,126.04075 L7.36725,126.04075 C4.48075,126.04075 2.14275,123.70275 2.14275,120.81625 L2.14275,58.987 C2.14275,54.4 4.54875,50.14725 8.48525,47.78575 L15.204,43.755 L18.511,8.48975" id="Shape" fill="#3FC378"></path>
                <path d="M21.89925,28.08175 L20.4285,43.75525 L13.70975,47.786 C9.773,50.14725 7.36725,54.40025 7.36725,58.98725 L7.36725,120.8165 C7.36725,123.703 9.70525,126.041 12.59175,126.041 L7.36725,126.041 C4.48075,126.041 2.14275,123.703 2.14275,120.8165 L2.14275,58.987 C2.14275,54.4 4.54875,50.14725 8.48525,47.78575 L15.204,43.755 L16.67475,28.0815 L21.89925,28.0815 L21.89925,28.08175 Z" id="Shape" fill="#95E0B9"></path>
                <path d="M47.85725,58.987 L47.85725,120.81625 C47.85725,123.70275 45.51925,126.04075 42.63275,126.04075 L37.40825,126.04075 C40.29475,126.04075 42.63275,123.70275 42.63275,120.81625 L42.63275,58.987 C42.63275,54.4 40.22675,50.14725 36.29025,47.78575 L29.5715,43.755 L28.10075,28.0815 L33.32525,28.0815 L34.796,43.755 L41.51475,47.78575 C45.45125,50.14725 47.85725,54.4 47.85725,58.987 Z" id="Shape" fill="#267F40"></path>
                <polygon id="Shape" fill="#2B8C4A" points="33.32525 28.08175 16.67475 28.08175 18.51125 8.48975 31.48875 8.48975"></polygon>
                <path d="M22.029,13.71425 C24.7255,13.71425 26.979,15.7665 27.23075,18.45125 L28.1335,28.0815 L33.32525,28.0815 L31.48875,8.48975 L18.511,8.48975 L18.02125,13.71425 L22.029,13.71425 Z" id="Shape" fill="#227539"></path>
                <ellipse id="Oval" fill="#FFFFFF" cx="25" cy="84.898" rx="11.755" ry="16.9795"></ellipse>
                <path d="M32.83675,8.48975 L17.16325,8.48975 L17.16325,3.26525 C17.16325,2.544 17.74825,1.95925 18.4695,1.95925 L31.53075,1.95925 C32.252,1.95925 32.83675,2.54425 32.83675,3.26525 L32.83675,8.48975 L32.83675,8.48975 Z" id="Shape" fill="#FFDA44"></path>
                <path d="M42.52275,46.1055 L36.654,42.58475 L33.64025,10.449 L34.796,10.449 L34.796,3.26525 C34.796,1.46475 33.33125,0 31.5305,0 L18.46925,0 C16.66875,0 15.204,1.46475 15.204,3.26525 L15.204,10.449 L16.35975,10.449 L13.346,42.58475 L7.47725,46.1055 C2.9785,48.8045 0.1835,53.74025 0.1835,58.987 L0.1835,120.81625 C0.1835,124.77725 3.406,128 7.36725,128 L42.6325,128 C46.59375,128 49.81625,124.77725 49.81625,120.81625 L49.81625,58.987 C49.81625,53.7405 47.0215,48.8045 42.52275,46.1055 Z M24.347,6.5305 L24.347,3.91825 L25.65325,3.91825 L25.65325,6.5305 L24.347,6.5305 Z M30.8775,6.5305 L29.5715,6.5305 L29.5715,3.91825 L30.8775,3.91825 L30.8775,6.5305 Z M19.1225,3.91825 L20.4285,3.91825 L20.4285,6.5305 L19.1225,6.5305 L19.1225,3.91825 Z M29.70475,10.449 L31.17475,26.1225 L18.8255,26.1225 L20.2955,10.449 L29.70475,10.449 L29.70475,10.449 Z M45.898,120.81625 C45.898,122.61675 44.43325,124.0815 42.63275,124.0815 L38.579,124.0815 C39.0815,123.10075 39.3675,121.99175 39.3675,120.81625 L35.44925,120.81625 C35.44925,122.61675 33.9845,124.0815 32.184,124.0815 L17.81675,124.0815 C16.01625,124.0815 14.5515,122.61675 14.5515,120.81625 L10.63325,120.81625 C10.63325,121.99175 10.91875,123.101 11.42175,124.0815 L7.368,124.0815 C5.5675,124.0815 4.10275,122.61675 4.10275,120.81625 L4.10275,58.987 C4.10275,55.10875 6.1685,51.4605 9.494,49.466 L15.74725,45.71425 L26.96,45.71425 L26.96,41.796 L17.35625,41.796 L18.4585,30.041 L31.5425,30.041 L32.9385,44.92525 L40.5075,49.466 C43.833,51.46075 45.89875,55.109 45.89875,58.987 L45.89875,120.81625 L45.898,120.81625 Z" id="Shape" fill="#000000"></path>
                <path d="M25,65.95925 C21.19825,65.95925 17.67425,68.025 15.07725,71.7765 C12.63225,75.308 11.28575,79.968 11.28575,84.898 C11.28575,89.828 12.632,94.488 15.07725,98.0195 C17.67425,101.77075 21.19825,103.83675 25,103.83675 C28.80175,103.83675 32.32575,101.771 34.92275,98.0195 C37.3675,94.48775 38.71425,89.828 38.71425,84.898 C38.71425,79.968 37.368,75.308 34.92275,71.7765 C32.32575,68.025 28.80175,65.95925 25,65.95925 Z M31.70125,95.789 C29.858,98.45225 27.478,99.9185 25,99.9185 C22.522,99.9185 20.142,98.45225 18.29875,95.789 C16.303,92.90675 15.204,89.039 15.204,84.898 C15.204,80.757 16.303,76.8895 18.29875,74.007 C20.142,71.34375 22.522,69.8775 25,69.8775 C27.478,69.8775 29.858,71.34375 31.70125,74.007 C33.697,76.88925 34.796,80.75725 34.796,84.898 C34.796,89.03875 33.697,92.9065 31.70125,95.789 Z" id="Shape" fill="#000000"></path>
            </g>
        </g>
    </g>
</svg>