<?xml version="1.0" encoding="UTF-8"?>
<svg width="40px" height="40px" viewBox="0 0 40 40" version="1.1" xmlns="http://www.w3.org/2000/svg" xmlns:xlink="http://www.w3.org/1999/xlink">
    <!-- Generator: Sketch 61.2 (89653) - https://sketch.com -->
    <title>ICON</title>
    <desc>Created with Sketch.</desc>
    <defs>
        <path d="M32,16 C32,24.8365 24.8365,32 16,32 C7.1635,32 0,24.8365 0,16 C0,7.16375 7.1635,0 16,0 C24.8365,0 32,7.16375 32,16" id="path-1"></path>
        <filter x="-21.9%" y="-15.6%" width="143.8%" height="143.8%" filterUnits="objectBoundingBox" id="filter-2">
            <feOffset dx="0" dy="2" in="SourceAlpha" result="shadowOffsetOuter1"></feOffset>
            <feGaussianBlur stdDeviation="2" in="shadowOffsetOuter1" result="shadowBlurOuter1"></feGaussianBlur>
            <feColorMatrix values="0 0 0 0 0   0 0 0 0 0   0 0 0 0 0  0 0 0 0.5 0" type="matrix" in="shadowBlurOuter1"></feColorMatrix>
        </filter>
        <path d="M32,16 C32,24.8365 24.8365,32 16,32 C7.1635,32 0,24.8365 0,16 C0,7.1635 7.1635,0 16,0 C24.8365,0 32,7.1635 32,16" id="path-3"></path>
    </defs>
    <g id="Page-1" stroke="none" stroke-width="1" fill="none" fill-rule="evenodd">
        <g id="8.MAIN-UI---SMART-OVERVIEW" transform="translate(-33.000000, -813.000000)">
            <g id="LEFT-HANDLE">
                <g id="6.-ANALYTICS" transform="translate(0.000000, 784.000000)">
                    <g id="CUSTOMER-ANALYTICS" transform="translate(0.000000, 20.000000)">
                        <g id="DINE-IN">
                            <g id="ICON" transform="translate(37.000000, 11.000000)">
                                <g id="Fill-71">
                                    <use fill="black" fill-opacity="1" filter="url(#filter-2)" xlink:href="#path-1"></use>
                                    <use fill="#A3BB9B" fill-rule="evenodd" xlink:href="#path-1"></use>
                                </g>
                                <g id="Group-82">
                                    <mask id="mask-4" fill="white">
                                        <use xlink:href="#path-3"></use>
                                    </mask>
                                    <g id="Clip-73"></g>
                                    <path d="M27.46925,29.5 C26.32475,23.75 17.74125,24.25 15.73825,24.25 C13.73525,24.25 5.15175,23.75 4.00725,29.5 C2.86275,35.25 8.5855,37.25 8.5855,37.25 L22.891,37.25 C22.891,37.25 28.61375,35.25 27.46925,29.5" id="Fill-72" fill="#217753" mask="url(#mask-4)"></path>
                                    <path d="M27.46925,29.5 C26.40525,24.15425 18.9135,24.2105 16.256,24.245 C19.51825,24.30275 25.173,24.9085 26.087,29.5 C27.2315,35.25 21.509,37.25 21.509,37.25 L22.891,37.25 C22.891,37.25 28.61375,35.25 27.46925,29.5" id="Fill-74" fill="#1C6A4A" mask="url(#mask-4)"></path>
                                    <path d="M19.23825,24.625 C19.23825,25.3845 17.6715,26 15.73825,26 C13.80525,26 12.23825,25.3845 12.23825,24.625 C12.23825,23.86575 13.80525,23.25 15.73825,23.25 C17.6715,23.25 19.23825,23.86575 19.23825,24.625" id="Fill-75" fill="#F8F7F5" mask="url(#mask-4)"></path>
                                    <path d="M18.84275,23.891 L18.844,23.891 L17.98825,21.22925 L15.73825,21.0625 L13.48825,21.22925 L12.6325,23.891 L12.63375,23.891 C12.621,23.92725 12.61325,23.9645 12.61325,24.00175 C12.61325,24.55325 14.0125,25 15.73825,25 C17.464,25 18.86325,24.55325 18.86325,24.00175 C18.86325,23.9645 18.8555,23.92725 18.84275,23.891" id="Fill-76" fill="#E1C7BB" mask="url(#mask-4)"></path>
                                    <path d="M18.84275,23.891 L18.844,23.891 L17.98825,21.22925 L15.73825,21.0625 L15.30075,21.09475 L17.11325,21.22925 L17.969,23.891 L17.96775,23.891 C17.9805,23.92725 17.98825,23.9645 17.98825,24.00175 C17.98825,24.5055 16.81875,24.921 15.30075,24.9895 C15.444,24.99575 15.58925,25 15.73825,25 C17.464,25 18.86325,24.55325 18.86325,24.00175 C18.86325,23.9645 18.8555,23.92725 18.84275,23.891" id="Fill-77" fill="#D2BAAF" mask="url(#mask-4)"></path>
                                    <path d="M22.23825,10.5 L22.23825,7.8995 C22.23825,5.871 20.79575,4.25 15.73825,4.25 C10.681,4.25 9.23825,5.871 9.23825,7.8995 L9.23825,10.5 C9.23825,10.5 8.23825,10.574 8.23825,11.25 L8.23825,14.0175 C8.23825,14.6935 8.48825,15.25 9.23825,15.25 C9.23825,18.63075 12.24425,22.5 15.73825,22.5 C19.2325,22.5 22.23825,18.63075 22.23825,15.25 C22.98825,15.25 23.23825,14.6935 23.23825,14.0175 L23.23825,11.25 C23.23825,10.574 22.23825,10.5 22.23825,10.5" id="Fill-78" fill="#FBDDD1" mask="url(#mask-4)"></path>
                                    <path d="M15.73825,4.25 C15.61025,4.25 15.4865,4.25175 15.36325,4.254 C20.11625,4.333 21.48825,5.92225 21.48825,7.8995 L21.48825,15.25 C21.48825,18.509 18.6945,22.22075 15.36325,22.484 C15.48775,22.49375 15.6125,22.5 15.73825,22.5 C19.2325,22.5 22.23825,18.63075 22.23825,15.25 L22.23825,7.8995 C22.23825,5.871 20.79575,4.25 15.73825,4.25" id="Fill-79" fill="#F0D2C5" mask="url(#mask-4)"></path>
                                    <path d="M15.73825,4.25 C10.681,4.25 9.23825,5.871 9.23825,7.8995 L9.23825,13.25 C9.46975,12.0925 10.13075,8.7925 11.61725,7.715 C12.79975,8.053 14.21575,8.25 15.73825,8.25 C17.26075,8.25 18.67675,8.053 19.8595,7.715 C21.34575,8.7925 22.00675,12.0925 22.23825,13.25 L22.23825,7.8995 C22.23825,5.871 20.79575,4.25 15.73825,4.25" id="Fill-80" fill="#1E1F1D" mask="url(#mask-4)"></path>
                                    <path d="M15.73825,4.25 C15.61075,4.25 15.487,4.25175 15.364,4.254 C20.11625,4.33325 21.48825,5.9225 21.48825,7.8995 L21.48825,10.367 C21.8865,11.499 22.11975,12.65625 22.23825,13.25 L22.23825,7.8995 C22.23825,5.871 20.79575,4.25 15.73825,4.25" id="Fill-81" fill="#161715" mask="url(#mask-4)"></path>
                                </g>
                                <path d="M28,0 C26.34575,0 25,1.346 25,3 C25,3.86325 25.3615,4.6635 26,5.233 L26,5.5 C26,5.8685 26.20275,6.1875 26.5,6.361 L26.5,7.36825 L26.77025,7.909 C26.81125,8.0615 26.9155,8.187 27.06825,8.28425 C27.20875,8.565 27.55725,8.75 28,8.75 C28.44275,8.75 28.79125,8.565 28.93175,8.28425 C29.0845,8.187 29.18875,8.0615 29.22975,7.909 L29.5,7.36825 L29.5,6.361 C29.79725,6.1875 30,5.8685 30,5.5 L30,5.233 C30.6385,4.6635 31,3.86325 31,3 C31,1.346 29.65425,0 28,0" id="Fill-83" fill="#FFFFFE"></path>
                                <path d="M30.5,3 C30.5,1.6195 29.3805,0.5 28,0.5 C26.6195,0.5 25.5,1.6195 25.5,3 C25.5,3.81725 25.89375,4.5405 26.5,4.99675 L26.5,5.5 C26.5,5.77525 26.725,6 27,6 L29,6 C29.275,6 29.5,5.77525 29.5,5.5 L29.5,4.99675 C30.10625,4.5405 30.5,3.81725 30.5,3" id="Fill-84" fill="#FFF8E4"></path>
                                <path d="M28.5,8 C28.5,8.13825 28.27625,8.25 28,8.25 C27.72375,8.25 27.5,8.13825 27.5,8 C27.5,7.862 27.72375,7.75 28,7.75 C28.27625,7.75 28.5,7.862 28.5,8" id="Fill-85" fill="#1E1F1D"></path>
                                <path d="M27,6 L27,7.25 L27.25,7.75 C27.25,7.88825 27.58575,8 28,8 C28.41425,8 28.75,7.88825 28.75,7.75 L29,7.25 L29,6 L27,6" id="Fill-86" fill="#C7C6C1"></path>
                                <path d="M27.5,7.75 L27.25,7.25 L27.25,6 L27,6 L27,7.25 L27.25,7.75 C27.25,7.88825 27.58575,8 28,8 C28.04275,8 28.08425,7.99825 28.125,7.996 C27.7705,7.976 27.5,7.874 27.5,7.75" id="Fill-87" fill="#E5E5E0"></path>
                                <path d="M28.75,6 L28.75,7.25 L28.5,7.75 C28.5,7.874 28.2295,7.976 27.875,7.996 C27.91575,7.99825 27.95725,8 28,8 C28.41425,8 28.75,7.88825 28.75,7.75 L29,7.25 L29,6 L28.75,6" id="Fill-88" fill="#ACADA9"></path>
                                <path d="M27.75,4.875 C27.70775,4.875 27.66625,4.8535 27.64275,4.8145 L26.89275,3.5645 C26.85725,3.50525 26.8765,3.4285 26.93575,3.393 C26.99475,3.358 27.0715,3.3765 27.10725,3.43575 L27.85725,4.68575 C27.89275,4.745 27.8735,4.82175 27.81425,4.85725 L27.75,4.875" id="Fill-89" fill="#C7C6C1"></path>
                                <path d="M28.25,4.875 L28.18575,4.85725 C28.1265,4.82175 28.10725,4.745 28.14275,4.68575 L28.89275,3.43575 C28.92875,3.3765 29.00575,3.358 29.06425,3.393 C29.1235,3.4285 29.14275,3.50525 29.10725,3.5645 L28.35725,4.8145 C28.33375,4.8535 28.29225,4.875 28.25,4.875" id="Fill-90" fill="#C7C6C1"></path>
                                <path d="M27.5,3.8125 C27.451,3.8125 27.406,3.78375 27.38575,3.7385 L27.16875,3.25 L27,3.25 C26.931,3.25 26.875,3.19425 26.875,3.125 C26.875,3.056 26.931,3 27,3 L27.25,3 C27.29925,3 27.34425,3.02925 27.36425,3.07425 L27.46175,3.29375 L27.62825,2.566 C27.64025,2.51375 27.68375,2.475 27.737,2.4695 C27.793,2.46475 27.84125,2.49325 27.8635,2.54175 L28.2095,3.293 L28.37825,2.5505 C28.39,2.49825 28.43375,2.45925 28.487,2.45375 C28.5435,2.44875 28.5915,2.47775 28.61375,2.52625 L28.83025,3 L29,3 C29.069,3 29.125,3.056 29.125,3.125 C29.125,3.19425 29.069,3.25 29,3.25 L28.75,3.25 C28.70125,3.25 28.65675,3.2215 28.63625,3.177 L28.54,2.9665 L28.37175,3.7075 C28.36,3.75975 28.31625,3.7985 28.263,3.804 C28.209,3.81025 28.159,3.78075 28.1365,3.732 L27.79,2.97975 L27.62175,3.7155 C27.60975,3.768 27.56575,3.80675 27.512,3.812 L27.5,3.8125" id="Fill-91" fill="#C7C6C1"></path>
                                <path d="M27.5,6 L27.5,4.75 C27.5,4.61275 27.6125,4.5 27.75,4.5 L28.25,4.5 C28.3875,4.5 28.5,4.61275 28.5,4.75 L28.5,6 L27.5,6" id="Fill-92" fill="#F8F7F5"></path>
                                <path d="M28.25,4.5 L28,4.5 C28.1375,4.5 28.25,4.61275 28.25,4.75 L28.25,6 L28.5,6 L28.5,4.75 C28.5,4.61275 28.3875,4.5 28.25,4.5" id="Fill-93" fill="#E5E5E0"></path>
                                <path d="M28,4.5 L27.75,4.5 C27.6125,4.5 27.5,4.61275 27.5,4.75 L27.5,6 L27.75,6 L27.75,4.75 C27.75,4.61275 27.8625,4.5 28,4.5" id="Fill-94" fill="#FFFFFE"></path>
                                <path d="M26.8315,1.37975 C26.39325,1.69725 26.08825,2.1875 26.01725,2.75 L26.7755,2.75 C26.8475,2.39625 27.0695,2.097 27.372,1.92025 L26.8315,1.37975" id="Fill-95" fill="#FFFFFE"></path>
                            </g>
                        </g>
                    </g>
                </g>
            </g>
        </g>
    </g>
</svg>