<?xml version="1.0" encoding="UTF-8"?>
<svg width="40px" height="38px" viewBox="0 0 40 38" version="1.1" xmlns="http://www.w3.org/2000/svg" xmlns:xlink="http://www.w3.org/1999/xlink">
    <!-- Generator: Sketch 61.2 (89653) - https://sketch.com -->
    <title>ICON</title>
    <desc>Created with Sketch.</desc>
    <defs>
        <path d="M32,17 C32,25.28425 24.8365,32 16,32 C7.1635,32 0,25.28425 0,17 C0,8.716 7.1635,2 16,2 C24.8365,2 32,8.716 32,17" id="path-1"></path>
        <filter x="-21.9%" y="-16.7%" width="143.8%" height="146.7%" filterUnits="objectBoundingBox" id="filter-2">
            <feOffset dx="0" dy="2" in="SourceAlpha" result="shadowOffsetOuter1"></feOffset>
            <feGaussianBlur stdDeviation="2" in="shadowOffsetOuter1" result="shadowBlurOuter1"></feGaussianBlur>
            <feColorMatrix values="0 0 0 0 0   0 0 0 0 0   0 0 0 0 0  0 0 0 0.5 0" type="matrix" in="shadowBlurOuter1"></feColorMatrix>
        </filter>
        <path d="M0,0 L0,17 C0,25.28425 7.1635,32 16,32 C24.8365,32 32,25.28425 32,17 L32,0 L0,0" id="path-3"></path>
    </defs>
    <g id="Page-1" stroke="none" stroke-width="1" fill="none" fill-rule="evenodd">
        <g id="8.MAIN-UI---SMART-OVERVIEW" transform="translate(-33.000000, -868.000000)">
            <g id="LEFT-HANDLE">
                <g id="6.-ANALYTICS" transform="translate(0.000000, 784.000000)">
                    <g id="EMPLOYEE-ANALYTICS" transform="translate(0.000000, 73.000000)">
                        <g id="DINE-IN">
                            <g id="ICON" transform="translate(37.000000, 11.000000)">
                                <g id="Fill-401">
                                    <use fill="black" fill-opacity="1" filter="url(#filter-2)" xlink:href="#path-1"></use>
                                    <use fill="#BFD1CE" fill-rule="evenodd" xlink:href="#path-1"></use>
                                </g>
                                <g id="Group-422">
                                    <mask id="mask-4" fill="white">
                                        <use xlink:href="#path-3"></use>
                                    </mask>
                                    <g id="Clip-403"></g>
                                    <path d="M27.71925,29.25 C26.57475,23.5 17.99125,24.25 15.98825,24.25 C13.98525,24.25 5.40175,23.5 4.25725,29.25 C3.11275,35 8.8355,37 8.8355,37 L23.141,37 C23.141,37 28.86375,35 27.71925,29.25" id="Fill-402" fill="#F8F7F5" mask="url(#mask-4)"></path>
                                    <path d="M19.48825,24.375 C19.48825,25.1345 17.9215,25.75 15.98825,25.75 C14.05525,25.75 12.48825,25.1345 12.48825,24.375 C12.48825,23.61575 14.05525,23 15.98825,23 C17.9215,23 19.48825,23.61575 19.48825,24.375" id="Fill-404" fill="#E5E5E0" mask="url(#mask-4)"></path>
                                    <path d="M19.09275,23.641 L19.094,23.641 L18.23825,20.97925 L15.98825,20.8125 L13.73825,20.97925 L12.8825,23.641 L12.88375,23.641 C12.871,23.67725 12.86325,23.7145 12.86325,23.75175 C12.86325,24.30325 14.2625,24.75 15.98825,24.75 C17.714,24.75 19.11325,24.30325 19.11325,23.75175 C19.11325,23.7145 19.1055,23.67725 19.09275,23.641" id="Fill-405" fill="#E1C7BB" mask="url(#mask-4)"></path>
                                    <path d="M19.09275,23.641 L19.094,23.641 L18.23825,20.97925 L15.98825,20.8125 L15.55075,20.84475 L17.36325,20.97925 L18.219,23.641 L18.21775,23.641 C18.2305,23.67725 18.23825,23.7145 18.23825,23.75175 C18.23825,24.2555 17.06875,24.671 15.55075,24.7395 C15.694,24.74575 15.83925,24.75 15.98825,24.75 C17.714,24.75 19.11325,24.30325 19.11325,23.75175 C19.11325,23.7145 19.1055,23.67725 19.09275,23.641" id="Fill-406" fill="#D2BAAF" mask="url(#mask-4)"></path>
                                    <path d="M22.5,10.25 L22.5,9.25 C22.5,7.22175 21.05725,4 16,4 C10.94275,4 9.5,7.22175 9.5,9.25 L9.5,10.25 C9.5,10.25 8.5,10.32375 8.5,11 L8.5,13.7675 C8.5,14.4435 8.75,15 9.5,15 C9.5,18.38075 12.50575,22.25 16,22.25 C19.49425,22.25 22.5,18.38075 22.5,15 C23.25,15 23.5,14.4435 23.5,13.7675 L23.5,11 C23.5,10.32375 22.5,10.25 22.5,10.25" id="Fill-407" fill="#FBDDD1" mask="url(#mask-4)"></path>
                                    <path d="M16,4 C15.872,4 15.74825,4.0035 15.625,4.00775 C20.37775,4.16375 21.75,7.273 21.75,9.25 L21.75,15 C21.75,18.25925 18.95625,21.97075 15.625,22.234 C15.74925,22.24375 15.87425,22.25 16,22.25 C19.49425,22.25 22.5,18.38075 22.5,15 L22.5,9.25 C22.5,7.22175 21.05725,4 16,4" id="Fill-408" fill="#F0D2C5" mask="url(#mask-4)"></path>
                                    <path d="M22.5,9.5 C18.03425,8.83825 13.96575,8.83825 9.5,9.5 C9.5,9 9.5,4.44975 9.5,3.94975 C14.44825,3.21625 17.55175,3.21625 22.5,3.94975 C22.5,4.69975 22.5,8.75 22.5,9.5" id="Fill-409" fill="#F8F7F5" mask="url(#mask-4)"></path>
                                    <path d="M22.5,4.69975 C17.55175,3.96625 14.44825,3.96625 9.5,4.69975 C9.5,4.90925 9.5,5.83125 9.5,6.86725 C10.04325,7.4125 10.79475,7.75 11.625,7.75 C12.34875,7.75 13.01225,7.49375 13.53025,7.06725 C14.1905,7.64625 15.053,8 16,8 C16.947,8 17.8095,7.64625 18.46975,7.06725 C18.98775,7.49375 19.65125,7.75 20.375,7.75 C21.20525,7.75 21.95675,7.4125 22.5,6.86725 C22.5,5.891 22.5,5.011 22.5,4.69975" id="Fill-410" fill="#E5E5E0" mask="url(#mask-4)"></path>
                                    <path d="M19.75,3.75 C19.75,5.82125 18.071,7.5 16,7.5 C13.929,7.5 12.25,5.82125 12.25,3.75 C12.25,1.679 13.929,0 16,0 C18.071,0 19.75,1.679 19.75,3.75" id="Fill-411" fill="#F8F7F5" mask="url(#mask-4)"></path>
                                    <path d="M14.625,4.25 C14.625,5.90675 13.28175,7.25 11.625,7.25 C9.96825,7.25 8.625,5.90675 8.625,4.25 C8.625,2.5935 9.96825,1.25 11.625,1.25 C13.28175,1.25 14.625,2.5935 14.625,4.25" id="Fill-412" fill="#F8F7F5" mask="url(#mask-4)"></path>
                                    <path d="M23.375,4.25 C23.375,5.90675 22.03175,7.25 20.375,7.25 C18.71825,7.25 17.375,5.90675 17.375,4.25 C17.375,2.5935 18.71825,1.25 20.375,1.25 C22.03175,1.25 23.375,2.5935 23.375,4.25" id="Fill-413" fill="#F8F7F5" mask="url(#mask-4)"></path>
                                    <path d="M20.375,1.25 C20.2695,1.25 20.16525,1.256 20.0625,1.2665 C21.57225,1.423 22.75,2.69875 22.75,4.25 C22.75,5.8015 21.57225,7.07725 20.0625,7.23375 C20.16525,7.24425 20.2695,7.25 20.375,7.25 C22.03175,7.25 23.375,5.90675 23.375,4.25 C23.375,2.5935 22.03175,1.25 20.375,1.25" id="Fill-414" fill="#E5E5E0" mask="url(#mask-4)"></path>
                                    <path d="M21.375,2.25 C21.375,2.80225 20.92725,3.25 20.375,3.25 C19.82275,3.25 19.375,2.80225 19.375,2.25 C19.375,1.698 19.82275,1.25 20.375,1.25 C20.92725,1.25 21.375,1.698 21.375,2.25" id="Fill-415" fill="#FFFFFE" mask="url(#mask-4)"></path>
                                    <path d="M10.375,2.5 C10.375,3.1905 10.9345,3.75 11.625,3.75 C11.66775,3.75 11.70825,3.74175 11.75,3.7375 L11.75,3.75 C12.25,3.75 13.25,3.25 13.25,2.5 C13.25,3.75 14.75,4.5 16,4.5 C17.24275,4.5 18.25,3.49275 18.25,2.25 C18.25,1.085 17.36475,0.127 16.23025,0.01175 C16.1535,0.00725 16.07775,0 16,0 C14.74525,0 13.6375,0.6185 12.95675,1.56475 C12.59025,1.383 12.18225,1.276 11.75,1.25775 L11.75,1.26275 C11.70825,1.2585 11.66775,1.25 11.625,1.25 C10.9345,1.25 10.375,1.80975 10.375,2.5" id="Fill-416" fill="#FFFFFE" mask="url(#mask-4)"></path>
                                    <path d="M16,15 C14.25,14.5 13.75,17 12.25,16 C13,17.5 15.5,17 16,16.5 C16.5,17 19,17.5 19.75,16 C18.25,17 17.75,14.5 16,15" id="Fill-417" fill="#BF7940" mask="url(#mask-4)"></path>
                                    <polygon id="Fill-418" fill="#E5E5E0" mask="url(#mask-4)" points="15.625 32 15.875 32 15.875 25.75 15.625 25.75"></polygon>
                                    <path d="M17.25,27 C17.25,27.27625 17.026,27.5 16.75,27.5 C16.474,27.5 16.25,27.27625 16.25,27 C16.25,26.724 16.474,26.5 16.75,26.5 C17.026,26.5 17.25,26.724 17.25,27" id="Fill-419" fill="#1E1F1D" mask="url(#mask-4)"></path>
                                    <path d="M17.25,29.5 C17.25,29.77625 17.026,30 16.75,30 C16.474,30 16.25,29.77625 16.25,29.5 C16.25,29.224 16.474,29 16.75,29 C17.026,29 17.25,29.224 17.25,29.5" id="Fill-420" fill="#1E1F1D" mask="url(#mask-4)"></path>
                                    <path d="M17.25,32 C17.25,32.27625 17.026,32.5 16.75,32.5 C16.474,32.5 16.25,32.27625 16.25,32 C16.25,31.724 16.474,31.5 16.75,31.5 C17.026,31.5 17.25,31.724 17.25,32" id="Fill-421" fill="#1E1F1D" mask="url(#mask-4)"></path>
                                </g>
                                <path d="M14.5,11.25 C14.5,11.66425 14.05225,12 13.5,12 C12.94775,12 12.5,11.66425 12.5,11.25 C12.5,10.836 12.94775,10.5 13.5,10.5 C14.05225,10.5 14.5,10.836 14.5,11.25" id="Fill-423" fill="#F8F7F5"></path>
                                <path d="M14,11.25 C14,11.52625 13.776,11.75 13.5,11.75 C13.224,11.75 13,11.52625 13,11.25 C13,10.974 13.224,10.75 13.5,10.75 C13.776,10.75 14,10.974 14,11.25" id="Fill-424" fill="#1E1F1D"></path>
                                <path d="M19.5,11.25 C19.5,11.66425 19.05225,12 18.5,12 C17.94775,12 17.5,11.66425 17.5,11.25 C17.5,10.836 17.94775,10.5 18.5,10.5 C19.05225,10.5 19.5,10.836 19.5,11.25" id="Fill-425" fill="#F8F7F5"></path>
                                <path d="M19,11.25 C19,11.52625 18.776,11.75 18.5,11.75 C18.224,11.75 18,11.52625 18,11.25 C18,10.974 18.224,10.75 18.5,10.75 C18.776,10.75 19,10.974 19,11.25" id="Fill-426" fill="#1E1F1D"></path>
                            </g>
                        </g>
                    </g>
                </g>
            </g>
        </g>
    </g>
</svg>