<?xml version="1.0" encoding="UTF-8"?>
<svg width="32px" height="33px" viewBox="0 0 32 33" version="1.1" xmlns="http://www.w3.org/2000/svg" xmlns:xlink="http://www.w3.org/1999/xlink">
    <!-- Generator: Sketch 61.2 (89653) - https://sketch.com -->
    <title>ICON</title>
    <desc>Created with Sketch.</desc>
    <g id="Page-1" stroke="none" stroke-width="1" fill="none" fill-rule="evenodd">
        <g id="8.MAIN-UI---SMART-OVERVIEW" transform="translate(-37.000000, -575.000000)">
            <g id="LEFT-HANDLE">
                <g id="4.-PRODUCTS" transform="translate(0.000000, 492.000000)">
                    <g id="FAVORITES" transform="translate(0.000000, 73.000000)">
                        <g id="ICON">
                            <g transform="translate(37.000000, 9.516129)">
                                <g id="Group">
                                    <g id="Circle_Shadow_29_" transform="translate(0.000000, 1.032258)" fill="#CF5536">
                                        <circle id="Oval" cx="16" cy="16" r="16"></circle>
                                    </g>
                                    <g id="Circle_29_" fill="#F3643F">
                                        <circle id="Oval" cx="16" cy="16.483871" r="16"></circle>
                                    </g>
                                    <path d="M31.1741935,21.0580645 L23.483871,13.4193548 L21.4193548,13.3677419 L16.6193548,8.56774194 L14.916129,13.1612903 L11.2,22.5548387 L20.1806452,31.5354839 C25.3419355,30.0903226 29.4709677,26.116129 31.1741935,21.0580645 L31.1741935,21.0580645 Z" id="Long_Shadow_30_" fill="#000000" opacity="0.15"></path>
                                    <g id="Star" transform="translate(7.741935, 7.741935)" fill="#FFFCF2">
                                        <path d="M15.7419355,6.81290323 C16.2064516,6.3483871 15.9483871,5.52258065 15.2774194,5.36774194 L11.4580645,4.64516129 C11.2,4.59354839 10.9935484,4.43870968 10.8903226,4.23225806 L8.98064516,0.929032258 C8.67096774,0.361290323 7.79354839,0.361290323 7.48387097,0.929032258 L5.57419355,4.23225806 C5.47096774,4.43870968 5.21290323,4.59354839 5.00645161,4.64516129 L1.18709677,5.36774194 C0.516129032,5.47096774 0.258064516,6.29677419 0.722580645,6.81290323 L3.35483871,9.5483871 C3.50967742,9.75483871 3.61290323,10.0129032 3.56129032,10.2193548 L3.09677419,13.9354839 C2.99354839,14.6064516 3.71612903,15.0709677 4.33548387,14.8129032 L7.89677419,13.2129032 C8.10322581,13.1096774 8.41290323,13.1096774 8.61935484,13.2129032 L12.1806452,14.8129032 C12.8,15.0709677 13.4709677,14.6064516 13.4193548,13.9354839 L12.9548387,10.2193548 C12.9032258,9.96129032 13.0064516,9.70322581 13.1612903,9.5483871 L15.7419355,6.81290323 L15.7419355,6.81290323 Z" id="Shape"></path>
                                    </g>
                                </g>
                            </g>
                        </g>
                    </g>
                </g>
            </g>
        </g>
    </g>
</svg>