<?xml version="1.0" encoding="UTF-8"?>
<svg width="32px" height="34px" viewBox="0 0 32 34" version="1.1" xmlns="http://www.w3.org/2000/svg" xmlns:xlink="http://www.w3.org/1999/xlink">
    <!-- Generator: Sketch 61.2 (89653) - https://sketch.com -->
    <title>ICON</title>
    <desc>Created with Sketch.</desc>
    <g id="Page-1" stroke="none" stroke-width="1" fill="none" fill-rule="evenodd">
        <g id="8.MAIN-UI---SMART-OVERVIEW" transform="translate(-37.000000, -1013.000000)">
            <g id="LEFT-HANDLE">
                <g id="LOGOUT" transform="translate(0.000000, 1003.000000)">
                    <g id="ICON" transform="translate(37.000000, 10.000000)">
                        <g id="Group">
                            <g id="Circle_Shadow_18_" transform="translate(0.000000, 1.032258)" fill="#189F99">
                                <circle id="Oval" cx="16" cy="16" r="16"></circle>
                            </g>
                            <g id="Circle_18_" fill="#1CBBB4">
                                <circle id="Oval" cx="16" cy="16.483871" r="16"></circle>
                            </g>
                            <path d="M31.1741935,21.0064516 L19.2516129,9.08387097 L18.3741935,9.85806452 L15.3290323,8.72258065 L12.283871,11.4064516 L12.283871,17.2903226 L9.5483871,23.9483871 L17.4967742,31.8967742 C23.9483871,31.3290323 29.2645161,26.9419355 31.1741935,21.0064516 L31.1741935,21.0064516 Z" id="Long_Shadow_20_" fill="#000000" opacity="0.15"></path>
                            <g id="Top" transform="translate(11.354839, 7.741935)" fill="#FFFCF2">
                                <path d="M4.64516129,0 C2.06451613,0 0,2.06451613 0,4.64516129 L0,11.8709677 C0,14.4516129 2.06451613,16.516129 4.64516129,16.516129 C7.22580645,16.516129 9.29032258,14.4516129 9.29032258,11.8709677 L9.29032258,4.64516129 C9.29032258,2.06451613 7.22580645,0 4.64516129,0 L4.64516129,0 Z M7.22580645,11.8709677 C7.22580645,13.316129 6.09032258,14.4516129 4.64516129,14.4516129 C3.2,14.4516129 2.06451613,13.316129 2.06451613,11.8709677 L2.06451613,4.64516129 C2.06451613,3.2 3.2,2.06451613 4.64516129,2.06451613 C6.09032258,2.06451613 7.22580645,3.2 7.22580645,4.64516129 L7.22580645,11.8709677 L7.22580645,11.8709677 Z" id="Shape"></path>
                            </g>
                            <g id="Bottom" transform="translate(9.290323, 14.967742)" fill="#EDC03D">
                                <path d="M12.3870968,0 L1.03225806,0 C0.464516129,0 0,0.464516129 0,1.03225806 L0,8.25806452 C0,8.82580645 0.464516129,9.29032258 1.03225806,9.29032258 L12.3870968,9.29032258 C12.9548387,9.29032258 13.4193548,8.82580645 13.4193548,8.25806452 L13.4193548,1.03225806 C13.4193548,0.464516129 12.9548387,0 12.3870968,0 L12.3870968,0 Z" id="Shape"></path>
                            </g>
                            <g id="Holes" transform="translate(14.451613, 17.548387)" fill="#344E5F">
                                <path d="M3.09677419,1.5483871 C3.09677419,0.670967742 2.42580645,0 1.5483871,0 C0.670967742,0 0,0.670967742 0,1.5483871 C0,2.01290323 0.206451613,2.47741935 0.567741935,2.73548387 C0.516129032,2.83870968 0.516129032,2.94193548 0.516129032,3.09677419 C0.516129032,3.66451613 0.980645161,4.12903226 1.5483871,4.12903226 C2.11612903,4.12903226 2.58064516,3.66451613 2.58064516,3.09677419 C2.58064516,2.99354839 2.58064516,2.83870968 2.52903226,2.73548387 C2.89032258,2.47741935 3.09677419,2.01290323 3.09677419,1.5483871 L3.09677419,1.5483871 Z" id="Shape"></path>
                            </g>
                        </g>
                    </g>
                </g>
            </g>
        </g>
    </g>
</svg>