<?xml version="1.0" encoding="UTF-8"?>
<svg width="33px" height="34px" viewBox="0 0 33 34" version="1.1" xmlns="http://www.w3.org/2000/svg" xmlns:xlink="http://www.w3.org/1999/xlink">
    <!-- Generator: Sketch 61.2 (89653) - https://sketch.com -->
    <title>ICON</title>
    <desc>Created with Sketch.</desc>
    <g id="Page-1" stroke="none" stroke-width="1" fill="none" fill-rule="evenodd">
        <g id="8.MAIN-UI---SMART-OVERVIEW" transform="translate(-37.000000, -282.000000)">
            <g id="LEFT-HANDLE">
                <g id="2.-RESERVATION" transform="translate(0.000000, 272.000000)">
                    <g id="RESERVATION">
                        <g id="ICON" transform="translate(37.000000, 10.516129)">
                            <g id="Circle_Shadow_4_" transform="translate(0.000000, 1.032258)" fill="#189F99">
                                <circle id="Oval" cx="16" cy="16" r="16"></circle>
                            </g>
                            <g id="Circle_4_" fill="#1CBBB4">
                                <circle id="Oval" cx="16" cy="16" r="16"></circle>
                            </g>
                            <g id="Long_Shadow_5_" opacity="0.15" transform="translate(9.258065, 7.741935)" fill="#000000">
                                <polygon id="Shape" points="3.33548387 0.309677419 3.33548387 2.58064516 5.60645161 2.58064516"></polygon>
                                <polygon id="Shape" points="11.5935484 0.309677419 11.5935484 2.58064516 13.8645161 2.58064516"></polygon>
                                <path d="M15.1741935,2.85806452 L0.309677419,16.6903226 L8.36129032,24.7419355 C16.1032258,24.483871 22.4,18.7032258 23.5870968,11.2193548 L15.1741935,2.85806452 L15.1741935,2.85806452 Z" id="Shape"></path>
                            </g>
                            <g id="Calendar" transform="translate(8.258065, 9.806452)" fill="#FFFCF2">
                                <path d="M14.4516129,0 L1.03225806,0 C0.464516129,0 0,0.464516129 0,1.03225806 L0,13.4193548 C0,13.9870968 0.464516129,14.4516129 1.03225806,14.4516129 L14.4516129,14.4516129 C15.0193548,14.4516129 15.483871,13.9870968 15.483871,13.4193548 L15.483871,1.03225806 C15.483871,0.464516129 15.0193548,0 14.4516129,0 L14.4516129,0 Z" id="Shape"></path>
                            </g>
                            <g id="Rings" transform="translate(10.838710, 7.741935)" fill="#344E5F">
                                <path d="M1.03225806,0 C0.464516129,0 0,0.464516129 0,1.03225806 L0,3.09677419 C0,3.66451613 0.464516129,4.12903226 1.03225806,4.12903226 C1.6,4.12903226 2.06451613,3.66451613 2.06451613,3.09677419 L2.06451613,1.03225806 C2.06451613,0.464516129 1.6,0 1.03225806,0 L1.03225806,0 Z M9.29032258,0 C8.72258065,0 8.25806452,0.464516129 8.25806452,1.03225806 L8.25806452,3.09677419 C8.25806452,3.66451613 8.72258065,4.12903226 9.29032258,4.12903226 C9.85806452,4.12903226 10.3225806,3.66451613 10.3225806,3.09677419 L10.3225806,1.03225806 C10.3225806,0.464516129 9.85806452,0 9.29032258,0 L9.29032258,0 Z" id="Shape"></path>
                            </g>
                            <g id="Shading_1_" opacity="0.149" transform="translate(19.612903, 20.129032)" fill="#344E5F">
                                <g id="Group">
                                    <polygon id="Shape" points="0 3.09677419 3.09677419 3.09677419 3.09677419 0"></polygon>
                                </g>
                            </g>
                            <g id="_x33_1" transform="translate(12.387097, 13.935484)" fill="#F3643F">
                                <path d="M3.50967742,3.45806452 C3.40645161,3.35483871 3.30322581,3.2516129 3.2,3.2 C3.09677419,3.1483871 2.94193548,3.09677419 2.78709677,3.04516129 L2.78709677,3.04516129 C3.09677419,2.99354839 3.30322581,2.83870968 3.45806452,2.63225806 C3.61290323,2.42580645 3.66451613,2.16774194 3.66451613,1.90967742 C3.66451613,1.6516129 3.61290323,1.44516129 3.50967742,1.29032258 C3.40645161,1.13548387 3.30322581,0.980645161 3.1483871,0.825806452 C2.99354839,0.722580645 2.78709677,0.619354839 2.58064516,0.567741935 C2.37419355,0.516129032 2.16774194,0.464516129 1.90967742,0.464516129 C1.70322581,0.464516129 1.49677419,0.464516129 1.29032258,0.516129032 C1.08387097,0.567741935 0.929032258,0.619354839 0.774193548,0.722580645 C0.619354839,0.825806452 0.464516129,0.929032258 0.361290323,1.08387097 C0.258064516,1.23870968 0.15483871,1.44516129 0.103225806,1.6516129 L1.29032258,1.90967742 C1.34193548,1.75483871 1.39354839,1.6516129 1.49677419,1.5483871 C1.6,1.44516129 1.75483871,1.39354839 1.90967742,1.39354839 C2.06451613,1.39354839 2.21935484,1.44516129 2.37419355,1.5483871 C2.52903226,1.6516129 2.58064516,1.75483871 2.58064516,1.90967742 C2.58064516,2.01290323 2.58064516,2.11612903 2.52903226,2.21935484 C2.47741935,2.27096774 2.42580645,2.37419355 2.32258065,2.37419355 C2.21935484,2.42580645 2.16774194,2.42580645 2.06451613,2.47741935 L1.75483871,2.47741935 L1.39354839,2.47741935 L1.39354839,3.40645161 L1.6516129,3.40645161 L2.01290323,3.40645161 C2.11612903,3.40645161 2.21935484,3.45806452 2.32258065,3.45806452 C2.42580645,3.50967742 2.47741935,3.56129032 2.58064516,3.61290323 C2.63225806,3.71612903 2.68387097,3.81935484 2.68387097,3.97419355 C2.68387097,4.18064516 2.63225806,4.33548387 2.52903226,4.43870968 C2.42580645,4.54193548 2.21935484,4.64516129 2.01290323,4.64516129 C1.80645161,4.64516129 1.6,4.59354839 1.49677419,4.49032258 C1.39354839,4.38709677 1.29032258,4.23225806 1.23870968,4.07741935 L0.103225806,4.33548387 C0.206451613,4.8 0.412903226,5.10967742 0.774193548,5.31612903 C1.08387097,5.52258065 1.49677419,5.62580645 1.96129032,5.62580645 C2.21935484,5.62580645 2.42580645,5.57419355 2.68387097,5.52258065 C2.89032258,5.47096774 3.09677419,5.36774194 3.2516129,5.21290323 C3.40645161,5.10967742 3.56129032,4.90322581 3.66451613,4.7483871 C3.76774194,4.54193548 3.81935484,4.33548387 3.81935484,4.07741935 C3.81935484,3.92258065 3.81935484,3.76774194 3.76774194,3.66451613 C3.66451613,3.66451613 3.61290323,3.56129032 3.50967742,3.45806452 L3.50967742,3.45806452 Z M6.09032258,0.567741935 L4.43870968,1.96129032 L5.05806452,2.68387097 L6.09032258,1.75483871 L6.09032258,5.67741935 L7.12258065,5.67741935 L7.12258065,0.567741935 L6.09032258,0.567741935 L6.09032258,0.567741935 Z" id="Shape"></path>
                            </g>
                        </g>
                    </g>
                </g>
            </g>
        </g>
    </g>
</svg>