<?xml version="1.0" encoding="UTF-8"?>
<svg width="32px" height="33px" viewBox="0 0 32 33" version="1.1" xmlns="http://www.w3.org/2000/svg" xmlns:xlink="http://www.w3.org/1999/xlink">
    <!-- Generator: Sketch 61.2 (89653) - https://sketch.com -->
    <title>ICON</title>
    <desc>Created with Sketch.</desc>
    <g id="Page-1" stroke="none" stroke-width="1" fill="none" fill-rule="evenodd">
        <g id="8.MAIN-UI---SMART-OVERVIEW" transform="translate(-37.000000, -920.000000)">
            <g id="LEFT-HANDLE">
                <g id="6.-ANALYTICS" transform="translate(0.000000, 784.000000)">
                    <g id="REVENUE-ANALYTICS" transform="translate(0.000000, 126.000000)">
                        <g id="DINE-IN">
                            <g id="ICON" transform="translate(37.000000, 9.516129)">
                                <g id="Group">
                                    <g id="Circle_Shadow_34_" transform="translate(0.000000, 1.032258)" fill="#CAA334">
                                        <circle id="Oval" cx="16" cy="16" r="16"></circle>
                                    </g>
                                    <g id="Circle_34_" fill="#EDC03D">
                                        <circle id="Oval" cx="16" cy="16.483871" r="16"></circle>
                                    </g>
                                    <path d="M23.7935484,13.3677419 L23.0193548,14.1419355 L18.6322581,9.75483871 L17.5483871,10.8387097 L12.9032258,15.483871 L9.29032258,20.1290323 L8.20645161,21.2129032 L18.7354839,31.7419355 C24.6709677,30.7096774 29.4709677,26.4258065 31.2774194,20.8 L23.7935484,13.3677419 L23.7935484,13.3677419 Z" id="Long_Shadow_36_" fill="#000000" opacity="0.15"></path>
                                    <g id="Connectors" transform="translate(7.225806, 9.290323)" fill="#344E5F">
                                        <path d="M16.5677419,4.07741935 C16,3.50967742 15.1741935,3.45806452 14.5548387,3.92258065 L11.7677419,1.96129032 C11.9225806,1.44516129 11.7677419,0.877419355 11.3548387,0.464516129 C10.7354839,-0.15483871 9.75483871,-0.15483871 9.18709677,0.464516129 C8.72258065,0.929032258 8.61935484,1.6516129 8.87741935,2.21935484 L6.29677419,4.8 C5.72903226,4.54193548 5.00645161,4.64516129 4.54193548,5.10967742 C4.02580645,5.62580645 3.97419355,6.4516129 4.33548387,7.01935484 L2.52903226,9.34193548 C2.01290323,9.18709677 1.39354839,9.29032258 0.929032258,9.70322581 C0.309677419,10.3225806 0.309677419,11.3032258 0.929032258,11.8709677 C1.5483871,12.4387097 2.52903226,12.4903226 3.09677419,11.8709677 C3.61290323,11.3548387 3.66451613,10.5290323 3.30322581,9.96129032 L5.10967742,7.63870968 C5.62580645,7.79354839 6.24516129,7.69032258 6.70967742,7.27741935 C7.17419355,6.81290323 7.27741935,6.09032258 7.01935484,5.52258065 L9.6,2.94193548 C10.116129,3.2 10.683871,3.1483871 11.1483871,2.78709677 L13.9354839,4.7483871 C13.7806452,5.26451613 13.9354839,5.83225806 14.3483871,6.24516129 C14.9677419,6.86451613 15.9483871,6.86451613 16.516129,6.24516129 C17.1870968,5.62580645 17.1870968,4.69677419 16.5677419,4.07741935 L16.5677419,4.07741935 Z" id="Shape"></path>
                                    </g>
                                </g>
                            </g>
                        </g>
                    </g>
                </g>
            </g>
        </g>
    </g>
</svg>