<?xml version="1.0" encoding="utf-8"?>
<!-- Generator: Adobe Illustrator 21.0.0, SVG Export Plug-In . SVG Version: 6.00 Build 0)  -->
<svg version="1.1" id="Layer_1" xmlns="http://www.w3.org/2000/svg" xmlns:xlink="http://www.w3.org/1999/xlink" x="0px" y="0px"
	 viewBox="0 0 64 64" style="enable-background:new 0 0 64 64;" xml:space="preserve">
<style type="text/css">
	.st0{fill:#455A64;stroke:#37474F;stroke-linecap:round;stroke-linejoin:round;stroke-miterlimit:10;}
	.st1{fill:#78909C;stroke:#37474F;stroke-linecap:round;stroke-linejoin:round;stroke-miterlimit:10;}
	.st2{fill:#ECEFF1;stroke:#37474F;stroke-linecap:round;stroke-linejoin:round;stroke-miterlimit:10;}
	.st3{fill:none;stroke:#FFFFFF;stroke-linecap:round;stroke-linejoin:round;stroke-miterlimit:10;}
	.st4{fill:#FFCA28;stroke:#37474F;stroke-linecap:round;stroke-linejoin:round;stroke-miterlimit:10;}
	.st5{fill:none;stroke:#37474F;stroke-linecap:round;stroke-linejoin:round;stroke-miterlimit:10;}
	.st6{fill:#B0BEC5;}
	.st7{fill:#37474F;}
	.st8{fill:#455A64;}
	.st9{fill:#9CCC65;stroke:#37474F;stroke-linecap:round;stroke-linejoin:round;stroke-miterlimit:10;}
	.st10{fill:none;stroke:#C5E1A5;stroke-linecap:round;stroke-linejoin:round;stroke-miterlimit:10;}
	.st11{fill:#26C6DA;stroke:#37474F;stroke-linecap:round;stroke-linejoin:round;stroke-miterlimit:10;}
	.st12{fill:#EF5350;stroke:#37474F;stroke-linecap:round;stroke-linejoin:round;stroke-miterlimit:10;}
	.st13{fill:#B0BEC5;stroke:#37474F;stroke-linecap:round;stroke-linejoin:round;stroke-miterlimit:10;}
	.st14{fill:none;stroke:#EF9A9A;stroke-linecap:round;stroke-linejoin:round;stroke-miterlimit:10;}
	.st15{fill:none;stroke:#FFE082;stroke-linecap:round;stroke-linejoin:round;stroke-miterlimit:10;}
	.st16{fill:#D32F2F;stroke:#37474F;stroke-linecap:round;stroke-linejoin:round;stroke-miterlimit:10;}
	.st17{fill:#0097A7;stroke:#37474F;stroke-linecap:round;stroke-linejoin:round;stroke-miterlimit:10;}
	.st18{fill:#689F38;stroke:#37474F;stroke-linecap:round;stroke-linejoin:round;stroke-miterlimit:10;}
	.st19{fill:#FFA000;stroke:#37474F;stroke-linecap:round;stroke-linejoin:round;stroke-miterlimit:10;}
	.st20{fill:#FFA000;}
	.st21{fill:#FF6F00;}
	.st22{fill:#D32F2F;}
	.st23{fill:#0097A7;}
	.st24{fill:none;stroke:#80DEEA;stroke-linecap:round;stroke-linejoin:round;stroke-miterlimit:10;}
	.st25{fill:#689F38;}
	.st26{fill:none;stroke:#B0BEC5;stroke-linecap:round;stroke-linejoin:round;stroke-miterlimit:10;}
	.st27{fill:#78909C;stroke:#37474F;stroke-miterlimit:10;}
	.st28{fill:#78909C;}
	.st29{fill:#B71C1C;}
	.st30{fill:#F57F17;}
	.st31{fill:#006064;}
	.st32{fill:#26A69A;stroke:#37474F;stroke-linecap:round;stroke-linejoin:round;stroke-miterlimit:10;}
</style>
<g>
	<path class="st0" d="M21.5,58.5h5c1.4,0,2.5-1.1,2.5-2.5V43c0-1.4-1.1-2.5-2.5-2.5h-5c-1.4,0-2.5,1.1-2.5,2.5v13
		C19,57.3,20.1,58.5,21.5,58.5z"/>
	<path class="st17" d="M7,56.5h12v-14H7c-1.4,0-2.5,1.1-2.5,2.5v9C4.5,55.3,5.6,56.5,7,56.5z"/>
	<path class="st2" d="M59.5,43c0-1.4-1.1-2.5-2.5-2.5c1.4,0,2.5-1.1,2.5-2.5c0-1.4-1.1-2.5-2.5-2.5H46V28c0-1.4-1.1-2.5-2.5-2.5h-1
		c-0.9,0-1.8,0.5-2.2,1.4l-1.9,3.7c-1.6,3.2-4.2,5.7-7.5,7.1L29,38.5v14l4.2,1.8c1.9,0.8,3.9,1.2,5.9,1.2H57c1.4,0,2.5-1.1,2.5-2.5
		c0-1.4-1.1-2.5-2.5-2.5c1.4,0,2.5-1.1,2.5-2.5c0-1.4-1.1-2.5-2.5-2.5C58.4,45.5,59.5,44.4,59.5,43z"/>
	<path class="st3" d="M31.7,39.5c3.7-1.6,6.7-4.4,8.5-8l1.9-3.7"/>
	<path class="st13" d="M58.5,55c-0.4,0.3-0.9,0.5-1.5,0.5H39.1c-2,0-4-0.4-5.9-1.2L29,52.5v4l4.2,1.8c1.9,0.8,3.9,1.2,5.9,1.2H57
		c1.4,0,2.5-1.1,2.5-2.5C59.5,56.2,59.1,55.5,58.5,55z"/>
	<path class="st1" d="M21.5,54.5h5c1.4,0,2.5-1.1,2.5-2.5V39c0-1.4-1.1-2.5-2.5-2.5h-5c-1.4,0-2.5,1.1-2.5,2.5v13
		C19,53.3,20.1,54.5,21.5,54.5z"/>
	<path class="st4" d="M48.3,11.6l2.3-0.8c0.9-0.3,0.9-1.6,0-1.9l-2.3-0.8c-0.3-0.1-0.5-0.3-0.6-0.6l-0.8-2.3c-0.3-0.9-1.6-0.9-1.9,0
		l-0.8,2.3c-0.1,0.3-0.3,0.5-0.6,0.6l-2.3,0.8c-0.9,0.3-0.9,1.6,0,1.9l2.3,0.8c0.3,0.1,0.5,0.3,0.6,0.6l0.8,2.3
		c0.3,0.9,1.6,0.9,1.9,0l0.8-2.3C47.8,11.9,48.1,11.7,48.3,11.6z"/>
	<path class="st4" d="M33.3,20l4.2-1.4c0.9-0.3,0.9-1.6,0-1.9l-4.2-1.4c-0.3-0.1-0.5-0.3-0.6-0.6l-1.4-4.2c-0.3-0.9-1.6-0.9-1.9,0
		L28,14.7c-0.1,0.3-0.3,0.5-0.6,0.6l-4.2,1.4c-0.9,0.3-0.9,1.6,0,1.9l4.2,1.4c0.3,0.1,0.5,0.3,0.6,0.6l1.4,4.2
		c0.3,0.9,1.6,0.9,1.9,0l1.4-4.2C32.8,20.4,33,20.1,33.3,20z"/>
	<path class="st15" d="M26.6,17.7l1.3-0.4c0.9-0.3,1.6-1,1.9-1.9l0.4-1.3"/>
	<line class="st5" x1="57" y1="40.5" x2="54" y2="40.5"/>
	<line class="st5" x1="57" y1="45.5" x2="54" y2="45.5"/>
	<line class="st5" x1="57" y1="50.5" x2="54" y2="50.5"/>
	<path class="st11" d="M7,52.5h12v-14H7c-1.4,0-2.5,1.1-2.5,2.5v9C4.5,51.3,5.6,52.5,7,52.5z"/>
	<circle class="st11" cx="24" cy="40.5" r="2"/>
</g>
</svg>
