<?xml version="1.0" encoding="utf-8"?>
<!-- Generator: Adobe Illustrator 21.0.0, SVG Export Plug-In . SVG Version: 6.00 Build 0)  -->
<svg version="1.1" id="Layer_1" xmlns="http://www.w3.org/2000/svg" xmlns:xlink="http://www.w3.org/1999/xlink" x="0px" y="0px"
	 viewBox="0 0 64 64" style="enable-background:new 0 0 64 64;" xml:space="preserve">
<style type="text/css">
	.st0{fill:#455A64;stroke:#37474F;stroke-linecap:round;stroke-linejoin:round;stroke-miterlimit:10;}
	.st1{fill:#78909C;stroke:#37474F;stroke-linecap:round;stroke-linejoin:round;stroke-miterlimit:10;}
	.st2{fill:#ECEFF1;stroke:#37474F;stroke-linecap:round;stroke-linejoin:round;stroke-miterlimit:10;}
	.st3{fill:none;stroke:#FFFFFF;stroke-linecap:round;stroke-linejoin:round;stroke-miterlimit:10;}
	.st4{fill:#FFCA28;stroke:#37474F;stroke-linecap:round;stroke-linejoin:round;stroke-miterlimit:10;}
	.st5{fill:none;stroke:#37474F;stroke-linecap:round;stroke-linejoin:round;stroke-miterlimit:10;}
	.st6{fill:#B0BEC5;}
	.st7{fill:#37474F;}
	.st8{fill:#455A64;}
	.st9{fill:#9CCC65;stroke:#37474F;stroke-linecap:round;stroke-linejoin:round;stroke-miterlimit:10;}
	.st10{fill:none;stroke:#C5E1A5;stroke-linecap:round;stroke-linejoin:round;stroke-miterlimit:10;}
	.st11{fill:#26C6DA;stroke:#37474F;stroke-linecap:round;stroke-linejoin:round;stroke-miterlimit:10;}
	.st12{fill:#EF5350;stroke:#37474F;stroke-linecap:round;stroke-linejoin:round;stroke-miterlimit:10;}
	.st13{fill:#B0BEC5;stroke:#37474F;stroke-linecap:round;stroke-linejoin:round;stroke-miterlimit:10;}
	.st14{fill:none;stroke:#EF9A9A;stroke-linecap:round;stroke-linejoin:round;stroke-miterlimit:10;}
	.st15{fill:none;stroke:#FFE082;stroke-linecap:round;stroke-linejoin:round;stroke-miterlimit:10;}
	.st16{fill:#D32F2F;stroke:#37474F;stroke-linecap:round;stroke-linejoin:round;stroke-miterlimit:10;}
	.st17{fill:#0097A7;stroke:#37474F;stroke-linecap:round;stroke-linejoin:round;stroke-miterlimit:10;}
	.st18{fill:#689F38;stroke:#37474F;stroke-linecap:round;stroke-linejoin:round;stroke-miterlimit:10;}
	.st19{fill:#FFA000;stroke:#37474F;stroke-linecap:round;stroke-linejoin:round;stroke-miterlimit:10;}
	.st20{fill:#FFA000;}
	.st21{fill:#FF6F00;}
	.st22{fill:#D32F2F;}
	.st23{fill:#0097A7;}
	.st24{fill:none;stroke:#80DEEA;stroke-linecap:round;stroke-linejoin:round;stroke-miterlimit:10;}
	.st25{fill:#689F38;}
	.st26{fill:none;stroke:#B0BEC5;stroke-linecap:round;stroke-linejoin:round;stroke-miterlimit:10;}
	.st27{fill:#78909C;stroke:#37474F;stroke-miterlimit:10;}
	.st28{fill:#78909C;}
	.st29{fill:#B71C1C;}
	.st30{fill:#F57F17;}
	.st31{fill:#006064;}
	.st32{fill:#26A69A;stroke:#37474F;stroke-linecap:round;stroke-linejoin:round;stroke-miterlimit:10;}
</style>
<g>
	<g>
		<path class="st16" d="M19.1,20.7l-1.8,1.8l-1.8-1.8c-3-3-7.8-3-10.8,0l0,0c-3,3-3,7.8,0,10.8l11.9,11.9c0.4,0.4,1,0.4,1.4,0
			l11.9-11.9c3-3,3-7.8,0-10.8l0,0C26.9,17.8,22.1,17.8,19.1,20.7z"/>
		<path class="st12" d="M19.1,16.7l-1.8,1.8l-1.8-1.8c-3-3-7.8-3-10.8,0l0,0c-3,3-3,7.8,0,10.8l11.9,11.9c0.4,0.4,1,0.4,1.4,0
			l11.9-11.9c3-3,3-7.8,0-10.8l0,0C26.9,13.8,22.1,13.8,19.1,16.7z"/>
		<path class="st14" d="M6.2,26.1c-1.1-1.1-1.7-2.5-1.7-4s0.6-2.9,1.7-4c1.1-1.1,2.5-1.7,4-1.7s2.9,0.6,4,1.7"/>
		<polygon class="st12" points="13.8,44.7 17.3,39.7 20.8,44.7 		"/>
		<rect x="13.8" y="44.7" class="st16" width="7" height="4"/>
		<line class="st16" x1="17.3" y1="46.7" x2="17.3" y2="63.5"/>
	</g>
	<g>
		<path class="st17" d="M48.5,8.7l-1.8,1.8l-1.8-1.8c-3-3-7.8-3-10.8,0l0,0c-3,3-3,7.8,0,10.8L46,31.4c0.4,0.4,1,0.4,1.4,0
			l11.9-11.9c3-3,3-7.8,0-10.8l0,0C56.3,5.8,51.4,5.8,48.5,8.7z"/>
		<path class="st11" d="M48.5,4.7l-1.8,1.8l-1.8-1.8c-3-3-7.8-3-10.8,0l0,0c-3,3-3,7.8,0,10.8L46,27.4c0.4,0.4,1,0.4,1.4,0
			l11.9-11.9c3-3,3-7.8,0-10.8l0,0C56.3,1.8,51.4,1.8,48.5,4.7z"/>
		<path class="st24" d="M35.5,14.1c-1.1-1.1-1.7-2.5-1.7-4s0.6-2.9,1.7-4c1.1-1.1,2.5-1.7,4-1.7s2.9,0.6,4,1.7"/>
		<polygon class="st11" points="43.2,32.7 46.7,27.7 50.2,32.7 		"/>
		<rect x="43.2" y="32.7" class="st17" width="7" height="4"/>
		<line class="st16" x1="46.7" y1="34.7" x2="46.7" y2="63.5"/>
	</g>
	<path class="st2" d="M8.2,55.8l2.3-0.8c0.9-0.3,0.9-1.6,0-1.9l-2.3-0.8c-0.3-0.1-0.5-0.3-0.6-0.6l-0.8-2.3c-0.3-0.9-1.6-0.9-1.9,0
		l-0.8,2.3C4,52,3.8,52.2,3.5,52.3l-2.3,0.8c-0.9,0.3-0.9,1.6,0,1.9l2.3,0.8c0.3,0.1,0.5,0.3,0.6,0.6l0.8,2.3c0.3,0.9,1.6,0.9,1.9,0
		l0.8-2.3C7.7,56.1,7.9,55.9,8.2,55.8z"/>
	<path class="st2" d="M60.5,43.8l2.3-0.8c0.9-0.3,0.9-1.6,0-1.9l-2.3-0.8c-0.3-0.1-0.5-0.3-0.6-0.6l-0.8-2.3c-0.3-0.9-1.6-0.9-1.9,0
		l-0.8,2.3c-0.1,0.3-0.3,0.5-0.6,0.6l-2.3,0.8c-0.9,0.3-0.9,1.6,0,1.9l2.3,0.8c0.3,0.1,0.5,0.3,0.6,0.6l0.8,2.3
		c0.3,0.9,1.6,0.9,1.9,0l0.8-2.3C60,44.1,60.2,43.9,60.5,43.8z"/>
	<path class="st2" d="M26.1,7.6l2.3-0.8c0.9-0.3,0.9-1.6,0-1.9l-2.3-0.8c-0.3-0.1-0.5-0.3-0.6-0.6l-0.8-2.3c-0.3-0.9-1.6-0.9-1.9,0
		l-0.8,2.3C22,3.8,21.7,4,21.4,4.1l-2.3,0.8c-0.9,0.3-0.9,1.6,0,1.9l2.3,0.8c0.3,0.1,0.5,0.3,0.6,0.6l0.8,2.3c0.3,0.9,1.6,0.9,1.9,0
		l0.8-2.3C25.6,7.9,25.8,7.7,26.1,7.6z"/>
</g>
</svg>
