<?xml version="1.0" encoding="utf-8"?>
<!-- Generator: Adobe Illustrator 21.0.0, SVG Export Plug-In . SVG Version: 6.00 Build 0)  -->
<svg version="1.1" id="Layer_1" xmlns="http://www.w3.org/2000/svg" xmlns:xlink="http://www.w3.org/1999/xlink" x="0px" y="0px"
	 viewBox="0 0 64 64" style="enable-background:new 0 0 64 64;" xml:space="preserve">
<style type="text/css">
	.st0{fill:#455A64;stroke:#37474F;stroke-linecap:round;stroke-linejoin:round;stroke-miterlimit:10;}
	.st1{fill:#78909C;stroke:#37474F;stroke-linecap:round;stroke-linejoin:round;stroke-miterlimit:10;}
	.st2{fill:#ECEFF1;stroke:#37474F;stroke-linecap:round;stroke-linejoin:round;stroke-miterlimit:10;}
	.st3{fill:none;stroke:#FFFFFF;stroke-linecap:round;stroke-linejoin:round;stroke-miterlimit:10;}
	.st4{fill:#FFCA28;stroke:#37474F;stroke-linecap:round;stroke-linejoin:round;stroke-miterlimit:10;}
	.st5{fill:none;stroke:#37474F;stroke-linecap:round;stroke-linejoin:round;stroke-miterlimit:10;}
	.st6{fill:#B0BEC5;}
	.st7{fill:#37474F;}
	.st8{fill:#455A64;}
	.st9{fill:#9CCC65;stroke:#37474F;stroke-linecap:round;stroke-linejoin:round;stroke-miterlimit:10;}
	.st10{fill:none;stroke:#C5E1A5;stroke-linecap:round;stroke-linejoin:round;stroke-miterlimit:10;}
	.st11{fill:#26C6DA;stroke:#37474F;stroke-linecap:round;stroke-linejoin:round;stroke-miterlimit:10;}
	.st12{fill:#EF5350;stroke:#37474F;stroke-linecap:round;stroke-linejoin:round;stroke-miterlimit:10;}
	.st13{fill:#B0BEC5;stroke:#37474F;stroke-linecap:round;stroke-linejoin:round;stroke-miterlimit:10;}
	.st14{fill:none;stroke:#EF9A9A;stroke-linecap:round;stroke-linejoin:round;stroke-miterlimit:10;}
	.st15{fill:none;stroke:#FFE082;stroke-linecap:round;stroke-linejoin:round;stroke-miterlimit:10;}
	.st16{fill:#D32F2F;stroke:#37474F;stroke-linecap:round;stroke-linejoin:round;stroke-miterlimit:10;}
	.st17{fill:#0097A7;stroke:#37474F;stroke-linecap:round;stroke-linejoin:round;stroke-miterlimit:10;}
	.st18{fill:#689F38;stroke:#37474F;stroke-linecap:round;stroke-linejoin:round;stroke-miterlimit:10;}
	.st19{fill:#FFA000;stroke:#37474F;stroke-linecap:round;stroke-linejoin:round;stroke-miterlimit:10;}
	.st20{fill:#FFA000;}
	.st21{fill:#FF6F00;}
	.st22{fill:#D32F2F;}
	.st23{fill:#0097A7;}
	.st24{fill:none;stroke:#80DEEA;stroke-linecap:round;stroke-linejoin:round;stroke-miterlimit:10;}
	.st25{fill:#689F38;}
	.st26{fill:none;stroke:#B0BEC5;stroke-linecap:round;stroke-linejoin:round;stroke-miterlimit:10;}
	.st27{fill:#78909C;stroke:#37474F;stroke-miterlimit:10;}
	.st28{fill:#78909C;}
	.st29{fill:#B71C1C;}
	.st30{fill:#F57F17;}
	.st31{fill:#006064;}
	.st32{fill:#26A69A;stroke:#37474F;stroke-linecap:round;stroke-linejoin:round;stroke-miterlimit:10;}
</style>
<g>
	<path class="st2" d="M33.4,7.9l-11,10.5v-4.3c0-2.2-1.8-4-4-4h0c-2.2,0-4,1.8-4,4v1.5c0,6.9-1.4,13.8-4.2,20.1l-2.3,5.3l17.8,17.8
		l14.8-7.1l18.4-18.4L33.4,7.9z"/>
	<path class="st3" d="M12,36.6c2.9-6.6,4.4-13.7,4.4-20.9v-1.5c0-1.1,0.9-2,2-2"/>
	<path class="st0" d="M51.4,52.1h-25c-2.2,0-4-1.8-4-4V8.6c0-2.2,1.8-4,4-4h25c2.2,0,4,1.8,4,4v39.5C55.4,50.3,53.6,52.1,51.4,52.1z
		"/>
	<path class="st1" d="M21.3,62.6L3.6,45c-1-1-1-2.6,0-3.5l3.5-3.5c1-1,2.6-1,3.5,0l17.7,17.7c1,1,1,2.6,0,3.5l-3.5,3.5
		C23.8,63.6,22.3,63.6,21.3,62.6z"/>
	<path class="st1" d="M51.4,48.1h-25c-2.2,0-4-1.8-4-4V4.6c0-2.2,1.8-4,4-4h25c2.2,0,4,1.8,4,4v39.5C55.4,46.3,53.6,48.1,51.4,48.1z
		"/>
	<rect x="22.4" y="6.4" class="st11" width="33" height="36"/>
	<path class="st24" d="M24.4,14.4v-6h6"/>
	<path class="st4" d="M39.8,17.1l1.6,3.5c0.1,0.3,0.4,0.5,0.8,0.6l3.8,0.6c0.8,0.1,1.1,1.1,0.6,1.7l-2.8,2.9
		c-0.2,0.2-0.3,0.5-0.3,0.9l0.6,4c0.1,0.8-0.7,1.4-1.5,1l-3.3-1.8c-0.3-0.2-0.7-0.2-1,0l-3.3,1.8c-0.7,0.4-1.6-0.2-1.5-1l0.6-4
		c0.1-0.3,0-0.6-0.3-0.9l-2.8-2.9c-0.6-0.6-0.2-1.6,0.6-1.7l3.8-0.6c0.3-0.1,0.6-0.3,0.8-0.6l1.6-3.5C38.3,16.3,39.4,16.3,39.8,17.1
		z"/>
	<g>
		<path class="st8" d="M54.9,5.9V4.6c0,0,0,0,0-0.1l-3.8,1.3c0,0-0.1,0-0.1,0.1H54.9z"/>
		<path class="st23" d="M47.1,11.3c0,1.6,0.6,3,1.6,4c-1,1.1-1.6,2.5-1.6,4c0,1.6,0.6,3,1.6,4c-1,1.1-1.6,2.5-1.6,4
			c0,1.6,0.6,3,1.6,4c-1,1.1-1.6,2.5-1.6,4c0,3.2,2.6,5.8,5.8,5.8c0.6,0,1.2-0.1,1.8-0.3l0.1,0V6.9h-5.6C47.9,8,47.1,9.6,47.1,11.3z
			"/>
	</g>
	<line class="st5" x1="34.9" y1="45.4" x2="40.9" y2="45.4"/>
	<path class="st2" d="M58.5,13.5l-4.4,1.5c-2.5,0.8-5-1-5-3.6v0c0-1.6,1-3.1,2.6-3.6l4.4-1.5c2.5-0.8,5,1,5,3.6v0
		C61.1,11.5,60.1,12.9,58.5,13.5z"/>
	<path class="st2" d="M58.5,21.5l-4.4,1.5c-2.5,0.8-5-1-5-3.6v0c0-1.6,1-3.1,2.6-3.6l4.4-1.5c2.5-0.8,5,1,5,3.6v0
		C61.1,19.5,60.1,20.9,58.5,21.5z"/>
	<path class="st2" d="M58.5,29.5l-4.4,1.5c-2.5,0.8-5-1-5-3.6v0c0-1.6,1-3.1,2.6-3.6l4.4-1.5c2.5-0.8,5,1,5,3.6v0
		C61.1,27.5,60.1,28.9,58.5,29.5z"/>
	<path class="st2" d="M58.5,37.5l-4.4,1.5c-2.5,0.8-5-1-5-3.6v0c0-1.6,1-3.1,2.6-3.6l4.4-1.5c2.5-0.8,5,1,5,3.6v0
		C61.1,35.5,60.1,36.9,58.5,37.5z"/>
</g>
</svg>
