<?xml version="1.0" encoding="utf-8"?>
<!-- Generator: Adobe Illustrator 21.0.0, SVG Export Plug-In . SVG Version: 6.00 Build 0)  -->
<svg version="1.1" id="Layer_1" xmlns="http://www.w3.org/2000/svg" xmlns:xlink="http://www.w3.org/1999/xlink" x="0px" y="0px"
	 viewBox="0 0 64 64" style="enable-background:new 0 0 64 64;" xml:space="preserve">
<style type="text/css">
	.st0{fill:#455A64;stroke:#37474F;stroke-linecap:round;stroke-linejoin:round;stroke-miterlimit:10;}
	.st1{fill:#78909C;stroke:#37474F;stroke-linecap:round;stroke-linejoin:round;stroke-miterlimit:10;}
	.st2{fill:#ECEFF1;stroke:#37474F;stroke-linecap:round;stroke-linejoin:round;stroke-miterlimit:10;}
	.st3{fill:none;stroke:#FFFFFF;stroke-linecap:round;stroke-linejoin:round;stroke-miterlimit:10;}
	.st4{fill:#FFCA28;stroke:#37474F;stroke-linecap:round;stroke-linejoin:round;stroke-miterlimit:10;}
	.st5{fill:none;stroke:#37474F;stroke-linecap:round;stroke-linejoin:round;stroke-miterlimit:10;}
	.st6{fill:#B0BEC5;}
	.st7{fill:#37474F;}
	.st8{fill:#455A64;}
	.st9{fill:#9CCC65;stroke:#37474F;stroke-linecap:round;stroke-linejoin:round;stroke-miterlimit:10;}
	.st10{fill:none;stroke:#C5E1A5;stroke-linecap:round;stroke-linejoin:round;stroke-miterlimit:10;}
	.st11{fill:#26C6DA;stroke:#37474F;stroke-linecap:round;stroke-linejoin:round;stroke-miterlimit:10;}
	.st12{fill:#EF5350;stroke:#37474F;stroke-linecap:round;stroke-linejoin:round;stroke-miterlimit:10;}
	.st13{fill:#B0BEC5;stroke:#37474F;stroke-linecap:round;stroke-linejoin:round;stroke-miterlimit:10;}
	.st14{fill:none;stroke:#EF9A9A;stroke-linecap:round;stroke-linejoin:round;stroke-miterlimit:10;}
	.st15{fill:none;stroke:#FFE082;stroke-linecap:round;stroke-linejoin:round;stroke-miterlimit:10;}
	.st16{fill:#D32F2F;stroke:#37474F;stroke-linecap:round;stroke-linejoin:round;stroke-miterlimit:10;}
	.st17{fill:#0097A7;stroke:#37474F;stroke-linecap:round;stroke-linejoin:round;stroke-miterlimit:10;}
	.st18{fill:#689F38;stroke:#37474F;stroke-linecap:round;stroke-linejoin:round;stroke-miterlimit:10;}
	.st19{fill:#FFA000;stroke:#37474F;stroke-linecap:round;stroke-linejoin:round;stroke-miterlimit:10;}
	.st20{fill:#FFA000;}
	.st21{fill:#FF6F00;}
	.st22{fill:#D32F2F;}
	.st23{fill:#0097A7;}
	.st24{fill:none;stroke:#80DEEA;stroke-linecap:round;stroke-linejoin:round;stroke-miterlimit:10;}
	.st25{fill:#689F38;}
	.st26{fill:none;stroke:#B0BEC5;stroke-linecap:round;stroke-linejoin:round;stroke-miterlimit:10;}
	.st27{fill:#78909C;stroke:#37474F;stroke-miterlimit:10;}
	.st28{fill:#78909C;}
	.st29{fill:#B71C1C;}
	.st30{fill:#F57F17;}
	.st31{fill:#006064;}
	.st32{fill:#26A69A;stroke:#37474F;stroke-linecap:round;stroke-linejoin:round;stroke-miterlimit:10;}
</style>
<g>
	<path class="st18" d="M54.5,22.5h-5c-1.4,0-2.5,1.1-2.5,2.5v36c0,1.4,1.1,2.5,2.5,2.5h5c1.4,0,2.5-1.1,2.5-2.5V25
		C57,23.6,55.9,22.5,54.5,22.5z"/>
	<path class="st16" d="M14.5,30h-5C8.1,30,7,31.1,7,32.5V61c0,1.4,1.1,2.5,2.5,2.5h5c1.4,0,2.5-1.1,2.5-2.5V32.5
		C17,31.1,15.9,30,14.5,30z"/>
	<path class="st19" d="M34.5,45h-5c-1.4,0-2.5,1.1-2.5,2.5V61c0,1.4,1.1,2.5,2.5,2.5h5c1.4,0,2.5-1.1,2.5-2.5V47.5
		C37,46.1,35.9,45,34.5,45z"/>
	<path class="st9" d="M54.5,18.5h-5c-1.4,0-2.5,1.1-2.5,2.5v36c0,1.4,1.1,2.5,2.5,2.5h5c1.4,0,2.5-1.1,2.5-2.5V21
		C57,19.6,55.9,18.5,54.5,18.5z"/>
	<path class="st10" d="M49,23v-2c0-0.3,0.2-0.5,0.5-0.5h2"/>
	<g>
		<circle class="st2" cx="52" cy="8" r="7.5"/>
		<path class="st3" d="M46.5,8c0-3,2.5-5.5,5.5-5.5"/>
		<path class="st5" d="M54.8,10.8c-1.6,1.6-4.1,1.6-5.7,0"/>
		<circle class="st7" cx="49.5" cy="7" r="1"/>
		<circle class="st7" cx="54.5" cy="7" r="1"/>
	</g>
	<path class="st12" d="M14.5,26h-5C8.1,26,7,27.1,7,28.5V57c0,1.4,1.1,2.5,2.5,2.5h5c1.4,0,2.5-1.1,2.5-2.5V28.5
		C17,27.1,15.9,26,14.5,26z"/>
	<path class="st14" d="M9,30.5v-2C9,28.2,9.2,28,9.5,28h2"/>
	<g>
		<circle class="st2" cx="12" cy="8" r="7.5"/>
		<path class="st3" d="M6.5,8C6.5,5,9,2.5,12,2.5"/>
		<path class="st5" d="M14.8,10.8c-1.6,1.6-4.1,1.6-5.7,0"/>
		<circle class="st7" cx="9.5" cy="7" r="1"/>
		<circle class="st7" cx="14.5" cy="7" r="1"/>
	</g>
	<path class="st4" d="M34.5,41h-5c-1.4,0-2.5,1.1-2.5,2.5V57c0,1.4,1.1,2.5,2.5,2.5h5c1.4,0,2.5-1.1,2.5-2.5V43.5
		C37,42.1,35.9,41,34.5,41z"/>
	<path class="st15" d="M29,45.5v-2c0-0.3,0.2-0.5,0.5-0.5h2"/>
	<g>
		<circle class="st2" cx="32" cy="8" r="7.5"/>
		<path class="st3" d="M26.5,8c0-3,2.5-5.5,5.5-5.5"/>
		<line class="st5" x1="34.8" y1="10.8" x2="29.2" y2="10.8"/>
		<circle class="st7" cx="29.5" cy="7" r="1"/>
		<circle class="st7" cx="34.5" cy="7" r="1"/>
	</g>
</g>
</svg>
