<?xml version="1.0" encoding="utf-8"?>
<!-- Generator: Adobe Illustrator 21.0.0, SVG Export Plug-In . SVG Version: 6.00 Build 0)  -->
<svg version="1.1" id="Layer_1" xmlns="http://www.w3.org/2000/svg" xmlns:xlink="http://www.w3.org/1999/xlink" x="0px" y="0px"
	 viewBox="0 0 64 64" style="enable-background:new 0 0 64 64;" xml:space="preserve">
<style type="text/css">
	.st0{fill:#455A64;stroke:#37474F;stroke-linecap:round;stroke-linejoin:round;stroke-miterlimit:10;}
	.st1{fill:#78909C;stroke:#37474F;stroke-linecap:round;stroke-linejoin:round;stroke-miterlimit:10;}
	.st2{fill:#ECEFF1;stroke:#37474F;stroke-linecap:round;stroke-linejoin:round;stroke-miterlimit:10;}
	.st3{fill:none;stroke:#FFFFFF;stroke-linecap:round;stroke-linejoin:round;stroke-miterlimit:10;}
	.st4{fill:#FFCA28;stroke:#37474F;stroke-linecap:round;stroke-linejoin:round;stroke-miterlimit:10;}
	.st5{fill:none;stroke:#37474F;stroke-linecap:round;stroke-linejoin:round;stroke-miterlimit:10;}
	.st6{fill:#B0BEC5;}
	.st7{fill:#37474F;}
	.st8{fill:#455A64;}
	.st9{fill:#9CCC65;stroke:#37474F;stroke-linecap:round;stroke-linejoin:round;stroke-miterlimit:10;}
	.st10{fill:none;stroke:#C5E1A5;stroke-linecap:round;stroke-linejoin:round;stroke-miterlimit:10;}
	.st11{fill:#26C6DA;stroke:#37474F;stroke-linecap:round;stroke-linejoin:round;stroke-miterlimit:10;}
	.st12{fill:#EF5350;stroke:#37474F;stroke-linecap:round;stroke-linejoin:round;stroke-miterlimit:10;}
	.st13{fill:#B0BEC5;stroke:#37474F;stroke-linecap:round;stroke-linejoin:round;stroke-miterlimit:10;}
	.st14{fill:none;stroke:#EF9A9A;stroke-linecap:round;stroke-linejoin:round;stroke-miterlimit:10;}
	.st15{fill:none;stroke:#FFE082;stroke-linecap:round;stroke-linejoin:round;stroke-miterlimit:10;}
	.st16{fill:#D32F2F;stroke:#37474F;stroke-linecap:round;stroke-linejoin:round;stroke-miterlimit:10;}
	.st17{fill:#0097A7;stroke:#37474F;stroke-linecap:round;stroke-linejoin:round;stroke-miterlimit:10;}
	.st18{fill:#689F38;stroke:#37474F;stroke-linecap:round;stroke-linejoin:round;stroke-miterlimit:10;}
	.st19{fill:#FFA000;stroke:#37474F;stroke-linecap:round;stroke-linejoin:round;stroke-miterlimit:10;}
	.st20{fill:#FFA000;}
	.st21{fill:#FF6F00;}
	.st22{fill:#D32F2F;}
	.st23{fill:#0097A7;}
	.st24{fill:none;stroke:#80DEEA;stroke-linecap:round;stroke-linejoin:round;stroke-miterlimit:10;}
	.st25{fill:#689F38;}
	.st26{fill:none;stroke:#B0BEC5;stroke-linecap:round;stroke-linejoin:round;stroke-miterlimit:10;}
	.st27{fill:#78909C;stroke:#37474F;stroke-miterlimit:10;}
	.st28{fill:#78909C;}
	.st29{fill:#B71C1C;}
	.st30{fill:#F57F17;}
	.st31{fill:#006064;}
	.st32{fill:#26A69A;stroke:#37474F;stroke-linecap:round;stroke-linejoin:round;stroke-miterlimit:10;}
</style>
<g>
	<path class="st18" d="M63.5,19.5v-5c0-1.4-1.1-2.5-2.5-2.5H21c-1.4,0-2.5,1.1-2.5,2.5v5c0,1.4,1.1,2.5,2.5,2.5h40
		C62.4,22,63.5,20.9,63.5,19.5z"/>
	<path class="st9" d="M63.5,15.5v-5C63.5,9.1,62.4,8,61,8H21c-1.4,0-2.5,1.1-2.5,2.5v5c0,1.4,1.1,2.5,2.5,2.5h40
		C62.4,18,63.5,16.9,63.5,15.5z"/>
	<g>
		<circle class="st2" cx="8" cy="49" r="7.5"/>
		<path class="st3" d="M2.5,49c0-3,2.5-5.5,5.5-5.5"/>
		<path class="st5" d="M10.8,51.8c-1.6,1.6-4.1,1.6-5.7,0"/>
		<circle class="st7" cx="5.5" cy="48" r="1"/>
		<circle class="st7" cx="10.5" cy="48" r="1"/>
	</g>
	<path class="st16" d="M56,53.5v-5c0-1.4-1.1-2.5-2.5-2.5H21c-1.4,0-2.5,1.1-2.5,2.5v5c0,1.4,1.1,2.5,2.5,2.5h32.5
		C54.9,56,56,54.9,56,53.5z"/>
	<path class="st12" d="M56,49.5v-5c0-1.4-1.1-2.5-2.5-2.5H21c-1.4,0-2.5,1.1-2.5,2.5v5c0,1.4,1.1,2.5,2.5,2.5h32.5
		C54.9,52,56,50.9,56,49.5z"/>
	<path class="st14" d="M20.5,46.5v-2c0-0.3,0.2-0.5,0.5-0.5h2"/>
	<g>
		<circle class="st2" cx="8" cy="15" r="7.5"/>
		<path class="st3" d="M2.5,15C2.5,12,5,9.5,8,9.5"/>
		<path class="st5" d="M10.8,17.8c-1.6,1.6-4.1,1.6-5.7,0"/>
		<circle class="st7" cx="5.5" cy="14" r="1"/>
		<circle class="st7" cx="10.5" cy="14" r="1"/>
	</g>
	<path class="st19" d="M41,36.5v-5c0-1.4-1.1-2.5-2.5-2.5H21c-1.4,0-2.5,1.1-2.5,2.5v5c0,1.4,1.1,2.5,2.5,2.5h17.5
		C39.9,39,41,37.9,41,36.5z"/>
	<path class="st4" d="M41,32.5v-5c0-1.4-1.1-2.5-2.5-2.5H21c-1.4,0-2.5,1.1-2.5,2.5v5c0,1.4,1.1,2.5,2.5,2.5h17.5
		C39.9,35,41,33.9,41,32.5z"/>
	<path class="st10" d="M20.5,12.5v-2c0-0.3,0.2-0.5,0.5-0.5h2 M61,10"/>
	<path class="st15" d="M20.5,29.5v-2c0-0.3,0.2-0.5,0.5-0.5h2"/>
	<g>
		<circle class="st2" cx="8" cy="32" r="7.5"/>
		<path class="st3" d="M2.5,32c0-3,2.5-5.5,5.5-5.5"/>
		<line class="st5" x1="10.8" y1="34.8" x2="5.2" y2="34.8"/>
		<circle class="st7" cx="5.5" cy="31" r="1"/>
		<circle class="st7" cx="10.5" cy="31" r="1"/>
	</g>
</g>
</svg>
