<?xml version="1.0" encoding="UTF-8"?>
<svg width="17px" height="17px" viewBox="0 0 17 17" version="1.1" xmlns="http://www.w3.org/2000/svg" xmlns:xlink="http://www.w3.org/1999/xlink">
    <!-- Generator: Sketch 61.2 (89653) - https://sketch.com -->
    <title>ORDER</title>
    <desc>Created with Sketch.</desc>
    <defs>
        <path d="M2.74615396,16.4769237 C1.40792547,16.4769237 0.323076936,15.3920752 0.323076936,14.0538467 L0.323076936,2.74615396 C0.323076936,1.40792547 1.40792547,0.323076936 2.74615396,0.323076936 L14.0538467,0.323076936 C15.3920752,0.323076936 16.4769237,1.40792547 16.4769237,2.74615396 L16.4769237,14.0538467 C16.4769237,15.3920752 15.3920752,16.4769237 14.0538467,16.4769237 L2.74615396,16.4769237 Z M5.16907694,6.78407694 L1.93807694,6.78407694 L1.93846162,14.0538467 C1.93846162,14.4999229 2.30007779,14.8615391 2.74615396,14.8615391 L5.16907694,14.8610769 L5.16907694,6.78407694 Z M14.8610769,6.78407694 L6.78407694,6.78407694 L6.78407694,14.8610769 L14.0538467,14.8615391 C14.4999229,14.8615391 14.8615391,14.4999229 14.8615391,14.0538467 L14.8610769,6.78407694 Z M14.0538467,1.93846162 L2.74615396,1.93846162 C2.30007779,1.93846162 1.93846162,2.30007779 1.93846162,2.74615396 L1.93807694,5.16907694 L14.8610769,5.16907694 L14.8615391,2.74615396 C14.8615391,2.30007779 14.4999229,1.93846162 14.0538467,1.93846162 Z" id="path-1"></path>
    </defs>
    <g id="Page-1" stroke="none" stroke-width="1" fill="none" fill-rule="evenodd">
        <g id="8.MAIN-UI---SMART-OVERVIEW" transform="translate(-603.000000, -2589.000000)">
            <g id="CUSTOMER-COMMENTS" transform="translate(312.000000, 2305.000000)">
                <g id="FEEEDBACK-1" transform="translate(94.000000, 174.000000)">
                    <g id="ORDER" transform="translate(197.000000, 110.000000)">
                        <mask id="mask-2" fill="white">
                            <use xlink:href="#path-1"></use>
                        </mask>
                        <use id="Combined-Shape" fill="#FFFFFF" fill-rule="nonzero" xlink:href="#path-1"></use>
                    </g>
                </g>
            </g>
        </g>
    </g>
</svg>