<?xml version="1.0" encoding="utf-8"?>
<!-- Generator: Adobe Illustrator 21.0.0, SVG Export Plug-In . SVG Version: 6.00 Build 0)  -->
<svg version="1.1" id="Layer_1" xmlns="http://www.w3.org/2000/svg" xmlns:xlink="http://www.w3.org/1999/xlink" x="0px" y="0px"
	 viewBox="0 0 64 64" style="enable-background:new 0 0 64 64;" xml:space="preserve">
<style type="text/css">
	.st0{fill:#455A64;stroke:#37474F;stroke-linecap:round;stroke-linejoin:round;stroke-miterlimit:10;}
	.st1{fill:#78909C;stroke:#37474F;stroke-linecap:round;stroke-linejoin:round;stroke-miterlimit:10;}
	.st2{fill:#ECEFF1;stroke:#37474F;stroke-linecap:round;stroke-linejoin:round;stroke-miterlimit:10;}
	.st3{fill:none;stroke:#FFFFFF;stroke-linecap:round;stroke-linejoin:round;stroke-miterlimit:10;}
	.st4{fill:#FFCA28;stroke:#37474F;stroke-linecap:round;stroke-linejoin:round;stroke-miterlimit:10;}
	.st5{fill:none;stroke:#37474F;stroke-linecap:round;stroke-linejoin:round;stroke-miterlimit:10;}
	.st6{fill:#B0BEC5;}
	.st7{fill:#37474F;}
	.st8{fill:#455A64;}
	.st9{fill:#9CCC65;stroke:#37474F;stroke-linecap:round;stroke-linejoin:round;stroke-miterlimit:10;}
	.st10{fill:none;stroke:#C5E1A5;stroke-linecap:round;stroke-linejoin:round;stroke-miterlimit:10;}
	.st11{fill:#26C6DA;stroke:#37474F;stroke-linecap:round;stroke-linejoin:round;stroke-miterlimit:10;}
	.st12{fill:#EF5350;stroke:#37474F;stroke-linecap:round;stroke-linejoin:round;stroke-miterlimit:10;}
	.st13{fill:#B0BEC5;stroke:#37474F;stroke-linecap:round;stroke-linejoin:round;stroke-miterlimit:10;}
	.st14{fill:none;stroke:#EF9A9A;stroke-linecap:round;stroke-linejoin:round;stroke-miterlimit:10;}
	.st15{fill:none;stroke:#FFE082;stroke-linecap:round;stroke-linejoin:round;stroke-miterlimit:10;}
	.st16{fill:#D32F2F;stroke:#37474F;stroke-linecap:round;stroke-linejoin:round;stroke-miterlimit:10;}
	.st17{fill:#0097A7;stroke:#37474F;stroke-linecap:round;stroke-linejoin:round;stroke-miterlimit:10;}
	.st18{fill:#689F38;stroke:#37474F;stroke-linecap:round;stroke-linejoin:round;stroke-miterlimit:10;}
	.st19{fill:#FFA000;stroke:#37474F;stroke-linecap:round;stroke-linejoin:round;stroke-miterlimit:10;}
	.st20{fill:#FFA000;}
	.st21{fill:#FF6F00;}
	.st22{fill:#D32F2F;}
	.st23{fill:#0097A7;}
	.st24{fill:none;stroke:#80DEEA;stroke-linecap:round;stroke-linejoin:round;stroke-miterlimit:10;}
	.st25{fill:#689F38;}
	.st26{fill:none;stroke:#B0BEC5;stroke-linecap:round;stroke-linejoin:round;stroke-miterlimit:10;}
	.st27{fill:#78909C;stroke:#37474F;stroke-miterlimit:10;}
	.st28{fill:#78909C;}
	.st29{fill:#B71C1C;}
	.st30{fill:#F57F17;}
	.st31{fill:#006064;}
	.st32{fill:#26A69A;stroke:#37474F;stroke-linecap:round;stroke-linejoin:round;stroke-miterlimit:10;}
</style>
<g>
	<path class="st19" d="M25.4,39.5L20.1,37c-1.3-0.6-2.9-0.6-4.2,0l-5.2,2.5C5.4,41.9,2,47.2,2,53v4.5C2,58.9,3.1,60,4.5,60h27
		c1.4,0,2.5-1.1,2.5-2.5V53C34,47.2,30.6,41.9,25.4,39.5z"/>
	<path class="st17" d="M30,13v13c0,2.8,2.2,5,5,5h3c0.6,0,1,0.4,1,1v4.6c0,0.9,1.1,1.3,1.7,0.7l4.8-4.8c0.9-0.9,2.2-1.5,3.5-1.5H57
		c2.8,0,5-2.2,5-5V13c0-2.8-2.2-5-5-5H35C32.2,8,30,10.2,30,13z"/>
	<path class="st11" d="M30,9v13c0,2.8,2.2,5,5,5h3c0.6,0,1,0.4,1,1v4.6c0,0.9,1.1,1.3,1.7,0.7l4.8-4.8c0.9-0.9,2.2-1.5,3.5-1.5H57
		c2.8,0,5-2.2,5-5V9c0-2.8-2.2-5-5-5H35C32.2,4,30,6.2,30,9z"/>
	<path class="st24" d="M32,13V9c0-1.7,1.3-3,3-3h4"/>
	<line class="st5" x1="36" y1="11" x2="56" y2="11"/>
	<line class="st5" x1="36" y1="15.5" x2="56" y2="15.5"/>
	<line class="st5" x1="36" y1="20" x2="46" y2="20"/>
	<path class="st1" d="M30.2,33.2L18,37L5.8,33.2c-0.4-0.1-0.7-0.6-0.7-1L6,21h24l0.9,11.2C31,32.7,30.7,33.1,30.2,33.2z"/>
	<path class="st4" d="M25.4,35.5L20.1,33c-1.3-0.6-2.9-0.6-4.2,0l-5.2,2.5C5.4,37.9,2,43.2,2,49v4.5C2,54.9,3.1,56,4.5,56h27
		c1.4,0,2.5-1.1,2.5-2.5V49C34,43.2,30.6,37.9,25.4,35.5z"/>
	<path class="st15" d="M18,34.5 M4.6,45c0.9-2.9,2.9-5.4,5.5-7"/>
	<line class="st2" x1="8" y1="56" x2="8" y2="45"/>
	<line class="st2" x1="28" y1="56" x2="28" y2="45"/>
	<path class="st12" d="M20.2,39.5L18,38l-2,1.4c-1.7,1.1-3.9-0.1-3.9-2.1v-2.5L18,32l6.1,2.9v2.5C24.1,39.4,21.9,40.5,20.2,39.5z"/>
	<polygon class="st2" points="18,32 14,33.9 18,38 22.1,33.9 	"/>
	<circle class="st2" cx="18" cy="21" r="12"/>
	<path class="st5" d="M13.4,25.6c2.5,2.5,6.7,2.5,9.2,0"/>
	<path class="st1" d="M18,9C11.4,9,6,14.4,6,21h0.1c2,0,3.9-1.2,4.6-3.1l0.7-1.9l1.1,0.9c3.5,2.7,7.8,4.1,12.2,4.1H30
		C30,14.4,24.6,9,18,9z"/>
</g>
</svg>
