<?xml version="1.0" encoding="utf-8"?>
<!-- Generator: Adobe Illustrator 21.0.0, SVG Export Plug-In . SVG Version: 6.00 Build 0)  -->
<svg version="1.1" id="Layer_1" xmlns="http://www.w3.org/2000/svg" xmlns:xlink="http://www.w3.org/1999/xlink" x="0px" y="0px"
	 viewBox="0 0 64 64" style="enable-background:new 0 0 64 64;" xml:space="preserve">
<style type="text/css">
	.st0{fill:#455A64;stroke:#37474F;stroke-linecap:round;stroke-linejoin:round;stroke-miterlimit:10;}
	.st1{fill:#78909C;stroke:#37474F;stroke-linecap:round;stroke-linejoin:round;stroke-miterlimit:10;}
	.st2{fill:#ECEFF1;stroke:#37474F;stroke-linecap:round;stroke-linejoin:round;stroke-miterlimit:10;}
	.st3{fill:none;stroke:#FFFFFF;stroke-linecap:round;stroke-linejoin:round;stroke-miterlimit:10;}
	.st4{fill:#FFCA28;stroke:#37474F;stroke-linecap:round;stroke-linejoin:round;stroke-miterlimit:10;}
	.st5{fill:none;stroke:#37474F;stroke-linecap:round;stroke-linejoin:round;stroke-miterlimit:10;}
	.st6{fill:#B0BEC5;}
	.st7{fill:#37474F;}
	.st8{fill:#455A64;}
	.st9{fill:#9CCC65;stroke:#37474F;stroke-linecap:round;stroke-linejoin:round;stroke-miterlimit:10;}
	.st10{fill:none;stroke:#C5E1A5;stroke-linecap:round;stroke-linejoin:round;stroke-miterlimit:10;}
	.st11{fill:#26C6DA;stroke:#37474F;stroke-linecap:round;stroke-linejoin:round;stroke-miterlimit:10;}
	.st12{fill:#EF5350;stroke:#37474F;stroke-linecap:round;stroke-linejoin:round;stroke-miterlimit:10;}
	.st13{fill:#B0BEC5;stroke:#37474F;stroke-linecap:round;stroke-linejoin:round;stroke-miterlimit:10;}
	.st14{fill:none;stroke:#EF9A9A;stroke-linecap:round;stroke-linejoin:round;stroke-miterlimit:10;}
	.st15{fill:none;stroke:#FFE082;stroke-linecap:round;stroke-linejoin:round;stroke-miterlimit:10;}
	.st16{fill:#D32F2F;stroke:#37474F;stroke-linecap:round;stroke-linejoin:round;stroke-miterlimit:10;}
	.st17{fill:#0097A7;stroke:#37474F;stroke-linecap:round;stroke-linejoin:round;stroke-miterlimit:10;}
	.st18{fill:#689F38;stroke:#37474F;stroke-linecap:round;stroke-linejoin:round;stroke-miterlimit:10;}
	.st19{fill:#FFA000;stroke:#37474F;stroke-linecap:round;stroke-linejoin:round;stroke-miterlimit:10;}
	.st20{fill:#FFA000;}
	.st21{fill:#FF6F00;}
	.st22{fill:#D32F2F;}
	.st23{fill:#0097A7;}
	.st24{fill:none;stroke:#80DEEA;stroke-linecap:round;stroke-linejoin:round;stroke-miterlimit:10;}
	.st25{fill:#689F38;}
	.st26{fill:none;stroke:#B0BEC5;stroke-linecap:round;stroke-linejoin:round;stroke-miterlimit:10;}
	.st27{fill:#78909C;stroke:#37474F;stroke-miterlimit:10;}
	.st28{fill:#78909C;}
	.st29{fill:#B71C1C;}
	.st30{fill:#F57F17;}
	.st31{fill:#006064;}
	.st32{fill:#26A69A;stroke:#37474F;stroke-linecap:round;stroke-linejoin:round;stroke-miterlimit:10;}
</style>
<g>
	<path class="st13" d="M49.8,21h-42c-2.8,0-5,2.2-5,5v29c0,2.8,2.2,5,5,5h42c2.8,0,5-2.2,5-5V26C54.8,23.2,52.5,21,49.8,21z"/>
	<path class="st2" d="M49.8,17h-42c-2.8,0-5,2.2-5,5v29c0,2.8,2.2,5,5,5h42c2.8,0,5-2.2,5-5V22C54.8,19.2,52.5,17,49.8,17z"/>
	<path class="st1" d="M54.8,28h-52v-6c0-2.8,2.2-5,5-5h42c2.8,0,5,2.2,5,5V28z"/>
	<circle class="st12" cx="7.8" cy="22.5" r="2"/>
	<circle class="st4" cx="13.8" cy="22.5" r="2"/>
	<circle class="st32" cx="19.8" cy="22.5" r="2"/>
	<path class="st12" d="M46.3,50h-15c-1.4,0-2.5-1.1-2.5-2.5v0c0-1.4,1.1-2.5,2.5-2.5h15c1.4,0,2.5,1.1,2.5,2.5v0
		C48.8,48.9,47.6,50,46.3,50z"/>
	<path class="st12" d="M23.2,50h-12c-1.4,0-2.5-1.1-2.5-2.5v-9c0-1.4,1.1-2.5,2.5-2.5h12c1.4,0,2.5,1.1,2.5,2.5v9
		C25.8,48.9,24.6,50,23.2,50z"/>
	<g>
		<path class="st8" d="M49.8,17.5H27.2V26c0,0.5,0.1,1,0.2,1.5h26.8V22C54.2,19.5,52.2,17.5,49.8,17.5z"/>
		<path class="st6" d="M27.7,28.5c1,2.6,3.6,4.5,6.5,4.5h2l0,3.4c0,1.5,1.1,3,2.6,3.1c0.9,0.1,1.8-0.2,2.5-0.9l4.8-4.8
			c0.6-0.6,1.3-0.9,2.1-0.9h5.9v-4.5H27.7z"/>
	</g>
	<path class="st17" d="M29.2,13v13c0,2.8,2.2,5,5,5h3c0.6,0,1,0.4,1,1v4.6c0,0.9,1.1,1.3,1.7,0.7l4.8-4.8c0.9-0.9,2.2-1.5,3.5-1.5
		h7.9c2.8,0,5-2.2,5-5V13c0-2.8-2.2-5-5-5h-22C31.5,8,29.2,10.2,29.2,13z"/>
	<path class="st11" d="M29.2,9v13c0,2.8,2.2,5,5,5h3c0.6,0,1,0.4,1,1v4.6c0,0.9,1.1,1.3,1.7,0.7l4.8-4.8c0.9-0.9,2.2-1.5,3.5-1.5
		h7.9c2.8,0,5-2.2,5-5V9c0-2.8-2.2-5-5-5h-22C31.5,4,29.2,6.2,29.2,9z"/>
	<path class="st24" d="M31.2,13V9c0-1.7,1.3-3,3-3h4"/>
	<path class="st4" d="M46.2,9.7l1.2,2.5c0.1,0.3,0.4,0.5,0.8,0.6l2.7,0.4c0.8,0.1,1.1,1.1,0.6,1.7l-2,2.1c-0.2,0.2-0.3,0.5-0.3,0.9
		l0.5,2.9c0.1,0.8-0.7,1.4-1.5,1l-2.3-1.3c-0.3-0.2-0.7-0.2-1,0l-2.3,1.3c-0.7,0.4-1.6-0.2-1.5-1l0.5-2.9c0.1-0.3,0-0.6-0.3-0.9
		l-2-2.1c-0.6-0.6-0.2-1.6,0.6-1.7l2.7-0.4c0.3-0.1,0.6-0.3,0.8-0.6l1.2-2.5C44.7,8.9,45.8,8.9,46.2,9.7z"/>
</g>
</svg>
