<?xml version="1.0" encoding="utf-8"?>
<!-- Generator: Adobe Illustrator 21.0.0, SVG Export Plug-In . SVG Version: 6.00 Build 0)  -->
<svg version="1.1" id="Layer_1" xmlns="http://www.w3.org/2000/svg" xmlns:xlink="http://www.w3.org/1999/xlink" x="0px" y="0px"
	 viewBox="0 0 64 64" style="enable-background:new 0 0 64 64;" xml:space="preserve">
<style type="text/css">
	.st0{fill:#455A64;stroke:#37474F;stroke-linecap:round;stroke-linejoin:round;stroke-miterlimit:10;}
	.st1{fill:#78909C;stroke:#37474F;stroke-linecap:round;stroke-linejoin:round;stroke-miterlimit:10;}
	.st2{fill:#ECEFF1;stroke:#37474F;stroke-linecap:round;stroke-linejoin:round;stroke-miterlimit:10;}
	.st3{fill:none;stroke:#FFFFFF;stroke-linecap:round;stroke-linejoin:round;stroke-miterlimit:10;}
	.st4{fill:#FFCA28;stroke:#37474F;stroke-linecap:round;stroke-linejoin:round;stroke-miterlimit:10;}
	.st5{fill:none;stroke:#37474F;stroke-linecap:round;stroke-linejoin:round;stroke-miterlimit:10;}
	.st6{fill:#B0BEC5;}
	.st7{fill:#37474F;}
	.st8{fill:#455A64;}
	.st9{fill:#9CCC65;stroke:#37474F;stroke-linecap:round;stroke-linejoin:round;stroke-miterlimit:10;}
	.st10{fill:none;stroke:#C5E1A5;stroke-linecap:round;stroke-linejoin:round;stroke-miterlimit:10;}
	.st11{fill:#26C6DA;stroke:#37474F;stroke-linecap:round;stroke-linejoin:round;stroke-miterlimit:10;}
	.st12{fill:#EF5350;stroke:#37474F;stroke-linecap:round;stroke-linejoin:round;stroke-miterlimit:10;}
	.st13{fill:#B0BEC5;stroke:#37474F;stroke-linecap:round;stroke-linejoin:round;stroke-miterlimit:10;}
	.st14{fill:none;stroke:#EF9A9A;stroke-linecap:round;stroke-linejoin:round;stroke-miterlimit:10;}
	.st15{fill:none;stroke:#FFE082;stroke-linecap:round;stroke-linejoin:round;stroke-miterlimit:10;}
	.st16{fill:#D32F2F;stroke:#37474F;stroke-linecap:round;stroke-linejoin:round;stroke-miterlimit:10;}
	.st17{fill:#0097A7;stroke:#37474F;stroke-linecap:round;stroke-linejoin:round;stroke-miterlimit:10;}
	.st18{fill:#689F38;stroke:#37474F;stroke-linecap:round;stroke-linejoin:round;stroke-miterlimit:10;}
	.st19{fill:#FFA000;stroke:#37474F;stroke-linecap:round;stroke-linejoin:round;stroke-miterlimit:10;}
	.st20{fill:#FFA000;}
	.st21{fill:#FF6F00;}
	.st22{fill:#D32F2F;}
	.st23{fill:#0097A7;}
	.st24{fill:none;stroke:#80DEEA;stroke-linecap:round;stroke-linejoin:round;stroke-miterlimit:10;}
	.st25{fill:#689F38;}
	.st26{fill:none;stroke:#B0BEC5;stroke-linecap:round;stroke-linejoin:round;stroke-miterlimit:10;}
	.st27{fill:#78909C;stroke:#37474F;stroke-miterlimit:10;}
	.st28{fill:#78909C;}
	.st29{fill:#B71C1C;}
	.st30{fill:#F57F17;}
	.st31{fill:#006064;}
	.st32{fill:#26A69A;stroke:#37474F;stroke-linecap:round;stroke-linejoin:round;stroke-miterlimit:10;}
</style>
<g>
	<path class="st2" d="M59,57.9H5c-0.6,0-1-0.4-1-1v-2c0-0.6,0.4-1,1-1h54c0.6,0,1,0.4,1,1v2C60,57.4,59.6,57.9,59,57.9z"/>
	<path class="st1" d="M40,58.5v-5c0-1.4,1.1-2.5,2.5-2.5h0c1.4,0,2.5,1.1,2.5,2.5v5c0,1.4-1.1,2.5-2.5,2.5h0
		C41.1,61,40,59.9,40,58.5z"/>
	<g>
		<path class="st13" d="M32,14.5c-15.1,0-27.4,12-28,27c0,0.6,0.4,1,1,1H59c0.6,0,1-0.5,1-1C59.4,26.5,47.1,14.5,32,14.5z"/>
		<path class="st2" d="M32,10.5c-15.1,0-27.4,12-28,27c0,0.6,0.4,1,1,1H59c0.6,0,1-0.5,1-1C59.4,22.5,47.1,10.5,32,10.5z"/>
		<path class="st2" d="M32,16C19.6,16,9.5,26.1,9.5,38.5h45C54.5,26.1,44.4,16,32,16z"/>
		<circle class="st9" cx="56" cy="31" r="7.5"/>
		<path class="st10" d="M50.5,31c0-3,2.5-5.5,5.5-5.5"/>
		<circle class="st12" cx="8" cy="31" r="7.5"/>
		<path class="st14" d="M2.5,31c0-3,2.5-5.5,5.5-5.5"/>
		<circle class="st4" cx="32" cy="10.5" r="7.5"/>
		<path class="st15" d="M26.5,10.5C26.5,7.5,29,5,32,5"/>
		<line class="st5" x1="34.8" y1="13.3" x2="29.2" y2="13.3"/>
		<circle class="st7" cx="29.5" cy="9.5" r="1"/>
		<circle class="st7" cx="34.5" cy="9.5" r="1"/>
		<g>
			<path class="st6" d="M29.5,29c-0.7,0.7-1,1.5-1,2.5s0.4,1.8,1,2.5c0.7,0.7,1.5,1,2.5,1s1.8-0.4,2.5-1l12-12
				c-1.8-1.6-3.8-2.9-6.1-3.8L29.5,29z"/>
			<path class="st6" d="M47.1,21.1c0.3-0.5,0.4-1.1,0.4-1.6c0-0.9-0.4-1.8-1-2.5c-0.7-0.7-1.5-1-2.5-1s-1.8,0.4-2.5,1l-0.4,0.4
				C43.3,18.3,45.3,19.6,47.1,21.1z"/>
		</g>
		<path class="st5" d="M58.8,33.8c-1.6,1.6-4.1,1.6-5.7,0"/>
		<circle class="st7" cx="53.5" cy="30" r="1"/>
		<circle class="st7" cx="58.5" cy="30" r="1"/>
		<path class="st5" d="M5.2,33.8c1.6-1.6,4.1-1.6,5.7,0"/>
		<circle class="st7" cx="5.5" cy="30" r="1"/>
		<circle class="st7" cx="10.5" cy="30" r="1"/>
		<circle class="st6" cx="32" cy="31.5" r="5.5"/>
		<g>
			<path class="st11" d="M32,33c-0.4,0-0.8-0.1-1.1-0.4c-0.6-0.6-0.6-1.5,0-2.1l12-12c0.6-0.6,1.5-0.6,2.1,0c0.6,0.6,0.6,1.5,0,2.1
				l-12,12C32.8,32.9,32.4,33,32,33z"/>
		</g>
		<circle class="st1" cx="32" cy="31.5" r="4"/>
	</g>
</g>
</svg>
