<?xml version="1.0" encoding="utf-8"?>
<!-- Generator: Adobe Illustrator 21.0.0, SVG Export Plug-In . SVG Version: 6.00 Build 0)  -->
<svg version="1.1" id="Layer_1" xmlns="http://www.w3.org/2000/svg" xmlns:xlink="http://www.w3.org/1999/xlink" x="0px" y="0px"
	 viewBox="0 0 64 64" style="enable-background:new 0 0 64 64;" xml:space="preserve">
<style type="text/css">
	.st0{fill:#455A64;stroke:#37474F;stroke-linecap:round;stroke-linejoin:round;stroke-miterlimit:10;}
	.st1{fill:#78909C;stroke:#37474F;stroke-linecap:round;stroke-linejoin:round;stroke-miterlimit:10;}
	.st2{fill:#ECEFF1;stroke:#37474F;stroke-linecap:round;stroke-linejoin:round;stroke-miterlimit:10;}
	.st3{fill:none;stroke:#FFFFFF;stroke-linecap:round;stroke-linejoin:round;stroke-miterlimit:10;}
	.st4{fill:#FFCA28;stroke:#37474F;stroke-linecap:round;stroke-linejoin:round;stroke-miterlimit:10;}
	.st5{fill:none;stroke:#37474F;stroke-linecap:round;stroke-linejoin:round;stroke-miterlimit:10;}
	.st6{fill:#B0BEC5;}
	.st7{fill:#37474F;}
	.st8{fill:#455A64;}
	.st9{fill:#9CCC65;stroke:#37474F;stroke-linecap:round;stroke-linejoin:round;stroke-miterlimit:10;}
	.st10{fill:none;stroke:#C5E1A5;stroke-linecap:round;stroke-linejoin:round;stroke-miterlimit:10;}
	.st11{fill:#26C6DA;stroke:#37474F;stroke-linecap:round;stroke-linejoin:round;stroke-miterlimit:10;}
	.st12{fill:#EF5350;stroke:#37474F;stroke-linecap:round;stroke-linejoin:round;stroke-miterlimit:10;}
	.st13{fill:#B0BEC5;stroke:#37474F;stroke-linecap:round;stroke-linejoin:round;stroke-miterlimit:10;}
	.st14{fill:none;stroke:#EF9A9A;stroke-linecap:round;stroke-linejoin:round;stroke-miterlimit:10;}
	.st15{fill:none;stroke:#FFE082;stroke-linecap:round;stroke-linejoin:round;stroke-miterlimit:10;}
	.st16{fill:#D32F2F;stroke:#37474F;stroke-linecap:round;stroke-linejoin:round;stroke-miterlimit:10;}
	.st17{fill:#0097A7;stroke:#37474F;stroke-linecap:round;stroke-linejoin:round;stroke-miterlimit:10;}
	.st18{fill:#689F38;stroke:#37474F;stroke-linecap:round;stroke-linejoin:round;stroke-miterlimit:10;}
	.st19{fill:#FFA000;stroke:#37474F;stroke-linecap:round;stroke-linejoin:round;stroke-miterlimit:10;}
	.st20{fill:#FFA000;}
	.st21{fill:#FF6F00;}
	.st22{fill:#D32F2F;}
	.st23{fill:#0097A7;}
	.st24{fill:none;stroke:#80DEEA;stroke-linecap:round;stroke-linejoin:round;stroke-miterlimit:10;}
	.st25{fill:#689F38;}
	.st26{fill:none;stroke:#B0BEC5;stroke-linecap:round;stroke-linejoin:round;stroke-miterlimit:10;}
	.st27{fill:#78909C;stroke:#37474F;stroke-miterlimit:10;}
	.st28{fill:#78909C;}
	.st29{fill:#B71C1C;}
	.st30{fill:#F57F17;}
	.st31{fill:#006064;}
	.st32{fill:#26A69A;stroke:#37474F;stroke-linecap:round;stroke-linejoin:round;stroke-miterlimit:10;}
</style>
<g>
	<path class="st16" d="M20,60.5H3c-1.4,0-2.5-1.1-2.5-2.5v-3c0-4.1,3.4-7.5,7.5-7.5h7c4.1,0,7.5,3.4,7.5,7.5v3
		C22.5,59.4,21.4,60.5,20,60.5z"/>
	<path class="st16" d="M61,60.5H44c-1.4,0-2.5-1.1-2.5-2.5v-3c0-4.1,3.4-7.5,7.5-7.5h7c4.1,0,7.5,3.4,7.5,7.5v3
		C63.5,59.4,62.4,60.5,61,60.5z"/>
	<path class="st16" d="M36.5,47.5h-9c-5.5,0-10,4.5-10,10V61c0,1.4,1.1,2.5,2.5,2.5h24c1.4,0,2.5-1.1,2.5-2.5v-3.5
		C46.5,52,42,47.5,36.5,47.5z"/>
	<path class="st17" d="M4.5,9.5V13c0,2.8,2.2,5,5,5h3l3.2,3.5c0.4,0.5,1.2,0.5,1.6,0l3.2-3.5H28l3.2,3.5c0.4,0.5,1.2,0.5,1.6,0
		L36,18h7.5l3.2,3.5c0.4,0.5,1.2,0.5,1.6,0l3.2-3.5h3c2.8,0,5-2.2,5-5V9.5c0-2.8-2.2-5-5-5h-45C6.7,4.5,4.5,6.7,4.5,9.5z"/>
	<path class="st11" d="M4.5,5.5V9c0,2.8,2.2,5,5,5h3l3.2,3.5c0.4,0.5,1.2,0.5,1.6,0l3.2-3.5H28l3.2,3.5c0.4,0.5,1.2,0.5,1.6,0L36,14
		h7.5l3.2,3.5c0.4,0.5,1.2,0.5,1.6,0l3.2-3.5h3c2.8,0,5-2.2,5-5V5.5c0-2.8-2.2-5-5-5h-45C6.7,0.5,4.5,2.7,4.5,5.5z"/>
	<path class="st24" d="M6.5,7.5v-2c0-1.7,1.3-3,3-3h2"/>
	<path class="st12" d="M20,56.5H3c-1.4,0-2.5-1.1-2.5-2.5v-3c0-4.1,3.4-7.5,7.5-7.5h7c4.1,0,7.5,3.4,7.5,7.5v3
		C22.5,55.4,21.4,56.5,20,56.5z"/>
	<path class="st2" d="M15.7,43.5c-0.2,0-0.4,0-0.7,0H8c-0.1,0-0.2,0-0.3,0c0,2.2,1.8,4,4,4C13.9,47.5,15.6,45.7,15.7,43.5z"/>
	<line class="st5" x1="5.5" y1="56.5" x2="5.5" y2="51.5"/>
	<circle class="st2" cx="11.6" cy="34.5" r="9"/>
	<path class="st5" d="M14.8,37.7c-1.8,1.8-4.6,1.8-6.4,0"/>
	<path class="st1" d="M18.9,29.3L2.8,32.5c0.9-4,4.5-7,8.8-7C14.6,25.5,17.3,27,18.9,29.3z"/>
	<path class="st1" d="M17.5,27.7L17.5,27.7c1.9,1.7,3.1,4.1,3.1,6.8h0c-1.7,0-3.1-1.4-3.1-3.1V27.7z"/>
	<circle class="st2" cx="52.5" cy="34.5" r="9"/>
	<path class="st5" d="M55.7,37.7c-1.8,1.8-4.6,1.8-6.4,0"/>
	<path class="st1" d="M59.9,29.3l-16.1,3.1c0.9-4,4.5-7,8.8-7C55.5,25.5,58.2,27,59.9,29.3z"/>
	<path class="st1" d="M58.4,27.7L58.4,27.7c1.9,1.7,3.1,4.1,3.1,6.8h0c-1.7,0-3.1-1.4-3.1-3.1V27.7z"/>
	<path class="st12" d="M61,56.5H44c-1.4,0-2.5-1.1-2.5-2.5v-3c0-4.1,3.4-7.5,7.5-7.5h7c4.1,0,7.5,3.4,7.5,7.5v3
		C63.5,55.4,62.4,56.5,61,56.5z"/>
	<path class="st2" d="M56.5,43.5c-0.2,0-0.4,0-0.7,0h-7c-0.1,0-0.2,0-0.3,0c0,2.2,1.8,4,4,4C54.7,47.5,56.5,45.7,56.5,43.5z"/>
	<line class="st5" x1="58.5" y1="56.5" x2="58.5" y2="51.5"/>
	<path class="st12" d="M36.5,43.5h-9c-5.5,0-10,4.5-10,10V57c0,1.4,1.1,2.5,2.5,2.5h24c1.4,0,2.5-1.1,2.5-2.5v-3.5
		C46.5,48,42,43.5,36.5,43.5z"/>
	<path class="st2" d="M37.1,43.5c-0.3,0-0.5,0-0.8,0h-8.8c-0.1,0-0.3,0-0.4,0c0,2.8,2.2,5,5,5C34.8,48.5,37.1,46.3,37.1,43.5z"/>
	<line class="st5" x1="14" y1="5" x2="50" y2="5"/>
	<line class="st5" x1="17" y1="9" x2="47" y2="9"/>
	<line class="st2" x1="23.5" y1="59.5" x2="23.5" y2="53.5"/>
	<line class="st2" x1="40.5" y1="59.5" x2="40.5" y2="53.5"/>
	<circle class="st2" cx="32.1" cy="33.5" r="10"/>
	<path class="st5" d="M35.6,37c-2,2-5.1,2-7.1,0"/>
	<path class="st1" d="M40.3,27.7l-17.9,3.5c1-4.4,5-7.7,9.7-7.7C35.5,23.5,38.4,25.2,40.3,27.7z"/>
	<path class="st1" d="M38.6,25.9L38.6,25.9c2.1,1.8,3.5,4.5,3.5,7.6h0c-1.9,0-3.5-1.6-3.5-3.5V25.9z"/>
</g>
</svg>
