<?xml version="1.0" encoding="UTF-8"?>
<svg width="17px" height="18px" viewBox="0 0 17 18" version="1.1" xmlns="http://www.w3.org/2000/svg" xmlns:xlink="http://www.w3.org/1999/xlink">
    <!-- Generator: Sketch 61.2 (89653) - https://sketch.com -->
    <title>SAVE</title>
    <desc>Created with Sketch.</desc>
    <defs>
        <path d="M8.76161579,1.694752 C9.66648212,0.609647939 10.8939993,0 12.173974,0 C13.4539487,0 14.6814658,0.609647939 15.5863322,1.694752 C16.491377,2.77905149 17,4.2503834 17,5.78459222 C17,7.31880105 16.491377,8.79013296 15.586209,9.87458013 L9.02465648,17.7394166 C8.73478707,18.0868611 8.26481588,18.0868611 7.97494647,17.7394166 L1.41339397,9.87458012 C-0.471131342,7.61574216 -0.471131319,3.9534423 1.41339402,1.69460437 C3.29791936,-0.56423355 6.35333862,-0.564233577 8.23786399,1.69460432 L8.49980149,2.00856898 L8.76161579,1.694752 Z M7.99980191,16 L13.2381184,9.73985753 L14.023297,8.80151594 C14.6486536,8.05452323 15,7.04117317 15,5.98451792 C15,4.92786267 14.6486536,3.91451261 14.023297,3.1675199 C13.3979881,2.41988267 12.5500444,2 11.6658641,2 C10.7816838,2 9.93374013,2.41988267 9.30855411,3.16737302 L8.52349837,4.10556774 C8.2342688,4.45121663 7.76533503,4.45121663 7.47610546,4.10556774 L6.69104973,3.16737303 C5.38914336,1.61150691 3.27833612,1.61150693 1.97642977,3.16737308 C0.674523424,4.72323922 0.674523409,7.24579665 1.97642973,8.80166281 L7.99980191,16 Z" id="path-1"></path>
    </defs>
    <g id="Page-1" stroke="none" stroke-width="1" fill="none" fill-rule="evenodd">
        <g id="8.MAIN-UI---SMART-OVERVIEW" transform="translate(-566.000000, -2589.000000)">
            <g id="CUSTOMER-COMMENTS" transform="translate(312.000000, 2305.000000)">
                <g id="FEEEDBACK-1" transform="translate(94.000000, 174.000000)">
                    <g id="SAVE" transform="translate(160.000000, 110.000000)">
                        <mask id="mask-2" fill="white">
                            <use xlink:href="#path-1"></use>
                        </mask>
                        <use id="Shape" fill="#FFFFFF" fill-rule="nonzero" xlink:href="#path-1"></use>
                    </g>
                </g>
            </g>
        </g>
    </g>
</svg>