<?xml version="1.0" encoding="UTF-8"?>
<svg width="62px" height="62px" viewBox="0 0 62 62" version="1.1" xmlns="http://www.w3.org/2000/svg" xmlns:xlink="http://www.w3.org/1999/xlink">
    <!-- Generator: Sketch 61.2 (89653) - https://sketch.com -->
    <title>Icon</title>
    <desc>Created with Sketch.</desc>
    <defs>
        <path d="M13.6666667,12.5833333 C16.5431497,12.5833333 18.875,14.9151836 18.875,17.7916667 L18.875,17.7916667 L18.875,19.875 C18.875,20.4502966 18.4086299,20.9166667 17.8333333,20.9166667 C17.2580367,20.9166667 16.7916667,20.4502966 16.7916667,19.875 L16.7916667,19.875 L16.7916667,17.7916667 C16.7916667,16.0657768 15.3925565,14.6666667 13.6666667,14.6666667 L13.6666667,14.6666667 L5.33333333,14.6666667 C3.60744349,14.6666667 2.20833333,16.0657768 2.20833333,17.7916667 L2.20833333,17.7916667 L2.20833333,19.875 C2.20833333,20.4502966 1.74196328,20.9166667 1.16666667,20.9166667 C0.591370052,20.9166667 0.125,20.4502966 0.125,19.875 L0.125,19.875 L0.125,17.7916667 C0.125,14.9151836 2.45685026,12.5833333 5.33333333,12.5833333 L5.33333333,12.5833333 Z M9.5,0.0833333333 C12.3764831,0.0833333333 14.7083333,2.41518359 14.7083333,5.29166667 C14.7083333,8.16814974 12.3764831,10.5 9.5,10.5 C6.62351693,10.5 4.29166667,8.16814974 4.29166667,5.29166667 C4.29166667,2.41518359 6.62351693,0.0833333333 9.5,0.0833333333 Z M9.5,2.16666667 C7.77411016,2.16666667 6.375,3.56577682 6.375,5.29166667 C6.375,7.01755651 7.77411016,8.41666667 9.5,8.41666667 C11.2258898,8.41666667 12.625,7.01755651 12.625,5.29166667 C12.625,3.56577682 11.2258898,2.16666667 9.5,2.16666667 Z" id="path-1"></path>
    </defs>
    <g id="Page-1" stroke="none" stroke-width="1" fill="none" fill-rule="evenodd">
        <g id="8.MAIN-UI---SMART-OVERVIEW" transform="translate(-1203.000000, -235.000000)">
            <g id="DEATAILS-1" transform="translate(312.000000, 193.000000)">
                <g id="DINE-IN-CUSTOMERS" transform="translate(852.000000, 0.000000)">
                    <g id="Icon" transform="translate(39.000000, 42.000000)">
                        <circle id="Oval" fill="#2A3343" cx="31" cy="31" r="31"></circle>
                        <g id="user" transform="translate(22.000000, 21.000000)">
                            <mask id="mask-2" fill="white">
                                <use xlink:href="#path-1"></use>
                            </mask>
                            <use id="Combined-Shape" fill="#FFCA83" fill-rule="nonzero" xlink:href="#path-1"></use>
                        </g>
                    </g>
                </g>
            </g>
        </g>
    </g>
</svg>