<?xml version="1.0" encoding="UTF-8"?>
<svg width="149px" height="55px" viewBox="0 0 149 55" version="1.1" xmlns="http://www.w3.org/2000/svg" xmlns:xlink="http://www.w3.org/1999/xlink">
    <!-- Generator: Sketch 61.2 (89653) - https://sketch.com -->
    <title>5 STAR EMP  </title>
    <desc>Created with Sketch.</desc>
    <defs>
        <filter x="-56.1%" y="-56.1%" width="212.2%" height="212.2%" filterUnits="objectBoundingBox" id="filter-1">
            <feOffset dx="0" dy="3" in="SourceAlpha" result="shadowOffsetOuter1"></feOffset>
            <feGaussianBlur stdDeviation="3.5" in="shadowOffsetOuter1" result="shadowBlurOuter1"></feGaussianBlur>
            <feColorMatrix values="0 0 0 0 0   0 0 0 0 0   0 0 0 0 0  0 0 0 0.5 0" type="matrix" in="shadowBlurOuter1" result="shadowMatrixOuter1"></feColorMatrix>
            <feMerge>
                <feMergeNode in="shadowMatrixOuter1"></feMergeNode>
                <feMergeNode in="SourceGraphic"></feMergeNode>
            </feMerge>
        </filter>
        <radialGradient cx="50%" cy="50%" fx="50%" fy="50%" r="141.421356%" id="radialGradient-2">
            <stop stop-color="#FFFFFF" offset="0%"></stop>
            <stop stop-color="#FFFFFF" offset="100%"></stop>
        </radialGradient>
        <path d="M14.2540348,-2.44781986e-13 L26.6304496,-2.44781986e-13 C30.7349111,-2.44781986e-13 32.7866309,-2.44781986e-13 34.9960965,0.698443275 C37.4082811,1.57643758 39.3080468,3.47620329 40.1860411,5.88838787 C40.8844844,8.09751284 40.8844844,10.149914 40.8844844,14.2540348 L40.8844844,26.6304496 C40.8844844,30.7349111 40.8844844,32.7866309 40.1860411,34.9960965 C39.3080468,37.4082811 37.4082811,39.3080468 34.9960965,40.1857004 C32.7866309,40.8844844 30.7349111,40.8844844 26.6304496,40.8844844 L14.2540348,40.8844844 C10.1495733,40.8844844 8.09751284,40.8844844 5.88838787,40.1857004 C3.47620329,39.3080468 1.57643758,37.4082811 0.698443275,34.9960965 C-2.30926402e-14,32.7866309 -2.30926402e-14,30.7349111 -2.30926402e-14,26.6304496 L-2.30926402e-14,14.2540348 C-2.30926402e-14,10.149914 -2.30926402e-14,8.09751284 0.698443275,5.88838787 C1.57643758,3.47620329 3.47620329,1.57643758 5.88838787,0.698443275 C8.09751284,-2.44781986e-13 10.1495733,-2.44781986e-13 14.2540348,-2.44781986e-13 L14.2540348,-2.44781986e-13" id="path-3"></path>
        <filter x="-11.0%" y="-11.0%" width="122.0%" height="122.0%" filterUnits="objectBoundingBox" id="filter-4">
            <feOffset dx="0" dy="0" in="SourceAlpha" result="shadowOffsetOuter1"></feOffset>
            <feGaussianBlur stdDeviation="1.5" in="shadowOffsetOuter1" result="shadowBlurOuter1"></feGaussianBlur>
            <feColorMatrix values="0 0 0 0 0   0 0 0 0 0   0 0 0 0 0  0 0 0 0.1 0" type="matrix" in="shadowBlurOuter1"></feColorMatrix>
        </filter>
        <linearGradient x1="50%" y1="0%" x2="50%" y2="100%" id="linearGradient-5">
            <stop stop-color="#FF7360" offset="0%"></stop>
            <stop stop-color="#FA9765" offset="51.1639031%"></stop>
            <stop stop-color="#FFB26A" offset="100%"></stop>
        </linearGradient>
        <path d="M18.6451437,27.0276326 L15.3384103,28.7200509 C14.4866137,29.1560087 14.4895194,29.1580714 14.6523855,28.2336341 L15.2828109,24.6553036 C15.4828033,23.5201357 15.0162787,22.1218674 14.1695158,21.318334 L11.498991,18.7841463 C10.8077808,18.1282241 10.804946,18.1367761 11.7570118,18.0020962 L15.454052,17.4791102 C16.6212595,17.3139962 17.8434356,16.4488309 18.3655076,15.419009 L20.0159827,12.1633364 C20.2278384,11.7454369 20.3330444,11.5348969 20.4407862,11.5315603 C20.5485281,11.5282236 20.6554185,11.7388156 20.8706309,12.1633364 L22.521106,15.419009 C23.0441391,16.4507268 24.2641503,17.3138259 25.4325616,17.4791102 L29.1296018,18.0020962 C30.0804598,18.1366053 30.0779554,18.1290567 29.3876226,18.7841463 L26.7170978,21.318334 C25.8712054,22.1210413 25.4041775,23.5222199 25.6038027,24.6553036 L26.2342281,28.2336341 C26.3970738,29.1579555 26.3998939,29.1559544 25.5482033,28.7200509 L22.2414699,27.0276326 C21.1968844,26.4930035 19.6900146,26.4928574 18.6451437,27.0276326 Z M20.8521666,29.8750917 L24.1586471,31.5789762 C27.2032525,33.1479122 29.7616881,31.3200469 29.1791118,27.9906526 L28.5487346,24.3880787 C28.5365346,24.3183567 28.5534016,24.1604037 28.6097123,23.9903027 C28.6661469,23.8198271 28.7473567,23.681924 28.7999007,23.6317209 L31.4702213,21.0803639 C33.9374503,18.7230508 32.9630124,15.7659049 29.5570702,15.2807965 L25.8603127,14.7542672 C25.7856713,14.743636 25.6366685,14.6787242 25.4886303,14.5732767 C25.3409363,14.4680744 25.2323758,14.3497071 25.1995627,14.2845376 L23.5492138,11.0068076 C22.0248013,7.97919773 18.8605029,7.97893303 17.335957,11.0068076 L15.6856081,14.2845376 C15.6534331,14.3484399 15.5445651,14.4670573 15.3963803,14.5726745 C15.2477516,14.6786081 15.0984353,14.7437876 15.0248582,14.7542672 L11.3281006,15.2807965 C7.92049719,15.7661415 6.94717099,18.7225258 9.4149495,21.0803639 L12.0852701,23.6317209 C12.1385857,23.6826612 12.2197018,23.8201676 12.2759498,23.9899095 C12.3321114,24.1593905 12.3488799,24.3169637 12.3364363,24.3880787 L11.7060591,27.9906526 C11.123526,31.3197998 13.6814797,33.1481382 16.7265237,31.5789762 L20.0330042,29.8750917 C20.099663,29.8407413 20.2593358,29.8073672 20.4426639,29.8073851 C20.6259505,29.8074029 20.7856168,29.8407974 20.8521666,29.8750917 L20.8521666,29.8750917 Z" id="path-6"></path>
        <filter x="-2.0%" y="-2.1%" width="104.0%" height="104.3%" filterUnits="objectBoundingBox" id="filter-7">
            <feGaussianBlur stdDeviation="0.5" in="SourceAlpha" result="shadowBlurInner1"></feGaussianBlur>
            <feOffset dx="0" dy="0" in="shadowBlurInner1" result="shadowOffsetInner1"></feOffset>
            <feComposite in="shadowOffsetInner1" in2="SourceAlpha" operator="arithmetic" k2="-1" k3="1" result="shadowInnerInner1"></feComposite>
            <feColorMatrix values="0 0 0 0 0   0 0 0 0 0   0 0 0 0 0  0 0 0 0.2 0" type="matrix" in="shadowInnerInner1"></feColorMatrix>
        </filter>
        <filter x="-56.1%" y="-56.1%" width="212.2%" height="212.2%" filterUnits="objectBoundingBox" id="filter-8">
            <feOffset dx="0" dy="3" in="SourceAlpha" result="shadowOffsetOuter1"></feOffset>
            <feGaussianBlur stdDeviation="3.5" in="shadowOffsetOuter1" result="shadowBlurOuter1"></feGaussianBlur>
            <feColorMatrix values="0 0 0 0 0   0 0 0 0 0   0 0 0 0 0  0 0 0 0.5 0" type="matrix" in="shadowBlurOuter1" result="shadowMatrixOuter1"></feColorMatrix>
            <feMerge>
                <feMergeNode in="shadowMatrixOuter1"></feMergeNode>
                <feMergeNode in="SourceGraphic"></feMergeNode>
            </feMerge>
        </filter>
        <path d="M14.2540348,-2.44781986e-13 L26.6304496,-2.44781986e-13 C30.7349111,-2.44781986e-13 32.7866309,-2.44781986e-13 34.9960965,0.698443275 C37.4082811,1.57643758 39.3080468,3.47620329 40.1860411,5.88838787 C40.8844844,8.09751284 40.8844844,10.149914 40.8844844,14.2540348 L40.8844844,26.6304496 C40.8844844,30.7349111 40.8844844,32.7866309 40.1860411,34.9960965 C39.3080468,37.4082811 37.4082811,39.3080468 34.9960965,40.1857004 C32.7866309,40.8844844 30.7349111,40.8844844 26.6304496,40.8844844 L14.2540348,40.8844844 C10.1495733,40.8844844 8.09751284,40.8844844 5.88838787,40.1857004 C3.47620329,39.3080468 1.57643758,37.4082811 0.698443275,34.9960965 C-2.30926402e-14,32.7866309 -2.30926402e-14,30.7349111 -2.30926402e-14,26.6304496 L-2.30926402e-14,14.2540348 C-2.30926402e-14,10.149914 -2.30926402e-14,8.09751284 0.698443275,5.88838787 C1.57643758,3.47620329 3.47620329,1.57643758 5.88838787,0.698443275 C8.09751284,-2.44781986e-13 10.1495733,-2.44781986e-13 14.2540348,-2.44781986e-13 L14.2540348,-2.44781986e-13" id="path-9"></path>
        <filter x="-11.0%" y="-11.0%" width="122.0%" height="122.0%" filterUnits="objectBoundingBox" id="filter-10">
            <feOffset dx="0" dy="0" in="SourceAlpha" result="shadowOffsetOuter1"></feOffset>
            <feGaussianBlur stdDeviation="1.5" in="shadowOffsetOuter1" result="shadowBlurOuter1"></feGaussianBlur>
            <feColorMatrix values="0 0 0 0 0   0 0 0 0 0   0 0 0 0 0  0 0 0 0.1 0" type="matrix" in="shadowBlurOuter1"></feColorMatrix>
        </filter>
        <path d="M18.6451437,27.0276326 L15.3384103,28.7200509 C14.4866137,29.1560087 14.4895194,29.1580714 14.6523855,28.2336341 L15.2828109,24.6553036 C15.4828033,23.5201357 15.0162787,22.1218674 14.1695158,21.318334 L11.498991,18.7841463 C10.8077808,18.1282241 10.804946,18.1367761 11.7570118,18.0020962 L15.454052,17.4791102 C16.6212595,17.3139962 17.8434356,16.4488309 18.3655076,15.419009 L20.0159827,12.1633364 C20.2278384,11.7454369 20.3330444,11.5348969 20.4407862,11.5315603 C20.5485281,11.5282236 20.6554185,11.7388156 20.8706309,12.1633364 L22.521106,15.419009 C23.0441391,16.4507268 24.2641503,17.3138259 25.4325616,17.4791102 L29.1296018,18.0020962 C30.0804598,18.1366053 30.0779554,18.1290567 29.3876226,18.7841463 L26.7170978,21.318334 C25.8712054,22.1210413 25.4041775,23.5222199 25.6038027,24.6553036 L26.2342281,28.2336341 C26.3970738,29.1579555 26.3998939,29.1559544 25.5482033,28.7200509 L22.2414699,27.0276326 C21.1968844,26.4930035 19.6900146,26.4928574 18.6451437,27.0276326 Z M20.8521666,29.8750917 L24.1586471,31.5789762 C27.2032525,33.1479122 29.7616881,31.3200469 29.1791118,27.9906526 L28.5487346,24.3880787 C28.5365346,24.3183567 28.5534016,24.1604037 28.6097123,23.9903027 C28.6661469,23.8198271 28.7473567,23.681924 28.7999007,23.6317209 L31.4702213,21.0803639 C33.9374503,18.7230508 32.9630124,15.7659049 29.5570702,15.2807965 L25.8603127,14.7542672 C25.7856713,14.743636 25.6366685,14.6787242 25.4886303,14.5732767 C25.3409363,14.4680744 25.2323758,14.3497071 25.1995627,14.2845376 L23.5492138,11.0068076 C22.0248013,7.97919773 18.8605029,7.97893303 17.335957,11.0068076 L15.6856081,14.2845376 C15.6534331,14.3484399 15.5445651,14.4670573 15.3963803,14.5726745 C15.2477516,14.6786081 15.0984353,14.7437876 15.0248582,14.7542672 L11.3281006,15.2807965 C7.92049719,15.7661415 6.94717099,18.7225258 9.4149495,21.0803639 L12.0852701,23.6317209 C12.1385857,23.6826612 12.2197018,23.8201676 12.2759498,23.9899095 C12.3321114,24.1593905 12.3488799,24.3169637 12.3364363,24.3880787 L11.7060591,27.9906526 C11.123526,31.3197998 13.6814797,33.1481382 16.7265237,31.5789762 L20.0330042,29.8750917 C20.099663,29.8407413 20.2593358,29.8073672 20.4426639,29.8073851 C20.6259505,29.8074029 20.7856168,29.8407974 20.8521666,29.8750917 L20.8521666,29.8750917 Z" id="path-11"></path>
        <filter x="-2.0%" y="-2.1%" width="104.0%" height="104.3%" filterUnits="objectBoundingBox" id="filter-12">
            <feGaussianBlur stdDeviation="0.5" in="SourceAlpha" result="shadowBlurInner1"></feGaussianBlur>
            <feOffset dx="0" dy="0" in="shadowBlurInner1" result="shadowOffsetInner1"></feOffset>
            <feComposite in="shadowOffsetInner1" in2="SourceAlpha" operator="arithmetic" k2="-1" k3="1" result="shadowInnerInner1"></feComposite>
            <feColorMatrix values="0 0 0 0 0   0 0 0 0 0   0 0 0 0 0  0 0 0 0.2 0" type="matrix" in="shadowInnerInner1"></feColorMatrix>
        </filter>
        <filter x="-56.1%" y="-56.1%" width="212.2%" height="212.2%" filterUnits="objectBoundingBox" id="filter-13">
            <feOffset dx="0" dy="3" in="SourceAlpha" result="shadowOffsetOuter1"></feOffset>
            <feGaussianBlur stdDeviation="3.5" in="shadowOffsetOuter1" result="shadowBlurOuter1"></feGaussianBlur>
            <feColorMatrix values="0 0 0 0 0   0 0 0 0 0   0 0 0 0 0  0 0 0 0.5 0" type="matrix" in="shadowBlurOuter1" result="shadowMatrixOuter1"></feColorMatrix>
            <feMerge>
                <feMergeNode in="shadowMatrixOuter1"></feMergeNode>
                <feMergeNode in="SourceGraphic"></feMergeNode>
            </feMerge>
        </filter>
        <path d="M14.2540348,-2.44781986e-13 L26.6304496,-2.44781986e-13 C30.7349111,-2.44781986e-13 32.7866309,-2.44781986e-13 34.9960965,0.698443275 C37.4082811,1.57643758 39.3080468,3.47620329 40.1860411,5.88838787 C40.8844844,8.09751284 40.8844844,10.149914 40.8844844,14.2540348 L40.8844844,26.6304496 C40.8844844,30.7349111 40.8844844,32.7866309 40.1860411,34.9960965 C39.3080468,37.4082811 37.4082811,39.3080468 34.9960965,40.1857004 C32.7866309,40.8844844 30.7349111,40.8844844 26.6304496,40.8844844 L14.2540348,40.8844844 C10.1495733,40.8844844 8.09751284,40.8844844 5.88838787,40.1857004 C3.47620329,39.3080468 1.57643758,37.4082811 0.698443275,34.9960965 C-2.30926402e-14,32.7866309 -2.30926402e-14,30.7349111 -2.30926402e-14,26.6304496 L-2.30926402e-14,14.2540348 C-2.30926402e-14,10.149914 -2.30926402e-14,8.09751284 0.698443275,5.88838787 C1.57643758,3.47620329 3.47620329,1.57643758 5.88838787,0.698443275 C8.09751284,-2.44781986e-13 10.1495733,-2.44781986e-13 14.2540348,-2.44781986e-13 L14.2540348,-2.44781986e-13" id="path-14"></path>
        <filter x="-11.0%" y="-11.0%" width="122.0%" height="122.0%" filterUnits="objectBoundingBox" id="filter-15">
            <feOffset dx="0" dy="0" in="SourceAlpha" result="shadowOffsetOuter1"></feOffset>
            <feGaussianBlur stdDeviation="1.5" in="shadowOffsetOuter1" result="shadowBlurOuter1"></feGaussianBlur>
            <feColorMatrix values="0 0 0 0 0   0 0 0 0 0   0 0 0 0 0  0 0 0 0.1 0" type="matrix" in="shadowBlurOuter1"></feColorMatrix>
        </filter>
        <path d="M18.6451437,27.0276326 L15.3384103,28.7200509 C14.4866137,29.1560087 14.4895194,29.1580714 14.6523855,28.2336341 L15.2828109,24.6553036 C15.4828033,23.5201357 15.0162787,22.1218674 14.1695158,21.318334 L11.498991,18.7841463 C10.8077808,18.1282241 10.804946,18.1367761 11.7570118,18.0020962 L15.454052,17.4791102 C16.6212595,17.3139962 17.8434356,16.4488309 18.3655076,15.419009 L20.0159827,12.1633364 C20.2278384,11.7454369 20.3330444,11.5348969 20.4407862,11.5315603 C20.5485281,11.5282236 20.6554185,11.7388156 20.8706309,12.1633364 L22.521106,15.419009 C23.0441391,16.4507268 24.2641503,17.3138259 25.4325616,17.4791102 L29.1296018,18.0020962 C30.0804598,18.1366053 30.0779554,18.1290567 29.3876226,18.7841463 L26.7170978,21.318334 C25.8712054,22.1210413 25.4041775,23.5222199 25.6038027,24.6553036 L26.2342281,28.2336341 C26.3970738,29.1579555 26.3998939,29.1559544 25.5482033,28.7200509 L22.2414699,27.0276326 C21.1968844,26.4930035 19.6900146,26.4928574 18.6451437,27.0276326 Z M20.8521666,29.8750917 L24.1586471,31.5789762 C27.2032525,33.1479122 29.7616881,31.3200469 29.1791118,27.9906526 L28.5487346,24.3880787 C28.5365346,24.3183567 28.5534016,24.1604037 28.6097123,23.9903027 C28.6661469,23.8198271 28.7473567,23.681924 28.7999007,23.6317209 L31.4702213,21.0803639 C33.9374503,18.7230508 32.9630124,15.7659049 29.5570702,15.2807965 L25.8603127,14.7542672 C25.7856713,14.743636 25.6366685,14.6787242 25.4886303,14.5732767 C25.3409363,14.4680744 25.2323758,14.3497071 25.1995627,14.2845376 L23.5492138,11.0068076 C22.0248013,7.97919773 18.8605029,7.97893303 17.335957,11.0068076 L15.6856081,14.2845376 C15.6534331,14.3484399 15.5445651,14.4670573 15.3963803,14.5726745 C15.2477516,14.6786081 15.0984353,14.7437876 15.0248582,14.7542672 L11.3281006,15.2807965 C7.92049719,15.7661415 6.94717099,18.7225258 9.4149495,21.0803639 L12.0852701,23.6317209 C12.1385857,23.6826612 12.2197018,23.8201676 12.2759498,23.9899095 C12.3321114,24.1593905 12.3488799,24.3169637 12.3364363,24.3880787 L11.7060591,27.9906526 C11.123526,31.3197998 13.6814797,33.1481382 16.7265237,31.5789762 L20.0330042,29.8750917 C20.099663,29.8407413 20.2593358,29.8073672 20.4426639,29.8073851 C20.6259505,29.8074029 20.7856168,29.8407974 20.8521666,29.8750917 L20.8521666,29.8750917 Z" id="path-16"></path>
        <filter x="-2.0%" y="-2.1%" width="104.0%" height="104.3%" filterUnits="objectBoundingBox" id="filter-17">
            <feGaussianBlur stdDeviation="0.5" in="SourceAlpha" result="shadowBlurInner1"></feGaussianBlur>
            <feOffset dx="0" dy="0" in="shadowBlurInner1" result="shadowOffsetInner1"></feOffset>
            <feComposite in="shadowOffsetInner1" in2="SourceAlpha" operator="arithmetic" k2="-1" k3="1" result="shadowInnerInner1"></feComposite>
            <feColorMatrix values="0 0 0 0 0   0 0 0 0 0   0 0 0 0 0  0 0 0 0.2 0" type="matrix" in="shadowInnerInner1"></feColorMatrix>
        </filter>
        <filter x="-56.1%" y="-56.1%" width="212.2%" height="212.2%" filterUnits="objectBoundingBox" id="filter-18">
            <feOffset dx="0" dy="3" in="SourceAlpha" result="shadowOffsetOuter1"></feOffset>
            <feGaussianBlur stdDeviation="3.5" in="shadowOffsetOuter1" result="shadowBlurOuter1"></feGaussianBlur>
            <feColorMatrix values="0 0 0 0 0   0 0 0 0 0   0 0 0 0 0  0 0 0 0.5 0" type="matrix" in="shadowBlurOuter1" result="shadowMatrixOuter1"></feColorMatrix>
            <feMerge>
                <feMergeNode in="shadowMatrixOuter1"></feMergeNode>
                <feMergeNode in="SourceGraphic"></feMergeNode>
            </feMerge>
        </filter>
        <path d="M14.2540348,-2.44781986e-13 L26.6304496,-2.44781986e-13 C30.7349111,-2.44781986e-13 32.7866309,-2.44781986e-13 34.9960965,0.698443275 C37.4082811,1.57643758 39.3080468,3.47620329 40.1860411,5.88838787 C40.8844844,8.09751284 40.8844844,10.149914 40.8844844,14.2540348 L40.8844844,26.6304496 C40.8844844,30.7349111 40.8844844,32.7866309 40.1860411,34.9960965 C39.3080468,37.4082811 37.4082811,39.3080468 34.9960965,40.1857004 C32.7866309,40.8844844 30.7349111,40.8844844 26.6304496,40.8844844 L14.2540348,40.8844844 C10.1495733,40.8844844 8.09751284,40.8844844 5.88838787,40.1857004 C3.47620329,39.3080468 1.57643758,37.4082811 0.698443275,34.9960965 C-2.30926402e-14,32.7866309 -2.30926402e-14,30.7349111 -2.30926402e-14,26.6304496 L-2.30926402e-14,14.2540348 C-2.30926402e-14,10.149914 -2.30926402e-14,8.09751284 0.698443275,5.88838787 C1.57643758,3.47620329 3.47620329,1.57643758 5.88838787,0.698443275 C8.09751284,-2.44781986e-13 10.1495733,-2.44781986e-13 14.2540348,-2.44781986e-13 L14.2540348,-2.44781986e-13" id="path-19"></path>
        <filter x="-11.0%" y="-11.0%" width="122.0%" height="122.0%" filterUnits="objectBoundingBox" id="filter-20">
            <feOffset dx="0" dy="0" in="SourceAlpha" result="shadowOffsetOuter1"></feOffset>
            <feGaussianBlur stdDeviation="1.5" in="shadowOffsetOuter1" result="shadowBlurOuter1"></feGaussianBlur>
            <feColorMatrix values="0 0 0 0 0   0 0 0 0 0   0 0 0 0 0  0 0 0 0.1 0" type="matrix" in="shadowBlurOuter1"></feColorMatrix>
        </filter>
        <path d="M18.6451437,27.0276326 L15.3384103,28.7200509 C14.4866137,29.1560087 14.4895194,29.1580714 14.6523855,28.2336341 L15.2828109,24.6553036 C15.4828033,23.5201357 15.0162787,22.1218674 14.1695158,21.318334 L11.498991,18.7841463 C10.8077808,18.1282241 10.804946,18.1367761 11.7570118,18.0020962 L15.454052,17.4791102 C16.6212595,17.3139962 17.8434356,16.4488309 18.3655076,15.419009 L20.0159827,12.1633364 C20.2278384,11.7454369 20.3330444,11.5348969 20.4407862,11.5315603 C20.5485281,11.5282236 20.6554185,11.7388156 20.8706309,12.1633364 L22.521106,15.419009 C23.0441391,16.4507268 24.2641503,17.3138259 25.4325616,17.4791102 L29.1296018,18.0020962 C30.0804598,18.1366053 30.0779554,18.1290567 29.3876226,18.7841463 L26.7170978,21.318334 C25.8712054,22.1210413 25.4041775,23.5222199 25.6038027,24.6553036 L26.2342281,28.2336341 C26.3970738,29.1579555 26.3998939,29.1559544 25.5482033,28.7200509 L22.2414699,27.0276326 C21.1968844,26.4930035 19.6900146,26.4928574 18.6451437,27.0276326 Z M20.8521666,29.8750917 L24.1586471,31.5789762 C27.2032525,33.1479122 29.7616881,31.3200469 29.1791118,27.9906526 L28.5487346,24.3880787 C28.5365346,24.3183567 28.5534016,24.1604037 28.6097123,23.9903027 C28.6661469,23.8198271 28.7473567,23.681924 28.7999007,23.6317209 L31.4702213,21.0803639 C33.9374503,18.7230508 32.9630124,15.7659049 29.5570702,15.2807965 L25.8603127,14.7542672 C25.7856713,14.743636 25.6366685,14.6787242 25.4886303,14.5732767 C25.3409363,14.4680744 25.2323758,14.3497071 25.1995627,14.2845376 L23.5492138,11.0068076 C22.0248013,7.97919773 18.8605029,7.97893303 17.335957,11.0068076 L15.6856081,14.2845376 C15.6534331,14.3484399 15.5445651,14.4670573 15.3963803,14.5726745 C15.2477516,14.6786081 15.0984353,14.7437876 15.0248582,14.7542672 L11.3281006,15.2807965 C7.92049719,15.7661415 6.94717099,18.7225258 9.4149495,21.0803639 L12.0852701,23.6317209 C12.1385857,23.6826612 12.2197018,23.8201676 12.2759498,23.9899095 C12.3321114,24.1593905 12.3488799,24.3169637 12.3364363,24.3880787 L11.7060591,27.9906526 C11.123526,31.3197998 13.6814797,33.1481382 16.7265237,31.5789762 L20.0330042,29.8750917 C20.099663,29.8407413 20.2593358,29.8073672 20.4426639,29.8073851 C20.6259505,29.8074029 20.7856168,29.8407974 20.8521666,29.8750917 L20.8521666,29.8750917 Z" id="path-21"></path>
        <filter x="-2.0%" y="-2.1%" width="104.0%" height="104.3%" filterUnits="objectBoundingBox" id="filter-22">
            <feGaussianBlur stdDeviation="0.5" in="SourceAlpha" result="shadowBlurInner1"></feGaussianBlur>
            <feOffset dx="0" dy="0" in="shadowBlurInner1" result="shadowOffsetInner1"></feOffset>
            <feComposite in="shadowOffsetInner1" in2="SourceAlpha" operator="arithmetic" k2="-1" k3="1" result="shadowInnerInner1"></feComposite>
            <feColorMatrix values="0 0 0 0 0   0 0 0 0 0   0 0 0 0 0  0 0 0 0.2 0" type="matrix" in="shadowInnerInner1"></feColorMatrix>
        </filter>
    </defs>
    <g id="Page-1" stroke="none" stroke-width="1" fill="none" fill-rule="evenodd">
        <g id="8.MAIN-UI---SMART-OVERVIEW" transform="translate(-1157.000000, -2124.000000)">
            <g id="EMPLOYEE-RATING" transform="translate(880.000000, 1844.000000)">
                <g id="EMPLOYEE" transform="translate(23.000000, 99.000000)">
                    <g id="EMPY-3" transform="translate(17.000000, 169.000000)">
                        <g id="5-STAR-EMP--" transform="translate(244.000000, 16.000000)">
                            <g id="4-STAR-EMP" transform="translate(0.000000, -0.000000)">
                                <g id="Group-2" filter="url(#filter-1)" transform="translate(93.600009, 0.000000)">
                                    <g id="Bg">
                                        <use fill="black" fill-opacity="1" filter="url(#filter-4)" xlink:href="#path-3"></use>
                                        <use fill="url(#radialGradient-2)" fill-rule="evenodd" xlink:href="#path-3"></use>
                                    </g>
                                    <g id="Star" fill-rule="nonzero">
                                        <use fill="url(#linearGradient-5)" xlink:href="#path-6"></use>
                                        <use fill="black" fill-opacity="1" filter="url(#filter-7)" xlink:href="#path-6"></use>
                                    </g>
                                </g>
                                <g id="3-STAR-EMP" transform="translate(0.000000, -0.000000)">
                                    <g id="Group-2" filter="url(#filter-8)" transform="translate(62.400006, 0.000000)">
                                        <g id="Bg">
                                            <use fill="black" fill-opacity="1" filter="url(#filter-10)" xlink:href="#path-9"></use>
                                            <use fill="url(#radialGradient-2)" fill-rule="evenodd" xlink:href="#path-9"></use>
                                        </g>
                                        <g id="Star" fill-rule="nonzero">
                                            <use fill="url(#linearGradient-5)" xlink:href="#path-11"></use>
                                            <use fill="black" fill-opacity="1" filter="url(#filter-12)" xlink:href="#path-11"></use>
                                        </g>
                                    </g>
                                    <g id="2-STAR-EMP" transform="translate(0.000000, -0.000000)">
                                        <g id="Group-2" filter="url(#filter-13)" transform="translate(31.200003, 0.000000)">
                                            <g id="Bg">
                                                <use fill="black" fill-opacity="1" filter="url(#filter-15)" xlink:href="#path-14"></use>
                                                <use fill="url(#radialGradient-2)" fill-rule="evenodd" xlink:href="#path-14"></use>
                                            </g>
                                            <g id="Star" fill-rule="nonzero">
                                                <use fill="url(#linearGradient-5)" xlink:href="#path-16"></use>
                                                <use fill="black" fill-opacity="1" filter="url(#filter-17)" xlink:href="#path-16"></use>
                                            </g>
                                        </g>
                                        <g id="1-STAR-EMP">
                                            <g id="Group-2" filter="url(#filter-18)">
                                                <g id="Bg">
                                                    <use fill="black" fill-opacity="1" filter="url(#filter-20)" xlink:href="#path-19"></use>
                                                    <use fill="url(#radialGradient-2)" fill-rule="evenodd" xlink:href="#path-19"></use>
                                                </g>
                                                <g id="Star" fill-rule="nonzero">
                                                    <use fill="url(#linearGradient-5)" xlink:href="#path-21"></use>
                                                    <use fill="black" fill-opacity="1" filter="url(#filter-22)" xlink:href="#path-21"></use>
                                                </g>
                                            </g>
                                        </g>
                                    </g>
                                </g>
                            </g>
                        </g>
                    </g>
                </g>
            </g>
        </g>
    </g>
</svg>