<?xml version="1.0" encoding="UTF-8"?>
<svg width="178px" height="56px" viewBox="0 0 178 56" version="1.1" xmlns="http://www.w3.org/2000/svg" xmlns:xlink="http://www.w3.org/1999/xlink">
    <!-- Generator: Sketch 61.2 (89653) - https://sketch.com -->
    <title>5 STAR EMP</title>
    <desc>Created with Sketch.</desc>
    <defs>
        <filter x="-46.5%" y="-45.9%" width="193.1%" height="193.3%" filterUnits="objectBoundingBox" id="filter-1">
            <feOffset dx="0" dy="3" in="SourceAlpha" result="shadowOffsetOuter1"></feOffset>
            <feGaussianBlur stdDeviation="2.5" in="shadowOffsetOuter1" result="shadowBlurOuter1"></feGaussianBlur>
            <feColorMatrix values="0 0 0 0 0   0 0 0 0 0   0 0 0 0 0  0 0 0 0.5 0" type="matrix" in="shadowBlurOuter1" result="shadowMatrixOuter1"></feColorMatrix>
            <feMerge>
                <feMergeNode in="shadowMatrixOuter1"></feMergeNode>
                <feMergeNode in="SourceGraphic"></feMergeNode>
            </feMerge>
        </filter>
        <radialGradient cx="50%" cy="50%" fx="50%" fy="50%" r="142.275843%" gradientTransform="translate(0.500000,0.500000),scale(1.000000,0.988095),rotate(134.656916),translate(-0.500000,-0.500000)" id="radialGradient-2">
            <stop stop-color="#FFFFFF" offset="0%"></stop>
            <stop stop-color="#FFFFFF" offset="100%"></stop>
        </radialGradient>
        <path d="M14.2197695,-2.47135645e-13 L26.5664326,-2.47135645e-13 C30.6610275,-2.47135645e-13 32.707815,-2.47135645e-13 34.9119694,0.705159037 C37.3183553,1.59159554 39.2135542,3.50962812 40.0894379,5.94500665 C40.7862021,8.17537309 40.7862021,10.2475087 40.7862021,14.391092 L40.7862021,26.8865102 C40.7862021,31.0304374 40.7862021,33.1018851 40.0894379,35.3325955 C39.2135542,37.767974 37.3183553,39.6860066 34.9119694,40.5720992 C32.707815,41.2776022 30.6610275,41.2776022 26.5664326,41.2776022 L14.2197695,41.2776022 C10.1251747,41.2776022 8.07804722,41.2776022 5.87423276,40.5720992 C3.46784684,39.6860066 1.57264798,37.767974 0.696764287,35.3325955 C-2.30371278e-14,33.1018851 -2.30371278e-14,31.0304374 -2.30371278e-14,26.8865102 L-2.30371278e-14,14.391092 C-2.30371278e-14,10.2475087 -2.30371278e-14,8.17537309 0.696764287,5.94500665 C1.57264798,3.50962812 3.46784684,1.59159554 5.87423276,0.705159037 C8.07804722,-2.47135645e-13 10.1251747,-2.47135645e-13 14.2197695,-2.47135645e-13 L14.2197695,-2.47135645e-13" id="path-3"></path>
        <filter x="-11.0%" y="-10.9%" width="122.1%" height="121.8%" filterUnits="objectBoundingBox" id="filter-4">
            <feOffset dx="0" dy="0" in="SourceAlpha" result="shadowOffsetOuter1"></feOffset>
            <feGaussianBlur stdDeviation="1.5" in="shadowOffsetOuter1" result="shadowBlurOuter1"></feGaussianBlur>
            <feColorMatrix values="0 0 0 0 0   0 0 0 0 0   0 0 0 0 0  0 0 0 0.1 0" type="matrix" in="shadowBlurOuter1"></feColorMatrix>
        </filter>
        <linearGradient x1="50%" y1="0%" x2="50%" y2="100%" id="linearGradient-5">
            <stop stop-color="#FF7360" offset="0%"></stop>
            <stop stop-color="#FA9765" offset="51.1639031%"></stop>
            <stop stop-color="#FFB26A" offset="100%"></stop>
        </linearGradient>
        <path d="M18.6003226,27.2875121 L15.3015383,28.9962036 C14.4517893,29.4363533 14.454688,29.4384359 14.6171626,28.5051098 L15.2460725,24.8923725 C15.4455841,23.7462896 14.980181,22.3345764 14.1354537,21.5233168 L11.4713486,18.964762 C10.7818,18.302533 10.778972,18.3111672 11.7287491,18.1751923 L15.416902,17.6471776 C16.5813036,17.4804759 17.8005418,16.6069918 18.3213588,15.5672678 L19.9678663,12.2802908 C20.1792127,11.8583732 20.2841657,11.6458088 20.3916486,11.64244 C20.4991315,11.6390713 20.605765,11.8516882 20.8204599,12.2802908 L22.4669675,15.5672678 C22.9887433,16.6089059 24.2058217,17.480304 25.3714242,17.6471776 L29.0595772,18.1751923 C30.0081494,18.3109947 30.005651,18.3033736 29.3169777,18.964762 L26.6528725,21.5233168 C25.8090136,22.3337424 25.3431084,23.7483938 25.5422537,24.8923725 L26.1711636,28.5051098 C26.3336178,29.4383189 26.3364312,29.4362985 25.4867879,28.9962036 L22.1880036,27.2875121 C21.1459292,26.7477424 19.6426818,26.747595 18.6003226,27.2875121 Z M20.8020401,30.1623505 L24.1005721,31.8826185 C27.1378586,33.4666402 29.690144,31.6211995 29.1089681,28.2597919 L28.4801062,24.6225781 C28.4679356,24.5521857 28.4847621,24.3927139 28.5409374,24.2209773 C28.5972364,24.0488626 28.6782509,23.9096335 28.7306686,23.8589476 L31.39457,21.2830585 C33.855868,18.9030791 32.8837726,15.9174993 29.486018,15.4277264 L25.798147,14.8961343 C25.7236851,14.8854009 25.5750405,14.819865 25.4273581,14.7134036 C25.2800192,14.6071897 25.1717197,14.4876842 25.1389855,14.4218881 L23.4926038,11.1126417 C21.9718558,8.05592034 18.8151641,8.05565309 17.2942831,11.1126417 L15.6479015,14.4218881 C15.6158038,14.4864049 15.5071975,14.6061628 15.3593689,14.7127956 C15.2110975,14.8197477 15.0621402,14.885554 14.9887399,14.8961343 L11.300869,15.4277264 C7.9014571,15.9177382 6.93047068,18.902549 9.39231689,21.2830585 L12.0562183,23.8589476 C12.1094057,23.9103778 12.1903268,24.0492064 12.2464397,24.2205803 C12.3024663,24.391691 12.3191945,24.5507793 12.3067807,24.6225781 L11.6779189,28.2597919 C11.0967861,31.62095 13.6485908,33.4668684 16.6863148,31.8826185 L19.9848468,30.1623505 C20.0513454,30.1276698 20.2106344,30.0939748 20.3935218,30.0939929 C20.5763677,30.0940109 20.7356502,30.1277265 20.8020401,30.1623505 L20.8020401,30.1623505 Z" id="path-6"></path>
        <filter x="-2.0%" y="-2.1%" width="104.0%" height="104.2%" filterUnits="objectBoundingBox" id="filter-7">
            <feGaussianBlur stdDeviation="0.5" in="SourceAlpha" result="shadowBlurInner1"></feGaussianBlur>
            <feOffset dx="0" dy="0" in="shadowBlurInner1" result="shadowOffsetInner1"></feOffset>
            <feComposite in="shadowOffsetInner1" in2="SourceAlpha" operator="arithmetic" k2="-1" k3="1" result="shadowInnerInner1"></feComposite>
            <feColorMatrix values="0 0 0 0 0   0 0 0 0 0   0 0 0 0 0  0 0 0 0.2 0" type="matrix" in="shadowInnerInner1"></feColorMatrix>
        </filter>
        <filter x="-56.2%" y="-55.6%" width="212.7%" height="212.6%" filterUnits="objectBoundingBox" id="filter-8">
            <feOffset dx="0" dy="3" in="SourceAlpha" result="shadowOffsetOuter1"></feOffset>
            <feGaussianBlur stdDeviation="3.5" in="shadowOffsetOuter1" result="shadowBlurOuter1"></feGaussianBlur>
            <feColorMatrix values="0 0 0 0 0   0 0 0 0 0   0 0 0 0 0  0 0 0 0.5 0" type="matrix" in="shadowBlurOuter1" result="shadowMatrixOuter1"></feColorMatrix>
            <feMerge>
                <feMergeNode in="shadowMatrixOuter1"></feMergeNode>
                <feMergeNode in="SourceGraphic"></feMergeNode>
            </feMerge>
        </filter>
        <path d="M14.2197695,-2.47135645e-13 L26.5664326,-2.47135645e-13 C30.6610275,-2.47135645e-13 32.707815,-2.47135645e-13 34.9119694,0.705159037 C37.3183553,1.59159554 39.2135542,3.50962812 40.0894379,5.94500665 C40.7862021,8.17537309 40.7862021,10.2475087 40.7862021,14.391092 L40.7862021,26.8865102 C40.7862021,31.0304374 40.7862021,33.1018851 40.0894379,35.3325955 C39.2135542,37.767974 37.3183553,39.6860066 34.9119694,40.5720992 C32.707815,41.2776022 30.6610275,41.2776022 26.5664326,41.2776022 L14.2197695,41.2776022 C10.1251747,41.2776022 8.07804722,41.2776022 5.87423276,40.5720992 C3.46784684,39.6860066 1.57264798,37.767974 0.696764287,35.3325955 C-2.30371278e-14,33.1018851 -2.30371278e-14,31.0304374 -2.30371278e-14,26.8865102 L-2.30371278e-14,14.391092 C-2.30371278e-14,10.2475087 -2.30371278e-14,8.17537309 0.696764287,5.94500665 C1.57264798,3.50962812 3.46784684,1.59159554 5.87423276,0.705159037 C8.07804722,-2.47135645e-13 10.1251747,-2.47135645e-13 14.2197695,-2.47135645e-13 L14.2197695,-2.47135645e-13" id="path-9"></path>
        <filter x="-11.0%" y="-10.9%" width="122.1%" height="121.8%" filterUnits="objectBoundingBox" id="filter-10">
            <feOffset dx="0" dy="0" in="SourceAlpha" result="shadowOffsetOuter1"></feOffset>
            <feGaussianBlur stdDeviation="1.5" in="shadowOffsetOuter1" result="shadowBlurOuter1"></feGaussianBlur>
            <feColorMatrix values="0 0 0 0 0   0 0 0 0 0   0 0 0 0 0  0 0 0 0.1 0" type="matrix" in="shadowBlurOuter1"></feColorMatrix>
        </filter>
        <path d="M18.6003226,27.2875121 L15.3015383,28.9962036 C14.4517893,29.4363533 14.454688,29.4384359 14.6171626,28.5051098 L15.2460725,24.8923725 C15.4455841,23.7462896 14.980181,22.3345764 14.1354537,21.5233168 L11.4713486,18.964762 C10.7818,18.302533 10.778972,18.3111672 11.7287491,18.1751923 L15.416902,17.6471776 C16.5813036,17.4804759 17.8005418,16.6069918 18.3213588,15.5672678 L19.9678663,12.2802908 C20.1792127,11.8583732 20.2841657,11.6458088 20.3916486,11.64244 C20.4991315,11.6390713 20.605765,11.8516882 20.8204599,12.2802908 L22.4669675,15.5672678 C22.9887433,16.6089059 24.2058217,17.480304 25.3714242,17.6471776 L29.0595772,18.1751923 C30.0081494,18.3109947 30.005651,18.3033736 29.3169777,18.964762 L26.6528725,21.5233168 C25.8090136,22.3337424 25.3431084,23.7483938 25.5422537,24.8923725 L26.1711636,28.5051098 C26.3336178,29.4383189 26.3364312,29.4362985 25.4867879,28.9962036 L22.1880036,27.2875121 C21.1459292,26.7477424 19.6426818,26.747595 18.6003226,27.2875121 Z M20.8020401,30.1623505 L24.1005721,31.8826185 C27.1378586,33.4666402 29.690144,31.6211995 29.1089681,28.2597919 L28.4801062,24.6225781 C28.4679356,24.5521857 28.4847621,24.3927139 28.5409374,24.2209773 C28.5972364,24.0488626 28.6782509,23.9096335 28.7306686,23.8589476 L31.39457,21.2830585 C33.855868,18.9030791 32.8837726,15.9174993 29.486018,15.4277264 L25.798147,14.8961343 C25.7236851,14.8854009 25.5750405,14.819865 25.4273581,14.7134036 C25.2800192,14.6071897 25.1717197,14.4876842 25.1389855,14.4218881 L23.4926038,11.1126417 C21.9718558,8.05592034 18.8151641,8.05565309 17.2942831,11.1126417 L15.6479015,14.4218881 C15.6158038,14.4864049 15.5071975,14.6061628 15.3593689,14.7127956 C15.2110975,14.8197477 15.0621402,14.885554 14.9887399,14.8961343 L11.300869,15.4277264 C7.9014571,15.9177382 6.93047068,18.902549 9.39231689,21.2830585 L12.0562183,23.8589476 C12.1094057,23.9103778 12.1903268,24.0492064 12.2464397,24.2205803 C12.3024663,24.391691 12.3191945,24.5507793 12.3067807,24.6225781 L11.6779189,28.2597919 C11.0967861,31.62095 13.6485908,33.4668684 16.6863148,31.8826185 L19.9848468,30.1623505 C20.0513454,30.1276698 20.2106344,30.0939748 20.3935218,30.0939929 C20.5763677,30.0940109 20.7356502,30.1277265 20.8020401,30.1623505 L20.8020401,30.1623505 Z" id="path-11"></path>
        <filter x="-2.0%" y="-2.1%" width="104.0%" height="104.2%" filterUnits="objectBoundingBox" id="filter-12">
            <feGaussianBlur stdDeviation="0.5" in="SourceAlpha" result="shadowBlurInner1"></feGaussianBlur>
            <feOffset dx="0" dy="0" in="shadowBlurInner1" result="shadowOffsetInner1"></feOffset>
            <feComposite in="shadowOffsetInner1" in2="SourceAlpha" operator="arithmetic" k2="-1" k3="1" result="shadowInnerInner1"></feComposite>
            <feColorMatrix values="0 0 0 0 0   0 0 0 0 0   0 0 0 0 0  0 0 0 0.2 0" type="matrix" in="shadowInnerInner1"></feColorMatrix>
        </filter>
        <filter x="-56.2%" y="-55.6%" width="212.7%" height="212.6%" filterUnits="objectBoundingBox" id="filter-13">
            <feOffset dx="0" dy="3" in="SourceAlpha" result="shadowOffsetOuter1"></feOffset>
            <feGaussianBlur stdDeviation="3.5" in="shadowOffsetOuter1" result="shadowBlurOuter1"></feGaussianBlur>
            <feColorMatrix values="0 0 0 0 0   0 0 0 0 0   0 0 0 0 0  0 0 0 0.5 0" type="matrix" in="shadowBlurOuter1" result="shadowMatrixOuter1"></feColorMatrix>
            <feMerge>
                <feMergeNode in="shadowMatrixOuter1"></feMergeNode>
                <feMergeNode in="SourceGraphic"></feMergeNode>
            </feMerge>
        </filter>
        <path d="M14.2197695,-2.47135645e-13 L26.5664326,-2.47135645e-13 C30.6610275,-2.47135645e-13 32.707815,-2.47135645e-13 34.9119694,0.705159037 C37.3183553,1.59159554 39.2135542,3.50962812 40.0894379,5.94500665 C40.7862021,8.17537309 40.7862021,10.2475087 40.7862021,14.391092 L40.7862021,26.8865102 C40.7862021,31.0304374 40.7862021,33.1018851 40.0894379,35.3325955 C39.2135542,37.767974 37.3183553,39.6860066 34.9119694,40.5720992 C32.707815,41.2776022 30.6610275,41.2776022 26.5664326,41.2776022 L14.2197695,41.2776022 C10.1251747,41.2776022 8.07804722,41.2776022 5.87423276,40.5720992 C3.46784684,39.6860066 1.57264798,37.767974 0.696764287,35.3325955 C-2.30371278e-14,33.1018851 -2.30371278e-14,31.0304374 -2.30371278e-14,26.8865102 L-2.30371278e-14,14.391092 C-2.30371278e-14,10.2475087 -2.30371278e-14,8.17537309 0.696764287,5.94500665 C1.57264798,3.50962812 3.46784684,1.59159554 5.87423276,0.705159037 C8.07804722,-2.47135645e-13 10.1251747,-2.47135645e-13 14.2197695,-2.47135645e-13 L14.2197695,-2.47135645e-13" id="path-14"></path>
        <filter x="-11.0%" y="-10.9%" width="122.1%" height="121.8%" filterUnits="objectBoundingBox" id="filter-15">
            <feOffset dx="0" dy="0" in="SourceAlpha" result="shadowOffsetOuter1"></feOffset>
            <feGaussianBlur stdDeviation="1.5" in="shadowOffsetOuter1" result="shadowBlurOuter1"></feGaussianBlur>
            <feColorMatrix values="0 0 0 0 0   0 0 0 0 0   0 0 0 0 0  0 0 0 0.1 0" type="matrix" in="shadowBlurOuter1"></feColorMatrix>
        </filter>
        <path d="M18.6003226,27.2875121 L15.3015383,28.9962036 C14.4517893,29.4363533 14.454688,29.4384359 14.6171626,28.5051098 L15.2460725,24.8923725 C15.4455841,23.7462896 14.980181,22.3345764 14.1354537,21.5233168 L11.4713486,18.964762 C10.7818,18.302533 10.778972,18.3111672 11.7287491,18.1751923 L15.416902,17.6471776 C16.5813036,17.4804759 17.8005418,16.6069918 18.3213588,15.5672678 L19.9678663,12.2802908 C20.1792127,11.8583732 20.2841657,11.6458088 20.3916486,11.64244 C20.4991315,11.6390713 20.605765,11.8516882 20.8204599,12.2802908 L22.4669675,15.5672678 C22.9887433,16.6089059 24.2058217,17.480304 25.3714242,17.6471776 L29.0595772,18.1751923 C30.0081494,18.3109947 30.005651,18.3033736 29.3169777,18.964762 L26.6528725,21.5233168 C25.8090136,22.3337424 25.3431084,23.7483938 25.5422537,24.8923725 L26.1711636,28.5051098 C26.3336178,29.4383189 26.3364312,29.4362985 25.4867879,28.9962036 L22.1880036,27.2875121 C21.1459292,26.7477424 19.6426818,26.747595 18.6003226,27.2875121 Z M20.8020401,30.1623505 L24.1005721,31.8826185 C27.1378586,33.4666402 29.690144,31.6211995 29.1089681,28.2597919 L28.4801062,24.6225781 C28.4679356,24.5521857 28.4847621,24.3927139 28.5409374,24.2209773 C28.5972364,24.0488626 28.6782509,23.9096335 28.7306686,23.8589476 L31.39457,21.2830585 C33.855868,18.9030791 32.8837726,15.9174993 29.486018,15.4277264 L25.798147,14.8961343 C25.7236851,14.8854009 25.5750405,14.819865 25.4273581,14.7134036 C25.2800192,14.6071897 25.1717197,14.4876842 25.1389855,14.4218881 L23.4926038,11.1126417 C21.9718558,8.05592034 18.8151641,8.05565309 17.2942831,11.1126417 L15.6479015,14.4218881 C15.6158038,14.4864049 15.5071975,14.6061628 15.3593689,14.7127956 C15.2110975,14.8197477 15.0621402,14.885554 14.9887399,14.8961343 L11.300869,15.4277264 C7.9014571,15.9177382 6.93047068,18.902549 9.39231689,21.2830585 L12.0562183,23.8589476 C12.1094057,23.9103778 12.1903268,24.0492064 12.2464397,24.2205803 C12.3024663,24.391691 12.3191945,24.5507793 12.3067807,24.6225781 L11.6779189,28.2597919 C11.0967861,31.62095 13.6485908,33.4668684 16.6863148,31.8826185 L19.9848468,30.1623505 C20.0513454,30.1276698 20.2106344,30.0939748 20.3935218,30.0939929 C20.5763677,30.0940109 20.7356502,30.1277265 20.8020401,30.1623505 L20.8020401,30.1623505 Z" id="path-16"></path>
        <filter x="-2.0%" y="-2.1%" width="104.0%" height="104.2%" filterUnits="objectBoundingBox" id="filter-17">
            <feGaussianBlur stdDeviation="0.5" in="SourceAlpha" result="shadowBlurInner1"></feGaussianBlur>
            <feOffset dx="0" dy="0" in="shadowBlurInner1" result="shadowOffsetInner1"></feOffset>
            <feComposite in="shadowOffsetInner1" in2="SourceAlpha" operator="arithmetic" k2="-1" k3="1" result="shadowInnerInner1"></feComposite>
            <feColorMatrix values="0 0 0 0 0   0 0 0 0 0   0 0 0 0 0  0 0 0 0.2 0" type="matrix" in="shadowInnerInner1"></feColorMatrix>
        </filter>
        <filter x="-56.2%" y="-55.6%" width="212.7%" height="212.6%" filterUnits="objectBoundingBox" id="filter-18">
            <feOffset dx="0" dy="3" in="SourceAlpha" result="shadowOffsetOuter1"></feOffset>
            <feGaussianBlur stdDeviation="3.5" in="shadowOffsetOuter1" result="shadowBlurOuter1"></feGaussianBlur>
            <feColorMatrix values="0 0 0 0 0   0 0 0 0 0   0 0 0 0 0  0 0 0 0.5 0" type="matrix" in="shadowBlurOuter1" result="shadowMatrixOuter1"></feColorMatrix>
            <feMerge>
                <feMergeNode in="shadowMatrixOuter1"></feMergeNode>
                <feMergeNode in="SourceGraphic"></feMergeNode>
            </feMerge>
        </filter>
        <path d="M14.2197695,-2.47135645e-13 L26.5664326,-2.47135645e-13 C30.6610275,-2.47135645e-13 32.707815,-2.47135645e-13 34.9119694,0.705159037 C37.3183553,1.59159554 39.2135542,3.50962812 40.0894379,5.94500665 C40.7862021,8.17537309 40.7862021,10.2475087 40.7862021,14.391092 L40.7862021,26.8865102 C40.7862021,31.0304374 40.7862021,33.1018851 40.0894379,35.3325955 C39.2135542,37.767974 37.3183553,39.6860066 34.9119694,40.5720992 C32.707815,41.2776022 30.6610275,41.2776022 26.5664326,41.2776022 L14.2197695,41.2776022 C10.1251747,41.2776022 8.07804722,41.2776022 5.87423276,40.5720992 C3.46784684,39.6860066 1.57264798,37.767974 0.696764287,35.3325955 C-2.30371278e-14,33.1018851 -2.30371278e-14,31.0304374 -2.30371278e-14,26.8865102 L-2.30371278e-14,14.391092 C-2.30371278e-14,10.2475087 -2.30371278e-14,8.17537309 0.696764287,5.94500665 C1.57264798,3.50962812 3.46784684,1.59159554 5.87423276,0.705159037 C8.07804722,-2.47135645e-13 10.1251747,-2.47135645e-13 14.2197695,-2.47135645e-13 L14.2197695,-2.47135645e-13" id="path-19"></path>
        <filter x="-11.0%" y="-10.9%" width="122.1%" height="121.8%" filterUnits="objectBoundingBox" id="filter-20">
            <feOffset dx="0" dy="0" in="SourceAlpha" result="shadowOffsetOuter1"></feOffset>
            <feGaussianBlur stdDeviation="1.5" in="shadowOffsetOuter1" result="shadowBlurOuter1"></feGaussianBlur>
            <feColorMatrix values="0 0 0 0 0   0 0 0 0 0   0 0 0 0 0  0 0 0 0.1 0" type="matrix" in="shadowBlurOuter1"></feColorMatrix>
        </filter>
        <path d="M18.6003226,27.2875121 L15.3015383,28.9962036 C14.4517893,29.4363533 14.454688,29.4384359 14.6171626,28.5051098 L15.2460725,24.8923725 C15.4455841,23.7462896 14.980181,22.3345764 14.1354537,21.5233168 L11.4713486,18.964762 C10.7818,18.302533 10.778972,18.3111672 11.7287491,18.1751923 L15.416902,17.6471776 C16.5813036,17.4804759 17.8005418,16.6069918 18.3213588,15.5672678 L19.9678663,12.2802908 C20.1792127,11.8583732 20.2841657,11.6458088 20.3916486,11.64244 C20.4991315,11.6390713 20.605765,11.8516882 20.8204599,12.2802908 L22.4669675,15.5672678 C22.9887433,16.6089059 24.2058217,17.480304 25.3714242,17.6471776 L29.0595772,18.1751923 C30.0081494,18.3109947 30.005651,18.3033736 29.3169777,18.964762 L26.6528725,21.5233168 C25.8090136,22.3337424 25.3431084,23.7483938 25.5422537,24.8923725 L26.1711636,28.5051098 C26.3336178,29.4383189 26.3364312,29.4362985 25.4867879,28.9962036 L22.1880036,27.2875121 C21.1459292,26.7477424 19.6426818,26.747595 18.6003226,27.2875121 Z M20.8020401,30.1623505 L24.1005721,31.8826185 C27.1378586,33.4666402 29.690144,31.6211995 29.1089681,28.2597919 L28.4801062,24.6225781 C28.4679356,24.5521857 28.4847621,24.3927139 28.5409374,24.2209773 C28.5972364,24.0488626 28.6782509,23.9096335 28.7306686,23.8589476 L31.39457,21.2830585 C33.855868,18.9030791 32.8837726,15.9174993 29.486018,15.4277264 L25.798147,14.8961343 C25.7236851,14.8854009 25.5750405,14.819865 25.4273581,14.7134036 C25.2800192,14.6071897 25.1717197,14.4876842 25.1389855,14.4218881 L23.4926038,11.1126417 C21.9718558,8.05592034 18.8151641,8.05565309 17.2942831,11.1126417 L15.6479015,14.4218881 C15.6158038,14.4864049 15.5071975,14.6061628 15.3593689,14.7127956 C15.2110975,14.8197477 15.0621402,14.885554 14.9887399,14.8961343 L11.300869,15.4277264 C7.9014571,15.9177382 6.93047068,18.902549 9.39231689,21.2830585 L12.0562183,23.8589476 C12.1094057,23.9103778 12.1903268,24.0492064 12.2464397,24.2205803 C12.3024663,24.391691 12.3191945,24.5507793 12.3067807,24.6225781 L11.6779189,28.2597919 C11.0967861,31.62095 13.6485908,33.4668684 16.6863148,31.8826185 L19.9848468,30.1623505 C20.0513454,30.1276698 20.2106344,30.0939748 20.3935218,30.0939929 C20.5763677,30.0940109 20.7356502,30.1277265 20.8020401,30.1623505 L20.8020401,30.1623505 Z" id="path-21"></path>
        <filter x="-2.0%" y="-2.1%" width="104.0%" height="104.2%" filterUnits="objectBoundingBox" id="filter-22">
            <feGaussianBlur stdDeviation="0.5" in="SourceAlpha" result="shadowBlurInner1"></feGaussianBlur>
            <feOffset dx="0" dy="0" in="shadowBlurInner1" result="shadowOffsetInner1"></feOffset>
            <feComposite in="shadowOffsetInner1" in2="SourceAlpha" operator="arithmetic" k2="-1" k3="1" result="shadowInnerInner1"></feComposite>
            <feColorMatrix values="0 0 0 0 0   0 0 0 0 0   0 0 0 0 0  0 0 0 0.2 0" type="matrix" in="shadowInnerInner1"></feColorMatrix>
        </filter>
        <filter x="-56.2%" y="-55.6%" width="212.7%" height="212.6%" filterUnits="objectBoundingBox" id="filter-23">
            <feOffset dx="0" dy="3" in="SourceAlpha" result="shadowOffsetOuter1"></feOffset>
            <feGaussianBlur stdDeviation="3.5" in="shadowOffsetOuter1" result="shadowBlurOuter1"></feGaussianBlur>
            <feColorMatrix values="0 0 0 0 0   0 0 0 0 0   0 0 0 0 0  0 0 0 0.5 0" type="matrix" in="shadowBlurOuter1" result="shadowMatrixOuter1"></feColorMatrix>
            <feMerge>
                <feMergeNode in="shadowMatrixOuter1"></feMergeNode>
                <feMergeNode in="SourceGraphic"></feMergeNode>
            </feMerge>
        </filter>
        <path d="M14.2197695,-2.47135645e-13 L26.5664326,-2.47135645e-13 C30.6610275,-2.47135645e-13 32.707815,-2.47135645e-13 34.9119694,0.705159037 C37.3183553,1.59159554 39.2135542,3.50962812 40.0894379,5.94500665 C40.7862021,8.17537309 40.7862021,10.2475087 40.7862021,14.391092 L40.7862021,26.8865102 C40.7862021,31.0304374 40.7862021,33.1018851 40.0894379,35.3325955 C39.2135542,37.767974 37.3183553,39.6860066 34.9119694,40.5720992 C32.707815,41.2776022 30.6610275,41.2776022 26.5664326,41.2776022 L14.2197695,41.2776022 C10.1251747,41.2776022 8.07804722,41.2776022 5.87423276,40.5720992 C3.46784684,39.6860066 1.57264798,37.767974 0.696764287,35.3325955 C-2.30371278e-14,33.1018851 -2.30371278e-14,31.0304374 -2.30371278e-14,26.8865102 L-2.30371278e-14,14.391092 C-2.30371278e-14,10.2475087 -2.30371278e-14,8.17537309 0.696764287,5.94500665 C1.57264798,3.50962812 3.46784684,1.59159554 5.87423276,0.705159037 C8.07804722,-2.47135645e-13 10.1251747,-2.47135645e-13 14.2197695,-2.47135645e-13 L14.2197695,-2.47135645e-13" id="path-24"></path>
        <filter x="-11.0%" y="-10.9%" width="122.1%" height="121.8%" filterUnits="objectBoundingBox" id="filter-25">
            <feOffset dx="0" dy="0" in="SourceAlpha" result="shadowOffsetOuter1"></feOffset>
            <feGaussianBlur stdDeviation="1.5" in="shadowOffsetOuter1" result="shadowBlurOuter1"></feGaussianBlur>
            <feColorMatrix values="0 0 0 0 0   0 0 0 0 0   0 0 0 0 0  0 0 0 0.1 0" type="matrix" in="shadowBlurOuter1"></feColorMatrix>
        </filter>
        <path d="M18.6003226,27.2875121 L15.3015383,28.9962036 C14.4517893,29.4363533 14.454688,29.4384359 14.6171626,28.5051098 L15.2460725,24.8923725 C15.4455841,23.7462896 14.980181,22.3345764 14.1354537,21.5233168 L11.4713486,18.964762 C10.7818,18.302533 10.778972,18.3111672 11.7287491,18.1751923 L15.416902,17.6471776 C16.5813036,17.4804759 17.8005418,16.6069918 18.3213588,15.5672678 L19.9678663,12.2802908 C20.1792127,11.8583732 20.2841657,11.6458088 20.3916486,11.64244 C20.4991315,11.6390713 20.605765,11.8516882 20.8204599,12.2802908 L22.4669675,15.5672678 C22.9887433,16.6089059 24.2058217,17.480304 25.3714242,17.6471776 L29.0595772,18.1751923 C30.0081494,18.3109947 30.005651,18.3033736 29.3169777,18.964762 L26.6528725,21.5233168 C25.8090136,22.3337424 25.3431084,23.7483938 25.5422537,24.8923725 L26.1711636,28.5051098 C26.3336178,29.4383189 26.3364312,29.4362985 25.4867879,28.9962036 L22.1880036,27.2875121 C21.1459292,26.7477424 19.6426818,26.747595 18.6003226,27.2875121 Z M20.8020401,30.1623505 L24.1005721,31.8826185 C27.1378586,33.4666402 29.690144,31.6211995 29.1089681,28.2597919 L28.4801062,24.6225781 C28.4679356,24.5521857 28.4847621,24.3927139 28.5409374,24.2209773 C28.5972364,24.0488626 28.6782509,23.9096335 28.7306686,23.8589476 L31.39457,21.2830585 C33.855868,18.9030791 32.8837726,15.9174993 29.486018,15.4277264 L25.798147,14.8961343 C25.7236851,14.8854009 25.5750405,14.819865 25.4273581,14.7134036 C25.2800192,14.6071897 25.1717197,14.4876842 25.1389855,14.4218881 L23.4926038,11.1126417 C21.9718558,8.05592034 18.8151641,8.05565309 17.2942831,11.1126417 L15.6479015,14.4218881 C15.6158038,14.4864049 15.5071975,14.6061628 15.3593689,14.7127956 C15.2110975,14.8197477 15.0621402,14.885554 14.9887399,14.8961343 L11.300869,15.4277264 C7.9014571,15.9177382 6.93047068,18.902549 9.39231689,21.2830585 L12.0562183,23.8589476 C12.1094057,23.9103778 12.1903268,24.0492064 12.2464397,24.2205803 C12.3024663,24.391691 12.3191945,24.5507793 12.3067807,24.6225781 L11.6779189,28.2597919 C11.0967861,31.62095 13.6485908,33.4668684 16.6863148,31.8826185 L19.9848468,30.1623505 C20.0513454,30.1276698 20.2106344,30.0939748 20.3935218,30.0939929 C20.5763677,30.0940109 20.7356502,30.1277265 20.8020401,30.1623505 L20.8020401,30.1623505 Z" id="path-26"></path>
        <filter x="-2.0%" y="-2.1%" width="104.0%" height="104.2%" filterUnits="objectBoundingBox" id="filter-27">
            <feGaussianBlur stdDeviation="0.5" in="SourceAlpha" result="shadowBlurInner1"></feGaussianBlur>
            <feOffset dx="0" dy="0" in="shadowBlurInner1" result="shadowOffsetInner1"></feOffset>
            <feComposite in="shadowOffsetInner1" in2="SourceAlpha" operator="arithmetic" k2="-1" k3="1" result="shadowInnerInner1"></feComposite>
            <feColorMatrix values="0 0 0 0 0   0 0 0 0 0   0 0 0 0 0  0 0 0 0.2 0" type="matrix" in="shadowInnerInner1"></feColorMatrix>
        </filter>
    </defs>
    <g id="Page-1" stroke="none" stroke-width="1" fill="none" fill-rule="evenodd">
        <g id="8.MAIN-UI---SMART-OVERVIEW" transform="translate(-1157.000000, -1939.000000)">
            <g id="EMPLOYEE-RATING" transform="translate(880.000000, 1844.000000)">
                <g id="EMPLOYEE" transform="translate(23.000000, 99.000000)">
                    <g id="EMPY-1">
                        <g id="5-STAR-EMP" transform="translate(261.000000, 0.000000)">
                            <g id="Group-2" filter="url(#filter-1)" transform="translate(124.500005, 0.000000)">
                                <g id="Bg">
                                    <use fill="black" fill-opacity="1" filter="url(#filter-4)" xlink:href="#path-3"></use>
                                    <use fill="url(#radialGradient-2)" fill-rule="evenodd" xlink:href="#path-3"></use>
                                </g>
                                <g id="Star" fill-rule="nonzero">
                                    <use fill="url(#linearGradient-5)" xlink:href="#path-6"></use>
                                    <use fill="black" fill-opacity="1" filter="url(#filter-7)" xlink:href="#path-6"></use>
                                </g>
                            </g>
                            <g id="4-STAR-EMP" transform="translate(0.000000, -0.000000)">
                                <g id="Group-2" filter="url(#filter-8)" transform="translate(93.375004, 0.000000)">
                                    <g id="Bg">
                                        <use fill="black" fill-opacity="1" filter="url(#filter-10)" xlink:href="#path-9"></use>
                                        <use fill="url(#radialGradient-2)" fill-rule="evenodd" xlink:href="#path-9"></use>
                                    </g>
                                    <g id="Star" fill-rule="nonzero">
                                        <use fill="url(#linearGradient-5)" xlink:href="#path-11"></use>
                                        <use fill="black" fill-opacity="1" filter="url(#filter-12)" xlink:href="#path-11"></use>
                                    </g>
                                </g>
                                <g id="3-STAR-EMP" transform="translate(0.000000, -0.000000)">
                                    <g id="Group-2" filter="url(#filter-13)" transform="translate(62.250002, 0.000000)">
                                        <g id="Bg">
                                            <use fill="black" fill-opacity="1" filter="url(#filter-15)" xlink:href="#path-14"></use>
                                            <use fill="url(#radialGradient-2)" fill-rule="evenodd" xlink:href="#path-14"></use>
                                        </g>
                                        <g id="Star" fill-rule="nonzero">
                                            <use fill="url(#linearGradient-5)" xlink:href="#path-16"></use>
                                            <use fill="black" fill-opacity="1" filter="url(#filter-17)" xlink:href="#path-16"></use>
                                        </g>
                                    </g>
                                    <g id="2-STAR-EMP" transform="translate(0.000000, -0.000000)">
                                        <g id="Group-2" filter="url(#filter-18)" transform="translate(31.125001, 0.000000)">
                                            <g id="Bg">
                                                <use fill="black" fill-opacity="1" filter="url(#filter-20)" xlink:href="#path-19"></use>
                                                <use fill="url(#radialGradient-2)" fill-rule="evenodd" xlink:href="#path-19"></use>
                                            </g>
                                            <g id="Star" fill-rule="nonzero">
                                                <use fill="url(#linearGradient-5)" xlink:href="#path-21"></use>
                                                <use fill="black" fill-opacity="1" filter="url(#filter-22)" xlink:href="#path-21"></use>
                                            </g>
                                        </g>
                                        <g id="1-STAR-EMP">
                                            <g id="Group-2" filter="url(#filter-23)">
                                                <g id="Bg">
                                                    <use fill="black" fill-opacity="1" filter="url(#filter-25)" xlink:href="#path-24"></use>
                                                    <use fill="url(#radialGradient-2)" fill-rule="evenodd" xlink:href="#path-24"></use>
                                                </g>
                                                <g id="Star" fill-rule="nonzero">
                                                    <use fill="url(#linearGradient-5)" xlink:href="#path-26"></use>
                                                    <use fill="black" fill-opacity="1" filter="url(#filter-27)" xlink:href="#path-26"></use>
                                                </g>
                                            </g>
                                        </g>
                                    </g>
                                </g>
                            </g>
                        </g>
                    </g>
                </g>
            </g>
        </g>
    </g>
</svg>