<?xml version="1.0" encoding="UTF-8"?>
<svg width="62px" height="62px" viewBox="0 0 62 62" version="1.1" xmlns="http://www.w3.org/2000/svg" xmlns:xlink="http://www.w3.org/1999/xlink">
    <!-- Generator: Sketch 61.2 (89653) - https://sketch.com -->
    <title>Icon</title>
    <desc>Created with Sketch.</desc>
    <defs>
        <path d="M21.9266667,13.5833333 C22.3450742,13.5833333 22.7032634,13.8527991 22.8510282,14.2347425 L22.8559924,14.2478434 C22.9012589,14.3698015 22.9236354,14.4986789 22.9233364,14.6273719 L22.9233364,20.875 C22.9233364,21.4502966 22.4771105,21.9166667 21.9266667,21.9166667 C21.3762229,21.9166667 20.93,21.4502966 20.93,20.875 L20.93,17.0329354 L18.0070597,19.9030527 C15.5878627,22.4327442 12.0960581,23.4883544 8.75831052,22.6990491 C5.42056294,21.9097438 2.70366563,19.3859097 1.56205967,16.0141651 C1.37843369,15.4718239 1.65023688,14.8765903 2.16914909,14.6846736 C2.68806129,14.4927568 3.25758102,14.776832 3.441207,15.3191732 C4.35449176,18.0165689 6.52800961,20.0356362 9.19820768,20.6670804 C11.8684057,21.2985246 14.6618494,20.4540365 16.6196393,18.4075504 L19.4105338,15.6666667 L15.9466667,15.6666667 C15.3962229,15.6666667 14.95,15.2002966 14.95,14.625 C14.95,14.0497034 15.3962229,13.5833333 15.9466667,13.5833333 L21.9266667,13.5833333 Z M14.1650258,0.298683716 C17.5027734,1.08798898 20.2196707,3.6118231 21.3612767,6.98356773 C21.5449027,7.5259089 21.2730995,8.12114253 20.7541873,8.31305925 C20.2352751,8.50497597 19.6657553,8.22090083 19.4821294,7.67855966 C18.5688446,4.98116395 16.3953267,2.96209666 13.7251287,2.33065244 C11.0549306,1.69920823 8.26148695,2.54369632 6.30369701,4.59018239 L3.51280251,7.33106615 L6.97666968,7.33106615 C7.52711348,7.33106615 7.97333635,7.7974362 7.97333635,8.37273281 C7.97333635,8.94802943 7.52711348,9.41439948 6.97666968,9.41439948 L0.996669684,9.41439948 C0.5782622,9.41439948 0.220072931,9.14493373 0.0723081052,8.76299034 L0.0673439713,8.74988938 C0.0220774444,8.62793131 -0.000299055094,8.49905396 0,8.37036095 L0,2.12273281 C0,1.5474362 0.446225884,1.08106615 0.996669684,1.08106615 C1.54711348,1.08106615 1.99333635,1.5474362 1.99333635,2.12273281 L1.99333635,5.96479743 L4.91627668,3.09468015 C7.33547367,0.564988566 10.8272783,-0.490621551 14.1650258,0.298683716 Z" id="path-1"></path>
    </defs>
    <g id="Page-1" stroke="none" stroke-width="1" fill="none" fill-rule="evenodd">
        <g id="8.MAIN-UI---SMART-OVERVIEW" transform="translate(-916.000000, -235.000000)">
            <g id="DEATAILS-1" transform="translate(312.000000, 193.000000)">
                <g id="ONLINE-ORDERS" transform="translate(568.000000, 0.000000)">
                    <g id="Icon" transform="translate(36.000000, 42.000000)">
                        <circle id="Oval" fill="#2A3343" cx="31" cy="31" r="31"></circle>
                        <g id="Pending" transform="translate(20.000000, 20.000000)">
                            <mask id="mask-2" fill="white">
                                <use xlink:href="#path-1"></use>
                            </mask>
                            <use id="Combined-Shape" fill="#4C84FF" transform="translate(11.461668, 11.498866) scale(-1, 1) translate(-11.461668, -11.498866) " xlink:href="#path-1"></use>
                        </g>
                    </g>
                </g>
            </g>
        </g>
    </g>
</svg>