<?xml version="1.0" encoding="UTF-8"?>
<svg width="88px" height="86px" viewBox="0 0 88 86" version="1.1" xmlns="http://www.w3.org/2000/svg" xmlns:xlink="http://www.w3.org/1999/xlink">
    <!-- Generator: Sketch 61.2 (89653) - https://sketch.com -->
    <title>5 STAR</title>
    <desc>Created with Sketch.</desc>
    <defs>
        <rect id="path-1" x="0" y="0" width="400" height="88"></rect>
        <path d="M40,60 L18.2820621,71.4177957 C17.7932175,71.6747965 17.1885903,71.48685 16.9315895,70.9980054 C16.8292504,70.8033449 16.7939358,70.5803768 16.8311126,70.3636192 L20.9788697,46.1803399 L20.9788697,46.1803399 L3.4086888,29.0536464 C3.01320522,28.6681452 3.00511291,28.0350319 3.39061413,27.6395483 C3.54412273,27.4820647 3.74526514,27.3795775 3.96290217,27.347953 L28.244295,23.8196601 L28.244295,23.8196601 L37.3097918,5.45095725 C38.0430586,3.96519627 39.8419362,3.35517928 41.3276971,4.08844616 C41.9193349,4.38043687 42.3982175,4.85931944 42.6902082,5.45095725 L51.755705,23.8196601 L51.755705,23.8196601 L76.0370978,27.347953 C76.5836427,27.4273706 76.9623241,27.9348135 76.8829065,28.4813583 C76.851282,28.6989954 76.7487948,28.9001378 76.5913112,29.0536464 L59.0211303,46.1803399 L59.0211303,46.1803399 L63.1688874,70.3636192 C63.2622484,70.9079556 62.8966606,71.4249116 62.3523241,71.5182726 C62.1355665,71.5554494 61.9125984,71.5201347 61.7179379,71.4177957 L40,60 L40,60 Z" id="path-3"></path>
        <filter x="-13.6%" y="-12.8%" width="132.2%" height="124.7%" filterUnits="objectBoundingBox" id="filter-4">
            <feOffset dx="2" dy="2" in="SourceAlpha" result="shadowOffsetOuter1"></feOffset>
            <feGaussianBlur stdDeviation="5" in="shadowOffsetOuter1" result="shadowBlurOuter1"></feGaussianBlur>
            <feColorMatrix values="0 0 0 0 0   0 0 0 0 0   0 0 0 0 0  0 0 0 0.5 0" type="matrix" in="shadowBlurOuter1"></feColorMatrix>
        </filter>
    </defs>
    <g id="Page-1" stroke="none" stroke-width="1" fill="none" fill-rule="evenodd">
        <g id="Artboard" transform="translate(-135.000000, -114.000000)">
            <g id="5-STAR" transform="translate(135.000000, 114.000000)">
                <mask id="mask-2" fill="white">
                    <use xlink:href="#path-1"></use>
                </mask>
                <g id="Background"></g>
                <g id="1ST-STAR" mask="url(#mask-2)">
                    <g transform="translate(0.000000, 3.000000)">
                        <g id="Star" stroke="none" fill="none">
                            <use fill="black" fill-opacity="1" filter="url(#filter-4)" xlink:href="#path-3"></use>
                            <use fill="#D6593C" fill-rule="evenodd" xlink:href="#path-3"></use>
                        </g>
                        <line x1="23.5" y1="28.2870946" x2="32" y2="33" id="Line" stroke="#706C6C" stroke-width="2" fill="none" stroke-linecap="round" transform="translate(27.500000, 30.500000) rotate(-12.006592) translate(-27.500000, -30.500000) "></line>
                        <line x1="47.5" y1="28.2870946" x2="56" y2="33" id="Line" stroke="#706C6C" stroke-width="2" fill="none" stroke-linecap="round" transform="translate(51.500000, 30.500000) scale(-1, 1) rotate(-12.006592) translate(-51.500000, -30.500000) "></line>
                        <rect id="Rectangle" stroke="none" fill="#706C6C" fill-rule="evenodd" transform="translate(40.137819, 45.980631) rotate(-16.000000) translate(-40.137819, -45.980631) " x="10.1378187" y="37.9806308" width="60" height="16" rx="3"></rect>
                        <text id="AARGHH!!!" stroke="none" fill="none" transform="translate(39.862181, 45.019369) rotate(-16.000000) translate(-39.862181, -45.019369) " font-family="Arciform, Arciform Sans" font-size="11" font-weight="normal" letter-spacing="0.55">
                            <tspan x="15.2441813" y="47.0193692" fill="#E0DEDE">AARGHH!!!</tspan>
                        </text>
                    </g>
                </g>
            </g>
        </g>
    </g>
</svg>