<?xml version="1.0" encoding="UTF-8"?>
<svg width="216px" height="47px" viewBox="0 0 216 47" version="1.1" xmlns="http://www.w3.org/2000/svg" xmlns:xlink="http://www.w3.org/1999/xlink">
    <!-- Generator: Sketch 61.2 (89653) - https://sketch.com -->
    <title>5 STAR</title>
    <desc>Created with Sketch.</desc>
    <defs>
        <rect id="path-1" x="0" y="0" width="216.000003" height="47.5200006"></rect>
        <path d="M21.6000003,32.4000004 L9.87231364,38.5656102 C9.60833756,38.7043906 9.2818389,38.6028995 9.14305846,38.3389234 C9.08779536,38.2338067 9.06872543,38.113404 9.08880093,37.9963549 L11.3285898,24.9373839 L11.3285898,24.9373839 L1.84069198,15.6889693 C1.62713084,15.4807986 1.622761,15.1389174 1.83093165,14.9253563 C1.9138263,14.8403151 2.0224432,14.7849721 2.1399672,14.7678948 L15.2519195,12.8626166 L15.2519195,12.8626166 L20.1472878,2.94351695 C20.5432519,2.14120602 21.5146458,1.81179683 22.3169567,2.20776095 C22.6364412,2.36543594 22.8950378,2.62403253 23.0527127,2.94351695 L27.9480811,12.8626166 L27.9480811,12.8626166 L41.0600334,14.7678948 C41.3551676,14.8107803 41.5596556,15.0847995 41.5167701,15.3799337 C41.4996928,15.4974577 41.4443498,15.6060746 41.3593086,15.6889693 L31.8714108,24.9373839 L31.8714108,24.9373839 L34.1111996,37.9963549 C34.1616146,38.2902965 33.9641972,38.5694528 33.6702555,38.6198677 C33.5532064,38.6399432 33.4328036,38.6208733 33.3276869,38.5656102 L21.6000003,32.4000004 L21.6000003,32.4000004 Z" id="path-3"></path>
        <filter x="-12.3%" y="-11.5%" width="129.3%" height="121.7%" filterUnits="objectBoundingBox" id="filter-4">
            <feOffset dx="1" dy="1" in="SourceAlpha" result="shadowOffsetOuter1"></feOffset>
            <feGaussianBlur stdDeviation="2.5" in="shadowOffsetOuter1" result="shadowBlurOuter1"></feGaussianBlur>
            <feColorMatrix values="0 0 0 0 0   0 0 0 0 0   0 0 0 0 0  0 0 0 0.5 0" type="matrix" in="shadowBlurOuter1"></feColorMatrix>
        </filter>
        <path d="M21.6000003,32.4000004 L9.87231364,38.5656102 C9.60833756,38.7043906 9.2818389,38.6028995 9.14305846,38.3389234 C9.08779536,38.2338067 9.06872543,38.113404 9.08880093,37.9963549 L11.3285898,24.9373839 L11.3285898,24.9373839 L1.84069198,15.6889693 C1.62713084,15.4807986 1.622761,15.1389174 1.83093165,14.9253563 C1.9138263,14.8403151 2.0224432,14.7849721 2.1399672,14.7678948 L15.2519195,12.8626166 L15.2519195,12.8626166 L20.1472878,2.94351695 C20.5432519,2.14120602 21.5146458,1.81179683 22.3169567,2.20776095 C22.6364412,2.36543594 22.8950378,2.62403253 23.0527127,2.94351695 L27.9480811,12.8626166 L27.9480811,12.8626166 L41.0600334,14.7678948 C41.3551676,14.8107803 41.5596556,15.0847995 41.5167701,15.3799337 C41.4996928,15.4974577 41.4443498,15.6060746 41.3593086,15.6889693 L31.8714108,24.9373839 L31.8714108,24.9373839 L34.1111996,37.9963549 C34.1616146,38.2902965 33.9641972,38.5694528 33.6702555,38.6198677 C33.5532064,38.6399432 33.4328036,38.6208733 33.3276869,38.5656102 L21.6000003,32.4000004 L21.6000003,32.4000004 Z" id="path-5"></path>
        <filter x="-12.3%" y="-11.5%" width="129.3%" height="121.7%" filterUnits="objectBoundingBox" id="filter-6">
            <feOffset dx="1" dy="1" in="SourceAlpha" result="shadowOffsetOuter1"></feOffset>
            <feGaussianBlur stdDeviation="2.5" in="shadowOffsetOuter1" result="shadowBlurOuter1"></feGaussianBlur>
            <feColorMatrix values="0 0 0 0 0   0 0 0 0 0   0 0 0 0 0  0 0 0 0.5 0" type="matrix" in="shadowBlurOuter1"></feColorMatrix>
        </filter>
        <path d="M12.4200002,18.9000003 L14.0027322,22.3820108 C14.400059,23.2561296 14.0135426,24.2868398 13.1394238,24.6841665 C12.9134875,24.7868649 12.668182,24.8400003 12.4200002,24.8400003 C11.4598168,24.8400003 10.6814343,24.0616179 10.6814343,23.1014345 C10.6814343,22.8532527 10.7345697,22.6079472 10.8372681,22.3820108 L12.4200002,18.9000003 L12.4200002,18.9000003 Z" id="path-7"></path>
        <filter x="-56.3%" y="-67.3%" width="249.6%" height="268.4%" filterUnits="objectBoundingBox" id="filter-8">
            <feOffset dx="1" dy="1" in="SourceAlpha" result="shadowOffsetOuter1"></feOffset>
            <feGaussianBlur stdDeviation="1.5" in="shadowOffsetOuter1" result="shadowBlurOuter1"></feGaussianBlur>
            <feColorMatrix values="0 0 0 0 0   0 0 0 0 0   0 0 0 0 0  0 0 0 0.5 0" type="matrix" in="shadowBlurOuter1"></feColorMatrix>
        </filter>
        <path d="M21.6000003,32.4000004 L9.87231364,38.5656102 C9.60833756,38.7043906 9.2818389,38.6028995 9.14305846,38.3389234 C9.08779536,38.2338067 9.06872543,38.113404 9.08880093,37.9963549 L11.3285898,24.9373839 L11.3285898,24.9373839 L1.84069198,15.6889693 C1.62713084,15.4807986 1.622761,15.1389174 1.83093165,14.9253563 C1.9138263,14.8403151 2.0224432,14.7849721 2.1399672,14.7678948 L15.2519195,12.8626166 L15.2519195,12.8626166 L20.1472878,2.94351695 C20.5432519,2.14120602 21.5146458,1.81179683 22.3169567,2.20776095 C22.6364412,2.36543594 22.8950378,2.62403253 23.0527127,2.94351695 L27.9480811,12.8626166 L27.9480811,12.8626166 L41.0600334,14.7678948 C41.3551676,14.8107803 41.5596556,15.0847995 41.5167701,15.3799337 C41.4996928,15.4974577 41.4443498,15.6060746 41.3593086,15.6889693 L31.8714108,24.9373839 L31.8714108,24.9373839 L34.1111996,37.9963549 C34.1616146,38.2902965 33.9641972,38.5694528 33.6702555,38.6198677 C33.5532064,38.6399432 33.4328036,38.6208733 33.3276869,38.5656102 L21.6000003,32.4000004 L21.6000003,32.4000004 Z" id="path-9"></path>
        <filter x="-12.3%" y="-11.5%" width="129.3%" height="121.7%" filterUnits="objectBoundingBox" id="filter-10">
            <feOffset dx="1" dy="1" in="SourceAlpha" result="shadowOffsetOuter1"></feOffset>
            <feGaussianBlur stdDeviation="2.5" in="shadowOffsetOuter1" result="shadowBlurOuter1"></feGaussianBlur>
            <feColorMatrix values="0 0 0 0 0   0 0 0 0 0   0 0 0 0 0  0 0 0 0.5 0" type="matrix" in="shadowBlurOuter1"></feColorMatrix>
        </filter>
        <path d="M21.6000003,34.0200005 L9.87231364,40.1856102 C9.60833756,40.3243906 9.2818389,40.2228995 9.14305846,39.9589234 C9.08779536,39.8538068 9.06872543,39.733404 9.08880093,39.6163549 L11.3285898,26.5573839 L11.3285898,26.5573839 L1.84069198,17.3089693 C1.62713084,17.1007986 1.622761,16.7589175 1.83093165,16.5453563 C1.9138263,16.4603152 2.0224432,16.4049721 2.1399672,16.3878948 L15.2519195,14.4826167 L15.2519195,14.4826167 L20.1472878,4.56351698 C20.5432519,3.76120604 21.5146458,3.43179685 22.3169567,3.82776097 C22.6364412,3.98543596 22.8950378,4.24403255 23.0527127,4.56351698 L27.9480811,14.4826167 L27.9480811,14.4826167 L41.0600334,16.3878948 C41.3551676,16.4307804 41.5596556,16.7047995 41.5167701,16.9999337 C41.4996928,17.1174577 41.4443498,17.2260746 41.3593086,17.3089693 L31.8714108,26.5573839 L31.8714108,26.5573839 L34.1111996,39.6163549 C34.1616146,39.9102966 33.9641972,40.1894528 33.6702555,40.2398677 C33.5532064,40.2599432 33.4328036,40.2408733 33.3276869,40.1856102 L21.6000003,34.0200005 L21.6000003,34.0200005 Z" id="path-11"></path>
        <filter x="-12.3%" y="-11.5%" width="129.3%" height="121.7%" filterUnits="objectBoundingBox" id="filter-12">
            <feOffset dx="1" dy="1" in="SourceAlpha" result="shadowOffsetOuter1"></feOffset>
            <feGaussianBlur stdDeviation="2.5" in="shadowOffsetOuter1" result="shadowBlurOuter1"></feGaussianBlur>
            <feColorMatrix values="0 0 0 0 0   0 0 0 0 0   0 0 0 0 0  0 0 0 0.5 0" type="matrix" in="shadowBlurOuter1"></feColorMatrix>
        </filter>
        <linearGradient x1="27.9043571%" y1="26.2535309%" x2="96.4199024%" y2="95.7011226%" id="linearGradient-13">
            <stop stop-color="#ED393B" offset="0%"></stop>
            <stop stop-color="#F29595" stop-opacity="0.91" offset="100%"></stop>
        </linearGradient>
        <path d="M5.93683889,1.62000002 C7.12645836,1.62001937 8.09214021,2.58192352 8.09680303,3.77153386 C8.09893442,4.31530544 8.10000011,4.80634244 8.10000011,5.24464485 C8.10000011,6.20152111 8.09492091,7.15330619 8.08476252,8.10000011 L3.77492085,8.10000011 L3.77400002,8.08300002 L3.62684045,8.07891566 C2.51405607,8.00914089 1.62892442,7.0889094 1.62006563,5.95676944 L1.62000002,5.81040014 C1.62000002,4.68904113 2.5290411,3.78000005 3.65040011,3.78000005 L3.77400002,3.78000002 L3.77492085,3.77492085 C3.77492085,2.58479094 4.73971177,1.62000002 5.92984168,1.62000002 L5.93683889,1.62000002 Z" id="path-14"></path>
        <filter x="-84.9%" y="-84.9%" width="300.6%" height="300.6%" filterUnits="objectBoundingBox" id="filter-16">
            <feOffset dx="1" dy="1" in="SourceAlpha" result="shadowOffsetOuter1"></feOffset>
            <feGaussianBlur stdDeviation="2" in="shadowOffsetOuter1" result="shadowBlurOuter1"></feGaussianBlur>
            <feComposite in="shadowBlurOuter1" in2="SourceAlpha" operator="out" result="shadowBlurOuter1"></feComposite>
            <feColorMatrix values="0 0 0 0 0   0 0 0 0 0   0 0 0 0 0  0 0 0 0.5 0" type="matrix" in="shadowBlurOuter1"></feColorMatrix>
        </filter>
        <path d="M1.61683883,9.72000013 C2.80645831,9.72001948 3.77214015,10.6819236 3.77680298,11.871534 C3.77893436,12.4153055 3.78000005,12.9063425 3.78000005,13.344645 C3.78000005,14.3015212 3.77492085,15.2533063 3.76476246,16.2000002 L-0.545079204,16.2000002 L-0.546000036,16.1830001 L-0.69315961,16.1789158 C-1.80594398,16.109141 -2.69107564,15.1889095 -2.69993443,14.0567696 L-2.70000004,13.9104002 C-2.70000004,12.7890412 -1.79095895,11.8800002 -0.669599948,11.8800002 L-0.546000036,11.8800001 L-0.545079204,11.874921 C-0.545079204,10.684791 0.419711715,9.72000013 1.60984163,9.72000013 L1.61683883,9.72000013 Z" id="path-17"></path>
        <filter x="-84.9%" y="-84.9%" width="300.6%" height="300.6%" filterUnits="objectBoundingBox" id="filter-19">
            <feOffset dx="1" dy="1" in="SourceAlpha" result="shadowOffsetOuter1"></feOffset>
            <feGaussianBlur stdDeviation="2" in="shadowOffsetOuter1" result="shadowBlurOuter1"></feGaussianBlur>
            <feComposite in="shadowBlurOuter1" in2="SourceAlpha" operator="out" result="shadowBlurOuter1"></feComposite>
            <feColorMatrix values="0 0 0 0 0   0 0 0 0 0   0 0 0 0 0  0 0 0 0.5 0" type="matrix" in="shadowBlurOuter1"></feColorMatrix>
        </filter>
        <path d="M21.6000003,32.4000004 L9.87231364,38.5656102 C9.60833756,38.7043906 9.2818389,38.6028995 9.14305846,38.3389234 C9.08779536,38.2338067 9.06872543,38.113404 9.08880093,37.9963549 L11.3285898,24.9373839 L11.3285898,24.9373839 L1.84069198,15.6889693 C1.62713084,15.4807986 1.622761,15.1389174 1.83093165,14.9253563 C1.9138263,14.8403151 2.0224432,14.7849721 2.1399672,14.7678948 L15.2519195,12.8626166 L15.2519195,12.8626166 L20.1472878,2.94351695 C20.5432519,2.14120602 21.5146458,1.81179683 22.3169567,2.20776095 C22.6364412,2.36543594 22.8950378,2.62403253 23.0527127,2.94351695 L27.9480811,12.8626166 L27.9480811,12.8626166 L41.0600334,14.7678948 C41.3551676,14.8107803 41.5596556,15.0847995 41.5167701,15.3799337 C41.4996928,15.4974577 41.4443498,15.6060746 41.3593086,15.6889693 L31.8714108,24.9373839 L31.8714108,24.9373839 L34.1111996,37.9963549 C34.1616146,38.2902965 33.9641972,38.5694528 33.6702555,38.6198677 C33.5532064,38.6399432 33.4328036,38.6208733 33.3276869,38.5656102 L21.6000003,32.4000004 L21.6000003,32.4000004 Z" id="path-20"></path>
        <filter x="-12.3%" y="-11.5%" width="129.3%" height="121.7%" filterUnits="objectBoundingBox" id="filter-21">
            <feOffset dx="1" dy="1" in="SourceAlpha" result="shadowOffsetOuter1"></feOffset>
            <feGaussianBlur stdDeviation="2.5" in="shadowOffsetOuter1" result="shadowBlurOuter1"></feGaussianBlur>
            <feColorMatrix values="0 0 0 0 0   0 0 0 0 0   0 0 0 0 0  0 0 0 0.5 0" type="matrix" in="shadowBlurOuter1"></feColorMatrix>
        </filter>
    </defs>
    <g id="Page-1" stroke="none" stroke-width="1" fill="none" fill-rule="evenodd">
        <g id="8.MAIN-UI---SMART-OVERVIEW" transform="translate(-594.000000, -1949.000000)">
            <g id="PRODUCT-RATING" transform="translate(312.000000, 1844.000000)">
                <g id="PRODUCTS" transform="translate(21.000000, 104.000000)">
                    <g id="ITEM-1">
                        <g id="5-STAR" transform="translate(261.000000, 1.000000)">
                            <mask id="mask-2" fill="white">
                                <use xlink:href="#path-1"></use>
                            </mask>
                            <g id="Background"></g>
                            <g id="1ST-STAR" mask="url(#mask-2)">
                                <g transform="translate(0.000000, 1.620000)">
                                    <g id="Star" stroke="none" fill="none">
                                        <use fill="black" fill-opacity="1" filter="url(#filter-4)" xlink:href="#path-3"></use>
                                        <use fill="#D6593C" fill-rule="evenodd" xlink:href="#path-3"></use>
                                    </g>
                                    <line x1="12.6900002" y1="15.2750313" x2="17.2800002" y2="17.8200002" id="Line" stroke="#706C6C" stroke-width="1.08000001" fill="none" stroke-linecap="round" transform="translate(14.850000, 16.470000) rotate(-12.006592) translate(-14.850000, -16.470000) "></line>
                                    <line x1="25.6500003" y1="15.2750313" x2="30.2400004" y2="17.8200002" id="Line" stroke="#706C6C" stroke-width="1.08000001" fill="none" stroke-linecap="round" transform="translate(27.810000, 16.470000) scale(-1, 1) rotate(-12.006592) translate(-27.810000, -16.470000) "></line>
                                    <rect id="Rectangle" stroke="none" fill="#706C6C" fill-rule="evenodd" transform="translate(21.674422, 24.829541) rotate(-16.000000) translate(-21.674422, -24.829541) " x="5.47442216" y="20.5095409" width="32.4000004" height="8.64000011" rx="1.62000002"></rect>
                                    <text id="AARGHH!!!" stroke="none" fill="none" transform="translate(21.525578, 24.310460) rotate(-16.000000) translate(-21.525578, -24.310460) " font-family="Arciform, Arciform Sans" font-size="5.94000008" font-weight="normal" letter-spacing="0.297000004">
                                        <tspan x="8.23185802" y="24.9904596" fill="#E0DEDE">AARGHH!!!</tspan>
                                    </text>
                                </g>
                            </g>
                            <g id="2ND-STAR" mask="url(#mask-2)">
                                <g transform="translate(43.200001, 1.620000)">
                                    <g id="Star" stroke="none" fill="none">
                                        <use fill="black" fill-opacity="1" filter="url(#filter-6)" xlink:href="#path-5"></use>
                                        <use fill="#F6C652" fill-rule="evenodd" xlink:href="#path-5"></use>
                                    </g>
                                    <rect id="Rectangle" stroke="none" fill="#706C6C" fill-rule="evenodd" x="16.7400002" y="19.9800003" width="9.72000013" height="5.40000007" rx="2.70000004"></rect>
                                    <path d="M13.5744431,15.7505051 C14.1459924,16.5391291 14.8897041,17.1441468 15.8055783,17.5655584 C16.7214525,17.98697 17.8173267,18.2283815 19.0932009,18.2897931" id="Path" stroke="#706C6C" stroke-width="1.08000001" fill="none" stroke-linecap="round"></path>
                                    <path d="M24.3744433,15.7505051 C24.9459925,16.5391291 25.6897042,17.1441468 26.6055784,17.5655584 C27.5214526,17.98697 28.6173269,18.2283815 29.8932011,18.2897931" id="Path" stroke="#706C6C" stroke-width="1.08000001" fill="none" stroke-linecap="round" transform="translate(27.133822, 17.020149) scale(-1, 1) translate(-27.133822, -17.020149) "></path>
                                    <g id="Rectangle" stroke="none" fill="none">
                                        <use fill="black" fill-opacity="1" filter="url(#filter-8)" xlink:href="#path-7"></use>
                                        <use fill="#528DC0" fill-rule="evenodd" xlink:href="#path-7"></use>
                                    </g>
                                </g>
                            </g>
                            <g id="3RD-STAR" mask="url(#mask-2)">
                                <g transform="translate(86.400001, 1.620000)">
                                    <g id="Star-Copy" stroke="none" fill="none">
                                        <use fill="black" fill-opacity="1" filter="url(#filter-10)" xlink:href="#path-9"></use>
                                        <use fill="#F6C652" fill-rule="evenodd" xlink:href="#path-9"></use>
                                    </g>
                                    <ellipse id="Oval" stroke="none" fill="#706C6C" fill-rule="evenodd" cx="21.3300003" cy="21.8700003" rx="2.43000003" ry="1.89000003"></ellipse>
                                    <line x1="12.6900002" y1="15.2750313" x2="17.2800002" y2="17.8200002" id="Line" stroke="#706C6C" stroke-width="1.08000001" fill="none" stroke-linecap="round" transform="translate(14.850000, 16.470000) rotate(-12.006592) translate(-14.850000, -16.470000) "></line>
                                    <line x1="25.6500003" y1="15.2750313" x2="30.2400004" y2="17.8200002" id="Line" stroke="#706C6C" stroke-width="1.08000001" fill="none" stroke-linecap="round" transform="translate(27.810000, 16.470000) scale(-1, 1) rotate(-12.006592) translate(-27.810000, -16.470000) "></line>
                                </g>
                            </g>
                            <g id="5TH-STAR" mask="url(#mask-2)">
                                <g transform="translate(172.800002, 0.000000)">
                                    <g id="Star-Copy-3" stroke="none" fill="none">
                                        <use fill="black" fill-opacity="1" filter="url(#filter-12)" xlink:href="#path-11"></use>
                                        <use fill="#F6C652" fill-rule="evenodd" xlink:href="#path-11"></use>
                                    </g>
                                    <circle id="Oval" stroke="none" fill="#706C6C" fill-rule="evenodd" cx="16.4700002" cy="20.2500003" r="1.35000002"></circle>
                                    <circle id="Oval" stroke="none" fill="#706C6C" fill-rule="evenodd" cx="26.7300004" cy="20.2500003" r="1.35000002"></circle>
                                    <path d="M21.6000003,24.9067329 C23.0400003,24.7058634 23.7600003,24.9205119 23.7600003,25.5506785 C23.7600003,26.180845 23.2362217,26.5521328 22.1886646,26.6645417 C22.7295466,27.1117355 22.9999876,27.5678184 22.9999876,28.0327904 C22.9999876,28.4977623 22.5333251,28.4977623 21.6000003,28.0327904" id="Path-2" stroke="#706C6C" stroke-width="0.540000007" fill="none" stroke-linecap="round" stroke-linejoin="round"></path>
                                    <g id="HEART-ICON" stroke="none" stroke-width="1" fill="none" fill-rule="evenodd" transform="translate(7.560000, 0.000000)">
                                        <mask id="mask-15" fill="white">
                                            <use xlink:href="#path-14"></use>
                                        </mask>
                                        <g id="SHAPE-1" transform="translate(4.860000, 4.860000) rotate(29.000000) translate(-4.860000, -4.860000) ">
                                            <use fill="black" fill-opacity="1" filter="url(#filter-16)" xlink:href="#path-14"></use>
                                            <use fill="url(#linearGradient-13)" fill-rule="evenodd" xlink:href="#path-14"></use>
                                        </g>
                                        <mask id="mask-18" fill="white">
                                            <use xlink:href="#path-17"></use>
                                        </mask>
                                        <g id="SHAPE-1" transform="translate(0.540000, 12.960000) rotate(24.000000) translate(-0.540000, -12.960000) ">
                                            <use fill="black" fill-opacity="1" filter="url(#filter-19)" xlink:href="#path-17"></use>
                                            <use fill="url(#linearGradient-13)" fill-rule="evenodd" xlink:href="#path-17"></use>
                                        </g>
                                    </g>
                                </g>
                            </g>
                            <g id="4TH-STAR" mask="url(#mask-2)">
                                <g transform="translate(129.600002, 1.620000)">
                                    <g id="Star-Copy-2" stroke="none" fill="none">
                                        <use fill="black" fill-opacity="1" filter="url(#filter-21)" xlink:href="#path-20"></use>
                                        <use fill="#F6C652" fill-rule="evenodd" xlink:href="#path-20"></use>
                                    </g>
                                    <circle id="Oval" stroke="none" fill="#706C6C" fill-rule="evenodd" cx="16.2000002" cy="19.4400003" r="2.16000003"></circle>
                                    <circle id="Oval" stroke="none" fill="#706C6C" fill-rule="evenodd" cx="27.0000004" cy="19.4400003" r="2.16000003"></circle>
                                    <g id="TEETH" stroke="none" stroke-width="1" fill="none" fill-rule="evenodd" transform="translate(16.200000, 23.760000)">
                                        <path d="M0,0 L10.8000001,0 L10.8000001,1.08000001 C10.8000001,4.0623377 8.38233776,6.48000009 5.40000007,6.48000009 C2.41766238,6.48000009 -5.22947389e-16,4.0623377 0,1.08000001 L0,0 L0,0 Z" id="Rectangle" fill="#706C6C"></path>
                                        <path d="M2.16000003,0 L8.64000011,0 C8.64000011,1.19293508 7.67293516,2.16000003 6.48000009,2.16000003 L4.32000006,2.16000003 C3.12706498,2.16000003 2.16000003,1.19293508 2.16000003,0 L2.16000003,0 L2.16000003,0 Z" id="Rectangle" fill="#D8D8D8"></path>
                                    </g>
                                    <text id="YUM" stroke="#706C6C" stroke-width="1.08000001" fill="none" transform="translate(34.415874, 7.353642) rotate(-9.000000) translate(-34.415874, -7.353642) " font-family="Arciform, Arciform Sans" font-size="4.32000006" font-weight="normal" letter-spacing="0.540000007">
                                        <tspan x="29.6595543" y="8.8536418" fill="#706C6C">YUM</tspan>
                                    </text>
                                    <text id="SUPER-MACHA" stroke="#706C6C" stroke-width="1.08000001" fill="none" font-family="Arciform, Arciform Sans" font-size="4.32000006" font-weight="normal" letter-spacing="0.216000003">
                                        <tspan x="2.37600003" y="44.5000005" fill="#706C6C">SUPER MACHA</tspan>
                                    </text>
                                </g>
                            </g>
                        </g>
                    </g>
                </g>
            </g>
        </g>
    </g>
</svg>