<?xml version="1.0" encoding="UTF-8"?>
<svg width="62px" height="62px" viewBox="0 0 62 62" version="1.1" xmlns="http://www.w3.org/2000/svg" xmlns:xlink="http://www.w3.org/1999/xlink">
    <!-- Generator: Sketch 61.2 (89653) - https://sketch.com -->
    <title>Icon</title>
    <desc>Created with Sketch.</desc>
    <g id="Page-1" stroke="none" stroke-width="1" fill="none" fill-rule="evenodd">
        <g id="8.MAIN-UI---SMART-OVERVIEW" transform="translate(-622.000000, -235.000000)">
            <g id="DEATAILS-1" transform="translate(312.000000, 193.000000)">
                <g id="TOTAL-SALES" transform="translate(284.000000, 0.000000)">
                    <g id="Icon" transform="translate(26.000000, 42.000000)">
                        <circle id="Oval" fill="#2A3343" cx="31" cy="31" r="31"></circle>
                        <g id="Sales-icon" transform="translate(19.000000, 18.000000)" fill="#4AD991">
                            <path d="M20.7739535,10.5209302 L21.0530233,10.5209302 C22.594283,10.6044151 23.9061928,9.31853529 23.9832558,7.64883721 C24.0603188,5.97913913 22.8733528,4.55790351 21.332093,4.4744186 L21.0530233,4.4744186 L21.0530233,4.4744186 C19.995985,4.4744186 19.0296693,5.12140253 18.5569474,6.14563332 C18.0842255,7.1698641 18.1862421,8.39552804 18.8204651,9.31162791 L15.1869767,14.8865116 C15.0056224,14.821596 14.8185955,14.7770212 14.6288372,14.7534884 L14.3497674,14.7534884 L14.3497674,14.7534884 C13.7459436,14.7534884 13.1584079,14.965654 12.6753488,15.3581395 L9.2427907,12.7037209 C9.40507015,11.8655881 9.23162681,10.9922176 8.76554048,10.300537 C8.29945416,9.60885639 7.58445689,9.16376478 6.79813953,9.07581395 L6.51906977,9.07581395 L6.51906977,9.07581395 C5.53880047,9.07751082 4.63123067,9.63626747 4.12823119,10.5477635 C3.62523172,11.4592595 3.60056686,12.5898251 4.06325581,13.5260465 L2.07069767,16.12 L2.07069767,1.45116279 C2.07069767,0.950253366 1.6958663,0.544186047 1.23348837,0.544186047 C0.771110442,0.544186047 0.39627907,0.950253366 0.39627907,1.45116279 L0.39627907,24.7302326 C0.396274114,24.971829 0.485245595,25.2034432 0.643462018,25.3737092 C0.801678442,25.5439753 1.01606258,25.6388199 1.23906977,25.6372093 L22.7274419,25.6372093 C23.1898198,25.6372093 23.5646512,25.231142 23.5646512,24.7302326 C23.5646512,24.2293231 23.1898198,23.8232558 22.7274419,23.8232558 L2.07627907,23.8232558 L2.07627907,18.9497674 L5.2744186,14.7897674 C5.57942949,14.9586233 5.91052888,15.0652058 6.25116279,15.104186 L6.53023256,15.104186 C7.23642955,15.1047178 7.91655222,14.8151837 8.43348837,14.2939535 L11.704186,16.8274419 C11.6423677,17.0236896 11.5993505,17.2263067 11.575814,17.432093 C11.4866949,18.2396414 11.7016709,19.05203 12.1721883,19.6857757 C12.6427058,20.3195214 13.3290764,20.7211676 14.0762791,20.8 L14.3553488,20.8 C15.4123871,20.8 16.3787028,20.1530161 16.8514247,19.1287853 C17.3241466,18.1045545 17.22213,16.8788906 16.587907,15.9627907 L20.2213953,10.387907 C20.4009437,10.4524216 20.5860818,10.4969919 20.7739535,10.5209302 L20.7739535,10.5209302 Z M6.53023256,13.3204651 L6.41860465,13.3204651 C6.01979655,13.298863 5.66192075,13.0484101 5.4797856,12.6634496 C5.29765044,12.2784891 5.3189266,11.8175057 5.53559955,11.4541473 C5.7522725,11.0907889 6.13142446,10.8802584 6.53023256,10.9018605 L6.64186047,10.9018605 C7.25836437,10.9352544 7.73315078,11.5037487 7.70232558,12.1716279 C7.67150039,12.8395071 7.14673646,13.3538591 6.53023256,13.3204651 L6.53023256,13.3204651 Z M21.0418605,6.30046512 L21.1534884,6.30046512 C21.7699923,6.33385908 22.2447787,6.90235333 22.2139535,7.57023256 C22.1831283,8.23811179 21.6583644,8.75246373 21.0418605,8.71906977 L20.9302326,8.71906977 C20.3137287,8.68567581 19.8389422,8.11718156 19.8697674,7.44930233 C19.9005926,6.78142309 20.4253566,6.26707115 21.0418605,6.30046512 L21.0418605,6.30046512 Z M14.344186,18.9981395 L14.2325581,18.9981395 C13.6160544,18.9647454 13.1412681,18.3962512 13.1720933,17.7283721 C13.2029185,17.060493 13.7276823,16.5461411 14.344186,16.5795349 L14.455814,16.5795349 C15.0723177,16.612929 15.547104,17.1814232 15.5162788,17.8493023 C15.4854536,18.5171814 14.9606898,19.0315333 14.344186,18.9981395 Z" id="Shape"></path>
                        </g>
                    </g>
                </g>
            </g>
        </g>
    </g>
</svg>