<?xml version="1.0" encoding="UTF-8"?>
<svg width="62px" height="62px" viewBox="0 0 62 62" version="1.1" xmlns="http://www.w3.org/2000/svg" xmlns:xlink="http://www.w3.org/1999/xlink">
    <!-- Generator: Sketch 61.2 (89653) - https://sketch.com -->
    <title>Icon</title>
    <desc>Created with Sketch.</desc>
    <defs>
        <path d="M13.4564428,0.339525651 L22.1837154,4.67285891 C23.2958825,5.22167017 23.99942,6.34832495 24.0000792,7.58218377 L24.0000792,17.9069253 C23.99942,19.1402093 23.2958825,20.266864 22.1861304,20.8144799 L13.4591701,25.147658 C12.5372953,25.605761 11.451954,25.605761 10.5303916,25.1478132 L1.80010562,20.8129779 C0.689002285,20.257015 -0.00855292925,19.1234877 0,17.8955171 L0,7.58160891 C0.00073836218,6.34832495 0.704275883,5.22167017 1.81402801,4.67405431 L5.97963801,2.60417411 C6.03462378,2.57111938 6.09233609,2.54301553 6.1520197,2.52011256 L10.5437156,0.339525651 C11.4611144,-0.113175217 12.539044,-0.113175217 13.4564428,0.339525651 Z M2.181,7.991 L2.18184441,17.9030563 C2.17898478,18.3148929 2.41150319,18.6927353 2.77885767,18.8765543 L10.909,22.914 L10.909,12.325 L2.181,7.991 Z M21.818,7.991 L13.09,12.325 L13.09,22.908 L21.2128066,18.8753589 C21.583529,18.6924218 21.8180415,18.3168702 21.8182612,17.9063504 L21.818,7.991 Z M6.55,4.744 L3.535,6.241 L12.0000792,10.4443136 L15.015,8.947 L6.55,4.744 Z M11.5170395,2.27864656 L8.99,3.533 L17.454,7.736 L20.465,6.241 L12.4845322,2.2793483 C12.1789498,2.12894177 11.8200931,2.129105 11.5170395,2.27864656 Z" id="path-1"></path>
    </defs>
    <g id="Page-1" stroke="none" stroke-width="1" fill="none" fill-rule="evenodd">
        <g id="8.MAIN-UI---SMART-OVERVIEW" transform="translate(-357.000000, -235.000000)">
            <g id="DEATAILS-1" transform="translate(312.000000, 193.000000)">
                <g id="TOTAL-ORDERS">
                    <g id="Icon" transform="translate(45.000000, 42.000000)">
                        <circle id="Oval" fill="#2A3343" cx="31" cy="31" r="31"></circle>
                        <g id="Order" transform="translate(19.000000, 18.000000)">
                            <mask id="mask-2" fill="white">
                                <use xlink:href="#path-1"></use>
                            </mask>
                            <use id="Combined-Shape" fill="#8280FF" fill-rule="nonzero" xlink:href="#path-1"></use>
                        </g>
                    </g>
                </g>
            </g>
        </g>
    </g>
</svg>