<?xml version="1.0" encoding="UTF-8"?>
<svg width="46px" height="46px" viewBox="0 0 46 46" version="1.1" xmlns="http://www.w3.org/2000/svg" xmlns:xlink="http://www.w3.org/1999/xlink">
    <!-- Generator: Sketch 61.2 (89653) - https://sketch.com -->
    <title>Clock</title>
    <desc>Created with Sketch.</desc>
    <defs>
        <filter x="-31.6%" y="-31.6%" width="163.2%" height="163.2%" filterUnits="objectBoundingBox" id="filter-1">
            <feOffset dx="2" dy="2" in="SourceAlpha" result="shadowOffsetOuter1"></feOffset>
            <feGaussianBlur stdDeviation="2" in="shadowOffsetOuter1" result="shadowBlurOuter1"></feGaussianBlur>
            <feColorMatrix values="0 0 0 0 0   0 0 0 0 0   0 0 0 0 0  0 0 0 0.5 0" type="matrix" in="shadowBlurOuter1" result="shadowMatrixOuter1"></feColorMatrix>
            <feMerge>
                <feMergeNode in="shadowMatrixOuter1"></feMergeNode>
                <feMergeNode in="SourceGraphic"></feMergeNode>
            </feMerge>
        </filter>
    </defs>
    <g id="Page-1" stroke="none" stroke-width="1" fill="none" fill-rule="evenodd">
        <g id="8.MAIN-UI---SMART-OVERVIEW" transform="translate(-310.000000, -20.000000)" fill-rule="nonzero">
            <g id="TOP-BAR" transform="translate(272.000000, 0.000000)">
                <g id="TIME" transform="translate(40.000000, 18.000000)">
                    <g id="Clock" filter="url(#filter-1)" transform="translate(0.000000, 4.000000)">
                        <circle id="Oval" fill="#039BE5" cx="19" cy="19" r="19"></circle>
                        <circle id="Oval" fill="#FFFFFF" cx="19" cy="19" r="15"></circle>
                        <path d="M20,19 L18,19 L18,9.92 C18,9.36771525 18.4477153,8.92 19,8.92 L19,8.92 C19.5522847,8.92 20,9.36771525 20,9.92 L20,19 Z" id="Path" fill="#37474F"></path>
                        <path d="M18.29,18.29 L19.71,19.71 L14.71,24.71 C14.5222334,24.8993127 14.2666375,25.0057983 14,25.0057983 C13.7333625,25.0057983 13.4777666,24.8993127 13.29,24.71 L13.29,24.71 C13.1006873,24.5222334 12.9942017,24.2666375 12.9942017,24 C12.9942017,23.7333625 13.1006873,23.4777666 13.29,23.29 L18.29,18.29 Z" id="Path" fill="#37474F"></path>
                        <circle id="Oval" fill="#37474F" cx="19" cy="19" r="2"></circle>
                        <circle id="Oval" fill="#039BE5" cx="19" cy="19" r="1"></circle>
                        <circle id="Oval" fill="#37474F" cx="19" cy="7" r="1"></circle>
                        <circle id="Oval" fill="#37474F" cx="19" cy="31" r="1"></circle>
                        <circle id="Oval" fill="#37474F" cx="31" cy="19" r="1"></circle>
                        <circle id="Oval" fill="#37474F" cx="7" cy="19" r="1"></circle>
                        <circle id="Oval" fill="#35495D" cx="8.61" cy="13" r="1"></circle>
                        <circle id="Oval" fill="#35495D" cx="29.39" cy="25" r="1"></circle>
                        <circle id="Oval" fill="#35495D" cx="25" cy="8.61" r="1"></circle>
                        <circle id="Oval" fill="#35495D" cx="13" cy="29.39" r="1"></circle>
                        <circle id="Oval" fill="#35495D" cx="8.61" cy="25" r="1"></circle>
                        <circle id="Oval" fill="#35495D" cx="29.39" cy="13" r="1"></circle>
                        <circle id="Oval" fill="#35495D" cx="13" cy="8.61" r="1"></circle>
                        <circle id="Oval" fill="#35495D" cx="25" cy="29.39" r="1"></circle>
                    </g>
                </g>
            </g>
        </g>
    </g>
</svg>