<?xml version="1.0" encoding="UTF-8"?>
<svg width="15px" height="52px" viewBox="0 0 15 52" version="1.1" xmlns="http://www.w3.org/2000/svg" xmlns:xlink="http://www.w3.org/1999/xlink">
    <!-- Generator: Sketch 62 (91390) - https://sketch.com -->
    <title>barbecue</title>
    <desc>Created with Sketch.</desc>
    <g id="Page-1" stroke="none" stroke-width="1" fill="none" fill-rule="evenodd">
        <g id="16.3-MAIN-UI---ALL-ITEM-(-ADD)-Copy-2" transform="translate(-1138.000000, -1087.000000)">
            <g id="CREATE-ITEM" transform="translate(327.000000, 413.000000)">
                <g id="NOTIFICATION-BAR" transform="translate(66.000000, 545.000000)">
                    <g id="SET-1" transform="translate(23.000000, 34.000000)">
                        <g id="barbecue" transform="translate(722.000000, 95.000000)">
                            <g>
                                <path d="M12.1020002,27.5852004 L2.69790004,27.5852004 C1.68800003,27.5852004 0.869300013,26.7665004 0.869300013,25.7566004 L0.869300013,25.7566004 C0.869300013,24.7467004 1.68800003,23.9280004 2.69790004,23.9280004 L12.1020002,23.9280004 C13.1119002,23.9280004 13.9306002,24.7467004 13.9306002,25.7566004 L13.9306002,25.7566004 C13.9305002,26.7666004 13.1119002,27.5852004 12.1020002,27.5852004 Z" id="Shape" fill="#3FC378" fill-rule="nonzero"></path>
                                <path d="M12.3451002,23.9461004 C12.3558002,24.0259004 12.3632002,24.1067004 12.3632002,24.1894004 L12.3632002,24.1894004 C12.3632002,25.1993004 11.5445002,26.0180004 10.5346002,26.0180004 L1.13050002,26.0180004 C1.04780002,26.0180004 0.967100014,26.0106004 0.887400013,26.0000004 C1.00660001,26.8946004 1.77080003,27.5853004 2.69790004,27.5853004 L12.1020002,27.5853004 C13.1119002,27.5853004 13.9306002,26.7666004 13.9306002,25.7567004 L13.9306002,25.7567004 C13.9305002,24.8294004 13.2398002,24.0654004 12.3451002,23.9461004 Z" id="Shape" fill="#2B8C4A" fill-rule="nonzero"></path>
                                <path d="M9.22850014,38.5567006 L5.57140008,38.5567006 C4.41720007,38.5567006 3.48160005,37.6211006 3.48160005,36.4669005 L3.48160005,32.8098005 C3.48160005,31.6556005 4.41720007,30.7200005 5.57140008,30.7200005 L9.22850014,30.7200005 C10.3827002,30.7200005 11.3183002,31.6556005 11.3183002,32.8098005 L11.3183002,36.4669005 C11.3183002,37.6211006 10.3826002,38.5567006 9.22850014,38.5567006 Z" id="Shape" fill="#FF505D" fill-rule="nonzero"></path>
                                <path d="M9.22850014,30.7199005 L9.22850014,34.3770005 C9.22850014,35.5312005 8.29290012,36.4668005 7.13870011,36.4668005 L3.48160005,36.4668005 C3.48160005,37.6210006 4.41720007,38.5566006 5.57140008,38.5566006 L9.22850014,38.5566006 C10.3827002,38.5566006 11.3183002,37.6210006 11.3183002,36.4668005 L11.3183002,32.8097005 C11.3183002,31.6555005 10.3826002,30.7199005 9.22850014,30.7199005 Z" id="Shape" fill="#E21220" fill-rule="nonzero"></path>
                                <path d="M9.22850014,20.7934003 L5.57140008,20.7934003 C4.41720007,20.7934003 3.48160005,19.8578003 3.48160005,18.7036003 L3.48160005,15.0465002 C3.48160005,13.8923002 4.41720007,12.9567002 5.57140008,12.9567002 L9.22850014,12.9567002 C10.3827002,12.9567002 11.3183002,13.8923002 11.3183002,15.0465002 L11.3183002,18.7036003 C11.3183002,19.8578003 10.3826002,20.7934003 9.22850014,20.7934003 Z" id="Shape" fill="#FF505D" fill-rule="nonzero"></path>
                                <path d="M9.22850014,12.9567002 L9.22850014,16.6138002 C9.22850014,17.7680003 8.29290012,18.7036003 7.13870011,18.7036003 L3.48160005,18.7036003 C3.48160005,19.8578003 4.41720007,20.7934003 5.57140008,20.7934003 L9.22850014,20.7934003 C10.3827002,20.7934003 11.3183002,19.8578003 11.3183002,18.7036003 L11.3183002,15.0465002 C11.3183002,13.8923002 10.3826002,12.9567002 9.22850014,12.9567002 Z" id="Shape" fill="#E21220" fill-rule="nonzero"></path>
                                <path d="M12.1020002,9.82200015 L2.69790004,9.82200015 C1.68800003,9.82200015 0.869300013,9.00330013 0.869300013,7.99340012 L0.869300013,7.99340012 C0.869300013,6.9835001 1.68800003,6.16480009 2.69790004,6.16480009 L12.1020002,6.16480009 C13.1119002,6.16480009 13.9306002,6.9835001 13.9306002,7.99340012 L13.9306002,7.99340012 C13.9305002,9.00330013 13.1119002,9.82200015 12.1020002,9.82200015 Z" id="Shape" fill="#3FC378" fill-rule="nonzero"></path>
                                <path d="M12.3451002,6.18290009 C12.3558002,6.26270009 12.3632002,6.34350009 12.3632002,6.4262001 L12.3632002,6.4262001 C12.3632002,7.43610011 11.5445002,8.25480012 10.5346002,8.25480012 L1.13050002,8.25480012 C1.04780002,8.25480012 0.967100014,8.24740012 0.887400013,8.23680012 C1.00650001,9.13130014 1.77060003,9.82210015 2.69790004,9.82210015 L12.1020002,9.82210015 C13.1119002,9.82210015 13.9306002,9.00340013 13.9306002,7.99350012 L13.9306002,7.99350012 C13.9305002,7.06620011 13.2398002,6.30210009 12.3451002,6.18290009 Z" id="Shape" fill="#2B8C4A" fill-rule="nonzero"></path>
                                <circle id="Oval" fill="#FFFFFF" fill-rule="nonzero" cx="7.39980011" cy="2.08980003" r="1.30610002"></circle>
                                <path d="M12.1020002,23.1444003 L8.18360012,23.1444003 L8.18360012,21.5771003 L9.22850014,21.5771003 C10.8129002,21.5771003 12.1020002,20.2881003 12.1020002,18.7036003 L12.1020002,15.0465002 C12.1020002,13.4620002 10.8129002,12.1730002 9.22850014,12.1730002 L8.18360012,12.1730002 L8.18360012,10.6057002 L12.1020002,10.6057002 C13.5424002,10.6057002 14.7142002,9.43380014 14.7142002,7.99350012 C14.7142002,6.5532001 13.5423002,5.38130008 12.1020002,5.38130008 L8.18360012,5.38130008 L8.18360012,4.02570006 C8.94850013,3.71490006 9.48970014,2.96490004 9.48970014,2.08980003 C9.48970014,0.937500014 8.55230013,0 7.39990011,0 C6.24760009,0 5.31010008,0.937500014 5.31010008,2.08980003 C5.31010008,2.96490004 5.85140009,3.71490006 6.6162001,4.02570006 L6.6162001,5.38120008 L2.69780004,5.38120008 C1.25740002,5.38120008 0.0856000013,6.5531001 0.0856000013,7.99340012 C0.0856000013,9.43370014 1.25740002,10.6056002 2.69780004,10.6056002 L5.31000008,10.6056002 L5.31000008,9.03830013 L2.69780004,9.03830013 C2.12160003,9.03830013 1.65290002,8.56960013 1.65290002,7.99340012 C1.65290002,7.41720011 2.12160003,6.9485001 2.69780004,6.9485001 L12.1019002,6.9485001 C12.6781002,6.9485001 13.1468002,7.41720011 13.1468002,7.99340012 C13.1468002,8.56960013 12.6781002,9.03830013 12.1019002,9.03830013 L6.6162001,9.03830013 L6.6162001,12.1730002 L5.57130008,12.1730002 C3.98680006,12.1730002 2.69780004,13.4620002 2.69780004,15.0465002 L2.69780004,18.7036003 C2.69780004,20.2881003 3.98680006,21.5771003 5.57130008,21.5771003 L6.6162001,21.5771003 L6.6162001,23.1444003 L2.69780004,23.1444003 C1.25740002,23.1444003 0.0856000013,24.3163004 0.0856000013,25.7566004 C0.0856000013,27.1970004 1.25740002,28.3688004 2.69780004,28.3688004 L5.31000008,28.3688004 L5.31000008,26.8015004 L2.69780004,26.8015004 C2.12160003,26.8015004 1.65290002,26.3328004 1.65290002,25.7566004 C1.65290002,25.1804004 2.12160003,24.7117004 2.69780004,24.7117004 L12.1019002,24.7117004 C12.6781002,24.7117004 13.1468002,25.1804004 13.1468002,25.7566004 C13.1468002,26.3328004 12.6781002,26.8015004 12.1019002,26.8015004 L6.6162001,26.8015004 L6.6162001,29.9362004 L5.57130008,29.9362004 C3.98680006,29.9362004 2.69780004,31.2252005 2.69780004,32.8097005 L2.69780004,36.4668005 C2.69780004,38.0513006 3.98680006,39.3403006 5.57130008,39.3403006 L6.6162001,39.3403006 L6.6162001,43.0000006 C6.6162001,43.4803006 7.0073001,43.8782007 7.48040011,43.8868007 C8.26940012,43.9088007 8.99680013,44.2436007 9.52840014,44.8294007 C10.0587001,45.4137007 10.3206002,46.1721007 10.2659002,46.9647007 C10.1681002,48.3838007 9.02430013,49.5275007 7.60530011,49.6253007 C6.7967001,49.6813007 6.02800009,49.4093007 5.43970008,48.8601007 C4.85090007,48.3105007 4.52660007,47.5644007 4.52660007,46.7594007 L2.95930004,46.7594007 C2.95930004,47.9856007 3.47360005,49.1688007 4.37020007,50.0058007 C5.20190008,50.7822008 6.26590009,51.2000008 7.39500011,51.2000008 C7.50050011,51.2000008 7.60660011,51.1963008 7.71310011,51.1890008 C9.90850015,51.0376008 11.6782002,49.2680007 11.8296002,47.0725007 C11.9140002,45.8501007 11.5090002,44.6794007 10.6891002,43.7760007 C10.0194001,43.0380006 9.14820014,42.5580006 8.18380012,42.3873006 L8.18380012,39.3403006 L9.22870014,39.3403006 C10.8131002,39.3403006 12.1022002,38.0513006 12.1022002,36.4668005 L12.1022002,32.8097005 C12.1022002,31.2252005 10.8131002,29.9362004 9.22870014,29.9362004 L8.18380012,29.9362004 L8.18380012,28.3689004 L12.1022002,28.3689004 C13.5426002,28.3689004 14.7144002,27.1970004 14.7144002,25.7567004 C14.7142002,24.3163004 13.5424002,23.1444003 12.1020002,23.1444003 Z M7.39990011,2.61220004 C7.11180011,2.61220004 6.8775001,2.37780004 6.8775001,2.08980003 C6.8775001,1.80180003 7.11190011,1.56740002 7.39990011,1.56740002 C7.68790011,1.56740002 7.92230012,1.80180003 7.92230012,2.08980003 C7.92230012,2.37780004 7.68800011,2.61220004 7.39990011,2.61220004 Z M5.57140008,20.0098003 C4.85120007,20.0098003 4.26530006,19.4239003 4.26530006,18.7037003 L4.26530006,15.0466002 C4.26530006,14.3264002 4.85120007,13.7405002 5.57140008,13.7405002 L9.22850014,13.7405002 C9.94870015,13.7405002 10.5346002,14.3264002 10.5346002,15.0466002 L10.5346002,18.7037003 C10.5346002,19.4239003 9.94870015,20.0098003 9.22850014,20.0098003 L5.57140008,20.0098003 Z M9.22850014,31.5036005 C9.94870015,31.5036005 10.5346002,32.0895005 10.5346002,32.8097005 L10.5346002,36.4668005 C10.5346002,37.1870006 9.94870015,37.7729006 9.22850014,37.7729006 L5.57140008,37.7729006 C4.85120007,37.7729006 4.26530006,37.1870006 4.26530006,36.4668005 L4.26530006,32.8097005 C4.26530006,32.0895005 4.85120007,31.5036005 5.57140008,31.5036005 L9.22850014,31.5036005 Z" id="Shape" fill="#000000" fill-rule="nonzero"></path>
                            </g>
                        </g>
                    </g>
                </g>
            </g>
        </g>
    </g>
</svg>