<?xml version="1.0" encoding="UTF-8"?>
<svg width="52px" height="35px" viewBox="0 0 52 35" version="1.1" xmlns="http://www.w3.org/2000/svg" xmlns:xlink="http://www.w3.org/1999/xlink">
    <!-- Generator: Sketch 62 (91390) - https://sketch.com -->
    <title>barbecue-1</title>
    <desc>Created with Sketch.</desc>
    <g id="Page-1" stroke="none" stroke-width="1" fill="none" fill-rule="evenodd">
        <g id="16.3-MAIN-UI---ALL-ITEM-(-ADD)-Copy-2" transform="translate(-508.000000, -1172.000000)">
            <g id="CREATE-ITEM" transform="translate(327.000000, 413.000000)">
                <g id="NOTIFICATION-BAR" transform="translate(66.000000, 545.000000)">
                    <g id="SET-1" transform="translate(23.000000, 34.000000)">
                        <g id="barbecue-1" transform="translate(92.000000, 180.000000)">
                            <g id="Shape">
                                <path d="M45.6976007,8.97015273 C45.6976007,19.6498304 36.8091005,28.3073865 25.8445004,28.3073865 C14.8799002,28.3073865 5.99140009,19.6498304 5.99140009,8.97015273" fill="#57565C" fill-rule="nonzero"></path>
                                <path d="M45.6976007,8.96995158 C45.6976007,19.6496292 36.8087005,28.3071854 25.8445004,28.3071854 C25.3168004,28.3071854 24.7944004,28.2871704 24.2772004,28.2472409 C32.7649005,27.6019322 39.7542006,21.7566385 41.8900006,13.9797436 C44.2431007,12.7050175 45.6976007,11.0349192 45.6976007,8.96995158 Z" fill="#3E3D42" fill-rule="nonzero"></path>
                                <path d="M5.99140009,8.97015273 C5.99140009,-1.81955725 45.6975007,-1.81955725 45.6975007,8.97015273 C45.6975007,19.7598627 5.99140009,19.7597621 5.99140009,8.97015273 Z" fill="#3E3D42" fill-rule="nonzero"></path>
                                <path d="M37.3384006,7.91921283 L19.5751003,7.91921283 C18.7095003,7.91921283 18.0078003,7.21335618 18.0078003,6.34285327 L18.0078003,6.34285327 C18.0078003,5.47224979 18.7096003,4.76649371 19.5751003,4.76649371 L37.3384006,4.76649371 C38.2040006,4.76649371 38.9057006,5.47235037 38.9057006,6.34285327 L38.9057006,6.34285327 C38.9057006,7.21345675 38.2041006,7.91921283 37.3384006,7.91921283 Z" fill="#FF505D" fill-rule="nonzero"></path>
                                <path d="M37.3384006,4.76639313 L37.3384006,4.76639313 C37.3384006,5.63699662 36.6366005,6.3427527 35.7711005,6.3427527 L18.0078003,6.3427527 C18.0078003,7.21335618 18.7096003,7.91911226 19.5751003,7.91911226 L37.3384006,7.91911226 C38.2040006,7.91911226 38.9057006,7.2132556 38.9057006,6.3427527 C38.9057006,5.47214921 38.2041006,4.76639313 37.3384006,4.76639313 Z" fill="#E21220" fill-rule="nonzero"></path>
                                <path d="M32.1139005,13.1739123 L14.3506002,13.1739123 C13.4850002,13.1739123 12.7833002,12.4680557 12.7833002,11.5975528 L12.7833002,11.5975528 C12.7833002,10.7269493 13.4851002,10.0211932 14.3506002,10.0211932 L32.1139005,10.0211932 C32.9795005,10.0211932 33.6812005,10.7270499 33.6812005,11.5975528 L33.6812005,11.5975528 C33.6812005,12.4680557 32.9796005,13.1739123 32.1139005,13.1739123 Z" fill="#FF505D" fill-rule="nonzero"></path>
                                <path d="M32.1139005,10.0210926 L32.1139005,10.0210926 C32.1139005,10.8916961 31.4121005,11.5974522 30.5466005,11.5974522 L12.7833002,11.5974522 C12.7833002,12.4680557 13.4851002,13.1738118 14.3506002,13.1738118 L32.1139005,13.1738118 C32.9795005,13.1738118 33.6812005,12.4679551 33.6812005,11.5974522 C33.6812005,10.7269493 32.9796005,10.0210926 32.1139005,10.0210926 Z" fill="#E21220" fill-rule="nonzero"></path>
                                <path d="M51.2000008,8.18192267 L48.9880007,8.18192267 L48.9880007,6.6055631 L47.4207007,6.6055631 L47.4207007,8.18192267 L46.4206007,8.18192267 C46.0291007,5.67481396 43.7462007,3.60391219 39.7591006,2.15930986 C36.0754005,0.824739897 31.1338005,0.0897156083 25.8445004,0.0897156083 C20.5552003,0.0897156083 15.6137002,0.824739897 11.9299002,2.15930986 C7.94290012,3.60391219 5.66000008,5.67471338 5.26850008,8.18192267 L3.77940006,8.18192267 L3.77940006,6.6055631 L2.21200003,6.6055631 L2.21200003,8.18192267 L0,8.18192267 L0,9.75828223 L2.21200003,9.75828223 L2.21200003,11.3346418 L3.77930006,11.3346418 L3.77930006,9.75828223 L5.22500008,9.75828223 C5.49940008,16.6698037 9.36380014,22.6976466 15.0477002,26.1144836 L10.3036002,33.8852433 L11.6392002,34.7101843 L16.4238002,26.8732443 C18.9624003,28.1488756 21.8054003,28.9257403 24.8162004,29.0705727 L24.8162004,34.2977138 L26.3835004,34.2977138 L26.3835004,29.0887773 C29.4267004,29.0122374 32.3076005,28.2891819 34.8882005,27.057101 L39.5606006,34.7102849 L40.8963006,33.8853439 L36.2811005,26.3256975 C42.1613006,22.9497957 46.1837007,16.8147367 46.4638007,9.75828223 L47.4205007,9.75828223 L47.4205007,11.3346418 L48.9878007,11.3346418 L48.9878007,9.75828223 L51.2000008,9.75828223 L51.2000008,8.18192267 Z M44.9139007,8.97015273 C44.9139007,10.4608198 43.9275007,12.5950857 39.2279006,14.2977713 C38.8779006,14.4246002 38.5152006,14.5453944 38.1415006,14.6607574 L44.7691007,7.9949481 C44.8724007,8.34033307 44.9139007,8.66861978 44.9139007,8.97015273 Z M43.9809007,6.55819085 L35.1831005,15.4067447 C32.3887005,15.9727979 29.1939004,16.2741297 25.8445004,16.2741297 C25.6654004,16.2741297 25.4868004,16.2731239 25.3087004,16.2714141 L27.6048004,13.9620418 L32.1140005,13.9620418 C33.4103005,13.9620418 34.4650005,12.9012453 34.4650005,11.5974522 C34.4650005,10.356621 33.5095005,9.33655852 32.2999005,9.24090881 L32.8304005,8.70734233 L37.3386006,8.70734233 C38.6349006,8.70734233 39.6896006,7.64654578 39.6896006,6.3427527 C39.6896006,5.10192146 38.7341006,4.08185902 37.5245006,3.98620931 L38.2074006,3.2993619 C38.5580006,3.40869022 38.8985006,3.52304745 39.2282006,3.64253416 C41.7227006,4.54632839 43.1710006,5.57192263 43.9809007,6.55819085 Z M35.3155005,3.97816307 L26.3016004,3.97816307 L28.5344004,1.73255725 C31.4091005,1.87497575 34.1102005,2.24570639 36.4674005,2.81960467 L35.3155005,3.97816307 Z M37.3384006,5.5546232 C37.7706006,5.5546232 38.1221006,5.908155 38.1221006,6.34285327 C38.1221006,6.77755155 37.7706006,7.13108334 37.3384006,7.13108334 L19.5751003,7.13108334 C19.1429003,7.13108334 18.7914003,6.77755155 18.7914003,6.34285327 C18.7914003,5.908155 19.1429003,5.5546232 19.5751003,5.5546232 L37.3384006,5.5546232 Z M21.5996003,8.7074429 L30.6135005,8.7074429 L30.0911004,9.23286257 L21.0772003,9.23286257 L21.5996003,8.7074429 Z M32.1139005,10.8093227 C32.5461005,10.8093227 32.8976005,11.1628545 32.8976005,11.5975528 C32.8976005,12.032251 32.5461005,12.3857828 32.1139005,12.3857828 L14.3506002,12.3857828 C13.9184002,12.3857828 13.5669002,12.032251 13.5669002,11.5975528 C13.5669002,11.1628545 13.9184002,10.8093227 14.3506002,10.8093227 L32.1139005,10.8093227 Z M16.3741002,13.9621424 L25.3880004,13.9621424 L23.1553003,16.2078488 C20.2806003,16.0654303 17.5794003,15.6946997 15.2222002,15.1208014 L16.3741002,13.9621424 Z M26.3810004,1.66889135 L24.0850004,3.97826364 L19.5751003,3.97826364 C18.2787003,3.97826364 17.2241003,5.03906019 17.2241003,6.34285327 C17.2241003,7.58428797 18.1804003,8.60455157 19.3908003,8.69949724 L18.8604003,9.23296314 L14.3506002,9.23296314 C13.0542002,9.23296314 11.9996002,10.2937597 11.9996002,11.5975528 C11.9996002,12.8385852 12.9554002,13.8587482 14.1654002,13.9541967 L13.4824002,14.6412453 C13.1316002,14.5318164 12.7910002,14.4173586 12.4611002,14.2978719 C9.96660015,13.3939771 8.51830013,12.3686846 7.70840011,11.3824164 L16.5079002,2.53315842 C19.3019003,1.96720581 22.4960003,1.66617575 25.8445004,1.66617575 C26.0238004,1.66617575 26.2025004,1.66718153 26.3810004,1.66889135 Z M12.4611002,3.64243358 C12.8118002,3.51540352 13.1752002,3.39430757 13.5496002,3.27884398 L6.9201001,9.94575969 C6.8167001,9.60017355 6.7751001,9.27178627 6.7751001,8.97005216 C6.7751001,7.47948566 7.76160012,5.34511915 12.4611002,3.64243358 Z M35.4609005,24.9820755 L34.8653005,24.0064686 L33.5296005,24.8314096 L34.0635005,25.7059356 C31.5734005,26.8677125 28.7857004,27.5192571 25.8445004,27.5192571 C22.7535003,27.5192571 19.8323003,26.7993195 17.2475003,25.5242917 L17.6705003,24.8315102 L16.3349002,24.0065691 L15.8678002,24.7716663 C11.6010002,22.2132628 8.44300013,18.0670338 7.27240011,13.1855794 C8.38920013,14.1898511 9.94840015,15.062969 11.9301002,15.7809956 C15.6138002,17.1155656 20.5554003,17.8505899 25.8447004,17.8505899 C31.1340005,17.8505899 36.0756005,17.1155656 39.7593006,15.7809956 C41.7411006,15.062969 43.3003006,14.1897505 44.4170007,13.1855794 C43.2134006,18.203317 39.9100006,22.4441899 35.4609005,24.9820755 Z" fill="#000000" fill-rule="nonzero"></path>
                            </g>
                        </g>
                    </g>
                </g>
            </g>
        </g>
    </g>
</svg>