<?xml version="1.0" encoding="UTF-8"?>
<svg width="22px" height="52px" viewBox="0 0 22 52" version="1.1" xmlns="http://www.w3.org/2000/svg" xmlns:xlink="http://www.w3.org/1999/xlink">
    <!-- Generator: Sketch 62 (91390) - https://sketch.com -->
    <title>beer-2</title>
    <desc>Created with Sketch.</desc>
    <g id="Page-1" stroke="none" stroke-width="1" fill="none" fill-rule="evenodd">
        <g id="16.3-MAIN-UI---ALL-ITEM-(-ADD)-Copy-2" transform="translate(-835.000000, -1555.000000)">
            <g id="CREATE-ITEM" transform="translate(327.000000, 413.000000)">
                <g id="NOTIFICATION-BAR" transform="translate(66.000000, 545.000000)">
                    <g id="SET-3" transform="translate(23.000000, 485.000000)">
                        <g id="beer-2" transform="translate(419.000000, 112.000000)">
                            <g>
                                <path d="M20.4903761,8.6204 L20.4903761,6.5306 C20.4903761,3.3566 17.8937706,0.7837 14.6907523,0.7837 L7.30934862,0.7837 C4.10622936,0.7837 1.50972477,3.3567 1.50972477,6.5306 L1.50972477,8.6204" id="Shape" fill="#FFFFFF" fill-rule="nonzero"></path>
                                <path d="M14.6906514,0.7837 L12.5816789,0.7837 C15.7847982,0.7837 18.3813028,3.3568 18.3813028,6.5306 L18.3813028,8.6204 L20.4902752,8.6204 L20.4902752,6.5306 C20.4903761,3.3567 17.8937706,0.7837 14.6906514,0.7837 Z" id="Shape" fill="#FFF5CC" fill-rule="nonzero"></path>
                                <path d="M1.50962385,8.6204 L1.46774312,8.8645 C0.21606422,16.1651 0.690678899,23.6687 2.97211927,30.7203 C3.03388073,30.9112 3.09675229,31.1018 3.16073394,31.2921 L5.40574312,36.4608 C6.93191743,39.9746 6.65933945,44.0014 4.67308257,47.2817 L4.67308257,47.2817 L4.67308257,50.4164 L17.3269174,50.4164 L17.3269174,47.2817 L17.3269174,47.2817 C15.3406606,44.0015 15.0679817,39.9746 16.5942569,36.4608 L18.8392661,31.2921 C18.9032477,31.1018 18.9661193,30.9112 19.0278807,30.7203 C21.3092202,23.6687 21.7838349,16.1651 20.532156,8.8645 L20.4902752,8.6204 L1.50962385,8.6204 L1.50962385,8.6204 Z" id="Shape" fill="#FFDA44" fill-rule="nonzero"></path>
                                <ellipse id="Oval" fill="#FFF5CC" fill-rule="nonzero" cx="12.0576147" cy="34.7627" rx="1" ry="1"></ellipse>
                                <ellipse id="Oval" fill="#FFF5CC" fill-rule="nonzero" cx="14.1665872" cy="30.5831" rx="1" ry="1"></ellipse>
                                <ellipse id="Oval" fill="#FFF5CC" fill-rule="nonzero" cx="12.0576147" cy="27.4484" rx="1" ry="1"></ellipse>
                                <ellipse id="Oval" fill="#FFF5CC" fill-rule="nonzero" cx="16.539156" cy="27.4286" rx="1" ry="1"></ellipse>
                                <rect id="Rectangle-path" fill="#FFFFFF" fill-rule="nonzero" x="4.67308257" y="47.2816" width="12.6538349" height="3.1347"></rect>
                                <rect id="Rectangle-path" fill="#EBE5DD" fill-rule="nonzero" x="15.217945" y="47.2816" width="2.10897248" height="3.1347"></rect>
                                <path d="M21.0376514,12.8 L15.3149266,12.8 L15.3149266,21.9429 C15.3149266,22.3034 15.1672844,22.6304 14.9290183,22.8666 C14.6907523,23.1028 14.3616606,23.249 13.996844,23.249 C13.2692294,23.249 12.6787615,22.6639 12.6787615,21.9429 L12.6787615,12.8 L0.962348624,12.8 C1.07416514,11.4845 1.24279817,10.171 1.46744037,8.8649 L1.50962385,8.6204 L20.4903761,8.6204 L20.5325596,8.8649 C20.7571009,10.171 20.9258349,11.4845 21.0376514,12.8 Z" id="Shape" fill="#FFFFFF" fill-rule="nonzero"></path>
                                <path d="M21.0376514,12.8 L18.9286789,12.8 C18.8168624,11.4845 18.6482294,10.171 18.4235872,8.8649 L18.3814037,8.6204 L20.4903761,8.6204 L20.5325596,8.8649 C20.7571009,10.171 20.9258349,11.4845 21.0376514,12.8 Z" id="Shape" fill="#EBE5DD" fill-rule="nonzero"></path>
                                <path d="M6.78205505,47.2816 L4.67308257,47.2816 C6.65974312,44.0017 6.93181651,39.9746 5.40594495,36.4606 L3.16093578,31.2925 C3.09665138,31.1013 3.03438532,30.9111 2.97222018,30.7199 C1.09838532,24.9312 0.44353211,18.8363 0.962348624,12.7999 L3.0713211,12.7999 C2.55250459,18.8363 3.2073578,24.9312 5.08119266,30.7199 C5.1433578,30.9111 5.20562385,31.1013 5.26990826,31.2925 L7.51491743,36.4606 C9.04078899,39.9747 8.7687156,44.0017 6.78205505,47.2816 Z" id="Shape" fill="#FFF5CC" fill-rule="nonzero"></path>
                                <path d="M19.0277798,30.72 C18.9666239,30.9112 18.9033486,31.1014 18.8390642,31.2926 L16.594055,36.4607 C15.9403119,37.9663 15.6165688,39.5671 15.6165688,41.1627 C15.6165688,43.2891 16.1912936,45.407 17.3269174,47.2816 L15.217945,47.2816 C13.2312844,44.0017 12.959211,39.9746 14.4850826,36.4606 L16.7300917,31.2925 C16.7943761,31.1013 16.8576514,30.9111 16.9188073,30.7199 C18.7926422,24.9312 19.4474954,18.8363 18.9286789,12.7999 L21.0376514,12.7999 C21.5564679,18.8364 20.9016147,24.9313 19.0277798,30.72 Z" id="Shape" fill="#EEBF00" fill-rule="nonzero"></path>
                                <path d="M7.30934862,1.5673 L14.6907523,1.5673 C17.4525596,1.5673 19.6995872,3.7939 19.6995872,6.5306 L21.2812661,6.5306 C21.2811651,2.9296 18.3246881,0 14.6906514,0 L7.30924771,0 C3.67531193,0 0.718733945,2.9296 0.718733945,6.5306 L2.30041284,6.5306 C2.30051376,3.7939 4.54754128,1.5673 7.30934862,1.5673 Z" id="Shape" fill="#000000" fill-rule="nonzero"></path>
                                <path d="M21.311945,8.7332 L21.1582477,7.8368 L0.841853211,7.8368 L0.688155963,8.7333 C-0.59440367,16.2139 -0.0650917431,23.8997 2.21917431,30.9597 C2.28184404,31.1533 2.34562385,31.3467 2.41051376,31.5399 L2.42121101,31.5715 L4.67954128,36.7706 C6.10126606,40.044 5.84544037,43.8226 3.99522018,46.8785 L3.88249541,47.0646 L3.88249541,51.2 L18.1180092,51.2 L18.1180092,47.0646 L18.0052844,46.8785 C16.1549633,43.8226 15.8990367,40.0439 17.3209633,36.7706 L19.5659725,31.602 L19.589789,31.5399 C19.6547798,31.3467 19.7185596,31.1534 19.7813303,30.9596 C22.0650917,23.8996 22.5945046,16.2139 21.311945,8.7332 Z M19.8206881,9.4041 C19.9615688,10.2727 20.0769174,11.144 20.1675413,12.0163 L14.5240367,12.0163 L14.5240367,21.9428 C14.5240367,22.0825 14.4692385,22.2137 14.3697339,22.3123 C14.2702294,22.4109 14.1377248,22.4653 13.9967431,22.4653 C13.706,22.4653 13.4695505,22.2309 13.4695505,21.9429 L13.4695505,12.0164 L1.83255963,12.0164 C1.92318349,11.144 2.03853211,10.2728 2.17941284,9.4042 L19.8206881,9.4042 L19.8206881,9.4041 Z M5.46397248,49.6327 L5.46397248,48.0654 L16.5360275,48.0654 L16.5360275,49.6327 L5.46397248,49.6327 Z M18.2747339,30.481 C18.217211,30.6585 18.1588807,30.8359 18.0993394,31.013 L15.8676514,36.151 C14.4250367,39.4725 14.4961835,43.25 16.0143853,46.498 L5.98541284,46.498 C7.50361468,43.25 7.57486239,39.4725 6.13214679,36.151 L3.90045872,31.013 C3.84111927,30.836 3.78268807,30.6587 3.72516514,30.4811 C1.98272477,25.0956 1.29830275,19.3314 1.69722936,13.5836 L11.8877706,13.5836 L11.8877706,21.9428 C11.8877706,23.0951 12.8338716,24.0326 13.9967431,24.0326 C14.5601651,24.0326 15.0897798,23.8153 15.4881009,23.4207 C15.886422,23.0261 16.1057156,22.5013 16.1057156,21.9428 L16.1057156,13.5836 L20.3025688,13.5836 C20.7015963,19.3314 20.0170734,25.0956 18.2747339,30.481 Z" id="Shape" fill="#000000" fill-rule="nonzero"></path>
                            </g>
                        </g>
                    </g>
                </g>
            </g>
        </g>
    </g>
</svg>