<?xml version="1.0" encoding="UTF-8"?>
<svg width="20px" height="52px" viewBox="0 0 20 52" version="1.1" xmlns="http://www.w3.org/2000/svg" xmlns:xlink="http://www.w3.org/1999/xlink">
    <!-- Generator: Sketch 62 (91390) - https://sketch.com -->
    <title>beer-1</title>
    <desc>Created with Sketch.</desc>
    <g id="Page-1" stroke="none" stroke-width="1" fill="none" fill-rule="evenodd">
        <g id="16.3-MAIN-UI---ALL-ITEM-(-ADD)-Copy-2" transform="translate(-762.000000, -1555.000000)">
            <g id="CREATE-ITEM" transform="translate(327.000000, 413.000000)">
                <g id="NOTIFICATION-BAR" transform="translate(66.000000, 545.000000)">
                    <g id="SET-3" transform="translate(23.000000, 485.000000)">
                        <g id="beer-1" transform="translate(346.000000, 112.000000)">
                            <g>
                                <path d="M12.5955,3.3959 L13.9183,17.502 L16.6058,19.1143 C18.1805,20.0589 19.1428,21.76 19.1428,23.5948 L19.1428,48.3265 C19.1428,49.4811 18.2076,50.4163 17.053,50.4163 L2.9469,50.4163 C1.7923,50.4163 0.8571,49.4811 0.8571,48.3265 L0.8571,23.5948 C0.8571,21.76 1.8195,20.0589 3.3941,19.1143 L6.0816,17.502 L7.4044,3.3959" id="Shape" fill="#3FC378" fill-rule="nonzero"></path>
                                <path d="M8.7597,11.2327 L8.1714,17.5021 L5.4839,19.1144 C3.9092,20.0589 2.9469,21.7601 2.9469,23.5949 L2.9469,48.3266 C2.9469,49.4812 3.8821,50.4164 5.0367,50.4164 L2.9469,50.4164 C1.7923,50.4164 0.8571,49.4812 0.8571,48.3266 L0.8571,23.5948 C0.8571,21.76 1.8195,20.0589 3.3941,19.1143 L6.0816,17.502 L6.6699,11.2326 L8.7597,11.2326 L8.7597,11.2327 Z" id="Shape" fill="#95E0B9" fill-rule="nonzero"></path>
                                <path d="M19.1429,23.5948 L19.1429,48.3265 C19.1429,49.4811 18.2077,50.4163 17.0531,50.4163 L14.9633,50.4163 C16.1179,50.4163 17.0531,49.4811 17.0531,48.3265 L17.0531,23.5948 C17.0531,21.76 16.0907,20.0589 14.5161,19.1143 L11.8286,17.502 L11.2403,11.2326 L13.3301,11.2326 L13.9184,17.502 L16.6059,19.1143 C18.1805,20.0589 19.1429,21.76 19.1429,23.5948 Z" id="Shape" fill="#267F40" fill-rule="nonzero"></path>
                                <polygon id="Shape" fill="#2B8C4A" fill-rule="nonzero" points="13.3301 11.2327 6.6699 11.2327 7.4045 3.3959 12.5955 3.3959"></polygon>
                                <path d="M8.8116,5.4857 C9.8902,5.4857 10.7916,6.3066 10.8923,7.3805 L11.2534,11.2326 L13.3301,11.2326 L12.5955,3.3959 L7.4044,3.3959 L7.2085,5.4857 L8.8116,5.4857 Z" id="Shape" fill="#227539" fill-rule="nonzero"></path>
                                <ellipse id="Oval" fill="#FFFFFF" fill-rule="nonzero" cx="10" cy="33.9592" rx="4.702" ry="6.7918"></ellipse>
                                <path d="M13.1347,3.3959 L6.8653,3.3959 L6.8653,1.3061 C6.8653,1.0176 7.0993,0.7837 7.3878,0.7837 L12.6123,0.7837 C12.9008,0.7837 13.1347,1.0177 13.1347,1.3061 L13.1347,3.3959 L13.1347,3.3959 Z" id="Shape" fill="#FFDA44" fill-rule="nonzero"></path>
                                <path d="M17.0091,18.4422 L14.6616,17.0339 L13.4561,4.1796 L13.9184,4.1796 L13.9184,1.3061 C13.9184,0.5859 13.3325,0 12.6122,0 L7.3877,0 C6.6675,0 6.0816,0.5859 6.0816,1.3061 L6.0816,4.1796 L6.5439,4.1796 L5.3384,17.0339 L2.9909,18.4422 C1.1914,19.5218 0.0734,21.4961 0.0734,23.5948 L0.0734,48.3265 C0.0734,49.9109 1.3624,51.2 2.9469,51.2 L17.053,51.2 C18.6375,51.2 19.9265,49.9109 19.9265,48.3265 L19.9265,23.5948 C19.9265,21.4962 18.8086,19.5218 17.0091,18.4422 Z M9.7388,2.6122 L9.7388,1.5673 L10.2613,1.5673 L10.2613,2.6122 L9.7388,2.6122 Z M12.351,2.6122 L11.8286,2.6122 L11.8286,1.5673 L12.351,1.5673 L12.351,2.6122 Z M7.649,1.5673 L8.1714,1.5673 L8.1714,2.6122 L7.649,2.6122 L7.649,1.5673 Z M11.8819,4.1796 L12.4699,10.449 L7.5302,10.449 L8.1182,4.1796 L11.8819,4.1796 L11.8819,4.1796 Z M18.3592,48.3265 C18.3592,49.0467 17.7733,49.6326 17.0531,49.6326 L15.4316,49.6326 C15.6326,49.2403 15.747,48.7967 15.747,48.3265 L14.1797,48.3265 C14.1797,49.0467 13.5938,49.6326 12.8736,49.6326 L7.1267,49.6326 C6.4065,49.6326 5.8206,49.0467 5.8206,48.3265 L4.2533,48.3265 C4.2533,48.7967 4.3675,49.2404 4.5687,49.6326 L2.9472,49.6326 C2.227,49.6326 1.6411,49.0467 1.6411,48.3265 L1.6411,23.5948 C1.6411,22.0435 2.4674,20.5842 3.7976,19.7864 L6.2989,18.2857 L10.784,18.2857 L10.784,16.7184 L6.9425,16.7184 L7.3834,12.0164 L12.617,12.0164 L13.1754,17.9701 L16.203,19.7864 C17.5332,20.5843 18.3595,22.0436 18.3595,23.5948 L18.3595,48.3265 L18.3592,48.3265 Z" id="Shape" fill="#000000" fill-rule="nonzero"></path>
                                <path d="M10,26.3837 C8.4793,26.3837 7.0697,27.21 6.0309,28.7106 C5.0529,30.1232 4.5143,31.9872 4.5143,33.9592 C4.5143,35.9312 5.0528,37.7952 6.0309,39.2078 C7.0697,40.7083 8.4793,41.5347 10,41.5347 C11.5207,41.5347 12.9303,40.7084 13.9691,39.2078 C14.947,37.7951 15.4857,35.9312 15.4857,33.9592 C15.4857,31.9872 14.9472,30.1232 13.9691,28.7106 C12.9303,27.21 11.5207,26.3837 10,26.3837 Z M12.6805,38.3156 C11.9432,39.3809 10.9912,39.9674 10,39.9674 C9.0088,39.9674 8.0568,39.3809 7.3195,38.3156 C6.5212,37.1627 6.0816,35.6156 6.0816,33.9592 C6.0816,32.3028 6.5212,30.7558 7.3195,29.6028 C8.0568,28.5375 9.0088,27.951 10,27.951 C10.9912,27.951 11.9432,28.5375 12.6805,29.6028 C13.4788,30.7557 13.9184,32.3029 13.9184,33.9592 C13.9184,35.6155 13.4788,37.1626 12.6805,38.3156 Z" id="Shape" fill="#000000" fill-rule="nonzero"></path>
                            </g>
                        </g>
                    </g>
                </g>
            </g>
        </g>
    </g>
</svg>