<?xml version="1.0" encoding="UTF-8"?>
<svg width="35px" height="52px" viewBox="0 0 35 52" version="1.1" xmlns="http://www.w3.org/2000/svg" xmlns:xlink="http://www.w3.org/1999/xlink">
    <!-- Generator: Sketch 62 (91390) - https://sketch.com -->
    <title>boiled-egg</title>
    <desc>Created with Sketch.</desc>
    <g id="Page-1" stroke="none" stroke-width="1" fill="none" fill-rule="evenodd">
        <g id="16.3-MAIN-UI---ALL-ITEM-(-ADD)-Copy-2" transform="translate(-1128.000000, -1005.000000)">
            <g id="CREATE-ITEM" transform="translate(327.000000, 413.000000)">
                <g id="NOTIFICATION-BAR" transform="translate(66.000000, 545.000000)">
                    <g id="SET-1" transform="translate(23.000000, 34.000000)">
                        <g id="boiled-egg" transform="translate(712.000000, 13.000000)">
                            <g>
                                <polygon id="Rectangle-path" fill="#D9CCBC" fill-rule="nonzero" points="15.8236407 33.6980005 18.9764604 33.6980005 18.9764604 46.2368007 15.8236407 46.2368007"></polygon>
                                <path d="M26.8584594,50.4163008 L7.94154116,50.4163008 L7.94154116,50.4163008 C7.94154116,48.1080007 9.82365795,46.2367007 12.1453008,46.2367007 L22.6546998,46.2367007 C24.9763426,46.2367007 26.8584594,48.1080007 26.8584594,50.4163008 L26.8584594,50.4163008 Z" id="Shape" fill="#D9CCBC" fill-rule="nonzero"></path>
                                <path d="M29.4857588,17.2408003 L29.4857588,17.2575003 L5.3142417,17.2575003 L5.3142417,17.2408003 C5.3142417,8.15230012 10.7255412,0.783700012 17.4000003,0.783700012 C24.0744593,0.783700012 29.4857588,8.15230012 29.4857588,17.2408003 Z" id="Shape" fill="#FFFFFF" fill-rule="nonzero"></path>
                                <path d="M29.4857588,17.2408003 L29.4857588,17.2575003 L27.383879,17.2575003 L27.383879,17.2408003 C27.383879,8.63400013 22.5316928,1.57150002 16.3490604,0.846400013 C16.6958534,0.805600012 17.045865,0.783700012 17.4000003,0.783700012 C24.0744593,0.783700012 29.4857588,8.15230012 29.4857588,17.2408003 Z" id="Shape" fill="#EBE5DD" fill-rule="nonzero"></path>
                                <ellipse id="Oval" fill="#FFDA44" fill-rule="nonzero" cx="17.4000003" cy="17.2408003" rx="7.3565793" ry="7.31430011"></ellipse>
                                <path d="M18.0919771,9.95970015 C20.1984835,11.2464002 21.6037599,13.5577002 21.6037599,16.1960002 C21.6037599,20.2356003 18.3101309,23.5103004 14.2471806,23.5103004 C14.0137389,23.5103004 13.7832141,23.4983004 13.5552037,23.4772003 C14.6741343,24.1606004 15.9904997,24.5552004 17.4000003,24.5552004 C21.4629506,24.5552004 24.7565796,21.2805003 24.7565796,17.2409003 C24.7565796,13.4333002 21.8302616,10.3067002 18.0919771,9.95970015 Z" id="Shape" fill="#EEBF00" fill-rule="nonzero"></path>
                                <path d="M33.9522283,17.2408003 C33.9522283,26.3298004 26.541538,33.6979005 17.4000003,33.6979005 C8.25846255,33.6979005 0.847772267,26.3299004 0.847772267,17.2408003 L33.9522283,17.2408003 Z" id="Shape" fill="#EBE5DD" fill-rule="nonzero"></path>
                                <path d="M30.7994086,17.2408003 C30.7994086,25.8011004 24.2256281,32.8338005 15.8235401,33.6232005 C16.3425228,33.6720005 16.8681436,33.6979005 17.3998997,33.6979005 C26.5414374,33.6979005 33.9521277,26.3297004 33.9521277,17.2408003 L30.7994086,17.2408003 Z" id="Shape" fill="#D9CCBC" fill-rule="nonzero"></path>
                                <path d="M12.0370788,7.91470012 C13.5584222,5.84300009 15.4629679,4.70200007 17.4000003,4.70200007 L17.4000003,3.13470005 C14.9466002,3.13470005 12.5898557,4.50390007 10.7638614,6.9904001 L12.0370788,7.91470012 Z" id="Shape" fill="#000000" fill-rule="nonzero"></path>
                                <path d="M30.2605114,16.4571002 C30.1191993,12.1898002 28.8260675,8.19710012 26.5824732,5.14190008 C24.1473784,1.82620003 20.8862361,0 17.4000003,0 C13.9137644,0 10.6526221,1.82620003 8.21752729,5.14190008 C5.97383246,8.19710012 4.68070065,12.1898002 4.53948908,16.4571002 L0.0595421974,16.4571002 L0.0595421974,17.2408003 C0.0595421974,25.9500004 6.58846484,33.1704005 15.0354106,34.3206005 L15.0354106,45.4530007 L12.1453008,45.4530007 C9.39278164,45.4530007 7.15331109,47.6796007 7.15331109,50.4163008 L7.15331109,51.2000008 L27.6465889,51.2000008 L27.6465889,50.4163008 C27.6465889,47.6796007 25.4071183,45.4530007 22.6545992,45.4530007 L19.7645899,45.4530007 L19.7645899,34.3206005 C28.2115357,33.1704005 34.7404583,25.9500004 34.7404583,17.2408003 L34.7404583,16.4571002 L30.2605114,16.4571002 L30.2605114,16.4571002 Z M17.4000003,1.56730002 C23.4400131,1.56730002 28.3880501,8.17740012 28.6835484,16.4571002 L25.5060871,16.4571002 C25.108301,12.3583002 21.625183,9.14280014 17.4001008,9.14280014 C13.1750187,9.14280014 9.6920013,12.3583002 9.29411459,16.4571002 L6.11665327,16.4571002 C6.41195038,8.17750012 11.3599875,1.56730002 17.4000003,1.56730002 Z M23.919368,16.4571002 L10.8806325,16.4571002 C11.2714788,13.2244002 14.0451193,10.7102002 17.4000003,10.7102002 C20.7548812,10.7102002 23.5285217,13.2245002 23.919368,16.4571002 Z M25.9784015,49.6327007 L8.82159898,49.6327007 C9.17824869,48.1367007 10.5331354,47.0205007 12.1453008,47.0205007 L22.6546998,47.0205007 C24.2668651,47.0204007 25.6216512,48.1367007 25.9784015,49.6327007 Z M18.1882303,34.4816005 L18.1882303,45.4530007 L16.6118708,45.4530007 L16.6118708,34.4816005 L18.1882303,34.4816005 Z M17.4000003,32.9143005 C8.97186256,32.9143005 2.06738153,26.3044004 1.6554139,18.0245003 L33.1446872,18.0245003 C32.732619,26.3044004 25.828138,32.9143005 17.4000003,32.9143005 Z" id="Shape" fill="#000000" fill-rule="nonzero"></path>
                            </g>
                        </g>
                    </g>
                </g>
            </g>
        </g>
    </g>
</svg>