<?xml version="1.0" encoding="UTF-8"?>
<svg width="52px" height="39px" viewBox="0 0 52 39" version="1.1" xmlns="http://www.w3.org/2000/svg" xmlns:xlink="http://www.w3.org/1999/xlink">
    <!-- Generator: Sketch 62 (91390) - https://sketch.com -->
    <title>burger</title>
    <desc>Created with Sketch.</desc>
    <g id="Page-1" stroke="none" stroke-width="1" fill="none" fill-rule="evenodd">
        <g id="16.3-MAIN-UI---ALL-ITEM-(-ADD)-Copy-2" transform="translate(-590.000000, -1168.000000)">
            <g id="CREATE-ITEM" transform="translate(327.000000, 413.000000)">
                <g id="NOTIFICATION-BAR" transform="translate(66.000000, 545.000000)">
                    <g id="SET-1" transform="translate(23.000000, 34.000000)">
                        <g id="burger" transform="translate(174.000000, 176.000000)">
                            <g>
                                <path d="M5.22450008,23.5590035 L45.9755007,23.5590035 L45.9755007,24.9245156 C45.9755007,28.6951544 42.9347006,31.7518748 39.1837006,31.7518748 L12.0163002,31.7518748 C8.26530012,31.7518748 5.22450008,28.6950538 5.22450008,24.9245156 L5.22450008,23.5590035 L5.22450008,23.5590035 Z" id="Shape" fill="#FFDA44" fill-rule="nonzero"></path>
                                <path d="M43.8459007,23.559104 C43.4810006,26.9837407 40.5977006,29.6511334 37.0939006,29.6511334 L9.92650015,29.6511334 C8.58600013,29.6511334 7.33730011,29.2590915 6.28470009,28.5853826 C7.49010011,30.4882936 9.60570014,31.7517743 12.0163002,31.7517743 L39.1836006,31.7517743 C42.9346006,31.7517743 45.9754007,28.6949533 45.9754007,24.924415 L45.9754007,23.5590035 L43.8459007,23.5590035 L43.8459007,23.559104 Z" id="Shape" fill="#EEBF00" fill-rule="nonzero"></path>
                                <path d="M43.9380007,20.4078914 L7.26200011,20.4078914 C6.13660009,20.4078914 5.22440008,19.4909155 5.22440008,18.3596233 L5.22440008,18.3596233 C5.22440008,17.2283311 6.13660009,16.3113552 7.26200011,16.3113552 L43.9380007,16.3113552 C45.0634007,16.3113552 45.9756007,17.2283311 45.9756007,18.3596233 L45.9756007,18.3596233 C45.9755007,19.490815 45.0633007,20.4078914 43.9380007,20.4078914 Z" id="Shape" fill="#FF9811" fill-rule="nonzero"></path>
                                <path d="M44.3630007,16.3567919 C44.3922007,16.4947102 44.4081007,16.6374537 44.4081007,16.7841175 L44.4081007,16.7841175 C44.4081007,17.9154097 43.4959006,18.8323856 42.3706006,18.8323856 L5.69470008,18.8323856 C5.54880008,18.8323856 5.40680008,18.8163019 5.26960008,18.7870495 C5.46520008,19.7130725 6.28260009,20.4079919 7.26200011,20.4079919 L43.9380007,20.4079919 C45.0634007,20.4079919 45.9756007,19.491016 45.9756007,18.3597238 L45.9756007,18.3597238 C45.9755007,17.3750955 45.2842007,16.5535165 44.3630007,16.3567919 Z" id="Shape" fill="#DD7903" fill-rule="nonzero"></path>
                                <polygon id="Rectangle-path" fill="#FF505D" fill-rule="nonzero" points="7.31420011 13.1603437 43.8856007 13.1603437 43.8856007 16.3114557 7.31420011 16.3114557"></polygon>
                                <rect id="Rectangle-path" fill="#E21220" fill-rule="nonzero" x="40.7510006" y="13.1603437" width="3.13470005" height="3.15111209"></rect>
                                <rect id="Rectangle-path" fill="#FF7C80" fill-rule="nonzero" x="7.31420011" y="13.1603437" width="2.08980003" height="3.15111209"></rect>
                                <polygon id="Rectangle-path" fill="#3FC378" fill-rule="nonzero" points="7.31420011 20.4078914 43.8856007 20.4078914 43.8856007 23.5590035 7.31420011 23.5590035"></polygon>
                                <rect id="Rectangle-path" fill="#95E0B9" fill-rule="nonzero" x="7.31420011" y="20.4078914" width="2.08980003" height="3.15111209"></rect>
                                <rect id="Rectangle-path" fill="#2B8C4A" fill-rule="nonzero" x="40.7510006" y="20.4078914" width="3.13470005" height="3.15111209"></rect>
                                <polygon id="Shape" fill="#EEBF00" fill-rule="nonzero" points="20.5932003 16.3114557 39.6102006 16.3114557 30.1016004 25.8697386"></polygon>
                                <polygon id="Shape" fill="#FFDA44" fill-rule="nonzero" points="11.0846002 16.3114557 30.1016004 16.3114557 20.5932003 25.8697386"></polygon>
                                <path d="M45.9755007,13.1603437 L5.22450008,13.1603437 L5.22450008,7.69839593 C5.22450008,3.92775713 8.26530012,0.871036662 12.0163002,0.871036662 L39.1836006,0.871036662 C42.9346006,0.871036662 45.9754007,3.92775713 45.9754007,7.69839593 L45.9754007,13.1603437 L45.9755007,13.1603437 Z" id="Shape" fill="#FFDA44" fill-rule="nonzero"></path>
                                <path d="M39.1837006,0.871036662 L12.0163002,0.871036662 C8.26530012,0.871036662 5.22450008,3.92785765 5.22450008,7.69839593 L5.22450008,9.79913732 C5.22450008,6.028398 8.26530012,2.97177805 12.0163002,2.97177805 L39.1836006,2.97177805 C42.9346006,2.97177805 45.9754007,6.02859904 45.9754007,9.79913732 L45.9754007,7.69839593 C45.9755007,3.92785765 42.9348006,0.871036662 39.1837006,0.871036662 Z" id="Shape" fill="#FFF5CC" fill-rule="nonzero"></path>
                                <rect id="Rectangle-path" fill="#FFFFFF" fill-rule="nonzero" x="0.783700012" y="31.7518748" width="49.6327007" height="2.62587648"></rect>
                                <polyline id="Shape" fill="#FFFFFF" fill-rule="nonzero" points="46.4980007 34.3778518 44.4082007 37.5289639 6.7918001 37.5289639 4.70200007 34.3778518"></polyline>
                                <polygon id="Rectangle-path" fill="#000000" fill-rule="nonzero" points="36.3102005 4.65243148 37.8775006 4.65243148 37.8775006 6.22793727 36.3102005 6.22793727"></polygon>
                                <polygon id="Rectangle-path" fill="#000000" fill-rule="nonzero" points="38.4000006 7.80354357 39.9673006 7.80354357 39.9673006 9.37904935 38.4000006 9.37904935"></polygon>
                                <polygon id="Rectangle-path" fill="#000000" fill-rule="nonzero" points="34.2204005 7.80354357 35.7877005 7.80354357 35.7877005 9.37904935 34.2204005 9.37904935"></polygon>
                                <path d="M7.57550011,7.69849645 L9.14280014,7.69849645 C9.14280014,6.10570061 10.4319002,4.8099519 12.0163002,4.8099519 L12.0163002,3.23444612 C9.56760014,3.23444612 7.57550011,5.23687547 7.57550011,7.69849645 Z" id="Shape" fill="#000000" fill-rule="nonzero"></path>
                                <path d="M51.2000008,30.9641722 L43.7901007,30.9641722 C45.5936007,29.5708151 46.7592007,27.3825177 46.7592007,24.9245156 L46.7592007,22.7713009 L44.6693007,22.7713009 L44.6693007,21.0992925 C45.1430007,20.9724317 45.5773007,20.7228317 45.9330007,20.3651689 C46.4658007,19.8296799 46.7592007,19.1174704 46.7592007,18.3596233 C46.7592007,17.0501029 45.8715007,15.94555 44.6693007,15.6207583 L44.6693007,13.9480463 L46.7592007,13.9480463 L46.7592007,7.69849645 C46.7592007,3.49942623 43.3609006,0.0833340327 39.1837006,0.0833340327 L12.0163002,0.0833340327 C7.83910012,0.0833340327 4.44080007,3.49942623 4.44080007,7.69849645 L4.44080007,13.9480463 L6.5305001,13.9480463 L6.5305001,15.6200547 C6.05700009,15.7469154 5.62270008,15.9966159 5.26690008,16.3541783 C4.73410007,16.8898683 4.44080007,17.6019772 4.44080007,18.3596233 C4.44080007,19.6691437 5.32840008,20.7735961 6.5305001,21.0983877 L6.5305001,22.7713009 L4.44080007,22.7713009 L4.44080007,24.9245156 C4.44080007,27.3825177 5.60630008,29.5708151 7.40980011,30.9641722 L0,30.9641722 L0,35.165655 L4.28260006,35.165655 L6.37240009,38.3167671 L44.8275007,38.3167671 L46.9173007,35.165655 L51.2000008,35.165655 L51.2000008,30.9641722 Z M34.2923005,22.7713009 L35.8598005,21.195594 L43.1020006,21.195594 L43.1020006,22.7713009 L34.2923005,22.7713009 Z M20.5932003,24.7557365 L12.9765002,17.0991584 L28.2096004,17.0991584 L20.5932003,24.7557365 Z M30.4263005,17.0991584 L37.7182006,17.0991584 L30.1015004,24.7557365 L26.4555004,21.0905469 L30.4263005,17.0991584 Z M45.1918007,18.3596233 C45.1918007,18.6965783 45.0614007,19.0130265 44.8246007,19.2510663 C44.5879007,19.4890055 44.2731007,19.6200883 43.9379007,19.6200883 L37.4270006,19.6200883 L39.9348006,17.0991584 L43.9379007,17.0991584 C44.6294007,17.0991584 45.1918007,17.6646034 45.1918007,18.3596233 Z M6.00820009,7.69849645 C6.00820009,4.36815085 8.70340013,1.65883982 12.0164002,1.65883982 L39.1837006,1.65883982 C42.4967006,1.65883982 45.1919007,4.36815085 45.1919007,7.69849645 L45.1919007,12.3725405 L6.00820009,12.3725405 L6.00820009,7.69849645 Z M43.1019006,13.9480463 L43.1019006,15.5234515 L8.09790012,15.5234515 L8.09790012,13.9480463 L43.1019006,13.9480463 Z M6.00820009,18.3596233 C6.00820009,18.0228694 6.13860009,17.7062202 6.37530009,17.4682809 C6.6122001,17.2302411 6.9270001,17.0991584 7.26210011,17.0991584 L10.7600002,17.0991584 L13.2678002,19.6200883 L7.26200011,19.6200883 C6.5706001,19.6200883 6.00820009,19.0546432 6.00820009,18.3596233 Z M6.00820009,24.9245156 L6.00820009,24.3468066 L15.1594002,24.3468066 L15.1594002,22.7713009 L8.09790012,22.7713009 L8.09790012,21.195594 L14.8351002,21.195594 L20.5932003,26.9838412 L25.3475004,22.2046495 L25.9110004,22.7710998 L24.9816004,22.7710998 L24.9816004,24.3466056 L27.4784004,24.3466056 L30.1018004,26.9837407 L32.7250005,24.3467061 L45.1919007,24.3467061 L45.1919007,24.924415 C45.1919007,28.2547606 42.4967006,30.9640717 39.1837006,30.9640717 L12.0163002,30.9640717 C8.70340013,30.9641722 6.00820009,28.2547606 6.00820009,24.9245156 Z M43.9887007,36.7411608 L7.21130011,36.7411608 L6.16640009,35.165655 L45.0338007,35.165655 L43.9887007,36.7411608 Z M49.6327007,33.5900487 L1.56730002,33.5900487 L1.56730002,32.539678 L12.0163002,32.539678 L39.1836006,32.539678 L49.6326007,32.539678 L49.6326007,33.5900487 L49.6327007,33.5900487 Z" id="Shape" fill="#000000" fill-rule="nonzero"></path>
                            </g>
                        </g>
                    </g>
                </g>
            </g>
        </g>
    </g>
</svg>