<?xml version="1.0" encoding="UTF-8"?>
<svg width="52px" height="42px" viewBox="0 0 52 42" version="1.1" xmlns="http://www.w3.org/2000/svg" xmlns:xlink="http://www.w3.org/1999/xlink">
    <!-- Generator: Sketch 62 (91390) - https://sketch.com -->
    <title>cake</title>
    <desc>Created with Sketch.</desc>
    <g id="Page-1" stroke="none" stroke-width="1" fill="none" fill-rule="evenodd">
        <g id="16.3-MAIN-UI---ALL-ITEM-(-ADD)-Copy-2" transform="translate(-508.000000, -1097.000000)">
            <g id="CREATE-ITEM" transform="translate(327.000000, 413.000000)">
                <g id="NOTIFICATION-BAR" transform="translate(66.000000, 545.000000)">
                    <g id="SET-1" transform="translate(23.000000, 34.000000)">
                        <g id="cake" transform="translate(92.000000, 105.000000)">
                            <g>
                                <path d="M33.3374005,40.8154006 C32.1497005,40.8154006 31.0639005,40.1441006 30.5331005,39.0815006 L27.2238004,32.4562005 L23.9763004,32.4562005 L20.6670003,39.0815006 C20.1362003,40.1441006 19.0504003,40.8154006 17.8627003,40.8154006" id="Shape" fill="#D9CCBC" fill-rule="nonzero"></path>
                                <rect id="Rectangle-path" fill="#FFDA44" fill-rule="nonzero" x="6.00820009" y="13.6478002" width="39.1837006" height="13.5837002"></rect>
                                <path d="M45.1918007,13.6482002 L45.1918007,18.3502003 C41.9265006,18.3502003 41.9265006,21.4849003 38.6612006,21.4849003 C35.3948005,21.4849003 35.3948005,18.3502003 32.1295005,18.3502003 C28.8642004,18.3502003 28.8642004,21.4849003 25.5989004,21.4849003 C22.3336003,21.4849003 22.3336003,18.3502003 19.0683003,18.3502003 C15.8040002,18.3502003 15.8040002,21.4849003 12.5387002,21.4849003 C9.27340014,21.4849003 9.27340014,18.3502003 6.00810009,18.3502003 L6.00810009,13.6482002 L45.1918007,13.6482002 L45.1918007,13.6482002 Z" id="Shape" fill="#0DD9DD" fill-rule="nonzero"></path>
                                <path d="M45.1918007,13.6481002 L45.1918007,18.3501003 C44.2932007,18.3501003 43.6422007,18.5873003 43.1020006,18.9321003 L43.1020006,13.6481002 L45.1918007,13.6481002 L45.1918007,13.6481002 Z" id="Shape" fill="#02A6AA" fill-rule="nonzero"></path>
                                <path d="M8.09800012,13.6481002 L8.09800012,18.9321003 C7.55780011,18.5872003 6.9068001,18.3501003 6.00820009,18.3501003 L6.00820009,13.6481002 L8.09800012,13.6481002 L8.09800012,13.6481002 Z" id="Shape" fill="#AAFFF5" fill-rule="nonzero"></path>
                                <path d="M45.1918007,18.3501003 L45.1918007,27.2317004 L43.1020006,27.2317004 L43.1020006,18.9321003 C43.6423007,18.5872003 44.2932007,18.3501003 45.1918007,18.3501003 Z" id="Shape" fill="#EEBF00" fill-rule="nonzero"></path>
                                <path d="M8.09800012,18.9321003 L8.09800012,27.2317004 L6.00820009,27.2317004 L6.00820009,18.3501003 C6.9068001,18.3501003 7.55770011,18.5872003 8.09800012,18.9321003 Z" id="Shape" fill="#FFF5CC" fill-rule="nonzero"></path>
                                <circle id="Oval" fill="#93298D" fill-rule="nonzero" cx="20.8980003" cy="25.1417004" r="2.08980003"></circle>
                                <path d="M21.8127003,23.2627003 C21.9475003,23.5390004 22.0232003,23.8493004 22.0232003,24.1774004 C22.0232003,25.3316004 21.0876003,26.2672004 19.9334003,26.2672004 C19.6053003,26.2672004 19.2950003,26.1914004 19.0187003,26.0567004 C19.3580003,26.7524004 20.0719003,27.2318004 20.8979003,27.2318004 C22.0521003,27.2318004 22.9877003,26.2962004 22.9877003,25.1420004 C22.9878003,24.3159004 22.5084003,23.6019004 21.8127003,23.2627003 Z" id="Shape" fill="#6C3166" fill-rule="nonzero"></path>
                                <circle id="Oval" fill="#93298D" fill-rule="nonzero" cx="16.7184002" cy="25.1417004" r="2.08980003"></circle>
                                <path d="M17.6331003,23.2627003 C17.7679003,23.5390004 17.8436003,23.8493004 17.8436003,24.1774004 C17.8436003,25.3316004 16.9080003,26.2672004 15.7538002,26.2672004 C15.4257002,26.2672004 15.1154002,26.1914004 14.8391002,26.0567004 C15.1784002,26.7524004 15.8923002,27.2318004 16.7183002,27.2318004 C17.8725003,27.2318004 18.8081003,26.2962004 18.8081003,25.1420004 C18.8082003,24.3159004 18.3288003,23.6019004 17.6331003,23.2627003 Z" id="Shape" fill="#6C3166" fill-rule="nonzero"></path>
                                <polyline id="Shape" fill="#EBE5DD" fill-rule="nonzero" points="41.2735006 29.8440004 41.2735006 32.4563005 9.92650015 32.4563005 9.92650015 29.8440004"></polyline>
                                <path d="M47.8041007,29.8440004 L3.39590005,29.8440004 C1.95320003,29.8440004 0.783700012,28.6744004 0.783700012,27.2318004 L0.783700012,27.2318004 L50.4164008,27.2318004 L50.4164008,27.2318004 C50.4163008,28.6745004 49.2468007,29.8440004 47.8041007,29.8440004 Z" id="Shape" fill="#EBE5DD" fill-rule="nonzero"></path>
                                <path d="M37.0937006,6.33370009 C37.0937006,10.3733002 33.8190005,13.6480002 29.7794004,13.6480002 L32.9141005,13.6480002 C36.9537006,13.6480002 40.2284006,10.3733002 40.2284006,6.33370009 L37.0937006,6.33370009 L37.0937006,6.33370009 Z" id="Shape" fill="#91DC5A" fill-rule="nonzero"></path>
                                <path d="M34.4769005,6.33380009 C33.6891005,8.14740012 31.8828005,9.41620014 29.7795004,9.41620014 C27.6761004,9.41620014 25.8698004,8.14740012 25.0821004,6.33380009 L22.4653003,6.33380009 C22.4653003,10.3734002 25.7400004,13.6481002 29.7796004,13.6481002 C33.8192005,13.6481002 37.0939006,10.3734002 37.0939006,6.33380009 L34.4769005,6.33380009 Z" id="Shape" fill="#FFF5CC" fill-rule="nonzero"></path>
                                <path d="M26.6451004,11.4968002 C23.7766004,14.3653002 19.1260003,14.3653002 16.2577002,11.4968002 C13.3892002,8.62830013 13.3892002,3.97770006 16.2577002,1.10940002 L26.6451004,11.4968002 Z" id="Shape" fill="#FFDA44" fill-rule="nonzero"></path>
                                <path d="M25.7848004,10.6365002 C22.9114003,12.7412002 18.8542003,12.4954002 16.2575002,9.89870015 C15.0268002,8.66800013 14.3248002,7.10920011 14.1500002,5.50400008 C13.9175002,7.64030011 14.6197002,9.85900015 16.2575002,11.4968002 C19.1260003,14.3653002 23.7766004,14.3653002 26.6449004,11.4968002 L25.7848004,10.6365002 Z" id="Shape" fill="#EEBF00" fill-rule="nonzero"></path>
                                <path d="M6.7918001,12.0598002 C6.7918001,10.9056002 7.72740012,9.46850014 8.88160013,9.46850014 C10.0358001,9.46850014 10.9714002,10.9057002 10.9714002,12.0598002 C10.9714002,13.2140002 10.0358001,13.6480002 8.88160013,13.6480002 C7.72740012,13.6480002 6.7918001,13.2139002 6.7918001,12.0598002 Z" id="Shape" fill="#FF505D" fill-rule="nonzero"></path>
                                <path d="M15.1510002,12.0598002 C15.1510002,10.9056002 16.0866002,9.46850014 17.2408003,9.46850014 C18.3950003,9.46850014 19.3306003,10.9057002 19.3306003,12.0598002 C19.3306003,13.2140002 18.3950003,13.6480002 17.2408003,13.6480002 C16.0866002,13.6480002 15.1510002,13.2139002 15.1510002,12.0598002 Z" id="Shape" fill="#FF505D" fill-rule="nonzero"></path>
                                <path d="M10.9714002,12.0598002 C10.9714002,10.9056002 11.9070002,9.46850014 13.0612002,9.46850014 C14.2154002,9.46850014 15.1510002,10.9057002 15.1510002,12.0598002 C15.1510002,13.2140002 14.2154002,13.6480002 13.0612002,13.6480002 C11.9070002,13.6480002 10.9714002,13.2139002 10.9714002,12.0598002 Z" id="Shape" fill="#FF505D" fill-rule="nonzero"></path>
                                <path d="M31.8694005,12.0598002 C31.8694005,10.9056002 32.8050005,9.46850014 33.9592005,9.46850014 C35.1134005,9.46850014 36.0490005,10.9057002 36.0490005,12.0598002 C36.0490005,13.2140002 35.1134005,13.6480002 33.9592005,13.6480002 C32.8050005,13.6480002 31.8694005,13.2139002 31.8694005,12.0598002 Z" id="Shape" fill="#FF505D" fill-rule="nonzero"></path>
                                <path d="M40.2286006,12.0598002 C40.2286006,10.9056002 41.1642006,9.46850014 42.3184006,9.46850014 C43.4726006,9.46850014 44.4082007,10.9057002 44.4082007,12.0598002 C44.4082007,13.2140002 43.4726006,13.6480002 42.3184006,13.6480002 C41.1642006,13.6480002 40.2286006,13.2139002 40.2286006,12.0598002 Z" id="Shape" fill="#FF505D" fill-rule="nonzero"></path>
                                <path d="M36.0490005,12.0598002 C36.0490005,10.9056002 36.9846006,9.46850014 38.1388006,9.46850014 C39.2930006,9.46850014 40.2286006,10.9057002 40.2286006,12.0598002 C40.2286006,13.2140002 39.2930006,13.6480002 38.1388006,13.6480002 C36.9846006,13.6480002 36.0490005,13.2139002 36.0490005,12.0598002 Z" id="Shape" fill="#FF505D" fill-rule="nonzero"></path>
                                <path d="M45.9755007,26.4481004 L45.9755007,12.8644002 L45.0636007,12.8644002 C45.1475007,12.6199002 45.1918007,12.3510002 45.1918007,12.0598002 C45.1918007,10.4990002 43.9366007,8.68480013 42.3183006,8.68480013 C41.4844006,8.68480013 40.7475006,9.16710014 40.2285006,9.84770015 C40.2248006,9.84290015 40.2212006,9.83800015 40.2174006,9.83320015 C40.7383006,8.74670013 41.0121006,7.54830011 41.0121006,6.33390009 L41.0121006,5.55020008 L37.8774006,5.55020008 L37.0937006,5.55020008 L33.9630005,5.55020008 L33.7580005,6.02080009 C33.6198005,6.33800009 33.4455005,6.6362001 33.2397005,6.9071001 L34.4883005,7.85460012 C34.6647005,7.62220011 34.8239005,7.37560011 34.9647005,7.11740011 L36.2640005,7.11740011 C36.1713005,7.89740012 35.9397005,8.64690013 35.5784005,9.34010014 C35.1209005,8.93950013 34.5655005,8.68460013 33.9591005,8.68460013 C32.3409005,8.68460013 31.0856005,10.4989002 31.0856005,12.0596002 C31.0856005,12.2928002 31.1139005,12.5118002 31.1682005,12.7155002 C30.7172005,12.8134002 30.2546005,12.8639002 29.7842004,12.8642002 L29.7742004,12.8642002 C28.8025004,12.8634002 27.8591004,12.6502002 26.9967004,12.2432002 C27.0647004,12.1798002 27.1331004,12.1169002 27.1991004,12.0507002 L27.7532004,11.4965002 L23.3740003,7.11730011 L24.5930004,7.11730011 C25.6201004,9.00560013 27.6029004,10.1997002 29.7797004,10.1997002 C30.1063004,10.1997002 30.4338005,10.1724002 30.7529005,10.1188002 L30.4930005,8.57310013 C30.2596005,8.61240013 30.0196004,8.63220013 29.7798004,8.63220013 C28.0515004,8.63220013 26.4896004,7.60730011 25.8007004,6.02120009 L25.5959004,5.54970008 L21.8068003,5.54970008 L16.2576002,0.000800000012 L15.7035002,0.554900008 C13.8321002,2.42630004 12.9878002,5.10170008 13.4451002,7.71120011 L14.9889002,7.44060011 C14.9682002,7.32260011 14.9511002,7.20460011 14.9370002,7.08640011 L19.5594003,7.08640011 L17.8681003,8.77770013 C17.6669003,8.71780013 17.4572003,8.68440013 17.2410003,8.68440013 C16.4071002,8.68440013 15.6702002,9.16670014 15.1512002,9.84730015 C14.6322002,9.16680014 13.8953002,8.68440013 13.0614002,8.68440013 C12.2275002,8.68440013 11.4906002,9.16670014 10.9716002,9.84730015 C10.4526002,9.16680014 9.71570014,8.68440013 8.88180013,8.68440013 C7.26360011,8.68440013 6.00830009,10.4987002 6.00830009,12.0594002 C6.00830009,12.3506002 6.05260009,12.6195002 6.13650009,12.8640002 L5.22450008,12.8640002 L5.22450008,26.4477004 L0,26.4477004 L0,27.2314004 C0,29.1040004 1.52350002,30.6273005 3.39590005,30.6273005 L9.14280014,30.6273005 L9.14280014,33.2395005 L22.7087003,33.2395005 L19.9657003,38.7309006 C19.5650003,39.5331006 18.7591003,40.0314006 17.8624003,40.0314006 L16.6660002,40.0314006 L16.6660002,41.5987006 L17.8625003,41.5987006 L33.3373005,41.5987006 L34.5337005,41.5987006 L34.5337005,40.0314006 L33.3372005,40.0314006 C32.4406005,40.0314006 31.6346005,39.5330006 31.2339005,38.7309006 L28.4909004,33.2395005 L42.0569006,33.2395005 L42.0569006,30.6273005 L47.8038007,30.6273005 C49.6763007,30.6273005 51.1997008,29.1039004 51.1997008,27.2314004 L51.1997008,26.4477004 L45.9752007,26.4477004 L45.9752007,26.4481004 L45.9755007,26.4481004 Z M29.7742004,14.4318002 C29.7760004,14.4318002 29.7779004,14.4319002 29.7796004,14.4319002 C29.7812004,14.4319002 29.7826004,14.4318002 29.7842004,14.4318002 L44.4082007,14.4318002 L44.4082007,17.6247003 C42.9633006,17.8401003 42.1300006,18.6362003 41.3838006,19.3523003 C40.5987006,20.1060003 39.9786006,20.7013003 38.6612006,20.7013003 C37.3432006,20.7013003 36.7228005,20.1059003 35.9375005,19.3520003 C35.0656005,18.5151003 34.0774005,17.5666003 32.1296005,17.5666003 C30.1817004,17.5666003 29.1934004,18.5153003 28.3216004,19.3523003 C27.5365004,20.1060003 26.9164004,20.7013003 25.5990004,20.7013003 C24.2816004,20.7013003 23.6616004,20.1060003 22.8764003,19.3523003 C22.0045003,18.5152003 21.0163003,17.5666003 19.0684003,17.5666003 C17.1210003,17.5666003 16.1331002,18.5152003 15.2614002,19.3521003 C14.4764002,20.1059003 13.8562002,20.7013003 12.5388002,20.7013003 C11.2214002,20.7013003 10.6012002,20.1060003 9.81620015,19.3523003 C9.07010014,18.6360003 8.23670012,17.8399003 6.7918001,17.6247003 L6.7918001,14.4318002 L29.7742004,14.4318002 L29.7742004,14.4318002 Z M20.6677003,12.8164002 C20.4556003,12.7912002 20.2441003,12.7556002 20.0337003,12.7094002 C20.0868003,12.5075002 20.1144003,12.2906002 20.1144003,12.0599002 C20.1144003,11.2330002 19.7619003,10.3348002 19.1898003,9.67300014 L20.6678003,8.19500012 L20.6677003,12.8164002 L20.6677003,12.8164002 Z M39.4449006,12.0598002 C39.4449006,12.2799002 39.4449006,12.8644002 38.1388006,12.8644002 C36.8327005,12.8644002 36.8327005,12.2799002 36.8327005,12.0598002 C36.8327005,11.2151002 37.5285006,10.2521002 38.1388006,10.2521002 C38.7491006,10.2522002 39.4449006,11.2152002 39.4449006,12.0598002 Z M42.3184006,10.2522002 C42.9287006,10.2522002 43.6245007,11.2152002 43.6245007,12.0599002 C43.6245007,12.2800002 43.6245007,12.8645002 42.3184006,12.8645002 C41.0123006,12.8645002 41.0123006,12.2800002 41.0123006,12.0599002 C41.0122006,11.2152002 41.7080006,10.2522002 42.3184006,10.2522002 Z M39.3978006,7.11760011 C39.3263006,7.71050011 39.1722006,8.28990012 38.9441006,8.83920013 C38.6896006,8.74070013 38.4199006,8.68490013 38.1388006,8.68490013 C37.9186006,8.68490013 37.7055006,8.71950013 37.5010006,8.78140013 C37.6714006,8.24330012 37.7846006,7.68650011 37.8388006,7.11760011 L39.3978006,7.11760011 L39.3978006,7.11760011 Z M33.9592005,10.2522002 C34.5695005,10.2522002 35.2653005,11.2152002 35.2653005,12.0599002 C35.2653005,12.2800002 35.2653005,12.8645002 33.9592005,12.8645002 C32.6531005,12.8645002 32.6531005,12.2800002 32.6531005,12.0599002 C32.6531005,11.2152002 33.3489005,10.2522002 33.9592005,10.2522002 Z M22.2350003,12.8149002 L22.2350003,8.19510012 L25.5032004,11.4633002 C24.5489004,12.2120002 23.4142003,12.6721002 22.2350003,12.8149002 Z M16.2909002,2.25110003 L19.5592003,5.51940008 L14.9400002,5.51940008 C15.0833002,4.33360006 15.5460002,3.20020005 16.2909002,2.25110003 Z M17.2408003,10.2522002 C17.8511003,10.2522002 18.5469003,11.2152002 18.5469003,12.0599002 C18.5469003,12.2800002 18.5469003,12.8645002 17.2408003,12.8645002 C15.9347002,12.8645002 15.9347002,12.2800002 15.9347002,12.0599002 C15.9347002,11.2152002 16.6305002,10.2522002 17.2408003,10.2522002 Z M13.0612002,10.2522002 C13.6715002,10.2522002 14.3673002,11.2152002 14.3673002,12.0599002 C14.3673002,12.2800002 14.3673002,12.8645002 13.0612002,12.8645002 C11.7551002,12.8645002 11.7551002,12.2800002 11.7551002,12.0599002 C11.7551002,11.2152002 12.4509002,10.2522002 13.0612002,10.2522002 Z M7.57550011,12.0598002 C7.57550011,11.2151002 8.27130012,10.2521002 8.88160013,10.2521002 C9.49190014,10.2521002 10.1877002,11.2151002 10.1877002,12.0598002 C10.1877002,12.2799002 10.1877002,12.8644002 8.88160013,12.8644002 C7.57550011,12.8644002 7.57550011,12.2799002 7.57550011,12.0598002 Z M6.7918001,19.2189003 C7.60810011,19.4079003 8.12030012,19.8968003 8.73070013,20.4829003 C9.60260014,21.3200003 10.5908002,22.2686003 12.5387002,22.2686003 C14.4868002,22.2686003 15.4750002,21.3198003 16.3468002,20.4827003 C17.1316003,19.7291003 17.7516003,19.1339003 19.0682003,19.1339003 C20.3856003,19.1339003 21.0057003,19.7292003 21.7908003,20.4829003 C22.6627003,21.3200003 23.6509004,22.2686003 25.5988004,22.2686003 C27.5467004,22.2686003 28.5350004,21.3199003 29.4068004,20.4829003 C30.1919004,19.7292003 30.8120005,19.1339003 32.1294005,19.1339003 C33.4467005,19.1339003 34.0668005,19.7291003 34.8520005,20.4828003 C35.7241005,21.3199003 36.7125005,22.2686003 38.6611006,22.2686003 C40.6090006,22.2686003 41.5973006,21.3199003 42.4691006,20.4829003 C43.0795006,19.8969003 43.5917006,19.4080003 44.4080007,19.2189003 L44.4080007,26.4481004 L23.4560003,26.4481004 C23.6570004,26.0559004 23.7712004,25.6122004 23.7712004,25.1421004 C23.7712004,23.5577004 22.4822003,22.2686003 20.8977003,22.2686003 C20.6549003,22.2686003 20.3437003,22.3267003 20.2838003,22.3383003 L20.5826003,23.8769004 C20.6706003,23.8599004 20.8330003,23.8359004 20.8976003,23.8359004 C21.6178003,23.8359004 22.2037003,24.4218004 22.2037003,25.1420004 C22.2037003,25.8615004 21.6189003,26.4469004 20.8996003,26.4480004 L20.8959003,26.4480004 C20.7858003,26.4479004 20.6759003,26.4341004 20.5697003,26.4068004 L20.5507003,26.4019004 C19.9849003,26.2461004 19.5915003,25.7309004 19.5915003,25.1419004 L19.5915003,25.1419004 L19.5915003,25.1418004 C19.5915003,23.5574004 18.3025003,22.2683003 16.7180002,22.2683003 C15.1335002,22.2683003 13.8445002,23.5574004 13.8445002,25.1418004 C13.8445002,25.6120004 13.9587002,26.0557004 14.1599002,26.4479004 L6.7918001,26.4479004 L6.7918001,19.2189003 Z M15.4122002,25.1420004 C15.4122002,24.4218004 15.9981002,23.8359004 16.7183002,23.8359004 C17.4385003,23.8359004 18.0244003,24.4218004 18.0244003,25.1420004 C18.0244003,25.8622004 17.4385003,26.4481004 16.7183002,26.4481004 C15.9981002,26.4481004 15.4122002,25.8621004 15.4122002,25.1420004 Z M29.8319004,39.4317006 C29.9388004,39.6457006 30.0647004,39.8451006 30.2040005,40.0318006 L20.9957003,40.0318006 C21.1351003,39.8451006 21.2610003,39.6457006 21.3679003,39.4317006 L24.4607004,33.2400005 L26.7392004,33.2400005 L29.8319004,39.4317006 Z M40.4898006,31.6726005 L27.7083004,31.6726005 L23.4917004,31.6726005 L10.7102002,31.6726005 L10.7102002,30.6277005 L40.4898006,30.6277005 L40.4898006,31.6726005 Z M47.8041007,29.0603004 L3.39590005,29.0603004 C2.66790004,29.0603004 2.03780003,28.6326004 1.74390003,28.0154004 L20.8942003,28.0154004 C20.8955003,28.0154004 20.8967003,28.0155004 20.8980003,28.0155004 C20.8994003,28.0155004 20.9007003,28.0154004 20.9021003,28.0154004 L49.4561007,28.0154004 C49.1621007,28.6327004 48.5321007,29.0603004 47.8041007,29.0603004 Z" id="Shape" fill="#000000" fill-rule="nonzero"></path>
                            </g>
                        </g>
                    </g>
                </g>
            </g>
        </g>
    </g>
</svg>