<?xml version="1.0" encoding="UTF-8"?>
<svg width="52px" height="41px" viewBox="0 0 52 41" version="1.1" xmlns="http://www.w3.org/2000/svg" xmlns:xlink="http://www.w3.org/1999/xlink">
    <!-- Generator: Sketch 62 (91390) - https://sketch.com -->
    <title>canape</title>
    <desc>Created with Sketch.</desc>
    <g id="Page-1" stroke="none" stroke-width="1" fill="none" fill-rule="evenodd">
        <g id="16.3-MAIN-UI---ALL-ITEM-(-ADD)-Copy-2" transform="translate(-746.000000, -1098.000000)">
            <g id="CREATE-ITEM" transform="translate(327.000000, 413.000000)">
                <g id="NOTIFICATION-BAR" transform="translate(66.000000, 545.000000)">
                    <g id="SET-1" transform="translate(23.000000, 34.000000)">
                        <g id="canape" transform="translate(330.000000, 106.000000)">
                            <g>
                                <ellipse id="Oval" fill="#FFFFFF" fill-rule="nonzero" cx="25.6000004" cy="26.7790703" rx="24.8163004" ry="13.2305559"></ellipse>
                                <path d="M25.6000004,13.5485145 C20.9971003,13.5485145 16.6881002,14.2173933 12.9931002,15.3816002 C15.6243002,14.8751175 18.4617003,14.5985618 21.4204003,14.5985618 C35.1261005,14.5985618 46.2367007,20.5220988 46.2367007,27.8291177 C46.2367007,32.6822074 41.3346006,36.9242015 34.0273005,39.2265878 C43.5845006,37.38697 50.4163008,32.5086566 50.4163008,26.7790703 C50.4163008,19.4720515 39.3057006,13.5485145 25.6000004,13.5485145 Z" id="Shape" fill="#EBE5DD" fill-rule="nonzero"></path>
                                <path d="M7.90700012,23.2255511 L7.90700012,26.8137403 C7.90700012,31.7235079 15.8285002,35.7038193 25.6000004,35.7038193 C35.3715005,35.7038193 43.2930006,31.7236084 43.2930006,26.8137403 L43.2930006,23.2255511 L7.90700012,23.2255511 L7.90700012,23.2255511 Z" id="Shape" fill="#E21220" fill-rule="nonzero"></path>
                                <ellipse id="Oval" fill="#FF505D" fill-rule="nonzero" cx="25.6000004" cy="23.2256516" rx="17.6933003" ry="8.88967698"></ellipse>
                                <path d="M37.0216006,16.4365717 C39.6297006,17.9852633 41.2032006,19.9877796 41.2032006,22.1755038 C41.2032006,27.0852713 33.2817005,31.0654822 23.5102004,31.0654822 C19.1564003,31.0654822 15.1708002,30.2749069 12.0886002,28.9644832 C15.3341002,30.89163 20.1822003,32.1155295 25.6000004,32.1155295 C35.3716005,32.1155295 43.2930006,28.1353186 43.2930006,23.2255511 C43.2930006,20.5032062 40.8571006,18.0673658 37.0216006,16.4365717 Z" id="Shape" fill="#E21220" fill-rule="nonzero"></path>
                                <polygon id="Shape" fill="#FFDA44" fill-rule="nonzero" points="25.6000004 33.6038251 7.57550011 20.4781836 25.6000004 7.35264247 43.6245007 20.4781836"></polygon>
                                <path d="M13.5837002,18.5881185 L13.5837002,21.7382604 C13.5837002,25.0728063 18.9636003,27.7760576 25.6000004,27.7760576 C32.2364005,27.7760576 37.6163006,25.0728063 37.6163006,21.7382604 L37.6163006,18.5881185" id="Shape" fill="#3FC378" fill-rule="nonzero"></path>
                                <path d="M34.4816005,18.5881185 L34.4816005,21.7382604 C34.4816005,24.8058979 29.9285004,27.3390152 24.0326004,27.7250073 C24.5456004,27.7584713 25.0687004,27.7760576 25.5999004,27.7760576 C32.2364005,27.7760576 37.6162006,25.0728063 37.6162006,21.7382604 L37.6162006,18.5881185 L34.4816005,18.5881185 Z" id="Shape" fill="#2B8C4A" fill-rule="nonzero"></path>
                                <ellipse id="Oval" fill="#C9EEAE" fill-rule="nonzero" cx="25.6000004" cy="18.588621" rx="12.0163002" ry="6.03779713"></ellipse>
                                <path d="M32.9875005,13.8260751 C34.5784005,14.8500948 35.5265005,16.1384101 35.5265005,17.5380712 C35.5265005,20.8726171 30.1466004,23.5758683 23.5102004,23.5758683 C20.7246003,23.5758683 18.1605003,23.0994329 16.1227002,22.3002151 C18.3218003,23.7156536 21.7493003,24.6259156 25.6000004,24.6259156 C32.2365005,24.6259156 37.6163006,21.9226644 37.6163006,18.5881185 C37.6163006,16.6532337 35.8047005,14.9311923 32.9875005,13.8260751 Z" id="Shape" fill="#A4E276" fill-rule="nonzero"></path>
                                <path d="M22.4960003,20.4000003 C22.4960003,20.4000003 20.9233003,20.6003826 20.4998003,20.8476949 C20.0770003,21.0947057 20.0105003,21.4555747 20.3506003,21.6528417 C20.6914003,21.8507117 21.3113003,21.8106151 21.7341003,21.5638052 C22.1577003,21.3164929 22.4960003,20.4000003 22.4960003,20.4000003" id="Shape" fill="#000000" fill-rule="nonzero"></path>
                                <path d="M30.8486005,15.5227923 C30.5085005,15.3255254 29.8888004,15.3653204 29.4659004,15.6122308 C29.0424004,15.8596436 28.7040004,16.7752318 28.7040004,16.7752318 C28.7040004,16.7752318 30.2767005,16.5757539 30.7002005,16.3283411 C31.1230005,16.0813303 31.1895005,15.7204613 30.8486005,15.5227923" id="Shape" fill="#000000" fill-rule="nonzero"></path>
                                <path d="M21.2622003,18.5879175 C21.2622003,18.5879175 19.9032003,18.0819372 19.3035003,18.0819372 C18.7023003,18.0819372 18.2176003,18.3086485 18.2184003,18.588018 C18.2191003,18.7076042 18.3088003,18.8175431 18.4581003,18.9041678 C18.6581003,19.0202367 18.9651003,19.0945008 19.3083003,19.0945008 C19.9090003,19.0939983 21.2622003,18.5879175 21.2622003,18.5879175" id="Shape" fill="#000000" fill-rule="nonzero"></path>
                                <path d="M32.7416005,18.2719687 C32.5417005,18.1560003 32.2348005,18.0817362 31.8915005,18.0817362 C31.2911005,18.0821382 29.9377004,18.5883195 29.9377004,18.5883195 C29.9377004,18.5883195 31.2967005,19.0942998 31.8971005,19.0938978 C32.4976005,19.0942998 32.9822005,18.8675885 32.9807005,18.587817 C32.9803005,18.4683313 32.8908005,18.3585934 32.7416005,18.2719687" id="Shape" fill="#000000" fill-rule="nonzero"></path>
                                <path d="M21.7019003,15.6127332 C21.2756003,15.3654209 20.6568003,15.3255254 20.3181003,15.5232948 C19.9794003,15.7210643 20.0500003,16.0810288 20.4763003,16.3284416 C20.9019003,16.575352 22.4768003,16.7757342 22.4768003,16.7757342 C22.4768003,16.7757342 22.1275003,15.8596436 21.7019003,15.6127332" id="Shape" fill="#000000" fill-rule="nonzero"></path>
                                <path d="M30.7237005,20.8476949 C30.2982005,20.6007845 28.7231004,20.4004023 28.7231004,20.4004023 C28.7231004,20.4004023 29.0725004,21.3164929 29.4981004,21.5634033 C29.9244004,21.8107156 30.5431005,21.8506112 30.8818005,21.6528417 C31.2205005,21.4550722 31.1491005,21.0946052 30.7237005,20.8476949" id="Shape" fill="#000000" fill-rule="nonzero"></path>
                                <path d="M25.6151004,21.1130959 C25.6151004,21.1130959 24.7501004,21.9025658 24.7513004,22.2520791 C24.7524004,22.4518585 24.8811004,22.6303333 25.0810004,22.7463018 C25.2302004,22.8329264 25.4191004,22.8845797 25.6243004,22.8843787 C26.1050004,22.8843787 26.4929004,22.601492 26.4909004,22.2514762 C26.4890004,21.9023649 25.6151004,21.1130959 25.6151004,21.1130959" id="Shape" fill="#000000" fill-rule="nonzero"></path>
                                <ellipse id="Oval" fill="#57565C" fill-rule="nonzero" cx="25.6000004" cy="14.3885322" rx="3.65710005" ry="4.20018923"></ellipse>
                                <path d="M25.9473004,10.2072356 C26.6959004,10.9763056 27.1673004,12.0937834 27.1673004,13.3379825 C27.1673004,15.6577539 25.5299004,17.5381717 23.5102004,17.5381717 C23.3930003,17.5381717 23.2772003,17.5312377 23.1629003,17.5187766 C23.8098004,18.1835352 24.6637004,18.588219 25.6000004,18.588219 C27.6198004,18.588219 29.2571004,16.7078012 29.2571004,14.3880298 C29.2571004,12.2028179 27.8041004,10.4082208 25.9473004,10.2072356 Z" id="Shape" fill="#3E3D42" fill-rule="nonzero"></path>
                                <path d="M46.7901007,18.8647747 C44.1056007,16.7053894 40.3771006,15.0091746 36.0008005,13.9539017 L28.1495004,8.236475 L27.2299004,9.51182674 L31.2613005,12.4476179 C30.7104005,12.3064258 30.1353004,12.1846288 29.5369004,12.0845381 C28.9109004,10.7402484 27.7557004,9.75511936 26.3836004,9.47946812 L26.3836004,0.00231133008 L24.8163004,0.00231133008 L24.8163004,9.47956861 C23.4441003,9.75521985 22.2889003,10.7403489 21.6630003,12.0846386 C21.0646003,12.1847292 20.4895003,12.3065263 19.9386003,12.4477184 L23.9700004,9.51192724 L23.0504003,8.23657549 L6.24000009,20.4781836 L7.45410011,21.3623176 C7.23440011,21.9727097 7.12310011,22.5967688 7.12310011,23.2250486 C7.12310011,23.2307767 7.12340011,23.2364043 7.12340011,23.2421324 L7.12340011,26.8136398 C7.12340011,29.5022192 9.11770014,31.9847887 12.7387002,33.8043079 C16.1872002,35.5370015 20.7547003,36.4912794 25.6000004,36.4912794 C30.4453005,36.4912794 35.0129005,35.5370015 38.4613006,33.8043079 C42.0823006,31.9847887 44.0766007,29.5020182 44.0766007,26.8136398 L44.0766007,23.2391176 C44.0766007,23.2343944 44.0769007,23.2297718 44.0769007,23.2250486 C44.0769007,22.5966683 43.9656007,21.9725087 43.7459007,21.3623176 L44.9600007,20.4781836 L39.9294006,16.8148259 C45.9449007,19.1448476 49.6326007,22.8293087 49.6326007,26.7795728 C49.6326007,30.0077975 47.1991007,33.0830724 42.7806006,35.4390212 C38.2044006,37.8788814 32.1028005,39.2225681 25.6000004,39.2225681 C19.0972003,39.2225681 12.9956002,37.8787809 8.41940013,35.4389207 C4.00080006,33.0830724 1.56740002,30.0077975 1.56740002,26.7794723 C1.56740002,23.1497797 4.68030007,19.6951451 10.1077002,17.3015116 L9.47790014,15.8591411 C3.45450005,18.5156633 0,22.4959747 0,26.7795728 C0,30.6188931 2.72920004,34.1882902 7.68480011,36.8304419 C12.4833002,39.3887829 18.8457003,40.7976893 25.6000004,40.7976893 C32.3543005,40.7976893 38.7167006,39.3887829 43.5152006,36.8304419 C48.4708007,34.1881897 51.2000008,30.6186921 51.2000008,26.7795728 C51.2000008,23.9222664 49.6751007,21.1854506 46.7901007,18.8647747 Z M25.6000004,10.9753007 C27.1844004,10.9753007 28.4735004,12.5062051 28.4735004,14.3879293 C28.4735004,16.2696534 27.1844004,17.8006584 25.6000004,17.8006584 C24.0156004,17.8006584 22.7265003,16.2697539 22.7265003,14.3880298 C22.7265003,12.5063056 24.0156004,10.9753007 25.6000004,10.9753007 Z M24.8163004,19.2962899 L24.8163004,20.8865855 L26.3836004,20.8865855 L26.3836004,19.2962899 C28.4596004,18.8791451 30.0407004,16.8377382 30.0407004,14.3879293 C30.0407004,14.180211 30.0280004,13.9759096 30.0059004,13.7748239 C34.0228005,14.6077066 36.8325005,16.547616 36.8325005,18.5881185 C36.8325005,19.8681934 35.7076005,21.1676634 33.7461005,22.1530939 C31.5833005,23.2399215 28.6902004,23.838355 25.5999004,23.838355 C22.5096003,23.838355 19.6165003,23.2399215 17.4537003,22.1530939 C15.4921002,21.1676634 14.3673002,19.8681934 14.3673002,18.5881185 C14.3673002,16.547616 17.1769003,14.6077066 21.1939003,13.7748239 C21.1719003,13.9759096 21.1591003,14.180211 21.1591003,14.3879293 C21.1592003,16.8377382 22.7403003,18.8792456 24.8163004,19.2962899 Z M14.3755002,21.9176397 C16.5337002,24.0186388 20.7049003,25.4134762 25.6000004,25.4134762 C30.4951005,25.4134762 34.6663005,24.0187393 36.8245005,21.9176397 C36.7250005,23.1389265 35.6162005,24.3637304 33.7463005,25.3032358 C31.5835005,26.3900634 28.6904004,26.9885974 25.6000004,26.9885974 C22.5096003,26.9885974 19.6165003,26.3900634 17.4537003,25.3032358 C15.5838002,24.3637304 14.4750002,23.1389265 14.3755002,21.9176397 Z M25.6000004,28.5636182 C28.2595004,28.5636182 30.7050005,28.1516989 32.7305005,27.4388043 L25.6000004,32.6312576 L18.4695003,27.4388043 C20.4950003,28.1515984 22.9405003,28.5636182 25.6000004,28.5636182 Z M12.9464002,17.5395786 C12.8513002,17.8816554 12.8000002,18.2316712 12.8000002,18.5881185 L12.8000002,21.7382604 C12.8000002,22.4148772 12.9765002,23.0655668 13.3055002,23.6784713 L8.91100013,20.4781836 L12.9464002,17.5395786 Z M37.7603006,32.3956025 C34.5253005,34.0210705 30.2066005,34.9163591 25.6000004,34.9163591 C20.9934003,34.9163591 16.6747002,34.021171 13.4397002,32.3956025 C10.5723002,30.9548399 8.91120013,29.1252714 8.71130013,27.2063649 C10.6575002,29.5118664 14.2871002,31.3532931 19.0099003,32.2807394 L19.3105003,30.734962 C12.9680002,29.4894566 8.70370013,26.4787984 8.69060013,23.2399215 L8.69060013,23.2254506 L8.69040013,23.2254506 L8.69040013,23.2250486 C8.69040013,22.9296003 8.72600013,22.6337501 8.79620013,22.3395077 L25.6000004,34.5762921 L28.0082004,32.8226961 C32.2988005,32.5353877 36.2597005,31.4769995 39.1829006,29.8324379 C40.5664006,29.0541226 41.6775006,28.1659689 42.4891006,27.2045561 C42.2897006,29.124166 40.6286006,30.9544379 37.7603006,32.3956025 Z M42.5096006,23.2251491 L42.5096006,23.2255511 L42.5093006,23.2255511 L42.5093006,23.2372082 C42.4978006,26.7631925 37.4448006,29.9186605 30.5629005,30.9622763 L42.4039006,22.3396082 C42.4740006,22.6338506 42.5096006,22.9298013 42.5096006,23.2251491 Z M37.8944006,23.6784713 C38.2234006,23.0655668 38.4000006,22.4150782 38.4000006,21.7382604 L38.4000006,18.5881185 C38.4000006,18.2315707 38.3487006,17.8815549 38.2536006,17.5395786 L42.2890006,20.478284 L37.8944006,23.6784713 Z" id="Shape" fill="#000000" fill-rule="nonzero"></path>
                                <ellipse id="Oval" fill="#000000" fill-rule="nonzero" cx="24.5551004" cy="13.3384849" rx="1" ry="1"></ellipse>
                            </g>
                        </g>
                    </g>
                </g>
            </g>
        </g>
    </g>
</svg>