<?xml version="1.0" encoding="UTF-8"?>
<svg width="47px" height="57px" viewBox="0 0 47 57" version="1.1" xmlns="http://www.w3.org/2000/svg" xmlns:xlink="http://www.w3.org/1999/xlink">
    <!-- Generator: Sketch 62 (91390) - https://sketch.com -->
    <title>6 chinese noodles</title>
    <desc>Created with Sketch.</desc>
    <g id="Page-1" stroke="none" stroke-width="1" fill="none" fill-rule="evenodd">
        <g id="16.3-MAIN-UI---ALL-ITEM-(-ADD)-Copy-2" transform="translate(-431.000000, -1082.000000)">
            <g id="CREATE-ITEM" transform="translate(327.000000, 413.000000)">
                <g id="NOTIFICATION-BAR" transform="translate(66.000000, 545.000000)">
                    <g id="SET-1" transform="translate(23.000000, 34.000000)">
                        <g id="6-chinese-noodles" transform="translate(15.000000, 90.000000)">
                            <g>
                                <g id="Group" transform="translate(25.850001, 0.000000)" fill="#EAAD7A" fill-rule="nonzero">
                                    <path d="M17.6442206,3.92194014 C17.8624607,3.31188012 17.5428006,2.6415401 16.9326306,2.42330009 C16.3224606,2.20671008 15.6504706,2.52472009 15.4338806,3.13478011 L15.4338806,3.13654011 L3.62461013,36.2947213 L5.83495021,37.0818814 L17.6442206,3.92194014 L17.6442206,3.92194014 L17.6442206,3.92194014 Z" id="Path"></path>
                                    <path d="M14.0486505,1.56739006 C14.2652405,0.957220035 13.9472305,0.28688001 13.3370605,0.0686400025 C12.7252405,-0.147950005 12.0549004,0.170060006 11.8365504,0.780230029 L11.8365504,0.780230029 L0.027500001,33.9401712 L2.23949008,34.7273313 L14.0486505,1.56739006 L14.0486505,1.56739006 Z" id="Path"></path>
                                </g>
                                <path d="M31.7537012,36.3738113 C26.576991,36.3738113 22.3661908,32.1630112 22.3661908,26.987071 C22.3661908,21.8102508 26.577101,17.5994506 31.7537012,17.5994506 C36.9288714,17.5994506 41.1395615,21.8102508 41.1395615,26.987071 C41.1395615,32.1630112 36.9288714,36.3738113 31.7537012,36.3738113 Z" id="Path" fill="#FFCE54" fill-rule="nonzero"></path>
                                <path d="M31.7537012,20.8839408 C28.383411,20.8839408 25.6506809,23.6166709 25.6506809,26.987071 C25.6506809,30.3582411 28.383521,33.0894312 31.7537012,33.0894312 C35.1242113,33.0894312 37.8550714,30.3583511 37.8550714,26.987071 C37.8550714,23.6166709 35.1242113,20.8839408 31.7537012,20.8839408 Z M31.7537012,30.7432411 C29.6826211,30.7432411 27.998411,29.0581511 27.998411,26.987071 C27.998411,24.9159909 29.6826211,23.2300208 31.7537012,23.2300208 C33.8247812,23.2300208 35.5092113,24.9161009 35.5092113,26.987071 C35.5092113,29.0581511 33.8247812,30.7432411 31.7537012,30.7432411 Z" id="Shape" fill="#F6BB42" fill-rule="nonzero"></path>
                                <path d="M42.3134815,26.987071 C42.3134815,21.1537708 37.5852414,16.4272906 31.7537012,16.4272906 C25.9221609,16.4272906 21.1940308,21.1537708 21.1940308,26.987071 C21.1940308,32.8194912 25.9221609,37.5477314 31.7537012,37.5477314 C34.8285313,37.5477314 37.5954714,36.2329013 39.5256414,34.1344312 L38.3688814,32.9776712 L42.0624615,29.2833211 C42.2258115,28.544231 42.3134815,27.775991 42.3134815,26.987071 Z M37.5611514,32.7955112 C36.0093813,34.3458513 33.9468812,35.1998913 31.7537012,35.1998913 C29.5588711,35.1998913 27.496591,34.3457413 25.9462509,32.7955112 C24.3942609,31.2434111 23.5400009,29.1801411 23.5400009,26.987071 C23.5400009,24.7923509 24.3941509,22.7298508 25.9462509,21.1796208 C27.496591,19.6276307 29.5588711,18.7733707 31.7537012,18.7733707 C33.9468812,18.7733707 36.0093813,19.6276307 37.5611514,21.1796208 C39.1114914,22.7298508 39.9656415,24.7923509 39.9656415,26.987071 C39.9656415,29.1801411 39.1114914,31.2434111 37.5611514,32.7955112 Z" id="Shape" fill="#F6BB42" fill-rule="nonzero"></path>
                                <path d="M17.6740306,37.5477314 C11.2030604,37.5477314 5.94044022,32.2833512 5.94044022,25.8132609 C5.94044022,19.3440507 11.2030604,14.0796705 17.6740306,14.0796705 C24.1432409,14.0796705 29.4058611,19.3440507 29.4058611,25.8132609 C29.4058611,32.2832412 24.1432409,37.5477314 17.6740306,37.5477314 Z" id="Path" fill="#FFCE54" fill-rule="nonzero"></path>
                                <path d="M17.6740306,17.5994506 C13.1366405,17.5994506 9.46033035,21.2775208 9.46033035,25.8131509 C9.46033035,30.3496611 13.1366405,34.0277312 17.6740306,34.0277312 C22.2096608,34.0277312 25.8860809,30.3495511 25.8860809,25.8131509 C25.8860809,21.2775208 22.2097708,17.5994506 17.6740306,17.5994506 Z M17.6740306,31.6800012 C14.4394805,31.6800012 11.8064104,29.0478111 11.8064104,25.8132609 C11.8064104,22.5787108 14.4394805,19.9472907 17.6740306,19.9472907 C20.9086908,19.9472907 23.5400009,22.5786008 23.5400009,25.8132609 C23.5400009,29.0479211 20.9086908,31.6800012 17.6740306,31.6800012 Z" id="Shape" fill="#F6BB42" fill-rule="nonzero"></path>
                                <path d="M17.6740306,12.9074005 C10.5448204,12.9074005 4.76652017,18.6857007 4.76652017,25.8132609 C4.76652017,27.033491 4.93669018,28.214341 5.25294019,29.3331511 L7.41169027,29.3331511 L7.41169027,33.6411912 C9.76976036,36.7280113 13.4890805,38.7198914 17.6740306,38.7198914 C24.8014809,38.7198914 30.5797811,32.9417012 30.5797811,25.8132609 C30.5797811,18.6857007 24.8015909,12.9074005 17.6740306,12.9074005 Z M25.1401709,33.2818212 C23.1464208,35.2754613 20.4945407,36.3737013 17.6740306,36.3737013 C14.8536305,36.3737013 12.2016404,35.2754613 10.2062404,33.2818212 C8.2124903,31.2863111 7.11425026,28.633551 7.11425026,25.8131509 C7.11425026,22.9927508 8.2124903,20.3407607 10.2062404,18.3470107 C12.2016404,16.3516106 14.8536305,15.2533706 17.6740306,15.2533706 C20.4944307,15.2533706 23.1464208,16.3516106 25.1401709,18.3470107 C27.135681,20.3407607 28.233921,22.9926408 28.233921,25.8131509 C28.233921,28.633661 27.135681,31.2864211 25.1401709,33.2818212 Z" id="Shape" fill="#F6BB42" fill-rule="nonzero"></path>
                                <g id="Group" transform="translate(0.000000, 19.580001)" fill="#ED5564" fill-rule="nonzero">
                                    <path d="M46.9951917,1.17337004 C46.9951917,0.525470019 46.4709317,-0.000440000016 45.8232517,-0.000440000016 C45.3952417,-0.000440000016 45.0223416,0.229900008 44.8177416,0.571890021 L44.8159816,0.571890021 L37.7966614,12.3046005 L39.8109815,13.5094305 L46.8301917,1.77661006 L46.8284317,1.77485006 C46.9332617,1.59962006 46.9951917,1.39337005 46.9951917,1.17337004 Z" id="Path"></path>
                                    <path d="M2.26237008,0.571780021 C2.05788008,0.229790008 1.68487006,-0.00055000002 1.25697005,-0.00055000002 C0.608960022,-0.00055000002 0.0848100031,0.525360019 0.0848100031,1.17326004 C0.0848100031,1.39326005 0.146630005,1.59951006 0.251570009,1.77485006 L0.249810009,1.77661006 L7.26902027,13.5094305 L9.28334034,12.3046005 L2.26413008,0.571780021 L2.26237008,0.571780021 Z" id="Path"></path>
                                </g>
                                <polygon id="Path" fill="#DA4453" fill-rule="nonzero" points="30.5694411 21.1194508 16.4898806 21.1194508 7.10402026 32.8539212 9.45010035 56.3193421 37.6092214 56.3193421 39.9553015 32.8539212"></polygon>
                                <polygon id="Path" fill="#ED5564" fill-rule="nonzero" points="39.9553015 32.8539212 7.10402026 32.8539212 16.4898806 21.1194508 30.4749511 21.1194508"></polygon>
                            </g>
                        </g>
                    </g>
                </g>
            </g>
        </g>
    </g>
</svg>