<?xml version="1.0" encoding="UTF-8"?>
<svg width="45px" height="52px" viewBox="0 0 45 52" version="1.1" xmlns="http://www.w3.org/2000/svg" xmlns:xlink="http://www.w3.org/1999/xlink">
    <!-- Generator: Sketch 62 (91390) - https://sketch.com -->
    <title>cocktail-1</title>
    <desc>Created with Sketch.</desc>
    <g id="Page-1" stroke="none" stroke-width="1" fill="none" fill-rule="evenodd">
        <g id="16.3-MAIN-UI---ALL-ITEM-(-ADD)-Copy-2" transform="translate(-1060.000000, -1555.000000)">
            <g id="CREATE-ITEM" transform="translate(327.000000, 413.000000)">
                <g id="NOTIFICATION-BAR" transform="translate(66.000000, 545.000000)">
                    <g id="SET-3" transform="translate(23.000000, 485.000000)">
                        <g id="cocktail-1" transform="translate(644.000000, 112.000000)">
                            <g>
                                <ellipse id="Oval" fill="#FFFFFF" fill-rule="nonzero" cx="19.7333891" cy="47.8041" rx="7.87216018" ry="2.6122"></ellipse>
                                <polygon id="Shape" fill="#FF505D" fill-rule="nonzero" points="29.9671873 0.7837 43.612352 0.7837 43.612352 14.3673"></polygon>
                                <polygon id="Shape" fill="#E21220" fill-rule="nonzero" points="43.612352 0.7837 43.612352 14.3673 36.7898199 7.5755"></polygon>
                                <path d="M30.2296697,20.6639 L26.0311575,24.8435 C26.0311575,26.5749 25.3268851,28.1422 24.1869502,29.277 C23.0470154,30.4107 21.4726235,31.1129 19.7333891,31.1129 C17.9941548,31.1129 16.4197629,30.4107 15.2798281,29.277 C14.1398932,28.1422 13.4356208,26.5749 13.4356208,24.8435 L9.2371086,20.6639 L30.2296697,20.6639 L30.2296697,20.6639 Z" id="Shape" fill="#91DC5A" fill-rule="nonzero"></path>
                                <path d="M26.0311575,20.6639 L23.9319014,22.7537 C23.9319014,24.4851 23.227629,26.0524 22.0876941,27.1872 C20.9477593,28.3209 19.3733674,29.0231 17.634133,29.0231 C16.4326208,29.0231 15.3100643,28.6877 14.3547611,28.1067 C14.6161385,28.5328 14.9269385,28.9257 15.2798281,29.2769 C16.4197629,30.4106 17.9941548,31.1128 19.7333891,31.1128 C21.4726235,31.1128 23.0470154,30.4106 24.1869502,29.2769 C25.3268851,28.1421 26.0311575,26.5748 26.0311575,24.8434 L30.2296697,20.6638 L26.0311575,20.6638 L26.0311575,20.6639 L26.0311575,20.6639 Z" id="Shape" fill="#6DC82A" fill-rule="nonzero"></path>
                                <path d="M0.787647964,17.5293 C0.787647964,14.6439 3.13733213,12.3048 6.03578824,12.3048 C8.93424434,12.3048 11.2839285,14.6439 11.2839285,17.5293 L0.787647964,17.5293 Z" id="Shape" fill="#FFDA44" fill-rule="nonzero"></path>
                                <path d="M44.3995982,16.2592 L44.3995982,0 L28.0666262,0 L35.6764045,7.5755 L25.1848452,18.0199 L26.2981602,19.1282 L29.2164054,16.2231 L32.5913077,16.2231 L32.5913077,17.2047 L29.9036009,19.8803 L12.3859928,19.8803 L12.3859928,21.4476 L28.329209,21.4476 L25.2439113,24.5189 L25.2439113,24.8434 C25.2439113,26.3092 24.6708299,27.6869 23.6305439,28.7226 C22.5888516,29.7586 21.2048172,30.3291 19.7333891,30.3291 C18.2619611,30.3291 16.8779267,29.7585 15.8364353,28.7228 C14.795848,27.687 14.222867,26.3093 14.222867,24.8435 L14.222867,24.519 L8.74408778,19.0649 L7.6308733,20.1732 L12.6561095,25.1758 C12.7373756,26.9355 13.4641493,28.5779 14.7234217,29.8314 C15.8747077,30.9766 17.3520624,31.6777 18.946143,31.8522 L18.946143,44.4209 C17.0558281,44.4811 15.29359,44.757 13.9178932,45.2136 C11.567305,45.9935 11.0738824,47.0528 11.0738824,47.8041 C11.0738824,48.5554 11.567305,49.6147 13.9178932,50.3947 C15.4828425,50.914 17.5482462,51.2 19.7333891,51.2 C21.9185321,51.2 23.9838353,50.914 25.5488851,50.3947 C27.8993729,49.6147 28.3927955,48.5554 28.3927955,47.8041 C28.3927955,47.0528 27.8993729,45.9935 25.5488851,45.2135 C24.1732887,44.7571 22.4110507,44.481 20.5206353,44.4208 L20.5206353,31.8521 C22.1147158,31.6777 23.5920706,30.9764 24.7435575,29.8311 C26.0027294,28.5777 26.7294027,26.9355 26.8106688,25.1757 L34.1656995,17.8538 L34.1656995,14.6558 L30.7907973,14.6558 L36.7897195,8.6839 L44.3995982,16.2592 Z M26.8183032,47.8041 C26.8183032,48.3348 24.3355195,49.6327 19.7332887,49.6327 C15.1310579,49.6327 12.6482742,48.3348 12.6482742,47.8041 C12.6482742,47.3045 14.8489873,46.1255 18.9460425,45.9889 L18.9460425,47.8041 L20.5204344,47.8041 L20.5204344,45.9889 C24.61759,46.1255 26.8183032,47.3045 26.8183032,47.8041 Z M37.9030344,7.5755 L41.8109376,3.6852 L39.8569357,9.5206 L37.9030344,7.5755 Z M41.101743,10.7598 L42.8251059,5.6128 L42.8251059,12.4753 L41.101743,10.7598 Z M38.7612,1.5673 L33.5911113,3.283 L31.8677484,1.5674 L38.7612,1.5674 L38.7612,1.5673 Z M34.8358181,4.5221 L40.6977231,2.5769 L36.7897195,6.4673 L34.8358181,4.5221 Z" id="Shape" fill="#000000" fill-rule="nonzero"></path>
                                <path d="M12.0710742,17.5293 C12.0710742,17.0806 12.0198434,16.6439 11.9257195,16.2231 L25.7414525,16.2231 L25.7414525,14.6558 L11.3345566,14.6558 C10.309238,12.7898 8.31867149,11.5212 6.03568778,11.5212 C2.70769683,11.5212 0.000301357466,14.2164 0.000301357466,17.5294 L0.000301357466,18.3131 L12.0709738,18.3131 L12.0709738,17.5293 L12.0710742,17.5293 Z M5.24854208,15.6374 L3.48901629,13.8858 C4.00644706,13.5263 4.6036371,13.2728 5.24854208,13.158 L5.24854208,15.6374 Z M6.82293394,13.1581 C7.46783891,13.2729 8.06482805,13.5263 8.58245973,13.8859 L6.82293394,15.6375 L6.82293394,13.1581 Z M2.37570136,14.994 L4.1353276,16.7457 L1.64440724,16.7457 C1.7597267,16.1037 2.01447421,15.5092 2.37570136,14.994 Z M7.93634932,16.7456 L9.69597557,14.9939 C10.0571023,15.5091 10.3118498,16.1036 10.4272697,16.7456 L7.93634932,16.7456 L7.93634932,16.7456 Z" id="Shape" fill="#000000" fill-rule="nonzero"></path>
                            </g>
                        </g>
                    </g>
                </g>
            </g>
        </g>
    </g>
</svg>