<?xml version="1.0" encoding="UTF-8"?>
<svg width="42px" height="52px" viewBox="0 0 42 52" version="1.1" xmlns="http://www.w3.org/2000/svg" xmlns:xlink="http://www.w3.org/1999/xlink">
    <!-- Generator: Sketch 62 (91390) - https://sketch.com -->
    <title>cocktail</title>
    <desc>Created with Sketch.</desc>
    <g id="Page-1" stroke="none" stroke-width="1" fill="none" fill-rule="evenodd">
        <g id="16.3-MAIN-UI---ALL-ITEM-(-ADD)-Copy-2" transform="translate(-1128.000000, -1555.000000)">
            <g id="CREATE-ITEM" transform="translate(327.000000, 413.000000)">
                <g id="NOTIFICATION-BAR" transform="translate(66.000000, 545.000000)">
                    <g id="SET-3" transform="translate(23.000000, 485.000000)">
                        <g id="cocktail" transform="translate(712.000000, 112.000000)">
                            <g>
                                <polygon id="Shape" fill="#FF505D" fill-rule="nonzero" points="27.4990478 0.7837 41.1477416 0.7837 41.1477416 14.3673"></polygon>
                                <polygon id="Shape" fill="#E21220" fill-rule="nonzero" points="41.1477416 0.7837 41.1477416 14.3673 34.323445 7.5755"></polygon>
                                <polyline id="Shape" fill="#FFFFFF" fill-rule="nonzero" points="21.1996507 50.4163 21.1996507 47.8041 13.3254545 47.8041 13.3254545 50.4163"></polyline>
                                <polygon id="Shape" fill="#FFDA44" fill-rule="nonzero" points="27.7615981 20.6639 17.2626029 31.1129 6.76360766 20.6639"></polygon>
                                <path d="M23.562,20.6639 L17.6974737,26.5005 C16.8774689,27.3166 15.5479378,27.3166 14.727933,26.5005 L8.8634067,20.6639 L6.76360766,20.6639 L17.2626029,31.1129 L27.7615981,20.6639 L23.562,20.6639 L23.562,20.6639 Z" id="Shape" fill="#EEBF00" fill-rule="nonzero"></path>
                                <ellipse id="Oval" fill="#3FC378" fill-rule="nonzero" transform="translate(4.781102, 10.684675) rotate(-135.000000) translate(-4.781102, -10.684675) " cx="4.78110246" cy="10.6846754" rx="2.62467339" ry="2.08977996"></ellipse>
                                <path d="M41.9351914,16.2593 L41.9351914,0 L25.5979952,0 L33.2097416,7.5755 L22.7153684,18.02 L23.8289713,19.1282 L26.7479713,16.2231 L30.1237464,16.2231 L30.1237464,17.2046 L27.4356459,19.8799 L15.1347703,19.8799 L11.4604737,16.2231 L23.2722201,16.2231 L23.2722201,14.6558 L9.88557416,14.6558 L7.65866986,12.4395 C7.89298565,11.9724 7.9893445,11.4257 7.92614354,10.8588 C7.83641627,10.0546 7.44455024,9.271 6.82278947,8.6523 L6.82278947,8.6523 C6.20112919,8.0336 5.41367943,7.6437 4.60573206,7.5543 C4.03591866,7.4914 3.48660287,7.5872 3.01736842,7.8204 L1.17841148,5.9901 L0.0648086124,7.0983 L1.90356459,8.9283 C1.33495694,10.0659 1.63729665,11.6187 2.73964593,12.7157 C3.36130622,13.3345 4.14875598,13.7244 4.95670335,13.8138 C5.0717512,13.8265 5.18589474,13.8328 5.29883254,13.8328 C5.74515789,13.8328 6.17078469,13.7342 6.54536842,13.548 L7.65836842,14.6557 L2.82655981,14.6557 L2.82655981,17.8539 L16.4751531,31.4375 L16.4751531,47.0204 L12.5380048,47.0204 L12.5380048,49.6326 L9.38830622,49.6326 L9.38830622,51.2 L25.136799,51.2 L25.136799,49.6327 L21.9871005,49.6327 L21.9871005,47.0205 L18.0499522,47.0205 L18.0499522,31.4375 L31.6986459,17.8538 L31.6986459,14.6557 L28.3228708,14.6557 L34.323445,8.6838 L41.9351914,16.2593 Z M5.13073206,12.2561 C4.68340191,12.2066 4.21778469,11.9702 3.8532488,11.6075 C3.14909569,10.9066 2.97908612,9.8916 3.48208134,9.391 C3.71870813,9.1555 4.02908612,9.1024 4.260689,9.1024 C4.32479426,9.1024 4.38297129,9.1065 4.43180383,9.1119 C4.87913397,9.1613 5.3447512,9.3978 5.7091866,9.7605 C6.07362201,10.1232 6.31105263,10.5866 6.36088995,11.0318 C6.38590909,11.2557 6.3825933,11.6762 6.08035407,11.977 C5.77821531,12.2779 5.35560287,12.2809 5.13073206,12.2561 Z M20.4123014,49.6327 L14.1129043,49.6327 L14.1129043,48.5878 L20.4123014,48.5878 L20.4123014,49.6327 Z M4.40145933,16.2231 L9.23326794,16.2231 L12.9075646,19.8799 L9.91330622,19.8799 L9.91330622,21.4472 L14.4824641,21.4472 L16.863201,23.8166 L17.9767033,22.7084 L16.7094689,21.4472 L25.8607464,21.4472 L17.2624019,30.0046 L4.40135885,17.2046 L4.40135885,16.2231 L4.40145933,16.2231 Z M35.4369474,7.5755 L39.3458612,3.6852 L37.3913541,9.5206 L35.4369474,7.5755 Z M38.6364833,10.7597 L40.3602919,5.6128 L40.3602919,12.4753 L38.6364833,10.7597 Z M36.2953349,1.5673 L31.1238086,3.283 L29.4,1.5673 L36.2953349,1.5673 Z M32.3689378,4.5221 L38.2322584,2.5769 L34.323244,6.4673 L32.3689378,4.5221 Z" id="Shape" fill="#000000" fill-rule="nonzero"></path>
                            </g>
                        </g>
                    </g>
                </g>
            </g>
        </g>
    </g>
</svg>