<?xml version="1.0" encoding="UTF-8"?>
<svg width="52px" height="41px" viewBox="0 0 52 41" version="1.1" xmlns="http://www.w3.org/2000/svg" xmlns:xlink="http://www.w3.org/1999/xlink">
    <!-- Generator: Sketch 62 (91390) - https://sketch.com -->
    <title>coconut</title>
    <desc>Created with Sketch.</desc>
    <g id="Page-1" stroke="none" stroke-width="1" fill="none" fill-rule="evenodd">
        <g id="16.3-MAIN-UI---ALL-ITEM-(-ADD)-Copy-2" transform="translate(-426.000000, -1566.000000)">
            <g id="CREATE-ITEM" transform="translate(327.000000, 413.000000)">
                <g id="NOTIFICATION-BAR" transform="translate(66.000000, 545.000000)">
                    <g id="SET-3" transform="translate(23.000000, 485.000000)">
                        <g id="coconut" transform="translate(10.000000, 123.000000)">
                            <g>
                                <circle id="Oval" fill="#FFDA44" fill-rule="nonzero" cx="16.4571" cy="23.8571" r="15.6735"></circle>
                                <path d="M26.4458,11.7786 C28.6911,14.4907 30.0408,17.9713 30.0408,21.7673 C30.0408,30.4236 23.0236,37.4408 14.3673,37.4408 C10.5713,37.4408 7.0907,36.0911 4.3786,33.8458 C7.2535,37.3182 11.5969,39.5306 16.4571,39.5306 C25.1133,39.5306 32.1306,32.5134 32.1306,23.8571 C32.1306,18.9969 29.9182,14.6536 26.4458,11.7786 Z" id="Shape" fill="#EEBF00" fill-rule="nonzero"></path>
                                <circle id="Oval" fill="#FFFFFF" fill-rule="nonzero" cx="16.4571" cy="23.8571" r="10.449"></circle>
                                <path d="M22.7267,15.4976 C24.0387,17.244 24.8163,19.4148 24.8163,21.7673 C24.8163,27.5381 20.1382,32.2163 14.3673,32.2163 C12.0148,32.2163 9.844,31.4387 8.0976,30.1268 C10.004,32.6644 13.0387,34.3061 16.4571,34.3061 C22.228,34.3061 26.9061,29.6279 26.9061,23.8571 C26.9061,20.4388 25.2645,17.4041 22.7267,15.4976 Z" id="Shape" fill="#EBE5DD" fill-rule="nonzero"></path>
                                <path d="M50.4163,23.8571 C50.4163,32.513 43.3988,39.5306 34.7428,39.5306 C26.0868,39.5306 19.0693,32.5131 19.0693,23.8571 L19.0693,17.5877 L29.5182,8.1836 L34.7427,8.1836 L39.9672,8.1836 L50.4163,17.5877 L50.4163,23.8571 Z" id="Shape" fill="#FFFFFF" fill-rule="nonzero"></path>
                                <path d="M50.4163,17.5878 L50.4163,23.8572 C50.4163,30.7086 46.0204,36.5329 39.8952,38.6645 C38.2808,39.2256 36.5473,39.5307 34.7428,39.5307 C32.9383,39.5307 31.2048,39.2256 29.5904,38.6645 C23.4652,36.5329 19.0693,30.7086 19.0693,23.8572 L19.0693,17.5878 L50.4163,17.5878 Z" id="Shape" fill="#91DC5A" fill-rule="nonzero"></path>
                                <path d="M48.3265,17.5878 L48.3265,21.7674 C48.3265,28.6188 43.9306,34.4431 37.8054,36.5747 C36.191,37.1358 34.4575,37.4409 32.653,37.4409 C30.8485,37.4409 29.115,37.1358 27.5006,36.5747 C25.7207,35.9553 24.0872,35.0235 22.6648,33.8458 C24.472,36.0286 26.859,37.7139 29.5904,38.6644 C31.2048,39.2255 32.9383,39.5306 34.7428,39.5306 C36.5473,39.5306 38.2808,39.2255 39.8952,38.6644 C46.0204,36.5328 50.4163,30.7085 50.4163,23.8571 L50.4163,17.5877 L48.3265,17.5877 L48.3265,17.5878 Z" id="Shape" fill="#6DC82A" fill-rule="nonzero"></path>
                                <path d="M16.4571,38.7469 C8.2468,38.7469 1.5673,32.0674 1.5673,23.8571 C1.5673,15.6468 8.2468,8.9673 16.4571,8.9673 C19.022,8.9673 21.5498,9.6296 23.7673,10.8826 L24.5383,9.5181 C22.0861,8.1325 19.2917,7.4001 16.4571,7.4001 C7.3826,7.4 0,14.7826 0,23.8571 C0,32.9316 7.3826,40.3142 16.4571,40.3142 C19.1022,40.3142 21.7317,39.6714 24.0619,38.4552 L23.3366,37.0657 C21.2296,38.1656 18.8507,38.7469 16.4571,38.7469 Z" id="Shape" fill="#000000" fill-rule="nonzero"></path>
                                <path d="M16.4571,14.1918 C17.5621,14.1918 18.6431,14.376 19.67,14.7393 L20.1929,13.2617 C18.9976,12.8388 17.7407,12.6244 16.4572,12.6244 C10.2636,12.6244 5.2245,17.6633 5.2245,23.8571 C5.2245,30.0509 10.2635,35.0898 16.4572,35.0898 C17.7532,35.0898 19.0218,34.8712 20.2276,34.4401 L19.7,32.9643 C18.6639,33.3347 17.5728,33.5225 16.4572,33.5225 C11.1277,33.5225 6.7919,29.1867 6.7919,23.8572 C6.7919,18.5277 11.1276,14.1918 16.4571,14.1918 Z" id="Shape" fill="#000000" fill-rule="nonzero"></path>
                                <path d="M38.264,33.9769 L38.7791,35.4572 C43.7085,33.7417 47.0204,29.0801 47.0204,23.8572 L45.4531,23.8572 C45.4531,28.4136 42.564,32.4805 38.264,33.9769 Z" id="Shape" fill="#000000" fill-rule="nonzero"></path>
                                <path d="M40.268,7.4 L29.2175,7.4 L18.2857,17.2388 L18.2857,23.8572 C18.2857,32.9317 25.6683,40.3143 34.7428,40.3143 C43.8173,40.3143 51.2,32.9317 51.2,23.8571 L51.2,17.2387 L40.268,7.4 Z M49.6327,23.8571 C49.6327,32.0674 42.9532,38.7469 34.7429,38.7469 C26.5326,38.7469 19.8531,32.0674 19.8531,23.8571 L19.8531,17.9367 L29.819,8.9673 L39.6665,8.9673 L49.6326,17.9367 L49.6326,23.8571 L49.6327,23.8571 Z" id="Shape" fill="#000000" fill-rule="nonzero"></path>
                                <polygon id="Shape" fill="#000000" fill-rule="nonzero" points="39.4165 10.9097 38.0792 11.727 41.182 16.8041 35.5264 16.8041 35.5264 11.3184 33.9591 11.3184 33.9591 16.8041 28.3034 16.8041 31.4063 11.727 30.069 10.9097 26.4665 16.8041 22.204 16.8041 22.204 18.3714 47.2815 18.3714 47.2815 16.8041 43.019 16.8041"></polygon>
                                <polygon id="Shape" fill="#000000" fill-rule="nonzero" points="34.0224 6.4026 35.4631 5.7851 33.0203 0.0857 26.2341 0.0857 26.2341 1.6531 31.9868 1.6531"></polygon>
                            </g>
                        </g>
                    </g>
                </g>
            </g>
        </g>
    </g>
</svg>