<?xml version="1.0" encoding="UTF-8"?>
<svg width="31px" height="52px" viewBox="0 0 31 52" version="1.1" xmlns="http://www.w3.org/2000/svg" xmlns:xlink="http://www.w3.org/1999/xlink">
    <!-- Generator: Sketch 62 (91390) - https://sketch.com -->
    <title>coffee</title>
    <desc>Created with Sketch.</desc>
    <g id="Page-1" stroke="none" stroke-width="1" fill="none" fill-rule="evenodd">
        <g id="16.3-MAIN-UI---ALL-ITEM-(-ADD)-Copy-2" transform="translate(-437.000000, -1361.000000)">
            <g id="CREATE-ITEM" transform="translate(327.000000, 413.000000)">
                <g id="NOTIFICATION-BAR" transform="translate(66.000000, 545.000000)">
                    <g id="SET-2" transform="translate(23.000000, 279.000000)">
                        <g id="coffee" transform="translate(21.000000, 124.000000)">
                            <g>
                                <polyline id="Shape" fill="#3FC378" fill-rule="nonzero" points="13.6327 11.2327 13.6327 0.7837 16.7673 0.7837 16.7673 11.2327"></polyline>
                                <polygon id="Shape" fill="#FFFFFF" fill-rule="nonzero" points="29.5673 16.4571 28 16.4571 25.9102 11.2327 4.4898 11.2327 2.4 16.4571 0.8327 16.4571 0.8327 19.5918 29.5673 19.5918"></polygon>
                                <polyline id="Shape" fill="#FFFFFF" fill-rule="nonzero" points="27.7388 19.5918 26.3929 29.5184 23.5592 50.4163 6.8408 50.4163 4.0071 29.5184 2.6612 19.5918"></polyline>
                                <path d="M2.6612,19.5918 L2.9446,21.6816 L23.2567,21.6816 C24.5225,21.6816 25.4976,22.798 25.3276,24.0523 L21.7528,50.4163 L23.5592,50.4163 L27.7388,19.5918 L2.6612,19.5918 Z" id="Shape" fill="#EBE5DD" fill-rule="nonzero"></path>
                                <polygon id="Shape" fill="#3FC378" fill-rule="nonzero" points="27.2163 40.5943 28.7837 28.369 1.6163 28.369 3.1837 40.5943"></polygon>
                                <ellipse id="Oval" fill="#57565C" fill-rule="nonzero" transform="translate(15.199171, 34.480777) rotate(-45.000000) translate(-15.199171, -34.480777) " cx="15.1991708" cy="34.4807765" rx="4.20775965" ry="3.00587117"></ellipse>
                                <path d="M30.351,20.3755 L30.351,15.6735 L28.5306,15.6735 L26.4408,10.449 L3.9592,10.449 L1.8694,15.6735 L0.049,15.6735 L0.049,20.3755 L1.9767,20.3755 L2.9543,27.5853 L0.7258,27.5853 L2.494,41.378 L4.824,41.378 L6.1562,51.2 L24.2438,51.2 L25.5759,41.378 L27.9059,41.378 L29.6742,27.5853 L27.4457,27.5853 L28.4233,20.3755 L30.351,20.3755 L30.351,20.3755 Z M1.6163,17.2408 L2.4,17.2408 L2.9306,17.2408 L25.9102,17.2408 L25.9102,15.6735 L3.5575,15.6735 L5.0204,12.0164 L25.3796,12.0164 L27.4694,17.2409 L28.7837,17.2409 L28.7837,18.8082 L1.6163,18.8082 L1.6163,17.2408 Z M22.8746,49.6327 L7.5254,49.6327 L6.4057,41.378 L23.9943,41.378 L22.8746,49.6327 Z M26.5267,39.8106 L3.8733,39.8106 L2.5069,29.1526 L27.8932,29.1526 L26.5267,39.8106 Z M25.8641,27.5853 L4.5359,27.5853 L3.5583,20.3755 L26.8418,20.3755 L25.8641,27.5853 Z" id="Shape" fill="#000000" fill-rule="nonzero"></path>
                                <polygon id="Shape" fill="#000000" fill-rule="nonzero" points="14.4163 1.5673 15.9837 1.5673 15.9837 9.1429 17.551 9.1429 17.551 0 12.849 0 12.849 9.1429 14.4163 9.1429"></polygon>
                                <path d="M14.018,38.9323 C15.2967,38.9323 16.7174,38.3236 17.8797,37.1613 C19.8589,35.182 20.2325,32.4545 18.7299,30.9518 C17.2272,29.4491 14.4998,29.8227 12.5203,31.802 C10.5411,33.7813 10.1675,36.5088 11.6701,38.0115 C12.2904,38.6318 13.1191,38.9323 14.018,38.9323 Z M16.7713,36.0529 C15.7576,37.0667 14.4365,37.5291 13.4948,37.295 L18.0134,32.7764 C18.2474,33.7181 17.7851,35.0392 16.7713,36.0529 Z M13.6287,32.9103 C14.4692,32.0698 15.521,31.6079 16.3928,31.6079 C16.5725,31.6079 16.7444,31.628 16.9054,31.668 L12.3866,36.1868 C12.1526,35.2451 12.6149,33.9241 13.6287,32.9103 Z" id="Shape" fill="#000000" fill-rule="nonzero"></path>
                            </g>
                        </g>
                    </g>
                </g>
            </g>
        </g>
    </g>
</svg>