<?xml version="1.0" encoding="UTF-8"?>
<svg width="26px" height="52px" viewBox="0 0 26 52" version="1.1" xmlns="http://www.w3.org/2000/svg" xmlns:xlink="http://www.w3.org/1999/xlink">
    <!-- Generator: Sketch 62 (91390) - https://sketch.com -->
    <title>corndog</title>
    <desc>Created with Sketch.</desc>
    <g id="Page-1" stroke="none" stroke-width="1" fill="none" fill-rule="evenodd">
        <g id="16.3-MAIN-UI---ALL-ITEM-(-ADD)-Copy-2" transform="translate(-687.000000, -1087.000000)">
            <g id="CREATE-ITEM" transform="translate(327.000000, 413.000000)">
                <g id="NOTIFICATION-BAR" transform="translate(66.000000, 545.000000)">
                    <g id="SET-1" transform="translate(23.000000, 34.000000)">
                        <g id="corndog" transform="translate(271.000000, 95.000000)">
                            <g>
                                <polygon id="Rectangle-path" fill="#FFDA44" fill-rule="nonzero" points="3.65710005 35.2653005 6.26930009 35.2653005 6.26930009 50.4163008 3.65710005 50.4163008"></polygon>
                                <polygon id="Shape" fill="#000000" fill-rule="nonzero" points="7.05310011 51.2000008 2.87350004 51.2000008 2.87350004 35.2653005 4.44080007 35.2653005 4.44080007 49.6327007 5.48570008 49.6327007 5.48570008 37.3551006 7.05310011 37.3551006"></polygon>
                                <path d="M4.96330007,35.2653005 L4.96330007,35.2653005 C2.65500004,35.2653005 0.783700012,33.3940005 0.783700012,31.0857005 L0.783700012,4.96330007 C0.783700012,2.65500004 2.65500004,0.783700012 4.96330007,0.783700012 L4.96330007,0.783700012 C7.27160011,0.783700012 9.14290014,2.65500004 9.14290014,4.96330007 L9.14290014,31.0857005 C9.14290014,33.3940005 7.27150011,35.2653005 4.96330007,35.2653005 Z" id="Shape" fill="#DD7903" fill-rule="nonzero"></path>
                                <path d="M2.87350004,31.0857005 L2.87350004,4.96330007 C2.87350004,3.01570004 4.20550006,1.37940002 6.00820009,0.915400014 C5.67430008,0.829400012 5.32410008,0.783700012 4.96330007,0.783700012 L4.96330007,0.783700012 C2.65500004,0.783700012 0.783700012,2.65500004 0.783700012,4.96330007 L0.783700012,31.0857005 C0.783700012,33.3940005 2.65500004,35.2653005 4.96330007,35.2653005 L4.96330007,35.2653005 C5.32410008,35.2653005 5.67420008,35.2195005 6.00820009,35.1336005 C4.20550006,34.6696005 2.87350004,33.0332005 2.87350004,31.0857005 Z" id="Shape" fill="#FFC477" fill-rule="nonzero"></path>
                                <path d="M4.96330007,0.783700012 L4.96330007,0.783700012 C4.60250007,0.783700012 4.25240006,0.829500012 3.91840006,0.915400014 C5.72110009,1.37930002 7.05310011,3.01570004 7.05310011,4.96330007 L7.05310011,31.0857005 C7.05310011,33.0332005 5.72110009,34.6696005 3.91840006,35.1336005 C4.25230006,35.2196005 4.60250007,35.2653005 4.96330007,35.2653005 L4.96330007,35.2653005 C7.27160011,35.2653005 9.14290014,33.3940005 9.14290014,31.0857005 L9.14290014,4.96330007 C9.14290014,2.65500004 7.27150011,0.783700012 4.96330007,0.783700012 Z" id="Shape" fill="#AA6100" fill-rule="nonzero"></path>
                                <path d="M4.96330007,36.0490005 C2.22660003,36.0490005 0,33.8224005 0,31.0857005 L0,4.96330007 C0,2.22660003 2.22660003,0 4.96330007,0 C7.70000011,0 9.92660015,2.22660003 9.92660015,4.96330007 L9.92660015,31.0857005 C9.92650015,33.8224005 7.70000011,36.0490005 4.96330007,36.0490005 Z M4.96330007,1.56730002 C3.09080005,1.56730002 1.56740002,3.09080005 1.56740002,4.96320007 L1.56740002,31.0856005 C1.56740002,32.9581005 3.09090005,34.4815005 4.96330007,34.4815005 C6.8357001,34.4815005 8.35920012,32.9580005 8.35920012,31.0856005 L8.35920012,4.96330007 C8.35920012,3.09080005 6.8357001,1.56730002 4.96330007,1.56730002 Z" id="Shape" fill="#000000" fill-rule="nonzero"></path>
                                <path d="M4.70200007,31.8694005 L3.13470005,31.8694005 C3.13470005,30.7971005 3.99170006,30.2808005 4.55890007,29.9393004 C5.02830007,29.6566004 5.22450008,29.5124004 5.22450008,29.3517004 C5.22450008,29.1910004 5.02830007,29.0468004 4.55890007,28.7641004 C3.99170006,28.4224004 3.13470005,27.9061004 3.13470005,26.8340004 C3.13470005,25.7618004 3.99180006,25.2455004 4.55890007,24.9040004 C5.02830007,24.6213004 5.22450008,24.4772004 5.22450008,24.3166004 C5.22450008,24.1560004 5.02830007,24.0119004 4.55890007,23.7293004 C3.99170006,23.3877003 3.13470005,22.8715003 3.13470005,21.7994003 C3.13470005,20.7272003 3.99180006,20.2109003 4.55890007,19.8694003 C5.02830007,19.5868003 5.22450008,19.4426003 5.22450008,19.2821003 C5.22450008,19.1215003 5.02830007,18.9774003 4.55890007,18.6948003 C3.99170006,18.3531003 3.13470005,17.8370003 3.13470005,16.7648002 C3.13470005,15.6927002 3.99180006,15.1766002 4.55900007,14.8350002 C5.02840007,14.5524002 5.22450008,14.4084002 5.22450008,14.2478002 C5.22450008,14.0873002 5.02840007,13.9433002 4.55900007,13.6607002 C3.99180006,13.3192002 3.13470005,12.8030002 3.13470005,11.7309002 C3.13470005,10.6588002 3.99180006,10.1427002 4.55900007,9.80120015 C5.02830007,9.51870014 5.22450008,9.37470014 5.22450008,9.21430014 C5.22450008,9.05380013 5.02840007,8.90970013 4.55900007,8.62710013 C3.99180006,8.28550012 3.13470005,7.76930012 3.13470005,6.6972001 C3.13470005,5.62510008 3.99180006,5.10890008 4.55900007,4.76740007 C5.02840007,4.48480007 5.22450008,4.34080006 5.22450008,4.18020006 L6.7918001,4.18020006 C6.7918001,5.25240008 5.93470009,5.76850009 5.36750008,6.11000009 C4.89810007,6.3926001 4.70200007,6.5366001 4.70200007,6.6972001 C4.70200007,6.8577001 4.89810007,7.0018001 5.36750008,7.28440011 C5.93470009,7.62600011 6.7918001,8.14220012 6.7918001,9.21430014 C6.7918001,10.2864002 5.93470009,10.8024002 5.36750008,11.1440002 C4.89810007,11.4265002 4.70200007,11.5705002 4.70200007,11.7310002 C4.70200007,11.8915002 4.89810007,12.0355002 5.36750008,12.3181002 C5.93470009,12.6597002 6.7918001,13.1758002 6.7918001,14.2479002 C6.7918001,15.3201002 5.93470009,15.8362002 5.36750008,16.1777002 C4.89810007,16.4603002 4.70200007,16.6043002 4.70200007,16.7648002 C4.70200007,16.9254003 4.89820007,17.0695003 5.36760008,17.3521003 C5.93480009,17.6937003 6.7918001,18.2100003 6.7918001,19.2821003 C6.7918001,20.3543003 5.93470009,20.8704003 5.36760008,21.2121003 C4.89820007,21.4947003 4.70200007,21.6388003 4.70200007,21.7994003 C4.70200007,21.9600003 4.89810007,22.1041003 5.36750008,22.3867003 C5.93470009,22.7283003 6.7918001,23.2446003 6.7918001,24.3167004 C6.7918001,25.3889004 5.93470009,25.9052004 5.36760008,26.2467004 C4.89820007,26.5294004 4.70200007,26.6735004 4.70200007,26.8341004 C4.70200007,26.9948004 4.89820007,27.1389004 5.36760008,27.4217004 C5.93480009,27.7634004 6.7918001,28.2796004 6.7918001,29.3518004 C6.7918001,30.4241005 5.93480009,30.9404005 5.36760008,31.2820005 C4.89830007,31.5645005 4.70200007,31.7087005 4.70200007,31.8694005 Z" id="Shape" fill="#000000" fill-rule="nonzero"></path>
                                <polygon id="Rectangle-path" fill="#FFDA44" fill-rule="nonzero" points="19.3306003 35.2653005 21.9428003 35.2653005 21.9428003 50.4163008 19.3306003 50.4163008"></polygon>
                                <polygon id="Shape" fill="#000000" fill-rule="nonzero" points="22.7265003 51.2000008 18.5469003 51.2000008 18.5469003 35.2653005 20.1143003 35.2653005 20.1143003 49.6327007 21.1592003 49.6327007 21.1592003 37.3551006 22.7265003 37.3551006"></polygon>
                                <path d="M24.8163004,18.0245003 L24.8163004,31.0857005 C24.8163004,33.3939005 22.9449003,35.2653005 20.6367003,35.2653005 C18.3285003,35.2653005 16.4571002,33.3939005 16.4571002,31.0857005 L16.4571002,18.0245003 L24.8163004,18.0245003 Z" id="Shape" fill="#DD7903" fill-rule="nonzero"></path>
                                <path d="M21.6816003,35.1336005 C21.3472003,35.2193005 20.9972003,35.2653005 20.6367003,35.2653005 C18.3285003,35.2653005 16.4571002,33.3939005 16.4571002,31.0857005 L16.4571002,18.0245003 L18.5469003,18.0245003 L18.5469003,31.0857005 C18.5469003,33.0334005 19.8792003,34.6697005 21.6816003,35.1336005 Z" id="Shape" fill="#FFC477" fill-rule="nonzero"></path>
                                <path d="M24.8163004,18.0245003 L24.8163004,31.0857005 C24.8163004,32.2393005 24.3482004,33.2842005 23.5917004,34.0407005 C22.8352003,34.7972005 21.7903003,35.2653005 20.6367003,35.2653005 C20.2762003,35.2653005 19.9262003,35.2193005 19.5918003,35.1336005 C21.3942003,34.6697005 22.7265003,33.0334005 22.7265003,31.0857005 L22.7265003,18.0245003 L24.8163004,18.0245003 Z" id="Shape" fill="#AA6100" fill-rule="nonzero"></path>
                                <path d="M20.6367003,36.0490005 C17.9000003,36.0490005 15.6734002,33.8224005 15.6734002,31.0857005 L15.6734002,21.1592003 L17.2407003,21.1592003 L17.2407003,31.0857005 C17.2407003,32.9582005 18.7642003,34.4816005 20.6366003,34.4816005 C22.5090003,34.4816005 24.0325004,32.9581005 24.0325004,31.0857005 L24.0325004,18.0245003 L25.6000004,18.0245003 L25.6000004,31.0857005 C25.6000004,33.8224005 23.3734003,36.0490005 20.6367003,36.0490005 Z" id="Shape" fill="#000000" fill-rule="nonzero"></path>
                                <path d="M20.3755003,31.8694005 L18.8082003,31.8694005 C18.8082003,30.7971005 19.6652003,30.2808005 20.2324003,29.9393004 C20.7018003,29.6566004 20.8980003,29.5124004 20.8980003,29.3517004 C20.8980003,29.1910004 20.7018003,29.0468004 20.2324003,28.7641004 C19.6652003,28.4224004 18.8082003,27.9061004 18.8082003,26.8340004 C18.8082003,25.7618004 19.6653003,25.2455004 20.2324003,24.9040004 C20.7018003,24.6213004 20.8980003,24.4772004 20.8980003,24.3166004 C20.8980003,24.1560004 20.7018003,24.0119004 20.2324003,23.7293004 C19.6652003,23.3877003 18.8082003,22.8715003 18.8082003,21.7994003 L20.3755003,21.7994003 C20.3755003,21.9600003 20.5716003,22.1041003 21.0410003,22.3867003 C21.6082003,22.7283003 22.4653003,23.2446003 22.4653003,24.3167004 C22.4653003,25.3888004 21.6082003,25.9052004 21.0411003,26.2467004 C20.5717003,26.5294004 20.3755003,26.6735004 20.3755003,26.8341004 C20.3755003,26.9948004 20.5717003,27.1389004 21.0411003,27.4217004 C21.6083003,27.7634004 22.4653003,28.2796004 22.4653003,29.3518004 C22.4653003,30.4241005 21.6083003,30.9404005 21.0411003,31.2820005 C20.5717003,31.5645005 20.3755003,31.7087005 20.3755003,31.8694005 Z" id="Shape" fill="#000000" fill-rule="nonzero"></path>
                                <ellipse id="Oval" fill="#FFC477" fill-rule="nonzero" cx="20.6367003" cy="18.0245003" rx="4.17960006" ry="2.61220004"></ellipse>
                                <path d="M20.6367003,21.4204003 C17.8535003,21.4204003 15.6734002,19.9287003 15.6734002,18.0245003 C15.6734002,16.1203002 17.8535003,14.6286002 20.6367003,14.6286002 C23.4199003,14.6286002 25.6000004,16.1203002 25.6000004,18.0245003 C25.6000004,19.9287003 23.4199003,21.4204003 20.6367003,21.4204003 Z M20.6367003,16.1959002 C18.6354003,16.1959002 17.2408003,17.1596003 17.2408003,18.0245003 C17.2408003,18.8894003 18.6354003,19.8531003 20.6367003,19.8531003 C22.6380003,19.8531003 24.0326004,18.8894003 24.0326004,18.0245003 C24.0327004,17.1596003 22.6380003,16.1959002 20.6367003,16.1959002 Z" id="Shape" fill="#000000" fill-rule="nonzero"></path>
                            </g>
                        </g>
                    </g>
                </g>
            </g>
        </g>
    </g>
</svg>