<?xml version="1.0" encoding="UTF-8"?>
<svg width="32px" height="52px" viewBox="0 0 32 52" version="1.1" xmlns="http://www.w3.org/2000/svg" xmlns:xlink="http://www.w3.org/1999/xlink">
    <!-- Generator: Sketch 62 (91390) - https://sketch.com -->
    <title>cupcake</title>
    <desc>Created with Sketch.</desc>
    <g id="Page-1" stroke="none" stroke-width="1" fill="none" fill-rule="evenodd">
        <g id="16.3-MAIN-UI---ALL-ITEM-(-ADD)-Copy-2" transform="translate(-1066.000000, -1005.000000)">
            <g id="CREATE-ITEM" transform="translate(327.000000, 413.000000)">
                <g id="NOTIFICATION-BAR" transform="translate(66.000000, 545.000000)">
                    <g id="SET-1" transform="translate(23.000000, 34.000000)">
                        <g id="cupcake" transform="translate(650.000000, 13.000000)">
                            <g>
                                <path d="M26.5147174,24.2939004 L24.4117739,24.2939004 C25.8635476,24.2939004 27.0404029,23.1243003 27.0404029,21.6817003 L27.0404029,21.6817003 C27.0404029,20.2390003 25.8634469,19.0695003 24.4117739,19.0695003 L19.6802016,19.0695003 C22.5837488,19.0695003 24.9375601,16.7304002 24.9375601,13.8450002 L24.9375601,13.8450002 L12.3198996,13.8450002 C9.41635234,13.8450002 7.06254099,16.1841002 7.06254099,19.0695003 L7.06254099,19.0695003 L7.58832716,19.0695003 C6.13655355,19.0695003 4.95969819,20.2391003 4.95969819,21.6817003 L4.95969819,21.6817003 C4.95969819,23.1244003 6.13665418,24.2939004 7.58832716,24.2939004 L5.4852831,24.2939004 C4.03350949,24.2939004 2.85665413,25.4635004 2.85665413,26.9061004 L2.85665413,26.9061004 C2.85665413,28.3488004 4.03361012,29.5183004 5.4852831,29.5183004 L26.5147174,29.5183004 C27.966491,29.5183004 29.1433463,28.3487004 29.1433463,26.9061004 L29.1433463,26.9061004 C29.1433463,25.4634004 27.966491,24.2939004 26.5147174,24.2939004 Z" id="Shape" fill="#FFF5CC" fill-rule="nonzero"></path>
                                <path d="M26.5147174,24.2939004 L23.3603022,24.2939004 C24.8120758,24.2939004 25.9889312,25.4635004 25.9889312,26.9061004 L25.9889312,26.9061004 C25.9889312,28.3488004 24.8119752,29.5183004 23.3603022,29.5183004 L26.5147174,29.5183004 C27.966491,29.5183004 29.1433463,28.3487004 29.1433463,26.9061004 L29.1433463,26.9061004 C29.1433463,25.4634004 27.966491,24.2939004 26.5147174,24.2939004 Z" id="Shape" fill="#FFDA44" fill-rule="nonzero"></path>
                                <path d="M21.7830443,13.8449002 L21.7830443,13.8449002 C21.7830443,16.7303002 19.429233,19.0694003 16.5256858,19.0694003 L19.6801009,19.0694003 C22.5836481,19.0694003 24.9374595,16.7303002 24.9374595,13.8449002 L24.9374595,13.8449002 L21.7830443,13.8449002 Z" id="Shape" fill="#FFDA44" fill-rule="nonzero"></path>
                                <path d="M24.4117739,19.0694003 L21.2573588,19.0694003 C22.7091324,19.0694003 23.8859878,20.2390003 23.8859878,21.6816003 L23.8859878,21.6816003 C23.8859878,23.1243003 22.7090318,24.2938004 21.2573588,24.2938004 L24.4117739,24.2938004 C25.8635476,24.2938004 27.0404029,23.1242003 27.0404029,21.6816003 L27.0404029,21.6816003 C27.0404029,20.2389003 25.8635476,19.0694003 24.4117739,19.0694003 Z" id="Shape" fill="#FFDA44" fill-rule="nonzero"></path>
                                <ellipse id="Oval" fill="#FF505D" fill-rule="nonzero" cx="13.634214" cy="10.0310001" rx="3.41725791" ry="3.39590005"></ellipse>
                                <path d="M15.1299625,6.9772001 C15.3502392,7.42620011 15.4742141,7.93050012 15.4742141,8.46370013 C15.4742141,10.3392002 13.9442518,11.8596002 12.0569562,11.8596002 C11.5205033,11.8596002 11.012931,11.7364002 10.5611071,11.5175002 C11.1158744,12.6480002 12.2832706,13.4269002 13.6341134,13.4269002 C15.521409,13.4269002 17.0513713,11.9065002 17.0513713,10.0310001 C17.051472,8.68860013 16.2674719,7.52850011 15.1299625,6.9772001 Z" id="Shape" fill="#E21220" fill-rule="nonzero"></path>
                                <ellipse id="Oval" fill="#FF505D" fill-rule="nonzero" cx="20.4687299" cy="10.0310001" rx="3.41725791" ry="3.39590005"></ellipse>
                                <path d="M21.9645789,6.9772001 C22.1848557,7.42620011 22.3088305,7.93050012 22.3088305,8.46370013 C22.3088305,10.3392002 20.7788682,11.8596002 18.8915726,11.8596002 C18.3550191,11.8596002 17.8475474,11.7364002 17.3957235,11.5175002 C17.9504908,12.6480002 19.1178871,13.4269002 20.4687299,13.4269002 C22.3560255,13.4269002 23.8859878,11.9065002 23.8859878,10.0310001 C23.8859878,8.68860013 23.1020884,7.52850011 21.9645789,6.9772001 Z" id="Shape" fill="#E21220" fill-rule="nonzero"></path>
                                <ellipse id="Oval" fill="#FF505D" fill-rule="nonzero" cx="17.051472" cy="4.17960006" rx="3.41725791" ry="3.39590005"></ellipse>
                                <path d="M18.547321,1.12580002 C18.7675978,1.57480002 18.8915726,2.07910003 18.8915726,2.61230004 C18.8915726,4.48780007 17.3616103,6.00820009 15.4743147,6.00820009 C14.9378619,6.00820009 14.4302895,5.88500009 13.9784656,5.66610008 C14.5332329,6.7965001 15.7006292,7.57550011 17.051472,7.57550011 C18.9387676,7.57550011 20.4687299,6.05510009 20.4687299,4.17960006 C20.4687299,2.83720004 19.6847299,1.67710002 18.547321,1.12580002 Z" id="Shape" fill="#E21220" fill-rule="nonzero"></path>
                                <ellipse id="Oval" fill="#FF7C80" fill-rule="nonzero" cx="19.4172582" cy="8.98610013" rx="1" ry="1"></ellipse>
                                <ellipse id="Oval" fill="#FF7C80" fill-rule="nonzero" cx="12.5827423" cy="8.98610013" rx="1" ry="1"></ellipse>
                                <ellipse id="Oval" fill="#FF7C80" fill-rule="nonzero" cx="16.0000002" cy="3.13470005" rx="1" ry="1"></ellipse>
                                <path d="M25.0535853,50.4163008 L6.9464152,50.4163008 C5.94394977,50.4163008 5.08085542,49.7132007 4.88422649,48.7363007 L1.01645285,29.5183004 L30.9833464,29.5183004 L27.1155727,48.7363007 C26.9190444,49.7132007 26.0560507,50.4163008 25.0535853,50.4163008 Z" id="Shape" fill="#0DD9DD" fill-rule="nonzero"></path>
                                <path d="M28.8805036,29.5184004 L25.0127299,48.7364007 C24.816101,49.7133007 23.9531073,50.4164008 22.9505412,50.4164008 L25.0534847,50.4164008 C26.0559501,50.4164008 26.9190444,49.7133007 27.1156734,48.7364007 L30.983447,29.5184004 L28.8805036,29.5184004 Z" id="Shape" fill="#02A6AA" fill-rule="nonzero"></path>
                                <path d="M6.98737117,48.7363007 L3.1194969,29.5184004 L1.01655347,29.5184004 L4.88442775,48.7364007 C5.08105668,49.7133007 5.9440504,50.4164008 6.94661646,50.4164008 L9.04955988,50.4164008 C8.04699383,50.4163008 7.18379885,49.7132007 6.98737117,48.7363007 Z" id="Shape" fill="#AAFFF5" fill-rule="nonzero"></path>
                                <path d="M29.3920004,28.7347004 C29.7332331,28.2064004 29.9319753,27.5790004 29.9319753,26.9061004 C29.9319753,25.2803004 28.7761514,23.9184004 27.2385413,23.5875004 C27.610969,23.0437003 27.8290319,22.3875003 27.8290319,21.6816003 C27.8290319,19.8090003 26.2960507,18.2857003 24.4117739,18.2857003 L23.7482268,18.2857003 C24.962818,17.1860003 25.7261891,15.6024002 25.7261891,13.8449002 L25.7261891,13.0612002 L23.3610066,13.0612002 C24.1691576,12.2991002 24.6747173,11.2229002 24.6747173,10.0310001 C24.6747173,7.86940012 23.0149437,6.08600009 20.8953965,5.87280009 C21.1273462,5.35470008 21.2574594,4.78210007 21.2574594,4.17950006 C21.2573588,1.87500003 19.3705663,0 17.051472,0 C14.7323776,0 12.8455851,1.87500003 12.8455851,4.17960006 C12.8455851,4.78220007 12.975497,5.35480008 13.207648,5.87290009 C11.0881008,6.08610009 9.42832718,7.86950012 9.42832718,10.0311001 C9.42832718,11.3107002 10.0105662,12.4572002 10.9248807,13.2245002 C8.4301888,13.8126002 6.5294089,15.9397002 6.29896865,18.5376003 C5.05217618,19.0444003 4.17096862,20.2623003 4.17096862,21.6817003 C4.17096862,22.3876003 4.38903151,23.0438003 4.76155982,23.5876004 C3.2238491,23.9185004 2.06802519,25.2804004 2.06802519,26.9062004 C2.06802519,27.5791004 2.26686796,28.2065004 2.60800004,28.7348004 L0.0546415102,28.7348004 L4.1110944,48.8900007 C4.38037742,50.2284007 5.57283027,51.2000008 6.9464152,51.2000008 L25.0534847,51.2000008 C26.4271702,51.2000008 27.6195224,50.2286007 27.8890067,48.8900007 L31.945359,28.7347004 L29.3920004,28.7347004 Z M17.051472,12.4630002 C17.2073462,12.6786002 17.3832455,12.8788002 17.5765537,13.0612002 L16.5263902,13.0612002 C16.7196984,12.8789002 16.8955977,12.6787002 17.051472,12.4630002 Z M23.0974595,10.0310001 C23.0974595,11.4714002 21.918189,12.6432002 20.4688305,12.6432002 C19.019472,12.6432002 17.8402015,11.4713002 17.8402015,10.0310001 C17.8402015,9.16680014 18.2650569,8.39950013 18.9178368,7.92380012 C19.0848808,7.84110012 19.246189,7.74860012 19.3998493,7.64540011 C19.7267927,7.50020011 20.0882519,7.41880011 20.4688305,7.41880011 C21.918189,7.41880011 23.0974595,8.59060013 23.0974595,10.0310001 Z M17.051472,1.56730002 C18.5009311,1.56730002 19.6801009,2.73920004 19.6801009,4.17950006 C19.6801009,5.04370008 19.2552456,5.81100009 18.6024657,6.28670009 C18.4354217,6.36940009 18.2741135,6.4619001 18.1204531,6.5651001 C17.7935097,6.7103001 17.4320506,6.7917001 17.051472,6.7917001 C16.670994,6.7917001 16.3093336,6.7103001 15.9825914,6.5651001 C15.8288304,6.4620001 15.6675222,6.36930009 15.5004782,6.28670009 C14.8475977,5.81090009 14.422843,5.04370008 14.422843,4.17950006 C14.422843,2.73920004 15.6020128,1.56730002 17.051472,1.56730002 Z M13.634214,7.41880011 C14.014692,7.41880011 14.3763524,7.50020011 14.7030946,7.64540011 C14.8568556,7.74850012 15.0181637,7.84120012 15.1852078,7.92380012 C15.8380883,8.39960013 16.262843,9.16680014 16.262843,10.0310001 C16.262843,11.4714002 15.0835726,12.6432002 13.634214,12.6432002 C12.1847549,12.6432002 11.0055851,11.4713002 11.0055851,10.0310001 C11.0055851,8.59070013 12.1847549,7.41880011 13.634214,7.41880011 Z M3.64518244,26.9061004 C3.64518244,25.8979004 4.47064158,25.0775004 5.4852831,25.0775004 L18.1099877,25.0775004 L18.1099877,23.5102004 L7.58822653,23.5102004 C6.57368563,23.5102004 5.74812587,22.6899003 5.74812587,21.6816003 C5.74812587,20.6734003 6.573585,19.8530003 7.58822653,19.8530003 L11.7941134,19.8530003 L11.7941134,18.2857003 L7.92221395,18.2857003 C8.29594981,16.2097002 10.1249813,14.6286002 12.3198996,14.6286002 L24.0791953,14.6286002 C23.7055601,16.7048002 21.8752205,18.2857003 19.6802016,18.2857003 L14.9486292,18.2857003 L14.9486292,19.8530003 L24.4118746,19.8530003 C25.4264155,19.8530003 26.2519752,20.6733003 26.2519752,21.6816003 C26.2519752,22.6898003 25.4264155,23.5102004 24.4118746,23.5102004 L21.2645035,23.5102004 L21.2645035,25.0775004 L26.514818,25.0775004 C27.5293589,25.0775004 28.3549187,25.8979004 28.3549187,26.9061004 C28.3549187,27.9143004 27.5294595,28.7347004 26.514818,28.7347004 L5.4852831,28.7347004 C4.4707422,28.7347004 3.64518244,27.9143004 3.64518244,26.9061004 Z M16.7957738,30.3020005 L22.631145,30.3020005 L20.6858871,49.6326007 L16.7957738,49.6326007 L16.7957738,30.3020005 L16.7957738,30.3020005 Z M15.218516,49.6327007 L11.3284027,49.6327007 L9.38324542,30.3020005 L15.2186166,30.3020005 L15.2186166,49.6327007 L15.218516,49.6327007 Z M5.65766046,48.5826007 L1.97846544,30.3020005 L7.79813848,30.3020005 L9.74339637,49.6326007 L6.9464152,49.6326007 C6.32201267,49.6327007 5.78012587,49.1910007 5.65766046,48.5826007 Z M26.34234,48.5826007 C26.2198746,49.1909007 25.6777865,49.6326007 25.0534847,49.6326007 L22.270994,49.6326007 L24.2162519,30.3020005 L30.0216357,30.3020005 L26.34234,48.5826007 Z" id="Shape" fill="#000000" fill-rule="nonzero"></path>
                            </g>
                        </g>
                    </g>
                </g>
            </g>
        </g>
    </g>
</svg>