<?xml version="1.0" encoding="UTF-8"?>
<svg width="52px" height="34px" viewBox="0 0 52 34" version="1.1" xmlns="http://www.w3.org/2000/svg" xmlns:xlink="http://www.w3.org/1999/xlink">
    <!-- Generator: Sketch 62 (91390) - https://sketch.com -->
    <title>doughnut-1</title>
    <desc>Created with Sketch.</desc>
    <g id="Page-1" stroke="none" stroke-width="1" fill="none" fill-rule="evenodd">
        <g id="16.3-MAIN-UI---ALL-ITEM-(-ADD)-Copy-2" transform="translate(-902.000000, -1297.000000)">
            <g id="CREATE-ITEM" transform="translate(327.000000, 413.000000)">
                <g id="NOTIFICATION-BAR" transform="translate(66.000000, 545.000000)">
                    <g id="SET-2" transform="translate(23.000000, 279.000000)">
                        <g id="doughnut-1" transform="translate(486.000000, 60.000000)">
                            <g>
                                <ellipse id="Oval" fill="#FFDA44" fill-rule="nonzero" cx="34.7429" cy="16.5998994" rx="15.6735" ry="15.7684909"></ellipse>
                                <path d="M44.7316,4.44819636 C46.9769,7.17673333 48.3266,10.6784279 48.3266,14.4974339 C48.3266,23.2061964 41.3094,30.2659248 32.6531,30.2659248 C28.8571,30.2659248 25.3765,28.9080448 22.6644,26.649137 C25.5393,30.1425818 29.8827,32.3683903 34.7429,32.3683903 C43.3992,32.3683903 50.4164,25.3086618 50.4164,16.5998994 C50.4163,11.7102436 48.204,7.34062061 44.7316,4.44819636 Z" id="Shape" fill="#EEBF00" fill-rule="nonzero"></path>
                                <path d="M50.4163,14.5049794 C48.594,14.6973382 48.548,18.7025661 46.6359,18.7025661 C44.6757,18.7025661 44.6757,14.4976352 42.7165,14.4976352 C40.7573,14.4976352 40.7573,18.7025661 38.7981,18.7025661 C36.8389,18.7025661 36.8389,14.4976352 34.8797,14.4976352 C32.9205,14.4976352 32.9205,18.7025661 30.9613,18.7025661 C29.0021,18.7025661 29.0021,14.4976352 27.0429,14.4976352 C25.0848,14.4976352 25.0848,18.7025661 23.1256,18.7025661 C21.2134,18.7025661 21.1675,14.6973382 19.3452,14.5049794 C20.3629,6.78688485 26.9312,0.831609697 34.8807,0.831609697 C42.8302,0.831609697 49.3986,6.78678424 50.4163,14.5049794 Z" id="Shape" fill="#AA6100" fill-rule="nonzero"></path>
                                <ellipse id="Oval" fill="#FFFFFF" fill-rule="nonzero" cx="34.7429" cy="16.5998994" rx="5.2245" ry="5.25616364"></ellipse>
                                <ellipse id="Oval" fill="#FFDA44" fill-rule="nonzero" cx="16.4571" cy="16.5998994" rx="15.6735" ry="15.7684909"></ellipse>
                                <path d="M26.4458,4.44819636 C28.6911,7.17673333 30.0408,10.6784279 30.0408,14.4974339 C30.0408,23.2061964 23.0236,30.2659248 14.3673,30.2659248 C10.5713,30.2659248 7.0907,28.9080448 4.3786,26.649137 C7.2535,30.1425818 11.5969,32.3683903 16.4571,32.3683903 C25.1133,32.3683903 32.1306,25.3086618 32.1306,16.5998994 C32.1306,11.7102436 29.9182,7.34062061 26.4458,4.44819636 Z" id="Shape" fill="#EEBF00" fill-rule="nonzero"></path>
                                <path d="M31.9927,14.5049794 C30.1704,14.6973382 30.1244,18.7025661 28.2123,18.7025661 C26.2521,18.7025661 26.2521,14.4976352 24.2929,14.4976352 C22.3337,14.4976352 22.3337,18.7025661 20.3745,18.7025661 C18.4153,18.7025661 18.4153,14.4976352 16.4561,14.4976352 C14.4969,14.4976352 14.4969,18.7025661 12.5377,18.7025661 C10.5785,18.7025661 10.5785,14.4976352 8.6193,14.4976352 C6.6612,14.4976352 6.6612,18.7025661 4.702,18.7025661 C2.7898,18.7025661 2.7439,14.6973382 0.9216,14.5049794 C1.9393,6.78688485 8.5076,0.831609697 16.4571,0.831609697 C24.4067,0.831609697 30.975,6.78678424 31.9927,14.5049794 Z" id="Shape" fill="#AA6100" fill-rule="nonzero"></path>
                                <ellipse id="Oval" fill="#FFFFFF" fill-rule="nonzero" cx="16.4571" cy="16.5998994" rx="5.2245" ry="5.25616364"></ellipse>
                                <path d="M34.7429,0.0430593939 C32.0978,0.0430593939 29.4682,0.689755152 27.1381,1.91332606 L27.8633,3.31124727 C29.9704,2.20478182 32.3494,1.61995879 34.7429,1.61995879 C42.0629,1.61995879 48.166,6.96193939 49.4034,13.974383 C48.6037,14.429223 48.1545,15.3923248 47.7477,16.2655855 C47.2979,17.2309006 46.9449,17.9143176 46.498,17.9143176 C46.0505,17.9143176 45.6973,17.2308 45.2473,16.265183 C44.7166,15.1266242 44.0562,13.7093867 42.5786,13.7093867 C41.6195,13.7093867 41.0049,14.3067855 40.5463,15.0373867 C39.8597,12.4596582 37.5187,10.5557891 34.7429,10.5557891 C34.2558,10.5557891 33.7692,10.6150461 33.2954,10.7323527 C32.8502,10.8433212 32.4243,11.0053976 32.0194,11.2131491 C29.7926,4.72023515 23.6579,0.0430593939 16.4572,0.0430593939 C7.3826,0.0430593939 0,7.47040242 0,16.5998994 C0,25.7293964 7.3826,33.1567394 16.4571,33.1567394 C19.8355,33.1567394 22.9789,32.1267345 25.5946,30.3633115 C26.0939,30.6998388 26.6109,31.0096048 27.1379,31.2864727 C29.4679,32.5100436 32.0976,33.1567394 34.7427,33.1567394 C43.8172,33.1567394 51.1998,25.7293964 51.1998,16.5998994 C51.1998,7.47040242 43.8174,0.0430593939 34.7429,0.0430593939 Z M16.4571,1.61995879 C23.7771,1.61995879 29.8802,6.96193939 31.1176,13.974383 C30.3179,14.429223 29.8687,15.3923248 29.4619,16.2655855 C29.0121,17.2309006 28.6591,17.9143176 28.2122,17.9143176 C27.7647,17.9143176 27.4115,17.2308 26.9615,16.265183 C26.4308,15.1266242 25.7704,13.7093867 24.2928,13.7093867 C23.3337,13.7093867 22.7191,14.3067855 22.2605,15.0372861 C21.574,12.4596582 19.2329,10.5555879 16.4571,10.5555879 C13.6806,10.5555879 11.339,12.4606642 10.6531,15.0392982 C10.1945,14.3078921 9.5797,13.7093867 8.6193,13.7093867 C7.1421,13.7093867 6.482,15.1265236 5.9516,16.2652836 C5.5019,17.2308 5.1489,17.9143176 4.702,17.9143176 C4.2551,17.9143176 3.9021,17.2309006 3.4523,16.2655855 C3.0448,15.391017 2.5949,14.4262048 1.7969,13.9727733 C3.035,6.96093333 9.1376,1.61995879 16.4571,1.61995879 Z M12.0163,16.5998994 C12.0163,14.1364594 14.0084,12.1321855 16.4571,12.1321855 C18.9058,12.1321855 20.8979,14.1364594 20.8979,16.5998994 C20.8979,19.06344 18.9058,21.0676133 16.4571,21.0676133 C14.0084,21.0676133 12.0163,19.0635406 12.0163,16.5998994 Z M1.5673,16.5998994 C1.5673,16.4073394 1.5721,16.2158861 1.5793,16.0249358 C1.7386,16.3037152 1.8899,16.6271636 2.0331,16.9345152 C2.5638,18.0732752 3.2242,19.4907139 4.702,19.4907139 C6.1799,19.4907139 6.8403,18.0731745 7.3709,16.9340121 C7.8204,15.9689988 8.1731,15.285783 8.6193,15.285783 C9.0662,15.285783 9.419,15.968697 9.8686,16.9334085 C10.131,17.4962994 10.4026,18.0754885 10.7692,18.5426024 C11.5755,20.9250545 13.8198,22.6443115 16.4571,22.6443115 C19.0959,22.6443115 21.3412,20.9232436 22.1463,18.53888 C22.5109,18.0726715 22.7816,17.4954945 23.0431,16.9345152 C23.493,15.9692 23.8461,15.285783 24.2928,15.285783 C24.7396,15.285783 25.0926,15.9689988 25.5424,16.9341127 C26.0732,18.0730739 26.7339,19.4907139 28.2122,19.4907139 C29.69,19.4907139 30.3504,18.0733758 30.8811,16.9345152 C31.0241,16.6274655 31.1752,16.3044194 31.335,16.0257406 C31.3422,16.2162885 31.347,16.40744 31.347,16.5996982 C31.347,24.8597576 24.6675,31.5797394 16.4572,31.5797394 C8.2469,31.5797394 1.5673,24.8599588 1.5673,16.5998994 Z M34.7429,31.5799406 C32.3494,31.5799406 29.9704,30.995017 27.8634,29.8887527 C27.5497,29.7240606 27.2399,29.5463903 26.9358,29.3573515 C30.5852,26.3179418 32.9143,21.7274885 32.9143,16.5998994 C32.9143,15.2797467 32.759,13.9956109 32.4675,12.7638909 C32.8429,12.5374267 33.2458,12.3690121 33.671,12.2629733 C34.0213,12.1762509 34.3818,12.1322861 34.7429,12.1322861 C37.1916,12.1322861 39.1837,14.1364594 39.1837,16.6 C39.1837,19.06344 37.1916,21.0677139 34.7429,21.0677139 C34.3808,21.0677139 34.0209,21.0235479 33.6729,20.9365236 L33.2946,22.4668424 C33.7662,22.5847527 34.2534,22.6446133 34.7428,22.6446133 C37.3817,22.6446133 39.627,20.9233442 40.4321,18.5387794 C40.7966,18.0725709 41.0673,17.4954945 41.3287,16.9346158 C41.7786,15.9693006 42.1317,15.2858836 42.5784,15.2858836 C43.0252,15.2858836 43.3782,15.9690994 43.828,16.9342133 C44.3588,18.0731745 45.0195,19.4908145 46.4978,19.4908145 C47.9756,19.4908145 48.636,18.0734764 49.1667,16.9346158 C49.3097,16.6275661 49.4608,16.30452 49.6206,16.0258412 C49.6278,16.2163891 49.6326,16.4075406 49.6326,16.5997988 C49.6327,24.8599588 42.9531,31.5799406 34.7429,31.5799406 Z" id="Shape" fill="#000000" fill-rule="nonzero"></path>
                                <path d="M30.2223,27.5154558 L29.621,28.9717285 C31.2532,29.6538376 32.9906,29.9884533 34.7228,29.9884533 C37.4637,29.9884533 40.1909,29.1500024 42.4614,27.5234036 L41.5523,26.2388655 C38.2833,28.5810752 33.9417,29.0700206 30.2223,27.5154558 Z" id="Shape" fill="#000000" fill-rule="nonzero"></path>
                                <path d="M14.4974,4.93945576 L14.2372,3.38448848 C9.4753,4.19104727 5.5133,7.54293939 3.8975,12.1318836 L5.3749,12.6584558 C6.8008,8.60876 10.2964,5.65104242 14.4974,4.93945576 Z" id="Shape" fill="#000000" fill-rule="nonzero"></path>
                            </g>
                        </g>
                    </g>
                </g>
            </g>
        </g>
    </g>
</svg>