<?xml version="1.0" encoding="UTF-8"?>
<svg width="52px" height="34px" viewBox="0 0 52 34" version="1.1" xmlns="http://www.w3.org/2000/svg" xmlns:xlink="http://www.w3.org/1999/xlink">
    <!-- Generator: Sketch 62 (91390) - https://sketch.com -->
    <title>doughnut</title>
    <desc>Created with Sketch.</desc>
    <g id="Page-1" stroke="none" stroke-width="1" fill="none" fill-rule="evenodd">
        <g id="16.3-MAIN-UI---ALL-ITEM-(-ADD)-Copy-2" transform="translate(-820.000000, -1297.000000)">
            <g id="CREATE-ITEM" transform="translate(327.000000, 413.000000)">
                <g id="NOTIFICATION-BAR" transform="translate(66.000000, 545.000000)">
                    <g id="SET-2" transform="translate(23.000000, 279.000000)">
                        <g id="doughnut" transform="translate(404.000000, 60.000000)">
                            <g>
                                <ellipse id="Oval" fill="#FF9811" fill-rule="nonzero" cx="34.7429" cy="16.5998994" rx="15.6735" ry="15.7684909"></ellipse>
                                <path d="M44.7316,4.44819636 C46.9769,7.17673333 48.3266,10.6784279 48.3266,14.4974339 C48.3266,23.2060958 41.3094,30.2659248 32.6531,30.2659248 C28.8571,30.2659248 25.3765,28.9080448 22.6644,26.649137 C25.5393,30.1425818 29.8827,32.3683903 34.7429,32.3683903 C43.3992,32.3683903 50.4164,25.3086618 50.4164,16.5998994 C50.4163,11.7102436 48.204,7.34052 44.7316,4.44819636 Z" id="Shape" fill="#DD7903" fill-rule="nonzero"></path>
                                <ellipse id="Oval" fill="#FFFFFF" fill-rule="nonzero" cx="34.7429" cy="16.5998994" rx="5.2245" ry="5.25616364"></ellipse>
                                <ellipse id="Oval" fill="#FF9811" fill-rule="nonzero" cx="16.4571" cy="16.5998994" rx="15.6735" ry="15.7684909"></ellipse>
                                <path d="M26.4458,4.44819636 C28.6911,7.17673333 30.0408,10.6784279 30.0408,14.4974339 C30.0408,23.2060958 23.0236,30.2659248 14.3673,30.2659248 C10.5713,30.2659248 7.0907,28.9080448 4.3786,26.649137 C7.2535,30.1425818 11.5969,32.3683903 16.4571,32.3683903 C25.1133,32.3683903 32.1306,25.3086618 32.1306,16.5998994 C32.1306,11.7102436 29.9182,7.34052 26.4458,4.44819636 Z" id="Shape" fill="#DD7903" fill-rule="nonzero"></path>
                                <ellipse id="Oval" fill="#FFFFFF" fill-rule="nonzero" cx="16.4571" cy="16.5998994" rx="5.2245" ry="5.25616364"></ellipse>
                                <path d="M34.7429,0.0430593939 C32.0977,0.0430593939 29.4682,0.689755152 27.1381,1.91332606 L27.8634,3.31114667 C29.9704,2.20468121 32.3494,1.61985818 34.7429,1.61985818 C42.9532,1.61985818 49.6327,8.33984 49.6327,16.5998994 C49.6327,24.8599588 42.9532,31.5799406 34.7429,31.5799406 C32.3494,31.5799406 29.9704,30.9951176 27.8634,29.8887527 C27.5497,29.7240606 27.2398,29.5463903 26.9357,29.3574521 C30.5852,26.318143 32.9143,21.7275891 32.9143,16.6 C32.9143,15.2798473 32.759,13.9957115 32.4675,12.7639915 C32.8429,12.5376279 33.2459,12.3691127 33.6711,12.2631745 C34.021,12.1765527 34.3816,12.1325879 34.7428,12.1325879 C37.1915,12.1325879 39.1836,14.1367612 39.1836,16.6003018 C39.1836,19.0638424 37.1915,21.0680158 34.7428,21.0680158 C34.3807,21.0680158 34.0209,21.0238497 33.6729,20.9368255 L33.2945,22.4670436 C33.7661,22.5850545 34.2533,22.6449152 34.7427,22.6449152 C38.0557,22.6449152 40.7509,19.9333806 40.7509,16.6003018 C40.7509,13.267223 38.0557,10.5556885 34.7427,10.5556885 C34.2554,10.5556885 33.7686,10.6149455 33.2952,10.7322521 C32.85,10.8432206 32.4241,11.005297 32.0192,11.2130485 C29.7924,4.72013455 23.6577,0.0429587879 16.457,0.0429587879 C7.3826,0.0430593939 0,7.47040242 0,16.5998994 C0,25.7293964 7.3826,33.1567394 16.4571,33.1567394 C19.8355,33.1567394 22.9789,32.1267345 25.5946,30.3633115 C26.0939,30.6999394 26.6109,31.0097055 27.1379,31.2865733 C29.468,32.5101442 32.0976,33.15684 34.7427,33.15684 C43.8172,33.15684 51.1998,25.729497 51.1998,16.6 C51.2,7.47040242 43.8174,0.0430593939 34.7429,0.0430593939 Z M1.5673,16.5998994 C1.5673,8.33984 8.2468,1.61985818 16.4571,1.61985818 C24.6674,1.61985818 31.3469,8.33984 31.3469,16.5998994 C31.3469,24.8599588 24.6674,31.5799406 16.4571,31.5799406 C8.2468,31.5799406 1.5673,24.8599588 1.5673,16.5998994 Z" id="Shape" fill="#000000" fill-rule="nonzero"></path>
                                <path d="M30.2223,27.5154558 L29.6211,28.9716279 C31.2532,29.653737 32.9906,29.9884533 34.7229,29.9884533 C37.4637,29.9884533 40.1909,29.1500024 42.4614,27.5234036 L41.5522,26.2388655 C38.2835,28.5808739 33.942,29.0701212 30.2223,27.5154558 Z" id="Shape" fill="#000000" fill-rule="nonzero"></path>
                                <path d="M14.2373,3.38448848 C9.4754,4.19104727 5.5134,7.54293939 3.8976,12.1319842 L5.375,12.6585564 C6.801,8.60886061 10.2965,5.65114303 14.4976,4.93955636 L14.2373,3.38448848 Z" id="Shape" fill="#000000" fill-rule="nonzero"></path>
                                <path d="M16.4571,10.5552861 C13.1441,10.5552861 10.4489,13.2668206 10.4489,16.5998994 C10.4489,19.9329782 13.1441,22.6445127 16.4571,22.6445127 C19.7701,22.6445127 22.4653,19.9328776 22.4653,16.5998994 C22.4653,13.2668206 19.7701,10.5552861 16.4571,10.5552861 Z M16.4571,21.0676133 C14.0084,21.0676133 12.0163,19.0633394 12.0163,16.5998994 C12.0163,14.1363588 14.0084,12.1321855 16.4571,12.1321855 C18.9058,12.1321855 20.8979,14.1363588 20.8979,16.5998994 C20.898,19.0633394 18.9059,21.0676133 16.4571,21.0676133 Z" id="Shape" fill="#000000" fill-rule="nonzero"></path>
                            </g>
                        </g>
                    </g>
                </g>
            </g>
        </g>
    </g>
</svg>