<?xml version="1.0" encoding="UTF-8"?>
<svg width="36px" height="52px" viewBox="0 0 36 52" version="1.1" xmlns="http://www.w3.org/2000/svg" xmlns:xlink="http://www.w3.org/1999/xlink">
    <!-- Generator: Sketch 62 (91390) - https://sketch.com -->
    <title>fish-and-chips</title>
    <desc>Created with Sketch.</desc>
    <g id="Page-1" stroke="none" stroke-width="1" fill="none" fill-rule="evenodd">
        <g id="16.3-MAIN-UI---ALL-ITEM-(-ADD)-Copy-2" transform="translate(-754.000000, -1005.000000)">
            <g id="CREATE-ITEM" transform="translate(327.000000, 413.000000)">
                <g id="NOTIFICATION-BAR" transform="translate(66.000000, 545.000000)">
                    <g id="SET-1" transform="translate(23.000000, 34.000000)">
                        <g id="fish-and-chips" transform="translate(338.000000, 13.000000)">
                            <g>
                                <rect id="Rectangle-path" fill="#FFDA44" fill-rule="nonzero" x="11.3724002" y="3.67700005" width="3.13470005" height="15.9148002"></rect>
                                <polygon id="Shape" fill="#FFDA44" fill-rule="nonzero" points="9.43200014 19.5918003 5.60560008 19.5918003 1.33720002 13.4969002 3.90450006 11.6987002"></polygon>
                                <path d="M31.5619005,17.6034003 C31.5473005,18.2796003 31.4731005,18.9440003 31.3487005,19.5918003 L17.1131003,19.5918003 C16.9982003,18.9429003 16.9355003,18.2794003 16.9355003,17.6034003 C16.9355003,10.3341002 24.2487004,4.43990007 24.2487004,4.43990007 C24.2487004,4.43990007 31.7134005,10.3351002 31.5619005,17.6034003 Z" id="Shape" fill="#0DD9DD" fill-rule="nonzero"></path>
                                <path d="M24.2487004,4.43980007 C24.2487004,4.43980007 23.8388004,4.77030007 23.2134003,5.37070008 C25.2656004,7.30720011 29.5877004,12.0551002 29.4721004,17.6033003 C29.4575004,18.2795003 29.3833004,18.9439003 29.2589004,19.5917003 L31.3487005,19.5917003 C31.4730005,18.9439003 31.5472005,18.2793003 31.5619005,17.6033003 C31.7134005,10.3351002 24.2487004,4.43980007 24.2487004,4.43980007 Z" id="Shape" fill="#02A6AA" fill-rule="nonzero"></path>
                                <polygon id="Shape" fill="#0DD9DD" fill-rule="nonzero" points="27.9064004 0.783700012 24.2498004 4.44020007 20.5933003 0.783700012"></polygon>
                                <polygon id="Shape" fill="#FFDA44" fill-rule="nonzero" points="11.5323002 19.5918003 8.28680012 19.5918003 5.05180008 7.52010011 8.07990012 6.7082001"></polygon>
                                <polygon id="Shape" fill="#FFDA44" fill-rule="nonzero" points="20.2039003 10.3957002 15.9156002 19.5918003 12.4570002 19.5918003 17.3628003 9.07080014"></polygon>
                                <polygon id="Shape" fill="#EBE5DD" fill-rule="nonzero" points="34.3184005 20.4278003 17.9271003 50.4163008 17.2740003 50.4163008 0.881600013 20.4278003 0.881600013 19.5918003 34.3184005 19.5918003"></polygon>
                                <polygon id="Shape" fill="#D9CCBC" fill-rule="nonzero" points="32.2286005 19.5918003 32.2286005 20.4278003 16.5556002 49.1021007 17.2740003 50.4163008 17.9271003 50.4163008 34.3184005 20.4278003 34.3184005 19.5918003"></polygon>
                                <path d="M24.2498004,10.9767002 C25.0274004,10.9767002 25.6600004,11.6094002 25.6600004,12.3869002 L27.2273004,12.3869002 C27.2273004,10.7451002 25.8916004,9.40940014 24.2498004,9.40940014 C22.6080003,9.40940014 21.2723003,10.7451002 21.2723003,12.3869002 L22.8396003,12.3869002 C22.8396003,11.6092002 23.4722003,10.9767002 24.2498004,10.9767002 Z" id="Shape" fill="#000000" fill-rule="nonzero"></path>
                                <path d="M18.6506003,16.7746002 L20.2179003,16.7746002 C20.2179003,15.9971002 20.8505003,15.3644002 21.6281003,15.3644002 C22.4057003,15.3644002 23.0383003,15.9971002 23.0383003,16.7746002 L24.6056004,16.7746002 C24.6056004,15.9971002 25.2383004,15.3644002 26.0159004,15.3644002 C26.7935004,15.3644002 27.4261004,15.9971002 27.4261004,16.7746002 L28.9934004,16.7746002 C28.9934004,15.1328002 27.6577004,13.7971002 26.0159004,13.7971002 C25.1484004,13.7971002 24.3667004,14.1701002 23.8220004,14.7639002 C23.2773003,14.1701002 22.4955003,13.7971002 21.6281003,13.7971002 C19.9863003,13.7970002 18.6506003,15.1327002 18.6506003,16.7746002 Z" id="Shape" fill="#000000" fill-rule="nonzero"></path>
                                <path d="M32.2597005,18.8082003 C32.3067005,18.4077003 32.3365005,18.0101003 32.3443005,17.6198003 C32.4771005,11.2921002 27.2946004,6.08200009 25.4034004,4.39490007 L29.7982004,0 L18.7014003,0 L23.1022003,4.40090007 C22.3899003,5.05130008 21.1925003,6.22970009 19.9849003,7.79980012 L21.2274003,8.75540013 C22.3900003,7.24360011 23.5594004,6.10510009 24.2128004,5.51140008 L24.2499004,5.54840008 L24.2901004,5.50820008 C25.9416004,6.9858001 30.8968005,11.9015002 30.7773005,17.5876003 C30.7693005,17.9870003 30.7351005,18.3957003 30.6799005,18.8081003 L17.1458003,18.8081003 L21.2454003,10.0166001 L16.9839003,8.02910012 L15.2909002,11.6599002 L15.2909002,2.89330004 L10.5889002,2.89330004 L10.5889002,10.9211002 L12.1562002,10.9211002 L12.1562002,4.46070007 L13.7235002,4.46070007 L13.7235002,15.0215002 L12.0695002,18.5686003 L8.63400013,5.74840009 L4.09200006,6.9661001 L5.66950008,12.8527002 L4.09680006,10.6071002 L0.245700004,13.3045002 L3.49970005,17.9515003 L4.78360007,17.0525003 L2.42850004,13.6892002 L3.71220006,12.7902002 L6.8556001,17.2786003 L7.26550011,18.8082003 L0.0980000015,18.8082003 L0.0980000015,20.6280003 L16.8092003,51.2000008 L18.3918003,51.2000008 L35.1020005,20.6280003 L35.1020005,18.8082003 L32.2597005,18.8082003 Z M26.0144004,1.56730002 L24.2498004,3.33200005 L22.4853003,1.56740002 L26.0144004,1.56740002 L26.0144004,1.56730002 Z M17.7418003,10.1122002 L19.1624003,10.7747002 L15.4163002,18.8082003 L13.6871002,18.8082003 L17.7418003,10.1122002 Z M6.01170009,8.07400012 L7.52600011,7.66810011 L10.5111002,18.8082003 L8.88830013,18.8082003 L6.01170009,8.07400012 Z M17.6005003,49.3798007 L1.74620003,20.3755003 L4.14000006,20.3755003 L18.7970003,47.1910007 L17.6005003,49.3798007 Z M19.6899003,45.5570007 L5.92600009,20.3755003 L33.4538005,20.3755003 L19.6899003,45.5570007 Z" id="Shape" fill="#000000" fill-rule="nonzero"></path>
                            </g>
                        </g>
                    </g>
                </g>
            </g>
        </g>
    </g>
</svg>