<?xml version="1.0" encoding="UTF-8"?>
<svg width="52px" height="28px" viewBox="0 0 52 28" version="1.1" xmlns="http://www.w3.org/2000/svg" xmlns:xlink="http://www.w3.org/1999/xlink">
    <!-- Generator: Sketch 62 (91390) - https://sketch.com -->
    <title>fish</title>
    <desc>Created with Sketch.</desc>
    <g id="Page-1" stroke="none" stroke-width="1" fill="none" fill-rule="evenodd">
        <g id="16.3-MAIN-UI---ALL-ITEM-(-ADD)-Copy-2" transform="translate(-902.000000, -1026.000000)">
            <g id="CREATE-ITEM" transform="translate(327.000000, 413.000000)">
                <g id="NOTIFICATION-BAR" transform="translate(66.000000, 545.000000)">
                    <g id="SET-1" transform="translate(23.000000, 34.000000)">
                        <g id="fish" transform="translate(486.000000, 34.000000)">
                            <g>
                                <ellipse id="Oval" fill="#FFFFFF" fill-rule="nonzero" cx="25.6000004" cy="14.0000002" rx="24.8163004" ry="13.1657002"></ellipse>
                                <path d="M25.6000004,0.834300012 C20.9971003,0.834300012 16.6881002,1.49990002 12.9931002,2.65840004 C15.6243002,2.15440003 18.4617003,1.87920003 21.4204003,1.87920003 C35.1261005,1.87920003 46.2367007,7.77370012 46.2367007,15.0449002 C46.2367007,19.8742003 41.3346006,24.0954004 34.0273005,26.3865004 C43.5845006,24.5559004 50.4163008,19.7015003 50.4163008,14.0000002 C50.4163008,6.7288001 39.3057006,0.834300012 25.6000004,0.834300012 Z" id="Shape" fill="#EBE5DD" fill-rule="nonzero"></path>
                                <path d="M8.58760013,2.77330004 C5.27080008,6.09020009 4.38380007,10.7250002 6.26640009,13.7961002 C5.83550009,14.4468002 5.84000009,15.2538002 6.32400009,15.7379002 C6.8080001,16.2219002 7.61510011,16.2265002 8.26580012,15.7955002 C11.3370002,17.6781003 15.9717002,16.7911003 19.2886003,13.4743002" id="Shape" fill="#FFDA44" fill-rule="nonzero"></path>
                                <path d="M18.4261003,12.6119002 C15.2036002,15.2739002 11.0788002,15.8737002 8.26570012,14.1493002 C7.61500011,14.5802002 6.8079001,14.5757002 6.32390009,14.0917002 C6.27270009,14.0404002 6.22710009,13.9853002 6.18650009,13.9274002 C5.83810009,14.5524002 5.87190009,15.2860002 6.32390009,15.7379002 C6.8079001,16.2219002 7.61500011,16.2265002 8.26570012,15.7955002 C11.3369002,17.6781003 15.9716002,16.7911003 19.2885003,13.4743002 L18.4261003,12.6119002 Z" id="Shape" fill="#EEBF00" fill-rule="nonzero"></path>
                                <ellipse id="Oval" fill="#FFF5CC" fill-rule="nonzero" transform="translate(13.937446, 8.123651) rotate(-45.000000) translate(-13.937446, -8.123651) " cx="13.9374461" cy="8.12365072" rx="3.78346377" ry="7.56702754"></ellipse>
                                <path d="M29.1222004,21.6274003 C36.7227005,21.6274003 42.8841006,14.0010002 42.8841006,14.0010002 C42.8841006,14.0010002 36.7210005,6.21630009 29.1223004,6.37460009 C21.5139003,6.5331001 15.3604002,14.0010002 15.3604002,14.0010002 C15.3604002,14.0010002 21.5218003,21.6274003 29.1222004,21.6274003 Z" id="Shape" fill="#0DD9DD" fill-rule="nonzero"></path>
                                <path d="M16.8427003,15.5953002 C18.3743003,13.9253002 23.7538004,8.59800013 30.1673004,8.46440013 C35.5434005,8.35250012 40.2002006,12.2159002 42.4649006,14.4858002 C42.7383006,14.1814002 42.8842006,14.0010002 42.8842006,14.0010002 C42.8842006,14.0010002 36.7211005,6.21630009 29.1224004,6.37460009 C21.5140003,6.5331001 15.3605002,14.0010002 15.3605002,14.0010002 C15.3605002,14.0010002 15.8950002,14.6625002 16.8427003,15.5953002 Z" id="Shape" fill="#AAFFF5" fill-rule="nonzero"></path>
                                <path d="M41.4200006,12.3960002 C39.9125006,14.0742002 34.5108005,19.5377003 28.0775004,19.5377003 C22.7148003,19.5377003 18.0689003,15.7413002 15.7979002,13.5055002 C15.5125002,13.8167002 15.3606002,14.0010002 15.3606002,14.0010002 C15.3606002,14.0010002 21.5219003,21.6274003 29.1224004,21.6274003 C36.7229005,21.6274003 42.8843006,14.0010002 42.8843006,14.0010002 C42.8843006,14.0010002 42.3562006,13.3345002 41.4200006,12.3960002 Z" id="Shape" fill="#02A6AA" fill-rule="nonzero"></path>
                                <ellipse id="Oval" fill="#FFFFFF" fill-rule="nonzero" cx="21.1331003" cy="10.7974002" rx="2.29370003" ry="2.28790003"></ellipse>
                                <polygon id="Shape" fill="#02A6AA" fill-rule="nonzero" points="46.7069007 10.1866002 42.8842006 13.9998002 46.7069007 17.8130003"></polygon>
                                <path d="M43.5152006,3.99800006 C38.7169006,1.45260002 32.3546005,0.0506000008 25.6000004,0.0506000008 C22.0709003,0.0506000008 18.6571003,0.429500006 15.4536002,1.17660002 L15.8095002,2.70290004 C18.8965003,1.98310003 22.1905003,1.61800002 25.6000004,1.61800002 C32.1030005,1.61800002 38.2046006,2.95490004 42.7806006,5.38270008 C44.5966007,6.34620009 46.0766007,7.43090011 47.1908007,8.59710013 L42.9286006,12.8486002 C42.2521006,12.0936002 41.0035006,10.8015002 39.3322006,9.50880014 C35.9304005,6.8774001 32.3975005,5.52310008 29.1055004,5.59160008 C26.7063004,5.64210008 24.2216004,6.3803001 21.7158003,7.78240012 C21.5270003,7.74600012 21.3323003,7.72640012 21.1330003,7.72640012 C20.5858003,7.72640012 20.0719003,7.87040012 19.6262003,8.12130012 C19.0157003,7.0072001 18.1792003,5.90660009 17.1671003,4.89440007 C15.6536002,3.38100005 13.9230002,2.24840003 12.2942002,1.70540003 C10.4825002,1.10170002 8.96940013,1.28400002 8.03390012,2.21940003 C8.03330012,2.22000003 8.03280012,2.22080003 8.03210012,2.22130003 C7.16690011,3.08650005 6.4539001,4.04450006 5.90020009,5.04810008 C5.79600009,5.11600008 5.68770008,5.18800008 5.57140008,5.26690008 C1.92660003,7.74810012 0,10.7679002 0,14.0000002 C0,17.8207003 2.72920004,21.3728003 7.68480011,24.0020004 C12.4831002,26.5475004 18.8454003,27.9494004 25.6000004,27.9494004 C32.3546005,27.9494004 38.7169006,26.5475004 43.5152006,24.0020004 C48.4708007,21.3728003 51.2000008,17.8207003 51.2000008,14.0000002 C51.2000008,10.1793002 48.4708007,6.6271001 43.5152006,3.99800006 Z M45.9233007,12.0752002 L45.9233007,15.9244002 L43.9939007,13.9998002 L45.9233007,12.0752002 Z M29.1382004,7.15840011 C35.1194005,7.0313001 40.2926006,12.2565002 41.8152006,13.9590002 L41.7744006,13.9998002 L41.8115006,14.0368002 C40.2768006,15.7197002 35.1109005,20.8441003 29.1218004,20.8441003 C28.1718004,20.8441003 27.2424004,20.7150003 26.3450004,20.4910003 C27.2218004,16.2465002 27.2251004,11.8058002 26.3546004,7.55630011 C27.2974004,7.31200011 28.2270004,7.17770011 29.1382004,7.15840011 Z M8.77940013,4.07340006 L12.0462002,7.34020011 L9.60190014,7.34020011 C8.89690013,6.04530009 8.62740013,4.87340007 8.77940013,4.07340006 Z M18.4605003,9.27780014 C18.2883003,9.57820014 18.1655003,9.91020015 18.1031003,10.2629002 C17.9309003,10.4039002 17.7643003,10.5436002 17.6037003,10.6811002 L15.8302002,8.90750013 L18.2687003,8.90750013 C18.3363003,9.03120013 18.4001003,9.15470014 18.4605003,9.27780014 Z M13.1544002,8.90750013 L13.1544002,11.4244002 C12.6963002,11.0698002 12.2470002,10.6752002 11.8172002,10.2454002 C11.3748002,9.80290015 10.9808002,9.35380014 10.6346002,8.90740013 L13.1544002,8.90740013 L13.1544002,8.90750013 Z M15.3931002,12.7886002 C15.1706002,12.6899002 14.9465002,12.5782002 14.7218002,12.4559002 L14.7218002,10.0155001 L16.4400002,11.7337002 C16.0148002,12.1399002 15.6633002,12.5004002 15.3931002,12.7886002 Z M18.3506003,12.1089002 C18.8443003,13.1485002 19.9056003,13.8694002 21.1329003,13.8694002 C22.8297003,13.8694002 24.2102004,12.4915002 24.2102004,10.7978002 C24.2102004,9.97990015 23.8876004,9.23620014 23.3635003,8.68510013 C23.8624004,8.43900013 24.3593004,8.22100012 24.8529004,8.03400012 C25.6376004,11.9754002 25.6338004,16.0848002 24.8418004,20.0215003 C20.7506003,18.4906003 17.5311003,15.2464002 16.4034002,14.0052002 C16.8070003,13.5678002 17.4752003,12.8803002 18.3506003,12.1089002 Z M22.6428003,10.7979002 C22.6428003,11.6273002 21.9655003,12.3021002 21.1328003,12.3021002 C20.3001003,12.3021002 19.6228003,11.6273002 19.6228003,10.7979002 C19.6228003,9.96850015 20.3001003,9.29370014 21.1328003,9.29370014 C21.9655003,9.29370014 22.6428003,9.96850015 22.6428003,10.7979002 Z M17.2373003,7.34010011 L14.7218002,7.34010011 L14.7218002,4.82050007 C15.1679002,5.16670008 15.6165002,5.56050008 16.0587002,6.00270009 C16.4855002,6.4295001 16.8813003,6.8795001 17.2373003,7.34010011 Z M13.1544002,3.78740006 L13.1544002,6.23160009 L9.88770015,2.96490004 C10.6877002,2.81270004 11.8597002,3.08230005 13.1544002,3.78740006 Z M42.7806006,22.6174003 C38.2046006,25.0451004 32.1030005,26.3820004 25.6000004,26.3820004 C19.0970003,26.3820004 12.9954002,25.0450004 8.41940013,22.6173003 C4.00080006,20.2731003 1.56740002,17.2128003 1.56740002,13.9999002 C1.56740002,11.4254002 3.09270005,9.35420014 4.80080007,7.84170012 C4.28680006,9.94250015 4.45070007,12.0573002 5.37250008,13.8089002 C4.99680007,14.6896002 5.13680008,15.6588002 5.76970009,16.2917002 C6.4036001,16.9254003 7.37340011,17.0652003 8.25430012,16.6889002 C9.34130014,17.2590003 10.5973002,17.5486003 11.9201002,17.5485003 C12.8831002,17.5485003 13.8816002,17.3949003 14.8751002,17.0844003 L14.4073002,15.5885002 C12.3114002,16.2438002 10.2224002,16.0755002 8.67590013,15.1271002 L8.24980012,14.8658002 L7.83330012,15.1420002 C7.48580011,15.3721002 7.08390011,15.3896002 6.8778001,15.1836002 C6.6722001,14.9781002 6.6898001,14.5763002 6.9198001,14.2286002 L7.19510011,13.8123002 L6.9342001,13.3868002 C5.62940008,11.2587002 5.83840009,8.32840012 7.31130011,5.72590009 C7.36550011,5.97100009 7.43370011,6.22210009 7.51970011,6.4801001 C8.06250012,8.10890012 9.19510014,9.83970015 10.7087002,11.3538002 C11.8514002,12.4965002 13.1303002,13.4288002 14.3907002,14.0489002 L14.7504002,14.4940002 C14.8157002,14.5748002 16.3790002,16.4957002 18.9147003,18.4369003 C22.3112003,21.0371003 25.8409004,22.4115003 29.1220004,22.4115003 C32.4036005,22.4115003 35.9335005,21.0371003 39.3297006,18.4369003 C41.0004006,17.1578003 42.2484006,15.8878002 42.9244006,15.1469002 L47.1909007,19.4029003 C46.0767007,20.5692003 44.5968007,21.6539003 42.7806006,22.6174003 Z M47.4906007,19.0763003 L47.4906007,8.92370013 C48.8926007,10.5067002 49.6326007,12.2301002 49.6326007,14.0000002 C49.6326007,15.7699002 48.8927007,17.4933003 47.4906007,19.0763003 Z" id="Shape" fill="#000000" fill-rule="nonzero"></path>
                                <path d="M37.6535006,13.9998002 C37.6535006,12.3061002 36.2730005,10.9282002 34.5762005,10.9282002 L34.5762005,12.4955002 C35.4089005,12.4955002 36.0862005,13.1703002 36.0862005,13.9997002 C36.0862005,14.8291002 35.4089005,15.5039002 34.5762005,15.5039002 L34.5762005,17.0712003 C36.2731005,17.0715003 37.6535006,15.6935002 37.6535006,13.9998002 Z" id="Shape" fill="#000000" fill-rule="nonzero"></path>
                                <path d="M33.0662005,16.7338002 C33.0662005,15.8258002 32.6690005,15.0087002 32.0393005,14.4460002 C32.6691005,13.8831002 33.0662005,13.0661002 33.0662005,12.1581002 C33.0662005,10.4644002 31.6857005,9.08660014 29.9889004,9.08660014 L29.9889004,10.6539002 C30.8216005,10.6539002 31.4989005,11.3287002 31.4989005,12.1580002 C31.4989005,12.9875002 30.8216005,13.6622002 29.9889004,13.6622002 L29.9889004,15.2295002 C30.8216005,15.2295002 31.4989005,15.9043002 31.4989005,16.7336002 C31.4989005,17.5631003 30.8216005,18.2379003 29.9889004,18.2379003 L29.9889004,19.8052003 C31.6857005,19.8055003 33.0662005,18.4274003 33.0662005,16.7338002 Z" id="Shape" fill="#000000" fill-rule="nonzero"></path>
                            </g>
                        </g>
                    </g>
                </g>
            </g>
        </g>
    </g>
</svg>