<?xml version="1.0" encoding="UTF-8"?>
<svg width="52px" height="38px" viewBox="0 0 52 38" version="1.1" xmlns="http://www.w3.org/2000/svg" xmlns:xlink="http://www.w3.org/1999/xlink">
    <!-- Generator: Sketch 62 (91390) - https://sketch.com -->
    <title>fruit</title>
    <desc>Created with Sketch.</desc>
    <g id="Page-1" stroke="none" stroke-width="1" fill="none" fill-rule="evenodd">
        <g id="16.3-MAIN-UI---ALL-ITEM-(-ADD)-Copy-2" transform="translate(-820.000000, -1016.000000)">
            <g id="CREATE-ITEM" transform="translate(327.000000, 413.000000)">
                <g id="NOTIFICATION-BAR" transform="translate(66.000000, 545.000000)">
                    <g id="SET-1" transform="translate(23.000000, 34.000000)">
                        <g id="fruit" transform="translate(404.000000, 24.000000)">
                            <g>
                                <path d="M0.783700012,12.1720637 C0.783700012,-1.48350796 50.4164008,-1.48350796 50.4164008,12.1720637 C50.4164008,25.8276353 0.783700012,25.8276353 0.783700012,12.1720637 Z" id="Shape" fill="#FFFFFF" fill-rule="nonzero"></path>
                                <ellipse id="Oval" fill="#FF505D" fill-rule="nonzero" cx="42.5273006" cy="8.21212182" rx="2.61220004" ry="2.6260212"></ellipse>
                                <path d="M43.4168006,5.74242337 C43.5173006,6.02149215 43.5723006,6.32247628 43.5723006,6.63642867 C43.5723006,8.08676203 42.4027006,9.26244987 40.9601006,9.26244987 C40.6478006,9.26244987 40.3483006,9.20715887 40.0707006,9.10602659 C40.4345006,10.1162435 41.3971006,10.8380425 42.5275006,10.8380425 C43.9702007,10.8380425 45.1397007,9.66225411 45.1397007,8.21202129 C45.1396007,7.07574085 44.4215007,6.10814824 43.4168006,5.74242337 Z" id="Shape" fill="#E21220" fill-rule="nonzero"></path>
                                <path d="M33.9322005,8.34341282 C30.6153005,11.6777621 29.7284004,16.3371854 31.6110005,19.4245347 C31.1801005,20.0786775 31.1846005,20.8900479 31.6686005,21.3766088 C32.1526005,21.8631696 32.9597005,21.8676934 33.6104005,21.4345135 C36.6816005,23.3270744 41.3163006,22.4353813 44.6331007,19.101032" id="Shape" fill="#FFDA44" fill-rule="nonzero"></path>
                                <ellipse id="Oval" fill="#FFF5CC" fill-rule="nonzero" transform="translate(39.282476, 13.722643) rotate(-45.000000) translate(-39.282476, -13.722643) " cx="39.2824763" cy="13.7226432" rx="3.78346377" ry="7.60706473"></ellipse>
                                <path d="M23.2790003,16.9032648 C21.4427003,18.7492807 22.1707003,22.4739845 22.1707003,22.4739845 C22.1707003,22.4739845 25.8758004,23.2058363 27.7121004,21.3598204 C29.5484004,19.5138045 28.8204004,15.7891008 28.8204004,15.7891008 C28.8204004,15.7891008 25.1152004,15.0573494 23.2790003,16.9032648 Z" id="Shape" fill="#91DC5A" fill-rule="nonzero"></path>
                                <path d="M8.92250013,10.1876192 C6.06610009,13.0591325 6.06610009,17.7147357 8.92250013,20.5863495 L6.7060001,18.358122 C3.84960006,15.4866087 3.84960006,10.8310055 6.7060001,7.95939165 L8.92250013,10.1876192 Z" id="Shape" fill="#FF9811" fill-rule="nonzero"></path>
                                <path d="M8.92250013,10.1876192 C6.06610009,13.0591325 6.06610009,17.7147357 8.92250013,20.5863495 C11.7789002,23.4578628 16.4100002,23.4578628 19.2665003,20.5863495 L8.92250013,10.1876192 Z" id="Shape" fill="#FFDA44" fill-rule="nonzero"></path>
                                <path d="M50.4163008,12.1720637 C50.4163008,25.9504819 39.3059006,37.1196672 25.6000004,37.1196672 C11.8941002,37.1196672 0.783700012,25.9504819 0.783700012,12.1720637 C0.783700012,25.8276353 50.4163008,25.8276353 50.4163008,12.1720637 Z" id="Shape" fill="#0DD9DD" fill-rule="nonzero"></path>
                                <path d="M47.1917007,17.5492648 C44.0314007,27.6740533 34.6245005,35.0189106 23.5102004,35.0189106 C17.1890003,35.0189106 11.4211002,32.6417994 7.0395001,28.730011 C11.5854002,33.8760957 18.2153003,37.1197677 25.6000004,37.1197677 C39.3059006,37.1197677 50.4163008,25.9505824 50.4163008,12.1721642 C50.4163008,14.2944341 49.2169007,16.0866669 47.1917007,17.5492648 Z" id="Shape" fill="#02A6AA" fill-rule="nonzero"></path>
                                <path d="M10.3794002,2.13724871 C12.2157002,3.98326461 11.4877002,7.70796837 11.4877002,7.70796837 C11.4877002,7.70796837 7.78260012,8.43982023 5.94630009,6.59380433 C4.11000006,4.74778843 4.83800007,1.02308467 4.83800007,1.02308467 C4.83800007,1.02308467 8.54310013,0.291232809 10.3794002,2.13724871 Z" id="Shape" fill="#91DC5A" fill-rule="nonzero"></path>
                                <ellipse id="Oval" fill="#93298D" fill-rule="nonzero" cx="18.5469003" cy="13.3592118" rx="3.39590005" ry="3.41386778"></ellipse>
                                <path d="M20.0334003,10.2892541 C20.2524003,10.7406298 20.3755003,11.2475981 20.3755003,11.7836192 C20.3755003,13.6690425 18.8551003,15.197487 16.9796003,15.197487 C16.4465002,15.197487 15.9421002,15.0736351 15.4931002,14.8535769 C16.0444002,15.9900584 17.2045003,16.7730796 18.5469003,16.7730796 C20.4224003,16.7730796 21.9428003,15.2446351 21.9428003,13.3592118 C21.9429003,12.0097092 21.1638003,10.8434711 20.0334003,10.2892541 Z" id="Shape" fill="#6C3166" fill-rule="nonzero"></path>
                                <ellipse id="Oval" fill="#93298D" fill-rule="nonzero" cx="14.3673002" cy="13.3592118" rx="3.39590005" ry="3.41386778"></ellipse>
                                <path d="M15.8538002,10.2892541 C16.0728002,10.7406298 16.1959002,11.2475981 16.1959002,11.7836192 C16.1959002,13.6690425 14.6755002,15.197487 12.8000002,15.197487 C12.2668002,15.197487 11.7625002,15.0736351 11.3135002,14.8535769 C11.8648002,15.9900584 13.0249002,16.7730796 14.3673002,16.7730796 C16.2428002,16.7730796 17.7632003,15.2446351 17.7632003,13.3592118 C17.7633003,12.0097092 16.9842003,10.8434711 15.8538002,10.2892541 Z" id="Shape" fill="#6C3166" fill-rule="nonzero"></path>
                                <path d="M30.0578004,4.88058737 C30.0578004,8.94156098 26.7831004,12.2335875 22.7435003,12.2335875 L25.8782004,12.2335875 C29.9178004,12.2335875 33.1925005,8.94156098 33.1925005,4.88058737 L30.0578004,4.88058737 Z" id="Shape" fill="#91DC5A" fill-rule="nonzero"></path>
                                <path d="M27.4411004,4.8806879 C26.6534004,6.7038837 24.8470004,7.97939694 22.7437003,7.97939694 C20.6404003,7.97939694 18.8340003,6.7038837 18.0463003,4.8806879 L15.4295002,4.8806879 C15.4295002,8.94166151 18.7042003,12.233688 22.7438003,12.233688 C26.7834004,12.233688 30.0581004,8.94166151 30.0581004,4.8806879 C30.0580004,4.8806879 27.4411004,4.8806879 27.4411004,4.8806879 Z" id="Shape" fill="#FFF5CC" fill-rule="nonzero"></path>
                                <path d="M47.4004007,5.97997363 L46.5150007,7.28011651 C48.5837007,8.70411124 49.6327007,10.3499737 49.6327007,12.1721642 C49.6327007,14.420196 48.0459007,16.1220532 46.0425007,17.3757516 C46.0571007,15.6641431 45.1315007,13.5140267 43.4451006,11.4984182 C44.8730007,11.0948943 45.9233007,9.77494724 45.9233007,8.21222234 C45.9233007,6.6009419 44.8068007,5.24782018 43.3111006,4.8910424 L43.3111006,4.5355715 C43.3111006,3.8115609 43.8970007,3.22256089 44.6172007,3.22256089 L44.6172007,1.64696828 C43.0327006,1.64696828 41.7437006,2.94288893 41.7437006,4.53567203 L41.7437006,4.8910424 C40.3373006,5.22640749 39.2671006,6.44291015 39.1442006,7.92661917 C38.6390006,7.65700011 38.1341006,7.43533344 37.6387006,7.2693599 C35.8882005,6.68287312 34.4181005,6.83648158 33.4769005,7.69510064 C33.7996005,6.81748158 33.9763005,5.86949215 33.9763005,4.88048685 L33.9763005,4.09264027 L30.8416005,4.09264027 L30.0579004,4.09264027 L26.9270004,4.09264027 L26.7223004,4.56663499 C26.0333004,6.16122761 24.4716004,7.19144984 22.7435003,7.19144984 C21.0154003,7.19144984 19.4537003,6.16112708 18.7648003,4.56663499 L18.5601003,4.09264027 L14.6456002,4.09264027 L14.6456002,4.88048685 C14.6456002,6.61340751 15.1886002,8.22006361 16.1103002,9.54161919 C15.5793002,9.29562448 14.9892002,9.15739696 14.3673002,9.15739696 C12.9133002,9.15739696 11.6310002,9.90804777 10.8820002,11.043524 L9.47640014,9.63058745 L9.47640014,9.63058745 L8.38430012,8.53270912 C8.88360013,8.61031759 9.37090014,8.63836521 9.81000015,8.63836521 C10.8146002,8.63836521 11.5675002,8.49491018 11.6387002,8.48083611 L12.1551002,8.37879907 L12.2566002,7.85966678 C12.2896002,7.69077789 13.0409002,3.69856619 10.9334002,1.5800159 L10.9334002,1.57991537 C8.82600013,-0.538333341 4.85480007,0.216740744 4.68680007,0.250015877 L4.17040006,0.352052915 L4.06890006,0.871185198 C4.04300006,1.00398414 3.57400005,3.49921698 4.39790007,5.58982019 C1.51740002,7.37863503 0,9.64305305 0,12.1720637 C0,19.0462437 2.66280004,25.5090586 7.49810011,30.3697412 C12.3334002,35.2304238 18.7620003,37.9075138 25.6000004,37.9075138 C32.4380005,37.9075138 38.8668006,35.2306249 43.7019007,30.3697412 C48.5370007,25.5088575 51.2000008,19.0463442 51.2000008,12.1720637 C51.2000008,9.7986721 49.9217007,7.71540752 47.4004007,5.97997363 Z M27.8551004,19.6373548 L26.1007004,19.6373548 L28.1810004,17.5460479 C28.1744004,18.2185876 28.0915004,18.9708468 27.8551004,19.6373548 Z M25.9095004,17.6012384 L25.9095004,16.5222595 C26.3089004,16.4582225 26.7072004,16.4340955 27.0721004,16.4326881 L25.9095004,17.6012384 Z M24.3422004,19.176831 L22.8122003,20.7149262 C22.8137003,20.4959739 22.8230003,20.2648574 22.8442003,20.0273072 C22.9467003,18.8803707 23.2796003,18.0167251 23.8335004,17.4602966 C23.9866004,17.3063865 24.1581004,17.174995 24.3423004,17.0620003 L24.3423004,19.176831 L24.3422004,19.176831 Z M24.5334004,21.2130479 L26.6260004,21.2130479 C26.3347004,21.3870638 25.9930004,21.5248892 25.6051004,21.625921 L25.5999004,21.625921 C25.1099004,21.625921 24.6229004,21.6199897 24.1387004,21.6097358 L24.5334004,21.2130479 Z M29.5893004,15.6366986 L29.4877004,15.1174658 L28.9712004,15.0155293 C28.8032004,14.9823547 24.8319004,14.2277833 22.7253003,16.3459315 C21.2897003,17.7880214 21.1754003,20.0793813 21.2668003,21.486085 C20.7057003,21.4493919 20.1504003,21.4058628 19.6018003,21.3550956 C19.6760003,21.2857305 19.7491003,21.2150585 19.8210003,21.1428786 L20.3751003,20.5858469 L17.4824003,17.6778415 L16.3741002,18.7920056 L18.1256003,20.5526723 C17.8691003,20.7554395 17.5979003,20.936794 17.3151003,21.0978416 C16.4824002,20.9870585 15.6687002,20.8597887 14.8783002,20.7156299 L14.8783002,17.5283548 C15.4466002,17.458286 15.9798002,17.273413 16.4545002,16.9970585 C17.0869003,17.3668045 17.8000003,17.5606246 18.5468003,17.5606246 C18.5958003,17.5606246 18.6448003,17.5595188 18.6938003,17.558413 L18.7046003,17.5581114 C20.9598003,17.4732648 22.7264003,15.6287568 22.7264003,13.3589103 C22.7264003,13.2453124 22.7213003,13.1326192 22.7124003,13.0205293 C22.7229003,13.0205293 22.7330003,13.021233 22.7434003,13.021233 L25.8781004,13.021233 C27.7908004,13.021233 29.5495004,12.3496986 30.9366005,11.2308097 C29.6085004,14.0093335 29.4717004,17.0566722 30.7172005,19.4364976 C30.4306005,20.1110479 30.4448005,20.8374712 30.7480005,21.4274765 C30.0344004,21.4834712 29.3111004,21.5281061 28.5787004,21.5604765 C30.2940005,19.3804024 29.6206004,15.7965399 29.5893004,15.6366986 Z M11.7487002,16.6306299 L9.15600014,19.2379527 C9.03900013,19.1967357 8.92240013,19.1554183 8.80740013,19.1131961 C8.76740013,19.0985188 8.72690013,19.0830373 8.68680013,19.0680585 C8.10270012,18.2028045 7.73650012,17.2091749 7.61230011,16.1753336 L11.2682002,16.1753336 C11.4161002,16.3395981 11.5771002,16.4915981 11.7487002,16.6306299 Z M6.01780009,14.7909473 C5.98650009,15.2223177 5.99140009,15.6528838 6.02750009,16.0792278 C5.58350008,15.1828098 5.34720008,14.1891801 5.34720008,13.1586563 C5.34720008,11.670524 5.83650009,10.2579896 6.7387001,9.10683082 L7.84160012,10.2156668 C6.7817001,11.5102806 6.14000009,13.107688 6.01780009,14.7909473 Z M13.2054002,17.3945505 C13.2405002,17.404704 13.2754002,17.4154606 13.3109002,17.4248098 L13.3109002,20.4012754 C12.4527002,20.2131855 11.6273002,20.004085 10.8379002,19.7752807 L13.2054002,17.3945505 Z M21.1101003,12.8549579 C21.1419003,13.019524 21.1592003,13.1878097 21.1592003,13.3590108 C21.1592003,14.776069 20.0580003,15.9278309 18.6512003,15.983323 C18.6164003,15.9842278 18.5817003,15.9851325 18.5469003,15.9851325 C18.2639003,15.9851325 17.9891003,15.9396934 17.7283003,15.8535399 C18.2423003,15.1554658 18.5469003,14.2926246 18.5469003,13.3593124 C18.5469003,12.7244711 18.4053003,12.1224023 18.1535003,11.5824605 C19.0303003,12.1911642 20.0309003,12.6318838 21.1101003,12.8549579 Z M41.1314006,11.3230954 C41.2228006,11.4103547 41.3137006,11.4990213 41.4038006,11.5895981 C41.8465006,12.0346404 42.2404006,12.485815 42.5870006,12.9344764 L40.0664006,12.9344764 L40.0664006,10.5608838 C40.3672006,10.87936 40.7283006,11.1394287 41.1314006,11.3230954 Z M37.1611006,15.8544447 C36.7187005,15.4097039 36.3247005,14.9585293 35.9786005,14.5098679 L38.4990006,14.5098679 L38.4990006,17.0407886 C38.0424006,16.6855188 37.5925006,16.2882278 37.1611006,15.8544447 Z M34.9456005,12.9342753 C34.2405005,11.632524 33.9711005,10.4542224 34.1234005,9.64968797 L37.3907006,12.9342753 L34.9456005,12.9342753 Z M34.4806005,21.0153072 C34.3233005,20.9389051 34.1687005,20.8545612 34.0191005,20.762577 L33.5938005,20.5011008 L33.1779005,20.7775559 C32.8302005,21.0086723 32.4285005,21.0264659 32.2235005,20.8203813 C32.0171005,20.6124871 32.0343005,20.2083601 32.2645005,19.8595241 L32.5407005,19.4407199 L32.2795005,19.0124659 C30.9752005,16.8740108 31.1837005,13.9287092 32.6558005,11.3123388 C32.7099005,11.558434 32.7782005,11.810561 32.8639005,12.0696245 C33.4068005,13.7073441 34.5394005,15.4472013 36.0529005,16.9688098 C37.3278006,18.2503548 38.7406006,19.2431802 40.0993006,19.850577 C38.3791006,20.3343231 36.4904005,20.7248786 34.4806005,21.0153072 Z M42.8267006,18.9489315 C42.0211006,18.9382754 41.0601006,18.6268363 40.0663006,18.0804606 L40.0663006,15.624233 L43.2187006,18.7933124 C43.0875006,18.8466934 42.9569006,18.8986669 42.8267006,18.9489315 Z M44.4439007,17.7964659 L41.1746006,14.5098679 L43.6220007,14.5098679 C44.3294007,15.8129262 44.6000007,16.9917304 44.4439007,17.7964659 Z M40.6988006,8.21212182 C40.6988006,7.19848688 41.5192006,6.37384666 42.5274006,6.37384666 C43.5356006,6.37384666 44.3560007,7.19838635 44.3560007,8.21212182 C44.3560007,9.22565622 43.5356006,10.050397 42.5274006,10.050397 C42.3373006,10.050397 42.1541006,10.0209419 41.9815006,9.96665623 C41.6327006,9.6466721 41.2749006,9.34759802 40.9116006,9.07074088 C40.7762006,8.81419061 40.6988006,8.52215357 40.6988006,8.21212182 Z M37.1431006,8.76422764 C37.5870006,8.91301071 38.0418006,9.1153758 38.4990006,9.36509009 L38.4990006,11.8202118 L35.2311005,8.53502129 C35.7382005,8.43861388 36.3954005,8.51380965 37.1431006,8.76422764 Z M32.3622005,5.66843395 C32.0584005,8.2117197 30.3023005,10.3121748 27.9544004,11.1055504 C29.5303004,9.77022237 30.5942005,7.84358213 30.8030005,5.66843395 L32.3622005,5.66843395 Z M17.5573003,5.66843395 C18.5844003,7.56672498 20.5670003,8.76714299 22.7435003,8.76714299 C24.9200004,8.76714299 26.9026004,7.56672498 27.9297004,5.66843395 L29.2273004,5.66843395 C28.8391004,8.91853982 26.0793004,11.4457409 22.7434003,11.4457409 C19.4075003,11.4457409 16.6478002,8.91853982 16.2595002,5.66843395 L17.5573003,5.66843395 L17.5573003,5.66843395 Z M14.3673002,10.7330901 C15.8077002,10.7330901 16.9795003,11.9111907 16.9795003,13.3591113 C16.9795003,14.807032 15.8076002,15.9851325 14.3673002,15.9851325 C12.9270002,15.9851325 11.7551002,14.807032 11.7551002,13.3591113 C11.7551002,11.9111907 12.9270002,10.7330901 14.3673002,10.7330901 Z M10.3739002,14.5996404 L7.61120011,14.5996404 C7.75410012,13.40636 8.22030012,12.2772171 8.95560013,11.3354605 L10.2507002,12.6375134 C10.2101002,12.8721483 10.1877002,13.1131166 10.1877002,13.3594129 C10.1878002,13.7907833 10.2530002,14.2073759 10.3739002,14.5996404 Z M5.47830008,2.78093655 L7.55780011,4.87123817 L5.79650009,4.87123817 C5.55360008,4.19095773 5.48080008,3.43276725 5.47830008,2.78093655 Z M9.12510014,6.44703184 L9.73990015,7.06508476 C8.84890013,7.0562382 7.81630012,6.91157682 7.0339001,6.44703184 L9.12510014,6.44703184 Z M10.8474002,5.95011649 L9.31620014,4.41081488 L9.31620014,2.29879898 C9.50210014,2.4114921 9.67400014,2.5420794 9.82530015,2.69428046 C10.6497002,3.52324344 10.8432002,4.88008473 10.8474002,5.95011649 Z M7.74890012,1.76157145 L7.74890012,2.83522226 L6.5857001,1.66586775 C6.9583001,1.66958733 7.35530011,1.69703177 7.74890012,1.76157145 Z M5.19980008,6.94334402 C5.26110008,7.01431756 5.32510008,7.08368265 5.39220008,7.15103714 C5.56600008,7.32585725 5.75350009,7.47886255 5.94950009,7.61658742 C4.54910007,9.12723823 3.77990006,11.0830319 3.77990006,13.1587568 C3.77990006,14.5845611 4.14440006,15.9533653 4.82500007,17.1612225 C2.98140004,15.929942 1.56730002,14.2943335 1.56730002,12.1722647 C1.56730002,10.1958626 2.78930004,8.43921706 5.19980008,6.94334402 Z M42.5937006,29.2555772 C38.0546006,33.8186936 32.0193005,36.3318206 25.6000004,36.3318206 C19.1807003,36.3318206 13.1455002,33.8187942 8.60630013,29.2555772 C5.18860008,25.819794 2.92770004,21.5313231 2.01880003,16.867577 C3.41020005,18.3232384 5.50660008,19.5795506 8.27010012,20.5934871 C12.8549002,22.2752384 19.0094003,23.2016141 25.6000004,23.2016141 C32.1906005,23.2016141 38.3451006,22.275339 42.9298006,20.5934871 C45.6935007,19.5796511 47.7897007,18.3234394 49.1811007,16.867577 C48.2723007,21.5314236 46.0113007,25.8198946 42.5937006,29.2555772 Z" id="Shape" fill="#000000" fill-rule="nonzero"></path>
                                <path d="M40.2884006,4.54833869 L40.7182006,3.03296301 C32.8710005,0.783523821 21.7924003,0.516719584 13.1507002,2.36886776 L13.4775002,3.90987837 C21.8912003,2.10658733 32.6657005,2.3631376 40.2884006,4.54833869 Z" id="Shape" fill="#000000" fill-rule="nonzero"></path>
                            </g>
                        </g>
                    </g>
                </g>
            </g>
        </g>
    </g>
</svg>