<?xml version="1.0" encoding="UTF-8"?>
<svg width="26px" height="52px" viewBox="0 0 26 52" version="1.1" xmlns="http://www.w3.org/2000/svg" xmlns:xlink="http://www.w3.org/1999/xlink">
    <!-- Generator: Sketch 62 (91390) - https://sketch.com -->
    <title>honey</title>
    <desc>Created with Sketch.</desc>
    <g id="Page-1" stroke="none" stroke-width="1" fill="none" fill-rule="evenodd">
        <g id="16.3-MAIN-UI---ALL-ITEM-(-ADD)-Copy-2" transform="translate(-522.000000, -1361.000000)">
            <g id="CREATE-ITEM" transform="translate(327.000000, 413.000000)">
                <g id="NOTIFICATION-BAR" transform="translate(66.000000, 545.000000)">
                    <g id="SET-2" transform="translate(23.000000, 279.000000)">
                        <g id="honey" transform="translate(106.000000, 124.000000)">
                            <g>
                                <path d="M11.2327,13.8449 L11.2327,2.351 C11.2327,1.4854 11.9345,0.7837 12.8,0.7837 L12.8,0.7837 C13.6656,0.7837 14.3673,1.4855 14.3673,2.351 L14.3673,13.8449" id="Shape" fill="#DD7903" fill-rule="nonzero"></path>
                                <path d="M0.7837,48.3265 L0.7837,22.2041 C0.7837,19.8958 2.655,18.0245 4.9633,18.0245 L20.6368,18.0245 C22.9451,18.0245 24.8164,19.8958 24.8164,22.2041 L24.8164,48.3265" id="Shape" fill="#FFFFFF" fill-rule="nonzero"></path>
                                <path d="M24.8163,22.2041 L24.8163,48.3265 L22.7265,48.3265 L22.7265,24.2939 C22.7265,23.9982 22.6962,23.7098 22.6377,23.4308 C23.204,22.8551 23.6983,22.2041 24.8163,22.2041 Z" id="Shape" fill="#EBE5DD" fill-rule="nonzero"></path>
                                <rect id="Rectangle-path" fill="#FFDA44" fill-rule="nonzero" x="0.7837" y="28.4735" width="24.0327" height="19.8531"></rect>
                                <rect id="Rectangle-path" fill="#EEBF00" fill-rule="nonzero" x="22.7265" y="28.4735" width="2.0898" height="19.8531"></rect>
                                <rect id="Rectangle-path" fill="#FFF5CC" fill-rule="nonzero" x="0.7837" y="28.4735" width="2.0898" height="19.8531"></rect>
                                <polyline id="Shape" fill="#AA6100" fill-rule="nonzero" points="14.3673 18.0245 14.3673 31.6082 11.2327 31.6082 11.2327 18.0245"></polyline>
                                <path d="M20.1143,18.0245 L5.4857,18.0245 C4.9086,18.0245 4.4408,17.5567 4.4408,16.9796 L4.4408,14.8898 C4.4408,14.3127 4.9086,13.8449 5.4857,13.8449 L20.1143,13.8449 C20.6914,13.8449 21.1592,14.3127 21.1592,14.8898 L21.1592,16.9796 C21.1592,17.5567 20.6914,18.0245 20.1143,18.0245 Z" id="Shape" fill="#FFFFFF" fill-rule="nonzero"></path>
                                <ellipse id="Oval" fill="#EEBF00" fill-rule="nonzero" cx="12.8" cy="48.3265" rx="12.0163" ry="2.0898"></ellipse>
                                <polygon id="Shape" fill="#EEBF00" fill-rule="nonzero" points="18.0245 35.7878 18.0245 33.698 16.4571 33.698 16.4571 31.6082 9.1429 31.6082 9.1429 33.698 7.5755 33.698 7.5755 35.7878 6.5306 35.7878 6.5306 37.8775 7.5755 37.8775 7.5755 39.9673 9.1429 39.9673 9.1429 42.0571 16.4571 42.0571 16.4571 39.9673 18.0245 39.9673 18.0245 37.8775 19.0694 37.8775 19.0694 35.7878"></polygon>
                                <polygon id="Shape" fill="#FFF5CC" fill-rule="nonzero" points="9.6653 39.9673 9.6653 37.8775 8.6204 37.8775 8.6204 35.7878 9.6653 35.7878 9.6653 33.698 11.2327 33.698 11.2327 31.6082 9.1429 31.6082 9.1429 33.698 7.5755 33.698 7.5755 35.7878 6.5306 35.7878 6.5306 37.8775 7.5755 37.8775 7.5755 39.9673 9.1429 39.9673 9.1429 42.0571 11.2327 42.0571 11.2327 39.9673"></polygon>
                                <path d="M24.8163,22.2041 C22.8132,22.2041 22.8132,24.2939 20.8102,24.2939 C18.8071,24.2939 18.8071,22.2041 16.8051,22.2041 C14.802,22.2041 14.802,24.2939 12.799,24.2939 C10.797,24.2939 10.797,22.2041 8.7939,22.2041 C6.7919,22.2041 6.7919,24.2939 4.7888,24.2939 C2.7868,24.2939 2.7868,22.2041 0.7837,22.2041 C0.7837,19.8959 2.6551,18.0245 4.9633,18.0245 L20.6368,18.0245 C22.9449,18.0245 24.8163,19.8959 24.8163,22.2041 Z" id="Shape" fill="#57565C" fill-rule="nonzero"></path>
                                <path d="M12.0163,2.351 C12.0163,1.9188 12.3678,1.5673 12.8,1.5673 C13.2322,1.5673 13.5837,1.9188 13.5837,2.351 L13.5837,11.7551 L15.151,11.7551 L15.151,2.351 C15.151,1.0546 14.0963,0 12.8,0 C11.5037,0 10.449,1.0546 10.449,2.351 L10.449,11.7551 L12.0163,11.7551 L12.0163,2.351 Z" id="Shape" fill="#000000" fill-rule="nonzero"></path>
                                <path d="M21.8917,17.4019 C21.924,17.2661 21.9429,17.1252 21.9429,16.9796 L21.9429,14.8898 C21.9429,13.8816 21.1225,13.0612 20.1143,13.0612 L5.4857,13.0612 C4.4775,13.0612 3.6571,13.8815 3.6571,14.8898 L3.6571,16.9796 C3.6571,17.1252 3.676,17.2661 3.7083,17.4019 C1.5773,17.9593 0,19.9008 0,22.2041 L0,48.3265 C0,49.3952 1.2468,50.0681 4.1688,50.5763 C6.4814,50.9785 9.5467,51.2 12.8,51.2 C16.0533,51.2 19.1186,50.9785 21.4311,50.5763 C24.3532,50.0682 25.6,49.3952 25.6,48.3265 L25.6,22.2041 C25.6,19.9007 24.0227,17.9593 21.8917,17.4019 Z M2.221,23.7914 C2.7701,24.3644 3.4535,25.0776 4.7887,25.0776 C6.1248,25.0776 6.8084,24.3642 7.3577,23.791 C7.8634,23.2632 8.1569,22.9878 8.7938,22.9878 C9.4313,22.9878 9.725,23.2633 10.2312,23.7914 C10.3012,23.8644 10.3735,23.9398 10.449,24.0156 L10.449,27.6898 L2.8735,27.6898 L2.8735,29.2571 L10.449,29.2571 L10.449,30.8244 L8.3592,30.8244 L8.3592,32.9142 L6.7919,32.9142 L6.7919,35.004 L5.747,35.004 L5.747,38.6611 L6.7919,38.6611 L6.7919,40.7509 L8.3592,40.7509 L8.3592,42.8407 L17.2408,42.8407 L17.2408,40.751 L18.8081,40.751 L18.8081,38.6612 L19.853,38.6612 L19.853,35.0041 L18.8081,35.0041 L18.8081,32.9143 L17.2408,32.9143 L17.2408,30.8245 L15.151,30.8245 L15.151,29.2572 L24.0326,29.2572 L24.0326,46.7296 C23.3856,46.4808 22.526,46.2672 21.431,46.0769 C19.1185,45.6747 16.0532,45.4532 12.7999,45.4532 C9.5466,45.4532 6.4813,45.6747 4.1687,46.0769 C3.0739,46.2673 2.2142,46.4809 1.5672,46.7296 L1.5672,23.202 C1.7777,23.3367 1.9741,23.5338 2.221,23.7914 Z M24.0327,27.6898 L15.151,27.6898 L15.151,24.0145 C15.2261,23.939 15.298,23.8639 15.3677,23.7913 C15.8738,23.2633 16.1676,22.9878 16.8051,22.9878 C17.442,22.9878 17.7355,23.2632 18.2412,23.791 C18.7905,24.3642 19.4741,25.0776 20.8102,25.0776 C21.9585,25.0776 22.6357,24.5503 23.1964,23.9804 C23.2575,23.9182 23.3178,23.8553 23.3782,23.7923 C23.6253,23.5342 23.822,23.3368 24.0326,23.2019 L24.0326,27.6898 L24.0327,27.6898 Z M18.2857,37.0939 L7.3143,37.0939 L7.3143,36.5715 L18.2857,36.5715 L18.2857,37.0939 L18.2857,37.0939 Z M9.9265,40.751 L15.6734,40.751 L15.6734,41.2734 L9.9265,41.2734 L9.9265,40.751 Z M8.3592,39.1837 L8.3592,38.6612 L17.2408,38.6612 L17.2408,39.1837 L8.3592,39.1837 Z M17.2408,35.0041 L8.3592,35.0041 L8.3592,34.4817 L17.2408,34.4817 L17.2408,35.0041 Z M15.6735,32.9143 L9.9266,32.9143 L9.9266,32.3919 L10.4491,32.3919 L15.1511,32.3919 L15.6735,32.3919 L15.6735,32.9143 Z M13.5837,30.8245 L12.0164,30.8245 L12.0164,24.9836 C12.2505,25.0422 12.5085,25.0775 12.799,25.0775 C13.0903,25.0775 13.349,25.0421 13.5837,24.983 L13.5837,30.8245 Z M5.2245,16.9796 L5.2245,16.7184 L20.3755,16.7184 L20.3755,16.9796 C20.3755,17.1236 20.2584,17.2408 20.1143,17.2408 L5.4857,17.2408 C5.3416,17.2408 5.2245,17.1236 5.2245,16.9796 Z M5.4857,14.6286 L20.1143,14.6286 C20.2584,14.6286 20.3755,14.7458 20.3755,14.8898 L20.3755,15.151 L5.2245,15.151 L5.2245,14.8898 C5.2245,14.7458 5.3416,14.6286 5.4857,14.6286 Z M4.9633,18.8082 L5.4857,18.8082 L20.1143,18.8082 L20.6367,18.8082 C22.279,18.8082 23.6525,19.9802 23.9654,21.5315 C23.162,21.7539 22.6646,22.2713 22.2461,22.7083 C22.1906,22.7663 22.1352,22.8242 22.079,22.8812 C21.6596,23.3074 21.3628,23.5102 20.81,23.5102 C20.1724,23.5102 19.8787,23.2347 19.3726,22.7066 C18.8236,22.1336 18.1403,21.4204 16.805,21.4204 C15.4691,21.4204 14.7855,22.1336 14.2362,22.7067 C13.7301,23.2347 13.4363,23.5102 12.7988,23.5102 C12.1619,23.5102 11.8684,23.2348 11.3627,22.707 C10.8134,22.1338 10.1298,21.4204 8.7937,21.4204 C7.4584,21.4204 6.7751,22.1335 6.226,22.7066 C5.72,23.2347 5.4262,23.5102 4.7886,23.5102 C4.1517,23.5102 3.8582,23.2348 3.3525,22.707 C2.9342,22.2705 2.4372,21.7536 1.6344,21.5316 C1.9475,19.9801 3.321,18.8082 4.9633,18.8082 Z M20.5745,49.1277 C18.4263,49.4534 15.6653,49.6327 12.8,49.6327 C6.6534,49.6327 2.9239,48.8636 1.8183,48.3317 C2.223,48.1334 3.1202,47.8143 5.0254,47.5255 C7.1737,47.1998 9.9347,47.0205 12.8,47.0205 C18.9466,47.0205 22.6761,47.7896 23.7817,48.3215 C23.377,48.5197 22.4797,48.8388 20.5745,49.1277 Z" id="Shape" fill="#000000" fill-rule="nonzero"></path>
                            </g>
                        </g>
                    </g>
                </g>
            </g>
        </g>
    </g>
</svg>