<?xml version="1.0" encoding="UTF-8"?>
<svg width="52px" height="32px" viewBox="0 0 52 32" version="1.1" xmlns="http://www.w3.org/2000/svg" xmlns:xlink="http://www.w3.org/1999/xlink">
    <!-- Generator: Sketch 62 (91390) - https://sketch.com -->
    <title>hot-dog</title>
    <desc>Created with Sketch.</desc>
    <g id="Page-1" stroke="none" stroke-width="1" fill="none" fill-rule="evenodd">
        <g id="16.3-MAIN-UI---ALL-ITEM-(-ADD)-Copy-2" transform="translate(-672.000000, -1025.000000)">
            <g id="CREATE-ITEM" transform="translate(327.000000, 413.000000)">
                <g id="NOTIFICATION-BAR" transform="translate(66.000000, 545.000000)">
                    <g id="SET-1" transform="translate(23.000000, 34.000000)">
                        <g id="hot-dog" transform="translate(256.000000, 33.000000)">
                            <g>
                                <polygon id="Shape" fill="#FFFFFF" fill-rule="nonzero" points="29.2000691 8.44800013 14.6000844 8.44800013 21.9001266 1.13370002"></polygon>
                                <polygon id="Shape" fill="#EBE5DD" fill-rule="nonzero" points="29.2000691 8.44800013 14.6000844 8.44800013 16.6858108 6.35820009 27.1143427 6.35820009"></polygon>
                                <polygon id="Shape" fill="#FFFFFF" fill-rule="nonzero" points="36.5001113 8.44800013 21.9001266 8.44800013 29.2000691 1.13370002"></polygon>
                                <polygon id="Shape" fill="#EBE5DD" fill-rule="nonzero" points="36.5001113 8.44800013 21.9001266 8.44800013 23.985853 6.35820009 34.4143849 6.35820009"></polygon>
                                <path d="M40.9322548,20.4643003 L10.1679409,20.4643003 C7.86414047,20.4643003 5.9964882,18.5930003 5.9964882,16.2847002 L5.9964882,12.6276002 C5.9964882,10.3193002 7.86414047,8.44800013 10.1679409,8.44800013 L40.9323546,8.44800013 C43.236155,8.44800013 45.1038073,10.3193002 45.1038073,12.6276002 L45.1038073,16.2847002 C45.1037075,18.5931003 43.2360552,20.4643003 40.9322548,20.4643003 Z" id="Shape" fill="#FFDA44" fill-rule="nonzero"></path>
                                <path d="M40.9322548,8.44800013 L10.1679409,8.44800013 C7.86414047,8.44800013 5.9964882,10.3193002 5.9964882,12.6276002 L5.9964882,14.7174002 C5.9964882,12.4091002 7.86414047,10.5378002 10.1679409,10.5378002 L40.9323546,10.5378002 C43.236155,10.5378002 45.1038073,12.4091002 45.1038073,14.7174002 L45.1038073,12.6276002 C45.1037075,10.3193002 43.2360552,8.44800013 40.9322548,8.44800013 Z" id="Shape" fill="#EEBF00" fill-rule="nonzero"></path>
                                <path d="M46.6680522,22.0317003 L4.43214354,22.0317003 C2.41628074,22.0317003 0.782172331,20.3943003 0.782172331,18.3746003 L0.782172331,18.3746003 C0.782172331,16.3548002 2.41638054,14.7175002 4.43214354,14.7175002 L46.6680522,14.7175002 C48.683915,14.7175002 50.3180234,16.3549002 50.3180234,18.3746003 L50.3180234,18.3746003 C50.3180234,20.3943003 48.683915,22.0317003 46.6680522,22.0317003 Z" id="Shape" fill="#FF505D" fill-rule="nonzero"></path>
                                <path d="M47.9859781,14.9642002 C48.1444686,15.3739002 48.232297,15.8189002 48.232297,16.2847002 L48.232297,16.2847002 C48.232297,18.3045003 46.5980888,19.9418003 44.5823258,19.9418003 L2.34641719,19.9418003 C1.88152517,19.9418003 1.43739261,19.8538003 1.02849124,19.6950003 C1.5571587,21.0619003 2.88127256,22.0316003 4.43214354,22.0316003 L46.6680522,22.0316003 C48.683915,22.0316003 50.3180234,20.3942003 50.3180234,18.3745003 L50.3180234,18.3745003 C50.3180234,16.8205003 49.3503134,15.4938002 47.9859781,14.9642002 Z" id="Shape" fill="#E21220" fill-rule="nonzero"></path>
                                <path d="M40.9322548,30.3908005 L10.1679409,30.3908005 C7.86414047,30.3908005 5.9964882,28.5195004 5.9964882,26.2112004 L5.9964882,22.5541003 C5.9964882,20.2458003 7.86414047,18.3745003 10.1679409,18.3745003 L40.9323546,18.3745003 C43.236155,18.3745003 45.1038073,20.2458003 45.1038073,22.5541003 L45.1038073,26.2112004 C45.1037075,28.5196004 43.2360552,30.3908005 40.9322548,30.3908005 Z" id="Shape" fill="#FFDA44" fill-rule="nonzero"></path>
                                <path d="M40.9322548,18.3745003 L10.1679409,18.3745003 C7.86414047,18.3745003 5.9964882,20.2458003 5.9964882,22.5541003 L5.9964882,24.6439004 C5.9964882,22.3356003 7.86414047,20.4643003 10.1679409,20.4643003 L40.9323546,20.4643003 C43.236155,20.4643003 45.1038073,22.3356003 45.1038073,24.6439004 L45.1038073,22.5541003 C45.1037075,20.2458003 43.2360552,18.3745003 40.9322548,18.3745003 Z" id="Shape" fill="#FFF5CC" fill-rule="nonzero"></path>
                                <path d="M40.9322548,28.3010004 L10.1679409,28.3010004 C7.86414047,28.3010004 5.9964882,26.4297004 5.9964882,24.1214004 L5.9964882,26.2112004 C5.9964882,28.5195004 7.86414047,30.3908005 10.1679409,30.3908005 L40.9323546,30.3908005 C43.236155,30.3908005 45.1038073,28.5195004 45.1038073,26.2112004 L45.1038073,24.1214004 C45.1037075,26.4298004 43.2360552,28.3010004 40.9322548,28.3010004 Z" id="Shape" fill="#EEBF00" fill-rule="nonzero"></path>
                                <polygon id="Shape" fill="#EEBF00" fill-rule="nonzero" points="29.2000691 30.3908005 14.6000844 30.3908005 16.6858108 28.3010004 27.1143427 28.3010004"></polygon>
                                <polygon id="Shape" fill="#FFFFFF" fill-rule="nonzero" points="29.2000691 30.3908005 14.6000844 30.3908005 21.9001266 23.0766003"></polygon>
                                <polygon id="Shape" fill="#EBE5DD" fill-rule="nonzero" points="29.2000691 30.3908005 14.6000844 30.3908005 16.6858108 28.3010004 27.1143427 28.3010004"></polygon>
                                <polygon id="Shape" fill="#FFFFFF" fill-rule="nonzero" points="36.5001113 30.3908005 21.9001266 30.3908005 29.2000691 23.0766003"></polygon>
                                <polygon id="Shape" fill="#EBE5DD" fill-rule="nonzero" points="36.5001113 30.3908005 21.9001266 30.3908005 23.985853 28.3010004 34.4143849 28.3010004"></polygon>
                                <path d="M10.1679409,9.23170014 L40.9323546,9.23170014 C42.8013043,9.23170014 44.321635,10.7552002 44.321635,12.6276002 L45.8858798,12.6276002 C45.8858798,9.89090015 43.6636201,7.66430011 40.9322548,7.66430011 L36.8240785,7.66430011 L29.2000691,0.0255000004 L25.5500978,3.68260005 L21.9001266,0.0255000004 L14.2761172,7.66430011 L10.1679409,7.66430011 C7.43657555,7.66430011 5.21431587,9.89090015 5.21431587,12.6276002 L6.77856072,12.6276002 C6.77856072,10.7551002 8.29899116,9.23170014 10.1679409,9.23170014 Z M34.6117993,7.66430011 L23.7884386,7.66430011 L29.2001689,2.24200003 L34.6117993,7.66430011 Z M21.9001266,2.24200003 L24.4439583,4.79090007 L21.5760596,7.66440011 L16.4883963,7.66440011 L21.9001266,2.24200003 Z" id="Shape" fill="#000000" fill-rule="nonzero"></path>
                                <path d="M46.6680522,13.9337002 L42.2359086,13.9337002 L42.2359086,15.5010002 L46.6680522,15.5010002 C48.2493637,15.5010002 49.5359508,16.7900003 49.5359508,18.3745003 C49.5359508,19.1422003 49.2377333,19.8638003 48.6959914,20.4065003 C48.1545489,20.9491003 47.4341559,21.2480003 46.6680522,21.2480003 L45.7106221,21.2480003 C45.1368428,19.1431003 43.212601,17.5909003 40.9323546,17.5909003 L10.1679409,17.5909003 C7.88769446,17.5909003 5.96345272,19.1431003 5.38967337,21.2480003 L4.43224334,21.2480003 C2.85093182,21.2480003 1.56434466,19.9590003 1.56434466,18.3745003 C1.56434466,17.6068003 1.86256221,16.8852003 2.40430413,16.3425002 C2.94574663,15.7999002 3.66613963,15.5010002 4.43224334,15.5010002 L8.86438688,15.5010002 L8.86438688,13.9337002 L4.43214354,13.9337002 C3.24805619,13.9337002 2.13503005,14.3955002 1.29796493,15.2343002 C0.460899812,16.0729002 0,17.1881003 0,18.3745003 C0,20.8232003 1.98821679,22.8153003 4.43214354,22.8153003 L5.21431587,22.8153003 L5.21431587,26.2112004 C5.21431587,28.9479004 7.43657555,31.1745005 10.1679409,31.1745005 L40.9323546,31.1745005 C43.6637199,31.1745005 45.8859796,28.9479004 45.8859796,26.2112004 L45.8859796,22.8153003 L46.668152,22.8153003 C47.8521395,22.8153003 48.9652654,22.3535003 49.8023306,21.5147003 C50.6392959,20.6761003 51.1002955,19.5608003 51.1002955,18.3745003 C51.1001957,15.9259002 49.1119789,13.9337002 46.6680522,13.9337002 Z M29.2000691,24.1849004 L34.6117993,29.6073004 L23.7884386,29.6073004 L29.2000691,24.1849004 Z M21.5760596,29.6072004 L16.4883963,29.6072004 L21.9001266,24.1849004 L24.4439583,26.7338004 L21.5760596,29.6072004 Z M44.321635,26.2113004 C44.321635,28.0838004 42.8012045,29.6072004 40.9323546,29.6072004 L36.8241783,29.6072004 L29.2001689,21.9684003 L25.5500978,25.6255004 L21.9001266,21.9684003 L14.2761172,29.6072004 L10.1679409,29.6072004 C8.29899116,29.6072004 6.77866053,28.0837004 6.77866053,26.2113004 L6.77866053,22.5542003 C6.77866053,20.6817003 8.29909096,19.1583003 10.1679409,19.1583003 L40.9323546,19.1583003 C42.8013043,19.1583003 44.321635,20.6818003 44.321635,22.5542003 L44.321635,26.2113004 Z" id="Shape" fill="#000000" fill-rule="nonzero"></path>
                                <polygon id="Rectangle-path" fill="#000000" fill-rule="nonzero" points="37.2822836 22.0313003 38.8465285 22.0313003 38.8465285 23.5986004 37.2822836 23.5986004"></polygon>
                                <polygon id="Rectangle-path" fill="#000000" fill-rule="nonzero" points="39.3680099 25.1660004 40.9322548 25.1660004 40.9322548 26.7333004 39.3680099 26.7333004"></polygon>
                                <polygon id="Rectangle-path" fill="#000000" fill-rule="nonzero" points="35.1965572 25.1660004 36.7608021 25.1660004 36.7608021 26.7333004 35.1965572 26.7333004"></polygon>
                                <path d="M39.5943678,14.2618002 C38.9923437,13.4173002 38.2429074,12.3664002 36.7230758,12.3664002 C35.2031444,12.3664002 34.4537081,13.4175002 33.8516839,14.2620002 C33.2873861,15.0534002 32.9348746,15.5011002 32.2532059,15.5011002 C31.5716371,15.5011002 31.2191256,15.0534002 30.6549276,14.2620002 C30.0530032,13.4175002 29.3036667,12.3664002 27.7839349,12.3664002 C26.2641033,12.3664002 25.5147669,13.4174002 24.9128425,14.2620002 C24.3485446,15.0534002 23.9961329,15.5011002 23.3144643,15.5011002 C22.6328955,15.5011002 22.2804838,15.0534002 21.7163855,14.2620002 C21.1143613,13.4175002 20.3650249,12.3664002 18.8452931,12.3664002 C17.3255613,12.3664002 16.5762248,13.4175002 15.9742006,14.2620002 C15.4101024,15.0534002 15.0576907,15.5011002 14.3761219,15.5011002 C13.6947526,15.5011002 13.3423409,15.0534002 12.7783425,14.2620002 C12.1764181,13.4174002 11.4271815,12.3664002 9.90754947,12.3664002 L9.90754947,13.9337002 C10.5889187,13.9337002 10.9412306,14.3814002 11.5053288,15.1728002 C12.1072532,16.0174002 12.8564899,17.0683003 14.3761219,17.0683003 C15.8958536,17.0683003 16.6451901,16.0172002 17.2472143,15.1727002 C17.8113125,14.3813002 18.1637242,13.9336002 18.8452931,13.9336002 C19.5268619,13.9336002 19.8792736,14.3813002 20.4433718,15.1727002 C21.045396,16.0172002 21.7947325,17.0683003 23.3144643,17.0683003 C24.8342959,17.0683003 25.5837322,16.0172002 26.1856565,15.1727002 C26.7498546,14.3813002 27.1023661,13.9336002 27.7839349,13.9336002 C28.4655037,13.9336002 28.8179154,14.3813002 29.3820137,15.1727002 C29.9840379,16.0173002 30.7333743,17.0683003 32.2532059,17.0683003 C33.7730375,17.0683003 34.5224738,16.0173002 35.124498,15.1729002 C35.6887959,14.3815002 36.0413074,13.9336002 36.7230758,13.9336002 C37.4047444,13.9336002 37.7572559,14.3813002 38.3215538,15.1727002 C38.923578,16.0172002 39.6730142,17.0683003 41.1929456,17.0683003 L41.1929456,15.5010002 C40.5111772,15.5010002 40.1586657,15.0533002 39.5943678,14.2618002 Z" id="Shape" fill="#000000" fill-rule="nonzero"></path>
                            </g>
                        </g>
                    </g>
                </g>
            </g>
        </g>
    </g>
</svg>