<?xml version="1.0" encoding="UTF-8"?>
<svg width="32px" height="52px" viewBox="0 0 32 52" version="1.1" xmlns="http://www.w3.org/2000/svg" xmlns:xlink="http://www.w3.org/1999/xlink">
    <!-- Generator: Sketch 62 (91390) - https://sketch.com -->
    <title>ice-cream</title>
    <desc>Created with Sketch.</desc>
    <g id="Page-1" stroke="none" stroke-width="1" fill="none" fill-rule="evenodd">
        <g id="16.3-MAIN-UI---ALL-ITEM-(-ADD)-Copy-2" transform="translate(-600.000000, -1279.000000)">
            <g id="CREATE-ITEM" transform="translate(327.000000, 413.000000)">
                <g id="NOTIFICATION-BAR" transform="translate(66.000000, 545.000000)">
                    <g id="SET-2" transform="translate(23.000000, 279.000000)">
                        <g id="ice-cream" transform="translate(184.000000, 42.000000)">
                            <g id="Shape">
                                <path d="M31.151,19.0694 C31.151,19.7904 30.8584,20.4445 30.3861,20.9168 C29.9138,21.3891 29.2597,21.6817 28.5387,21.6817 L3.4612,21.6817 C2.0182,21.6817 0.849,20.5125 0.849,19.0695 C0.849,18.3485 1.1416,17.6944 1.6139,17.2221 C2.0862,16.7498 2.7403,16.4572 3.4613,16.4572 L5.0286,16.4572 C3.5856,16.4572 2.4164,15.288 2.4164,13.845 C2.4164,13.124 2.709,12.4699 3.1813,11.9976 C3.6536,11.5253 4.3077,11.2327 5.0287,11.2327 L6.596,11.2327 C5.153,11.2327 3.9838,10.0635 3.9838,8.6205 C3.9838,7.8995 4.2764,7.2454 4.7487,6.7731 C5.221,6.3008 5.8751,6.0082 6.5961,6.0082 L7.641,6.0082 C7.641,3.1232 9.9805,0.7837 12.8655,0.7837 L24.3594,0.7837 C24.3594,2.2257 23.7743,3.5318 22.8286,4.4774 C21.883,5.423 20.5768,6.0082 19.1349,6.0082 L25.4043,6.0082 C26.8473,6.0082 28.0165,7.1774 28.0165,8.6204 C28.0165,9.3414 27.7239,9.9955 27.2516,10.4678 C26.7793,10.9401 26.1252,11.2327 25.4042,11.2327 L26.9715,11.2327 C28.4145,11.2327 29.5837,12.4019 29.5837,13.8449 C29.5837,14.5659 29.2911,15.22 28.8188,15.6923 C28.3465,16.1646 27.6924,16.4572 26.9714,16.4572 L28.5387,16.4572 C29.9818,16.4571 31.151,17.6264 31.151,19.0694 Z" fill="#FFFFFF" fill-rule="nonzero"></path>
                                <path d="M14.9551,6.0082 L19.1347,6.0082 C20.5767,6.0082 21.8828,5.4231 22.8284,4.4774 C23.774,3.5318 24.3592,2.2256 24.3592,0.7837 L20.1796,0.7837 C20.1796,2.2257 19.5945,3.5318 18.6488,4.4774 C17.7032,5.423 16.3971,6.0082 14.9551,6.0082 Z" fill="#EBE5DD" fill-rule="nonzero"></path>
                                <path d="M28.5388,16.4571 L26.9715,16.4571 C27.6925,16.4571 28.3466,16.1645 28.8189,15.6922 C29.2912,15.2199 29.5838,14.5658 29.5838,13.8448 C29.5838,12.4018 28.4146,11.2326 26.9716,11.2326 L25.4043,11.2326 C26.1253,11.2326 26.7794,10.94 27.2517,10.4677 C27.724,9.9954 28.0166,9.3413 28.0166,8.6203 C28.0166,7.1773 26.8474,6.0081 25.4044,6.0081 L21.2248,6.0081 C22.6678,6.0081 23.837,7.1773 23.837,8.6203 C23.837,9.3413 23.5444,9.9954 23.0721,10.4677 C22.5998,10.94 21.9457,11.2326 21.2247,11.2326 L22.792,11.2326 C24.235,11.2326 25.4042,12.4018 25.4042,13.8448 C25.4042,14.5658 25.1116,15.2199 24.6393,15.6922 C24.167,16.1645 23.5129,16.4571 22.7919,16.4571 L24.3592,16.4571 C25.8022,16.4571 26.9714,17.6263 26.9714,19.0693 C26.9714,19.7903 26.6788,20.4444 26.2065,20.9167 C25.7342,21.389 25.0801,21.6816 24.3591,21.6816 L28.5387,21.6816 C29.2597,21.6816 29.9138,21.389 30.3861,20.9167 C30.8584,20.4444 31.151,19.7903 31.151,19.0693 C31.151,17.6264 29.9818,16.4571 28.5388,16.4571 Z" fill="#EBE5DD" fill-rule="nonzero"></path>
                                <polyline fill="#FFDA44" fill-rule="nonzero" points="25.2996 31.0857 21.2245 50.4163 10.7755 50.4163 6.7004 31.0857"></polyline>
                                <path d="M6.7004,31.0857 L7.1409,33.1755 L19.5886,33.1755 C20.9162,33.1755 21.9073,34.3973 21.6335,35.6963 L18.5304,50.4163 L21.2246,50.4163 L25.2997,31.0857 L6.7004,31.0857 L6.7004,31.0857 Z" fill="#EEBF00" fill-rule="nonzero"></path>
                                <polygon fill="#FFDA44" fill-rule="nonzero" points="26.8968 31.0857 5.1032 31.0857 2.9388 21.6816 29.0612 21.6816"></polygon>
                                <path d="M26.4905,21.6816 L25.1802,27.3748 C24.9618,28.3236 24.1172,28.9959 23.1437,28.9959 L4.6222,28.9959 L5.1032,31.0857 L26.8967,31.0857 L29.0611,21.6816 L26.4905,21.6816 L26.4905,21.6816 Z" fill="#EEBF00" fill-rule="nonzero"></path>
                                <path d="M31.9347,19.0694 C31.9347,17.6023 30.9994,16.3497 29.6938,15.876 C30.1308,15.2927 30.3673,14.5871 30.3673,13.8449 C30.3673,12.3778 29.432,11.1252 28.1264,10.6515 C28.5634,10.0682 28.7999,9.3626 28.7999,8.6204 C28.7999,6.7479 27.2764,5.2245 25.404,5.2245 L23.18,5.2245 C23.2487,5.1618 23.3164,5.0978 23.3826,5.0315 C24.5177,3.8963 25.1428,2.3878 25.1428,0.7837 L25.1428,0 L12.8653,0 C9.8182,0 7.2954,2.2808 6.9099,5.2245 L6.5959,5.2245 C5.6885,5.2245 4.8356,5.5777 4.1944,6.2189 C3.5533,6.8602 3.2,7.713 3.2,8.6204 C3.2,9.3804 3.451,10.0828 3.8744,10.6493 C3.4108,10.8164 2.9857,11.0847 2.6271,11.4434 C1.9858,12.0847 1.6327,12.9375 1.6327,13.8449 C1.6327,14.6049 1.8837,15.3073 2.3071,15.8738 C1.8435,16.0408 1.4184,16.3092 1.0598,16.6679 C0.4185,17.309 0.0654,18.162 0.0654,19.0694 C0.0654,20.5209 0.981,21.762 2.2648,22.247 L4.479,31.8694 L6.0647,31.8694 L10.1398,51.2 L21.8602,51.2 L25.9353,31.8694 L27.521,31.8694 L29.7348,22.2488 C30.182,22.0809 30.5925,21.8186 30.9402,21.4709 C31.5815,20.8297 31.9347,19.9768 31.9347,19.0694 Z M3.9233,22.4653 L6.62,22.4653 L7.8223,30.302 L5.7267,30.302 L3.9233,22.4653 Z M20.4785,30.302 L21.0796,22.4653 L23.7945,22.4653 L22.5922,30.302 L20.4785,30.302 Z M18.9065,30.302 L16.7837,30.302 L16.7837,22.4653 L19.5076,22.4653 L18.9065,30.302 Z M15.2163,30.302 L13.0935,30.302 L12.4924,22.4653 L15.2163,22.4653 L15.2163,30.302 Z M10.9204,22.4653 L11.5215,30.302 L9.4077,30.302 L8.2054,22.4653 L10.9204,22.4653 L10.9204,22.4653 Z M20.5888,49.6327 L11.4113,49.6327 L7.6666,31.8694 L24.3336,31.8694 L20.5888,49.6327 Z M26.2734,30.302 L24.1779,30.302 L25.3802,22.4653 L28.0768,22.4653 L26.2734,30.302 Z M29.832,20.3627 C29.4868,20.7079 29.0275,20.898 28.5387,20.898 L3.4612,20.898 C2.453,20.898 1.6326,20.0777 1.6326,19.0694 C1.6326,18.5806 1.8227,18.1214 2.1679,17.7761 C2.5131,17.4309 2.9724,17.2408 3.4612,17.2408 L11.8204,17.2408 L11.8204,15.6735 L5.0286,15.6735 C4.0204,15.6735 3.2,14.8532 3.2,13.8449 C3.2,13.3561 3.3901,12.8969 3.7353,12.5516 C4.0805,12.2064 4.5398,12.0163 5.0286,12.0163 L16,12.0163 L16,10.449 L6.5959,10.449 C5.5877,10.449 4.7673,9.6287 4.7673,8.6204 C4.7673,8.1316 4.9574,7.6724 5.3026,7.3271 C5.6478,6.9818 6.1071,6.7918 6.5959,6.7918 L9.7306,6.7918 L9.7306,5.2245 L8.4951,5.2245 C8.8665,3.1485 10.6842,1.5674 12.8653,1.5674 L23.5069,1.5674 C23.3496,2.4548 22.9254,3.2722 22.2743,3.9233 C21.4351,4.7624 20.3201,5.2245 19.1347,5.2245 L14.9551,5.2245 L14.9551,6.7918 L25.4041,6.7918 C26.4123,6.7918 27.2327,7.6121 27.2327,8.6204 C27.2327,9.1092 27.0426,9.5684 26.6974,9.9137 C26.3522,10.2589 25.8929,10.449 25.4041,10.449 L21.2245,10.449 L21.2245,12.0163 L26.9714,12.0163 C27.9796,12.0163 28.8,12.8366 28.8,13.8449 C28.8,14.3337 28.6099,14.7929 28.2647,15.1382 C27.9195,15.4834 27.4602,15.6735 26.9714,15.6735 L17.0449,15.6735 L17.0449,17.2408 L28.5388,17.2408 C29.547,17.2408 30.3674,18.0611 30.3674,19.0694 C30.3673,19.5582 30.1773,20.0174 29.832,20.3627 Z" fill="#000000" fill-rule="nonzero"></path>
                            </g>
                        </g>
                    </g>
                </g>
            </g>
        </g>
    </g>
</svg>