<?xml version="1.0" encoding="UTF-8"?>
<svg width="29px" height="52px" viewBox="0 0 29 52" version="1.1" xmlns="http://www.w3.org/2000/svg" xmlns:xlink="http://www.w3.org/1999/xlink">
    <!-- Generator: Sketch 62 (91390) - https://sketch.com -->
    <title>ice-cream-4</title>
    <desc>Created with Sketch.</desc>
    <g id="Page-1" stroke="none" stroke-width="1" fill="none" fill-rule="evenodd">
        <g id="16.3-MAIN-UI---ALL-ITEM-(-ADD)-Copy-2" transform="translate(-684.000000, -1279.000000)">
            <g id="CREATE-ITEM" transform="translate(327.000000, 413.000000)">
                <g id="NOTIFICATION-BAR" transform="translate(66.000000, 545.000000)">
                    <g id="SET-2" transform="translate(23.000000, 279.000000)">
                        <g id="ice-cream-4" transform="translate(268.000000, 42.000000)">
                            <g id="Shape">
                                <path d="M19.8149418,50.4163 C18.6188184,50.4163 17.5253177,49.745 16.9907532,48.6824 L13.657983,42.0571 L10.3874511,42.0571 L7.05468085,48.6824 C6.52011631,49.745 5.4266156,50.4163 4.2304922,50.4163" fill="#02A6AA" fill-rule="nonzero"></path>
                                <path d="M12.0226667,42.0571 L12.0226667,42.0571 C7.52469078,42.0571 3.74134752,38.7088 3.22571631,34.272 L0.973455319,14.8898 L23.0719787,14.8898 L20.819617,34.272 C20.3039858,38.7089 16.5206426,42.0571 12.0226667,42.0571 Z" fill="#0DD9DD" fill-rule="nonzero"></path>
                                <path d="M20.7244468,14.8898 L18.7150965,32.1822 C18.1994652,36.619 14.416122,39.9673 9.9181461,39.9673 L9.9181461,39.9673 C8.01796454,39.9673 6.24669078,39.3681 4.79406099,38.3432 C6.40701986,40.6034 9.0596,42.0571 12.0227674,42.0571 L12.0227674,42.0571 C16.5207433,42.0571 20.3040865,38.7089 20.8197177,34.272 L23.0719787,14.8898 L20.7244468,14.8898 L20.7244468,14.8898 Z" fill="#02A6AA" fill-rule="nonzero"></path>
                                <path d="M19.6518936,10.1878 L14.6533929,10.1878 L11.496461,10.1878 L4.39333901,10.1878 C3.0857305,10.1878 2.02566525,11.2404 2.02566525,12.5388 C2.02566525,13.8372 3.0857305,14.8898 4.39333901,14.8898 L19.6517929,14.8898 C20.9594014,14.8898 22.0194667,13.8372 22.0194667,12.5388 C22.0194667,11.2404 20.9595021,10.1878 19.6518936,10.1878 Z" fill="#FFFFFF" fill-rule="nonzero"></path>
                                <path d="M9.91804539,0.7837 C7.30272766,0.7837 5.18269787,2.8889 5.18269787,5.4857 L14.1272879,5.4857 C16.7426057,5.4857 18.8626355,3.3805 18.8626355,0.7837 L9.91804539,0.7837 L9.91804539,0.7837 Z" fill="#FFFFFF" fill-rule="nonzero"></path>
                                <path d="M15.7057035,0.7837 C15.7057035,3.3806 13.585573,5.4857 10.970356,5.4857 L14.1272879,5.4857 C16.7426057,5.4857 18.8626355,3.3805 18.8626355,0.7837 L15.7057035,0.7837 L15.7057035,0.7837 Z" fill="#EBE5DD" fill-rule="nonzero"></path>
                                <path d="M19.6518936,5.4857 L14.6533929,5.4857 L11.496461,5.4857 L4.39333901,5.4857 C3.0857305,5.4857 2.02566525,6.5383 2.02566525,7.8367 C2.02566525,9.1351 3.0857305,10.1877 4.39333901,10.1877 L19.6517929,10.1877 C20.9594014,10.1877 22.0194667,9.1351 22.0194667,7.8367 C22.0194667,6.5383 20.9595021,5.4857 19.6518936,5.4857 Z" fill="#FFFFFF" fill-rule="nonzero"></path>
                                <path d="M19.6518936,10.1878 L16.4949617,10.1878 C17.8025702,10.1878 18.8626355,11.2404 18.8626355,12.5388 C18.8626355,13.8372 17.8025702,14.8898 16.4949617,14.8898 L19.6518936,14.8898 C20.9595021,14.8898 22.0195674,13.8372 22.0195674,12.5388 C22.0195674,11.2404 20.9595021,10.1878 19.6518936,10.1878 Z" fill="#EBE5DD" fill-rule="nonzero"></path>
                                <path d="M19.6518936,5.4857 L16.4949617,5.4857 C17.8025702,5.4857 18.8626355,6.5383 18.8626355,7.8367 C18.8626355,9.1351 17.8025702,10.1877 16.4949617,10.1877 L19.6518936,10.1877 C20.9595021,10.1877 22.0195674,9.1351 22.0195674,7.8367 C22.0195674,6.5383 20.9595021,5.4857 19.6518936,5.4857 Z" fill="#EBE5DD" fill-rule="nonzero"></path>
                                <path d="M12.0226667,38.1388 L12.0226667,39.7061 C15.3188794,39.7061 18.0896922,37.2541 18.4675532,34.0025 L16.8996113,33.8229 C16.6135972,36.2833 14.5169319,38.1388 12.0226667,38.1388 Z" fill="#000000" fill-rule="nonzero"></path>
                                <path d="M22.5876681,13.6891 L28.3120809,1.5015 L26.8816071,0.839 L22.2328695,10.7369 C22.0895603,10.535 21.9229872,10.3507 21.7366752,10.1877 C22.3934,9.6128 22.8088255,8.7723 22.8088255,7.8367 C22.8088255,6.1082 21.3926525,4.702 19.6518936,4.702 L17.9883787,4.702 C19.0139007,3.7055 19.6518936,2.3174 19.6518936,0.7836 L19.6518936,0 L9.91804539,0 C7.13988085,0 4.83494894,2.0473 4.45064255,4.702 L4.39343972,4.702 C2.65268085,4.702 1.2365078,6.1082 1.2365078,7.8367 C1.2365078,8.7723 1.65193333,9.6128 2.30865816,10.1877 C1.65193333,10.7626 1.2365078,11.6031 1.2365078,12.5387 C1.2365078,13.1094 1.39170071,13.6446 1.66119858,14.106 L0.0879191489,14.106 L2.44169504,34.3617 C2.89549078,38.2671 5.67174184,41.3954 9.30573333,42.4535 L6.3485078,48.332 C5.94506667,49.1342 5.13345106,49.6326 4.23039149,49.6326 L3.02540567,49.6326 L3.02540567,51.2 L4.23039149,51.2 L19.8148411,51.2 L21.019827,51.2 L21.019827,49.6327 L19.8148411,49.6327 C18.9118823,49.6327 18.100166,49.1343 17.6967248,48.3322 L14.7394993,42.4537 C18.3733901,41.3956 21.1497418,38.2673 21.6035376,34.3619 L23.9573135,14.1061 L22.384034,14.1061 C22.4618823,13.973 22.5299617,13.8337 22.5876681,13.6891 Z M2.8149234,12.5388 C2.8149234,11.6746 3.52300993,10.9715 4.39333901,10.9715 L11.496461,10.9715 L11.496461,9.4041 L4.39333901,9.4041 C3.52300993,9.4041 2.8149234,8.701 2.8149234,7.8368 C2.8149234,6.9726 3.52300993,6.2695 4.39333901,6.2695 L8.33952908,6.2695 L8.33952908,4.702 L6.05131489,4.702 C6.41789645,2.9156 8.01232482,1.5673 9.91804539,1.5673 L17.9942199,1.5673 C17.6274369,3.3537 16.0329078,4.702 14.1272879,4.702 L11.4965617,4.702 L11.4965617,6.2693 L19.6519943,6.2693 C20.5223234,6.2693 21.2304099,6.9724 21.2304099,7.8366 C21.2304099,8.7008 20.5223234,9.4039 19.6519943,9.4039 L14.6534936,9.4039 L14.6534936,10.9712 L19.6519943,10.9712 C20.5223234,10.9712 21.2304099,11.6743 21.2304099,12.5385 C21.2304099,12.7325 21.1930468,12.9177 21.1277872,13.0894 L21.0231504,13.3118 C20.7512355,13.7853 20.2389277,14.1059 19.6518936,14.1059 L4.39343972,14.1059 C3.52311064,14.1061 2.8149234,13.403 2.8149234,12.5388 Z M13.1698454,42.8408 L16.2845801,49.0326 C16.3922383,49.2466 16.5190312,49.446 16.6594199,49.6327 L7.38601418,49.6327 C7.52640284,49.446 7.65319574,49.2466 7.7608539,49.0326 L10.8754879,42.8408 L13.1698454,42.8408 Z M20.0356965,34.1823 C19.5658879,38.2249 16.1211291,41.2735 12.0227674,41.2735 C7.92440567,41.2735 4.47964681,38.2249 4.0098383,34.1823 L1.85889078,15.6735 L4.39333901,15.6735 L19.6517929,15.6735 L22.1862411,15.6735 L21.8826028,18.2857 L3.56319291,18.2857 L3.56319291,19.853 L21.700722,19.853 L20.0356965,34.1823 Z" fill="#000000" fill-rule="nonzero"></path>
                            </g>
                        </g>
                    </g>
                </g>
            </g>
        </g>
    </g>
</svg>