<?xml version="1.0" encoding="UTF-8"?>
<svg width="23px" height="52px" viewBox="0 0 23 52" version="1.1" xmlns="http://www.w3.org/2000/svg" xmlns:xlink="http://www.w3.org/1999/xlink">
    <!-- Generator: Sketch 62 (91390) - https://sketch.com -->
    <title>ice-cream-5</title>
    <desc>Created with Sketch.</desc>
    <g id="Page-1" stroke="none" stroke-width="1" fill="none" fill-rule="evenodd">
        <g id="16.3-MAIN-UI---ALL-ITEM-(-ADD)-Copy-2" transform="translate(-761.000000, -1279.000000)">
            <g id="CREATE-ITEM" transform="translate(327.000000, 413.000000)">
                <g id="NOTIFICATION-BAR" transform="translate(66.000000, 545.000000)">
                    <g id="SET-2" transform="translate(23.000000, 279.000000)">
                        <g id="ice-cream-5" transform="translate(345.000000, 42.000000)">
                            <g id="Shape">
                                <path d="M11.4,50.4163 L11.4,50.4163 C10.5267398,50.4163 9.81883009,49.7145 9.81883009,48.849 L9.81883009,35.2653 L12.9812708,35.2653 L12.9812708,48.849 C12.9811699,49.7146 12.2732602,50.4163 11.4,50.4163 Z" fill="#FF9811" fill-rule="nonzero"></path>
                                <path d="M21.941469,35.2653 L0.858530973,35.2653 L0.858530973,11.2327 C0.858530973,5.4619 5.57803009,0.7837 11.4,0.7837 L11.4,0.7837 C17.221869,0.7837 21.941469,5.4618 21.941469,11.2327 L21.941469,35.2653 Z" fill="#FFDA44" fill-rule="nonzero"></path>
                                <path d="M12.4541469,0.8355 C12.1074053,0.8014 11.7558212,0.7837 11.4,0.7837 L11.4,0.7837 C5.57813097,0.7837 0.858530973,5.4618 0.858530973,11.2327 L0.858530973,35.2654 L2.96682478,35.2654 L2.96682478,11.2327 C2.96682478,5.8144 7.12721947,1.3598 12.4541469,0.8355 Z" fill="#FFF5CC" fill-rule="nonzero"></path>
                                <path d="M11.4,0.7837 L11.4,0.7837 C11.0441788,0.7837 10.6925947,0.8015 10.3458531,0.8355 C15.6727805,1.3598 19.8331752,5.8144 19.8331752,11.2327 L19.8331752,35.2654 L21.941469,35.2654 L21.941469,11.2327 C21.941469,5.4618 17.221869,0.7837 11.4,0.7837 Z" fill="#EEBF00" fill-rule="nonzero"></path>
                                <path d="M21.941469,11.2327 L21.941469,14.3674 L19.3061522,14.3674 L19.3061522,18.2858 C19.3061522,19.0068 18.7158743,19.5919 17.9884938,19.5919 C17.2611133,19.5919 16.6708354,19.0068 16.6708354,18.2858 L16.6708354,14.3674 L10.8730779,14.3674 L10.8730779,21.4205 C10.8730779,22.1415 10.2828,22.7266 9.55541947,22.7266 C8.82803894,22.7266 8.23776106,22.1415 8.23776106,21.4205 L8.23776106,14.3674 L6.12946726,14.3674 L6.12946726,18.2858 C6.12946726,19.0068 5.53918938,19.5919 4.81180885,19.5919 C4.08442832,19.5919 3.49415044,19.0068 3.49415044,18.2858 L3.49415044,14.3674 L0.858530973,14.3674 L0.858530973,11.2327 C0.858530973,5.4617 5.5779292,0.7837 11.4,0.7837 C14.3115398,0.7837 16.9469575,1.9529 18.853885,3.8442 C20.7618212,5.7344 21.941469,8.3466 21.941469,11.2327 Z" fill="#AA6100" fill-rule="nonzero"></path>
                                <path d="M21.941469,11.2327 L21.941469,14.3674 L19.8331752,14.3674 L19.8331752,11.2327 C19.8331752,5.8149 15.6724779,1.3595 10.3458531,0.836 C10.6926956,0.8015 11.0436743,0.7838 11.4,0.7838 C17.2220708,0.7837 21.941469,5.4617 21.941469,11.2327 Z" fill="#9A4C00" fill-rule="nonzero"></path>
                                <path d="M0.858530973,11.2327 L0.858530973,14.3674 L2.96682478,14.3674 L2.96682478,11.2327 C2.96682478,5.8149 7.12752212,1.3595 12.4541469,0.836 C12.1073044,0.8015 11.7563257,0.7838 11.4,0.7838 C5.5779292,0.7837 0.858530973,5.4617 0.858530973,11.2327 Z" fill="#CC7400" fill-rule="nonzero"></path>
                                <path d="M22.7321044,11.2327 C22.7321044,5.039 17.6484106,0 11.4,0 C5.15158938,0 0.0678955752,5.039 0.0678955752,11.2327 L0.0678955752,36.049 L9.02809381,36.049 L9.02809381,48.849 C9.02809381,50.1453 10.0921274,51.2 11.3998991,51.2 C12.7076708,51.2 13.7717044,50.1453 13.7717044,48.849 L13.7717044,36.049 L22.7319027,36.049 L22.7319027,11.2327 L22.7321044,11.2327 Z M11.4,1.5673 C16.7766637,1.5673 21.1508336,5.9031 21.1508336,11.2326 L21.1508336,13.5836 L18.5155168,13.5836 L18.5155168,18.2856 C18.5155168,18.5737 18.2790425,18.808 17.9884938,18.808 C17.6978442,18.808 17.4613699,18.5736 17.4613699,18.2856 L17.4613699,13.5836 L10.0823416,13.5836 L10.0823416,21.4203 C10.0823416,21.7084 9.84586726,21.9427 9.55531858,21.9427 C9.26466903,21.9427 9.02829558,21.7083 9.02829558,21.4203 L9.02829558,13.5836 L5.33883186,13.5836 L5.33883186,18.2856 C5.33883186,18.5737 5.10235752,18.808 4.81170796,18.808 C4.52105841,18.808 4.28468496,18.5736 4.28468496,18.2856 L4.28468496,13.5836 L1.64936814,13.5836 L1.64936814,11.2326 C1.64916637,5.9032 6.02333628,1.5673 11.4,1.5673 Z M12.1906354,48.849 C12.1906354,49.2812 11.8360248,49.6327 11.4,49.6327 C10.9639752,49.6327 10.6093646,49.2812 10.6093646,48.849 L10.6093646,36.049 L12.1905345,36.049 L12.1905345,48.849 L12.1906354,48.849 Z M1.64916637,34.4816 L1.64916637,15.151 L2.70331327,15.151 L2.70331327,18.2857 C2.70331327,19.438 3.64910973,20.3755 4.81160708,20.3755 C5.97410442,20.3755 6.91990088,19.438 6.91990088,18.2857 L6.91990088,15.151 L7.44692389,15.151 L7.44692389,21.4204 C7.44692389,22.5727 8.39272035,23.5102 9.5552177,23.5102 C10.717715,23.5102 11.6635115,22.5727 11.6635115,21.4204 L11.6635115,15.151 L15.8800991,15.151 L15.8800991,18.2857 C15.8800991,19.438 16.8258956,20.3755 17.9883929,20.3755 C19.1508903,20.3755 20.0966867,19.438 20.0966867,18.2857 L20.0966867,15.151 L21.1508336,15.151 L21.1508336,34.4816 L1.64916637,34.4816 L1.64916637,34.4816 Z" fill="#000000" fill-rule="nonzero"></path>
                            </g>
                        </g>
                    </g>
                </g>
            </g>
        </g>
    </g>
</svg>