<?xml version="1.0" encoding="UTF-8"?>
<svg width="39px" height="52px" viewBox="0 0 39 52" version="1.1" xmlns="http://www.w3.org/2000/svg" xmlns:xlink="http://www.w3.org/1999/xlink">
    <!-- Generator: Sketch 62 (91390) - https://sketch.com -->
    <title>ice-cream-2</title>
    <desc>Created with Sketch.</desc>
    <g id="Page-1" stroke="none" stroke-width="1" fill="none" fill-rule="evenodd">
        <g id="16.3-MAIN-UI---ALL-ITEM-(-ADD)-Copy-2" transform="translate(-433.000000, -1279.000000)">
            <g id="CREATE-ITEM" transform="translate(327.000000, 413.000000)">
                <g id="NOTIFICATION-BAR" transform="translate(66.000000, 545.000000)">
                    <g id="SET-2" transform="translate(23.000000, 279.000000)">
                        <g id="ice-cream-2" transform="translate(17.000000, 42.000000)">
                            <g>
                                <ellipse id="Oval" fill="#02A6AA" fill-rule="nonzero" cx="19.0162429" cy="47.7109146" rx="7.87772984" ry="2.60710799"></ellipse>
                                <path d="M37.5815372,15.9036382 C37.5815372,25.9828522 29.3518743,34.1536936 19.2001005,34.1536936 C9.0483267,34.1536936 0.818563351,25.9828522 0.818563351,15.9036382 C0.818563351,5.82442417 37.5815372,5.82442417 37.5815372,15.9036382 Z" id="Shape" fill="#FFFFFF" fill-rule="nonzero"></path>
                                <rect id="Rectangle-path" fill="#02A6AA" fill-rule="nonzero" x="17.7033047" y="34.1536936" width="2.62587644" height="13.5572211"></rect>
                                <path d="M27.5499895,13.8179119 L34.5088335,1.48010916 C34.7518995,1.04905107 35.210689,0.782072515 35.7082806,0.782072515 L35.7083812,0.782072515 C36.7585508,0.782072515 37.4209005,1.90398129 36.9078283,2.81380429 L30.7011016,13.8179119" id="Shape" fill="#DD7903" fill-rule="nonzero"></path>
                                <ellipse id="Oval" fill="#FF505D" fill-rule="nonzero" cx="19.0162429" cy="10.4807298" rx="7.87772984" ry="7.82142378"></ellipse>
                                <path d="M23.4365654,4.00627524 C24.2926241,5.25773099 24.7932314,6.7682807 24.7932314,8.39500351 C24.7932314,12.7146667 21.2661613,16.2164273 16.9155016,16.2164273 C15.2770681,16.2164273 13.7555435,15.7193981 12.4951791,14.8694581 C13.9122597,16.9410121 16.3040168,18.3021536 19.0162429,18.3021536 C23.3670031,18.3021536 26.8939728,14.8002932 26.8939728,10.4807298 C26.8939728,7.78788928 25.5230325,5.41322729 23.4365654,4.00627524 Z" id="Shape" fill="#E21220" fill-rule="nonzero"></path>
                                <ellipse id="Oval" fill="#91DC5A" fill-rule="nonzero" cx="12.7140188" cy="18.6546651" rx="7.87772984" ry="7.82142378"></ellipse>
                                <path d="M14.8147602,24.3908616 C10.464,24.3908616 6.93703037,20.8890012 6.93703037,16.5694378 C6.93703037,14.942715 7.4376377,13.4320655 8.29369634,12.1807096 C6.20722932,13.5876616 4.83628901,15.9623236 4.83628901,18.6551641 C4.83628901,22.9748273 8.36335916,26.4765879 12.7140188,26.4765879 C15.426245,26.4765879 17.8180021,25.1154464 19.2350827,23.0438924 C17.9747183,23.8938324 16.4531937,24.3908616 14.8147602,24.3908616 Z" id="Shape" fill="#6DC82A" fill-rule="nonzero"></path>
                                <ellipse id="Oval" fill="#FFFFFF" fill-rule="nonzero" cx="25.318467" cy="18.6546651" rx="7.87772984" ry="7.82142378"></ellipse>
                                <path d="M29.7387895,12.1806097 C30.5948482,13.4320655 31.0954555,14.9426152 31.0954555,16.569338 C31.0954555,20.8890012 27.5683853,24.3907618 23.2177257,24.3907618 C21.5792921,24.3907618 20.0577675,23.8937326 18.7974031,23.0437926 C20.2144838,25.1153466 22.6062408,26.4764881 25.318467,26.4764881 C29.6692272,26.4764881 33.1961969,22.9746277 33.1961969,18.6550643 C33.1961969,15.9622238 31.8252565,13.5875618 29.7387895,12.1806097 Z" id="Shape" fill="#EBE5DD" fill-rule="nonzero"></path>
                                <path d="M37.5815372,15.9036382 C37.5815372,25.9828522 29.3518743,34.1536936 19.2001005,34.1536936 C9.0483267,34.1536936 0.818563351,25.9828522 0.818563351,15.9036382 C0.818563351,25.9828522 37.5815372,25.9828522 37.5815372,15.9036382 Z" id="Shape" fill="#0DD9DD" fill-rule="nonzero"></path>
                                <path d="M34.2103791,20.4976655 C31.5252942,27.2727329 24.8763644,32.0679673 17.0993592,32.0679673 C12.5582073,32.0679673 8.40256335,30.4321622 5.19525864,27.7226542 C8.56681885,31.6570698 13.5894785,34.1536936 19.2001005,34.1536936 C29.3518743,34.1536936 37.5815372,25.9828522 37.5815372,15.9036382 C37.5815372,17.7869598 36.2977508,19.3181692 34.2103791,20.4976655 Z" id="Shape" fill="#02A6AA" fill-rule="nonzero"></path>
                                <path d="M12.7140188,14.2229209 L12.7140188,12.658676 C9.3836733,12.658676 6.6743623,15.3486222 6.6743623,18.6551641 L8.24986806,18.6551641 C8.24996859,16.2112374 10.2524984,14.2229209 12.7140188,14.2229209 Z" id="Shape" fill="#000000" fill-rule="nonzero"></path>
                                <path d="M38.367933,16.0142222 C38.3687372,15.9771945 38.3693403,15.9401669 38.3693403,15.9036382 C38.3693403,14.2600483 37.5293654,11.9743127 33.6724775,10.1502752 L37.5953089,3.1960577 C37.7772565,2.87368733 37.8734576,2.51139493 37.8734576,2.14830409 C37.8733571,0.963717739 36.902199,0 35.7085822,0 C34.9278157,0 34.2050513,0.420279142 33.8216545,1.09775595 L29.5240712,8.7178729 C29.3900733,8.68453801 29.2541654,8.65130292 29.1151414,8.61866667 C28.5597487,8.4873232 27.9802304,8.36745731 27.3872419,8.26016686 C26.3981906,4.58943626 23.0208,1.87773255 19.0160419,1.87773255 C14.948356,1.87773255 11.3836901,4.74044133 10.5399958,8.68463782 L12.0811225,9.00960312 C12.7713173,5.78350409 15.6879079,3.44197739 19.0160419,3.44197739 C22.7923099,3.44197739 25.8877319,6.38852242 26.0943079,10.0873981 C25.8384754,10.0647423 25.5799288,10.051069 25.318266,10.051069 C22.8391539,10.051069 20.6017005,11.0916366 19.020666,12.7539899 C17.388666,11.0259649 15.1388482,10.051568 12.7138178,10.051568 C7.93573194,10.051568 4.04828482,13.9111298 4.04828482,18.6551641 L5.62379058,18.6551641 C5.62379058,14.7736452 8.80435602,11.6158129 12.7138178,11.6158129 C14.7784712,11.6158129 16.6880168,12.4795259 18.0343288,14.0029505 C17.1616838,15.3453287 16.6526325,16.9416109 16.6526325,18.6547649 C16.6526325,19.6782659 16.8319665,20.6798097 17.1856084,21.6317505 L18.6637068,21.0904078 C18.3747016,20.3124273 18.2282387,19.4930277 18.2282387,18.6547649 C18.2282387,14.773246 21.4088042,11.6154136 25.318266,11.6154136 C29.2277277,11.6154136 32.4082932,14.773246 32.4082932,18.6547649 L32.4082932,18.6725302 L33.983799,18.6725302 L33.983799,18.6547649 C33.983799,16.565246 33.2290681,14.6479906 31.9768461,13.1559049 L32.9002555,11.5190019 C34.8040712,12.4043727 36.793533,13.8264951 36.793533,15.903738 C36.793533,18.4032561 33.9502241,19.9673014 31.5649005,20.8393981 C28.3160796,22.0269786 23.9248084,22.681101 19.1998995,22.681101 C14.4749906,22.681101 10.0836188,22.0270784 6.83489843,20.8393981 C4.44967539,19.967501 1.60636649,18.4033559 1.60636649,15.9038378 C1.60636649,14.496786 2.60335916,11.8885801 9.2804356,10.2291212 L8.89774241,8.71168499 C3.17976126,10.1329092 0.0307602094,12.6871205 0.0307602094,15.9038378 C0.0307602094,15.9403665 0.0312628272,15.9772943 0.0321675393,16.0144218 C0.0880586387,25.6915212 7.45462618,33.6797193 16.9155016,34.8004304 L16.9155016,44.413954 C13.7352377,44.6975002 10.3507099,45.6947524 10.3507099,47.7113138 C10.3507099,48.4612491 10.8444817,49.518584 13.1968335,50.2969637 C14.7628901,50.8151517 16.8296545,51.1005942 19.0163435,51.1005942 C21.2030325,51.1005942 23.2696963,50.8151517 24.8358534,50.2969637 C27.1881047,49.518584 27.681977,48.4612491 27.681977,47.7113138 C27.681977,45.6948522 24.2974492,44.6976 21.1171853,44.413954 L21.1171853,34.8409513 C30.753977,33.8866152 38.3113382,25.8163774 38.367933,16.0142222 Z M27.6601634,9.90415595 C28.0230534,9.9762152 28.3789068,10.0530651 28.7252105,10.1346058 L28.4443476,10.6325333 C28.1946471,10.5363212 27.9394178,10.4514869 27.6791623,10.3781302 C27.6772524,10.2191407 27.6706178,10.0612491 27.6601634,9.90415595 Z M29.8571058,11.3294721 L35.1960126,1.8629614 C35.3002555,1.67872125 35.496578,1.56424483 35.7086827,1.56424483 C36.0727791,1.56424483 36.2979518,1.86745263 36.2979518,2.14820429 C36.2979518,2.24551423 36.2721173,2.34062846 36.2208503,2.43135127 L30.8173068,12.0103423 C30.5139267,11.7624265 30.1927539,11.5351704 29.8571058,11.3294721 Z M2.09521257,19.9959454 C3.04134031,20.8171415 4.38986387,21.6123883 6.29056335,22.3072312 C9.70936963,23.5569903 14.2939476,24.245246 19.2,24.245246 C24.1060524,24.245246 28.6906304,23.5569903 32.1094366,22.3072312 C34.0101361,21.6123883 35.3586597,20.8170417 36.3047874,19.9959454 C34.444599,27.6599766 27.4820356,33.3716211 19.2,33.3716211 C10.9179644,33.3716211 3.95540105,27.6598768 2.09521257,19.9959454 Z M19.541378,34.9358659 L19.541378,46.6680515 C19.541378,47.6742862 20.3660733,48.4930869 21.3795518,48.4930869 L22.4299225,48.4930869 L22.4299225,46.9288421 L21.3795518,46.9288421 C21.2346974,46.9288421 21.1169843,46.8118706 21.1169843,46.6681513 L21.1169843,45.9836881 C24.5625298,46.3080546 26.1062702,47.3358472 26.1062702,47.7110144 C26.1062702,48.2406799 23.6218304,49.5360499 19.0162429,49.5360499 C14.4106555,49.5360499 11.9262157,48.2406799 11.9262157,47.7110144 C11.9262157,47.335947 13.469956,46.3080546 16.9155016,45.9836881 L16.9155016,46.6681513 C16.9155016,46.8118706 16.7977885,46.9288421 16.652934,46.9288421 L15.6025634,46.9288421 L15.6025634,48.4930869 L16.652934,48.4930869 C17.6664126,48.4930869 18.4911079,47.6742862 18.4911079,46.6680515 L18.4911079,34.9358659 L19.541378,34.9358659 Z" id="Shape" fill="#000000" fill-rule="nonzero"></path>
                            </g>
                        </g>
                    </g>
                </g>
            </g>
        </g>
    </g>
</svg>