<?xml version="1.0" encoding="UTF-8"?>
<svg width="35px" height="52px" viewBox="0 0 35 52" version="1.1" xmlns="http://www.w3.org/2000/svg" xmlns:xlink="http://www.w3.org/1999/xlink">
    <!-- Generator: Sketch 62 (91390) - https://sketch.com -->
    <title>ice-cream-1</title>
    <desc>Created with Sketch.</desc>
    <g id="Page-1" stroke="none" stroke-width="1" fill="none" fill-rule="evenodd">
        <g id="16.3-MAIN-UI---ALL-ITEM-(-ADD)-Copy-2" transform="translate(-517.000000, -1279.000000)">
            <g id="CREATE-ITEM" transform="translate(327.000000, 413.000000)">
                <g id="NOTIFICATION-BAR" transform="translate(66.000000, 545.000000)">
                    <g id="SET-2" transform="translate(23.000000, 279.000000)">
                        <g id="ice-cream-1" transform="translate(101.000000, 42.000000)">
                            <g>
                                <ellipse id="Oval" fill="#FF505D" fill-rule="nonzero" cx="17.4001006" cy="8.6205" rx="7.88209942" ry="7.8368"></ellipse>
                                <path d="M21.8227179,2.1329 C22.6792405,3.3868 23.1801191,4.9003 23.1801191,6.5303 C23.1801191,10.8584 19.6511376,14.3671 15.2980197,14.3671 C13.6586983,14.3671 12.1363491,13.8691 10.8752012,13.0175 C12.2930497,15.0931 14.6861029,16.4569 17.3998994,16.4569 C21.7530173,16.4569 25.2819988,12.9482 25.2819988,8.6201 C25.2819988,5.9219 23.9103156,3.5425 21.8227179,2.1329 Z" id="Shape" fill="#E21220" fill-rule="nonzero"></path>
                                <ellipse id="Oval" fill="#91DC5A" fill-rule="nonzero" cx="11.0944613" cy="16.8105" rx="7.88209942" ry="7.8368"></ellipse>
                                <path d="M13.1961399,22.5574 C8.84302197,22.5574 5.31404046,19.0487 5.31404046,14.7206 C5.31404046,13.0907 5.81491908,11.5771 6.67144162,10.3232 C4.58384393,11.7329 3.21216069,14.1122 3.21216069,16.8104 C3.21216069,21.1385 6.7411422,24.6472 11.0942601,24.6472 C13.8080566,24.6472 16.2010092,23.2834 17.6189584,21.2078 C16.3578104,22.0594 14.8354613,22.5574 13.1961399,22.5574 Z" id="Shape" fill="#6DC82A" fill-rule="nonzero"></path>
                                <ellipse id="Oval" fill="#FFFFFF" fill-rule="nonzero" cx="23.7057399" cy="16.8105" rx="7.88209942" ry="7.8368"></ellipse>
                                <path d="M28.1283572,10.3233 C28.9848798,11.5772 29.4857584,13.0907 29.4857584,14.7207 C29.4857584,19.0488 25.9567769,22.5575 21.603659,22.5575 C19.9643376,22.5575 18.4419884,22.0595 17.1808405,21.2079 C18.598689,23.2835 20.9917422,24.6473 23.7055387,24.6473 C28.0586566,24.6473 31.5876382,21.1386 31.5876382,16.8105 C31.5876382,14.1123 30.2159549,11.7329 28.1283572,10.3233 Z" id="Shape" fill="#EBE5DD" fill-rule="nonzero"></path>
                                <polyline id="Shape" fill="#FFDA44" fill-rule="nonzero" points="28.8552347 25.3386 18.4508393 50.4163 16.3489595 50.4163 5.94456416 25.3386"></polyline>
                                <path d="M5.94456416,25.3386 L6.81154682,27.4284 L22.5616647,27.4284 C24.0582659,27.4284 25.0754116,28.9395 24.5047318,30.3152 L16.2570312,50.1948 L16.3489595,50.4164 L18.4508393,50.4164 L28.8552347,25.3386 L5.94456416,25.3386 Z" id="Shape" fill="#EEBF00" fill-rule="nonzero"></path>
                                <polygon id="Shape" fill="#FFDA44" fill-rule="nonzero" points="30.4616671 25.3386 4.33813179 25.3386 2.16122081 19.0691 32.638578 19.0691"></polygon>
                                <path d="M29.8110277,19.0691 L28.8485965,21.8409 C28.556015,22.6834 27.7582301,23.2487 26.861778,23.2487 L3.61256185,23.2487 L4.33823237,25.3385 L30.4616671,25.3385 L32.638578,19.0691 L29.8110277,19.0691 L29.8110277,19.0691 Z" id="Shape" fill="#EEBF00" fill-rule="nonzero"></path>
                                <path d="M6.62769017,16.8105 C6.62769017,14.3618 8.6313052,12.3696 11.0942601,12.3696 L11.0942601,10.8022 C7.76210983,10.8022 5.05133064,13.4974 5.05133064,16.8104 L6.62769017,16.8104 L6.62769017,16.8105 Z" id="Shape" fill="#000000" fill-rule="nonzero"></path>
                                <path d="M11.0942601,9.7573 C13.1601329,9.7573 15.0706127,10.6228 16.4178555,12.1492 C15.544637,13.4942 15.0353098,15.0939 15.0353098,16.8104 L16.6117699,16.8104 C16.6117699,12.9213 19.794059,9.7573 23.7056393,9.7573 C27.6172197,9.7573 30.7995087,12.9213 30.7995087,16.8104 L32.3759688,16.8104 C32.3759688,12.8712 29.703711,9.5431 26.0677145,8.5177 C26.0117931,3.8118 22.1460763,0 17.3998994,0 C13.3300092,0 9.76331098,2.8684 8.91915954,6.8203 L10.461222,7.1459 C11.1515896,3.9135 14.0697607,1.5674 17.3998994,1.5674 C21.178415,1.5674 24.2757156,4.52 24.4821017,8.2264 C24.2261306,8.2037 23.9674439,8.19 23.7055387,8.19 C21.2251838,8.19 18.9865179,9.2325 17.4047272,10.898 C15.7717422,9.1665 13.5206046,8.19 11.0942601,8.19 C6.31338382,8.19 2.42393064,12.0571 2.42393064,16.8105 L4.00039075,16.8105 C4.00029017,12.9213 7.18257919,9.7573 11.0942601,9.7573 Z" id="Shape" fill="#000000" fill-rule="nonzero"></path>
                                <path d="M34.7405584,18.2854 L0.0592404624,18.2854 L0.0592404624,19.8528 L1.59939191,19.8528 L3.7758,26.1222 L5.41703237,26.1222 L15.8215283,51.2 L18.9784717,51.2 L29.3828671,26.1222 L31.0240994,26.1222 L33.2006081,19.8528 L34.7407595,19.8528 L34.7407595,18.2854 L34.7405584,18.2854 L34.7405584,18.2854 Z M17.9233075,49.6326 L16.8764913,49.6326 L7.12233295,26.1222 L27.6774659,26.1222 L17.9233075,49.6326 Z M29.900341,24.5549 L4.8994578,24.5549 L3.26697572,19.8528 L31.5327225,19.8528 L29.900341,24.5549 Z" id="Shape" fill="#000000" fill-rule="nonzero"></path>
                            </g>
                        </g>
                    </g>
                </g>
            </g>
        </g>
    </g>
</svg>