<?xml version="1.0" encoding="UTF-8"?>
<svg width="43px" height="47px" viewBox="0 0 43 47" version="1.1" xmlns="http://www.w3.org/2000/svg" xmlns:xlink="http://www.w3.org/1999/xlink">
    <!-- Generator: Sketch 62 (91390) - https://sketch.com -->
    <title>juice-7</title>
    <desc>Created with Sketch.</desc>
    <g id="Page-1" stroke="none" stroke-width="1" fill="none" fill-rule="evenodd">
        <g id="16.3-MAIN-UI---ALL-ITEM-(-ADD)-Copy-2" transform="translate(-987.000000, -1366.000000)">
            <g id="CREATE-ITEM" transform="translate(327.000000, 413.000000)">
                <g id="NOTIFICATION-BAR" transform="translate(66.000000, 545.000000)">
                    <g id="SET-2" transform="translate(23.000000, 279.000000)">
                        <g id="juice-7" transform="translate(571.000000, 129.000000)">
                            <g>
                                <polyline id="Shape" fill="#57565C" fill-rule="nonzero" points="1.10693515 30.08 1.10693515 26.3022846 3.56135356 26.3022846 2.80939331 30.08"></polyline>
                                <path d="M9.67796862,34.6069135 C6.77151046,33.5396519 4.38222176,31.968225 2.80939331,30.08 L1.10693515,30.08 C0.871604603,30.8121154 0.748271967,31.5707135 0.748271967,32.3466654 C0.748271967,36.541325 4.33994142,40.2035288 9.67796862,42.1632481 L9.67796862,34.6069135 Z" id="Shape" fill="#FFDA44" fill-rule="nonzero"></path>
                                <path d="M9.67796862,37.6300981 C5.32849163,36.0334538 2.13857531,33.30655 1.10621548,30.0821692 C0.871604603,30.8135615 0.748271967,31.5714365 0.748271967,32.346575 C0.748271967,36.5412346 4.33994142,40.2034385 9.67796862,42.1631577 L9.67796862,37.6300981 Z" id="Shape" fill="#EEBF00" fill-rule="nonzero"></path>
                                <polyline id="Shape" fill="#FFFFFF" fill-rule="nonzero" points="29.1823368 4.48605962 33.1771987 10.6248019 33.1771987 45.5685788 9.67796862 45.5685788 9.67796862 10.6248019 13.6728305 4.48605962"></polyline>
                                <polygon id="Shape" fill="#FFFFFF" fill-rule="nonzero" points="33.1771987 10.6248019 9.67796862 10.6248019 13.6728305 4.48605962 29.1823368 4.48605962"></polygon>
                                <rect id="Rectangle-path" fill="#EBE5DD" fill-rule="nonzero" x="31.2972531" y="10.6248019" width="1.87994561" height="34.9437769"></rect>
                                <polygon id="Rectangle-path" fill="#FF505D" fill-rule="nonzero" points="9.67796862 23.8468058 33.1771987 23.8468058 33.1771987 33.2910942 9.67796862 33.2910942"></polygon>
                                <polygon id="Rectangle-path" fill="#FF7C80" fill-rule="nonzero" points="9.67796862 23.8468058 11.5579142 23.8468058 11.5579142 33.2910942 9.67796862 33.2910942"></polygon>
                                <rect id="Rectangle-path" fill="#FFFFFF" fill-rule="nonzero" x="13.6728305" y="0.708344231" width="15.5095063" height="3.77771538"></rect>
                                <rect id="Rectangle-path" fill="#EBE5DD" fill-rule="nonzero" x="27.3023912" y="0.708344231" width="1.87994561" height="3.77771538"></rect>
                                <path d="M40.6317615,36.73285 C39.5021569,40.9684538 32.2730293,46.1818385 29.7762406,45.5096481 C27.2793619,44.8374577 23.6132071,36.6906404 24.7428117,32.4552173 C25.8724163,28.2196135 29.889318,27.4518865 34.2770272,28.6331231 C38.6645565,29.8143596 41.7612762,32.4972462 40.6317615,36.73285 Z" id="Shape" fill="#FF505D" fill-rule="nonzero"></path>
                                <path d="M39.3591234,31.3582192 C39.6041695,32.2686635 39.6040795,33.2887442 39.3024498,34.4195462 C38.1728452,38.65515 30.9437176,43.8685346 28.4469289,43.1963442 C27.7903243,43.0195519 27.0530272,42.3255788 26.3431674,41.3221288 C27.3811946,43.5080808 28.6894561,45.2171635 29.7762406,45.5097385 C32.2731192,46.1819288 39.5022469,40.9684538 40.6317615,36.7329404 C41.221977,34.5197827 40.6578494,32.7307096 39.3591234,31.3582192 Z" id="Shape" fill="#E21220" fill-rule="nonzero"></path>
                                <ellipse id="Oval" fill="#000000" fill-rule="nonzero" transform="translate(33.119822, 32.965123) rotate(-75.000671) translate(-33.119822, -32.965123) " cx="33.1198217" cy="32.9651226" rx="1" ry="1"></ellipse>
                                <ellipse id="Oval" fill="#000000" fill-rule="nonzero" transform="translate(30.396500, 32.232592) rotate(-75.000671) translate(-30.396500, -32.232592) " cx="30.3965005" cy="32.2325915" rx="1" ry="1"></ellipse>
                                <ellipse id="Oval" fill="#000000" fill-rule="nonzero" transform="translate(35.843038, 33.699258) rotate(-75.000671) translate(-35.843038, -33.699258) " cx="35.8430381" cy="33.699258" rx="1" ry="1"></ellipse>
                                <ellipse id="Oval" fill="#000000" fill-rule="nonzero" transform="translate(31.660818, 38.439325) rotate(-75.000671) translate(-31.660818, -38.439325) " cx="31.6608179" cy="38.4393247" rx="1" ry="1"></ellipse>
                                <ellipse id="Oval" fill="#000000" fill-rule="nonzero" transform="translate(28.936754, 37.704949) rotate(-75.000671) translate(-28.936754, -37.704949) " cx="28.9367541" cy="37.704949" rx="1" ry="1"></ellipse>
                                <ellipse id="Oval" fill="#000000" fill-rule="nonzero" transform="translate(34.383292, 39.171616) rotate(-75.000671) translate(-34.383292, -39.171616) " cx="34.3832917" cy="39.1716156" rx="1" ry="1"></ellipse>
                                <ellipse id="Oval" fill="#000000" fill-rule="nonzero" transform="translate(29.567996, 40.808506) rotate(-75.000671) translate(-29.567996, -40.808506) " cx="29.5679965" cy="40.8085063" rx="1" ry="1"></ellipse>
                                <ellipse id="Oval" fill="#000000" fill-rule="nonzero" transform="translate(32.292069, 41.542595) rotate(-75.000671) translate(-32.292069, -41.542595) " cx="32.2920695" cy="41.5425949" rx="1" ry="1"></ellipse>
                                <ellipse id="Oval" fill="#000000" fill-rule="nonzero" transform="translate(31.027680, 35.335656) rotate(-75.000671) translate(-31.027680, -35.335656) " cx="31.0276803" cy="35.3356559" rx="1" ry="1"></ellipse>
                                <ellipse id="Oval" fill="#000000" fill-rule="nonzero" transform="translate(33.752031, 36.068345) rotate(-75.000671) translate(-33.752031, -36.068345) " cx="33.7520311" cy="36.0683454" rx="1" ry="1"></ellipse>
                                <ellipse id="Oval" fill="#000000" fill-rule="nonzero" transform="translate(36.476095, 36.802721) rotate(-75.000671) translate(-36.476095, -36.802721) " cx="36.4760949" cy="36.802721" rx="1" ry="1"></ellipse>
                                <ellipse id="Oval" fill="#000000" fill-rule="nonzero" transform="translate(28.304536, 34.601502) rotate(-75.000671) translate(-28.304536, -34.601502) " cx="28.3045359" cy="34.6015025" rx="1" ry="1"></ellipse>
                                <path d="M34.2440126,28.7568596 C34.2440126,28.7568596 31.2286151,29.1972135 29.6390544,27.6002077 C28.0495837,26.0032019 28.4878598,22.9734192 28.4878598,22.9734192 C28.4878598,22.9734192 31.5032573,22.5330654 33.092818,24.1300712 C34.6822887,25.7271673 34.2440126,28.7568596 34.2440126,28.7568596 Z" id="Shape" fill="#91DC5A" fill-rule="nonzero"></path>
                                <path d="M34.2440126,28.7568596 C34.2440126,28.7568596 35.3721778,25.9129077 37.5434079,25.3283 C39.714728,24.7436923 42.1069854,26.6399615 42.1069854,26.6399615 C42.1069854,26.6399615 40.9788201,29.4839135 38.8075,30.0685212 C36.63609,30.6530385 34.2440126,28.7568596 34.2440126,28.7568596 Z" id="Shape" fill="#91DC5A" fill-rule="nonzero"></path>
                                <path d="M3.21636402,37.0181038 C2.0463682,35.5527885 1.4531841,33.9811808 1.4531841,32.346575 C1.4531841,31.8234288 1.51588494,31.3012769 1.63984728,30.7882538 L2.48662343,30.7882538 C3.74198954,32.2092808 5.46522803,33.4714115 7.49216527,34.4515423 L8.10370084,33.1750404 C6.25838912,32.2827635 4.69779498,31.1473519 3.56837029,29.8785327 L4.4212636,25.5939404 L0.401933054,25.5939404 L0.401843096,29.9771423 C0.164803347,30.7506538 0.0432698745,31.5470327 0.0432698745,32.346575 C0.0432698745,34.2839692 0.760146444,36.2058173 2.11662552,37.9045962 C3.39628033,39.5072962 5.25526569,40.9255212 7.49261506,42.0061596 L8.10343096,40.7292962 C6.05499372,39.7399462 4.36503975,38.4566654 3.21636402,37.0181038 Z M2.70144351,27.0106288 L2.23150209,29.3716558 L1.8120272,29.3716558 L1.81211715,27.0106288 L2.70144351,27.0106288 Z" id="Shape" fill="#000000" fill-rule="nonzero"></path>
                                <path d="M30.1975146,28.8623385 C31.2568619,29.4047365 32.4669791,29.5209712 33.3065586,29.5209712 C33.6110669,29.5209712 33.8661883,29.5057865 34.0483536,29.49015 C34.6393787,29.9040212 36.2248013,30.8880385 37.9366151,30.8880385 C38.2848431,30.8880385 38.6386485,30.847275 38.9900251,30.7526423 C41.4743096,30.0838865 42.7104247,27.0318692 42.7618808,26.9020769 L42.9566402,26.4111981 L42.5436423,26.0837346 C42.434613,25.9973269 39.8445377,23.9752423 37.3608828,24.6440885 C36.3149393,24.9256365 35.4911925,25.6299135 34.8829854,26.3603115 C34.7198013,25.4221192 34.3568201,24.3985135 33.5911862,23.62925 C31.7725921,21.802125 28.524113,22.2524212 28.386387,22.2724865 L27.8657992,22.3485 L27.7901444,22.8715558 C27.7717029,22.9989077 27.3907301,25.7827538 28.7564749,27.6486538 C26.3618787,28.2088577 24.7184331,29.8093885 24.0619184,32.2716462 C23.5127238,34.33115 23.9560377,37.4402 25.2478368,40.5886577 C25.8669289,42.0974481 26.7493285,43.734675 27.7387782,44.860325 L10.3828808,44.860325 L10.3828808,33.9993481 L21.7518828,33.9993481 L21.7518828,32.58275 L10.3829707,32.58275 L10.3829707,24.55515 L26.550431,24.55515 L26.550431,23.1384615 L10.3828808,23.1384615 L10.3828808,11.3331462 L32.4721967,11.3331462 L32.4721967,22.3300615 L33.8821109,22.3300615 L33.8821109,10.4138442 L29.887249,4.27510192 L29.887249,0 L12.9678285,0 L12.9678285,4.27501154 L8.97296653,10.4137538 L8.97296653,23.1384615 L8.97296653,33.9993481 L8.97296653,36.5899519 C6.26585565,35.4408019 4.10056276,33.8132462 2.81416109,31.9438212 L1.6544205,32.7495096 C3.17912134,34.9651077 5.76658787,36.8596596 8.97296653,38.1187173 L8.97296653,46.2769231 L30.2661527,46.2769231 L30.2661527,46.2752058 C31.9673515,46.2710481 34.3437762,44.9176288 36.1468975,43.5226327 C38.8324184,41.4449615 40.7635502,38.9752019 41.3128347,36.9157885 C41.871295,34.8213962 41.5076841,32.8862615 40.2611339,31.3195346 L39.1597762,32.2040385 C40.1288954,33.4220615 40.3949916,34.8838519 39.9509582,36.5490981 C39.4861444,38.292075 37.6988556,40.533975 35.2867176,42.4001462 C33.1202552,44.0761481 31.2248368,44.8636692 30.2662427,44.8606865 L30.2662427,44.860325 L30.2123577,44.860325 C30.1176318,44.8568904 30.0327113,44.8455019 29.9587657,44.8255269 C29.1502218,44.6077904 27.7202469,42.8970808 26.5515105,40.0486096 C25.3912301,37.2207462 24.9591611,34.3812231 25.4238849,32.6382462 C26.0456757,30.3064135 27.6516088,29.0372327 30.1975146,28.8623385 Z M37.7259331,26.0124212 C39.0219603,25.6638981 40.4901674,26.4252981 41.2153201,26.8831865 C40.7633703,27.7411173 39.8432782,29.0563942 38.6250649,29.3843096 C37.3287678,29.7331038 35.8611904,28.9716135 35.1357678,28.5134538 C35.5875377,27.6556135 36.5077197,26.3404269 37.7259331,26.0124212 Z M29.1431151,23.6319615 C30.0012259,23.6004173 31.6468305,23.6791423 32.59409,24.6310731 C33.5416192,25.5830038 33.6201527,27.2367712 33.5884874,28.0983173 C32.7310962,28.1295904 31.0849519,28.0513173 30.1375126,27.0992962 C29.1899833,26.1470942 29.1115397,24.4929654 29.1431151,23.6319615 Z M10.9811925,9.91645769 L14.0541632,5.19431346 L28.8010042,5.19431346 L31.8739749,9.91645769 L10.9811925,9.91645769 Z M14.3778326,1.41659808 L28.4774247,1.41659808 L28.4774247,3.777625 L14.3778326,3.777625 L14.3778326,1.41659808 L14.3778326,1.41659808 Z" id="Shape" fill="#000000" fill-rule="nonzero"></path>
                            </g>
                        </g>
                    </g>
                </g>
            </g>
        </g>
    </g>
</svg>