<?xml version="1.0" encoding="UTF-8"?>
<svg width="34px" height="52px" viewBox="0 0 34 52" version="1.1" xmlns="http://www.w3.org/2000/svg" xmlns:xlink="http://www.w3.org/1999/xlink">
    <!-- Generator: Sketch 62 (91390) - https://sketch.com -->
    <title>juice-3</title>
    <desc>Created with Sketch.</desc>
    <g id="Page-1" stroke="none" stroke-width="1" fill="none" fill-rule="evenodd">
        <g id="16.3-MAIN-UI---ALL-ITEM-(-ADD)-Copy-2" transform="translate(-1128.000000, -1484.000000)">
            <g id="CREATE-ITEM" transform="translate(327.000000, 413.000000)">
                <g id="NOTIFICATION-BAR" transform="translate(66.000000, 545.000000)">
                    <g id="SET-3" transform="translate(23.000000, 485.000000)">
                        <g id="juice-3" transform="translate(712.000000, 41.000000)">
                            <g>
                                <rect id="Rectangle-path" fill="#FFFFFF" fill-rule="nonzero" x="11.6097382" y="8.6204" width="19.4477552" height="41.7959"></rect>
                                <polygon id="Rectangle-path" fill="#FFFFFF" fill-rule="nonzero" points="11.6097382 46.2367 31.0574933 46.2367 31.0574933 50.4163 11.6097382 50.4163"></polygon>
                                <polygon id="Rectangle-path" fill="#EBE5DD" fill-rule="nonzero" points="28.9550279 46.2367 31.0574933 46.2367 31.0574933 50.4163 28.9550279 50.4163"></polygon>
                                <polygon id="Rectangle-path" fill="#93298D" fill-rule="nonzero" points="11.6097382 20.1143 31.0574933 20.1143 31.0574933 46.2367 11.6097382 46.2367"></polygon>
                                <polygon id="Rectangle-path" fill="#6C3166" fill-rule="nonzero" points="28.9550279 20.1143 31.0574933 20.1143 31.0574933 46.2367 28.9550279 46.2367"></polygon>
                                <polygon id="Rectangle-path" fill="#CD84C5" fill-rule="nonzero" points="11.6097382 20.1143 13.7122036 20.1143 13.7122036 46.2367 11.6097382 46.2367"></polygon>
                                <path d="M6.35669333,3.4973 C3.45380606,3.4993 1.09791394,6.1132 1.09791394,6.1132 C1.09791394,6.1132 3.44847394,8.7238 6.35146182,8.7218 C9.25434909,8.7198 11.6102412,6.1059 11.6102412,6.1059 C11.6102412,6.1059 9.25948,3.4953 6.35669333,3.4973 Z" id="Shape" fill="#91DC5A" fill-rule="nonzero"></path>
                                <ellipse id="Oval" fill="#93298D" fill-rule="nonzero" cx="15.0262194" cy="15.4645" rx="3.41648121" ry="3.3959"></ellipse>
                                <path d="M16.5220303,12.4107 C16.7423576,12.8597 16.8662036,13.364 16.8662036,13.8972 C16.8662036,15.7727 15.3365891,17.2931 13.4497224,17.2931 C12.9132909,17.2931 12.4059345,17.1699 11.9542133,16.951 C12.5088545,18.0815 13.6759855,18.8604 15.0265212,18.8604 C16.9133879,18.8604 18.4430024,17.34 18.4430024,15.4645 C18.4432036,14.1221 17.6593818,12.962 16.5220303,12.4107 Z" id="Shape" fill="#6C3166" fill-rule="nonzero"></path>
                                <ellipse id="Oval" fill="#93298D" fill-rule="nonzero" cx="8.19325697" cy="15.4645" rx="3.41648121" ry="3.3959"></ellipse>
                                <path d="M9.68906788,12.4107 C9.90939515,12.8597 10.0332412,13.364 10.0332412,13.8972 C10.0332412,15.7727 8.50362667,17.2931 6.61676,17.2931 C6.08032848,17.2931 5.57297212,17.1699 5.12125091,16.951 C5.67589212,18.0815 6.84302303,18.8604 8.19355879,18.8604 C10.0804255,18.8604 11.61004,17.34 11.61004,15.4645 C11.6101406,14.1221 10.8264194,12.962 9.68906788,12.4107 Z" id="Shape" fill="#6C3166" fill-rule="nonzero"></path>
                                <ellipse id="Oval" fill="#93298D" fill-rule="nonzero" cx="11.6097382" cy="21.3159" rx="3.41648121" ry="3.3959"></ellipse>
                                <path d="M13.1055491,18.2621 C13.3258764,18.7111 13.4497224,19.2154 13.4497224,19.7486 C13.4497224,21.6241 11.9201079,23.1445 10.0332412,23.1445 C9.4968097,23.1445 8.98945333,23.0213 8.53773212,22.8024 C9.09237333,23.9329 10.2595042,24.7118 11.61004,24.7118 C13.4969067,24.7118 15.0265212,23.1914 15.0265212,21.3159 C15.0267224,19.9735 14.2429006,18.8134 13.1055491,18.2621 Z" id="Shape" fill="#6C3166" fill-rule="nonzero"></path>
                                <polygon id="Rectangle-path" fill="#000000" fill-rule="nonzero" points="13.7122036 7.8367 24.750097 7.8367 24.750097 9.404 13.7122036 9.404"></polygon>
                                <path d="M33.1603612,3.6571 L33.1603612,2.0898 L26.0645152,2.0898 L26.0645152,19.3306 L19.5363891,19.3306 L19.5363891,20.8979 L26.0645152,20.8979 L26.0645152,42.0571 L27.6413139,42.0571 L27.6413139,20.898 L30.2693455,20.898 L30.2693455,45.4531 L12.3985903,45.4531 L12.3985903,25.4208 C14.3414945,25.0528 15.8150715,23.3526 15.8150715,21.3159 C15.8150715,20.7133 15.6849879,20.1406 15.4530909,19.6226 C17.5721564,19.4094 19.2315527,17.626 19.2315527,15.4644 C19.2315527,15.3091 19.2231018,15.1565 19.2066024,15.0107 L17.6397636,15.1867 C17.6497236,15.2743 17.6547539,15.3677 17.6547539,15.4644 C17.6547539,16.9048 16.4757515,18.0766 15.0267224,18.0766 C14.6463309,18.0766 14.2847527,17.9952 13.9579842,17.85 C13.8043588,17.7469 13.6429867,17.6542 13.4759806,17.5716 C12.8233491,17.0959 12.3986909,16.3286 12.3986909,15.4644 C12.3986909,14.4248 13.0184242,13.4846 13.9788097,13.0683 C14.3081939,12.9248 14.6607176,12.8521 15.026823,12.8521 C15.4173758,12.8521 15.7913285,12.9345 16.1430473,13.0992 C16.2804752,13.1625 16.4137782,13.2394 16.5393345,13.3281 L17.4523345,12.0502 C17.2483055,11.9061 17.0306945,11.7806 16.8105685,11.6793 C16.2517018,11.4176 15.6516873,11.2849 15.0269236,11.2849 C14.4415976,11.2849 13.8759903,11.402 13.3473055,11.6323 C12.63592,11.9405 12.0434509,12.4308 11.6102412,13.0321 C10.8462388,11.9751 9.59993091,11.2847 8.19376,11.2847 C5.87519273,11.2847 3.98882909,13.1597 3.98882909,15.4643 C3.98882909,17.6258 5.64822545,19.4093 7.76729091,19.6225 C7.53539394,20.1405 7.4053103,20.7132 7.4053103,21.3158 C7.4053103,23.3525 8.87888727,25.0527 10.8217915,25.4207 L10.8217915,51.2 L31.8464461,51.2 L31.8464461,7.8367 L27.6415152,7.8367 L27.6415152,3.6571 L33.1603612,3.6571 Z M5.56562788,15.4645 C5.56562788,14.0241 6.7446303,12.8523 8.19365939,12.8523 C9.64278909,12.8523 10.8216909,14.0242 10.8216909,15.4645 C10.8216909,16.3287 10.3969321,17.096 9.74440121,17.5717 C9.57729455,17.6542 9.41602303,17.7469 9.26239758,17.8501 C8.93562909,17.9953 8.57415152,18.0767 8.19376,18.0767 C6.7445297,18.0767 5.56562788,16.9049 5.56562788,15.4645 Z M8.98210909,21.3159 C8.98210909,20.4517 9.40676727,19.6844 10.0593988,19.2087 C10.2265055,19.1262 10.387777,19.0335 10.5414024,18.9303 C10.8681709,18.7851 11.2296485,18.7037 11.6101406,18.7037 C11.9905321,18.7037 12.3521103,18.7851 12.6787782,18.9303 C12.8324036,19.0334 12.9937758,19.1261 13.1607818,19.2087 C13.8134133,19.6844 14.2380715,20.4517 14.2380715,21.3159 C14.2380715,22.7563 13.0590691,23.9281 11.61004,23.9281 C10.1610109,23.9282 8.98210909,22.7563 8.98210909,21.3159 Z M12.3985903,49.6327 L12.3985903,47.0205 L30.2695467,47.0205 L30.2695467,49.6327 L12.3985903,49.6327 Z M30.2695467,9.4041 L30.2695467,19.3306 L27.6415152,19.3306 L27.6415152,9.4041 L30.2695467,9.4041 Z" id="Shape" fill="#000000" fill-rule="nonzero"></path>
                                <path d="M6.35196485,9.5054 C8.16579152,9.5041 9.75828485,8.6276 10.8217915,7.8419 L10.8217915,11.2326 L12.3985903,11.2326 L12.3985903,4.9633 C12.3985903,3.0907 13.9313236,1.5674 15.8150715,1.5674 L15.8150715,0 C13.2551503,0 11.1400085,1.9251 10.8554945,4.3952 C9.79420121,3.6053 8.19124485,2.7136 6.36011394,2.7136 L6.3560897,2.7136 C3.13840606,2.7158 0.616413333,5.4729 0.510575758,5.5902 L0.0395381818,6.1129 L0.510374545,6.6359 C0.615910303,6.753 3.13096121,9.5055 6.34794061,9.5055 C6.34904727,9.5054 6.35065697,9.5054 6.35196485,9.5054 Z M6.35719636,4.2809 L6.36001333,4.2809 C8.10774182,4.2809 9.67739758,5.4136 10.4731915,6.1057 C9.67548606,6.7997 8.10130303,7.9368 6.35075758,7.938 L6.34794061,7.938 C4.5998097,7.938 3.03005333,6.805 2.23476242,6.1132 C3.03246788,5.4194 4.60675152,4.2821 6.35719636,4.2809 Z" id="Shape" fill="#000000" fill-rule="nonzero"></path>
                                <ellipse id="Oval" fill="#CD84C5" fill-rule="nonzero" cx="7.14202424" cy="14.4196" rx="1" ry="1"></ellipse>
                                <ellipse id="Oval" fill="#CD84C5" fill-rule="nonzero" cx="13.9749867" cy="14.4196" rx="1" ry="1"></ellipse>
                                <ellipse id="Oval" fill="#CD84C5" fill-rule="nonzero" cx="10.5585055" cy="20.271" rx="1" ry="1"></ellipse>
                            </g>
                        </g>
                    </g>
                </g>
            </g>
        </g>
    </g>
</svg>