<?xml version="1.0" encoding="UTF-8"?>
<svg width="31px" height="52px" viewBox="0 0 31 52" version="1.1" xmlns="http://www.w3.org/2000/svg" xmlns:xlink="http://www.w3.org/1999/xlink">
    <!-- Generator: Sketch 62 (91390) - https://sketch.com -->
    <title>juice-2</title>
    <desc>Created with Sketch.</desc>
    <g id="Page-1" stroke="none" stroke-width="1" fill="none" fill-rule="evenodd">
        <g id="16.3-MAIN-UI---ALL-ITEM-(-ADD)-Copy-2" transform="translate(-1066.000000, -1484.000000)">
            <g id="CREATE-ITEM" transform="translate(327.000000, 413.000000)">
                <g id="NOTIFICATION-BAR" transform="translate(66.000000, 545.000000)">
                    <g id="SET-3" transform="translate(23.000000, 485.000000)">
                        <g id="juice-2" transform="translate(650.000000, 41.000000)">
                            <g>
                                <rect id="Rectangle-path" fill="#FFFFFF" fill-rule="nonzero" x="8.75761589" y="8.6204" width="19.4586172" height="41.7959"></rect>
                                <ellipse id="Oval" fill="#FFDA44" fill-rule="nonzero" cx="8.75761589" cy="8.6204" rx="7.88859868" ry="7.8367"></ellipse>
                                <polygon id="Rectangle-path" fill="#FFFFFF" fill-rule="nonzero" points="8.75761589 46.2367 28.2162331 46.2367 28.2162331 50.4163 8.75761589 50.4163"></polygon>
                                <polygon id="Rectangle-path" fill="#EBE5DD" fill-rule="nonzero" points="26.1125934 46.2367 28.2162331 46.2367 28.2162331 50.4163 26.1125934 50.4163"></polygon>
                                <polygon id="Rectangle-path" fill="#0DD9DD" fill-rule="nonzero" points="8.75761589 20.1143 28.2162331 20.1143 28.2162331 46.2367 8.75761589 46.2367"></polygon>
                                <polygon id="Rectangle-path" fill="#02A6AA" fill-rule="nonzero" points="26.1125934 20.1143 28.2162331 20.1143 28.2162331 46.2367 26.1125934 46.2367"></polygon>
                                <polygon id="Rectangle-path" fill="#AAFFF5" fill-rule="nonzero" points="8.75761589 20.1143 10.8612556 20.1143 10.8612556 46.2367 8.75761589 46.2367"></polygon>
                                <path d="M30.3198728,3.6571 L30.3198728,2.0898 L23.2200636,2.0898 L23.2200636,19.3306 L10.8612556,19.3306 L10.8612556,20.8979 L23.2201642,20.8979 L23.2201642,42.0571 L24.7978437,42.0571 L24.7978437,20.898 L27.427343,20.898 L27.427343,45.4531 L9.54650596,45.4531 L9.54650596,10.5123 L13.1879629,14.1298 C12.4541351,14.7145 11.5968954,15.1603 10.6513748,15.4195 L11.0710358,16.9304 C14.562506,15.9733 17.0717139,12.9407 17.3979603,9.404 L21.9053139,9.404 L21.9053139,7.8367 L17.3976583,7.8367 C16.9975258,3.4495 13.2763444,0 8.75761589,0 C3.97283709,0 0.0801271523,3.8671 0.0801271523,8.6204 C0.0801271523,12.4861 2.69704371,15.9033 6.44419603,16.9305 L6.86385695,15.4196 C5.91833642,15.1605 5.06129801,14.7147 4.32736954,14.13 L7.96872583,10.5126 L7.96872583,51.2 L29.0051232,51.2 L29.0051232,7.8367 L24.7978437,7.8367 L24.7978437,3.6571 L30.3198728,3.6571 Z M9.54670728,1.612 C10.913902,1.7629 12.1644291,2.3011 13.185849,3.1133 L9.54670728,6.7285 L9.54670728,1.612 Z M7.96892715,6.7286 L4.32948344,3.1131 C5.35090331,2.3009 6.60163179,1.7627 7.96892715,1.6118 L7.96892715,6.7286 Z M6.85318675,7.8367 L1.70270199,7.8367 C1.85460132,6.4784 2.39636556,5.2362 3.21394437,4.2215 L6.85318675,7.8367 Z M15.8119258,9.4041 C15.6601272,10.7472 15.1234967,11.9954 14.3013881,13.0194 L9.87335629,8.6205 L14.3013881,4.2216 C15.1188662,5.2363 15.6606305,6.4786 15.8125298,7.8367 L11.9129748,7.8367 L11.9129748,9.404 L15.8119258,9.404 L15.8119258,9.4041 Z M1.70330596,9.4041 L6.85338808,9.4041 L3.21384371,13.0197 C2.3917351,11.9955 1.85500397,10.7473 1.70330596,9.4041 Z M9.54650596,49.6327 L9.54650596,47.0205 L27.4274437,47.0205 L27.4274437,49.6327 L9.54650596,49.6327 Z M27.427343,9.4041 L27.427343,19.3306 L24.7978437,19.3306 L24.7978437,9.4041 L27.427343,9.4041 Z" id="Shape" fill="#000000" fill-rule="nonzero"></path>
                            </g>
                        </g>
                    </g>
                </g>
            </g>
        </g>
    </g>
</svg>