<?xml version="1.0" encoding="UTF-8"?>
<svg width="26px" height="52px" viewBox="0 0 26 52" version="1.1" xmlns="http://www.w3.org/2000/svg" xmlns:xlink="http://www.w3.org/1999/xlink">
    <!-- Generator: Sketch 62 (91390) - https://sketch.com -->
    <title>juice-6</title>
    <desc>Created with Sketch.</desc>
    <g id="Page-1" stroke="none" stroke-width="1" fill="none" fill-rule="evenodd">
        <g id="16.3-MAIN-UI---ALL-ITEM-(-ADD)-Copy-2" transform="translate(-521.000000, -1555.000000)">
            <g id="CREATE-ITEM" transform="translate(327.000000, 413.000000)">
                <g id="NOTIFICATION-BAR" transform="translate(66.000000, 545.000000)">
                    <g id="SET-3" transform="translate(23.000000, 485.000000)">
                        <g id="juice-6" transform="translate(105.000000, 112.000000)">
                            <g>
                                <path d="M21.6816,16.8656 L21.6816,13.7639 C21.6816,13.129 21.393,12.5286 20.8973,12.1321 L19.8537,11.2972 C19.358,10.9006 19.0694,10.3002 19.0694,9.6653 L19.0694,5.4857 L6.5306,5.4857 L6.5306,9.6653 C6.5306,10.3002 6.242,10.9006 5.7463,11.2971 L4.7027,12.132 C4.207,12.5286 3.9184,13.129 3.9184,13.7638 L3.9184,16.8655 C3.9184,17.5642 3.5692,18.2168 2.9878,18.6043 L1.7143,19.4533 C1.1329,19.8409 0.7837,20.4934 0.7837,21.1921 L0.7837,46.2367 C0.7837,48.545 2.655,50.4163 4.9633,50.4163 L20.6368,50.4163 C22.9451,50.4163 24.8164,48.545 24.8164,46.2367 L24.8164,21.1922 C24.8164,20.4935 24.4672,19.8409 23.8858,19.4534 L22.6123,18.6044 C22.0308,18.2167 21.6816,17.5643 21.6816,16.8656 Z" id="Shape" fill="#FFFFFF" fill-rule="nonzero"></path>
                                <rect id="Rectangle-path" fill="#FFFFFF" fill-rule="nonzero" x="6.5306" y="5.4857" width="12.5388" height="4.1796"></rect>
                                <rect id="Rectangle-path" fill="#EBE5DD" fill-rule="nonzero" x="6.5306" y="7.5755" width="12.5388" height="2.0898"></rect>
                                <path d="M24.8163,21.1926 L24.8163,46.2367 C24.8163,48.5449 22.9449,50.4163 20.6367,50.4163 L4.9633,50.4163 C2.6551,50.4163 0.7837,48.5449 0.7837,46.2367 L0.7837,21.1926 C0.7837,20.4936 1.1327,19.8405 1.7147,19.4538 L2.9874,18.6043 C3.5694,18.2166 3.9184,17.5646 3.9184,16.8656 L3.9184,13.7634 C3.9184,13.1293 4.2068,12.5284 4.7031,12.1324 L5.7459,11.2975 C6.2422,10.9004 6.5306,10.3007 6.5306,9.6654 L19.0694,9.6654 C19.0694,10.3007 19.3578,10.9005 19.8541,11.2975 L20.8969,12.1324 C21.3932,12.5284 21.6816,13.1292 21.6816,13.7634 L21.6816,16.8658 C21.6816,17.5647 22.0306,18.2169 22.6126,18.6045 L23.8853,19.454 C24.4673,19.8405 24.8163,20.4936 24.8163,21.1926 Z" id="Shape" fill="#FFFFFF" fill-rule="nonzero"></path>
                                <path d="M21.6816,13.7634 L21.6816,16.8658 L20.6367,16.8658 L20.6367,15.8532 C20.6367,15.2191 20.3483,14.6182 19.852,14.2222 L18.8092,13.3873 C18.3129,12.9902 18.0245,12.3905 18.0245,11.7552 L5.1743,11.7552 L5.7459,11.2975 C6.2422,10.9004 6.5306,10.3007 6.5306,9.6654 L19.0694,9.6654 C19.0694,10.3007 19.3578,10.9005 19.8541,11.2975 L20.8969,12.1324 C21.3932,12.5283 21.6816,13.1291 21.6816,13.7634 Z" id="Shape" fill="#EBE5DD" fill-rule="nonzero"></path>
                                <path d="M24.8163,21.1926 L24.8163,46.2367 C24.8163,48.5449 22.9449,50.4163 20.6367,50.4163 L4.9633,50.4163 C2.6551,50.4163 0.7837,48.5449 0.7837,46.2367 L0.7837,21.1926 C0.7837,20.4936 1.1327,19.8405 1.7147,19.4538 L2.9874,18.6043 C3.5694,18.2166 3.9184,17.5646 3.9184,16.8656 L21.6817,16.8656 C21.6817,17.5645 22.0307,18.2167 22.6127,18.6043 L23.8854,19.4538 C24.4673,19.8405 24.8163,20.4936 24.8163,21.1926 Z" id="Shape" fill="#C9EEAE" fill-rule="nonzero"></path>
                                <circle id="Oval" fill="#FFFFFF" fill-rule="nonzero" cx="5.6968" cy="37.144" r="1"></circle>
                                <circle id="Oval" fill="#FFFFFF" fill-rule="nonzero" cx="3.607" cy="34.0093" r="1"></circle>
                                <circle id="Oval" fill="#FFFFFF" fill-rule="nonzero" cx="6.7417" cy="31.9195" r="1"></circle>
                                <path d="M23.8853,19.4539 L22.6751,18.6462 C22.7083,18.7947 22.7265,18.9475 22.7265,19.1029 L22.7265,44.1469 C22.7265,46.4551 20.8551,48.3265 18.5469,48.3265 L2.8735,48.3265 C2.2604,48.3265 1.6787,48.1934 1.154,47.9562 C1.8098,49.4065 3.2682,50.4163 4.9633,50.4163 L20.6368,50.4163 C22.945,50.4163 24.8164,48.5449 24.8164,46.2367 L24.8164,21.1926 C24.8163,20.4936 24.4673,19.8405 23.8853,19.4539 Z" id="Shape" fill="#91DC5A" fill-rule="nonzero"></path>
                                <path d="M12.7846,13.7196 C15.233,16.1679 15.233,20.1375 12.7846,22.5859 C10.3363,25.0342 6.3667,25.0342 3.9183,22.5859 L12.7846,13.7196 Z" id="Shape" fill="#3FC378" fill-rule="nonzero"></path>
                                <path d="M11.2159,15.2883 C12.7979,16.8703 12.7979,19.4353 11.2159,21.0173 C9.6339,22.5993 7.0689,22.5993 5.4869,21.0173" id="Shape" fill="#C9EEAE" fill-rule="nonzero"></path>
                                <path d="M19.0694,41.0122 C19.0694,44.4747 16.2625,47.2816 12.8,47.2816 C9.3375,47.2816 6.5306,44.4747 6.5306,41.0122 L19.0694,41.0122 Z" id="Shape" fill="#3FC378" fill-rule="nonzero"></path>
                                <path d="M16.851,41.0122 C16.851,43.2495 15.0374,45.0632 12.8,45.0632 C10.5626,45.0632 8.749,43.2496 8.749,41.0122" id="Shape" fill="#C9EEAE" fill-rule="nonzero"></path>
                                <circle id="Oval" fill="#3FC378" fill-rule="nonzero" cx="15.4122" cy="31.6082" r="6.2694"></circle>
                                <circle id="Oval" fill="#C9EEAE" fill-rule="nonzero" cx="15.4122" cy="31.6082" r="4.051"></circle>
                                <path d="M24.3204,18.8014 L23.0469,17.9523 C22.6828,17.7097 22.4653,17.3034 22.4653,16.8657 L22.4653,13.7639 C22.4653,12.8864 22.0722,12.0684 21.387,11.5201 L20.3432,10.6852 C20.0318,10.436 19.8531,10.0643 19.8531,9.6653 L19.8531,8.3592 L20.6368,8.3592 L20.6368,6.7918 L19.8531,6.7918 L19.8531,4.702 L17.121,4.702 L17.6434,1.5673 L23.2489,1.5673 L23.2489,0 L16.3157,0 L15.532,4.702 L5.7468,4.702 L5.7468,6.7918 L4.9631,6.7918 L4.9631,8.3591 L5.7468,8.3591 L5.7468,9.6652 C5.7468,10.0641 5.5681,10.4359 5.2566,10.6851 L4.2129,11.52 C3.5276,12.0684 3.1346,12.8862 3.1346,13.7638 L3.1346,16.8656 C3.1346,17.3033 2.9172,17.7096 2.553,17.9523 L1.2794,18.8013 C0.4783,19.3355 0,20.2294 0,21.1923 L0,46.2367 C0,48.9734 2.2266,51.2 4.9633,51.2 L20.6368,51.2 C23.3734,51.2 25.6,48.9734 25.6,46.2367 L25.6,21.1922 C25.6,20.2293 25.1216,19.3355 24.3204,18.8014 Z M18.2857,8.8816 L16.4243,8.8816 L16.5113,8.3592 L18.2855,8.3592 L18.2855,8.8816 L18.2857,8.8816 Z M18.2857,6.2694 L18.2857,6.7918 L16.7727,6.7918 L16.8597,6.2694 L18.2857,6.2694 Z M7.3143,6.2694 L15.2708,6.2694 L15.1838,6.7918 L7.3144,6.7918 L7.3144,6.2694 L7.3143,6.2694 Z M14.9225,8.3592 L14.8355,8.8816 L7.3143,8.8816 L7.3143,8.3592 L14.9225,8.3592 Z M5.1922,12.744 L6.2358,11.9091 C6.7112,11.5289 7.0456,11.0187 7.2061,10.449 L14.5741,10.449 L13.9952,13.9221 C13.7958,13.6572 13.5772,13.404 13.3387,13.1655 L12.7846,12.6114 L9.314,16.082 L4.702,16.082 L4.702,13.7638 C4.702,13.365 4.8807,12.9933 5.1922,12.744 Z M15.4122,26.1221 C18.437,26.1221 20.8979,28.583 20.8979,31.6078 C20.8979,34.6326 18.437,37.0935 15.4122,37.0935 C12.3873,37.0935 9.9265,34.6326 9.9265,31.6078 C9.9265,28.583 12.3874,26.1221 15.4122,26.1221 Z M11.1493,16.4634 C11.3199,16.7448 11.4462,17.0496 11.5244,17.3692 L10.2435,17.3692 L11.1493,16.4634 Z M9.1354,20.0455 L10.0406,20.9507 C9.7594,21.1211 9.4548,21.2473 9.1354,21.3256 L9.1354,20.0455 Z M11.1491,19.8425 L10.2431,18.9365 L11.5245,18.9365 C11.446,19.2562 11.3197,19.5611 11.1491,19.8425 Z M7.5681,21.3258 C7.2484,21.2474 6.9436,21.1212 6.6621,20.9505 L7.5681,20.0445 L7.5681,21.3258 Z M5.5322,22.0803 C6.3486,22.6689 7.3252,22.9875 8.3514,22.9875 C9.6428,22.9875 10.857,22.4846 11.77,21.5715 C12.6831,20.6584 13.186,19.4443 13.186,18.1528 C13.186,17.1267 12.8675,16.1499 12.2789,15.3337 L12.7454,14.8672 C13.4538,15.8104 13.837,16.9522 13.837,18.1529 C13.837,19.6183 13.2664,20.9958 12.2303,22.0319 C10.2796,23.9827 7.213,24.1544 5.066,22.5466 L5.5322,22.0803 Z M24.0327,46.2367 C24.0327,48.1093 22.5093,49.6326 20.6368,49.6326 L4.9633,49.6326 C3.0908,49.6326 1.5674,48.1092 1.5674,46.2367 L1.5674,21.1922 C1.5674,20.7545 1.7848,20.3482 2.149,20.1054 L3.4225,19.2564 C4,18.8715 4.4085,18.2993 4.5923,17.6493 L7.7467,17.6493 L2.8102,22.5858 L3.3643,23.14 C4.7393,24.515 6.5454,25.2024 8.3516,25.2024 C9.7395,25.2024 11.1266,24.7948 12.3189,23.9829 L12.084,25.3913 C9.869,26.5821 8.3594,28.9216 8.3594,31.6076 C8.3594,35.4967 11.5233,38.6607 15.4125,38.6607 C19.3017,38.6607 22.4656,35.4967 22.4656,31.6076 C22.4656,27.7185 19.3017,24.5545 15.4125,24.5545 C14.8507,24.5545 14.3047,24.6224 13.7805,24.7472 L14.2296,22.0544 C14.994,20.9078 15.4049,19.5618 15.4049,18.1525 C15.4049,17.5418 15.3265,16.9433 15.177,16.3674 L16.1633,10.4488 L18.3941,10.4488 C18.5546,11.0186 18.889,11.5287 19.3643,11.9089 L20.4079,12.7438 C20.7194,12.9931 20.8981,13.3648 20.8981,13.7637 L20.8981,16.0819 L16.5774,16.0819 L16.5774,17.6492 L21.0078,17.6492 C21.1916,18.2991 21.6002,18.8713 22.1776,19.2563 L23.4511,20.1053 C23.8152,20.3481 24.0327,20.7544 24.0327,21.1921 L24.0327,46.2365 L24.0327,46.2365 L24.0327,46.2367 Z" id="Shape" fill="#000000" fill-rule="nonzero"></path>
                                <path d="M5.7469,41.0122 C5.7469,44.9013 8.9109,48.0653 12.8,48.0653 C16.6891,48.0653 19.8531,44.9013 19.8531,41.0122 L19.8531,40.2285 L5.7469,40.2285 L5.7469,41.0122 Z M10.0037,42.7006 C9.8356,42.4233 9.7081,42.1189 9.6283,41.7959 L10.9084,41.7959 L10.0037,42.7006 Z M12.016,42.905 L12.016,44.1839 C11.6933,44.1041 11.3893,43.9768 11.1122,43.8088 L12.016,42.905 Z M13.5833,42.9038 L14.4882,43.8087 C14.2108,43.9767 13.9064,44.1043 13.5833,44.1841 L13.5833,42.9038 Z M15.5965,42.7003 L14.692,41.7959 L15.9717,41.7959 C15.8919,42.1188 15.7645,42.4231 15.5965,42.7003 Z M8.0298,41.7959 C8.4054,44.0902 10.401,45.847 12.8,45.847 C15.199,45.847 17.1945,44.0902 17.5702,41.7959 L18.2298,41.7959 C17.8484,44.4508 15.5587,46.4979 12.7999,46.4979 C10.0411,46.4979 7.7515,44.4507 7.37,41.7959 L8.0298,41.7959 Z" id="Shape" fill="#000000" fill-rule="nonzero"></path>
                                <path d="M15.4122,36.4426 C18.078,36.4426 20.2469,34.2737 20.2469,31.6079 C20.2469,28.9421 18.078,26.7732 15.4122,26.7732 C12.7464,26.7732 10.5776,28.9421 10.5776,31.6079 C10.5776,34.2737 12.7464,36.4426 15.4122,36.4426 Z M12.145,31.6078 C12.145,31.2931 12.1907,30.989 12.274,30.7008 L13.8449,31.6078 L12.274,32.5148 C12.1906,32.2266 12.145,31.9226 12.145,31.6078 Z M18.6796,31.6078 C18.6796,31.9225 18.6339,32.2266 18.5506,32.5149 L16.9796,31.6078 L18.5506,30.7007 C18.634,30.9891 18.6796,31.2931 18.6796,31.6078 Z M13.0592,33.8712 L14.6285,32.9652 L14.6285,34.7796 C14.0209,34.6294 13.4801,34.3086 13.0592,33.8712 Z M16.1959,34.7796 L16.1959,32.9652 L17.7652,33.8713 C17.3444,34.3086 16.8036,34.6294 16.1959,34.7796 Z M17.7652,29.3444 L16.1959,30.2505 L16.1959,28.4361 C16.8036,28.5863 17.3444,28.9071 17.7652,29.3444 Z M14.6286,28.4362 L14.6286,30.2506 L13.0593,29.3446 C13.4801,28.9071 14.0209,28.5863 14.6286,28.4362 Z" id="Shape" fill="#000000" fill-rule="nonzero"></path>
                            </g>
                        </g>
                    </g>
                </g>
            </g>
        </g>
    </g>
</svg>