<?xml version="1.0" encoding="UTF-8"?>
<svg width="38px" height="52px" viewBox="0 0 38 52" version="1.1" xmlns="http://www.w3.org/2000/svg" xmlns:xlink="http://www.w3.org/1999/xlink">
    <!-- Generator: Sketch 62 (91390) - https://sketch.com -->
    <title>juice-4</title>
    <desc>Created with Sketch.</desc>
    <g id="Page-1" stroke="none" stroke-width="1" fill="none" fill-rule="evenodd">
        <g id="16.3-MAIN-UI---ALL-ITEM-(-ADD)-Copy-2" transform="translate(-906.000000, -1484.000000)">
            <g id="CREATE-ITEM" transform="translate(327.000000, 413.000000)">
                <g id="NOTIFICATION-BAR" transform="translate(66.000000, 545.000000)">
                    <g id="SET-3" transform="translate(23.000000, 485.000000)">
                        <g id="juice-4" transform="translate(490.000000, 41.000000)">
                            <g>
                                <polyline id="Shape" fill="#FFFFFF" fill-rule="nonzero" points="32.2987016 4.9633 36.7633497 11.7551 36.7633497 50.4163 10.5011572 50.4163 10.5011572 11.7551 14.9657048 4.9633"></polyline>
                                <polygon id="Shape" fill="#FFFFFF" fill-rule="nonzero" points="36.7633497 11.7551 10.5011572 11.7551 14.9657048 4.9633 32.2987016 4.9633"></polygon>
                                <polygon id="Rectangle-path" fill="#EBE5DD" fill-rule="nonzero" points="34.6623743 11.7551 36.7633497 11.7551 36.7633497 50.4163 34.6623743 50.4163"></polygon>
                                <polygon id="Rectangle-path" fill="#FFDA44" fill-rule="nonzero" points="10.5011572 26.3837 36.7632492 26.3837 36.7632492 36.8327 10.5011572 36.8327"></polygon>
                                <polygon id="Rectangle-path" fill="#EEBF00" fill-rule="nonzero" points="34.6623743 26.3837 36.7633497 26.3837 36.7633497 36.8327 34.6623743 36.8327"></polygon>
                                <polygon id="Rectangle-path" fill="#FFF5CC" fill-rule="nonzero" points="10.5011572 26.3837 12.6021326 26.3837 12.6021326 36.8327 10.5011572 36.8327"></polygon>
                                <rect id="Rectangle-path" fill="#FFFFFF" fill-rule="nonzero" x="14.9657048" y="0.7837" width="17.3329968" height="4.1796"></rect>
                                <polygon id="Rectangle-path" fill="#EBE5DD" fill-rule="nonzero" points="30.1977262 0.7837 32.2987016 0.7837 32.2987016 4.9633 30.1977262 4.9633"></polygon>
                                <path d="M28.1493305,36.8327 C28.1493305,44.3348 22.0352086,50.4164 14.4929904,50.4164 C6.95077219,50.4164 0.836650267,44.3347 0.836650267,36.8327 L28.1493305,36.8327 Z" id="Shape" fill="#FFDA44" fill-rule="nonzero"></path>
                                <path d="M25.8874995,36.8327 C24.8769241,43.3425 19.2197326,48.3266 12.392015,48.3266 C9.15610267,48.3266 6.18379251,47.2064 3.84364492,45.3356 C6.34665882,48.4332 10.1866845,50.4164 14.4929904,50.4164 C22.0352086,50.4164 28.1493305,44.3348 28.1493305,36.8327 L25.8874995,36.8327 L25.8874995,36.8327 Z" id="Shape" fill="#EEBF00" fill-rule="nonzero"></path>
                                <path d="M28.9372214,36.8327 L28.9372214,36.049 L0.048859893,36.049 L0.048859893,36.8327 C0.048859893,44.7548 6.52842567,51.2 14.4929904,51.2 C22.4575551,51.2 28.9372214,44.7548 28.9372214,36.8327 Z M24.1280406,45.308 L16.395108,37.6163 L27.3376128,37.6163 C27.1581583,40.5567 25.9759701,43.2319 24.1280406,45.308 Z M13.7050995,49.608 C10.7491765,49.4295 8.05967059,48.2542 5.97256898,46.416 L13.7050995,38.7247 L13.7050995,49.608 Z M15.2808813,38.7246 L23.0134118,46.4159 C20.9262096,48.2541 18.2367037,49.4294 15.2808813,49.6079 L15.2808813,38.7246 L15.2808813,38.7246 Z M12.5908727,37.6163 L4.85794011,45.308 C3.0100107,43.2319 1.82782246,40.5566 1.64836791,37.6163 L12.5908727,37.6163 Z" id="Shape" fill="#000000" fill-rule="nonzero"></path>
                                <path d="M33.0865925,4.7298 L33.0865925,0 L14.1778139,0 L14.1778139,4.7298 L9.71326631,11.5216 L9.71326631,34.7428 L11.2889476,34.7428 L11.2889476,27.1673 L35.9753583,27.1673 L35.9753583,36.0489 L30.1977262,36.0489 L30.1977262,37.6162 L35.9753583,37.6162 L35.9753583,49.6325 L22.2959957,49.6325 L22.2959957,51.2 L37.5511401,51.2 L37.5511401,11.5217 L33.0865925,4.7298 Z M35.3068021,10.9714 L11.9577048,10.9714 L15.3919722,5.7469 L31.8726353,5.7469 L35.3068021,10.9714 Z M15.7535957,1.5673 L31.5109112,1.5673 L31.5109112,4.1795 L15.7535957,4.1795 L15.7535957,1.5673 Z M11.2890481,25.6 L11.2890481,12.5388 L35.9754588,12.5388 L35.9754588,25.6 L11.2890481,25.6 Z" id="Shape" fill="#000000" fill-rule="nonzero"></path>
                            </g>
                        </g>
                    </g>
                </g>
            </g>
        </g>
    </g>
</svg>