<?xml version="1.0" encoding="UTF-8"?>
<svg width="48px" height="52px" viewBox="0 0 48 52" version="1.1" xmlns="http://www.w3.org/2000/svg" xmlns:xlink="http://www.w3.org/1999/xlink">
    <!-- Generator: Sketch 62 (91390) - https://sketch.com -->
    <title>juice-5</title>
    <desc>Created with Sketch.</desc>
    <g id="Page-1" stroke="none" stroke-width="1" fill="none" fill-rule="evenodd">
        <g id="16.3-MAIN-UI---ALL-ITEM-(-ADD)-Copy-2" transform="translate(-1058.000000, -1361.000000)">
            <g id="CREATE-ITEM" transform="translate(327.000000, 413.000000)">
                <g id="NOTIFICATION-BAR" transform="translate(66.000000, 545.000000)">
                    <g id="SET-2" transform="translate(23.000000, 279.000000)">
                        <g id="juice-5" transform="translate(642.000000, 124.000000)">
                            <g>
                                <polyline id="Shape" fill="#57565C" fill-rule="nonzero" points="1.23564854 35.3698 1.23564854 31.1902 3.97556485 31.1902 3.13606695 35.3698"></polyline>
                                <path d="M14.4914812,41.4212 C9.58242678,40.3971 5.51979916,38.2062 3.13606695,35.3698 L1.23564854,35.3698 C0.972953975,36.1798 0.835280335,37.0191 0.835280335,37.8776 C0.835280335,43.4224 6.55822594,48.1261 14.4914812,49.7809 L14.4914812,41.4212 L14.4914812,41.4212 Z" id="Shape" fill="#FFDA44" fill-rule="nonzero"></path>
                                <path d="M14.4914812,44.7653 C7.78805021,43.367 2.66269456,39.7922 1.23484519,35.3722 C0.972953975,36.1814 0.835280335,37.0199 0.835280335,37.8775 C0.835280335,43.4223 6.55822594,48.126 14.4914812,49.7808 L14.4914812,44.7653 L14.4914812,44.7653 Z" id="Shape" fill="#EEBF00" fill-rule="nonzero"></path>
                                <polygon id="Rectangle-path" fill="#FFFFFF" fill-rule="nonzero" points="14.4914812 46.2367 33.9029623 46.2367 33.9029623 50.4163 14.4914812 50.4163"></polygon>
                                <rect id="Rectangle-path" fill="#FFFFFF" fill-rule="nonzero" x="14.4914812" y="8.6204" width="19.4114812" height="41.7959"></rect>
                                <polygon id="Rectangle-path" fill="#FFDA44" fill-rule="nonzero" points="14.4914812 20.1143 33.9029623 20.1143 33.9029623 46.2367 14.4914812 46.2367"></polygon>
                                <rect id="Rectangle-path" fill="#FF505D" fill-rule="nonzero" x="14.4914812" y="33.1755" width="19.4114812" height="13.0612"></rect>
                                <polygon id="Rectangle-path" fill="#EEBF00" fill-rule="nonzero" points="31.8045188 20.1143 33.9030628 20.1143 33.9030628 46.2367 31.8045188 46.2367"></polygon>
                                <polygon id="Rectangle-path" fill="#FFF5CC" fill-rule="nonzero" points="14.4914812 20.1143 16.5900251 20.1143 16.5900251 33.1755 14.4914812 33.1755"></polygon>
                                <polygon id="Rectangle-path" fill="#FF7C80" fill-rule="nonzero" points="14.4914812 33.1755 16.5900251 33.1755 16.5900251 46.2367 14.4914812 46.2367"></polygon>
                                <path d="M45.3563849,40.6406 C44.095431,45.3268 36.0257071,51.0948 33.2385941,50.3511 C30.4513808,49.6074 26.3589289,40.5939 27.6198828,35.9079 C28.8808368,31.2217 33.3648201,30.3723 38.262728,31.6792 C43.1605356,32.9861 46.6173389,35.9544 45.3563849,40.6406 Z" id="Shape" fill="#FF505D" fill-rule="nonzero"></path>
                                <path d="M43.9357657,34.6942 C44.2093054,35.7015 44.209205,36.8301 43.8726025,38.0812 C42.6116485,42.7674 34.5419247,48.5354 31.7548117,47.7917 C31.0218577,47.5961 30.1988285,46.8283 29.4064268,45.7181 C30.5651548,48.1366 32.0255397,50.0275 33.2386946,50.3512 C36.0259079,51.0949 44.0956318,45.3268 45.3564854,40.6407 C46.0152301,38.1921 45.3856067,36.2127 43.9357657,34.6942 Z" id="Shape" fill="#E21220" fill-rule="nonzero"></path>
                                <ellipse id="Oval" fill="#000000" fill-rule="nonzero" transform="translate(36.971030, 36.472004) rotate(-75.000671) translate(-36.971030, -36.472004) " cx="36.97103" cy="36.472004" rx="1.04924062" ry="1"></ellipse>
                                <ellipse id="Oval" fill="#000000" fill-rule="nonzero" transform="translate(33.931017, 35.661641) rotate(-75.000671) translate(-33.931017, -35.661641) " cx="33.9310175" cy="35.6616406" rx="1.04924062" ry="1"></ellipse>
                                <ellipse id="Oval" fill="#000000" fill-rule="nonzero" transform="translate(40.010873, 37.284335) rotate(-75.000671) translate(-40.010873, -37.284335) " cx="40.0108734" cy="37.2843355" rx="1.04924062" ry="1"></ellipse>
                                <ellipse id="Oval" fill="#000000" fill-rule="nonzero" transform="translate(35.342338, 42.528665) rotate(-75.000671) translate(-35.342338, -42.528665) " cx="35.3423384" cy="42.5286646" rx="1.04924062" ry="1"></ellipse>
                                <ellipse id="Oval" fill="#000000" fill-rule="nonzero" transform="translate(32.301533, 41.716174) rotate(-75.000671) translate(-32.301533, -41.716174) " cx="32.3015331" cy="41.7161738" rx="1.04924062" ry="1"></ellipse>
                                <ellipse id="Oval" fill="#000000" fill-rule="nonzero" transform="translate(38.381389, 43.338859) rotate(-75.000671) translate(-38.381389, -43.338859) " cx="38.3813891" cy="43.3388587" rx="1.04924062" ry="1"></ellipse>
                                <ellipse id="Oval" fill="#000000" fill-rule="nonzero" transform="translate(33.006176, 45.149887) rotate(-75.000671) translate(-33.006176, -45.149887) " cx="33.0061758" cy="45.1498868" rx="1.04924062" ry="1"></ellipse>
                                <ellipse id="Oval" fill="#000000" fill-rule="nonzero" transform="translate(36.047001, 45.962080) rotate(-75.000671) translate(-36.047001, -45.962080) " cx="36.0470014" cy="45.9620799" rx="1.04924062" ry="1"></ellipse>
                                <ellipse id="Oval" fill="#000000" fill-rule="nonzero" transform="translate(34.635590, 39.094818) rotate(-75.000671) translate(-34.635590, -39.094818) " cx="34.6355903" cy="39.0948183" rx="1.04924062" ry="1"></ellipse>
                                <ellipse id="Oval" fill="#000000" fill-rule="nonzero" transform="translate(37.676726, 39.905453) rotate(-75.000671) translate(-37.676726, -39.905453) " cx="37.6767261" cy="39.9054534" rx="1.04924062" ry="1"></ellipse>
                                <ellipse id="Oval" fill="#000000" fill-rule="nonzero" transform="translate(40.717541, 40.717954) rotate(-75.000671) translate(-40.717541, -40.717954) " cx="40.7175414" cy="40.7179541" rx="1.04924062" ry="1"></ellipse>
                                <ellipse id="Oval" fill="#000000" fill-rule="nonzero" transform="translate(31.595827, 38.282477) rotate(-75.000671) translate(-31.595827, -38.282477) " cx="31.5958272" cy="38.2824768" rx="1.04924062" ry="1"></ellipse>
                                <path d="M38.2258745,31.8161 C38.2258745,31.8161 34.8598494,32.3033 33.0854561,30.5364 C31.3110628,28.7695 31.8004017,25.4174 31.8004017,25.4174 C31.8004017,25.4174 35.1664268,24.9302 36.9408201,26.6971 C38.7152134,28.4641 38.2258745,31.8161 38.2258745,31.8161 Z" id="Shape" fill="#91DC5A" fill-rule="nonzero"></path>
                                <path d="M38.2258745,31.8161 C38.2258745,31.8161 39.4852218,28.6696 41.9089205,28.0228 C44.3327197,27.376 47.0031464,29.474 47.0031464,29.474 C47.0031464,29.474 45.7437992,32.6205 43.32,33.2673 C40.8963013,33.914 38.2258745,31.8161 38.2258745,31.8161 Z" id="Shape" fill="#91DC5A" fill-rule="nonzero"></path>
                                <path d="M1.62225941,37.8775 C1.62225941,37.2988 1.69225105,36.7211 1.83062762,36.1534 L2.77566527,36.1534 C4.91779079,38.5583 8.23732218,40.5033 12.1715146,41.6513 L12.6140586,40.1472 C8.97820921,39.0863 5.93101255,37.3175 3.98339749,35.1462 L4.93536402,30.4064 L0.448669456,30.4064 L0.448669456,35.2555 C0.183966527,36.1117 0.0483012552,36.993 0.0483012552,37.8775 C0.0483012552,40.5325 1.24438494,43.0905 3.50711297,45.2751 C5.65104603,47.345 8.64723013,48.9822 12.1719163,50.0096 L12.6140586,48.5054 C5.93683682,46.5589 1.62225941,42.3871 1.62225941,37.8775 Z M3.01566527,31.9739 L2.4910795,34.5861 L2.02272803,34.5861 L2.02272803,31.9739 L3.01566527,31.9739 Z" id="Shape" fill="#000000" fill-rule="nonzero"></path>
                                <path d="M33.7088536,31.9328 C34.8913808,32.5329 36.2422092,32.6615 37.1794142,32.6615 C37.5193305,32.6615 37.8041172,32.6447 38.0074644,32.6274 C38.6672134,33.0853 40.4369874,34.174 42.3478494,34.174 C42.736569,34.174 43.1315146,34.1289 43.523749,34.0242 C46.2969038,33.2843 47.6767531,29.9076 47.7341925,29.764 L47.9515983,29.2209 L47.4905774,28.8586 C47.3688703,28.7631 44.4777238,26.5252 41.7051715,27.2658 C40.5376067,27.5773 39.6180753,28.3565 38.9391464,29.1646 C38.7569874,28.1266 38.3517992,26.9941 37.4971381,26.143 C35.4670795,24.1216 31.8408703,24.6197 31.6871297,24.6419 L31.1060084,24.726 L31.0215565,25.3047 C31.0009707,25.4456 30.5756987,28.5256 32.100251,30.59 C31.5248536,30.7233 30.9879163,30.9097 30.4928536,31.1479 L30.4928536,20.898 L33.1159833,20.898 L33.1159833,23.3138 L34.689841,23.3138 L34.689841,7.8367 L30.4927531,7.8367 L30.4927531,1.5673 L36.0014059,1.5673 L36.0014059,0 L28.918795,0 L28.918795,19.3306 L16.5900251,19.3306 L16.5900251,20.8979 L28.9190962,20.8979 L28.9190962,32.2014 C27.9486527,33.081 27.2489372,34.2585 26.8599163,35.7046 C26.2468619,37.9832 26.7417238,41.423 28.1838326,44.9064 C28.2586444,45.0872 28.337272,45.2697 28.4188117,45.4529 L15.2784603,45.4529 L15.2784603,33.9592 L26.9473808,33.9592 L26.9473808,32.3919 L15.2784603,32.3919 L15.2784603,9.4041 L27.6075314,9.4041 L27.6075314,7.8367 L13.7046025,7.8367 L13.7046025,43.7841 C8.97479498,42.6221 5.15769038,40.3357 3.14148954,37.4317 L1.8468954,38.3231 C4.13322176,41.6163 8.43263598,44.1731 13.7046025,45.3949 L13.7046025,51.2 L33.9031632,51.2 L33.9031632,51.1953 C35.7930377,51.1318 38.37841,49.6646 40.3501255,48.1529 C43.3479163,45.8542 45.5035983,43.1217 46.1167531,40.8432 C46.7401506,38.526 46.3342594,36.385 44.9428619,34.6517 L43.7134393,35.6302 C44.7951464,36.9778 45.0921841,38.5951 44.5965188,40.4375 C44.0776569,42.3659 42.0825439,44.8463 39.3899247,46.911 C37.0265774,48.7232 34.9518326,49.5972 33.8597824,49.6327 L33.7241172,49.6327 C33.6189791,49.6288 33.5246862,49.6162 33.4423431,49.5942 C32.5397824,49.3533 30.9435314,47.4606 29.638795,44.3091 C28.3435983,41.1804 27.8611883,38.0388 28.3800502,36.1104 C29.0742427,33.5305 30.8669121,32.1263 33.7088536,31.9328 Z M30.492954,9.4041 L33.1160837,9.4041 L33.1160837,19.3306 L30.492954,19.3306 L30.492954,9.4041 Z M42.1126695,28.7797 C43.5595983,28.394 45.1983264,29.2365 46.0077992,29.7431 C45.5032971,30.6923 44.4762176,32.1475 43.1163515,32.5103 C41.6693222,32.8963 40.0311967,32.0537 39.2213222,31.5468 C39.7257238,30.5977 40.7528033,29.1426 42.1126695,28.7797 Z M32.5319498,26.146 C33.4899414,26.1109 35.3266946,26.1981 36.3842008,27.2514 C37.4419079,28.3046 37.5295732,30.1343 37.4942259,31.0875 C36.5375397,31.1217 34.6995816,31.0354 33.6419749,29.9822 C32.5841674,28.9287 32.4967029,27.0986 32.5319498,26.146 Z M15.2784603,49.6327 L15.2784603,47.0205 L29.1909289,47.0205 C29.7186276,47.9899 30.3210377,48.9075 30.9642176,49.6327 L15.2784603,49.6327 Z" id="Shape" fill="#000000" fill-rule="nonzero"></path>
                            </g>
                        </g>
                    </g>
                </g>
            </g>
        </g>
    </g>
</svg>