<?xml version="1.0" encoding="UTF-8"?>
<svg width="23px" height="52px" viewBox="0 0 23 52" version="1.1" xmlns="http://www.w3.org/2000/svg" xmlns:xlink="http://www.w3.org/1999/xlink">
    <!-- Generator: Sketch 62 (91390) - https://sketch.com -->
    <title>ketchup</title>
    <desc>Created with Sketch.</desc>
    <g id="Page-1" stroke="none" stroke-width="1" fill="none" fill-rule="evenodd">
        <g id="16.3-MAIN-UI---ALL-ITEM-(-ADD)-Copy-2" transform="translate(-441.000000, -1484.000000)">
            <g id="CREATE-ITEM" transform="translate(327.000000, 413.000000)">
                <g id="NOTIFICATION-BAR" transform="translate(66.000000, 545.000000)">
                    <g id="SET-3" transform="translate(23.000000, 485.000000)">
                        <g id="ketchup" transform="translate(25.000000, 41.000000)">
                            <g>
                                <polygon id="Shape" fill="#FF505D" fill-rule="nonzero" points="12.4541469 0.7837 10.3458531 0.7837 8.76468319 11.2327 14.0353168 11.2327"></polygon>
                                <polygon id="Rectangle-path" fill="#FF505D" fill-rule="nonzero" points="3.49394867 11.2327 19.3061522 11.2327 19.3061522 13.8449 3.49394867 13.8449"></polygon>
                                <path d="M19.8331752,50.4163 L2.96682478,50.4163 C1.80241062,50.4163 0.858530973,49.4807 0.858530973,48.3265 L0.858530973,19.0694 L21.941469,19.0694 L21.941469,48.3265 C21.941469,49.4807 20.9975894,50.4163 19.8331752,50.4163 Z" id="Shape" fill="#FF505D" fill-rule="nonzero"></path>
                                <path d="M0.858530973,19.0694 L0.858530973,21.1592 L17.7248814,21.1592 C18.8892956,21.1592 19.8331752,22.0948 19.8331752,23.249 L19.8331752,50.4163 C20.9975894,50.4163 21.941469,49.4807 21.941469,48.3265 L21.941469,19.0694 L0.858530973,19.0694 Z" id="Shape" fill="#E21220" fill-rule="nonzero"></path>
                                <rect id="Rectangle-path" fill="#FFDA44" fill-rule="nonzero" x="0.858530973" y="13.8449" width="21.0829381" height="5.2245"></rect>
                                <path d="M19.8331752,13.8449 L19.8331752,14.8898 C19.8331752,16.044 18.8892956,16.9796 17.7248814,16.9796 L0.858530973,16.9796 L0.858530973,19.0694 L21.941469,19.0694 L21.941469,13.8449 L19.8331752,13.8449 Z" id="Shape" fill="#EEBF00" fill-rule="nonzero"></path>
                                <path d="M3.23033628,39.9673 L3.23033628,45.1918 C3.23033628,46.7762 4.53084425,48.0653 6.12926549,48.0653 L11.4,48.0653 L11.4,46.498 L6.12926549,46.498 C5.40269204,46.498 4.81160708,45.9121 4.81160708,45.1919 L4.81160708,39.9674 L3.23033628,39.9674 L3.23033628,39.9673 Z" id="Shape" fill="#000000" fill-rule="nonzero"></path>
                                <path d="M20.0966867,13.0612 L20.0966867,10.449 L14.7161894,10.449 L13.1350195,0 L9.66498053,0 L8.08381062,10.449 L2.70331327,10.449 L2.70331327,13.0612 L0.0679964602,13.0612 L0.0679964602,19.853 L21.1509345,19.853 L21.1509345,48.3265 C21.1509345,49.0467 20.5598496,49.6326 19.8332761,49.6326 L2.96682478,49.6326 C2.24025133,49.6326 1.64916637,49.0467 1.64916637,48.3265 L1.64916637,21.1592 L0.0679964602,21.1592 L0.0679964602,48.3265 C0.0679964602,49.9109 1.36850442,51.2 2.96692566,51.2 L19.8332761,51.2 C21.4316973,51.2 22.7322053,49.9109 22.7322053,48.3265 L22.7322053,19.8531 L22.7322053,19.0694 L22.7322053,13.0612 L20.0966867,13.0612 L20.0966867,13.0612 Z M5.33863009,14.6286 L5.33863009,18.2857 L4.28448319,18.2857 L4.28448319,14.6286 L5.33863009,14.6286 Z M6.91990088,14.6286 L7.97404779,14.6286 L7.97404779,18.2857 L6.91990088,18.2857 L6.91990088,14.6286 Z M9.5552177,14.6286 L10.6093646,14.6286 L10.6093646,18.2857 L9.5552177,18.2857 L9.5552177,14.6286 Z M12.1906354,14.6286 L13.2447823,14.6286 L13.2447823,18.2857 L12.1906354,18.2857 L12.1906354,14.6286 Z M14.8259522,14.6286 L15.8800991,14.6286 L15.8800991,18.2857 L14.8259522,18.2857 L14.8259522,14.6286 Z M17.4613699,14.6286 L18.5155168,14.6286 L18.5155168,18.2857 L17.4613699,18.2857 L17.4613699,14.6286 Z M20.0966867,14.6286 L21.1508336,14.6286 L21.1508336,18.2857 L20.0966867,18.2857 L20.0966867,14.6286 Z M11.0267257,1.5673 L11.7732743,1.5673 L13.1172637,10.4489 L9.6826354,10.4489 L11.0267257,1.5673 Z M4.28448319,12.0163 L18.5154159,12.0163 L18.5154159,13.0612 L4.28448319,13.0612 L4.28448319,12.0163 Z M1.64916637,14.6286 L2.70331327,14.6286 L2.70331327,18.2857 L1.64916637,18.2857 L1.64916637,14.6286 Z" id="Shape" fill="#000000" fill-rule="nonzero"></path>
                            </g>
                        </g>
                    </g>
                </g>
            </g>
        </g>
    </g>
</svg>