<?xml version="1.0" encoding="UTF-8"?>
<svg width="40px" height="42px" viewBox="0 0 40 42" version="1.1" xmlns="http://www.w3.org/2000/svg" xmlns:xlink="http://www.w3.org/1999/xlink">
    <!-- Generator: Sketch 62 (91390) - https://sketch.com -->
    <title>lemonade-4</title>
    <desc>Created with Sketch.</desc>
    <g id="Page-1" stroke="none" stroke-width="1" fill="none" fill-rule="evenodd">
        <g id="16.3-MAIN-UI---ALL-ITEM-(-ADD)-Copy-2" transform="translate(-678.000000, -1565.000000)">
            <g id="CREATE-ITEM" transform="translate(327.000000, 413.000000)">
                <g id="NOTIFICATION-BAR" transform="translate(66.000000, 545.000000)">
                    <g id="SET-3" transform="translate(23.000000, 485.000000)">
                        <g id="lemonade-4" transform="translate(262.000000, 122.000000)">
                            <g>
                                <ellipse id="Oval" fill="#FFFFFF" fill-rule="nonzero" cx="16.5975904" cy="7.35179487" rx="10.8761446" ry="2.92951291"></ellipse>
                                <ellipse id="Oval" fill="#3FC378" fill-rule="nonzero" cx="5.72168675" cy="5.68571048" rx="5.03566265" ry="5.0538753"></ellipse>
                                <ellipse id="Oval" fill="#C9EEAE" fill-rule="nonzero" cx="5.72168675" cy="5.68571048" rx="3.25381526" ry="3.26558345"></ellipse>
                                <path d="M32.439759,37.7120475 C32.439759,39.3300873 26.4363855,40.641641 19.0306827,40.641641 C11.6257831,40.641641 5.62240964,39.3301679 5.62240964,37.7120475 C5.62240964,37.6412704 5.63413655,37.5713799 5.65678715,37.5014895 L8.51951807,20.000832 L8.51951807,19.9991392 C8.51951807,19.9679424 8.52200803,19.9369069 8.52706827,19.9065162 C8.52955823,19.8921673 8.53293173,19.8778991 8.53630522,19.862744 C8.54048193,19.8483951 8.54465863,19.8332401 8.54971888,19.8181657 C8.54971888,19.8171984 8.54971888,19.8156668 8.55052209,19.81478 C8.96345382,18.576583 13.4971888,17.6019059 19.0305221,17.6019059 C24.5697189,17.6019059 29.1093976,18.579082 29.5130924,19.8188912 C29.5138956,19.8205841 29.5147791,19.823083 29.5147791,19.8247759 C29.5189558,19.8373513 29.5223293,19.8508941 29.5257028,19.8635502 C29.5298795,19.8787052 29.5324498,19.8937796 29.5349398,19.9090152 C29.54,19.9385191 29.54249,19.9688291 29.54249,19.9990586 L29.54249,19.9999453 L31.3838554,31.2565751 L32.4052209,37.5014895 C32.4280321,37.5713799 32.439759,37.6412704 32.439759,37.7120475 Z" id="Shape" fill="#FFDA44" fill-rule="nonzero"></path>
                                <path d="M32.4053815,37.5014089 L31.3840161,31.2564945 L29.5426506,19.9998647 L29.5426506,19.998978 C29.5426506,19.9687485 29.5401606,19.9383579 29.5351004,19.9089346 C29.5326104,19.893699 29.5300402,19.8786246 29.5258635,19.8634695 C29.52249,19.8508135 29.5191165,19.8372707 29.5149398,19.8246953 C29.5149398,19.8229218 29.5141365,19.8204229 29.513253,19.8188106 C29.3436145,19.2978973 28.4437751,18.8234163 27.046506,18.4481684 L28.8661044,29.5718694 L29.8874699,35.8167838 C29.9101205,35.8866742 29.9218474,35.9566453 29.9218474,36.0273418 C29.9218474,37.6453816 23.9184739,38.9569353 16.5127711,38.9569353 C12.0281124,38.9569353 8.05799197,38.4758442 5.6237751,37.7369565 C5.68522088,39.3434688 11.6637751,40.6415604 19.0306024,40.6415604 C26.4363855,40.6415604 32.4396787,39.3300873 32.4396787,37.7119669 C32.439759,37.6412704 32.4280321,37.5713799 32.4053815,37.5014089 Z" id="Shape" fill="#EEBF00" fill-rule="nonzero"></path>
                                <ellipse id="Oval" fill="#EEBF00" fill-rule="nonzero" cx="19.0306827" cy="37.7120475" rx="13.4082731" ry="2.9294323"></ellipse>
                                <ellipse id="Oval" fill="#FFF5CC" fill-rule="nonzero" cx="19.0306827" cy="19.9990586" rx="10.5110843" ry="2.39691084"></ellipse>
                                <polygon id="Shape" fill="#FFFFFF" fill-rule="nonzero" points="39.2085141 31.2565751 37.222008 31.2565751 34.2425703 12.081369 36.2290763 12.081369"></polygon>
                                <path d="M5.72144578,10.1078312 C3.29180723,10.1078312 1.31526104,8.12405578 1.31526104,5.68571048 C1.31526104,3.24736518 3.29180723,1.26358974 5.72144578,1.26358974 C8.15108434,1.26358974 10.1276305,3.24736518 10.1276305,5.68571048 C10.1276305,6.40178498 9.95389558,7.11149114 9.62514056,7.73816716 L10.7391165,8.3266332 C11.1626506,7.51922555 11.3864257,6.60597463 11.3864257,5.68562987 C11.386506,2.55055691 8.84514056,0 5.72136546,0 C2.59759036,0 0.0563052209,2.55063752 0.0563052209,5.68571048 C0.0563052209,8.82078345 2.59767068,11.3713404 5.72144578,11.3713404 L5.72144578,10.1078312 Z" id="Shape" fill="#000000" fill-rule="nonzero"></path>
                                <path d="M32.124739,31.8881684 L39.9437751,31.8881684 L36.7677912,11.4498562 L28.7815261,11.4498562 L28.1011245,7.29012686 C28.0567871,6.19219433 26.8300402,5.31078507 24.4514056,4.67008259 C22.3454618,4.10289807 19.5563052,3.79044678 16.5976707,3.79044678 C15.106747,3.79044678 13.6560643,3.86944633 12.2859438,4.02526892 L12.4277108,5.28063626 C13.7509237,5.13021466 15.1538956,5.0538753 16.5976707,5.0538753 C19.4493976,5.0538753 22.1226506,5.35084912 24.1251406,5.89030319 C26.3559036,6.49118345 26.8444177,7.14897562 26.8444177,7.35179487 C26.8444177,7.55453351 26.3559036,8.2124063 24.1251406,8.81320594 C22.1226506,9.35249879 19.4493976,9.64963383 16.5976707,9.64963383 C13.3570281,9.64963383 10.2812048,9.24407593 8.31333333,8.5851552 C9.10562249,7.871096 9.60506024,6.83604067 9.60506024,5.68579109 C9.60506024,3.53684211 7.86305221,1.78845308 5.72184739,1.78845308 C3.58064257,1.78845308 1.8384739,3.53668088 1.8384739,5.68571048 C1.8384739,7.83474008 3.58048193,9.58304849 5.72168675,9.58304849 C5.80369478,9.58304849 5.88481928,9.57958219 5.96554217,9.57450364 L8.56650602,15.8143395 L7.93718876,19.6614564 C7.91188755,19.7505324 7.89710843,19.841785 7.89236948,19.935214 L5.04361446,37.3497781 C5.01036145,37.4674713 4.99277108,37.5880666 4.99277108,37.7121281 C4.99277108,38.8711644 6.43951807,39.750639 9.41558233,40.4008536 C11.9909237,40.9634433 15.4056225,41.273315 19.0308434,41.273315 C22.6560643,41.273315 26.0707631,40.9634433 28.6460241,40.4008536 C31.6221687,39.7505583 33.0688353,38.8711644 33.0688353,37.7121281 C33.0688353,37.5880666 33.051245,37.4674713 33.017992,37.3496975 L32.124739,31.8881684 Z M31.5096386,35.9270607 C30.8010442,35.5861535 29.8485141,35.2860358 28.6461044,35.023322 C26.0708434,34.4606517 22.6562249,34.1508606 19.0309237,34.1508606 C15.4056225,34.1508606 11.991004,34.4607323 9.41574297,35.023322 C8.21333333,35.2860358 7.26080321,35.5862341 6.55220884,35.9270607 L8.92554217,21.4190352 C9.51429719,21.762522 10.3560643,22.0581254 11.4588755,22.3095536 C13.4886747,22.7723458 16.177751,23.0272403 19.031004,23.0272403 C21.884257,23.0272403 24.5733333,22.7723458 26.6030522,22.3095536 C27.7059438,22.0581254 28.5477912,21.7624414 29.1364659,21.4189546 L30.6423293,30.6247399 L29.4491566,30.6247399 L29.4491566,31.8881684 L30.8490763,31.8881684 L31.5096386,35.9270607 Z M9.15943775,19.9889821 C9.26345382,19.8088954 9.93253012,19.3022503 11.991245,18.8640446 C13.9016867,18.4574388 16.4016867,18.2335798 19.0309237,18.2335798 C21.66,18.2335798 24.1601606,18.4574388 26.0706024,18.8640446 C28.1309237,19.3025727 28.7994378,19.8097015 28.9026506,19.9893045 L28.9049799,20.0038953 C28.8097992,20.1797902 28.1469076,20.6914332 26.0705221,21.1332664 C24.1600803,21.5398722 21.6600803,21.7637312 19.0309237,21.7637312 C16.4017671,21.7637312 13.9017671,21.5398722 11.9913253,21.1332664 C9.91574297,20.691675 9.25253012,20.1802739 9.15694779,20.0041371 L9.15943775,19.9889821 Z M38.4733333,30.6247399 L37.7610442,30.6247399 L34.9776707,12.7133654 L35.6899598,12.7133654 L38.4733333,30.6247399 Z M33.7034538,12.7133654 L36.4868273,30.6247399 L31.9180723,30.6247399 L30.1692369,19.933763 C30.164498,19.8413819 30.1497992,19.7512579 30.1249799,19.6631493 L28.9881928,12.7132041 L33.7033735,12.7132041 L33.7033735,12.7133654 L33.7034538,12.7133654 Z M3.0973494,5.68571048 C3.0973494,5.43202519 3.13405622,5.18688475 3.20096386,4.95456158 L4.46273092,5.68571048 L3.20096386,6.41685938 C3.13405622,6.18453621 3.0973494,5.93939577 3.0973494,5.68571048 Z M8.3460241,5.68571048 C8.3460241,5.93939577 8.30931727,6.18453621 8.24240964,6.41685938 L6.98064257,5.68571048 L8.24240964,4.95456158 C8.30939759,5.18688475 8.3460241,5.43194458 8.3460241,5.68571048 Z M7.61164659,7.51019703 C7.2735743,7.86279298 6.83927711,8.12139559 6.35116466,8.24239388 L6.35116466,6.77985425 L7.61164659,7.51019703 Z M7.61164659,3.86114332 L6.35116466,4.5914861 L6.35116466,3.12894647 C6.83927711,3.24994476 7.2735743,3.50854737 7.61164659,3.86114332 Z M5.09220884,3.12894647 L5.09220884,4.59156671 L3.83172691,3.86122393 C4.1697992,3.50854737 4.60417671,3.24994476 5.09220884,3.12894647 Z M3.83172691,7.51019703 L5.09220884,6.77985425 L5.09220884,8.24247449 C4.60417671,8.12139559 4.1697992,7.86279298 3.83172691,7.51019703 Z M7.32746988,9.5680547 C9.41678715,10.4052887 12.8643373,10.9130623 16.59751,10.9130623 C19.5562249,10.9130623 22.3453815,10.6007723 24.451245,10.0335072 C25.6040964,9.72290994 26.4858635,9.35596509 27.0942972,8.93517157 L27.5056225,11.4498562 L26.3123695,11.4498562 L26.3123695,12.7132848 L27.7123695,12.7132848 L28.6297992,18.3216885 C28.095502,18.0850929 27.4209639,17.8742931 26.6029719,17.6878381 C24.573253,17.2249652 21.8841767,16.9700707 19.0309237,16.9700707 C16.1776707,16.9700707 13.4885141,17.2249652 11.4587952,17.6878381 C10.6408032,17.8742931 9.9664257,18.0850929 9.43212851,18.3216079 L9.86738956,15.6611771 L7.32746988,9.5680547 Z M28.3783936,39.1662841 C25.8885141,39.7102525 22.5688353,40.0098865 19.0309237,40.0098865 C15.493012,40.0098865 12.1733333,39.7102525 9.68345382,39.1662841 C6.99301205,38.578463 6.31349398,37.9167208 6.25630522,37.7354249 L6.26875502,37.659408 C6.38361446,37.4437715 7.12329317,36.8171761 9.68345382,36.2578109 C12.1733333,35.7138426 15.493012,35.4142085 19.0309237,35.4142085 C22.5688353,35.4142085 25.8885141,35.7138426 28.3782329,36.2578109 C30.9381526,36.8171761 31.6779116,37.4436909 31.7929317,37.6593274 L31.8053815,37.7354249 C31.7481124,37.9167208 31.0685944,38.5785436 28.3783936,39.1662841 Z" id="Shape" fill="#000000" fill-rule="nonzero"></path>
                            </g>
                        </g>
                    </g>
                </g>
            </g>
        </g>
    </g>
</svg>