<?xml version="1.0" encoding="UTF-8"?>
<svg width="40px" height="52px" viewBox="0 0 40 52" version="1.1" xmlns="http://www.w3.org/2000/svg" xmlns:xlink="http://www.w3.org/1999/xlink">
    <!-- Generator: Sketch 62 (91390) - https://sketch.com -->
    <title>lemonade-2</title>
    <desc>Created with Sketch.</desc>
    <g id="Page-1" stroke="none" stroke-width="1" fill="none" fill-rule="evenodd">
        <g id="16.3-MAIN-UI---ALL-ITEM-(-ADD)-Copy-2" transform="translate(-985.000000, -1484.000000)">
            <g id="CREATE-ITEM" transform="translate(327.000000, 413.000000)">
                <g id="NOTIFICATION-BAR" transform="translate(66.000000, 545.000000)">
                    <g id="SET-3" transform="translate(23.000000, 485.000000)">
                        <g id="lemonade-2" transform="translate(569.000000, 41.000000)">
                            <g>
                                <polygon id="Rectangle-path" fill="#FFFFFF" fill-rule="nonzero" points="18.5623 8.6204 37.8929 8.6204 37.8929 50.4163 18.5623 50.4163"></polygon>
                                <polygon id="Rectangle-path" fill="#FFFFFF" fill-rule="nonzero" points="18.5623 46.2367 37.8929 46.2367 37.8929 50.4163 18.5623 50.4163"></polygon>
                                <polygon id="Rectangle-path" fill="#EBE5DD" fill-rule="nonzero" points="35.8031 46.2367 37.8929 46.2367 37.8929 50.4163 35.8031 50.4163"></polygon>
                                <polygon id="Rectangle-path" fill="#FFDA44" fill-rule="nonzero" points="18.5623 20.1143 37.8929 20.1143 37.8929 46.2367 18.5623 46.2367"></polygon>
                                <polygon id="Rectangle-path" fill="#EEBF00" fill-rule="nonzero" points="35.8031 20.1143 37.8929 20.1143 37.8929 46.2367 35.8031 46.2367"></polygon>
                                <polygon id="Rectangle-path" fill="#FFF5CC" fill-rule="nonzero" points="18.5623 20.1143 20.6521 20.1143 20.6521 46.2367 18.5623 46.2367"></polygon>
                                <path d="M5.5058,30.4224 C0.7674,35.1608 -0.4996,41.7819 2.1897,46.1692 C1.5742,47.0987 1.5806,48.2518 2.272,48.9432 C2.9634,49.6346 4.1165,49.6411 5.046,49.0255 C9.4334,51.7149 16.0544,50.4478 20.7928,45.7094" id="Shape" fill="#FFDA44" fill-rule="nonzero"></path>
                                <path d="M19.561,44.4775 C14.9575,48.2804 9.0649,49.1371 5.0461,46.6738 C4.1166,47.2895 2.9635,47.283 2.2721,46.5915 C2.1989,46.5183 2.1339,46.4396 2.0759,46.3568 C1.5783,47.2497 1.6265,48.2977 2.2721,48.9433 C2.9635,49.6347 4.1166,49.6412 5.0461,49.0256 C9.4335,51.715 16.0545,50.4479 20.7929,45.7095 L19.561,44.4775 Z" id="Shape" fill="#EEBF00" fill-rule="nonzero"></path>
                                <ellipse id="Oval" fill="#FFF5CC" fill-rule="nonzero" transform="translate(13.149922, 38.065338) rotate(-45.000000) translate(-13.149922, -38.065338) " cx="13.1499222" cy="38.0653379" rx="5.40474817" ry="10.8092963"></ellipse>
                                <polygon id="Shape" fill="#000000" fill-rule="nonzero" points="19.3456 9.4041 31.6232 9.4041 31.6232 7.8367 17.7783 7.8367 17.7783 32.8808 19.3456 32.8808"></polygon>
                                <path d="M39.9827,1.5673 L39.9827,0 L32.9296,0 L32.9296,19.3306 L20.6521,19.3306 L20.6521,20.8979 L32.9297,20.8979 L32.9297,39.9673 L34.497,39.9673 L34.497,20.898 L37.1089,20.898 L37.1089,45.4531 L23.0143,45.4531 L23.0143,47.0204 L37.1089,47.0204 L37.1089,49.6326 L19.3456,49.6326 L19.3456,47.9912 C20.0416,47.4743 20.7122,46.8984 21.347,46.2636 C23.8007,43.8099 22.122,38.2868 17.5253,33.69 C12.9285,29.0933 7.4054,27.4143 4.9517,29.8683 C0.1767,34.6432 -1.3196,41.4179 1.2871,46.1747 C0.7245,47.3454 0.878,48.6576 1.7178,49.4975 C2.5577,50.3372 3.8699,50.4907 5.0406,49.9282 C6.6032,50.7845 8.3836,51.1982 10.2394,51.1981 C12.7315,51.1981 15.3595,50.4521 17.7783,49.0312 L17.7783,51.2 L38.6763,51.2 L38.6763,7.8367 L34.497,7.8367 L34.497,1.5673 L39.9827,1.5673 Z M5.6211,31.6459 L11.2575,37.2823 L6.7617,37.2823 C6.3524,36.5528 6.022,35.8249 5.7857,35.1158 C5.3155,33.7053 5.2655,32.4917 5.6211,31.6459 Z M12.3657,38.8496 L12.3657,43.4513 C11.5145,42.8398 10.6772,42.1291 9.8818,41.3335 C9.0863,40.5379 8.3756,39.7006 7.764,38.8495 L12.3657,38.8495 L12.3657,38.8496 Z M13.933,39.9579 L19.5695,45.5944 C18.7237,45.95 17.51,45.8999 16.0996,45.4297 C15.3904,45.1933 14.6627,44.8629 13.9331,44.4537 L13.9331,39.9579 L13.933,39.9579 L13.933,39.9579 Z M20.6778,44.486 L15.0414,38.8496 L19.5372,38.8496 C19.9465,39.5791 20.2769,40.307 20.5132,41.0161 C20.9833,42.4266 21.0332,43.6402 20.6778,44.486 Z M18.5348,37.2823 L13.933,37.2823 L13.933,32.6806 C14.7842,33.2921 15.6215,34.0028 16.4169,34.7984 C17.2126,35.5939 17.9233,36.4312 18.5348,37.2823 Z M10.1992,30.7022 C10.9084,30.9386 11.6361,31.269 12.3657,31.6782 L12.3657,36.1739 L6.7299,30.5381 C7.097,30.3838 7.5315,30.3039 8.0236,30.3039 C8.6652,30.3041 9.401,30.4362 10.1992,30.7022 Z M5.4556,48.3575 L5.0298,48.0965 L4.6134,48.3724 C3.9845,48.7888 3.2328,48.7959 2.8262,48.3893 C2.4195,47.9826 2.4266,47.231 2.8431,46.6021 L3.119,46.1857 L2.858,45.7599 C0.7974,42.3983 1.2822,37.6939 3.8681,33.6873 C4.1563,36.313 5.8911,39.5595 8.7736,42.4421 C11.6564,45.3248 14.9029,47.0593 17.5287,47.3473 C13.5218,49.9332 8.8173,50.4182 5.4556,48.3575 Z M37.1089,9.4041 L37.1089,19.3306 L34.497,19.3306 L34.497,9.4041 L37.1089,9.4041 Z" id="Shape" fill="#000000" fill-rule="nonzero"></path>
                            </g>
                        </g>
                    </g>
                </g>
            </g>
        </g>
    </g>
</svg>