<?xml version="1.0" encoding="UTF-8"?>
<svg width="39px" height="52px" viewBox="0 0 39 52" version="1.1" xmlns="http://www.w3.org/2000/svg" xmlns:xlink="http://www.w3.org/1999/xlink">
    <!-- Generator: Sketch 62 (91390) - https://sketch.com -->
    <title>margarita</title>
    <desc>Created with Sketch.</desc>
    <g id="Page-1" stroke="none" stroke-width="1" fill="none" fill-rule="evenodd">
        <g id="16.3-MAIN-UI---ALL-ITEM-(-ADD)-Copy-2" transform="translate(-598.000000, -1555.000000)">
            <g id="CREATE-ITEM" transform="translate(327.000000, 413.000000)">
                <g id="NOTIFICATION-BAR" transform="translate(66.000000, 545.000000)">
                    <g id="SET-3" transform="translate(23.000000, 485.000000)">
                        <g id="margarita" transform="translate(182.000000, 112.000000)">
                            <g>
                                <polygon id="Shape" fill="#FFFFFF" fill-rule="nonzero" points="28.1159 50.3180226 4.0834 50.3180226 0.9487 13.29663 31.2506 13.29663"></polygon>
                                <polygon id="Shape" fill="#FFDA44" fill-rule="nonzero" points="30.7208 19.553809 28.1159 50.3180226 4.0834 50.3180226 1.4784 19.553809"></polygon>
                                <polygon id="Shape" fill="#91DC5A" fill-rule="nonzero" points="29.4179 34.9358659 28.1159 50.3180226 4.0834 50.3180226 2.7814 34.9358659"></polygon>
                                <polygon id="Shape" fill="#FFF5CC" fill-rule="nonzero" points="4.8712 34.9358659 2.7814 34.9358659 1.4784 19.553809 3.5682 19.553809"></polygon>
                                <polygon id="Shape" fill="#C9EEAE" fill-rule="nonzero" points="4.8712 34.9358659 5.82 46.1466698 3.7302 46.1466698 2.7814 34.9358659"></polygon>
                                <polygon id="Shape" fill="#6DC82A" fill-rule="nonzero" points="29.4179 34.9358659 28.4691 46.1466698 26.3793 46.1466698 27.3281 34.9358659"></polygon>
                                <polygon id="Shape" fill="#EEBF00" fill-rule="nonzero" points="30.7208 19.553809 29.4179 34.9358659 27.3281 34.9358659 28.6311 19.553809"></polygon>
                                <polygon id="Shape" fill="#FFFFFF" fill-rule="nonzero" points="28.4691 46.1466698 28.1159 50.3180226 4.0834 50.3180226 3.7302 46.1466698"></polygon>
                                <polygon id="Shape" fill="#EBE5DD" fill-rule="nonzero" points="28.4691 46.1466698 28.1159 50.3180226 26.0261 50.3180226 26.3793 46.1466698"></polygon>
                                <path d="M33.8474,22.1452476 L31.7576,20.0595212 L28.8288,17.1364304 L26.459,14.7712499 C27.2751,13.9567407 27.2751,12.6365193 26.459,11.8220101 C25.6429,11.007501 24.3201,11.007501 23.504,11.8220101 L18.2053,6.53363899 L16.1155,4.44791267 C21.0119,-0.439940741 28.951,-0.439940741 33.8473,4.44791267 C38.7437,9.33486784 38.7437,17.258492 33.8474,22.1452476 Z" id="Shape" fill="#3FC378" fill-rule="nonzero"></path>
                                <path d="M31.7576,20.0595212 L28.8288,17.1364304 L26.459,14.7712499 C27.2751,13.9567407 27.2751,12.6365193 26.459,11.8220101 C25.6429,11.007501 24.3201,11.007501 23.504,11.8220101 L18.2053,6.53363899 C21.9471,2.79813489 28.0148,2.79813489 31.7576,6.53363899 C35.5004,10.268145 35.5004,16.325115 31.7576,20.0595212 Z" id="Shape" fill="#C9EEAE" fill-rule="nonzero"></path>
                                <path d="M33.8475,4.44771306 C33.4939,4.09480234 33.124,3.76833996 32.741,3.46642963 C36.628,8.37813645 36.3008,15.5256764 31.7578,20.0599205 L33.8476,22.1456468 C38.7442,17.258492 38.7442,9.33486784 33.8475,4.44771306 Z" id="Shape" fill="#2B8C4A" fill-rule="nonzero"></path>
                                <polygon id="Rectangle-path" fill="#C9EEAE" fill-rule="nonzero" points="13.5523 33.8031782 22.9563 33.8031782 22.9563 43.1888468 13.5523 43.1888468"></polygon>
                                <rect id="Rectangle-path" fill="#FFF5CC" fill-rule="nonzero" transform="translate(11.985954, 28.066109) rotate(-14.999329) translate(-11.985954, -28.066109) " x="7.28419408" y="23.3735146" width="9.40351906" height="9.38518861"></rect>
                                <path d="M34.4015,3.8950924 C31.8854,1.38339805 28.5399,0 24.9814,0 C21.4229,0 18.0775,1.38339805 15.5614,3.8950924 L15.0074,4.44821209 L23.5036,12.9279501 L24.0578,12.3749302 C24.3044,12.1287111 24.6325,11.9931758 24.9814,11.9931758 C25.3302,11.9931758 25.6583,12.1287111 25.905,12.3749302 C26.1516,12.6210495 26.2875,12.9484101 26.2875,13.29663 C26.2875,13.6448499 26.1516,13.9723103 25.9049,14.2184296 L25.3508,14.7715493 L28.2747,17.6895501 L29.3828,16.5834105 L27.4911,14.6955977 C27.6005,14.5007782 27.6851,14.2937825 27.7458,14.0788023 L33.745,14.0788023 C33.5791,15.967214 32.8143,17.7308694 31.5416,19.1482012 L31.8549,15.4482277 L30.2931,15.3163852 L28.6982,34.1536936 L25.0461,34.1536936 L25.0461,35.7179384 L28.5657,35.7179384 L27.7489,45.3643977 L4.4504,45.3643977 L3.6336,35.7179384 L12.7691,35.7179384 L12.7691,43.9706199 L23.7405,43.9706199 L23.7405,33.0208062 L14.6576,33.0208062 L18.7041,31.9387197 L15.8645,21.3617778 L5.2669,24.1958425 L7.9404,34.1538932 L3.5012,34.1538932 L2.3312,20.3360811 L28.6311,20.3360811 L28.6311,18.7718363 L2.1988,18.7718363 L1.8014,14.0790019 L21.8466,14.0790019 L21.8466,12.5145575 L0.0961,12.5145575 L3.3633,51.1002947 L28.8362,51.1002947 L31.401,20.8098558 L33.8472,23.2513871 L34.4014,22.6983673 C36.918,20.1871719 38.3041,16.8482932 38.3041,13.2967298 C38.3041,9.74516647 36.918,6.40618791 34.4015,3.8950924 Z M22.1732,42.406375 L14.3365,42.406375 L14.3365,34.5849513 L22.1732,34.5849513 L22.1732,42.406375 Z M14.756,23.2775361 L16.7843,30.8323805 L9.2147,32.8566269 L7.1864,25.3018823 L14.756,23.2775361 Z M12.7691,33.5256203 L12.7691,34.1536936 L10.4204,34.1536936 L12.7691,33.5256203 Z M4.8036,49.5359501 L4.5828,46.9288421 L27.6164,46.9288421 L27.3956,49.5359501 L4.8036,49.5359501 Z M23.5805,10.7923212 L19.3377,6.55779181 C20.7186,5.40145029 22.4021,4.70560936 24.1978,4.54841637 L24.1978,10.539016 C23.9849,10.598899 23.7774,10.6827353 23.5805,10.7923212 Z M27.4907,11.8984608 L31.7322,7.66522885 C32.8905,9.04323743 33.5875,10.7224577 33.745,12.5145575 L27.7463,12.5145575 C27.6856,12.2996772 27.6,12.0931805 27.4907,11.8984608 Z M26.3807,10.7939181 C26.1841,10.6845318 25.9776,10.5992982 25.7652,10.5396148 L25.7652,4.55011306 C27.5604,4.70740585 29.2429,5.40304717 30.6238,6.55908928 L26.3807,10.7939181 Z M33.8293,21.0211431 L32.8453,20.0390612 C34.4648,18.1639236 35.3482,15.7979446 35.3482,13.2965302 C35.3482,10.5325287 34.2698,7.93440312 32.3116,5.98071891 C30.3534,4.02633606 27.75,2.9498386 24.9809,2.9498386 C22.4747,2.9498386 20.1045,3.83151657 18.2257,5.44785965 L17.2417,4.46577778 C19.3848,2.58894347 22.104,1.56414503 24.9813,1.56414503 C28.1211,1.56414503 31.0729,2.7845614 33.2931,5.00103236 C35.5137,7.21680468 36.7365,10.1628507 36.7365,13.2965302 C36.7367,16.1682214 35.7098,18.8823205 33.8293,21.0211431 Z" id="Shape" fill="#000000" fill-rule="nonzero"></path>
                            </g>
                        </g>
                    </g>
                </g>
            </g>
        </g>
    </g>
</svg>