<?xml version="1.0" encoding="UTF-8"?>
<svg width="36px" height="52px" viewBox="0 0 36 52" version="1.1" xmlns="http://www.w3.org/2000/svg" xmlns:xlink="http://www.w3.org/1999/xlink">
    <!-- Generator: Sketch 62 (91390) - https://sketch.com -->
    <title>martini</title>
    <desc>Created with Sketch.</desc>
    <g id="Page-1" stroke="none" stroke-width="1" fill="none" fill-rule="evenodd">
        <g id="16.3-MAIN-UI---ALL-ITEM-(-ADD)-Copy-2" transform="translate(-992.000000, -1555.000000)">
            <g id="CREATE-ITEM" transform="translate(327.000000, 413.000000)">
                <g id="NOTIFICATION-BAR" transform="translate(66.000000, 545.000000)">
                    <g id="SET-3" transform="translate(23.000000, 485.000000)">
                        <g id="martini" transform="translate(576.000000, 112.000000)">
                            <g>
                                <ellipse id="Oval" fill="#FFFFFF" fill-rule="nonzero" cx="20.7348" cy="47.8041" rx="7.8367" ry="2.6122"></ellipse>
                                <path d="M33.5797,13.3266 L20.7348,31.1129 L7.8899,13.3266 C9.7258,14.5564 14.7831,15.4394 20.7348,15.4394 C26.6865,15.4394 31.7438,14.5565 33.5797,13.3266 Z" id="Shape" fill="#FFFFFF" fill-rule="nonzero"></path>
                                <ellipse id="Oval" fill="#FFFFFF" fill-rule="nonzero" cx="20.7348" cy="12.3047" rx="13.5837" ry="3.1347"></ellipse>
                                <circle id="Oval" fill="#91DC5A" fill-rule="nonzero" cx="7.1511" cy="12.3047" r="6.2694"></circle>
                                <path d="M10.7301,7.1581 C11.4373,8.1731 11.8532,9.4062 11.8532,10.7371 C11.8532,14.1996 9.0463,17.0065 5.5838,17.0065 C4.2529,17.0065 3.0198,16.5906 2.0048,15.8833 C3.1375,17.509 5.0194,18.5738 7.1511,18.5738 C10.6136,18.5738 13.4205,15.7669 13.4205,12.3044 C13.4205,10.1727 12.3558,8.2908 10.7301,7.1581 Z" id="Shape" fill="#6DC82A" fill-rule="nonzero"></path>
                                <path d="M28.4838,20.3839 L20.7348,31.1129 L12.9858,20.3839 C13.9513,21.0391 17.0546,21.5187 20.7348,21.5187 C24.415,21.5187 27.5183,21.039 28.4838,20.3839 Z" id="Shape" fill="#91DC5A" fill-rule="nonzero"></path>
                                <path d="M25.8294,21.1656 L19.6899,29.6662 L20.7348,31.113 L28.4838,20.384 C28.0254,20.6949 27.0844,20.9663 25.8294,21.1656 Z" id="Shape" fill="#6DC82A" fill-rule="nonzero"></path>
                                <ellipse id="Oval" fill="#FFFFFF" fill-rule="nonzero" cx="20.7348" cy="19.9513" rx="8.0603" ry="1.5673"></ellipse>
                                <ellipse id="Oval" fill="#C9EEAE" fill-rule="nonzero" cx="20.7348" cy="19.9513" rx="8.0603" ry="1.5673"></ellipse>
                                <ellipse id="Oval" fill="#3FC378" fill-rule="nonzero" cx="20.7348" cy="8.5943" rx="2.0898" ry="2.6122"></ellipse>
                                <path d="M35.1021,12.3044 L35.1021,12.3044 C35.1019,11.2183 34.048,10.363 31.8804,9.6894 C30.1109,9.1395 27.7049,8.7411 24.9226,8.5369 L24.8079,10.1 C27.3635,10.2876 29.5827,10.6432 31.2255,11.1288 C33.2401,11.7241 33.5146,12.2622 33.5335,12.3021 C33.5054,12.3646 33.0951,13.1141 29.935,13.8089 C27.641,14.3133 24.677,14.6077 21.5185,14.6496 L21.5185,11.8606 C22.7231,11.4563 23.6083,10.1455 23.6083,8.5941 C23.6083,7.0426 22.7231,5.7318 21.5185,5.3276 L21.5185,0 L19.951,0 L19.951,5.3277 C18.7822,5.72 17.9147,6.9657 17.8641,8.4566 C16.8465,8.5062 15.8619,8.5817 14.9287,8.6823 L15.0968,10.2407 C16.0559,10.1372 17.0723,10.0612 18.125,10.0133 C18.4736,10.9049 19.1395,11.5884 19.9509,11.8607 L19.9509,14.6496 C16.7924,14.6076 13.8283,14.3132 11.5344,13.8089 C9.4927,13.36 8.5991,12.8881 8.2147,12.5951 L12.2435,10.2691 C12.4962,10.899 12.6367,11.5856 12.6367,12.3047 C12.6367,12.4623 12.6296,12.6241 12.6156,12.7856 L14.1771,12.9209 C14.195,12.7145 14.2041,12.5072 14.2041,12.3047 C14.2041,8.4156 11.0402,5.2516 7.151,5.2516 C3.2618,5.2516 0.0979,8.4156 0.0979,12.3047 C0.0979,16.1938 3.2619,19.3578 7.151,19.3578 C7.8265,19.3578 8.4958,19.2617 9.1402,19.0721 L8.6978,17.5684 C8.4478,17.642 8.1928,17.6974 7.9347,17.7345 L7.9347,14.7274 L19.951,31.3664 L19.951,44.4209 C18.0692,44.4811 16.315,44.7571 14.9454,45.2136 C12.6057,45.9935 12.1145,47.0528 12.1145,47.8041 C12.1145,48.5554 12.6057,49.6147 14.9457,50.3947 C16.5037,50.914 18.5597,51.2 20.735,51.2 C22.9102,51.2 24.9662,50.914 26.5242,50.3947 C28.8642,49.6147 29.3555,48.5554 29.3555,47.8041 C29.3555,47.0528 28.8643,45.9935 26.5242,45.2135 C25.1548,44.7571 23.4004,44.481 21.5187,44.4208 L21.5187,31.3663 L34.135,13.8964 C34.782,13.4299 35.1022,12.9012 35.1024,12.3047 L35.1024,12.3047 L35.1024,12.3045 L35.1024,12.3044 L35.1021,12.3044 Z M2.0584,14.3398 C1.8058,13.71 1.6654,13.0236 1.6654,12.3048 C1.6654,11.5857 1.8058,10.8992 2.0585,10.2693 L5.5835,12.3046 L2.0584,14.3398 Z M6.3675,17.7335 C4.944,17.5289 3.6962,16.7759 2.8441,15.6959 L6.3675,13.6617 L6.3675,17.7335 Z M6.3675,10.9474 L2.8443,8.9132 C3.6964,7.8334 4.9441,7.0804 6.3675,6.8759 L6.3675,10.9474 Z M7.9348,6.8758 C9.3581,7.0804 10.6058,7.8333 11.4579,8.9129 L7.9348,10.947 L7.9348,6.8758 Z M19.4287,8.5942 C19.4287,7.603 20.0268,6.7656 20.7348,6.7656 C21.4427,6.7656 22.0409,7.603 22.0409,8.5942 C22.0409,9.5854 21.4427,10.4228 20.7348,10.4228 C20.0268,10.4228 19.4287,9.5854 19.4287,8.5942 Z M10.9645,16.2456 L10.1192,15.0751 C10.3831,15.1473 10.6612,15.2172 10.9536,15.2846 C11.1804,15.3369 11.416,15.3866 11.6552,15.4348 C11.4519,15.7264 11.2205,15.9979 10.9645,16.2456 Z M11.89,17.5271 C12.462,17.0079 12.9458,16.3981 13.3206,15.7232 C15.3041,16.016 17.5722,16.1865 19.9511,16.2172 L19.9511,17.6075 C18.0436,17.6425 16.268,17.8049 14.8857,18.0736 C14.1467,18.2173 13.3499,18.4136 12.764,18.7373 L11.89,17.5271 Z M19.9511,19.1748 L19.9511,20.7272 C17.0959,20.6726 14.8936,20.3261 13.8728,19.9488 C14.7821,19.6195 16.8342,19.2316 19.9511,19.1748 Z M27.7879,47.8041 C27.7879,48.3348 25.3164,49.6327 20.7348,49.6327 C16.1533,49.6327 13.6817,48.3348 13.6817,47.8041 C13.6817,47.3045 15.8725,46.1255 19.9511,45.9889 L19.9511,47.8041 L21.5184,47.8041 L21.5184,45.9889 C25.5971,46.1255 27.7879,47.3045 27.7879,47.8041 Z M20.7348,29.7743 L15.0142,21.853 C16.4991,22.1289 18.3206,22.2623 19.9511,22.2944 L19.9511,25.6 L21.5184,25.6 L21.5184,22.2944 C23.149,22.2623 24.9703,22.129 26.4553,21.853 L20.7348,29.7743 Z M21.5185,20.7273 L21.5185,19.1749 C24.6354,19.2316 26.6875,19.6196 27.5968,19.949 C26.5759,20.3261 24.3736,20.6727 21.5185,20.7273 Z M28.7054,18.7374 C28.1195,18.4138 27.3228,18.2175 26.5838,18.0738 C25.2014,17.8051 23.4258,17.6427 21.5183,17.6077 L21.5183,16.2174 C24.9107,16.1736 28.0809,15.8467 30.5159,15.2847 C30.8082,15.2172 31.0861,15.1474 31.35,15.0752 L28.7054,18.7374 Z" id="Shape" fill="#000000" fill-rule="nonzero"></path>
                            </g>
                        </g>
                    </g>
                </g>
            </g>
        </g>
    </g>
</svg>