<?xml version="1.0" encoding="UTF-8"?>
<svg width="29px" height="52px" viewBox="0 0 29 52" version="1.1" xmlns="http://www.w3.org/2000/svg" xmlns:xlink="http://www.w3.org/1999/xlink">
    <!-- Generator: Sketch 62 (91390) - https://sketch.com -->
    <title>mayonnaise</title>
    <desc>Created with Sketch.</desc>
    <g id="Page-1" stroke="none" stroke-width="1" fill="none" fill-rule="evenodd">
        <g id="16.3-MAIN-UI---ALL-ITEM-(-ADD)-Copy-2" transform="translate(-520.000000, -1484.000000)">
            <g id="CREATE-ITEM" transform="translate(327.000000, 413.000000)">
                <g id="NOTIFICATION-BAR" transform="translate(66.000000, 545.000000)">
                    <g id="SET-3" transform="translate(23.000000, 485.000000)">
                        <g id="mayonnaise" transform="translate(104.000000, 41.000000)">
                            <g>
                                <polygon id="Shape" fill="#FFDA44" fill-rule="nonzero" points="15.2449 0.7837 13.1552 0.7837 11.5878 11.2327 16.8123 11.2327"></polygon>
                                <polygon id="Rectangle-path" fill="#FFDA44" fill-rule="nonzero" points="6.3633 11.2327 22.0368 11.2327 22.0368 13.8449 6.3633 13.8449"></polygon>
                                <polygon id="Rectangle-path" fill="#FFF5CC" fill-rule="nonzero" points="6.3633 11.2327 8.4531 11.2327 8.4531 13.8449 6.3633 13.8449"></polygon>
                                <rect id="Rectangle-path" fill="#FF9811" fill-rule="nonzero" x="3.7511" y="13.8449" width="20.898" height="5.2245"></rect>
                                <path d="M22.5592,13.8449 L22.5592,14.8898 C22.5592,16.044 21.6236,16.9796 20.4694,16.9796 L3.7511,16.9796 L3.7511,19.0694 L24.6491,19.0694 L24.6491,13.8449 L22.5592,13.8449 Z" id="Shape" fill="#DD7903" fill-rule="nonzero"></path>
                                <path d="M25.4745,50.4163 L2.9256,50.4163 C1.6892,50.4163 0.7232,49.3488 0.8461,48.1186 L3.751,19.0694 L24.649,19.0694 L27.5539,48.1186 C27.6769,49.3489 26.7109,50.4163 25.4745,50.4163 Z" id="Shape" fill="#FFDA44" fill-rule="nonzero"></path>
                                <path d="M27.5539,48.1186 L24.649,19.0694 L3.751,19.0694 L3.542,21.1592 L20.668,21.1592 C21.7416,21.1592 22.6406,21.9728 22.7474,23.0411 L25.4641,50.2084 C25.4711,50.2783 25.4741,50.3476 25.4742,50.4163 L25.4745,50.4163 C26.7109,50.4163 27.6769,49.3489 27.5539,48.1186 Z" id="Shape" fill="#EEBF00" fill-rule="nonzero"></path>
                                <path d="M28.3337,48.0406 L25.4328,19.0302 L25.4328,13.0612 L22.8206,13.0612 L22.8206,10.449 L17.4873,10.449 L15.9198,0 L12.4802,0 L10.9129,10.449 L5.5796,10.449 L5.5796,13.0612 L2.9674,13.0612 L2.9674,19.853 L23.9398,19.853 L26.774,48.1968 C26.8113,48.5683 26.6938,48.9255 26.4431,49.2026 C26.1922,49.4798 25.8482,49.6326 25.4745,49.6326 L2.9256,49.6326 C2.5519,49.6326 2.208,49.4798 1.957,49.2026 C1.7063,48.9255 1.5888,48.5682 1.6261,48.1965 L4.3219,21.2371 L2.7623,21.0812 L0.0665,48.0403 C-0.0143,48.8463 0.2511,49.6533 0.7948,50.2542 C1.3386,50.8553 2.1153,51.2 2.9257,51.2 L25.4746,51.2 C26.2849,51.2 27.0617,50.8553 27.6055,50.2542 C28.149,49.6532 28.4144,48.8464 28.3337,48.0406 Z M8.1919,14.6286 L8.1919,18.2857 L7.147,18.2857 L7.147,14.6286 L8.1919,14.6286 Z M9.7592,14.6286 L10.8041,14.6286 L10.8041,18.2857 L9.7592,18.2857 L9.7592,14.6286 Z M12.3715,14.6286 L13.4164,14.6286 L13.4164,18.2857 L12.3715,18.2857 L12.3715,14.6286 Z M14.9837,14.6286 L16.0286,14.6286 L16.0286,18.2857 L14.9837,18.2857 L14.9837,14.6286 Z M17.596,14.6286 L18.6409,14.6286 L18.6409,18.2857 L17.596,18.2857 L17.596,14.6286 Z M20.2082,14.6286 L21.2531,14.6286 L21.2531,18.2857 L20.2082,18.2857 L20.2082,14.6286 Z M13.8301,1.5673 L14.5701,1.5673 L15.9023,10.4489 L12.4978,10.4489 L13.8301,1.5673 Z M7.147,12.0163 L21.2531,12.0163 L21.2531,13.0612 L7.147,13.0612 L7.147,12.0163 Z M4.5347,14.6286 L5.5796,14.6286 L5.5796,18.2857 L4.5347,18.2857 L4.5347,14.6286 Z M23.8654,18.2857 L22.8205,18.2857 L22.8205,14.6286 L23.8654,14.6286 L23.8654,18.2857 Z" id="Shape" fill="#000000" fill-rule="nonzero"></path>
                                <path d="M5.5915,40.0453 L4.0319,39.8894 L3.5302,44.9057 C3.4495,45.7117 3.7149,46.5187 4.2587,47.1196 C4.8025,47.7206 5.5791,48.0653 6.3895,48.0653 L11.614,48.0653 L11.614,46.498 L6.3895,46.498 C6.0158,46.498 5.6719,46.3453 5.4209,46.068 C5.1702,45.7909 5.0527,45.4336 5.0899,45.0619 L5.5915,40.0453 Z" id="Shape" fill="#000000" fill-rule="nonzero"></path>
                            </g>
                        </g>
                    </g>
                </g>
            </g>
        </g>
    </g>
</svg>