<?xml version="1.0" encoding="UTF-8"?>
<svg width="52px" height="40px" viewBox="0 0 52 40" version="1.1" xmlns="http://www.w3.org/2000/svg" xmlns:xlink="http://www.w3.org/1999/xlink">
    <!-- Generator: Sketch 62 (91390) - https://sketch.com -->
    <title>oyster</title>
    <desc>Created with Sketch.</desc>
    <g id="Page-1" stroke="none" stroke-width="1" fill="none" fill-rule="evenodd">
        <g id="16.3-MAIN-UI---ALL-ITEM-(-ADD)-Copy-2" transform="translate(-1056.000000, -1099.000000)">
            <g id="CREATE-ITEM" transform="translate(327.000000, 413.000000)">
                <g id="NOTIFICATION-BAR" transform="translate(66.000000, 545.000000)">
                    <g id="SET-1" transform="translate(23.000000, 34.000000)">
                        <g id="oyster" transform="translate(640.000000, 107.000000)">
                            <g>
                                <ellipse id="Oval" fill="#FFFFFF" fill-rule="nonzero" cx="25.6000004" cy="25.9548004" rx="24.8163004" ry="13.1657002"></ellipse>
                                <path d="M25.6000004,12.7894002 C20.9971003,12.7894002 16.6881002,13.4550002 12.9931002,14.6135002 C15.6243002,14.1095002 18.4617003,13.8343002 21.4204003,13.8343002 C35.1261005,13.8343002 46.2367007,19.7288003 46.2367007,27.0000004 C46.2367007,31.8293005 41.3346006,36.0505005 34.0273005,38.3416006 C43.5845006,36.5110005 50.4163008,31.6566005 50.4163008,25.9551004 C50.4163008,18.6838003 39.3057006,12.7894002 25.6000004,12.7894002 Z" id="Shape" fill="#EBE5DD" fill-rule="nonzero"></path>
                                <path d="M38.5025006,9.19370014 C44.4193007,15.1105002 47.3856007,26.1705004 43.3051006,30.2510005 C39.2246006,34.3315005 22.5200003,32.2953005 21.6942003,22.1604003 C21.0146003,13.8203002 13.0501002,12.6297002 22.6172003,8.08530012 C27.8298004,5.60930008 32.5857005,3.27680005 38.5025006,9.19370014 Z" id="Shape" fill="#EBE5DD" fill-rule="nonzero"></path>
                                <path d="M43.3050006,27.2955004 C39.2244006,31.3761005 22.5200003,29.3399004 21.6941003,19.2050003 C21.3657003,15.1750002 19.3366003,12.8144002 18.4062003,10.9381002 C16.4732002,13.6213002 21.1786003,15.8341002 21.6941003,22.1604003 C22.5199003,32.2953005 39.2244006,34.3315005 43.3050006,30.2509005 C44.8852007,28.6707004 45.4080007,26.0436004 45.1126007,23.0741003 C44.9138007,24.7951004 44.3335007,26.2671004 43.3050006,27.2955004 Z" id="Shape" fill="#D9CCBC" fill-rule="nonzero"></path>
                                <path d="M29.1763004,13.9030002 C29.1763004,22.2706003 23.4532003,32.1887005 17.6824003,32.1887005 C11.9115002,32.1887005 1.53960002,18.9370003 8.12210012,11.1866002 C13.5389002,4.80880007 8.74900013,-1.66500002 18.7273003,1.88670003 C24.1640004,3.82180006 29.1763004,5.53540008 29.1763004,13.9030002 Z" id="Shape" fill="#EBE5DD" fill-rule="nonzero"></path>
                                <path d="M28.8988004,17.2204003 C27.6878004,24.6820004 22.7026003,32.1886005 17.6829003,32.1886005 C13.4197002,32.1886005 6.6456001,24.9579004 6.05110009,18.0552003 C8.90580013,23.5765004 14.0655002,28.0090004 17.6860003,28.0090004 C22.0276003,28.0089004 26.3482004,23.2369003 28.8988004,17.2204003 Z" id="Shape" fill="#D9CCBC" fill-rule="nonzero"></path>
                                <path d="M24.7385004,13.0774002 C24.7385004,18.2394003 21.2079003,24.3579004 17.6479003,24.3579004 C14.0878002,24.3579004 7.68930011,16.1829002 11.7501002,11.4017002 C15.0917002,7.46720011 12.1368002,3.47350005 18.2925003,5.66460008 C21.6463003,6.8584001 24.7385004,7.91540012 24.7385004,13.0774002 Z" id="Shape" fill="#FFDA44" fill-rule="nonzero"></path>
                                <path d="M17.6478003,22.2682003 C15.1163002,22.2682003 11.1509002,18.1347003 10.5301002,14.0272002 C9.74830015,18.6855003 14.6822002,24.3580004 17.6478003,24.3580004 C21.2078003,24.3580004 24.7384004,18.2395003 24.7384004,13.0775002 C24.7384004,12.7091002 24.7221004,12.3621002 24.6916004,12.0339002 C24.2658004,16.9405003 20.9698003,22.2682003 17.6478003,22.2682003 Z" id="Shape" fill="#EEBF00" fill-rule="nonzero"></path>
                                <circle id="Oval" fill="#FFFFFF" fill-rule="nonzero" cx="16.3641002" cy="12.9186002" r="2.18240003"></circle>
                                <path d="M30.7233005,22.1471003 C27.4065004,25.4640004 26.5195004,30.0988004 28.4021004,33.1699005 C27.9712004,33.8206005 27.9757004,34.6277005 28.4597004,35.1117005 C28.9437004,35.5957005 29.7508004,35.6003005 30.4015005,35.1694005 C33.4727005,37.0519006 38.1074006,36.1650005 41.4243006,32.8482005" id="Shape" fill="#FFDA44" fill-rule="nonzero"></path>
                                <path d="M40.5619006,31.9857005 C37.3394006,34.6477005 33.2146005,35.2475005 30.4015005,33.5231005 C29.7507004,33.9540005 28.9437004,33.9495005 28.4597004,33.4655005 C28.4084004,33.4142005 28.3628004,33.3591005 28.3223004,33.3012005 C27.9739004,33.9262005 28.0077004,34.6598005 28.4597004,35.1117005 C28.9437004,35.5957005 29.7508004,35.6003005 30.4015005,35.1693005 C33.4727005,37.0519006 38.1074006,36.1649005 41.4243006,32.8481005 L40.5619006,31.9857005 Z" id="Shape" fill="#EEBF00" fill-rule="nonzero"></path>
                                <ellipse id="Oval" fill="#FFF5CC" fill-rule="nonzero" transform="translate(36.074162, 27.497412) rotate(-45.000000) translate(-36.074162, -27.497412) " cx="36.0741617" cy="27.4974123" rx="3.78346377" ry="7.56702754"></ellipse>
                                <path d="M46.8602007,18.1350003 L45.8744007,19.3536003 C48.3330007,21.3426003 49.6326007,23.6252004 49.6326007,25.9552004 C49.6326007,29.1681004 47.1991007,32.2284005 42.7806006,34.5726005 C38.2046006,37.0002006 32.1030005,38.3371006 25.6000004,38.3371006 C19.0970003,38.3371006 12.9954002,37.0002006 8.41940013,34.5724005 C4.00080006,32.2282005 1.56740002,29.1679004 1.56740002,25.9550004 C1.56740002,23.0726003 3.47940005,20.8200003 5.42430008,19.2740003 C5.65780008,20.5962003 6.09360009,21.9623003 6.7199001,23.3160003 C9.18350014,28.6406004 14.1013002,32.9724005 17.6823003,32.9724005 C20.3095003,32.9724005 23.0532003,31.1608005 25.3628004,27.9491004 C25.8034004,28.1173004 26.2559004,28.2722004 26.7177004,28.4110004 C26.5127004,30.1061004 26.7615004,31.7636005 27.5081004,33.1824005 C27.1319004,34.0631005 27.2721004,35.0324005 27.9055004,35.6659005 C28.5390004,36.2992005 29.5084004,36.4395005 30.3889005,36.0633005 C31.4918005,36.6436005 32.7380005,36.9241006 34.0348005,36.9240006 C36.7510005,36.9238006 39.6867006,35.6923005 41.9751006,33.4054005 C41.9761006,33.4043005 41.9774006,33.4033005 41.9784006,33.4023005 L41.9783006,33.4023005 L41.9783006,33.4023005 L41.9783006,33.4022005 L41.9783006,33.4022005 C42.4442006,32.9363005 42.7231006,32.3269005 42.8113006,31.6087005 C43.2132006,31.3683005 43.5645006,31.0991005 43.8587007,30.8050005 C45.9644007,28.6997004 46.5315007,24.8441004 45.4147007,20.2267003 C44.3699007,15.9074002 41.9930006,11.5759002 39.0564006,8.63980013 C35.7930005,5.37650008 32.5422005,4.18500006 28.8246004,4.89020007 L29.1169004,6.4300001 C30.0390004,6.25510009 30.9212005,6.21600009 31.7796005,6.31720009 C33.8747005,11.5351002 33.8418005,16.4400002 31.6683005,18.6135003 C31.1161005,19.1658003 30.2290005,19.6141003 29.1099004,19.9173003 C29.6613004,17.8881003 29.9599004,15.8320002 29.9599004,13.9033002 C29.9599004,9.93200015 28.8486004,7.0011001 26.5627004,4.94330007 C24.5419004,3.12420005 21.9107003,2.18790003 19.1249003,1.19670002 L18.9899003,1.14870002 C15.7737002,0.00400000006 13.8565002,-0.193800003 12.5789002,0.488300007 C11.2574002,1.19370002 10.8851002,2.66360004 10.4539002,4.36550007 C9.99300015,6.18470009 9.41930014,8.44880013 7.52460011,10.6795002 C6.04530009,12.4213002 5.27210008,14.5047002 5.22650008,16.8718003 C5.22270008,17.0653003 5.22580008,17.2612003 5.23210008,17.4584003 C1.80730003,19.8946003 0,22.8252003 0,25.9551004 C0,29.7758004 2.72920004,33.3280005 7.68480011,35.9571005 C12.4831002,38.5026006 18.8455003,39.9045006 25.6000004,39.9045006 C32.3545005,39.9045006 38.7169006,38.5026006 43.5152006,35.9571005 C48.4708007,33.3280005 51.2000008,29.7757004 51.2000008,25.9551004 C51.2000008,23.1358003 49.6993007,20.4317003 46.8602007,18.1350003 Z M17.6824003,31.4051005 C14.7604002,31.4051005 10.3111002,27.3291004 8.15170012,22.6776003 C11.1037002,26.3133004 14.8056002,28.7926004 17.6861003,28.7926004 C19.9565003,28.7926004 22.3192003,27.6280004 24.5187004,25.4246004 C25.0490004,24.8934004 25.5623004,24.3089004 26.0565004,23.6794004 C25.7121004,24.4030004 25.3340004,25.1051004 24.9246004,25.7757004 C22.7725003,29.3006004 20.0652003,31.4051005 17.6824003,31.4051005 Z M30.8111005,34.5012005 L30.3853005,34.2402005 L29.9689004,34.5161005 C29.6215004,34.7460005 29.2197004,34.7635005 29.0139004,34.5576005 C28.8078004,34.3516005 28.8254004,33.9501005 29.0554004,33.6026005 L29.3313004,33.1862005 L29.0703004,32.7604005 C27.7659004,30.6326005 27.9746004,27.7025004 29.4471004,25.0999004 C29.5013004,25.3449004 29.5695004,25.5959004 29.6555004,25.8538004 C30.1984004,27.4828004 31.3311005,29.2135004 32.8446005,30.7271005 C34.3581005,32.2405005 36.0889005,33.3731005 37.7179006,33.9162005 C37.9751006,34.0019005 38.2259006,34.0714005 38.4701006,34.1255005 C35.8678005,35.5970005 32.9385005,35.8055005 30.8111005,34.5012005 Z M38.4963006,15.5253002 C38.2877006,13.5233002 37.7335006,11.4044002 36.8927005,9.33280014 C38.5720006,11.8941002 39.8221006,14.8898002 40.3875006,17.7685003 C40.9567006,20.6659003 40.7663006,23.1857003 39.8774006,24.8733004 C39.6928006,24.6684004 39.5016006,24.4662004 39.3033006,24.2681004 C38.6394006,23.6043004 37.9335006,23.0136003 37.2130006,22.5139003 C38.3566006,20.8241003 38.7997006,18.4369003 38.4963006,15.5253002 Z M41.2336006,31.5489005 L37.9659006,28.2812004 L40.4078006,28.2812004 C40.6562006,28.7383004 40.8575006,29.1932004 41.0055006,29.6372004 C41.2546006,30.3848005 41.3295006,31.0418005 41.2336006,31.5489005 Z M30.9141005,23.4462003 L34.1817005,26.7138004 L31.7399005,26.7138004 C31.4915005,26.2567004 31.2902005,25.8018004 31.1422005,25.3579004 C30.8930005,24.6105004 30.8182005,23.9534004 30.9141005,23.4462003 Z M35.2902005,28.2812004 L35.2902005,30.8012005 C34.8439005,30.4550005 34.3951005,30.0611004 33.9527005,29.6187004 C33.5212005,29.1872004 33.1259005,28.7382004 32.7718005,28.2812004 L35.2902005,28.2812004 L35.2902005,28.2812004 Z M36.8575005,29.3897004 L40.1247006,32.6569005 C39.3245006,32.8092005 38.1525006,32.5397005 36.8575005,31.8345005 L36.8575005,29.3897004 L36.8575005,29.3897004 Z M36.8575005,26.7139004 L36.8575005,24.1957004 C37.3144006,24.5498004 37.7633006,24.9450004 38.1949006,25.3765004 C38.6264006,25.8080004 39.0217006,26.2569004 39.3757006,26.7139004 L36.8575005,26.7139004 Z M35.2902005,25.6056004 L32.0237005,22.3391003 C32.1655005,22.3122003 32.3177005,22.2973003 32.4818005,22.2973003 C32.9041005,22.2973003 33.3959005,22.3865003 33.9342005,22.5659003 C34.3781005,22.7139003 34.8330005,22.9152003 35.2902005,23.1636003 L35.2902005,25.6056004 Z M42.7507006,29.6965004 C42.7256006,29.7215004 42.6992006,29.7461004 42.6727006,29.7708004 C42.6232006,29.5654004 42.5637006,29.3557004 42.4922006,29.1415004 C42.1671006,28.1662004 41.6293006,27.1547004 40.9263006,26.1749004 C42.2781006,24.1391004 42.6349006,21.0799003 41.9252006,17.4664003 C41.6353006,15.9904002 41.1775006,14.4857002 40.5817006,13.0177002 C42.0806006,15.3002002 43.2510006,17.9484003 43.8913007,20.5950003 C44.8624007,24.6091004 44.4360007,28.0116004 42.7507006,29.6965004 Z M32.7768005,19.7216003 C35.2737005,17.2247003 35.5675005,12.2436002 33.6238005,6.7647001 C33.7412005,6.8084001 33.8585005,6.8556001 33.9755005,6.9052001 C37.1707006,12.4994002 37.9257006,18.7171003 35.8676005,21.6978003 C35.3851005,21.4457003 34.9033005,21.2368003 34.4300005,21.0790003 C32.6175005,20.4748003 31.1046005,20.6577003 30.1693004,21.5929003 C28.6192004,23.1430003 27.5552004,24.9902004 27.0287004,26.8651004 C26.7665004,26.7840004 26.5084004,26.6971004 26.2539004,26.6055004 C26.2567004,26.6010004 26.2595004,26.5966004 26.2624004,26.5920004 C27.1952004,25.0638004 27.9762004,23.3812003 28.5769004,21.6453003 C30.4156005,21.2967003 31.8620005,20.6363003 32.7768005,19.7216003 Z M8.71940013,11.6940002 C10.8494002,9.18600014 11.4989002,6.6223001 11.9733002,4.75020007 C12.3779002,3.15340005 12.6398002,2.23230003 13.3171002,1.87070003 C13.5763002,1.73240003 13.9234002,1.66300002 14.3614002,1.66300002 C15.3007002,1.66300002 16.6583002,1.98220003 18.4645003,2.62500004 L18.5996003,2.67320004 C21.2349003,3.61090005 23.7240004,4.49650007 25.5141004,6.10800009 C27.4779004,7.87590012 28.3926004,10.3528002 28.3926004,13.9031002 C28.3926004,14.9074002 28.3048004,15.9495002 28.1382004,17.0041003 C26.8940004,19.9115003 25.2174004,22.5060003 23.4094003,24.3171004 C21.5102003,26.2195004 19.5312003,27.2252004 17.6860003,27.2252004 C14.3963002,27.2252004 9.53890014,23.0146003 6.8099001,17.8147003 C6.6084001,14.8038002 7.78630012,12.7926002 8.71940013,11.6940002 Z" id="Shape" fill="#000000" fill-rule="nonzero"></path>
                                <path d="M17.6478003,25.1416004 C19.5916003,25.1416004 21.6142003,23.6546004 23.1969003,21.0618003 C24.6529004,18.6768003 25.5220004,15.6920002 25.5220004,13.0774002 C25.5220004,7.40530011 22.0226003,6.16010009 18.6383003,4.95590007 L18.5550003,4.92630007 C16.4557002,4.17910006 15.2399002,4.06610006 14.3580002,4.53700007 C13.4257002,5.03470008 13.1691002,6.04750009 12.8974002,7.12000011 C12.6207002,8.21210012 12.2763002,9.57140014 11.1526002,10.8945002 C9.38560014,12.9751002 9.18870014,15.9333002 10.6125002,19.0104003 C12.1768002,22.3911003 15.3328002,25.1416004 17.6478003,25.1416004 Z M12.3475002,11.9090002 C13.7066002,10.3087002 14.1172002,8.68810013 14.4170002,7.50490011 C14.6390002,6.6282001 14.7907002,6.08280009 15.0964002,5.91960009 C15.1972002,5.86570009 15.3539002,5.82590009 15.5969002,5.82590009 C16.0471002,5.82590009 16.7935003,5.96300009 18.0297003,6.4029001 L18.1131003,6.4326001 C21.3768003,7.59400011 23.9548004,8.51130013 23.9548004,13.0775002 C23.9548004,17.9826003 20.5950003,23.5743004 17.6479003,23.5743004 C16.1359002,23.5743004 13.4590002,21.4298003 12.0351002,18.3522003 C11.3555002,16.8834003 10.4923002,14.0932002 12.3475002,11.9090002 Z" id="Shape" fill="#000000" fill-rule="nonzero"></path>
                                <path d="M16.3646002,15.8849002 C18.0001003,15.8849002 19.3306003,14.5544002 19.3306003,12.9189002 C19.3306003,11.2834002 18.0001003,9.95280015 16.3646002,9.95280015 C14.7291002,9.95280015 13.3986002,11.2834002 13.3986002,12.9189002 C13.3986002,14.5544002 14.7291002,15.8849002 16.3646002,15.8849002 Z M16.3646002,11.5201002 C17.1358003,11.5201002 17.7633003,12.1476002 17.7633003,12.9189002 C17.7633003,13.6901002 17.1358003,14.3176002 16.3646002,14.3176002 C15.5934002,14.3176002 14.9659002,13.6901002 14.9659002,12.9189002 C14.9660002,12.1475002 15.5933002,11.5201002 16.3646002,11.5201002 Z" id="Shape" fill="#000000" fill-rule="nonzero"></path>
                            </g>
                        </g>
                    </g>
                </g>
            </g>
        </g>
    </g>
</svg>