<?xml version="1.0" encoding="UTF-8"?>
<svg width="52px" height="38px" viewBox="0 0 52 38" version="1.1" xmlns="http://www.w3.org/2000/svg" xmlns:xlink="http://www.w3.org/1999/xlink">
    <!-- Generator: Sketch 62 (91390) - https://sketch.com -->
    <title>pancake</title>
    <desc>Created with Sketch.</desc>
    <g id="Page-1" stroke="none" stroke-width="1" fill="none" fill-rule="evenodd">
        <g id="16.3-MAIN-UI---ALL-ITEM-(-ADD)-Copy-2" transform="translate(-984.000000, -1102.000000)">
            <g id="CREATE-ITEM" transform="translate(327.000000, 413.000000)">
                <g id="NOTIFICATION-BAR" transform="translate(66.000000, 545.000000)">
                    <g id="SET-1" transform="translate(23.000000, 34.000000)">
                        <g id="pancake" transform="translate(568.000000, 110.000000)">
                            <g>
                                <ellipse id="Oval" fill="#FFFFFF" fill-rule="nonzero" cx="25.6000004" cy="24.0165004" rx="24.8163004" ry="13.1657002"></ellipse>
                                <path d="M25.6000004,10.8504002 C20.9971003,10.8504002 16.6881002,11.5160002 12.9931002,12.6745002 C15.6243002,12.1705002 18.4617003,11.8953002 21.4204003,11.8953002 C35.1261005,11.8953002 46.2367007,17.7898003 46.2367007,25.0610004 C46.2367007,29.8903004 41.3346006,34.1115005 34.0273005,36.4026005 C43.5845006,34.5720005 50.4163008,29.7176004 50.4163008,24.0161004 C50.4163008,16.7448002 39.3057006,10.8504002 25.6000004,10.8504002 Z" id="Shape" fill="#EBE5DD" fill-rule="nonzero"></path>
                                <ellipse id="Oval" fill="#FFDA44" fill-rule="nonzero" cx="25.6000004" cy="23.7866004" rx="18.8082003" ry="8.35920012"></ellipse>
                                <path d="M6.7918001,23.7867004 C6.7918001,28.4032004 15.2126002,32.1459005 25.6000004,32.1459005 C25.9511004,32.1459005 26.2990004,32.1407005 26.6449004,32.1323005 C16.7434002,31.8909005 8.88160013,28.2474004 8.88160013,23.7867004 C8.88160013,23.6750004 8.88680013,23.5631004 8.89620013,23.4524003 C8.25150012,22.9007003 7.74160012,22.3124003 7.38530011,21.6969003 C6.9977001,22.3647003 6.7918001,23.0648003 6.7918001,23.7867004 Z" id="Shape" fill="#FFF5CC" fill-rule="nonzero"></path>
                                <path d="M44.4082007,23.7867004 C44.4082007,28.4032004 35.9874005,32.1459005 25.6000004,32.1459005 C25.2489004,32.1459005 24.9010004,32.1407005 24.5551004,32.1323005 C34.4566005,31.8909005 42.3184006,28.2474004 42.3184006,23.7867004 C42.3184006,23.6750004 42.3132006,23.5631004 42.3038006,23.4524003 C42.9485006,22.9007003 43.4584006,22.3124003 43.8147007,21.6969003 C44.2023007,22.3647003 44.4082007,23.0648003 44.4082007,23.7867004 Z" id="Shape" fill="#EEBF00" fill-rule="nonzero"></path>
                                <ellipse id="Oval" fill="#FFDA44" fill-rule="nonzero" cx="25.6000004" cy="19.6070003" rx="18.8082003" ry="8.35920012"></ellipse>
                                <path d="M6.7918001,19.6071003 C6.7918001,24.2236004 15.2126002,27.9663004 25.6000004,27.9663004 C25.9511004,27.9663004 26.2990004,27.9611004 26.6449004,27.9527004 C16.7434002,27.7113004 8.88160013,24.0678004 8.88160013,19.6071003 C8.88160013,19.4954003 8.88680013,19.3835003 8.89620013,19.2728003 C8.25150012,18.7211003 7.74160012,18.1328003 7.38530011,17.5173003 C6.9977001,18.1851003 6.7918001,18.8852003 6.7918001,19.6071003 Z" id="Shape" fill="#FFF5CC" fill-rule="nonzero"></path>
                                <path d="M44.4082007,19.6071003 C44.4082007,24.2236004 35.9874005,27.9663004 25.6000004,27.9663004 C25.2489004,27.9663004 24.9010004,27.9611004 24.5551004,27.9527004 C34.4566005,27.7113004 42.3184006,24.0678004 42.3184006,19.6071003 C42.3184006,19.4954003 42.3132006,19.3835003 42.3038006,19.2728003 C42.9485006,18.7211003 43.4584006,18.1328003 43.8147007,17.5173003 C44.2023007,18.1851003 44.4082007,18.8852003 44.4082007,19.6071003 Z" id="Shape" fill="#EEBF00" fill-rule="nonzero"></path>
                                <ellipse id="Oval" fill="#FFDA44" fill-rule="nonzero" cx="25.6000004" cy="15.4274002" rx="18.8082003" ry="8.35920012"></ellipse>
                                <path d="M44.4082007,15.4280002 C44.4082007,20.0445003 35.9874005,23.7872004 25.6000004,23.7872004 C25.2489004,23.7872004 24.9010004,23.7820004 24.5551004,23.7736004 C34.4566005,23.5322004 42.3184006,19.8887003 42.3184006,15.4280002 C42.3184006,15.3163002 42.3132006,15.2044002 42.3038006,15.0937002 C42.9485006,14.5420002 43.4584006,13.9537002 43.8147007,13.3382002 C44.2023007,14.0060002 44.4082007,14.7060002 44.4082007,15.4280002 Z" id="Shape" fill="#EEBF00" fill-rule="nonzero"></path>
                                <path d="M6.7918001,15.4280002 C6.7918001,20.0445003 15.2126002,23.7872004 25.6000004,23.7872004 C25.9511004,23.7872004 26.2990004,23.7820004 26.6449004,23.7736004 C16.7434002,23.5322004 8.88160013,19.8887003 8.88160013,15.4280002 C8.88160013,15.3163002 8.88680013,15.2044002 8.89620013,15.0937002 C8.25150012,14.5420002 7.74160012,13.9537002 7.38530011,13.3382002 C6.9977001,14.0060002 6.7918001,14.7060002 6.7918001,15.4280002 Z" id="Shape" fill="#FFF5CC" fill-rule="nonzero"></path>
                                <ellipse id="Oval" fill="#FFDA44" fill-rule="nonzero" cx="25.6000004" cy="11.2478002" rx="18.8082003" ry="8.35920012"></ellipse>
                                <path d="M9.92650015,11.2480002 C9.92650015,6.8659001 17.5133003,3.27200005 27.1673004,2.91790004 C26.6504004,2.89890004 26.1278004,2.88890004 25.6000004,2.88890004 C15.2126002,2.88890004 6.7918001,6.6314001 6.7918001,11.2481002 C6.7918001,15.8648002 15.2126002,19.6071003 25.6000004,19.6071003 C26.1279004,19.6071003 26.6504004,19.5969003 27.1673004,19.5781003 C17.5133003,19.2240003 9.92650015,15.6300002 9.92650015,11.2480002 Z" id="Shape" fill="#FFF5CC" fill-rule="nonzero"></path>
                                <path d="M25.6000004,2.88880004 C25.0721004,2.88880004 24.5496004,2.89890004 24.0327004,2.91780004 C33.6866005,3.27190005 41.2735006,6.8658001 41.2735006,11.2479002 C41.2735006,15.6300002 33.6866005,19.2239003 24.0327004,19.5780003 C24.5496004,19.5969003 25.0722004,19.6070003 25.6000004,19.6070003 C35.9874005,19.6070003 44.4082007,15.8645002 44.4082007,11.2478002 C44.4082007,6.6311001 35.9874005,2.88880004 25.6000004,2.88880004 Z" id="Shape" fill="#EEBF00" fill-rule="nonzero"></path>
                                <path d="M23.5102004,7.59080011 C17.7393003,7.59080011 13.0612002,9.69600014 13.0612002,12.2928002 L13.0612002,22.4806003 C13.0612002,23.2020003 13.6459002,23.7867004 14.3673002,23.7867004 L14.3673002,23.7867004 C15.0887002,23.7867004 15.6734002,23.2020003 15.6734002,22.4806003 L15.6734002,16.2183002 C15.6734002,15.8459002 16.0518002,15.5922002 16.3953002,15.7361002 C18.2608003,16.5171002 20.7613003,16.9950003 23.5101004,16.9950003 C29.2809004,16.9950003 33.9591005,14.8898002 33.9591005,12.2930002 C33.9591005,9.69620014 29.2810004,7.59080011 23.5102004,7.59080011 Z" id="Shape" fill="#AA6100" fill-rule="nonzero"></path>
                                <path d="M23.5102004,7.59080011 C22.9775003,7.59080011 22.4541003,7.60890011 21.9429003,7.64350011 C26.9701004,7.98380012 30.8245005,9.93580015 30.8245005,12.2929002 C30.8245005,14.6496002 26.9715004,16.6012002 21.9457003,16.9421003 C22.4561003,16.9766003 22.9784003,16.9950003 23.5102004,16.9950003 C29.2810004,16.9950003 33.9592005,14.8898002 33.9592005,12.2930002 C33.9592005,9.69610014 29.2810004,7.59080011 23.5102004,7.59080011 Z" id="Shape" fill="#9A4C00" fill-rule="nonzero"></path>
                                <circle id="Oval" fill="#FF505D" fill-rule="nonzero" cx="13.0612002" cy="5.36510008" r="2.61220004"></circle>
                                <path d="M13.9505002,2.90790004 C14.0510002,3.18550005 14.1061002,3.48490005 14.1061002,3.79720006 C14.1061002,5.23990008 12.9365002,6.4094001 11.4939002,6.4094001 C11.1816002,6.4094001 10.8821002,6.35440009 10.6045002,6.25390009 C10.9683002,7.25870011 11.9308002,7.97670012 13.0613002,7.97670012 C14.5040002,7.97670012 15.6735002,6.8071001 15.6735002,5.36450008 C15.6735002,4.23430006 14.9554002,3.27170005 13.9505002,2.90790004 Z" id="Shape" fill="#E21220" fill-rule="nonzero"></path>
                                <circle id="Oval" fill="#FF505D" fill-rule="nonzero" cx="33.6771005" cy="3.42990005" r="2.61220004"></circle>
                                <path d="M34.5659005,0.973700015 C34.6664005,1.25130002 34.7214005,1.55080002 34.7214005,1.86310003 C34.7214005,3.30580005 33.5518005,4.47530007 32.1092005,4.47530007 C31.7969005,4.47530007 31.4974005,4.42030007 31.2198005,4.31970006 C31.5836005,5.32450008 32.5461005,6.04260009 33.6766005,6.04260009 C35.1193005,6.04260009 36.2888005,4.87300007 36.2888005,3.43040005 C36.2888005,2.30000003 35.5707005,1.33750002 34.5659005,0.973700015 Z" id="Shape" fill="#E21220" fill-rule="nonzero"></path>
                                <circle id="Oval" fill="#FF505D" fill-rule="nonzero" cx="25.6000004" cy="8.49980013" r="2.61220004"></circle>
                                <path d="M26.4893004,6.04260009 C26.5898004,6.32020009 26.6449004,6.6196001 26.6449004,6.9319001 C26.6449004,8.37460012 25.4753004,9.54410014 24.0327004,9.54410014 C23.7204004,9.54410014 23.4209003,9.48910014 23.1433003,9.38860014 C23.5071004,10.3934002 24.4696004,11.1114002 25.6001004,11.1114002 C27.0428004,11.1114002 28.2123004,9.94180015 28.2123004,8.49920013 C28.2122004,7.36900011 27.4942004,6.4064001 26.4893004,6.04260009 Z" id="Shape" fill="#E21220" fill-rule="nonzero"></path>
                                <path d="M45.1669007,14.9779002 C45.1118007,14.4216002 44.9553007,13.8728002 44.6983007,13.3380002 C45.0216007,12.6688002 45.1919007,11.9696002 45.1919007,11.2484002 C45.1919007,8.48800013 42.7780006,6.01200009 38.3949006,4.27640006 L37.8179006,5.73370009 C41.5080006,7.19480011 43.6244007,9.20490014 43.6244007,11.2483002 C43.6244007,13.1250002 41.7861006,15.0184002 38.5809006,16.4429002 C35.1265005,17.9783003 30.5164005,18.8238003 25.5999004,18.8238003 C22.9183003,18.8238003 20.3343003,18.5739003 17.9186003,18.0809003 C17.4235003,17.9806003 16.9343003,17.8683003 16.4570002,17.7465003 L16.4570002,16.6045002 C18.4338003,17.3630003 20.9198003,17.7782003 23.5101004,17.7782003 C26.4096004,17.7782003 29.1478004,17.2645003 31.2203005,16.3319002 C33.4918005,15.3097002 34.7428005,13.8751002 34.7428005,12.2925002 C34.7428005,10.2012002 32.4879005,8.36350012 28.8239004,7.43410011 C28.3761004,6.08190009 27.1005004,5.10310008 25.6000004,5.10310008 C24.3369004,5.10310008 23.2336003,5.79670009 22.6486003,6.8225001 C16.7022002,7.0294001 12.2776002,9.34090014 12.2776002,12.2924002 L12.2776002,20.4662003 C9.27380014,19.0608003 7.57560011,17.2576003 7.57560011,15.4282002 C7.57560011,15.2707002 7.58950011,15.1132002 7.61450011,14.9559002 C8.35890012,15.7590002 9.35570014,16.5086002 10.5942002,17.1888003 L11.3487002,15.8150002 C8.91560013,14.4788002 7.57560011,12.8569002 7.57560011,11.2482002 C7.57560011,9.89700015 8.53380013,8.52300013 10.2920002,7.32630011 C10.9079002,8.19310012 11.9193002,8.76040013 13.0613002,8.76040013 C14.9339002,8.76040013 16.4572002,7.23700011 16.4572002,5.36450008 C16.4572002,5.15990008 16.4380002,4.95980007 16.4032002,4.76500007 C19.1873003,4.05000006 22.3470003,3.67280005 25.6001004,3.67280005 C26.7131004,3.67280005 27.8330004,3.71770006 28.9283004,3.80610006 C29.4001004,3.84430006 29.8652004,3.89110006 30.3196005,3.94420006 C30.5681005,5.57370008 31.9788005,6.8260001 33.6766005,6.8260001 C35.5492005,6.8260001 37.0725006,5.30260008 37.0725006,3.43010005 C37.0725006,1.55760002 35.5491005,0.0342000005 33.6766005,0.0342000005 C32.1701005,0.0342000005 30.8902005,1.02070002 30.4472005,2.38140004 C29.9915004,2.32860003 29.5264004,2.28210003 29.0549004,2.24390003 C27.9174004,2.15210003 26.7551004,2.10550003 25.6001004,2.10550003 C22.1210003,2.10550003 18.7348003,2.52150004 15.7635002,3.31090005 C15.1428002,2.49590004 14.1627002,1.96850003 13.0614002,1.96850003 C11.1888002,1.96850003 9.66550014,3.49190005 9.66550014,5.36440008 C9.66550014,5.52530008 9.67750014,5.68340008 9.69930014,5.83840009 C7.28180011,7.38940011 6.00840009,9.25140014 6.00840009,11.2482002 C6.00840009,11.9695002 6.17400009,12.6716002 6.4975001,13.3473002 C6.17420009,14.0230002 6.00840009,14.7209002 6.00840009,15.4283002 C6.00840009,16.1500002 6.17510009,16.8522003 6.4973001,17.5270003 C6.17420009,18.2026003 6.00840009,18.9003003 6.00840009,19.6074003 C6.00840009,20.3285003 6.17870009,21.0277003 6.5018001,21.6967003 C6.17560009,22.3755003 6.00840009,23.0766003 6.00840009,23.7870004 C6.00840009,28.9138004 14.6141002,32.9299005 25.6002004,32.9299005 C36.5863005,32.9299005 45.1920007,28.9138004 45.1920007,23.7870004 C45.1920007,23.0766003 45.0247007,22.3754003 44.6985007,21.6967003 C45.0217007,21.0276003 45.1920007,20.3285003 45.1920007,19.6074003 C45.1920007,18.8971003 45.0247007,18.1961003 44.6987007,17.5174003 C44.8200007,17.2662003 44.9184007,17.0105003 44.9957007,16.7514002 C47.9961007,18.8705003 49.6329007,21.4196003 49.6329007,24.0159004 C49.6329007,27.2288004 47.1994007,30.2891005 42.7809006,32.6333005 C38.2046006,35.0612005 32.1030005,36.3981005 25.6000004,36.3981005 C19.0970003,36.3981005 12.9954002,35.0612005 8.41940013,32.6334005 C4.00080006,30.2892005 1.56740002,27.2289004 1.56740002,24.0160004 C1.56740002,21.6785003 2.87570004,19.3885003 5.35070008,17.3933003 L4.36700007,16.1731002 C1.51010002,18.4760003 0,21.1881003 0,24.0161004 C0,27.8368004 2.72920004,31.3890005 7.68480011,34.0181005 C12.4831002,36.5636005 18.8455003,37.9655006 25.6000004,37.9655006 C32.3545005,37.9655006 38.7169006,36.5636005 43.5152006,34.0181005 C48.4708007,31.3889005 51.2000008,27.8368004 51.2000008,24.0161004 C51.2000008,20.6785003 49.0611007,17.4808003 45.1669007,14.9779002 Z M33.6765005,1.60180002 C34.6847005,1.60180002 35.5051005,2.42210004 35.5051005,3.43040005 C35.5051005,4.43870007 34.6848005,5.25900008 33.6765005,5.25900008 C32.6682005,5.25900008 31.8479005,4.43870007 31.8479005,3.43040005 C31.8479005,2.42210004 32.6682005,1.60180002 33.6765005,1.60180002 Z M13.0612002,3.53610005 C14.0694002,3.53610005 14.8898002,4.35640006 14.8898002,5.36470008 C14.8898002,6.37300009 14.0695002,7.19330011 13.0612002,7.19330011 C12.0530002,7.19330011 11.2326002,6.37300009 11.2326002,5.36470008 C11.2327002,4.35630006 12.0530002,3.53610005 13.0612002,3.53610005 Z M17.6065003,19.6169003 C20.1239003,20.1308003 22.8132003,20.3913003 25.6000004,20.3913003 C33.7551005,20.3913003 40.5973006,18.1780003 43.5828006,14.9405002 C43.6096006,15.1032002 43.6245007,15.2659002 43.6245007,15.4286002 C43.6245007,17.3052003 41.7862006,19.1986003 38.5810006,20.6232003 C35.1265005,22.1585003 30.5165005,23.0040003 25.6000004,23.0040003 C22.3740003,23.0040003 19.2277003,22.6319003 16.4571002,21.9261003 L16.4571002,19.3616003 C16.8357003,19.4529003 17.2196003,19.5385003 17.6065003,19.6169003 Z M25.6000004,6.6708001 C26.6082004,6.6708001 27.4286004,7.49110011 27.4286004,8.49940013 C27.4286004,9.50760014 26.6083004,10.3280002 25.6000004,10.3280002 C24.5918004,10.3280002 23.7714004,9.50770014 23.7714004,8.49940013 C23.7714004,7.49100011 24.5918004,6.6708001 25.6000004,6.6708001 Z M13.8449002,12.2927002 C13.8449002,11.4007002 14.7523002,10.4675002 16.3343002,9.73240015 C17.9086003,9.00090013 19.9664003,8.54100013 22.2063003,8.41210013 C22.2056003,8.44110013 22.2041003,8.47010013 22.2041003,8.49930013 C22.2041003,10.3719002 23.7275004,11.8952002 25.6000004,11.8952002 C27.2708004,11.8952002 28.6627004,10.6821002 28.9434004,9.09040014 C31.5102005,9.83520015 33.1756005,11.0717002 33.1756005,12.2926002 C33.1756005,14.1459002 29.2062004,16.2110002 23.5103004,16.2110002 C20.9613003,16.2110002 18.5422003,15.7855002 16.6968002,15.0121002 C16.2934002,14.8441002 15.8350002,14.8884002 15.4713002,15.1310002 C15.1073002,15.3738002 14.8898002,15.7803002 14.8898002,16.2183002 L14.8898002,22.4804003 C14.8898002,22.6197003 14.8350002,22.7514003 14.7368002,22.8500003 C14.6384002,22.9485003 14.5071002,23.0029003 14.3673002,23.0029003 C14.0792002,23.0029003 13.8449002,22.7685003 13.8449002,22.4805003 L13.8449002,12.2927002 L13.8449002,12.2927002 Z M43.6245007,23.7871004 C43.6245007,25.6638004 41.7862006,27.5572004 38.5810006,28.9817004 C35.1266005,30.5171005 30.5165005,31.3626005 25.6000004,31.3626005 C20.6835003,31.3626005 16.0734002,30.5171005 12.6190002,28.9817004 C9.41380014,27.5573004 7.57550011,25.6638004 7.57550011,23.7871004 C7.57550011,23.6246004 7.59040011,23.4620003 7.61720011,23.2994003 C10.6026002,26.5369004 17.4448003,28.7503004 25.6000004,28.7503004 C33.7552005,28.7503004 40.5974006,26.5369004 43.5828006,23.2994003 C43.6095006,23.4621003 43.6245007,23.6248004 43.6245007,23.7871004 Z M43.6245007,19.6076003 C43.6245007,21.4843003 41.7862006,23.3777003 38.5810006,24.8022004 C35.1266005,26.3376004 30.5165005,27.1831004 25.6000004,27.1831004 C20.6835003,27.1831004 16.0734002,26.3376004 12.6190002,24.8022004 C9.41380014,23.3778003 7.57550011,21.4843003 7.57550011,19.6076003 C7.57550011,19.4517003 7.58910011,19.2956003 7.61360011,19.1396003 C8.67490013,20.2874003 10.2458002,21.3187003 12.2775002,22.1826003 L12.2775002,22.4806003 C12.2775002,23.6329004 13.2150002,24.5704004 14.3673002,24.5704004 C14.9257002,24.5704004 15.4505002,24.3531004 15.8464002,23.9573004 C15.9900002,23.8131004 16.1093002,23.6515004 16.2039002,23.4778003 C19.0671003,24.1940004 22.2969003,24.5716004 25.6000004,24.5716004 C33.7553005,24.5716004 40.5975006,22.3582003 43.5829006,19.1206003 C43.6095006,19.2827003 43.6245007,19.4453003 43.6245007,19.6076003 Z" id="Shape" fill="#000000" fill-rule="nonzero"></path>
                            </g>
                        </g>
                    </g>
                </g>
            </g>
        </g>
    </g>
</svg>