<?xml version="1.0" encoding="UTF-8"?>
<svg width="26px" height="52px" viewBox="0 0 26 52" version="1.1" xmlns="http://www.w3.org/2000/svg" xmlns:xlink="http://www.w3.org/1999/xlink">
    <!-- Generator: Sketch 62 (91390) - https://sketch.com -->
    <title>pia-colada</title>
    <desc>Created with Sketch.</desc>
    <g id="Page-1" stroke="none" stroke-width="1" fill="none" fill-rule="evenodd">
        <g id="16.3-MAIN-UI---ALL-ITEM-(-ADD)-Copy-2" transform="translate(-915.000000, -1555.000000)">
            <g id="CREATE-ITEM" transform="translate(327.000000, 413.000000)">
                <g id="NOTIFICATION-BAR" transform="translate(66.000000, 545.000000)">
                    <g id="SET-3" transform="translate(23.000000, 485.000000)">
                        <g id="pia-colada" transform="translate(499.000000, 112.000000)">
                            <g>
                                <ellipse id="Oval" fill="#FFFFFF" fill-rule="nonzero" cx="12.7071473" cy="47.7109146" rx="7.89644186" ry="2.60680858"></ellipse>
                                <polygon id="Rectangle-path" fill="#FFFFFF" fill-rule="nonzero" points="11.3910233 39.8904889 14.0231705 39.8904889 14.0231705 47.7108148 11.3910233 47.7108148"></polygon>
                                <path d="M23.2513566,8.71927018 L24.5813876,6.52375828 L1.41851163,6.52375828 L2.74854264,8.71927018 C3.93466667,10.6770464 4.43914729,12.9662752 4.18458915,15.2355431 L2.69755039,28.4911532 C2.01530233,34.5724756 6.82177519,39.8909879 13.0001008,39.8909879 L13.0001008,39.8909879 C19.1783256,39.8909879 23.9848992,34.5723758 23.3025504,28.4910534 L21.8154109,15.2355431 C21.5608527,12.9662752 22.0652326,10.6771462 23.2513566,8.71927018 Z" id="Shape" fill="#FFDA44" fill-rule="nonzero"></path>
                                <path d="M23.3671473,29.6420055 C23.3671473,35.2278955 18.784093,39.8909879 12.9995969,39.8909879 C6.82137209,39.8909879 2.01510078,34.5720764 2.69734884,28.4908538 L2.73423256,28.1602994 L23.2660698,28.1602994 L23.3029535,28.4908538 C23.3460853,28.8776982 23.3671473,29.2624468 23.3671473,29.6420055 Z" id="Shape" fill="#FFF5CC" fill-rule="nonzero"></path>
                                <path d="M21.8152093,15.2357427 L23.2660698,28.1602994 L21.2425039,28.1602994 C21.2782791,27.5847236 21.2635659,26.9986682 21.1972558,26.4054269 L19.7096124,13.1503158 C19.4548527,10.8813474 19.9602403,8.59151969 21.1457597,6.6343423 L21.2120698,6.52385809 L24.581186,6.52385809 L23.2514574,8.71986901 C22.0657364,10.6770464 21.5604496,12.9667743 21.8152093,15.2357427 Z" id="Shape" fill="#EEBF00" fill-rule="nonzero"></path>
                                <path d="M23.3671473,29.6420055 C23.3671473,35.2278955 18.784093,39.8909879 12.9995969,39.8909879 C9.57777519,39.8909879 6.5771938,38.2590752 4.69672868,35.7701365 C5.55694574,36.4070924 6.52237209,36.9159984 7.56468992,37.265416 C8.60700775,37.615632 9.72621705,37.805561 10.8937984,37.805561 C16.4686822,37.805561 20.9275814,33.4741209 21.2424031,28.1603992 L23.265969,28.1603992 L23.3028527,28.4909536 C23.3460853,28.8776982 23.3671473,29.2624468 23.3671473,29.6420055 Z" id="Shape" fill="#FFDA44" fill-rule="nonzero"></path>
                                <path d="M24.5810853,6.52425731 L23.2513566,8.71917037 C22.6806667,9.66182924 22.2679922,10.6805396 22.0215969,11.7378745 L3.97870543,11.7378745 C3.73231008,10.6805396 3.31963566,9.66182924 2.74894574,8.71917037 L1.41810853,6.52425731 L24.5810853,6.52425731 Z" id="Shape" fill="#FFFFFF" fill-rule="nonzero"></path>
                                <path d="M23.0743953,1.73650838 L18.161,11.2159938 L17.4591008,11.2159938 L12.5457054,1.73650838 C15.9165349,0.472876413 19.7037674,0.472876413 23.0743953,1.73650838 Z" id="Shape" fill="#FFF5CC" fill-rule="nonzero"></path>
                                <path d="M23.0743953,1.73660819 L18.1606977,11.2159938 L17.4595039,11.2159938 L16.7572016,9.86153918 L21.2539922,1.18608343 C21.8710388,1.32990253 22.4795194,1.51354386 23.0743953,1.73660819 Z" id="Shape" fill="#EEBF00" fill-rule="nonzero"></path>
                                <path d="M21.3123411,36.9931478 C23.4258992,34.6544156 24.4373798,31.5241294 24.0872868,28.404722 L22.6001473,15.1491119 C22.3659457,13.0624873 22.8377752,10.9218682 23.9283643,9.12158441 L25.9762171,5.74168577 L21.8860543,5.74168577 L24.1805039,1.31493177 L23.3539457,1.00503704 C19.7789457,-0.334945809 15.8412558,-0.334945809 12.266155,1.00503704 L11.4395969,1.31493177 L16.4363333,10.9553029 L6.08410078,10.9553029 L6.08410078,12.5193481 L21.0763256,12.5193481 C20.9437054,13.4454394 20.9255659,14.3880982 21.0302713,15.3217747 L22.5174109,28.5773848 C22.8179225,31.2552546 21.9496434,33.9423064 20.1352868,35.9499852 C18.321031,37.9575641 15.720124,39.1089154 12.9996977,39.1089154 C10.2791705,39.1089154 7.67846512,37.9575641 5.86410853,35.9499852 C4.13228682,34.0334285 3.26320155,31.4978807 3.44913178,28.9422721 L21.1600698,28.9422721 L21.1600698,27.3782269 L3.61692248,27.3782269 L4.96952713,15.3218745 C5.24162016,12.8969107 4.6934031,10.4092694 3.42585271,8.31695595 L2.81334109,7.30573099 L12.9213953,7.30573099 L12.9213953,5.74168577 L0.0238837209,5.74168577 L2.07163566,9.12158441 C3.16232558,10.921968 3.63405426,13.0625871 3.39995349,15.1491119 L1.91271318,28.4048218 C1.56272093,31.5242292 2.57410078,34.6546152 4.68775969,36.9932476 C6.25894574,38.731752 8.33652713,39.9185341 10.6012481,40.4133676 L10.6012481,44.4145528 C7.41342636,44.698099 4.02082946,45.6952515 4.02082946,47.7114136 C4.02082946,48.4611493 4.51573643,49.5183844 6.87367442,50.2967641 C8.44344961,50.814952 10.5150853,51.1002947 12.7069457,51.1002947 C14.8988062,51.1002947 16.9704419,50.8150519 18.5402171,50.2967641 C20.8980543,49.5183844 21.393062,48.4611493 21.393062,47.7114136 C21.393062,45.6951517 18.0005659,44.6979992 14.8126434,44.4145528 L14.8126434,40.5254487 C17.3037054,40.1180444 19.6065194,38.880761 21.3123411,36.9931478 Z M21.9548837,2.1839345 L20.1107984,5.74168577 L17.1327907,5.74168577 L17.1327907,7.30573099 L19.300062,7.30573099 L17.8098992,10.1805162 L13.6651163,2.1838347 C16.3413023,1.37511423 19.279,1.37511423 21.9548837,2.1839345 Z M21.4165426,10.9553029 L19.1837674,10.9553029 L21.0753178,7.30573099 L23.1867597,7.30573099 L22.5742481,8.31685614 C22.0732946,9.14384094 21.6866202,10.0332039 21.4165426,10.9553029 Z M13.2332946,40.6730604 L13.2332946,46.6686503 C13.2332946,47.6747852 14.0598527,48.4933864 15.0757674,48.4933864 L16.1286667,48.4933864 L16.1286667,46.9293411 L15.0757674,46.9293411 C14.9305504,46.9293411 14.8125426,46.8124694 14.8125426,46.6686503 L14.8125426,45.9841871 C18.2662093,46.3084538 19.8136124,47.3363462 19.8136124,47.7113138 C19.8136124,48.2408795 17.3232558,49.5360499 12.706845,49.5360499 C8.09043411,49.5360499 5.60007752,48.2408795 5.60007752,47.7113138 C5.60007752,47.3363462 7.14748062,46.3085536 10.6011473,45.9841871 L10.6011473,46.6686503 C10.6011473,46.8124694 10.4831395,46.9293411 10.3379225,46.9293411 L9.28502326,46.9293411 L9.28502326,48.4933864 L10.3379225,48.4933864 C11.3538372,48.4933864 12.1803953,47.6747852 12.1803953,46.6686503 L12.1803953,40.6730604 L13.2332946,40.6730604 Z" id="Shape" fill="#000000" fill-rule="nonzero"></path>
                                <polygon id="Rectangle-path" fill="#000000" fill-rule="nonzero" points="15.3360698 2.6130963 16.9153178 2.6130963 16.9153178 4.17714152 15.3360698 4.17714152"></polygon>
                                <rect id="Rectangle-path" fill="#000000" fill-rule="nonzero" x="18.4946667" y="3.65585965" width="1.57924806" height="1.56404522"></rect>
                            </g>
                        </g>
                    </g>
                </g>
            </g>
        </g>
    </g>
</svg>