<?xml version="1.0" encoding="UTF-8"?>
<svg width="52px" height="20px" viewBox="0 0 52 20" version="1.1" xmlns="http://www.w3.org/2000/svg" xmlns:xlink="http://www.w3.org/1999/xlink">
    <!-- Generator: Sketch 62 (91390) - https://sketch.com -->
    <title>pie</title>
    <desc>Created with Sketch.</desc>
    <g id="Page-1" stroke="none" stroke-width="1" fill="none" fill-rule="evenodd">
        <g id="16.3-MAIN-UI---ALL-ITEM-(-ADD)-Copy-2" transform="translate(-426.000000, -1037.000000)">
            <g id="CREATE-ITEM" transform="translate(327.000000, 413.000000)">
                <g id="NOTIFICATION-BAR" transform="translate(66.000000, 545.000000)">
                    <g id="SET-1" transform="translate(23.000000, 34.000000)">
                        <g id="pie" transform="translate(10.000000, 45.000000)">
                            <g>
                                <path d="M44.4082007,12.9670167 L6.7918001,12.9670167 C5.63760008,12.9670167 4.70200007,12.0217713 4.70200007,10.8556723 L4.70200007,10.8556723 C4.70200007,9.68957334 5.63760008,8.74432797 6.7918001,8.74432797 L44.4081007,8.74432797 C45.5623007,8.74432797 46.4979007,9.68957334 46.4979007,10.8556723 L46.4979007,10.8556723 C46.4980007,12.0217713 45.5624007,12.9670167 44.4082007,12.9670167 Z" id="Shape" fill="#FFF5CC" fill-rule="nonzero"></path>
                                <ellipse id="Oval" fill="#EEBF00" fill-rule="nonzero" cx="25.6000004" cy="10.8556723" rx="2.08980003" ry="2.11134436"></ellipse>
                                <path d="M21.8384003,12.9670167 L18.0768003,12.9670167 C16.9222003,12.9670167 15.9870002,12.0221754 15.9870002,10.8556723 C15.9870002,10.2729259 16.2211002,9.74514035 16.5993002,9.36294035 C16.9776003,8.98074034 17.5000003,8.74432797 18.0768003,8.74432797 L21.8384003,8.74432797 C20.6838003,8.74432797 19.7486003,9.68916922 19.7486003,10.8556723 C19.7486003,12.0221754 20.6838003,12.9670167 21.8384003,12.9670167 Z" id="Shape" fill="#EEBF00" fill-rule="nonzero"></path>
                                <path d="M29.3616004,8.74432797 L33.1232005,8.74432797 C34.2778005,8.74432797 35.2130005,9.68916922 35.2130005,10.8556723 C35.2130005,11.4384187 34.9789005,11.9662043 34.6007005,12.3484043 C34.2224005,12.7306043 33.7000005,12.9670167 33.1232005,12.9670167 L29.3616004,12.9670167 C30.5162005,12.9670167 31.4514005,12.0221754 31.4514005,10.8556723 C31.4514005,9.68916922 30.5162005,8.74432797 29.3616004,8.74432797 Z" id="Shape" fill="#EEBF00" fill-rule="nonzero"></path>
                                <path d="M36.8849005,8.74432797 L40.6465006,8.74432797 C41.8011006,8.74432797 42.7363006,9.68916922 42.7363006,10.8556723 C42.7363006,11.4384187 42.5022006,11.9662043 42.1240006,12.3484043 C41.7457006,12.7306043 41.2233006,12.9670167 40.6465006,12.9670167 L36.8849005,12.9670167 C38.0395006,12.9670167 38.9747006,12.0221754 38.9747006,10.8556723 C38.9747006,9.68916922 38.0395006,8.74432797 36.8849005,8.74432797 Z" id="Shape" fill="#EEBF00" fill-rule="nonzero"></path>
                                <path d="M14.3151002,12.9670167 L10.5535002,12.9670167 C9.39890014,12.9670167 8.46370013,12.0221754 8.46370013,10.8556723 C8.46370013,10.2729259 8.69780013,9.74514035 9.07600014,9.36294035 C9.45430014,8.98074034 9.97670015,8.74432797 10.5535002,8.74432797 L14.3151002,8.74432797 C13.1605002,8.74432797 12.2253002,9.68916922 12.2253002,10.8556723 C12.2253002,12.0221754 13.1605002,12.9670167 14.3151002,12.9670167 Z" id="Shape" fill="#EEBF00" fill-rule="nonzero"></path>
                                <path d="M43.3810006,8.74432797 L8.13240012,8.74432797 C12.4760002,3.8819114 18.7632003,0.826837126 25.7567004,0.826837126 C32.7502005,0.826837126 39.0374006,3.8819114 43.3810006,8.74432797 Z" id="Shape" fill="#FFDA44" fill-rule="nonzero"></path>
                                <path d="M30.0647004,1.22247425 C31.9589005,2.17661034 33.7092005,3.37877737 35.2735005,4.78745162 C35.9909005,5.43354441 35.5401005,6.6329836 34.5791005,6.6329836 L10.2716002,6.6329836 C9.51560014,7.29109908 8.80090013,7.9960929 8.13250012,8.74432797 L43.3810006,8.74432797 C39.9513006,4.90484956 35.3091005,2.19388663 30.0647004,1.22247425 Z" id="Shape" fill="#EEBF00" fill-rule="nonzero"></path>
                                <rect id="Rectangle-path" fill="#FFFFFF" fill-rule="nonzero" x="0.783700012" y="12.9670167" width="49.6327007" height="2.63912994"></rect>
                                <polyline id="Shape" fill="#FFFFFF" fill-rule="nonzero" points="46.4980007 15.6061466 44.4082007 18.7731632 6.7918001 18.7731632 4.70200007 15.6061466"></polyline>
                                <path d="M51.2000008,12.1752373 L46.9663007,12.1752373 C47.1673007,11.779095 47.2817007,11.3307198 47.2817007,10.8556723 C47.2817007,9.25483725 45.9926007,7.95254857 44.4082007,7.95254857 L43.7231007,7.95254857 C39.0927006,2.91736912 32.5661005,0.0350577325 25.7568004,0.0350577325 C18.9475003,0.0350577325 12.4209002,2.91736912 7.79050012,7.95254857 L6.7919001,7.95254857 C5.20750008,7.95254857 3.91840006,9.25483725 3.91840006,10.8556723 C3.91840006,11.3307198 4.03260006,11.779095 4.23380006,12.1752373 L0,12.1752373 L0,16.397926 L4.28260006,16.397926 L6.37240009,19.5649426 L44.8275007,19.5649426 L46.9173007,16.397926 L51.2000008,16.397926 L51.2000008,12.1752373 Z M45.7143007,10.8556723 C45.7143007,11.5832971 45.1284007,12.1752373 44.4082007,12.1752373 L43.2047006,12.1752373 C43.4057006,11.779095 43.5201006,11.3307198 43.5201006,10.8556723 C43.5201006,10.3806249 43.4059006,9.93224963 43.2047006,9.53610736 L44.4082007,9.53610736 C45.1284007,9.53610736 45.7143007,10.1279465 45.7143007,10.8556723 Z M9.24730014,10.8556723 C9.24730014,10.1280476 9.83320015,9.53610736 10.5534002,9.53610736 L11.7569002,9.53610736 C11.5559002,9.93235066 11.4415002,10.3806249 11.4415002,10.8556723 C11.4415002,11.3307198 11.5557002,11.779095 11.7569002,12.1752373 L10.5534002,12.1752373 C9.83320015,12.1752373 9.24730014,11.5832971 9.24730014,10.8556723 Z M13.0090002,10.8556723 C13.0090002,10.1280476 13.5949002,9.53610736 14.3151002,9.53610736 L15.5186002,9.53610736 C15.3176002,9.93235066 15.2032002,10.3806249 15.2032002,10.8556723 C15.2032002,11.3307198 15.3174002,11.779095 15.5186002,12.1752373 L14.3151002,12.1752373 C13.5949002,12.1752373 13.0090002,11.5832971 13.0090002,10.8556723 Z M16.7706002,10.8556723 C16.7706002,10.1280476 17.3565003,9.53610736 18.0767003,9.53610736 L19.2802003,9.53610736 C19.0792003,9.93235066 18.9648003,10.3806249 18.9648003,10.8556723 C18.9648003,11.3307198 19.0790003,11.779095 19.2802003,12.1752373 L18.0767003,12.1752373 C17.3565003,12.1752373 16.7706002,11.5832971 16.7706002,10.8556723 Z M20.5322003,10.8556723 C20.5322003,10.1280476 21.1181003,9.53610736 21.8383003,9.53610736 L23.0418003,9.53610736 C22.8408003,9.93235066 22.7264003,10.3806249 22.7264003,10.8556723 C22.7264003,11.3307198 22.8406003,11.779095 23.0418003,12.1752373 L21.8383003,12.1752373 C21.1181003,12.1752373 20.5322003,11.5832971 20.5322003,10.8556723 Z M24.2939004,10.8556723 C24.2939004,10.1280476 24.8798004,9.53610736 25.6000004,9.53610736 C26.3202004,9.53610736 26.9061004,10.1280476 26.9061004,10.8556723 C26.9061004,11.5832971 26.3202004,12.1752373 25.6000004,12.1752373 C24.8798004,12.1752373 24.2939004,11.5832971 24.2939004,10.8556723 Z M28.1581004,9.53610736 L29.3616004,9.53610736 C30.0818004,9.53610736 30.6677005,10.1280476 30.6677005,10.8556723 C30.6677005,11.5832971 30.0818004,12.1752373 29.3616004,12.1752373 L28.1581004,12.1752373 C28.3591004,11.779095 28.4735004,11.3307198 28.4735004,10.8556723 C28.4735004,10.3806249 28.3593004,9.93224963 28.1581004,9.53610736 Z M31.9198005,9.53610736 L33.1233005,9.53610736 C33.8435005,9.53610736 34.4294005,10.1280476 34.4294005,10.8556723 C34.4294005,11.5832971 33.8435005,12.1752373 33.1233005,12.1752373 L31.9198005,12.1752373 C32.1208005,11.779095 32.2352005,11.3307198 32.2352005,10.8556723 C32.2351005,10.3806249 32.1209005,9.93224963 31.9198005,9.53610736 Z M35.6814005,9.53610736 L36.8849005,9.53610736 C37.6051006,9.53610736 38.1910006,10.1280476 38.1910006,10.8556723 C38.1910006,11.5832971 37.6051006,12.1752373 36.8849005,12.1752373 L35.6814005,12.1752373 C35.8824005,11.779095 35.9968005,11.3307198 35.9968005,10.8556723 C35.9967005,10.3806249 35.8825005,9.93224963 35.6814005,9.53610736 Z M39.4430006,9.53610736 L40.6465006,9.53610736 C41.3667006,9.53610736 41.9526006,10.1280476 41.9526006,10.8556723 C41.9526006,11.5832971 41.3667006,12.1752373 40.6465006,12.1752373 L39.4430006,12.1752373 C39.6440006,11.779095 39.7584006,11.3307198 39.7584006,10.8556723 C39.7584006,10.3806249 39.6442006,9.93224963 39.4430006,9.53610736 Z M25.7567004,1.61851549 C31.6285005,1.61851549 37.2768006,3.9070681 41.5192006,7.95254857 L9.99420015,7.95254857 C14.2366002,3.90716913 19.8849003,1.61851549 25.7567004,1.61851549 Z M5.48570008,10.8556723 C5.48570008,10.1280476 6.07160009,9.53610736 6.7918001,9.53610736 L7.99530012,9.53610736 C7.79430012,9.93235066 7.67990011,10.3806249 7.67990011,10.8556723 C7.67990011,11.3307198 7.79410012,11.779095 7.99530012,12.1752373 L6.7918001,12.1752373 C6.07160009,12.1752373 5.48570008,11.5832971 5.48570008,10.8556723 Z M43.9887007,17.9814848 L7.21130011,17.9814848 L6.16640009,16.398027 L45.0338007,16.398027 L43.9887007,17.9814848 Z M49.6327007,14.8144683 L1.56730002,14.8144683 L1.56730002,13.7587961 L6.7918001,13.7587961 L44.4081007,13.7587961 L49.6326007,13.7587961 L49.6326007,14.8144683 L49.6327007,14.8144683 Z" id="Shape" fill="#000000" fill-rule="nonzero"></path>
                            </g>
                        </g>
                    </g>
                </g>
            </g>
        </g>
    </g>
</svg>