<?xml version="1.0" encoding="UTF-8"?>
<svg width="52px" height="38px" viewBox="0 0 52 38" version="1.1" xmlns="http://www.w3.org/2000/svg" xmlns:xlink="http://www.w3.org/1999/xlink">
    <!-- Generator: Sketch 62 (91390) - https://sketch.com -->
    <title>piece-of-cake</title>
    <desc>Created with Sketch.</desc>
    <g id="Page-1" stroke="none" stroke-width="1" fill="none" fill-rule="evenodd">
        <g id="16.3-MAIN-UI---ALL-ITEM-(-ADD)-Copy-2" transform="translate(-429.000000, -1169.000000)">
            <g id="CREATE-ITEM" transform="translate(327.000000, 413.000000)">
                <g id="NOTIFICATION-BAR" transform="translate(66.000000, 545.000000)">
                    <g id="SET-1" transform="translate(23.000000, 34.000000)">
                        <g id="piece-of-cake" transform="translate(13.000000, 177.000000)">
                            <g>
                                <polygon id="Shape" fill="#FFF5CC" fill-rule="nonzero" points="0.783700012 23.1419003 17.2408003 8.51330013 50.4163008 23.1419003 50.4163008 36.7255005 0.783700012 36.7255005"></polygon>
                                <rect id="Rectangle-path" fill="#FFDA44" fill-rule="nonzero" x="0.783700012" y="23.1415003" width="49.6327007" height="13.5837002"></rect>
                                <rect id="Rectangle-path" fill="#EEBF00" fill-rule="nonzero" x="0.783700012" y="29.9334004" width="49.6327007" height="6.7918001"></rect>
                                <path d="M35.0041005,16.7802003 C30.7015005,21.0828003 23.7256004,21.0828003 19.4229003,16.7802003 C15.1202002,12.4776002 15.1202002,5.50170008 19.4229003,1.19900002 L35.0041005,16.7802003 Z" id="Shape" fill="#FFDA44" fill-rule="nonzero"></path>
                                <path d="M33.7137005,15.4899002 C29.4036004,18.6470003 23.3178003,18.2781003 19.4228003,14.3831002 C17.5768003,12.5371002 16.5236002,10.1990002 16.2616002,7.79100012 C15.9129002,10.9954002 16.9662003,14.3235002 19.4228003,16.7802003 C23.7254004,21.0828003 30.7013005,21.0828003 35.0040005,16.7802003 L33.7137005,15.4899002 Z" id="Shape" fill="#EEBF00" fill-rule="nonzero"></path>
                                <path d="M37.6723006,16.6664002 L37.0399006,18.1005003 L46.6965007,22.3583003 L2.84490004,22.3583003 L14.8086002,11.7240002 L13.7673002,10.5526002 L0,22.7899003 L0,37.5092006 L51.2000008,37.5092006 L51.2000008,22.6309003 L37.6723006,16.6664002 Z M1.56730002,35.9419005 L1.56730002,23.9255004 L49.6326007,23.9255004 L49.6326007,29.1500004 L3.91840006,29.1500004 L3.91840006,30.7173005 L49.6327007,30.7173005 L49.6327007,35.9418005 L1.56730002,35.9418005 L1.56730002,35.9419005 Z" id="Shape" fill="#000000" fill-rule="nonzero"></path>
                                <path d="M27.2134004,20.7853003 C30.2350005,20.7853003 33.2578005,19.6347003 35.5582005,17.3344003 L36.1123005,16.7802003 L19.4229003,0.0908000014 L18.8688003,0.64490001 C16.6398002,2.87390004 15.4123002,5.83740009 15.4123002,8.98970013 C15.4123002,12.1420002 16.6398002,15.1055002 18.8688003,17.3345003 C21.1697003,19.6353003 24.1911004,20.7853003 27.2134004,20.7853003 Z M26.4298004,19.1881003 C24.3208004,19.0275003 22.2538003,18.2161003 20.5543003,16.7571002 L26.4298004,10.8815002 L26.4298004,19.1881003 Z M19.4438003,15.6511002 C18.0191003,13.9945002 17.1730003,11.9523002 17.0092003,9.77330015 L25.3215004,9.77330015 L19.4438003,15.6511002 Z M27.9971004,19.1865003 L27.9971004,10.8817002 L33.8748005,16.7594002 C32.1752005,18.2186003 30.1064004,19.0259003 27.9971004,19.1865003 Z M19.4437003,2.32810003 L25.3216004,8.20600012 L17.0110003,8.20600012 C17.1751003,6.02730009 18.0191003,3.98450006 19.4437003,2.32810003 Z" id="Shape" fill="#000000" fill-rule="nonzero"></path>
                            </g>
                        </g>
                    </g>
                </g>
            </g>
        </g>
    </g>
</svg>