<?xml version="1.0" encoding="UTF-8"?>
<svg width="44px" height="52px" viewBox="0 0 44 52" version="1.1" xmlns="http://www.w3.org/2000/svg" xmlns:xlink="http://www.w3.org/1999/xlink">
    <!-- Generator: Sketch 62 (91390) - https://sketch.com -->
    <title>pizza</title>
    <desc>Created with Sketch.</desc>
    <g id="Page-1" stroke="none" stroke-width="1" fill="none" fill-rule="evenodd">
        <g id="16.3-MAIN-UI---ALL-ITEM-(-ADD)-Copy-2" transform="translate(-676.000000, -1155.000000)">
            <g id="CREATE-ITEM" transform="translate(327.000000, 413.000000)">
                <g id="NOTIFICATION-BAR" transform="translate(66.000000, 545.000000)">
                    <g id="SET-1" transform="translate(23.000000, 34.000000)">
                        <g id="pizza" transform="translate(260.000000, 163.000000)">
                            <g>
                                <path d="M29.3995,15.7721 C28.9107,15.9911 28.3694,16.114 27.7991,16.114 C25.635,16.114 23.8807,14.3597 23.8807,12.1956 C23.8807,10.628 24.8015,9.2762 26.1314,8.6495 L22.5224,0.7837 L21.4775,0.7837 L9.8919,26.0344 C11.6023,26.7379 12.807,28.4199 12.807,30.384 C12.807,32.9809 10.7018,35.086 8.105,35.086 C7.3374,35.086 6.6135,34.9008 5.9735,34.5747 L1.102,45.1918 C14.4828,52.1578 29.5172,52.1578 42.8979,45.1918 L29.3995,15.7721 Z" id="Shape" fill="#FFDA44" fill-rule="nonzero"></path>
                                <path d="M42.898,45.1918 C29.517,52.1581 14.483,52.1581 1.1021,45.1918 L3.4531,40.0676 C15.437,45.5073 28.563,45.5073 40.547,40.0676 L42.898,45.1918 Z" id="Shape" fill="#FF9811" fill-rule="nonzero"></path>
                                <path d="M37.6756,42.784 C38.7085,42.3664 39.8869,42.8394 40.3516,43.8519 L41.3251,45.9738 C41.8517,45.7233 42.3763,45.4636 42.8981,45.1919 L40.5471,40.0677 C28.5632,45.5074 15.4372,45.5074 3.4532,40.0677 L2.5395,42.0591 C13.8815,47.1664 26.2376,47.4085 37.6756,42.784 Z" id="Shape" fill="#DD7903" fill-rule="nonzero"></path>
                                <path d="M40.5468,40.0677 L29.3995,15.7721 C28.9107,15.9911 28.3694,16.114 27.7991,16.114 C25.635,16.114 23.8807,14.3597 23.8807,12.1956 C23.8807,10.628 24.8015,9.2762 26.1314,8.6495 L22.5224,0.7837 L21.4775,0.7837 L9.8919,26.0344 C11.6023,26.7379 12.807,28.4199 12.807,30.384 C12.807,32.9809 10.7018,35.086 8.105,35.086 C7.3374,35.086 6.6135,34.9008 5.9735,34.5747 L3.4532,40.0677 C15.437,45.5074 28.563,45.5074 40.5468,40.0677 Z" id="Shape" fill="#FFDA44" fill-rule="nonzero"></path>
                                <path d="M29.3995,15.7721 C28.9107,15.9911 28.3694,16.114 27.7991,16.114 C27.219,16.114 26.6687,15.9869 26.1734,15.7606 L35.4715,36.0258 C35.9697,37.1117 35.4584,38.3954 34.349,38.8383 C24.3699,42.822 13.7013,43.1081 3.6229,39.6973 L3.453,40.0676 C15.4369,45.5073 28.5628,45.5073 40.5468,40.0676 L29.3995,15.7721 Z" id="Shape" fill="#EEBF00" fill-rule="nonzero"></path>
                                <circle id="Oval" fill="#FF505D" fill-rule="nonzero" cx="28.0082" cy="34.5631" r="4.702"></circle>
                                <path d="M30.1195,30.3624 C30.4392,30.9974 30.6204,31.7142 30.6204,32.4737 C30.6204,35.0706 28.5152,37.1757 25.9184,37.1757 C25.1589,37.1757 24.4422,36.9945 23.8071,36.6748 C24.5807,38.211 26.1709,39.2655 28.0082,39.2655 C30.6051,39.2655 32.7102,37.1603 32.7102,34.5635 C32.7102,32.7261 31.6557,31.1361 30.1195,30.3624 Z" id="Shape" fill="#E21220" fill-rule="nonzero"></path>
                                <circle id="Oval" fill="#FF505D" fill-rule="nonzero" cx="19.3878" cy="21.0777" r="3.9184"></circle>
                                <path d="M20.9096,17.4656 C21.107,17.9335 21.2163,18.4478 21.2163,18.9875 C21.2163,21.1516 19.462,22.9059 17.2979,22.9059 C16.7581,22.9059 16.2439,22.7967 15.776,22.5992 C16.3701,24.0073 17.7634,24.9957 19.3877,24.9957 C21.5518,24.9957 23.3061,23.2414 23.3061,21.0773 C23.3061,19.453 22.3178,18.0596 20.9096,17.4656 Z" id="Shape" fill="#E21220" fill-rule="nonzero"></path>
                                <circle id="Oval" fill="#91DC5A" fill-rule="nonzero" cx="17.1935" cy="34.1682" r="1.8286"></circle>
                                <circle id="Oval" fill="#91DC5A" fill-rule="nonzero" cx="28.2171" cy="24.2124" r="1.8286"></circle>
                                <path d="M5.6678,40.1617 L5.0835,41.6161 C10.5576,43.8154 16.2492,44.9306 22,44.9307 L22.0009,44.9307 C27.752,44.9307 33.4433,43.8155 38.9164,41.6161 L38.332,40.1618 C33.0451,42.2864 27.5501,43.3636 21.9998,43.3634 C16.4503,43.3633 10.9553,42.2861 5.6678,40.1617 Z" id="Shape" fill="#000000" fill-rule="nonzero"></path>
                                <path d="M22.5224,34.5635 C22.5224,37.5884 24.9832,40.0492 28.0081,40.0492 C31.033,40.0492 33.4938,37.5884 33.4938,34.5635 C33.4938,31.5387 31.033,29.0778 28.0081,29.0778 C24.9832,29.0778 22.5224,31.5387 22.5224,34.5635 Z M31.9265,34.5635 C31.9265,36.7241 30.1688,38.4819 28.0081,38.4819 C25.8474,38.4819 24.0897,36.7242 24.0897,34.5635 C24.0897,32.403 25.8474,30.6451 28.0081,30.6451 C30.1688,30.6451 31.9265,32.4029 31.9265,34.5635 Z" id="Shape" fill="#000000" fill-rule="nonzero"></path>
                                <path d="M19.3878,25.7793 C21.9805,25.7793 24.0898,23.67 24.0898,21.0773 C24.0898,18.4846 21.9805,16.3753 19.3878,16.3753 C16.7951,16.3753 14.6858,18.4846 14.6858,21.0773 C14.6858,23.67 16.795,25.7793 19.3878,25.7793 Z M19.3878,17.9426 C21.1163,17.9426 22.5225,19.3488 22.5225,21.0773 C22.5225,22.8058 21.1163,24.212 19.3878,24.212 C17.6593,24.212 16.2531,22.8058 16.2531,21.0773 C16.2531,19.3488 17.6593,17.9426 19.3878,17.9426 Z" id="Shape" fill="#000000" fill-rule="nonzero"></path>
                                <path d="M17.1935,36.7804 C18.6339,36.7804 19.8057,35.6085 19.8057,34.1682 C19.8057,32.7278 18.6338,31.556 17.1935,31.556 C15.7531,31.556 14.5813,32.7279 14.5813,34.1682 C14.5812,35.6086 15.7531,36.7804 17.1935,36.7804 Z M17.1935,33.1233 C17.7697,33.1233 18.2384,33.592 18.2384,34.1682 C18.2384,34.7444 17.7697,35.2131 17.1935,35.2131 C16.6173,35.2131 16.1486,34.7444 16.1486,34.1682 C16.1486,33.592 16.6173,33.1233 17.1935,33.1233 Z" id="Shape" fill="#000000" fill-rule="nonzero"></path>
                                <path d="M25.6049,24.212 C25.6049,25.6524 26.7768,26.8242 28.2171,26.8242 C29.6575,26.8242 30.8293,25.6523 30.8293,24.212 C30.8293,22.7716 29.6574,21.5998 28.2171,21.5998 C26.7767,21.5997 25.6049,22.7716 25.6049,24.212 Z M29.262,24.212 C29.262,24.7882 28.7933,25.2569 28.2171,25.2569 C27.6409,25.2569 27.1722,24.7882 27.1722,24.212 C27.1722,23.6358 27.6409,23.1671 28.2171,23.1671 C28.7933,23.1671 29.262,23.6358 29.262,24.212 Z" id="Shape" fill="#000000" fill-rule="nonzero"></path>
                                <path d="M29.7879,14.7393 L29.079,15.0569 C28.6742,15.2383 28.2436,15.3302 27.7991,15.3302 C26.0706,15.3302 24.6644,13.924 24.6644,12.1955 C24.6644,10.9875 25.3714,9.8738 26.4654,9.3584 L27.1673,9.0278 L23.0251,0 L20.975,0 L8.8395,26.4489 L9.5938,26.7591 C11.0697,27.3661 12.0233,28.7889 12.0233,30.3838 C12.0233,32.5444 10.2656,34.3022 8.1049,34.3022 C7.4811,34.3022 6.8836,34.1589 6.3292,33.8764 L5.6016,33.5056 L0.0789,45.5427 L0.7402,45.8869 C7.5122,49.4125 14.665,51.2 22,51.2 C29.335,51.2 36.4878,49.4125 43.2598,45.8869 L43.9211,45.5426 L29.7879,14.7393 Z M22,49.6327 C15.1584,49.6327 8.4764,48.0192 2.1276,44.8359 L6.3702,35.5893 C6.9263,35.7756 7.507,35.8698 8.1049,35.8698 C11.1298,35.8698 13.5906,33.409 13.5906,30.3841 C13.5906,28.4264 12.5646,26.654 10.9194,25.6743 L21.9802,1.5673 L22.0198,1.5673 L25.1229,8.3305 C23.8723,9.2002 23.0972,10.646 23.0972,12.1956 C23.0972,14.7883 25.2065,16.8976 27.7992,16.8976 C28.2032,16.8976 28.5996,16.8469 28.9844,16.7465 L41.8724,44.8358 C35.5236,48.0191 28.8416,49.6327 22,49.6327 Z" id="Shape" fill="#000000" fill-rule="nonzero"></path>
                            </g>
                        </g>
                    </g>
                </g>
            </g>
        </g>
    </g>
</svg>