<?xml version="1.0" encoding="UTF-8"?>
<svg width="15px" height="52px" viewBox="0 0 15 52" version="1.1" xmlns="http://www.w3.org/2000/svg" xmlns:xlink="http://www.w3.org/1999/xlink">
    <!-- Generator: Sketch 62 (91390) - https://sketch.com -->
    <title>popsicle</title>
    <desc>Created with Sketch.</desc>
    <g id="Page-1" stroke="none" stroke-width="1" fill="none" fill-rule="evenodd">
        <g id="16.3-MAIN-UI---ALL-ITEM-(-ADD)-Copy-2" transform="translate(-1138.000000, -1279.000000)">
            <g id="CREATE-ITEM" transform="translate(327.000000, 413.000000)">
                <g id="NOTIFICATION-BAR" transform="translate(66.000000, 545.000000)">
                    <g id="SET-2" transform="translate(23.000000, 279.000000)">
                        <g id="popsicle" transform="translate(722.000000, 42.000000)">
                            <g>
                                <path d="M7.2,50.4163 L7.2,50.4163 C6.32220845,50.4163 5.61062535,49.7145 5.61062535,48.849 L5.61062535,35.2653 L8.78947606,35.2653 L8.78947606,48.849 C8.78937465,49.7146 8.07779155,50.4163 7.2,50.4163 Z" id="Shape" fill="#FF9811" fill-rule="nonzero"></path>
                                <path d="M13.5577014,35.2653 L0.842298592,35.2653 L0.842298592,2.8735 C0.842298592,1.7193 1.79107606,0.7837 2.96153239,0.7837 L11.4384676,0.7837 C12.6089239,0.7837 13.5577014,1.7193 13.5577014,2.8735 L13.5577014,35.2653 Z" id="Shape" fill="#91DC5A" fill-rule="nonzero"></path>
                                <polygon id="Rectangle-path" fill="#6DC82A" fill-rule="nonzero" points="11.4384676 24.1194 13.5577014 24.1194 13.5577014 35.2653 11.4384676 35.2653"></polygon>
                                <polygon id="Rectangle-path" fill="#C9EEAE" fill-rule="nonzero" points="0.842298592 24.1194 2.96153239 24.1194 2.96153239 35.2653 0.842298592 35.2653"></polygon>
                                <path d="M13.5577014,2.8735 L13.5577014,24.1194 L10.3788507,24.1194 L10.3788507,28.0378 C10.3788507,28.7598 9.78550986,29.3439 9.05435493,29.3439 C8.68877746,29.3439 8.35717183,29.1976 8.11764507,28.9615 C7.87821972,28.7254 7.72985915,28.3983 7.72985915,28.0378 L7.72985915,24.1194 L0.8424,24.1194 L0.8424,2.8735 C0.8424,1.7189 1.79077183,0.7837 2.9616338,0.7837 L11.438569,0.7837 C12.6093296,0.7837 13.5577014,1.7189 13.5577014,2.8735 Z" id="Shape" fill="#FFDA44" fill-rule="nonzero"></path>
                                <rect id="Rectangle-path" fill="#EEBF00" fill-rule="nonzero" x="11.4384676" y="12.9735" width="2.1192338" height="11.1459"></rect>
                                <polygon id="Rectangle-path" fill="#FFF5CC" fill-rule="nonzero" points="0.842298592 12.9735 2.96153239 12.9735 2.96153239 24.1194 0.842298592 24.1194"></polygon>
                                <path d="M13.5577014,2.8735 L13.5577014,12.9745 L6.67024225,12.9745 L6.67024225,16.8929 C6.67024225,17.2534 6.52188169,17.5794 6.28245634,17.8166 C6.04303099,18.0527 5.71132394,18.199 5.34574648,18.199 C4.61459155,18.199 4.0212507,17.6139 4.0212507,16.8929 L4.0212507,12.9745 L0.8424,12.9745 L0.8424,2.8735 C0.8424,1.7189 1.79077183,0.7837 2.9616338,0.7837 L11.438569,0.7837 C12.6093296,0.7837 13.5577014,1.7189 13.5577014,2.8735 Z" id="Shape" fill="#FF505D" fill-rule="nonzero"></path>
                                <path d="M11.4384676,0.7837 L9.3192338,0.7837 C10.4900958,0.7837 11.4384676,1.7189 11.4384676,2.8735 L11.4384676,12.9745 L13.5577014,12.9745 L13.5577014,2.8735 C13.5577014,1.7189 12.6093296,0.7837 11.4384676,0.7837 Z" id="Shape" fill="#E21220" fill-rule="nonzero"></path>
                                <path d="M2.96153239,0.7837 L5.0807662,0.7837 C3.90990423,0.7837 2.96153239,1.7189 2.96153239,2.8735 L2.96153239,12.9745 L0.842298592,12.9745 L0.842298592,2.8735 C0.842298592,1.7189 1.79067042,0.7837 2.96153239,0.7837 Z" id="Shape" fill="#FF7C80" fill-rule="nonzero"></path>
                                <path d="M14.3524394,2.8735 C14.3524394,1.289 13.0451831,0 11.4384676,0 L2.96153239,0 C1.3548169,0 0.0475605634,1.289 0.0475605634,2.8735 L0.0475605634,36.049 L4.81578592,36.049 L4.81578592,48.849 C4.81578592,50.1454 5.88534085,51.2 7.19989859,51.2 C8.51445634,51.2 9.58401127,50.1454 9.58401127,48.849 L9.58401127,36.049 L14.3522366,36.049 L14.3522366,2.8735 L14.3524394,2.8735 Z M7.99473803,48.849 C7.99473803,49.2812 7.63828732,49.6327 7.2,49.6327 C6.76171268,49.6327 6.40526197,49.2812 6.40526197,48.849 L6.40526197,36.049 L7.99463662,36.049 L7.99463662,48.849 L7.99473803,48.849 Z M1.63703662,34.4816 L1.63703662,13.7582 L3.22641127,13.7582 L3.22641127,16.8929 C3.22641127,18.0452 4.17711549,18.9827 5.34564507,18.9827 C5.91190986,18.9827 6.44410141,18.7654 6.84557746,18.3694 C7.24492394,17.9738 7.46487887,17.4494 7.46487887,16.8929 L7.46487887,13.7582 L11.4384676,13.7582 L11.4384676,12.1909 L5.87550423,12.1909 L5.87550423,16.8929 C5.87550423,17.0322 5.81993239,17.1638 5.7203493,17.2625 C5.62046197,17.361 5.48731268,17.4154 5.34564507,17.4154 C5.05348732,17.4154 4.81588732,17.181 4.81588732,16.893 L4.81588732,12.191 L1.63703662,12.191 L1.63703662,2.8735 C1.63703662,2.1533 2.23118873,1.5674 2.96153239,1.5674 L11.4384676,1.5674 C12.1688113,1.5674 12.7629634,2.1533 12.7629634,2.8735 L12.7629634,23.3357 L9.58411268,23.3357 L9.58411268,28.0377 C9.58411268,28.3258 9.34641127,28.5601 9.05435493,28.5601 C8.91268732,28.5601 8.77963944,28.5058 8.6796507,28.4072 C8.57966197,28.3086 8.52449577,28.1773 8.52449577,28.0376 L8.52449577,23.3356 L2.96153239,23.3356 L2.96153239,24.9029 L6.93512113,24.9029 L6.93512113,28.0376 C6.93512113,28.5959 7.15548169,29.1207 7.55563944,29.5154 C7.95579718,29.9101 8.48809014,30.1274 9.05435493,30.1274 C10.2228845,30.1274 11.1735887,29.1899 11.1735887,28.0376 L11.1735887,24.9029 L12.7629634,24.9029 L12.7629634,34.4815 L1.63703662,34.4815 L1.63703662,34.4816 Z" id="Shape" fill="#000000" fill-rule="nonzero"></path>
                            </g>
                        </g>
                    </g>
                </g>
            </g>
        </g>
    </g>
</svg>