<?xml version="1.0" encoding="UTF-8"?>
<svg width="23px" height="52px" viewBox="0 0 23 52" version="1.1" xmlns="http://www.w3.org/2000/svg" xmlns:xlink="http://www.w3.org/1999/xlink">
    <!-- Generator: Sketch 62 (91390) - https://sketch.com -->
    <title>popsicle-2</title>
    <desc>Created with Sketch.</desc>
    <g id="Page-1" stroke="none" stroke-width="1" fill="none" fill-rule="evenodd">
        <g id="16.3-MAIN-UI---ALL-ITEM-(-ADD)-Copy-2" transform="translate(-1070.000000, -1279.000000)">
            <g id="CREATE-ITEM" transform="translate(327.000000, 413.000000)">
                <g id="NOTIFICATION-BAR" transform="translate(66.000000, 545.000000)">
                    <g id="SET-2" transform="translate(23.000000, 279.000000)">
                        <g id="popsicle-2" transform="translate(654.000000, 42.000000)">
                            <g>
                                <path d="M11.4,50.4163 L11.4,50.4163 C10.5267398,50.4163 9.81883009,49.7145 9.81883009,48.849 L9.81883009,35.2653 L12.9812708,35.2653 L12.9812708,48.849 C12.9811699,49.7146 12.2732602,50.4163 11.4,50.4163 Z" id="Shape" fill="#FF9811" fill-rule="nonzero"></path>
                                <path d="M21.941469,35.2653 L0.858530973,35.2653 L0.858530973,3.9184 C0.858530973,2.1871 2.27445133,0.7837 4.02097168,0.7837 L18.7790283,0.7837 C20.5256496,0.7837 21.941469,2.1871 21.941469,3.9184 L21.941469,35.2653 Z" id="Shape" fill="#FF505D" fill-rule="nonzero"></path>
                                <path d="M18.7790283,0.7837 L16.6707345,0.7837 C18.4173558,0.7837 19.8331752,2.1871 19.8331752,3.9184 L19.8331752,35.2653 L21.941469,35.2653 L21.941469,3.9184 C21.941469,2.1871 20.5256496,0.7837 18.7790283,0.7837 Z" id="Shape" fill="#E21220" fill-rule="nonzero"></path>
                                <path d="M4.02097168,0.7837 L6.12926549,0.7837 C4.38274513,0.7837 2.96682478,2.1871 2.96682478,3.9184 L2.96682478,35.2653 L0.858530973,35.2653 L0.858530973,3.9184 C0.858530973,2.1871 2.27445133,0.7837 4.02097168,0.7837 Z" id="Shape" fill="#FF7C80" fill-rule="nonzero"></path>
                                <rect id="Rectangle-path" fill="#91DC5A" fill-rule="nonzero" x="0.858530973" y="24.0327" width="21.0829381" height="11.2327"></rect>
                                <rect id="Rectangle-path" fill="#6DC82A" fill-rule="nonzero" x="19.8331752" y="24.0327" width="2.10829381" height="11.2327"></rect>
                                <rect id="Rectangle-path" fill="#C9EEAE" fill-rule="nonzero" x="0.858530973" y="24.0327" width="2.10829381" height="11.2327"></rect>
                                <path d="M7.71053628,30.302 L7.71053628,30.302 C6.83727611,30.302 6.12936637,29.6002 6.12936637,28.7347 L6.12936637,9.4041 C6.12936637,8.5385 6.83737699,7.8368 7.71053628,7.8368 L7.71053628,7.8368 C8.58379646,7.8368 9.29170619,8.5386 9.29170619,9.4041 L9.29170619,28.7347 C9.29170619,29.6003 8.58369558,30.302 7.71053628,30.302 Z" id="Shape" fill="#FF7C80" fill-rule="nonzero"></path>
                                <path d="M9.29170619,24.0327 L9.29170619,28.7347 C9.29170619,29.5999 8.58329204,30.302 7.71053628,30.302 C6.83767965,30.302 6.12936637,29.5998 6.12936637,28.7347 L6.12936637,24.0327 L9.29170619,24.0327 L9.29170619,24.0327 Z" id="Shape" fill="#C9EEAE" fill-rule="nonzero"></path>
                                <path d="M15.0894637,30.302 L15.0894637,30.302 C14.2162035,30.302 13.5082938,29.6002 13.5082938,28.7347 L13.5082938,9.4041 C13.5082938,8.5385 14.2163044,7.8368 15.0894637,7.8368 L15.0894637,7.8368 C15.9627239,7.8368 16.6706336,8.5386 16.6706336,9.4041 L16.6706336,28.7347 C16.6707345,29.6003 15.9627239,30.302 15.0894637,30.302 Z" id="Shape" fill="#FF7C80" fill-rule="nonzero"></path>
                                <path d="M16.6707345,24.0327 L16.6707345,28.7347 C16.6707345,29.5999 15.9623204,30.302 15.0895646,30.302 C14.2168088,30.302 13.5083947,29.5998 13.5083947,28.7347 L13.5083947,24.0327 L16.6707345,24.0327 L16.6707345,24.0327 Z" id="Shape" fill="#C9EEAE" fill-rule="nonzero"></path>
                                <path d="M22.7321044,3.9184 C22.7321044,1.7577 20.9587487,0 18.7790283,0 L4.02097168,0 C1.84125133,0 0.0678955752,1.7577 0.0678955752,3.9184 L0.0678955752,36.049 L9.02809381,36.049 L9.02809381,48.849 C9.02809381,50.1454 10.0920265,51.2 11.3998991,51.2 C12.7076708,51.2 13.7717044,50.1454 13.7717044,48.849 L13.7717044,36.049 L22.7319027,36.049 L22.7319027,3.9184 L22.7321044,3.9184 Z M4.02097168,1.5673 L18.7790283,1.5673 C20.0868,1.5673 21.1508336,2.6219 21.1508336,3.9183 L21.1508336,23.249 L1.64916637,23.249 L1.64916637,3.9184 C1.64916637,2.622 2.71309912,1.5673 4.02097168,1.5673 Z M14.2989292,24.8163 L15.8800991,24.8163 L15.8800991,28.7347 C15.8800991,29.1669 15.5254885,29.5184 15.0894637,29.5184 C14.6534389,29.5184 14.2988283,29.1669 14.2988283,28.7347 L14.2988283,24.8163 L14.2989292,24.8163 Z M6.91990088,24.8163 L8.5010708,24.8163 L8.5010708,28.7347 C8.5010708,29.1669 8.14646018,29.5184 7.7104354,29.5184 C7.27441062,29.5184 6.9198,29.1669 6.9198,28.7347 L6.9198,24.8163 L6.91990088,24.8163 Z M12.1906354,48.849 C12.1906354,49.2812 11.8360248,49.6327 11.4,49.6327 C10.9639752,49.6327 10.6093646,49.2812 10.6093646,48.849 L10.6093646,36.049 L12.1905345,36.049 L12.1905345,48.849 L12.1906354,48.849 Z M1.64916637,34.4816 L1.64916637,24.8163 L5.33863009,24.8163 L5.33863009,28.7347 C5.33863009,30.0311 6.40256283,31.0857 7.7104354,31.0857 C9.01830796,31.0857 10.0822407,30.0311 10.0822407,28.7347 L10.0822407,24.8163 L12.7175575,24.8163 L12.7175575,28.7347 C12.7175575,30.0311 13.7815912,31.0857 15.0893628,31.0857 C16.3971345,31.0857 17.4611681,30.0311 17.4611681,28.7347 L17.4611681,24.8163 L21.1506319,24.8163 L21.1506319,34.4816 L1.64916637,34.4816 Z" id="Shape" fill="#000000" fill-rule="nonzero"></path>
                                <path d="M14.2989292,9.4041 C14.2989292,8.9719 14.6535398,8.6204 15.0895646,8.6204 C15.5255894,8.6204 15.8802,8.9719 15.8802,9.4041 L15.8802,21.9429 L17.4613699,21.9429 L17.4613699,9.4041 C17.4613699,8.1077 16.3973363,7.0531 15.0895646,7.0531 C13.7817929,7.0531 12.7177593,8.1077 12.7177593,9.4041 L12.7177593,21.9429 L14.2989292,21.9429 L14.2989292,9.4041 Z" id="Shape" fill="#000000" fill-rule="nonzero"></path>
                                <path d="M6.91990088,9.4041 C6.91990088,8.9719 7.2745115,8.6204 7.71053628,8.6204 C8.14656106,8.6204 8.50117168,8.9719 8.50117168,9.4041 L8.50117168,21.9429 L10.0823416,21.9429 L10.0823416,9.4041 C10.0823416,8.1077 9.01840885,7.0531 7.71053628,7.0531 C6.40266372,7.0531 5.33873097,8.1077 5.33873097,9.4041 L5.33873097,21.9429 L6.91990088,21.9429 L6.91990088,9.4041 Z" id="Shape" fill="#000000" fill-rule="nonzero"></path>
                            </g>
                        </g>
                    </g>
                </g>
            </g>
        </g>
    </g>
</svg>