<?xml version="1.0" encoding="UTF-8"?>
<svg width="52px" height="44px" viewBox="0 0 52 44" version="1.1" xmlns="http://www.w3.org/2000/svg" xmlns:xlink="http://www.w3.org/1999/xlink">
    <!-- Generator: Sketch 62 (91390) - https://sketch.com -->
    <title>pudding-1</title>
    <desc>Created with Sketch.</desc>
    <g id="Page-1" stroke="none" stroke-width="1" fill="none" fill-rule="evenodd">
        <g id="16.3-MAIN-UI---ALL-ITEM-(-ADD)-Copy-2" transform="translate(-508.000000, -1013.000000)">
            <g id="CREATE-ITEM" transform="translate(327.000000, 413.000000)">
                <g id="NOTIFICATION-BAR" transform="translate(66.000000, 545.000000)">
                    <g id="SET-1" transform="translate(23.000000, 34.000000)">
                        <g id="pudding-1" transform="translate(92.000000, 21.000000)">
                            <g>
                                <ellipse id="Oval" fill="#FFFFFF" fill-rule="nonzero" cx="25.6000004" cy="29.5678327" rx="24.8163004" ry="13.2263716"></ellipse>
                                <path d="M25.6000004,16.3414611 C20.9971003,16.3414611 16.6881002,17.0101284 12.9931002,18.1739671 C15.6243002,17.6676445 18.4617003,17.3911763 21.4204003,17.3911763 C35.1261005,17.3911763 46.2367007,23.31284 46.2367007,30.6175479 C46.2367007,35.4691028 41.3346006,39.7097554 34.0273005,42.0114135 C43.5845006,40.1723776 50.4163008,35.295607 50.4163008,29.5678327 C50.4163008,22.2631248 39.3057006,16.3414611 25.6000004,16.3414611 Z" id="Shape" fill="#EBE5DD" fill-rule="nonzero"></path>
                                <path d="M37.0939006,9.20341765 L41.2735006,30.1977221 C41.2735006,33.0964189 34.2563005,35.4462982 25.6000004,35.4462982 C16.9437003,35.4462982 9.92650015,33.0964189 9.92650015,30.1977221 L14.1061002,9.20341765" id="Shape" fill="#FFF5CC" fill-rule="nonzero"></path>
                                <path d="M37.0939006,9.20341765 L35.0041005,9.20341765 L39.1837006,30.1977221 C39.1837006,32.9788798 32.7240005,35.2543176 24.5551004,35.4344438 C24.9005004,35.4420789 25.2488004,35.4462982 25.6000004,35.4462982 C34.2563005,35.4462982 41.2735006,33.0964189 41.2735006,30.1977221 L37.0939006,9.20341765 Z" id="Shape" fill="#FFDA44" fill-rule="nonzero"></path>
                                <path d="M25.6000004,5.5294646 C19.2521003,5.5294646 14.1061002,7.17441025 14.1061002,9.20341765 C14.1061002,10.1591015 15.2480002,11.0293937 17.1189003,11.6829919 L17.1189003,15.2393053 C17.1189003,15.9639293 17.7036003,16.5514242 18.4250003,16.5514242 L18.4250003,16.5514242 C19.1463003,16.5514242 19.7311003,15.9639293 19.7311003,15.2393053 L19.7311003,12.3628103 C20.6564003,12.5388177 21.6660003,12.674038 22.7352003,12.7618407 L22.7352003,21.5376971 C22.7352003,22.2623211 23.3199003,22.849816 24.0413004,22.849816 C24.7627004,22.849816 25.3474004,22.2623211 25.3474004,21.5376971 L25.3474004,12.8760647 C25.4315004,12.876567 25.5154004,12.8774712 25.6000004,12.8774712 C27.7370004,12.8774712 29.7373004,12.6908149 31.4514005,12.3660251 L31.4514005,18.388451 C31.4514005,19.1130749 32.0361005,19.7005699 32.7575005,19.7005699 C33.4789005,19.7005699 34.0636005,19.1130749 34.0636005,18.388451 L34.0636005,11.6890195 C35.9448005,11.0348186 37.0938006,10.1621154 37.0938006,9.20351811 C37.0939006,7.17430978 31.9479005,5.5294646 25.6000004,5.5294646 Z" id="Shape" fill="#FF9811" fill-rule="nonzero"></path>
                                <ellipse id="Oval" fill="#FF505D" fill-rule="nonzero" cx="34.4816005" cy="33.4518493" rx="2.61220004" ry="2.62423783"></ellipse>
                                <path d="M35.3710005,30.9837277 C35.4715005,31.2626069 35.5265005,31.5633866 35.5265005,31.8772263 C35.5265005,33.3265747 34.3569005,34.5014641 32.9143005,34.5014641 C32.6020005,34.5014641 32.3025005,34.4462107 32.0249005,34.3452475 C32.3887005,35.3546779 33.3513005,36.0759867 34.4817005,36.0759867 C35.9244005,36.0759867 37.0939006,34.9009968 37.0939006,33.4517489 C37.0939006,32.3162401 36.3758005,31.3492042 35.3710005,30.9837277 Z" id="Shape" fill="#E21220" fill-rule="nonzero"></path>
                                <ellipse id="Oval" fill="#FF505D" fill-rule="nonzero" cx="25.6000004" cy="6.57917982" rx="2.61220004" ry="2.62423783"></ellipse>
                                <path d="M26.4894004,4.11115859 C26.5899004,4.38993739 26.6449004,4.69081758 26.6449004,5.00455676 C26.6449004,6.45390517 25.4753004,7.62879458 24.0327004,7.62879458 C23.7204004,7.62879458 23.4209003,7.57354113 23.1433003,7.47247753 C23.5072004,8.48200842 24.4697004,9.20331719 25.6001004,9.20331719 C27.0428004,9.20331719 28.2123004,8.02832731 28.2123004,6.57907936 C28.2122004,5.44357059 27.4942004,4.47653463 26.4894004,4.11115859 Z" id="Shape" fill="#E21220" fill-rule="nonzero"></path>
                                <path d="M39.6070006,17.8121072 L37.8749006,9.11149599 C37.7616006,6.52904987 32.8922005,5.22265722 28.5322004,4.86109869 C28.0698004,4.06765905 27.2979004,3.47805443 26.3839004,3.26025535 L26.3839004,2.90512631 C26.3839004,2.18160741 26.9698004,1.5930074 27.6900004,1.5930074 L27.6900004,0.0184847929 C26.1055004,0.0184847929 24.8165004,1.31352537 24.8165004,2.90522677 L24.8165004,3.26035581 C23.9024004,3.47815489 23.1306003,4.06765905 22.6681003,4.86119915 C18.3081003,5.22275768 13.4386002,6.52915033 13.3254002,9.11159645 L9.15810014,30.0433138 L9.14280014,30.119865 L9.14280014,30.1977221 C9.14280014,34.118206 17.6219003,36.2336098 25.5999004,36.2336098 C27.1670004,36.2336098 28.7153004,36.15736 30.2017005,36.0070706 L30.0448004,34.4404844 C28.6103004,34.5855498 27.1149004,34.6589867 25.6000004,34.6589867 C21.4957003,34.6589867 17.6478003,34.127348 14.7651002,33.1620198 C12.3197002,32.3430632 10.7799002,31.2388982 10.7125002,30.2642272 L14.5015002,11.2319227 C14.9434002,11.5736905 15.5384002,11.9125449 16.3349002,12.2303025 L16.3349002,15.2394058 C16.3349002,16.3970159 17.2724003,17.3388362 18.4247003,17.3388362 C18.9831003,17.3388362 19.5078003,17.1205348 19.9025003,16.7241164 C20.2972003,16.3276979 20.5145003,15.8004795 20.5145003,15.2394058 L20.5145003,13.2952878 C20.9806003,13.3667154 21.4604003,13.4281974 21.9512003,13.4794325 L21.9512003,21.5376971 C21.9512003,22.6953073 22.8887003,23.6371275 24.0410004,23.6371275 C25.1933004,23.6371275 26.1308004,22.6953073 26.1308004,21.5376971 L26.1308004,13.6610656 C27.7049004,13.638261 29.2487004,13.5145937 30.6677005,13.2983016 L30.6677005,18.3885514 C30.6677005,19.5461616 31.6052005,20.4879819 32.7575005,20.4879819 C33.9098005,20.4879819 34.8473005,19.5461616 34.8473005,18.3885514 L34.8473005,12.2373347 C35.6527005,11.9174675 36.2532005,11.5760011 36.6984005,11.2317218 L40.4874006,30.2643276 C40.4455006,30.8695037 39.8343006,31.5380705 38.7543006,32.1559046 C38.4626006,32.3238751 38.1362006,32.4868226 37.7803006,32.6439433 C37.4793006,31.4040558 36.5023005,30.4279783 35.2651005,30.1332263 L35.2651005,29.7779968 C35.2651005,29.0544779 35.8510005,28.4658778 36.5712005,28.4658778 L36.5712005,26.8913552 C34.9867005,26.8913552 33.6977005,28.1863958 33.6977005,29.7780972 L33.6977005,30.1332263 C32.2019005,30.4896613 31.0855005,31.8418641 31.0855005,33.4521507 C31.0855005,35.3333803 32.6090005,36.8637001 34.4814005,36.8637001 C36.0422005,36.8637001 37.3595006,35.8001213 37.7552006,34.3568005 C38.4217006,34.097913 39.0189006,33.8184309 39.5315006,33.5233775 C41.6188006,32.3293 42.0569006,31.0560594 42.0569006,30.198124 L42.0569006,30.1202668 L39.9678006,19.6268316 C42.7396006,20.7096989 45.0575007,22.0979671 46.7234007,23.6817322 C48.6265007,25.4911322 49.6324007,27.52677 49.6324007,29.568335 C49.6324007,32.7959406 47.1989007,35.8703434 42.7804006,38.2254467 C38.2046006,40.6638319 32.1030005,42.0069933 25.6000004,42.0069933 C19.0970003,42.0069933 12.9954002,40.6639324 8.41940013,38.2249443 C4.00080006,35.8699415 1.56740002,32.7955387 1.56740002,29.5678327 C1.56740002,25.8944824 4.74170007,22.413816 10.2763002,20.018227 L9.65620014,18.5722943 C3.51950005,21.2282777 0,25.2359617 0,29.5678327 C0,33.4061397 2.72920004,36.9746088 7.68480011,39.615925 C12.4831002,42.1731555 18.8455003,43.5815159 25.6000004,43.5815159 C32.3545005,43.5815159 38.7169006,42.1731555 43.5152006,39.615925 C48.4708007,36.9746088 51.2000008,33.4061397 51.2000008,29.5678327 C51.2000008,24.7655036 46.8760007,20.3921422 39.6070006,17.8121072 Z M34.4816005,35.2887756 C33.4734005,35.2887756 32.6530005,34.464595 32.6530005,33.4517489 C32.6530005,32.4389028 33.4733005,31.6147221 34.4816005,31.6147221 C35.4899005,31.6147221 36.3102005,32.4389028 36.3102005,33.4517489 C36.3102005,34.4646954 35.4899005,35.2887756 34.4816005,35.2887756 Z M25.6000004,4.74215307 C26.6082004,4.74215307 27.4286004,5.56623326 27.4286004,6.57917982 C27.4286004,7.59212638 26.6083004,8.41620658 25.6000004,8.41620658 C24.5918004,8.41620658 23.7714004,7.59212638 23.7714004,6.57917982 C23.7714004,5.56623326 24.5918004,4.74215307 25.6000004,4.74215307 Z M33.8074005,10.9451071 L33.2800005,11.1284481 L33.2800005,18.3883505 C33.2800005,18.6777782 33.0456005,18.9131579 32.7576005,18.9131579 C32.4696005,18.9131579 32.2352005,18.6776777 32.2352005,18.3883505 L32.2352005,11.4166702 L31.3064005,11.5924767 C29.5865004,11.9179698 27.6132004,12.0900592 25.6001004,12.0900592 L24.5636004,12.0890546 L24.5636004,21.5374962 C24.5636004,21.8269238 24.3292004,22.062404 24.0412004,22.062404 C23.7531004,22.062404 23.5188004,21.8269238 23.5188004,21.5374962 L23.5188004,12.036614 L22.7993003,11.9773421 C21.7709003,11.8923523 20.7875003,11.7618536 19.8762003,11.5893624 L18.9474003,11.4134555 L18.9474003,15.2392048 C18.9474003,15.3795486 18.8931003,15.5113532 18.7945003,15.6104076 C18.6959003,15.709462 18.5646003,15.7641127 18.4249003,15.7641127 C18.1368003,15.7641127 17.9024003,15.5286325 17.9024003,15.2392048 L17.9024003,11.1228223 L17.3759003,10.938979 C15.6586002,10.3396296 14.8900002,9.63529876 14.8900002,9.20331719 C14.8900002,8.84718354 15.4374002,8.21719367 16.9802003,7.61392638 C18.3338003,7.08459826 20.1629003,6.69169595 22.2066003,6.48464618 C22.2058003,6.51609042 22.2042003,6.5474342 22.2042003,6.5789789 C22.2042003,8.46020842 23.7277004,9.99052826 25.6001004,9.99052826 C27.4725004,9.99052826 28.9960004,8.46010796 28.9960004,6.5789789 C28.9960004,6.54713282 28.9944004,6.51578904 28.9936004,6.48414388 C33.7160005,6.96253835 36.3104005,8.35000289 36.3104005,9.20321673 C36.3102005,9.63730798 35.5363005,10.3439495 33.8074005,10.9451071 Z" id="Shape" fill="#000000" fill-rule="nonzero"></path>
                                <polygon id="Rectangle-path" fill="#000000" fill-rule="nonzero" points="17.7716003 26.8607147 19.3389003 26.8607147 19.3389003 28.4352373 17.7716003 28.4352373"></polygon>
                                <polygon id="Rectangle-path" fill="#000000" fill-rule="nonzero" points="19.8614003 30.0097599 21.4287003 30.0097599 21.4287003 31.5842825 19.8614003 31.5842825"></polygon>
                                <polygon id="Rectangle-path" fill="#000000" fill-rule="nonzero" points="15.6818002 30.0097599 17.2491003 30.0097599 17.2491003 31.5842825 15.6818002 31.5842825"></polygon>
                            </g>
                        </g>
                    </g>
                </g>
            </g>
        </g>
    </g>
</svg>