<?xml version="1.0" encoding="UTF-8"?>
<svg width="52px" height="37px" viewBox="0 0 52 37" version="1.1" xmlns="http://www.w3.org/2000/svg" xmlns:xlink="http://www.w3.org/1999/xlink">
    <!-- Generator: Sketch 62 (91390) - https://sketch.com -->
    <title>pudding</title>
    <desc>Created with Sketch.</desc>
    <g id="Page-1" stroke="none" stroke-width="1" fill="none" fill-rule="evenodd">
        <g id="16.3-MAIN-UI---ALL-ITEM-(-ADD)-Copy-2" transform="translate(-590.000000, -1019.000000)">
            <g id="CREATE-ITEM" transform="translate(327.000000, 413.000000)">
                <g id="NOTIFICATION-BAR" transform="translate(66.000000, 545.000000)">
                    <g id="SET-1" transform="translate(23.000000, 34.000000)">
                        <g id="pudding" transform="translate(174.000000, 27.000000)">
                            <g>
                                <ellipse id="Oval" fill="#FF505D" fill-rule="nonzero" cx="25.6000004" cy="6.58066458" rx="2.61220004" ry="2.62647436"></ellipse>
                                <path d="M26.4894004,4.11053995 C26.5899004,4.3896569 26.6449004,4.69069297 26.6449004,5.00469953 C26.6449004,6.45528316 25.4753004,7.63117388 24.0327004,7.63117388 C23.7204004,7.63117388 23.4209003,7.57587334 23.1433003,7.47482416 C23.5071004,8.48511488 24.4696004,9.20703839 25.6001004,9.20703839 C27.0428004,9.20703839 28.2123004,8.03104711 28.2123004,6.58056403 C28.2122004,5.44408751 27.4942004,4.47632794 26.4894004,4.11053995 Z" id="Shape" fill="#E21220" fill-rule="nonzero"></path>
                                <path d="M16.4843002,13.401233 L16.4843002,30.219336 L8.49080013,30.219336 L9.74570015,13.401233 C9.81150015,12.5145138 10.2117002,11.7286428 10.8167002,11.1644767 C11.4207002,10.6003105 12.2304002,10.2578493 13.1144002,10.2578493 C14.8825002,10.2577488 16.3516002,11.6277947 16.4843002,13.401233 Z" id="Shape" fill="#AAFFF5" fill-rule="nonzero"></path>
                                <path d="M12.4483002,30.219336 L20.5195003,30.219336 L20.5195003,12.3502209 C20.3872003,10.577587 18.9183003,9.20723948 17.1503003,9.20723948 L17.1503003,9.20723948 C15.3823002,9.20723948 13.9134002,10.5776876 13.7811002,12.3502209 L12.4483002,30.219336 Z" id="Shape" fill="#0DD9DD" fill-rule="nonzero"></path>
                                <path d="M34.7157005,30.219336 L34.7157005,13.401233 C34.8484005,11.6277947 36.3175005,10.2578493 38.0855006,10.2578493 C38.9695006,10.2578493 39.7793006,10.6003105 40.3832006,11.1644767 C40.9882006,11.7286428 41.3884006,12.5145138 41.4542006,13.401233 L42.7091006,30.219336 L34.7157005,30.219336 Z" id="Shape" fill="#02A6AA" fill-rule="nonzero"></path>
                                <path d="M38.7517006,30.219336 L30.6805005,30.219336 L30.6805005,12.3502209 C30.8128005,10.577587 32.2817005,9.20723948 34.0497005,9.20723948 L34.0497005,9.20723948 C35.8177005,9.20723948 37.2866006,10.5776876 37.4189006,12.3502209 L38.7517006,30.219336 Z" id="Shape" fill="#0DD9DD" fill-rule="nonzero"></path>
                                <path d="M16.4839002,30.219336 L24.5551004,30.219336 L24.5551004,12.3502209 C24.4229004,10.577587 22.9539003,9.20723948 21.1859003,9.20723948 L21.1859003,9.20723948 C19.4179003,9.20723948 17.9490003,10.5776876 17.8167003,12.3502209 L16.4839002,30.219336 Z" id="Shape" fill="#0DD9DD" fill-rule="nonzero"></path>
                                <path d="M21.1859003,9.20713894 L21.1859003,9.20713894 C19.4179003,9.20713894 17.9490003,10.577587 17.8167003,12.3501204 L16.4838002,30.2192354 L24.5550004,30.2192354 L24.5550004,12.3501204 C24.4229004,10.577587 22.9539003,9.20713894 21.1859003,9.20713894 Z" id="Shape" fill="#AAFFF5" fill-rule="nonzero"></path>
                                <path d="M34.7161005,30.219336 L26.6449004,30.219336 L26.6449004,12.3502209 C26.7771004,10.577587 28.2461004,9.20723948 30.0141004,9.20723948 L30.0141004,9.20723948 C31.7821005,9.20723948 33.2510005,10.5776876 33.3833005,12.3502209 L34.7161005,30.219336 Z" id="Shape" fill="#02A6AA" fill-rule="nonzero"></path>
                                <path d="M30.3020005,30.219336 L20.8980003,30.219336 L22.2309003,12.3502209 C22.3632003,10.577587 23.8321004,9.20723948 25.6001004,9.20723948 L25.6001004,9.20723948 C27.3681004,9.20723948 28.8370004,10.5776876 28.9693004,12.3502209 L30.3020005,30.219336 Z" id="Shape" fill="#0DD9DD" fill-rule="nonzero"></path>
                                <ellipse id="Oval" fill="#FF505D" fill-rule="nonzero" cx="36.4669005" cy="27.5928616" rx="2.61220004" ry="2.62647436"></ellipse>
                                <path d="M37.3564006,25.1226364 C37.4569006,25.4017534 37.5119006,25.7027895 37.5119006,26.0168966 C37.5119006,27.4674802 36.3423005,28.6433709 34.8997005,28.6433709 C34.5874005,28.6433709 34.2879005,28.5880704 34.0103005,28.4870212 C34.3741005,29.4973119 35.3367005,30.2192354 36.4671005,30.2192354 C37.9098006,30.2192354 39.0793006,29.0432441 39.0793006,27.5927611 C39.0792006,26.4562845 38.3611006,25.4884244 37.3564006,25.1226364 Z" id="Shape" fill="#E21220" fill-rule="nonzero"></path>
                                <polygon id="Rectangle-path" fill="#FFFFFF" fill-rule="nonzero" points="0.783700012 30.219336 50.4164008 30.219336 50.4164008 32.8458103 0.783700012 32.8458103"></polygon>
                                <polyline id="Shape" fill="#FFFFFF" fill-rule="nonzero" points="46.4980007 32.8458103 44.4082007 35.9976399 6.7918001 35.9976399 4.70200007 32.8458103"></polyline>
                                <path d="M43.4363006,29.4313534 L42.2357006,13.3425139 C42.1572006,12.2857707 41.6887006,11.3070515 40.9166006,10.5870384 C40.1454006,9.86652255 39.1399006,9.46976626 38.0854006,9.46976626 C37.7039006,9.46976626 37.3307006,9.52184932 36.9697006,9.62320014 C36.9402006,9.59404167 36.9111006,9.56448102 36.8807005,9.53612692 C36.1083005,8.81581215 35.1031005,8.41925696 34.0501005,8.41925696 C33.3339005,8.41925696 32.6461005,8.59983838 32.0321005,8.94420997 C31.4197005,8.60215095 30.7278005,8.41925696 30.0137004,8.41925696 C29.3427004,8.41925696 28.6868004,8.58314767 28.0994004,8.88931161 C28.6556004,8.28100559 28.9959004,7.47019902 28.9959004,6.58066458 C28.9959004,4.96910608 27.8794004,3.61575087 26.3837004,3.25891152 L26.3837004,2.90347982 C26.3837004,2.17934429 26.9696004,1.59024265 27.6898004,1.59024265 L27.6898004,0.0143781423 C26.1053004,0.0143781423 24.8163004,1.31042188 24.8163004,2.90358037 L24.8163004,3.25901207 C23.3205003,3.61575087 22.2041003,4.96920663 22.2041003,6.58076513 C22.2041003,7.47019902 22.5444003,8.28110613 23.1006003,8.88941215 C22.5133003,8.58324822 21.8574003,8.4193575 21.1863003,8.4193575 C20.4723003,8.4193575 19.7806003,8.60215095 19.1683003,8.94410942 C18.5543003,8.59983838 17.8664003,8.4193575 17.1499003,8.4193575 C16.0969002,8.4193575 15.0917002,8.8159127 14.3187002,9.53662965 C14.2884002,9.5648832 14.2595002,9.59424277 14.2302002,9.62330069 C13.8691002,9.52205042 13.4958002,9.46986681 13.1145002,9.46986681 C12.0601002,9.46986681 11.0547002,9.86672364 10.2839002,10.5867368 C9.51130014,11.3071521 9.04280013,12.2858712 8.96430013,13.3423128 L7.76370012,29.4313534 L0,29.4313534 L0,33.6337929 L4.28260006,33.6337929 L6.37240009,36.7856224 L44.8275007,36.7856224 L46.9173007,33.6337929 L51.2000008,33.6337929 L51.2000008,29.4313534 L43.4363006,29.4313534 Z M30.0136004,9.99512146 C30.6701005,9.99512146 31.2968005,10.2424657 31.7784005,10.6916067 C32.2605005,11.1412504 32.5531005,11.7512657 32.6019005,12.4095434 L33.4295005,23.5050452 L34.9925005,23.3872047 L34.1649005,12.291904 C34.1052005,11.4879346 33.8186005,10.7292111 33.3442005,10.0944614 C33.5714005,10.0300111 33.8077005,9.99512146 34.0500005,9.99512146 C34.7065005,9.99512146 35.3332005,10.2424657 35.8143005,10.6910034 C36.2961005,11.1410493 36.5885005,11.7512657 36.6373005,12.4093423 L37.1890006,19.8129795 L38.7520006,19.6952396 L38.2003006,12.2918035 C38.1683006,11.8614647 38.0705006,11.444398 37.9147006,11.0517641 C37.9713006,11.0480439 38.0282006,11.0455302 38.0855006,11.0455302 C38.7428006,11.0455302 39.3694006,11.2926734 39.8503006,11.7420155 C40.3318006,12.1909554 40.6238006,12.8010712 40.6727006,13.4599521 L41.8643006,29.4313534 L39.3260006,29.4313534 C39.6651006,28.9001666 39.8627006,28.2694387 39.8627006,27.5927611 C39.8627006,25.9812026 38.7462006,24.6278474 37.2505006,24.271008 L37.2505006,23.9155763 C37.2505006,23.1914408 37.8364006,22.6023391 38.5566006,22.6023391 L38.5566006,21.0264746 C36.9721006,21.0264746 35.6831005,22.3225184 35.6831005,23.9156769 L35.6831005,24.2711086 C34.1873005,24.6278474 33.0709005,25.9813031 33.0709005,27.5928616 C33.0709005,28.2695392 33.2685005,28.9002671 33.6076005,29.431454 L31.0291005,29.431454 L29.7506004,12.2913007 C29.6928004,11.5169925 29.4230004,10.8032133 29.0026004,10.2043586 C29.3201004,10.0689226 29.6632004,9.99512146 30.0136004,9.99512146 Z M38.2955006,27.5928616 C38.2955006,28.6065709 37.4752006,29.431454 36.4669005,29.431454 C35.4586005,29.431454 34.6383005,28.6066715 34.6383005,27.5928616 C34.6383005,26.5790518 35.4586005,25.7542692 36.4669005,25.7542692 C37.4752006,25.7542692 38.2955006,26.5790518 38.2955006,27.5928616 Z M25.6000004,4.7420722 C26.6082004,4.7420722 27.4286004,5.56685473 27.4286004,6.58066458 C27.4286004,7.59437388 26.6083004,8.41925696 25.6000004,8.41925696 C24.5918004,8.41925696 23.7714004,7.59447443 23.7714004,6.58066458 C23.7714004,5.56695527 24.5918004,4.7420722 25.6000004,4.7420722 Z M25.6000004,9.99512146 C26.9500004,9.99512146 28.0867004,11.0554843 28.1877004,12.4091412 L29.4575004,29.4313534 L21.7427003,29.4313534 L23.0125003,12.4091412 C23.1133003,11.0554843 24.2500004,9.99512146 25.6000004,9.99512146 Z M19.4215003,10.6916067 C19.9031003,10.2424657 20.5298003,9.99512146 21.1863003,9.99512146 C21.5368003,9.99512146 21.8798003,10.0689226 22.1974003,10.2042581 C21.7769003,10.8031127 21.5071003,11.516892 21.4494003,12.2912002 L20.1709003,29.4313534 L17.3289003,29.4313534 L18.5980003,12.4093423 C18.6468003,11.7512657 18.9394003,11.1412504 19.4215003,10.6916067 Z M14.5626002,12.4092417 C14.6114002,11.7513663 14.9038002,11.1412504 15.3850002,10.6916067 C15.8666002,10.2424657 16.4933002,9.99512146 17.1498003,9.99512146 C17.3921003,9.99512146 17.6286003,10.0300111 17.8557003,10.0942603 C17.3813003,10.72901 17.0946003,11.4878341 17.0349003,12.2916024 L15.7570002,29.4313534 L13.2924002,29.4313534 L14.5626002,12.4092417 Z M10.5272002,13.4598516 C10.5761002,12.8010712 10.8682002,12.1911565 11.3502002,11.7417138 C11.8306002,11.2928745 12.4572002,11.0458319 13.1145002,11.0458319 C13.1718002,11.0458319 13.2286002,11.0483455 13.2852002,11.0520657 C13.1294002,11.4445991 13.0316002,11.8615652 12.9996002,12.2918035 L11.7206002,29.4315545 L9.33540014,29.4315545 L10.5272002,13.4598516 Z M43.9887007,35.2097579 L7.21130011,35.2097579 L6.16640009,33.6337929 L45.0338007,33.6337929 L43.9887007,35.2097579 Z M49.6327007,32.0579283 L1.56730002,32.0579283 L1.56730002,31.0073185 L49.6326007,31.0073185 L49.6326007,32.0579283 L49.6327007,32.0579283 Z" id="Shape" fill="#000000" fill-rule="nonzero"></path>
                            </g>
                        </g>
                    </g>
                </g>
            </g>
        </g>
    </g>
</svg>