<?xml version="1.0" encoding="UTF-8"?>
<svg width="52px" height="44px" viewBox="0 0 52 44" version="1.1" xmlns="http://www.w3.org/2000/svg" xmlns:xlink="http://www.w3.org/1999/xlink">
    <!-- Generator: Sketch 62 (91390) - https://sketch.com -->
    <title>salad</title>
    <desc>Created with Sketch.</desc>
    <g id="Page-1" stroke="none" stroke-width="1" fill="none" fill-rule="evenodd">
        <g id="16.3-MAIN-UI---ALL-ITEM-(-ADD)-Copy-2" transform="translate(-590.000000, -1095.000000)">
            <g id="CREATE-ITEM" transform="translate(327.000000, 413.000000)">
                <g id="NOTIFICATION-BAR" transform="translate(66.000000, 545.000000)">
                    <g id="SET-1" transform="translate(23.000000, 34.000000)">
                        <g id="salad" transform="translate(174.000000, 103.000000)">
                            <g>
                                <path d="M0.783700012,17.8635431 C0.783700012,4.21724522 50.4164008,4.21724522 50.4164008,17.8635431 C50.4164008,31.509841 0.783700012,31.509841 0.783700012,17.8635431 Z" id="Shape" fill="#FFFFFF" fill-rule="nonzero"></path>
                                <ellipse id="Oval" fill="#FFFFFF" fill-rule="nonzero" cx="35.7700005" cy="9.72832549" rx="6.7918001" ry="8.92252917"></ellipse>
                                <ellipse id="Oval" fill="#FFDA44" fill-rule="nonzero" cx="35.7700005" cy="9.72832549" rx="3.65710005" ry="3.67395305"></ellipse>
                                <path d="M18.9811003,5.31950146 L16.3689002,5.31950146 C12.6179002,5.31950146 9.57710014,8.37441487 9.57710014,12.1426002 C9.57710014,15.9107855 12.6180002,18.9656989 16.3689002,18.9656989 L18.9811003,18.9656989" id="Shape" fill="#3FC378" fill-rule="nonzero"></path>
                                <ellipse id="Oval" fill="#C9EEAE" fill-rule="nonzero" cx="18.9816003" cy="12.1426002" rx="6.7918001" ry="6.82309872"></ellipse>
                                <path d="M19.7486003,8.38265266 C19.7486003,7.85031072 19.4050003,7.41893191 18.9811003,7.41893191 C18.5572003,7.41893191 18.2136003,7.85041118 18.2136003,8.38265266 C18.2136003,8.91489414 18.9811003,10.1174103 18.9811003,10.1174103 C18.9811003,10.1174103 19.7486003,8.9149946 19.7486003,8.38265266 Z" id="Shape" fill="#000000" fill-rule="nonzero"></path>
                                <path d="M22.1702003,10.0291052 C22.5448003,9.65277895 22.6056003,9.10355958 22.3058003,8.80237801 C22.0061003,8.5012969 21.4594003,8.56227663 21.0847003,8.9386029 C20.7101003,9.31502963 20.4064003,10.7104306 20.4064003,10.7104306 C20.4064003,10.7104306 21.7956003,10.4054315 22.1702003,10.0291052 Z" id="Shape" fill="#000000" fill-rule="nonzero"></path>
                                <path d="M15.2384002,11.3716638 C14.7085002,11.3716638 14.2791002,11.7168472 14.2791002,12.1427006 C14.2791002,12.5685541 14.7087002,12.9137375 15.2384002,12.9137375 C15.7683002,12.9137375 16.9652003,12.1427006 16.9652003,12.1427006 C16.9652003,12.1427006 15.7682002,11.3716638 15.2384002,11.3716638 Z" id="Shape" fill="#000000" fill-rule="nonzero"></path>
                                <path d="M22.7238003,12.9136371 C23.2537003,12.9136371 23.6831004,12.5684536 23.6831004,12.1426002 C23.6831004,11.7168472 23.2535003,11.3715633 22.7238003,11.3715633 C22.1939003,11.3715633 20.9970003,12.1426002 20.9970003,12.1426002 C20.9970003,12.1426002 22.1939003,12.9136371 22.7238003,12.9136371 Z" id="Shape" fill="#000000" fill-rule="nonzero"></path>
                                <path d="M16.8773003,8.93880382 C16.5027002,8.56237709 15.9560002,8.50139736 15.6562002,8.80257893 C15.3565002,9.10366004 15.4172002,9.65287941 15.7918002,10.0293061 C16.1664002,10.4056324 17.5555003,10.710732 17.5555003,10.710732 C17.5555003,10.710732 17.2519003,9.31513009 16.8773003,8.93880382 Z" id="Shape" fill="#000000" fill-rule="nonzero"></path>
                                <path d="M15.1307002,30.9850336 C10.5140002,30.9850336 6.7715001,27.225287 6.7715001,22.5873119 C6.7715001,17.9493367 10.5140002,14.1895901 15.1307002,14.1895901" id="Shape" fill="#E21220" fill-rule="nonzero"></path>
                                <ellipse id="Oval" fill="#FF505D" fill-rule="nonzero" cx="17.7434003" cy="22.5873119" rx="8.35920012" ry="8.39772178"></ellipse>
                                <path d="M16.5488002,20.1003035 L16.5488002,18.5383385 C14.3230002,18.5383385 12.5185002,20.3510538 12.5185002,22.5872114 C12.5185002,24.823369 14.3229002,26.6360843 16.5488002,26.6360843 L16.5488002,25.0740188 C15.7407002,24.5435856 15.2054002,23.6270815 15.2054002,22.5870105 C15.2054002,21.5473413 15.7407002,20.6308372 16.5488002,20.1003035 Z" id="Shape" fill="#FF7C80" fill-rule="nonzero"></path>
                                <path d="M18.9371003,18.538439 L18.9371003,20.100404 C19.7452003,20.6308372 20.2805003,21.5473413 20.2805003,22.5874123 C20.2805003,23.6273828 19.7451003,24.543887 18.9371003,25.0744207 L18.9371003,26.6363857 C21.1630003,26.6363857 22.9675003,24.8236704 22.9675003,22.5875128 C22.9675003,20.3511542 21.1630003,18.538439 18.9371003,18.538439 Z" id="Shape" fill="#FF7C80" fill-rule="nonzero"></path>
                                <path d="M32.8940005,27.835888 C28.2773004,27.835888 24.5348004,24.0761414 24.5348004,19.4381662 C24.5348004,14.800191 28.2773004,11.0404444 32.8940005,11.0404444" id="Shape" fill="#93298D" fill-rule="nonzero"></path>
                                <ellipse id="Oval" fill="#FFF5CC" fill-rule="nonzero" cx="35.5067005" cy="19.4381662" rx="8.35920012" ry="8.39772178"></ellipse>
                                <path d="M50.4163008,17.8635431 C50.4163008,31.6326042 39.3059006,42.7942043 25.6000004,42.7942043 C11.8941002,42.7942043 0.783700012,31.6327046 0.783700012,17.8635431 C0.783700012,31.509841 50.4163008,31.509841 50.4163008,17.8635431 Z" id="Shape" fill="#0DD9DD" fill-rule="nonzero"></path>
                                <path d="M47.1917007,23.237193 C44.0314007,33.3550051 34.6245005,40.6948743 23.5102004,40.6948743 C17.1890003,40.6948743 11.4211002,38.3193775 7.0395001,34.4102457 C11.5853002,39.5528356 18.2153003,42.7943048 25.6000004,42.7943048 C39.3059006,42.7943048 50.4163008,31.6327046 50.4163008,17.8636436 C50.4163008,19.9844722 49.2168007,21.7755883 47.1917007,23.237193 Z" id="Shape" fill="#02A6AA" fill-rule="nonzero"></path>
                                <path d="M44.9257007,10.2756361 L44.2626007,11.7023808 C46.7125007,12.8512509 49.6326007,14.852732 49.6326007,17.8635431 C49.6326007,21.1466031 46.2451007,23.2649202 43.1183006,24.520781 C44.1021007,23.0321524 44.6494007,21.2671561 44.6494007,19.4380657 C44.6494007,17.2872998 43.9094007,15.3070159 42.6722006,13.7401283 C43.1131006,12.4903956 43.3454006,11.1137808 43.3454006,9.72822503 C43.3454006,4.37416504 39.9471006,0.0183843321 35.7699005,0.0183843321 C31.5927005,0.0183843321 28.1944004,4.37416504 28.1944004,9.72822503 C28.1944004,10.3252637 28.2381004,10.9122564 28.3198004,11.4878969 C26.5017004,12.5477587 25.0788004,14.2190251 24.3313004,16.2194012 C22.6215003,14.4340113 20.2535003,13.4022785 17.7433003,13.4022785 L15.1311002,13.4022785 C14.4531002,13.4022785 13.7923002,13.4774232 13.1560002,13.6188721 C13.0356002,13.139473 12.9735002,12.645708 12.9735002,12.1427006 C12.9735002,8.81443331 15.6687002,6.10681299 18.9817003,6.10681299 C22.1750003,6.10681299 24.8105004,8.61381303 24.9816004,11.8142942 L26.5468004,11.7298066 C26.4825004,10.52719 26.1407004,9.4033347 25.5881004,8.41650796 C26.0675004,8.41660842 26.5487004,8.421531 27.0286004,8.43187847 L27.0618004,6.85775771 C26.1823004,6.83887107 25.2991004,6.83806738 24.4291004,6.85283513 C23.0484003,5.41925907 21.1137003,4.53229039 18.9816003,4.53229039 L16.3694002,4.53229039 C12.1922002,4.53229039 8.79390013,7.94625081 8.79390013,12.1427006 C8.79390013,13.2566103 9.03730013,14.353944 9.50130014,15.3550362 C7.36410011,17.0378556 5.98840009,19.654157 5.98840009,22.5873119 C5.98840009,22.9184308 6.00610009,23.2481432 6.04100009,23.5750427 C3.64120005,22.2873358 1.56750002,20.4320252 1.56750002,17.8635431 C1.56750002,14.5655145 5.02630007,12.4570426 7.92790012,11.2687919 L7.33630011,9.81060291 C2.53680004,11.7761191 0,14.5606924 0,17.8635431 C0,24.7330547 2.66280004,31.1914806 7.49810011,36.0488623 C12.3334002,40.9062439 18.7620003,43.5815159 25.6000004,43.5815159 C32.4380005,43.5815159 38.8668006,40.9064448 43.7019007,36.0488623 C48.5370007,31.1912797 51.2000008,24.7331552 51.2000008,17.8635431 C51.2000008,14.8245025 49.0304007,12.2006665 44.9257007,10.2756361 Z M40.0009006,25.5639663 C38.0700006,26.1009294 35.9300005,26.5216594 33.6458005,26.8152059 C30.2751005,25.9625949 27.9311004,22.9476649 27.9311004,19.4381662 C27.9311004,15.2417164 31.3294005,11.8277559 35.5066005,11.8277559 C39.6838006,11.8277559 43.0821006,15.2417164 43.0821006,19.4381662 C43.0822006,21.8518381 41.9324006,24.1313948 40.0009006,25.5639663 Z M28.0977004,27.2648686 C27.2744004,27.2952078 26.4411004,27.3109801 25.6000004,27.3109801 L25.5840004,27.3109801 C25.8687004,26.8347958 26.1096004,26.3338981 26.3039004,25.8146161 C26.8360004,26.370064 27.4383004,26.8577009 28.0977004,27.2648686 Z M29.7618004,9.72832549 C29.7618004,5.24254847 32.4570005,1.5930074 35.7700005,1.5930074 C39.0830006,1.5930074 41.7782006,5.24254847 41.7782006,9.72832549 C41.7782006,10.6571863 41.6569006,11.5779098 41.4285006,12.4460924 C39.8320006,11.0794232 37.7637006,10.2531329 35.5068005,10.2531329 L32.9454005,10.2531329 C32.9137005,10.0806416 32.8966005,9.90513655 32.8966005,9.72832549 C32.8966005,9.66694392 32.8984005,9.61309692 32.9019005,9.56387111 L32.9026005,9.55302134 C32.9917005,8.03264712 34.2511005,6.84158351 35.7700005,6.84158351 C37.3463006,6.84158351 38.6353006,8.12949137 38.6435006,9.71245268 L40.2108006,9.70421489 C40.1982006,7.25759181 38.2061006,5.26706091 35.7700005,5.26706091 C33.4242005,5.26706091 31.4785005,7.1062978 31.3382005,9.45527295 C31.3321005,9.54116696 31.3292005,9.6305771 31.3292005,9.72832549 C31.3292005,9.9473301 31.3470005,10.1649283 31.3785005,10.3802158 C30.8399005,10.470932 30.3170005,10.6088647 29.8144004,10.7899956 C29.7808004,10.4404923 29.7618004,10.0867697 29.7618004,9.72832549 Z M28.6708004,13.1233993 C28.6871004,13.1792555 28.7019004,13.235614 28.7190004,13.2912693 C27.2558004,14.9203422 26.3637004,17.0764325 26.3637004,19.4381662 C26.3637004,21.5203174 27.0765004,23.5598732 28.3708004,25.1810096 C28.6294004,25.5049958 28.9102004,25.8088898 29.2084004,26.0930935 C26.8702004,24.7895137 25.3188004,22.288039 25.3188004,19.4381662 C25.3189004,16.8115173 26.6504004,14.4915753 28.6708004,13.1233993 Z M23.8509004,18.0851597 C23.7857004,18.526886 23.7515004,18.9785579 23.7515004,19.4381662 C23.7515004,21.2169257 24.2526004,22.8834704 25.1266004,24.2959497 C24.8776004,25.3833377 24.3904004,26.4048234 23.7020004,27.284358 C22.6519003,27.2550234 21.6175003,27.2013774 20.6034003,27.1245248 C22.4391003,26.4419939 23.7512004,24.665746 23.7512004,22.5873119 C23.7512004,19.9206796 21.5916003,17.7512279 18.9373003,17.7512279 L18.1536003,17.7512279 L18.1536003,20.5265588 L18.5086003,20.759628 C19.1276003,21.1658916 19.4971003,21.8492261 19.4971003,22.5875128 C19.4971003,23.3257994 19.1276003,24.009134 18.5086003,24.4154981 L18.1536003,24.6485672 L18.1536003,26.8890446 C17.8779003,26.8565958 17.6043003,26.8220373 17.3326003,26.7860723 L17.3326003,24.6485672 L16.9775003,24.4154981 C16.3585002,24.0092345 15.9890002,23.3258999 15.9890002,22.5876132 C15.9890002,21.8493266 16.3585002,21.165992 16.9775003,20.7597284 L17.3326003,20.5266593 L17.3326003,17.7513284 L16.5489002,17.7513284 C13.8945002,17.7513284 11.7350002,19.9208805 11.7350002,22.5874123 C11.7350002,23.9511681 12.3008002,25.1841239 13.2078002,26.0641608 C12.3420002,25.8721801 11.5093002,25.6591027 10.7145002,25.4256317 C10.3525002,24.5255027 10.1680002,23.5726317 10.1680002,22.5875128 C10.1680002,18.3910629 13.5663002,14.9771025 17.7435003,14.9771025 C20.1627003,14.9769016 22.4231003,16.1335072 23.8509004,18.0851597 Z M19.7208003,19.7050906 L19.7208003,19.4217911 C21.1336003,19.7749109 22.1837003,21.0602068 22.1837003,22.5873119 C22.1837003,24.1144169 21.1336003,25.3997128 19.7208003,25.7528326 L19.7208003,25.4696336 C20.5690003,24.7589736 21.0642003,23.7104639 21.0642003,22.5873119 C21.0643003,21.4640593 20.5690003,20.4155496 19.7208003,19.7050906 Z M15.7651002,25.4694326 L15.7651002,25.7527322 C14.3523002,25.3996124 13.3022002,24.1143165 13.3022002,22.5872114 C13.3022002,21.0601063 14.3523002,19.7748104 15.7651002,19.4216906 L15.7651002,19.7049902 C14.9169002,20.4154492 14.4217002,21.4639588 14.4217002,22.5872114 C14.4217002,23.7104639 14.9169002,24.7590741 15.7651002,25.4694326 Z M10.4140002,11.3553891 C10.4859002,10.8039596 10.6306002,10.2753347 10.8407002,9.78086651 L11.7814002,9.78086651 C11.6171002,10.2850794 11.5024002,10.8114942 11.4466002,11.3553891 L10.4140002,11.3553891 Z M13.6071002,6.78522499 C13.1852002,7.21238444 12.8129002,7.68907108 12.5004002,8.20624344 L11.8205002,8.20624344 C12.3188002,7.62578076 12.9246002,7.14176048 13.6071002,6.78522499 Z M10.4125002,12.9299117 L11.4476002,12.9299117 C11.4878002,13.3231154 11.5585002,13.7106933 11.6588002,14.091038 C11.3753002,14.2083762 11.0989002,14.3394776 10.8305002,14.4838398 C10.6230002,13.9880656 10.4824002,13.465167 10.4125002,12.9299117 Z M7.55570011,22.5873119 C7.55570011,19.7416584 9.11940014,17.2573625 11.4280002,15.951874 C9.68670014,17.62525 8.60060013,19.981157 8.60060013,22.5873119 C8.60060013,23.3506133 8.69230013,24.0981423 8.87350013,24.8236704 C8.85170013,24.815734 8.82930013,24.808099 8.80750013,24.8000621 C8.46750013,24.6753902 8.12060012,24.5398686 7.77210012,24.3939994 C7.62900011,23.8059017 7.55570011,23.199922 7.55570011,22.5873119 Z M42.5937006,34.9355554 C38.0545006,39.4955729 32.0193005,42.0069933 25.6000004,42.0069933 C19.1807003,42.0069933 13.1455002,39.4956734 8.60630013,34.9355554 C5.18860008,31.5021055 2.92770004,27.2165469 2.01870003,22.5558676 C3.41010005,24.0105404 5.50650008,25.2659995 8.27000012,26.2792474 C12.8548002,27.9599571 19.0094003,28.8856032 25.5999004,28.8856032 C32.1904005,28.8856032 38.3450006,27.9599571 42.9297006,26.2792474 C45.6932007,25.2660999 47.7896007,24.0107414 49.1810007,22.5558676 C48.2723007,27.2166474 46.0113007,31.5021055 42.5937006,34.9355554 Z" id="Shape" fill="#000000" fill-rule="nonzero"></path>
                                <polygon id="Rectangle-path" fill="#000000" fill-rule="nonzero" points="34.7230005 14.7143975 36.2903005 14.7143975 36.2903005 16.2889201 34.7230005 16.2889201"></polygon>
                                <polygon id="Rectangle-path" fill="#000000" fill-rule="nonzero" points="34.7230005 22.5873119 36.2903005 22.5873119 36.2903005 24.1618345 34.7230005 24.1618345"></polygon>
                                <polygon id="Rectangle-path" fill="#000000" fill-rule="nonzero" transform="translate(38.899189, 17.469997) rotate(59.999272) translate(-38.899189, -17.469997) " points="38.1155567 16.6827528 39.6828223 16.6827528 39.6828223 18.2572407 38.1155567 18.2572407"></polygon>
                                <polygon id="Rectangle-path" fill="#000000" fill-rule="nonzero" transform="translate(32.112675, 21.406207) rotate(59.999272) translate(-32.112675, -21.406207) " points="31.329042 20.6189632 32.8963075 20.6189632 32.8963075 22.1934512 31.329042 22.1934512"></polygon>
                                <polygon id="Rectangle-path" fill="#000000" fill-rule="nonzero" transform="translate(38.900082, 21.406230) rotate(30.000728) translate(-38.900082, -21.406230) " points="38.1164491 20.6189857 39.6837147 20.6189857 39.6837147 22.1934737 38.1164491 22.1934737"></polygon>
                                <polygon id="Rectangle-path" fill="#000000" fill-rule="nonzero" transform="translate(32.113190, 17.469909) rotate(30.000728) translate(-32.113190, -17.469909) " points="31.329557 16.6826648 32.8968225 16.6826648 32.8968225 18.2571527 31.329557 18.2571527"></polygon>
                            </g>
                        </g>
                    </g>
                </g>
            </g>
        </g>
    </g>
</svg>