<?xml version="1.0" encoding="UTF-8"?>
<svg width="52px" height="47px" viewBox="0 0 52 47" version="1.1" xmlns="http://www.w3.org/2000/svg" xmlns:xlink="http://www.w3.org/1999/xlink">
    <!-- Generator: Sketch 62 (91390) - https://sketch.com -->
    <title>sandwich</title>
    <desc>Created with Sketch.</desc>
    <g id="Page-1" stroke="none" stroke-width="1" fill="none" fill-rule="evenodd">
        <g id="16.3-MAIN-UI---ALL-ITEM-(-ADD)-Copy-2" transform="translate(-902.000000, -1092.000000)">
            <g id="CREATE-ITEM" transform="translate(327.000000, 413.000000)">
                <g id="NOTIFICATION-BAR" transform="translate(66.000000, 545.000000)">
                    <g id="SET-1" transform="translate(23.000000, 34.000000)">
                        <g id="sandwich" transform="translate(486.000000, 100.000000)">
                            <g>
                                <path d="M40.2286006,24.1143004 L10.9714002,24.1143004 C9.52870014,24.1143004 8.35920012,22.9447003 8.35920012,21.5021003 L8.35920012,21.5021003 C8.35920012,20.0594003 9.52880014,18.8899003 10.9714002,18.8899003 L40.2285006,18.8899003 C41.6712006,18.8899003 42.8407006,20.0595003 42.8407006,21.5021003 L42.8407006,21.5021003 C42.8408006,22.9447003 41.6713006,24.1143004 40.2286006,24.1143004 Z" id="Shape" fill="#FF505D" fill-rule="nonzero"></path>
                                <path d="M40.7066006,18.9342003 C40.7353006,19.0893003 40.7510006,19.2489003 40.7510006,19.4122003 L40.7510006,19.4122003 C40.7510006,20.8549003 39.5814006,22.0244003 38.1388006,22.0244003 L8.88160013,22.0244003 C8.71830013,22.0244003 8.55860013,22.0087003 8.40360013,21.9800003 C8.62830013,23.1943003 9.69210014,24.1142004 10.9714002,24.1142004 L40.2285006,24.1142004 C41.6712006,24.1142004 42.8407006,22.9446003 42.8407006,21.5020003 L42.8407006,21.5020003 C42.8408006,20.2227003 41.9209006,19.1589003 40.7066006,18.9342003 Z" id="Shape" fill="#E21220" fill-rule="nonzero"></path>
                                <path d="M40.2286006,34.5633005 L10.9714002,34.5633005 C9.52870014,34.5633005 8.35920012,33.3937005 8.35920012,31.9511005 L8.35920012,31.9511005 C8.35920012,30.5084005 9.52880014,29.3389004 10.9714002,29.3389004 L40.2285006,29.3389004 C41.6712006,29.3389004 42.8407006,30.5085005 42.8407006,31.9511005 L42.8407006,31.9511005 C42.8408006,33.3937005 41.6713006,34.5633005 40.2286006,34.5633005 Z" id="Shape" fill="#FF505D" fill-rule="nonzero"></path>
                                <path d="M40.7066006,29.3832004 C40.7353006,29.5383004 40.7510006,29.6979004 40.7510006,29.8612004 L40.7510006,29.8612004 C40.7510006,31.3039005 39.5814006,32.4734005 38.1388006,32.4734005 L8.88160013,32.4734005 C8.71830013,32.4734005 8.55860013,32.4577005 8.40360013,32.4290005 C8.62830013,33.6433005 9.69210014,34.5632005 10.9714002,34.5632005 L40.2285006,34.5632005 C41.6712006,34.5632005 42.8407006,33.3936005 42.8407006,31.9510005 L42.8407006,31.9510005 C42.8408006,30.6716005 41.9209006,29.6078004 40.7066006,29.3832004 Z" id="Shape" fill="#E21220" fill-rule="nonzero"></path>
                                <rect id="Rectangle-path" fill="#FFDA44" fill-rule="nonzero" x="5.74690009" y="24.1143004" width="39.7061006" height="5.22450008"></rect>
                                <path d="M5.74690009,29.3388004 L5.74690009,27.2490004 L41.2734006,27.2490004 C42.4276006,27.2490004 43.3632006,26.3134004 43.3632006,25.1592004 L43.3632006,24.1143004 L45.4530007,24.1143004 L45.4530007,29.3388004 L5.74690009,29.3388004 Z" id="Shape" fill="#EEBF00" fill-rule="nonzero"></path>
                                <polygon id="Shape" fill="#EEBF00" fill-rule="nonzero" points="20.5932003 23.8531004 39.6102006 23.8531004 30.1016004 33.3615005"></polygon>
                                <polygon id="Shape" fill="#FFDA44" fill-rule="nonzero" points="11.0846002 23.8531004 30.1016004 23.8531004 20.5932003 33.3615005"></polygon>
                                <path d="M5.74690009,18.8898003 L5.74690009,16.8000003 L41.2734006,16.8000003 C42.4276006,16.8000003 43.3632006,15.8644002 43.3632006,14.7102002 L43.3632006,13.6653002 L45.4530007,13.6653002 L45.4530007,18.8898003 L5.74690009,18.8898003 Z" id="SVGCleanerId_0" fill="#EEBF00" fill-rule="nonzero"></path>
                                <rect id="Rectangle-path" fill="#FFDA44" fill-rule="nonzero" x="5.74690009" y="34.5633005" width="39.7061006" height="5.22450008"></rect>
                                <path d="M5.74690009,34.5633005 L5.74690009,36.6531005 L41.2734006,36.6531005 C42.4276006,36.6531005 43.3632006,37.5887006 43.3632006,38.7429006 L43.3632006,39.7878006 L45.4530007,39.7878006 L45.4530007,34.5633005 L5.74690009,34.5633005 L5.74690009,34.5633005 Z" id="Shape" fill="#EEBF00" fill-rule="nonzero"></path>
                                <rect id="Rectangle-path" fill="#FFDA44" fill-rule="nonzero" x="5.74690009" y="13.6653002" width="39.7061006" height="5.22450008"></rect>
                                <path d="M5.74690009,18.8898003 L5.74690009,16.8000003 L41.2734006,16.8000003 C42.4276006,16.8000003 43.3632006,15.8644002 43.3632006,14.7102002 L43.3632006,13.6653002 L45.4530007,13.6653002 L45.4530007,18.8898003 L5.74690009,18.8898003 Z" id="SVGCleanerId_0_1_" fill="#EEBF00" fill-rule="nonzero"></path>
                                <circle id="Oval" fill="#3FC378" fill-rule="nonzero" cx="25.6000004" cy="6.35100009" r="2.08980003"></circle>
                                <polygon id="Rectangle-path" fill="#FFFFFF" fill-rule="nonzero" points="0.783700012 39.7878006 50.4164008 39.7878006 50.4164008 42.4000006 0.783700012 42.4000006"></polygon>
                                <polyline id="Shape" fill="#FFFFFF" fill-rule="nonzero" points="46.4980007 42.4000006 44.4082007 45.5347007 6.7918001 45.5347007 4.70200007 42.4000006"></polyline>
                                <path d="M24.8163004,9.11500014 L24.8163004,11.5755002 L26.3836004,11.5755002 L26.3836004,9.11500014 C27.5882004,8.77290013 28.4734004,7.66360011 28.4734004,6.35100009 C28.4734004,5.03840008 27.5882004,3.92910006 26.3836004,3.58700005 L26.3836004,0.0816000012 L24.8163004,0.0816000012 L24.8163004,3.58700005 C23.6117004,3.92910006 22.7265003,5.03840008 22.7265003,6.35100009 C22.7265003,7.66360011 23.6118004,8.77290013 24.8163004,9.11500014 Z M25.6000004,5.04490008 C26.3202004,5.04490008 26.9061004,5.63080008 26.9061004,6.35100009 C26.9061004,7.07120011 26.3202004,7.65710011 25.6000004,7.65710011 C24.8798004,7.65710011 24.2939004,7.07120011 24.2939004,6.35100009 C24.2939004,5.63080008 24.8798004,5.04490008 25.6000004,5.04490008 Z" id="Shape" fill="#000000" fill-rule="nonzero"></path>
                                <path d="M51.2000008,39.0041006 L46.2367007,39.0041006 L46.2367007,33.7796005 L43.0879006,33.7796005 C43.4270006,33.2513005 43.6245007,32.6239005 43.6245007,31.9510005 C43.6245007,31.2781005 43.4269006,30.6507005 43.0879006,30.1224004 L46.2367007,30.1224004 L46.2367007,23.3306003 L43.0879006,23.3306003 C43.4270006,22.8023003 43.6245007,22.1749003 43.6245007,21.5020003 C43.6245007,20.8291003 43.4269006,20.2017003 43.0879006,19.6734003 L46.2367007,19.6734003 L46.2367007,12.8816002 L4.96330007,12.8816002 L4.96330007,19.6734003 L8.11210012,19.6734003 C7.77300012,20.2017003 7.57550011,20.8291003 7.57550011,21.5020003 C7.57550011,22.1749003 7.77310012,22.8023003 8.11210012,23.3306003 L4.96330007,23.3306003 L4.96330007,30.1224004 L8.11210012,30.1224004 C7.77300012,30.6507005 7.57550011,31.2781005 7.57550011,31.9510005 C7.57550011,32.6239005 7.77310012,33.2513005 8.11210012,33.7796005 L4.96330007,33.7796005 L4.96330007,39.0041006 L0,39.0041006 L0,43.1837006 L4.28260006,43.1837006 L6.37240009,46.3184007 L44.8275007,46.3184007 L46.9173007,43.1837006 L51.2000008,43.1837006 L51.2000008,39.0041006 Z M44.6694007,28.5551004 L37.2590006,28.5551004 L37.2590006,30.1224004 L40.2286006,30.1224004 C41.2368006,30.1224004 42.0572006,30.9427005 42.0572006,31.9510005 C42.0572006,32.9593005 41.2368006,33.7796005 40.2286006,33.7796005 L30.7919005,33.7796005 L39.6736006,24.8980004 L44.6694007,24.8980004 L44.6694007,28.5551004 L44.6694007,28.5551004 Z M37.4570006,24.8980004 L30.1017004,32.2533005 L26.4557004,28.6072004 L30.1651004,24.8979004 L37.4570006,24.8979004 L37.4570006,24.8980004 Z M20.5932003,32.2533005 L13.2379002,24.8980004 L27.9486004,24.8980004 L20.5932003,32.2533005 Z M25.3474004,29.7156004 L29.4114004,33.7796005 L21.2832003,33.7796005 L25.3474004,29.7156004 Z M6.5306001,14.4490002 L44.6694007,14.4490002 L44.6694007,18.1061003 L6.5306001,18.1061003 L6.5306001,14.4490002 Z M9.14290014,21.5020003 C9.14290014,20.4938003 9.96320015,19.6734003 10.9715002,19.6734003 L40.2286006,19.6734003 C41.2368006,19.6734003 42.0572006,20.4937003 42.0572006,21.5020003 C42.0572006,22.5102003 41.2368006,23.3306003 40.2286006,23.3306003 L39.0878006,23.3306003 L39.0560006,23.2988003 L39.0242006,23.3306003 L29.5792004,23.3306003 L29.5474004,23.2988003 L29.5156004,23.3306003 L11.6705002,23.3306003 L11.6387002,23.2988003 L11.6069002,23.3306003 L10.9714002,23.3306003 C9.96320015,23.3306003 9.14290014,22.5103003 9.14290014,21.5020003 Z M9.14290014,31.9510005 C9.14290014,30.9428005 9.96320015,30.1224004 10.9715002,30.1224004 L13.4354002,30.1224004 L13.4354002,28.5551004 L6.5306001,28.5551004 L6.5306001,24.8980004 L11.0212002,24.8980004 L19.9029003,33.7796005 L10.9714002,33.7796005 C9.96320015,33.7796005 9.14290014,32.9592005 9.14290014,31.9510005 Z M6.5306001,35.3469005 L44.6694007,35.3469005 L44.6694007,39.0040006 L6.5306001,39.0040006 L6.5306001,35.3469005 Z M43.9887007,44.7510007 L7.21130011,44.7510007 L6.16640009,43.1837006 L45.0338007,43.1837006 L43.9887007,44.7510007 Z M49.6327007,41.6163006 L1.56730002,41.6163006 L1.56730002,40.5714006 L49.6326007,40.5714006 L49.6326007,41.6163006 L49.6327007,41.6163006 Z" id="Shape" fill="#000000" fill-rule="nonzero"></path>
                            </g>
                        </g>
                    </g>
                </g>
            </g>
        </g>
    </g>
</svg>