<?xml version="1.0" encoding="UTF-8"?>
<svg width="52px" height="17px" viewBox="0 0 52 17" version="1.1" xmlns="http://www.w3.org/2000/svg" xmlns:xlink="http://www.w3.org/1999/xlink">
    <!-- Generator: Sketch 62 (91390) - https://sketch.com -->
    <title>sausage</title>
    <desc>Created with Sketch.</desc>
    <g id="Page-1" stroke="none" stroke-width="1" fill="none" fill-rule="evenodd">
        <g id="16.3-MAIN-UI---ALL-ITEM-(-ADD)-Copy-2" transform="translate(-820.000000, -1122.000000)">
            <g id="CREATE-ITEM" transform="translate(327.000000, 413.000000)">
                <g id="NOTIFICATION-BAR" transform="translate(66.000000, 545.000000)">
                    <g id="SET-1" transform="translate(23.000000, 34.000000)">
                        <g id="sausage" transform="translate(404.000000, 130.000000)">
                            <g>
                                <path d="M43.8857007,8.66130013 L7.31430011,8.66130013 C5.15020008,8.66130013 3.39590005,6.9070001 3.39590005,4.74290007 L3.39590005,4.74290007 C3.39590005,2.57880004 5.15020008,0.824500012 7.31430011,0.824500012 L43.8857007,0.824500012 C46.0498007,0.824500012 47.8041007,2.57880004 47.8041007,4.74290007 L47.8041007,4.74290007 C47.8041007,6.9070001 46.0498007,8.66130013 43.8857007,8.66130013 Z" id="Shape" fill="#FF505D" fill-rule="nonzero"></path>
                                <path d="M45.4076007,1.13120002 C45.6050007,1.59910002 45.7143007,2.11330003 45.7143007,2.65310004 L45.7143007,2.65310004 C45.7143007,4.81720007 43.9600007,6.5715001 41.7959006,6.5715001 L5.22450008,6.5715001 C4.68470007,6.5715001 4.17050006,6.4623001 3.70260006,6.26480009 C4.29660006,7.67290011 5.69000008,8.66130013 7.31430011,8.66130013 L43.8857007,8.66130013 C46.0498007,8.66130013 47.8041007,6.9070001 47.8041007,4.74290007 L47.8041007,4.74290007 C47.8041007,3.11860005 46.8157007,1.72520003 45.4076007,1.13120002 Z" id="Shape" fill="#E21220" fill-rule="nonzero"></path>
                                <circle id="Oval" fill="#FF7C80" fill-rule="nonzero" cx="49.1102007" cy="4.74290007" r="1.30610002"></circle>
                                <circle id="Oval" fill="#FF7C80" fill-rule="nonzero" cx="2.08980003" cy="4.74290007" r="1.30610002"></circle>
                                <path d="M43.8857007,15.9756002 L7.31430011,15.9756002 C5.15020008,15.9756002 3.39590005,14.2213002 3.39590005,12.0572002 L3.39590005,12.0572002 C3.39590005,9.89310015 5.15020008,8.13880012 7.31430011,8.13880012 L43.8857007,8.13880012 C46.0498007,8.13880012 47.8041007,9.89310015 47.8041007,12.0572002 L47.8041007,12.0572002 C47.8041007,14.2213002 46.0498007,15.9756002 43.8857007,15.9756002 Z" id="Shape" fill="#FF505D" fill-rule="nonzero"></path>
                                <path d="M45.4076007,8.44550013 C45.6050007,8.91340013 45.7143007,9.42760014 45.7143007,9.96740015 L45.7143007,9.96740015 C45.7143007,12.1315002 43.9600007,13.8858002 41.7959006,13.8858002 L5.22450008,13.8858002 C4.68470007,13.8858002 4.17050006,13.7766002 3.70260006,13.5791002 C4.29660006,14.9872002 5.69000008,15.9756002 7.31430011,15.9756002 L43.8857007,15.9756002 C46.0498007,15.9756002 47.8041007,14.2213002 47.8041007,12.0572002 L47.8041007,12.0572002 C47.8041007,10.4329002 46.8157007,9.03950013 45.4076007,8.44550013 Z" id="Shape" fill="#E21220" fill-rule="nonzero"></path>
                                <circle id="Oval" fill="#FF7C80" fill-rule="nonzero" cx="49.1102007" cy="12.0572002" r="1.30610002"></circle>
                                <circle id="Oval" fill="#FF7C80" fill-rule="nonzero" cx="2.08980003" cy="12.0572002" r="1.30610002"></circle>
                                <path d="M2.08980003,6.8327001 C2.41730004,6.8327001 2.72620004,6.7549001 3.00240004,6.6200001 C3.12570005,6.9026001 3.27700005,7.17440011 3.45630005,7.43150011 L4.74190007,6.5350001 C4.52650007,6.22610009 4.37240007,5.88520009 4.28020006,5.52670008 L4.96320007,5.52670008 L4.96320007,3.95940006 L4.27820006,3.95940006 C4.41590007,3.42210005 4.69490007,2.92910004 5.09690008,2.52650004 C5.69000008,1.93450003 6.4774001,1.60830002 7.31430011,1.60830002 L11.6426002,1.60830002 L11.0276002,3.14590005 L12.4828002,3.72790006 L13.3305002,1.60830002 L16.7625002,1.60830002 L16.1475002,3.14590005 L17.6027003,3.72790006 L18.4505003,1.60830002 L21.8825003,1.60830002 L21.2675003,3.14590005 L22.7227003,3.72790006 L23.5705004,1.60830002 L27.0025004,1.60830002 L26.3875004,3.14590005 L27.8428004,3.72790006 L28.6906004,1.60830002 L32.1225005,1.60830002 L31.5075005,3.14590005 L32.9628005,3.72790006 L33.8106005,1.60830002 L37.2425006,1.60830002 L36.6275005,3.14590005 L38.0828006,3.72790006 L38.9306006,1.60830002 L43.8857007,1.60830002 C45.3436007,1.60830002 46.5723007,2.60880004 46.9212007,3.95930006 L46.2367007,3.95930006 L46.2367007,5.52660008 L46.9197007,5.52660008 C46.8274007,5.88520009 46.6733007,6.22620009 46.4580007,6.5349001 L47.7435007,7.43140011 C47.9228007,7.17440011 48.0741007,6.9026001 48.1975007,6.6198001 C48.4737007,6.7547001 48.7826007,6.8325001 49.1102007,6.8325001 C50.2625007,6.8325001 51.2000008,5.89500009 51.2000008,4.74270007 C51.2000008,3.59040005 50.2625007,2.65290004 49.1102007,2.65290004 C48.7821007,2.65290004 48.4726007,2.73110004 48.1960007,2.86640004 C47.4699007,1.20510002 45.8115007,0.0408000006 43.8856007,0.0408000006 L7.31430011,0.0408000006 C6.05920009,0.0408000006 4.87830007,0.529700008 3.98870006,1.41810002 C3.56550005,1.84190003 3.23410005,2.33260003 3.00200004,2.86560004 C2.72580004,2.73080004 2.41720004,2.65310004 2.08980003,2.65310004 C0.937500014,2.65310004 0,3.59060005 0,4.74290007 C0,5.89520009 0.937500014,6.8327001 2.08980003,6.8327001 Z M49.1102007,4.22050006 C49.3983007,4.22050006 49.6326007,4.45490007 49.6326007,4.74290007 C49.6326007,5.03100007 49.3982007,5.26530008 49.1102007,5.26530008 C48.8222007,5.26530008 48.5878007,5.03090007 48.5878007,4.74290007 C48.5878007,4.45480007 48.8221007,4.22050006 49.1102007,4.22050006 Z M2.08980003,4.22050006 C2.37790004,4.22050006 2.61220004,4.45490007 2.61220004,4.74290007 C2.61220004,5.03100007 2.37780004,5.26530008 2.08980003,5.26530008 C1.80180003,5.26530008 1.56740002,5.03090007 1.56740002,4.74290007 C1.56730002,4.45480007 1.80170003,4.22050006 2.08980003,4.22050006 Z" id="Shape" fill="#000000" fill-rule="nonzero"></path>
                                <path d="M49.1102007,9.96740015 C48.7821007,9.96740015 48.4726007,10.0456001 48.1960007,10.1809002 C47.4700007,8.51950013 45.8116007,7.35520011 43.8857007,7.35520011 L7.31430011,7.35520011 C5.38830008,7.35520011 3.73000006,8.51950013 3.00400004,10.1809002 C2.72740004,10.0456001 2.41790004,9.96740015 2.08980003,9.96740015 C0.937500014,9.96740015 0,10.9049002 0,12.0572002 C0,13.2095002 0.937500014,14.1470002 2.08980003,14.1470002 C2.41790004,14.1470002 2.72740004,14.0688002 3.00400004,13.9335002 C3.73000006,15.5949002 5.38840008,16.7592002 7.31430011,16.7592002 L43.8857007,16.7592002 C45.8117007,16.7592002 47.4700007,15.5949002 48.1960007,13.9335002 C48.4726007,14.0688002 48.7821007,14.1470002 49.1102007,14.1470002 C50.2625007,14.1470002 51.2000008,13.2095002 51.2000008,12.0572002 C51.2000008,10.9049002 50.2625007,9.96740015 49.1102007,9.96740015 Z M2.08980003,12.5796002 C1.80170003,12.5796002 1.56740002,12.3452002 1.56740002,12.0572002 C1.56740002,11.7692002 1.80180003,11.5348002 2.08980003,11.5348002 C2.37780004,11.5348002 2.61220004,11.7692002 2.61220004,12.0572002 C2.61220004,12.3452002 2.37790004,12.5796002 2.08980003,12.5796002 Z M43.8857007,15.1919002 L7.31430011,15.1919002 C5.85640009,15.1919002 4.62770007,14.1914002 4.27880006,12.8409002 L4.96330007,12.8409002 L4.96330007,11.2736002 L4.27880006,11.2736002 C4.62770007,9.92310015 5.85640009,8.92260013 7.31430011,8.92260013 L11.6426002,8.92260013 L11.0276002,10.4602002 L12.4828002,11.0422002 L13.3305002,8.92260013 L16.7625002,8.92260013 L16.1475002,10.4602002 L17.6027003,11.0422002 L18.4505003,8.92260013 L21.8825003,8.92260013 L21.2675003,10.4602002 L22.7227003,11.0422002 L23.5705004,8.92260013 L27.0025004,8.92260013 L26.3875004,10.4602002 L27.8428004,11.0422002 L28.6906004,8.92260013 L32.1225005,8.92260013 L31.5075005,10.4602002 L32.9628005,11.0422002 L33.8106005,8.92260013 L37.2425006,8.92260013 L36.6275005,10.4602002 L38.0828006,11.0422002 L38.9306006,8.92260013 L43.8857007,8.92260013 C45.3436007,8.92260013 46.5723007,9.92310015 46.9212007,11.2736002 L46.2367007,11.2736002 L46.2367007,12.8409002 L46.9212007,12.8409002 C46.5724007,14.1914002 45.3437007,15.1919002 43.8857007,15.1919002 Z M49.1102007,12.5796002 C48.8221007,12.5796002 48.5878007,12.3452002 48.5878007,12.0572002 C48.5878007,11.7692002 48.8222007,11.5348002 49.1102007,11.5348002 C49.3982007,11.5348002 49.6326007,11.7692002 49.6326007,12.0572002 C49.6326007,12.3452002 49.3983007,12.5796002 49.1102007,12.5796002 Z" id="Shape" fill="#000000" fill-rule="nonzero"></path>
                            </g>
                        </g>
                    </g>
                </g>
            </g>
        </g>
    </g>
</svg>