<?xml version="1.0" encoding="UTF-8"?>
<svg width="52px" height="35px" viewBox="0 0 52 35" version="1.1" xmlns="http://www.w3.org/2000/svg" xmlns:xlink="http://www.w3.org/1999/xlink">
    <!-- Generator: Sketch 62 (91390) - https://sketch.com -->
    <title>shrimp</title>
    <desc>Created with Sketch.</desc>
    <g id="Page-1" stroke="none" stroke-width="1" fill="none" fill-rule="evenodd">
        <g id="16.3-MAIN-UI---ALL-ITEM-(-ADD)-Copy-2" transform="translate(-984.000000, -1020.000000)">
            <g id="CREATE-ITEM" transform="translate(327.000000, 413.000000)">
                <g id="NOTIFICATION-BAR" transform="translate(66.000000, 545.000000)">
                    <g id="SET-1" transform="translate(23.000000, 34.000000)">
                        <g id="shrimp" transform="translate(568.000000, 28.000000)">
                            <g>
                                <polyline id="Shape" fill="#E21220" fill-rule="nonzero" points="34.3771005 20.4040003 25.6348004 28.2408004 34.3771005 28.2408004"></polyline>
                                <path d="M34.3771005,7.34280011 C40.1479006,7.34280011 44.8261007,12.0209002 44.8261007,17.7918003 C44.8261007,23.5627004 40.1479006,28.2408004 34.3771005,28.2408004 L34.3771005,20.4040003 C35.8198005,20.4040003 36.9893006,19.2344003 36.9893006,17.7918003 C36.9893006,16.3491002 35.8197005,15.1796002 34.3771005,15.1796002 L34.3771005,7.34280011 Z" id="Shape" fill="#FF505D" fill-rule="nonzero"></path>
                                <path d="M34.3771005,7.34280011 L34.3771005,7.55200011 C39.1465006,8.52020013 42.7363006,12.7367002 42.7363006,17.7918003 C42.7363006,22.8469003 39.1466006,27.0634004 34.3771005,28.0316004 L34.3771005,28.2408004 C40.1479006,28.2408004 44.8261007,23.5626004 44.8261007,17.7918003 C44.8261007,12.0210002 40.1479006,7.34280011 34.3771005,7.34280011 Z" id="Shape" fill="#E21220" fill-rule="nonzero"></path>
                                <path d="M32.2873005,15.1795002 L34.3771005,15.1795002 L34.3771005,7.34280011 L24.4506004,7.34280011 L24.4506004,7.34280011 C24.4506004,11.6709002 27.9593004,15.1795002 32.2873005,15.1795002 Z" id="Shape" fill="#FF7C80" fill-rule="nonzero"></path>
                                <circle id="Oval" fill="#FFFFFF" fill-rule="nonzero" cx="29.4139004" cy="7.34280011" r="2.08980003"></circle>
                                <polyline id="Shape" fill="#E21220" fill-rule="nonzero" points="21.5249003 20.4040003 12.7826002 28.2408004 21.5249003 28.2408004"></polyline>
                                <path d="M21.5249003,7.34280011 C27.2957004,7.34280011 31.9739005,12.0209002 31.9739005,17.7918003 C31.9739005,23.5627004 27.2957004,28.2408004 21.5249003,28.2408004 L21.5249003,20.4040003 C22.9676003,20.4040003 24.1371004,19.2344003 24.1371004,17.7918003 C24.1371004,16.3491002 22.9675003,15.1796002 21.5249003,15.1796002 L21.5249003,7.34280011 L21.5249003,7.34280011 Z" id="Shape" fill="#FF505D" fill-rule="nonzero"></path>
                                <path d="M21.5249003,7.34280011 L21.5249003,7.55200011 C26.2943004,8.52020013 29.8841004,12.7367002 29.8841004,17.7918003 C29.8841004,22.8469003 26.2944004,27.0634004 21.5249003,28.0316004 L21.5249003,28.2408004 C27.2957004,28.2408004 31.9739005,23.5626004 31.9739005,17.7918003 C31.9739005,12.0210002 27.2957004,7.34280011 21.5249003,7.34280011 Z" id="Shape" fill="#E21220" fill-rule="nonzero"></path>
                                <path d="M19.4351003,15.1795002 L21.5249003,15.1795002 L21.5249003,7.34280011 L11.5984002,7.34280011 L11.5984002,7.34280011 C11.5984002,11.6709002 15.1070002,15.1795002 19.4351003,15.1795002 Z" id="Shape" fill="#FF7C80" fill-rule="nonzero"></path>
                                <circle id="Oval" fill="#FFFFFF" fill-rule="nonzero" cx="16.5616002" cy="7.34280011" r="2.08980003"></circle>
                                <path d="M18.9127003,26.0894004 C16.0442002,28.9579004 11.3936002,28.9579004 8.52530013,26.0894004 C5.65680008,23.2209003 5.65680008,18.5703003 8.52530013,15.7020002 L18.9127003,26.0894004 Z" id="Shape" fill="#FFDA44" fill-rule="nonzero"></path>
                                <path d="M18.0524003,25.2293004 C15.1790002,27.3340004 11.1218002,27.0882004 8.52510013,24.4914004 C7.29440011,23.2607003 6.5924001,21.7019003 6.4176001,20.0967003 C6.18520009,22.2330003 6.8873001,24.4517004 8.52510013,26.0895004 C11.3936002,28.9580004 16.0442002,28.9580004 18.9125003,26.0895004 L18.0524003,25.2293004 Z" id="Shape" fill="#EEBF00" fill-rule="nonzero"></path>
                                <rect id="Rectangle-path" fill="#FFFFFF" fill-rule="nonzero" x="0.783700012" y="28.2408004" width="49.6327007" height="2.61220004"></rect>
                                <polyline id="Shape" fill="#FFFFFF" fill-rule="nonzero" points="46.4980007 30.8530005 44.4082007 33.9877005 6.7918001 33.9877005 4.70200007 30.8530005"></polyline>
                                <path d="M40.0939006,27.4571004 C43.3933006,25.4981004 45.6098007,21.8993003 45.6098007,17.7918003 C45.6098007,11.8616002 40.9902006,6.9907001 35.1608005,6.5869001 L35.1608005,6.5591001 L34.3771005,6.5591001 L33.5934005,6.5591001 L32.1778005,6.5591001 C31.9218005,5.65750008 31.2360005,4.93530007 30.3565005,4.62900007 C30.5782005,4.22300006 31.0092005,3.94690006 31.5036005,3.94690006 L37.7730006,3.94690006 C39.3574006,3.94690006 40.6465006,2.65780004 40.6465006,1.07340002 L40.6465006,0.0285000004 L39.0792006,0.0285000004 L39.0792006,1.07340002 C39.0792006,1.79360003 38.4933006,2.37950004 37.7731006,2.37950004 L31.5037005,2.37950004 C30.1599004,2.37950004 29.0289004,3.30710005 28.7163004,4.55540007 C27.4680004,4.86790007 26.5404004,5.99890009 26.5404004,7.34280011 C26.5404004,7.48400011 26.5511004,7.62260011 26.5708004,7.75840012 C25.2732004,7.10320011 23.8323004,6.6925001 22.3086003,6.5870001 L22.3086003,6.5592001 L21.5249003,6.5592001 L20.7412003,6.5592001 L19.3256003,6.5592001 C19.0696003,5.65760008 18.3838003,4.93540007 17.5043003,4.62910007 C17.7260003,4.22310006 18.1570003,3.94700006 18.6514003,3.94700006 L24.9208004,3.94700006 C26.5052004,3.94700006 27.7943004,2.65790004 27.7943004,1.07350002 L27.7943004,0.0285000004 L26.2270004,0.0285000004 L26.2270004,1.07340002 C26.2270004,1.79360003 25.6411004,2.37950004 24.9209004,2.37950004 L18.6515003,2.37950004 C17.3077003,2.37950004 16.1767002,3.30710005 15.8641002,4.55540007 C14.8681002,4.80470007 14.0771002,5.57520008 13.7978002,6.5591001 L10.8147002,6.5591001 L10.8147002,7.34280011 C10.8147002,9.64490014 11.7114002,11.8095002 13.3399002,13.4381002 C14.9684002,15.0665002 17.1330003,15.9632002 19.4351003,15.9632002 L20.7412003,15.9632002 L21.5249003,15.9632002 C22.5331003,15.9632002 23.3535003,16.7835003 23.3535003,17.7918003 C23.3535003,18.8000003 22.5332003,19.6204003 21.5249003,19.6204003 L21.2250003,19.6204003 L18.1847003,22.3461003 L19.2311003,23.5130004 L20.7413003,22.1591003 L20.7413003,27.4570004 L18.5188003,27.4570004 C18.8519003,27.2123004 19.1691003,26.9413004 19.4668003,26.6435004 L20.0209003,26.0893004 L8.52520013,14.5938002 L7.97100012,15.1479002 C6.4357001,16.6833002 5.59020008,18.7246003 5.59020008,20.8959003 C5.59020008,23.0671003 6.4357001,25.1084004 7.97100012,26.6437004 C8.26880012,26.9415004 8.58600013,27.2125004 8.91910013,27.4573004 L0,27.4573004 L0,31.6369005 L4.28260006,31.6369005 L6.37240009,34.7716005 L44.8275007,34.7716005 L46.9173007,31.6369005 L51.2000008,31.6369005 L51.2000008,27.4573004 L40.0939006,27.4573004 L40.0939006,27.4571004 Z M16.5616002,6.03670009 C17.2818003,6.03670009 17.8677003,6.6226001 17.8677003,7.34280011 C17.8677003,8.06300012 17.2818003,8.64890013 16.5616002,8.64890013 C15.8414002,8.64890013 15.2555002,8.06300012 15.2555002,7.34280011 C15.2555002,6.6226001 15.8414002,6.03670009 16.5616002,6.03670009 Z M20.7412003,14.3959002 L19.4351003,14.3959002 C17.5517003,14.3959002 15.7805002,13.6621002 14.4481002,12.3298002 C13.3023002,11.1839002 12.5993002,9.71370014 12.4248002,8.12650012 L13.7977002,8.12650012 C14.1398002,9.33110014 15.2490002,10.2163002 16.5617002,10.2163002 C17.8744003,10.2163002 18.9836003,9.33110014 19.3257003,8.12650012 L20.7413003,8.12650012 L20.7413003,14.3959002 L20.7412003,14.3959002 Z M35.1608005,27.4256004 L35.1608005,21.0964003 C35.5185005,21.0116003 35.8541005,20.8694003 36.1584005,20.6813003 L40.6303006,25.1531004 C39.1300006,26.4294004 37.2379006,27.2582004 35.1608005,27.4256004 Z M41.7398006,24.0461004 L37.2671006,19.5733003 C37.4553006,19.2691003 37.5962006,18.9330003 37.6811006,18.5753003 L44.0085007,18.5753003 C43.8409007,20.6522003 43.0160006,22.5461003 41.7398006,24.0461004 Z M44.0085007,17.0081003 L37.6811006,17.0081003 C37.5963006,16.6504002 37.4554006,16.3143002 37.2671006,16.0101002 L41.7398006,11.5373002 C43.0160006,13.0375002 43.8409007,14.9314002 44.0085007,17.0081003 Z M35.1608005,8.15790012 C37.2378006,8.32540012 39.1299006,9.15410014 40.6301006,10.4303002 L36.1582005,14.9021002 C35.8540005,14.7139002 35.5183005,14.5718002 35.1606005,14.4870002 L35.1606005,8.15780012 L35.1608005,8.15780012 L35.1608005,8.15790012 Z M33.7889005,15.9632002 L34.3772005,15.9632002 C35.3854005,15.9632002 36.2058005,16.7835003 36.2058005,17.7918003 C36.2058005,18.8000003 35.3854005,19.6204003 34.3772005,19.6204003 L33.5935005,19.6204003 L33.5935005,27.4571004 L27.2417004,27.4571004 C30.5411005,25.4981004 32.7576005,21.8993003 32.7576005,17.7918003 C32.7576005,17.1691003 32.7059005,16.5585002 32.6080005,15.9632002 L33.5935005,15.9632002 L33.7889005,15.9632002 Z M24.8288004,18.5755003 L31.1562005,18.5755003 C30.9886005,20.6522003 30.1638004,22.5461003 28.8875004,24.0462004 L24.4148004,19.5734003 C24.6031004,19.2693003 24.7440004,18.9331003 24.8288004,18.5755003 Z M24.4149004,16.0101002 L28.8876004,11.5373002 C30.1638004,13.0374002 30.9887005,14.9312002 31.1563005,17.0080003 L24.8289004,17.0080003 C24.7440004,16.6504002 24.6031004,16.3143002 24.4149004,16.0101002 Z M32.1778005,8.12650012 L33.5934005,8.12650012 L33.5934005,14.3959002 L32.2323005,14.3959002 C31.7297005,12.8147002 30.8858005,11.3842002 29.7876004,10.1912002 C30.9335005,10.0416001 31.8688005,9.21470014 32.1778005,8.12650012 Z M29.4139004,6.03670009 C30.1341004,6.03670009 30.7200005,6.6226001 30.7200005,7.34280011 C30.7200005,8.06300012 30.1341004,8.64890013 29.4139004,8.64890013 C28.6937004,8.64890013 28.1078004,8.06300012 28.1078004,7.34280011 C28.1078004,6.6226001 28.6936004,6.03670009 29.4139004,6.03670009 Z M23.3061003,14.9022002 C23.0019003,14.7140002 22.6662003,14.5719002 22.3085003,14.4871002 L22.3085003,8.15790012 C24.3854004,8.32540012 26.2776004,9.15410014 27.7778004,10.4303002 L23.3061003,14.9022002 Z M22.3086003,21.0965003 C22.6663003,21.0117003 23.0019003,20.8695003 23.3062003,20.6814003 L27.7781004,25.1532004 C26.2778004,26.4294004 24.3857004,27.2583004 22.3088003,27.4256004 L22.3088003,21.0964003 L22.3086003,21.0964003 L22.3086003,21.0965003 Z M14.5026002,22.7875003 L17.7719003,26.0568004 C16.8248003,26.8036004 15.7004002,27.2686004 14.5026002,27.4102004 L14.5026002,22.7875003 Z M8.55770013,16.8428003 L11.8270002,20.1121003 L7.20440011,20.1121003 C7.34610011,18.9143003 7.81090012,17.7899003 8.55770013,16.8428003 Z M12.9352002,22.7879003 L12.9352002,27.4092004 C11.7377002,27.2676004 10.6144002,26.8022004 9.66740014,26.0556004 L12.9352002,22.7879003 Z M8.55910013,24.9471004 C7.81250012,24.0003004 7.34720011,22.8767003 7.20550011,21.6794003 L11.8269002,21.6794003 L8.55910013,24.9471004 Z M43.9887007,33.2040005 L7.21130011,33.2040005 L6.16640009,31.6367005 L45.0338007,31.6367005 L43.9887007,33.2040005 Z M49.6327007,30.0693004 L1.56730002,30.0693004 L1.56730002,29.0244004 L20.7412003,29.0244004 L21.5249003,29.0244004 L33.5935005,29.0244004 L34.3772005,29.0244004 L49.6327007,29.0244004 L49.6327007,30.0693004 Z" id="Shape" fill="#000000" fill-rule="nonzero"></path>
                            </g>
                        </g>
                    </g>
                </g>
            </g>
        </g>
    </g>
</svg>