<?xml version="1.0" encoding="UTF-8"?>
<svg width="28px" height="52px" viewBox="0 0 28 52" version="1.1" xmlns="http://www.w3.org/2000/svg" xmlns:xlink="http://www.w3.org/1999/xlink">
    <!-- Generator: Sketch 62 (91390) - https://sketch.com -->
    <title>smoothie-1</title>
    <desc>Created with Sketch.</desc>
    <g id="Page-1" stroke="none" stroke-width="1" fill="none" fill-rule="evenodd">
        <g id="16.3-MAIN-UI---ALL-ITEM-(-ADD)-Copy-2" transform="translate(-832.000000, -1361.000000)">
            <g id="CREATE-ITEM" transform="translate(327.000000, 413.000000)">
                <g id="NOTIFICATION-BAR" transform="translate(66.000000, 545.000000)">
                    <g id="SET-2" transform="translate(23.000000, 279.000000)">
                        <g id="smoothie-1" transform="translate(416.000000, 124.000000)">
                            <g>
                                <path d="M2.42341007,21.1592 C2.42341007,14.2342 7.60643165,8.6204 14,8.6204 C20.3935683,8.6204 25.5765899,14.2342 25.5765899,21.1592" id="Shape" fill="#FFFFFF" fill-rule="nonzero"></path>
                                <path d="M20.7077122,10.9386 C21.9650935,12.5358 22.8591799,14.4788 23.2506763,16.6179 C23.4845468,17.8957 22.4850072,19.0694 21.1768633,19.0694 L2.58435971,19.0694 C2.47900719,19.7491 2.42341007,20.4471 2.42341007,21.1592 L25.5765899,21.1592 C25.5765899,16.9422 23.6545612,13.2116 20.7077122,10.9386 Z" id="Shape" fill="#EBE5DD" fill-rule="nonzero"></path>
                                <polygon id="Shape" fill="#FFFFFF" fill-rule="nonzero" points="22.4193381 50.4163 5.58066187 50.4163 3.47582734 24.2939 24.5241727 24.2939"></polygon>
                                <polygon id="Shape" fill="#EBE5DD" fill-rule="nonzero" points="24.018964 30.5633 3.98103597 30.5633 5.58066187 50.4163 22.4193381 50.4163"></polygon>
                                <ellipse id="Oval" fill="#57565C" fill-rule="nonzero" cx="10.8427482" cy="46.7592" rx="1.57857554" ry="1.5673"></ellipse>
                                <ellipse id="Oval" fill="#57565C" fill-rule="nonzero" cx="14" cy="46.7592" rx="1.57857554" ry="1.5673"></ellipse>
                                <ellipse id="Oval" fill="#57565C" fill-rule="nonzero" cx="17.1572518" cy="46.7592" rx="1.57857554" ry="1.5673"></ellipse>
                                <ellipse id="Oval" fill="#57565C" fill-rule="nonzero" cx="12.4214245" cy="43.6245" rx="1.57857554" ry="1.5673"></ellipse>
                                <ellipse id="Oval" fill="#57565C" fill-rule="nonzero" cx="15.5785755" cy="43.6245" rx="1.57857554" ry="1.5673"></ellipse>
                                <ellipse id="Oval" fill="#57565C" fill-rule="nonzero" cx="14" cy="40.4898" rx="1.57857554" ry="1.5673"></ellipse>
                                <rect id="Rectangle-path" fill="#2B8C4A" fill-rule="nonzero" x="12.4214245" y="24.2939" width="3.1572518" height="11.4939"></rect>
                                <polygon id="Rectangle-path" fill="#EBE5DD" fill-rule="nonzero" points="0.844834532 21.1592 27.1551655 21.1592 27.1551655 24.2939 0.844834532 24.2939"></polygon>
                                <polyline id="Shape" fill="#3FC378" fill-rule="nonzero" points="12.4214245 13.8449 12.4214245 0.7837 15.5785755 0.7837 15.5785755 13.8449"></polyline>
                                <path d="M17.7790935,44.491 C17.8866619,44.2227 17.9464892,43.9304 17.9464892,43.6245 C17.9464892,42.5418 17.205295,41.6283 16.2004173,41.3563 C16.3079856,41.088 16.3678129,40.7957 16.3678129,40.4898 C16.3678129,39.1934 15.3055252,38.1388 13.9998993,38.1388 C12.6941727,38.1388 11.6319856,39.1934 11.6319856,40.4898 C11.6319856,40.7957 11.6917122,41.088 11.7992806,41.3563 C10.7944029,41.6283 10.0533094,42.5417 10.0533094,43.6245 C10.0533094,43.9304 10.113036,44.2227 10.2206043,44.491 C9.21572662,44.763 8.47463309,45.6764 8.47463309,46.7592 C8.47463309,48.0556 9.53682014,49.1102 10.8425468,49.1102 C11.4485755,49.1102 12.0019281,48.8827 12.4211223,48.5096 C12.8404173,48.8827 13.3937698,49.1102 13.9996978,49.1102 C14.6057266,49.1102 15.1590791,48.8827 15.5782734,48.5096 C15.9975683,48.8827 16.5509209,49.1102 17.1568489,49.1102 C18.4624748,49.1102 19.5247626,48.0556 19.5247626,46.7592 C19.5251655,45.6765 18.7839712,44.763 17.7790935,44.491 Z M15.5785755,44.4082 C15.1432662,44.4082 14.7892374,44.0567 14.7892374,43.6245 C14.7892374,43.1923 15.1432662,42.8408 15.5785755,42.8408 C16.0138849,42.8408 16.3679137,43.1923 16.3679137,43.6245 C16.3679137,44.0567 16.0138849,44.4082 15.5785755,44.4082 Z M14,39.7061 C14.4353094,39.7061 14.7893381,40.0576 14.7893381,40.4898 C14.7893381,40.922 14.4353094,41.2735 14,41.2735 C13.5646906,41.2735 13.2106619,40.922 13.2106619,40.4898 C13.2106619,40.0576 13.5646906,39.7061 14,39.7061 Z M12.4214245,42.8408 C12.8567338,42.8408 13.2107626,43.1923 13.2107626,43.6245 C13.2107626,44.0567 12.8567338,44.4082 12.4214245,44.4082 C11.9861151,44.4082 11.6320863,44.0567 11.6320863,43.6245 C11.6320863,43.1923 11.9861151,42.8408 12.4214245,42.8408 Z M10.8427482,47.5429 C10.4074388,47.5429 10.0534101,47.1914 10.0534101,46.7592 C10.0534101,46.327 10.4074388,45.9755 10.8427482,45.9755 C11.2780576,45.9755 11.6320863,46.327 11.6320863,46.7592 C11.6320863,47.1914 11.2780576,47.5429 10.8427482,47.5429 Z M14,47.5429 C13.5646906,47.5429 13.2106619,47.1914 13.2106619,46.7592 C13.2106619,46.327 13.5646906,45.9755 14,45.9755 C14.4353094,45.9755 14.7893381,46.327 14.7893381,46.7592 C14.7893381,47.1914 14.4353094,47.5429 14,47.5429 Z M17.1572518,47.5429 C16.7219424,47.5429 16.3679137,47.1914 16.3679137,46.7592 C16.3679137,46.327 16.7219424,45.9755 17.1572518,45.9755 C17.5925612,45.9755 17.9465899,46.327 17.9465899,46.7592 C17.9465899,47.1914 17.5925612,47.5429 17.1572518,47.5429 Z" id="Shape" fill="#000000" fill-rule="nonzero"></path>
                                <path d="M27.9445036,20.3755 L26.342259,20.3755 C26.0495683,14.9754 22.7545324,10.276 17.9546475,8.5333 L17.4124748,10.0054 C21.5947482,11.5238 24.4741151,15.6324 24.7617698,20.3756 L3.23702158,20.3756 C3.55539568,15.1953 7.00453237,10.8205 11.6319856,9.6894 L11.6319856,13.0613 L10.0534101,13.0613 L10.0534101,14.6286 L17.9464892,14.6286 L17.9464892,13.0613 L16.3679137,13.0613 L16.3679137,0 L11.6320863,0 L11.6320863,8.0821 C8.9501295,8.6432 6.50546763,10.1543 4.69020144,12.3893 C2.87936691,14.6189 1.8168777,17.4294 1.65623022,20.3756 L0.0554964029,20.3756 L0.0554964029,25.0776 L2.7471223,25.0776 L4.85195683,51.2 L23.1479424,51.2 L25.2528777,25.0776 L27.9444029,25.0776 L27.9444029,20.3755 L27.9445036,20.3755 Z M14.7893381,1.5673 L14.7893381,13.0612 L13.2107626,13.0612 L13.2107626,1.5673 L14.7893381,1.5673 Z M21.3669209,23.5102 L21.3669209,21.9429 L23.0771367,21.9429 L23.0771367,23.5102 L21.3669209,23.5102 Z M4.92296403,23.5102 L4.92296403,21.9429 L6.63317986,21.9429 L6.63317986,23.5102 L4.92296403,23.5102 Z M8.2117554,21.9429 L9.92197122,21.9429 L9.92197122,23.5102 L8.2117554,23.5102 L8.2117554,21.9429 Z M11.5005468,21.9429 L13.2107626,21.9429 L13.2107626,23.5102 L11.5005468,23.5102 L11.5005468,21.9429 Z M13.2106619,25.0775 L14.7892374,25.0775 L14.7892374,35.004 L13.2106619,35.004 L13.2106619,25.0775 Z M14.7893381,23.5102 L14.7893381,21.9429 L16.499554,21.9429 L16.499554,23.5102 L14.7893381,23.5102 Z M18.0781295,21.9429 L19.7883453,21.9429 L19.7883453,23.5102 L18.0781295,23.5102 L18.0781295,21.9429 Z M1.63407194,21.9429 L3.34428777,21.9429 L3.34428777,23.5102 L1.63407194,23.5102 L1.63407194,21.9429 Z M21.6906331,49.6327 L6.30936691,49.6327 L4.33083453,25.0776 L11.6320863,25.0776 L11.6320863,29.7796 L6.0858705,29.7796 L6.0858705,31.3469 L11.6320863,31.3469 L11.6320863,36.5714 L16.3679137,36.5714 L16.3679137,31.3469 L23.1639568,31.3469 L21.6906331,49.6327 Z M23.290259,29.7796 L16.3679137,29.7796 L16.3679137,25.0776 L23.6691655,25.0776 L23.290259,29.7796 Z M26.3658273,23.5102 L24.6556115,23.5102 L24.6556115,21.9429 L26.3658273,21.9429 L26.3658273,23.5102 Z" id="Shape" fill="#000000" fill-rule="nonzero"></path>
                            </g>
                        </g>
                    </g>
                </g>
            </g>
        </g>
    </g>
</svg>