<?xml version="1.0" encoding="UTF-8"?>
<svg width="28px" height="52px" viewBox="0 0 28 52" version="1.1" xmlns="http://www.w3.org/2000/svg" xmlns:xlink="http://www.w3.org/1999/xlink">
    <!-- Generator: Sketch 62 (91390) - https://sketch.com -->
    <title>smoothie</title>
    <desc>Created with Sketch.</desc>
    <g id="Page-1" stroke="none" stroke-width="1" fill="none" fill-rule="evenodd">
        <g id="16.3-MAIN-UI---ALL-ITEM-(-ADD)-Copy-2" transform="translate(-685.000000, -1361.000000)">
            <g id="CREATE-ITEM" transform="translate(327.000000, 413.000000)">
                <g id="NOTIFICATION-BAR" transform="translate(66.000000, 545.000000)">
                    <g id="SET-2" transform="translate(23.000000, 279.000000)">
                        <g id="smoothie" transform="translate(269.000000, 124.000000)">
                            <g>
                                <path d="M2.42341007,21.1592 C2.42341007,14.2342 7.60643165,8.6204 14,8.6204 C20.3935683,8.6204 25.5765899,14.2342 25.5765899,21.1592" id="Shape" fill="#FFFFFF" fill-rule="nonzero"></path>
                                <path d="M20.7077122,10.9386 C21.9650935,12.5358 22.8591799,14.4788 23.2506763,16.6179 C23.4845468,17.8957 22.4850072,19.0694 21.1768633,19.0694 L2.58435971,19.0694 C2.47900719,19.7491 2.42341007,20.4471 2.42341007,21.1592 L25.5765899,21.1592 C25.5765899,16.9422 23.6545612,13.2116 20.7077122,10.9386 Z" id="Shape" fill="#EBE5DD" fill-rule="nonzero"></path>
                                <polygon id="Shape" fill="#FFFFFF" fill-rule="nonzero" points="22.4193381 50.4163 5.58066187 50.4163 3.47582734 24.2939 24.5241727 24.2939"></polygon>
                                <path d="M3.47582734,24.2939 L3.63153957,26.227 L20.1392518,26.227 C21.3678273,26.227 22.3353381,27.2674 22.2373381,28.4835 L20.4702158,50.4163 L22.4193381,50.4163 L24.5241727,24.2939 L3.47582734,24.2939 L3.47582734,24.2939 Z" id="Shape" fill="#EBE5DD" fill-rule="nonzero"></path>
                                <polygon id="Shape" fill="#0DD9DD" fill-rule="nonzero" points="23.9347626 31.6082 23.0086475 43.102 4.99135252 43.102 4.06523741 31.6082"></polygon>
                                <polygon id="Shape" fill="#02A6AA" fill-rule="nonzero" points="23.9347626 31.6082 23.0086475 43.102 21.0596259 43.102 21.985741 31.6082"></polygon>
                                <polygon id="Rectangle-path" fill="#0DD9DD" fill-rule="nonzero" points="0.844834532 21.1592 27.1551655 21.1592 27.1551655 24.2939 0.844834532 24.2939"></polygon>
                                <polyline id="Shape" fill="#FF505D" fill-rule="nonzero" points="12.4214245 13.8449 12.4214245 0.7837 15.5785755 0.7837 15.5785755 13.8449"></polyline>
                                <path d="M27.9445036,20.3755 L26.342259,20.3755 C26.0495683,14.9754 22.7545324,10.276 17.9545468,8.5333 L17.4124748,10.0054 C21.5947482,11.5238 24.4740144,15.6324 24.7616691,20.3756 L3.23702158,20.3756 C3.55539568,15.1953 7.00453237,10.8205 11.6319856,9.6894 L11.6319856,13.0613 L10.0534101,13.0613 L10.0534101,14.6286 L17.9464892,14.6286 L17.9464892,13.0613 L16.3679137,13.0613 L16.3679137,0 L11.6320863,0 L11.6320863,8.0821 C8.9501295,8.6432 6.50546763,10.1543 4.69020144,12.3893 C2.87936691,14.6189 1.8168777,17.4294 1.65623022,20.3756 L0.0554964029,20.3756 L0.0554964029,25.0776 L2.7471223,25.0776 L4.85195683,51.2 L23.1479424,51.2 L25.252777,25.0776 L27.9444029,25.0776 L27.9444029,20.3755 L27.9445036,20.3755 Z M14.7893381,1.5673 L14.7893381,13.0612 L13.2107626,13.0612 L13.2107626,1.5673 L14.7893381,1.5673 Z M6.30936691,49.6327 L5.84625899,43.8858 L22.1536403,43.8858 L21.6905324,49.6327 L6.30936691,49.6327 Z M23.2061583,30.8245 L6.17007194,30.8245 L6.17007194,32.3918 L23.0798561,32.3918 L22.2800432,42.3183 L5.72005755,42.3183 L4.33083453,25.0775 L23.6691655,25.0775 L23.2061583,30.8245 Z M26.3658273,23.5102 L1.63407194,23.5102 L1.63407194,21.9429 L26.3658273,21.9429 L26.3658273,23.5102 Z" id="Shape" fill="#000000" fill-rule="nonzero"></path>
                            </g>
                        </g>
                    </g>
                </g>
            </g>
        </g>
    </g>
</svg>