<?xml version="1.0" encoding="UTF-8"?>
<svg width="30px" height="52px" viewBox="0 0 30 52" version="1.1" xmlns="http://www.w3.org/2000/svg" xmlns:xlink="http://www.w3.org/1999/xlink">
    <!-- Generator: Sketch 62 (91390) - https://sketch.com -->
    <title>smoothie-2</title>
    <desc>Created with Sketch.</desc>
    <g id="Page-1" stroke="none" stroke-width="1" fill="none" fill-rule="evenodd">
        <g id="16.3-MAIN-UI---ALL-ITEM-(-ADD)-Copy-2" transform="translate(-758.000000, -1361.000000)">
            <g id="CREATE-ITEM" transform="translate(327.000000, 413.000000)">
                <g id="NOTIFICATION-BAR" transform="translate(66.000000, 545.000000)">
                    <g id="SET-2" transform="translate(23.000000, 279.000000)">
                        <g id="smoothie-2" transform="translate(342.000000, 124.000000)">
                            <g>
                                <polyline id="Shape" fill="#FFFFFF" fill-rule="nonzero" points="27.622953 19.5918 23.415302 50.4163 6.58469799 50.4163 2.37704698 19.5918"></polyline>
                                <path d="M27.622953,19.5918 L26.2681208,29.5183 L24.449396,29.5183 L25.1951678,24.0524 C25.3666107,22.7975 24.3851678,21.6815 23.1113758,21.6815 L2.66214765,21.6815 L2.37704698,19.5917 L27.622953,19.5917 L27.622953,19.5918 Z" id="Shape" fill="#EBE5DD" fill-rule="nonzero"></path>
                                <polygon id="Shape" fill="#EBE5DD" fill-rule="nonzero" points="26.2680201 29.5184 23.415302 50.4163 6.58469799 50.4163 3.73197987 29.5184"></polygon>
                                <polygon id="Shape" fill="#D9CCBC" fill-rule="nonzero" points="26.2680201 29.5184 23.415302 50.4163 21.5965772 50.4163 24.4492953 29.5184"></polygon>
                                <rect id="Rectangle-path" fill="#3FC378" fill-rule="nonzero" x="13.4221812" y="0.7837" width="3.15573826" height="15.151"></rect>
                                <rect id="Rectangle-path" fill="#2B8C4A" fill-rule="nonzero" x="13.4221812" y="19.5918" width="3.15573826" height="12.5388"></rect>
                                <polygon id="Rectangle-path" fill="#FFFFFF" fill-rule="nonzero" points="0.799228188 15.9347 29.2007718 15.9347 29.2007718 19.5918 0.799228188 19.5918"></polygon>
                                <ellipse id="Oval" fill="#57565C" fill-rule="nonzero" cx="11.8442617" cy="43.6245" rx="1.57781879" ry="1.5673"></ellipse>
                                <ellipse id="Oval" fill="#57565C" fill-rule="nonzero" cx="15" cy="43.6245" rx="1.57781879" ry="1.5673"></ellipse>
                                <ellipse id="Oval" fill="#57565C" fill-rule="nonzero" cx="18.1557383" cy="43.6245" rx="1.57781879" ry="1.5673"></ellipse>
                                <ellipse id="Oval" fill="#57565C" fill-rule="nonzero" cx="13.4221812" cy="40.4898" rx="1.57781879" ry="1.5673"></ellipse>
                                <ellipse id="Oval" fill="#57565C" fill-rule="nonzero" cx="16.5778188" cy="40.4898" rx="1.57781879" ry="1.5673"></ellipse>
                                <ellipse id="Oval" fill="#57565C" fill-rule="nonzero" cx="10.266443" cy="46.7592" rx="1.57781879" ry="1.5673"></ellipse>
                                <ellipse id="Oval" fill="#57565C" fill-rule="nonzero" cx="13.4221812" cy="46.7592" rx="1.57781879" ry="1.5673"></ellipse>
                                <ellipse id="Oval" fill="#57565C" fill-rule="nonzero" cx="16.5778188" cy="46.7592" rx="1.57781879" ry="1.5673"></ellipse>
                                <ellipse id="Oval" fill="#57565C" fill-rule="nonzero" cx="19.733557" cy="46.7592" rx="1.57781879" ry="1.5673"></ellipse>
                                <polygon id="Shape" fill="#000000" fill-rule="nonzero" points="14.2110403 1.5673 15.7889597 1.5673 15.7889597 13.8449 17.3667785 13.8449 17.3667785 0 12.6332215 0 12.6332215 13.8449 14.2110403 13.8449"></polygon>
                                <path d="M29.9897315,15.151 L0.0102684564,15.151 L0.0102684564,20.3755 L1.68795302,20.3755 L5.89550336,51.2 L24.1044966,51.2 L28.3121477,20.3755 L29.9897315,20.3755 L29.9897315,15.151 L29.9897315,15.151 Z M22.8892953,18.8082 L22.8892953,16.7184 L24.8616443,16.7184 L24.8616443,18.8082 L22.8892953,18.8082 Z M5.1383557,18.8082 L5.1383557,16.7184 L7.1107047,16.7184 L7.1107047,18.8082 L5.1383557,18.8082 Z M8.68852349,16.7184 L10.6608725,16.7184 L10.6608725,18.8082 L8.68852349,18.8082 L8.68852349,16.7184 L8.68852349,16.7184 Z M12.2386913,16.7184 L14.2110403,16.7184 L14.2110403,18.8082 L12.2386913,18.8082 L12.2386913,16.7184 L12.2386913,16.7184 Z M14.2110403,20.3755 L15.7888591,20.3755 L15.7888591,31.3469 L14.2110403,31.3469 L14.2110403,20.3755 Z M15.7889597,18.8082 L15.7889597,16.7184 L17.7613087,16.7184 L17.7613087,18.8082 L15.7889597,18.8082 Z M19.3391275,16.7184 L21.3114765,16.7184 L21.3114765,18.8082 L19.3391275,18.8082 L19.3391275,16.7184 Z M1.58818792,16.7184 L3.56053691,16.7184 L3.56053691,18.8082 L1.58818792,18.8082 L1.58818792,16.7184 Z M22.7261074,49.6327 L7.27389262,49.6327 L3.28006711,20.3756 L12.6331208,20.3756 L12.6331208,28.7348 L5.8357047,28.7348 L5.8357047,30.3021 L12.6331208,30.3021 L12.6331208,32.9143 L17.3666779,32.9143 L17.3666779,30.302 L25.364698,30.302 L22.7261074,49.6327 Z M25.5787248,28.7347 L17.3667785,28.7347 L17.3667785,20.3755 L26.7198322,20.3755 L25.5787248,28.7347 Z M28.4118121,18.8082 L26.4394631,18.8082 L26.4394631,16.7184 L28.4118121,16.7184 L28.4118121,18.8082 Z" id="Shape" fill="#000000" fill-rule="nonzero"></path>
                                <path d="M20.3552013,44.491 C20.4627181,44.2227 20.5225168,43.9304 20.5225168,43.6245 C20.5225168,42.5418 19.7816779,41.6282 18.7772819,41.3563 C18.8847987,41.088 18.9445973,40.7957 18.9445973,40.4898 C18.9445973,39.1935 17.8828188,38.1388 16.5778188,38.1388 C15.9720805,38.1388 15.4189933,38.3663 15,38.7394 C14.580906,38.3663 14.0278188,38.1388 13.4221812,38.1388 C12.1171812,38.1388 11.0554027,39.1935 11.0554027,40.4898 C11.0554027,40.7957 11.1151007,41.088 11.2227181,41.3563 C10.2183221,41.6282 9.47748322,42.5417 9.47748322,43.6245 C9.47748322,43.9304 9.53718121,44.2227 9.64479866,44.491 C8.64040268,44.7629 7.89956376,45.6764 7.89956376,46.7592 C7.89956376,48.0555 8.96134228,49.1102 10.2663423,49.1102 C10.8720805,49.1102 11.4251678,48.8827 11.8441611,48.5096 C12.263255,48.8827 12.8163423,49.1102 13.4219799,49.1102 C14.0277181,49.1102 14.5808054,48.8827 14.9997987,48.5096 C15.4188926,48.8827 15.9719799,49.1102 16.5776174,49.1102 C17.183255,49.1102 17.736443,48.8827 18.1554362,48.5096 C18.5745302,48.8827 19.1276174,49.1102 19.733255,49.1102 C21.038255,49.1102 22.1000336,48.0555 22.1000336,46.7592 C22.1004362,45.6765 21.3594966,44.7629 20.3552013,44.491 Z M15,42.8408 C15.4351007,42.8408 15.7889597,43.1924 15.7889597,43.6245 C15.7889597,44.0566 15.4351007,44.4082 15,44.4082 C14.5648993,44.4082 14.2110403,44.0566 14.2110403,43.6245 C14.2110403,43.1924 14.5648993,42.8408 15,42.8408 Z M18.1557383,44.4082 C17.7206376,44.4082 17.3667785,44.0566 17.3667785,43.6245 C17.3667785,43.1924 17.7206376,42.8408 18.1557383,42.8408 C18.5908389,42.8408 18.944698,43.1924 18.944698,43.6245 C18.944698,44.0566 18.5908389,44.4082 18.1557383,44.4082 Z M16.5778188,39.7061 C17.0129195,39.7061 17.3667785,40.0577 17.3667785,40.4898 C17.3667785,40.9219 17.0129195,41.2735 16.5778188,41.2735 C16.1427181,41.2735 15.7888591,40.9219 15.7888591,40.4898 C15.7889597,40.0577 16.1428188,39.7061 16.5778188,39.7061 Z M13.4221812,39.7061 C13.8572819,39.7061 14.2111409,40.0577 14.2111409,40.4898 C14.2111409,40.9219 13.8572819,41.2735 13.4221812,41.2735 C12.9870805,41.2735 12.6332215,40.9219 12.6332215,40.4898 C12.6332215,40.0577 12.9870805,39.7061 13.4221812,39.7061 Z M11.8442617,42.8408 C12.2793624,42.8408 12.6332215,43.1924 12.6332215,43.6245 C12.6332215,44.0566 12.2793624,44.4082 11.8442617,44.4082 C11.4091611,44.4082 11.055302,44.0566 11.055302,43.6245 C11.055302,43.1924 11.4091611,42.8408 11.8442617,42.8408 Z M10.266443,47.5429 C9.83134228,47.5429 9.47748322,47.1913 9.47748322,46.7592 C9.47748322,46.3271 9.83134228,45.9755 10.266443,45.9755 C10.7015436,45.9755 11.0554027,46.3271 11.0554027,46.7592 C11.055302,47.1912 10.701443,47.5429 10.266443,47.5429 Z M13.4221812,47.5429 C12.9870805,47.5429 12.6332215,47.1913 12.6332215,46.7592 C12.6332215,46.3271 12.9870805,45.9755 13.4221812,45.9755 C13.8572819,45.9755 14.2111409,46.3271 14.2111409,46.7592 C14.2110403,47.1912 13.8571812,47.5429 13.4221812,47.5429 Z M16.5778188,47.5429 C16.1427181,47.5429 15.7888591,47.1913 15.7888591,46.7592 C15.7888591,46.3271 16.1427181,45.9755 16.5778188,45.9755 C17.0129195,45.9755 17.3667785,46.3271 17.3667785,46.7592 C17.3667785,47.1912 17.0129195,47.5429 16.5778188,47.5429 Z M19.733557,47.5429 C19.2984564,47.5429 18.9445973,47.1913 18.9445973,46.7592 C18.9445973,46.3271 19.2984564,45.9755 19.733557,45.9755 C20.1686577,45.9755 20.5225168,46.3271 20.5225168,46.7592 C20.5225168,47.1912 20.1686577,47.5429 19.733557,47.5429 Z" id="Shape" fill="#000000" fill-rule="nonzero"></path>
                            </g>
                        </g>
                    </g>
                </g>
            </g>
        </g>
    </g>
</svg>