<?xml version="1.0" encoding="UTF-8"?>
<svg width="30px" height="52px" viewBox="0 0 30 52" version="1.1" xmlns="http://www.w3.org/2000/svg" xmlns:xlink="http://www.w3.org/1999/xlink">
    <!-- Generator: Sketch 62 (91390) - https://sketch.com -->
    <title>soda-1</title>
    <desc>Created with Sketch.</desc>
    <g id="Page-1" stroke="none" stroke-width="1" fill="none" fill-rule="evenodd">
        <g id="16.3-MAIN-UI---ALL-ITEM-(-ADD)-Copy-2" transform="translate(-757.000000, -1484.000000)">
            <g id="CREATE-ITEM" transform="translate(327.000000, 413.000000)">
                <g id="NOTIFICATION-BAR" transform="translate(66.000000, 545.000000)">
                    <g id="SET-3" transform="translate(23.000000, 485.000000)">
                        <g id="soda-1" transform="translate(341.000000, 41.000000)">
                            <g>
                                <polygon id="Rectangle-path" fill="#FF505D" fill-rule="nonzero" points="1.6499483 3.9184 27.9500517 3.9184 27.9500517 47.2817 1.6499483 47.2817"></polygon>
                                <polygon id="Rectangle-path" fill="#FF7C80" fill-rule="nonzero" points="1.6499483 3.9184 3.75396463 3.9184 3.75396463 47.2817 1.6499483 47.2817"></polygon>
                                <polygon id="Rectangle-path" fill="#E21220" fill-rule="nonzero" points="25.8460354 3.9184 27.9500517 3.9184 27.9500517 47.2817 25.8460354 47.2817"></polygon>
                                <path d="M7.43594286,47.2816 C7.43594286,25.6 24.2680735,25.6 24.2680735,3.9184 L13.7479918,3.9184 C13.7479918,25.6 5.33192653,25.6 5.33192653,47.2817" id="Shape" fill="#FFFFFF" fill-rule="nonzero"></path>
                                <polygon id="Shape" fill="#FFFFFF" fill-rule="nonzero" points="24.2680735 50.4163 5.33192653 50.4163 3.2279102 47.2816 26.3720898 47.2816"></polygon>
                                <polygon id="Shape" fill="#FFFFFF" fill-rule="nonzero" points="26.3720898 3.9184 3.2279102 3.9184 5.33192653 0.7837 24.2680735 0.7837"></polygon>
                                <path d="M25.0489497,4.702 L27.846351,4.702 L29.5281143,4.702 L29.5281143,3.1347 L26.7943429,3.1347 L25.7423347,1.5674 L26.8980435,1.5674 L26.8980435,0 L2.70195646,0 L2.70195646,1.5673 L3.85766531,1.5673 L2.80565714,3.1346 L0.0718857143,3.1346 L0.0718857143,4.702 L1.75364898,4.702 L12.9549333,4.702 C12.8585823,14.8701 10.887766,19.9494 8.80368435,25.318 C6.75957279,30.5846 4.64760272,36.0272 4.54702313,46.4979 L2.43887891,46.4979 L2.43887891,6.0082 L0.860917007,6.0082 L0.860917007,46.498 L0.0718857143,46.498 L0.0718857143,48.0653 L2.80565714,48.0653 L4.90967347,51.2 L24.6902259,51.2 L26.7942422,48.0653 L29.5281143,48.0653 L29.5281143,46.498 L28.739083,46.498 L28.739083,6.0082 L27.1611211,6.0082 L27.1611211,46.498 L8.23322993,46.498 C8.42673741,36.4499 12.3396762,31.4079 16.4769306,26.0786 C20.5946531,20.7743 24.8485959,15.2928 25.0489497,4.702 Z M24.8978286,3.1347 L7.85819592,3.1347 L8.91020408,1.5673 L23.8458204,1.5673 L24.8978286,3.1347 Z M5.75417959,1.5673 L7.01379048,1.5673 L5.96178231,3.1346 L4.70217143,3.1346 L5.75417959,1.5673 Z M4.70217143,48.0653 L21.7419048,48.0653 L20.6898966,49.6326 L5.75417959,49.6326 L4.70217143,48.0653 Z M23.8458204,49.6327 L22.5862095,49.6327 L23.6382177,48.0654 L24.8978286,48.0654 L23.8458204,49.6327 Z M6.65506667,46.498 L6.12498503,46.498 C6.22133605,36.3299 8.19215238,31.2506 10.276234,25.882 C12.3204463,20.6154 14.4324163,15.1728 14.5329959,4.7021 L23.4710884,4.7021 C23.277581,14.7502 19.3646422,19.7922 15.2273878,25.1215 C11.1093633,30.4257 6.85542041,35.9072 6.65506667,46.498 Z" id="Shape" fill="#000000" fill-rule="nonzero"></path>
                            </g>
                        </g>
                    </g>
                </g>
            </g>
        </g>
    </g>
</svg>