<?xml version="1.0" encoding="UTF-8"?>
<svg width="19px" height="52px" viewBox="0 0 19 52" version="1.1" xmlns="http://www.w3.org/2000/svg" xmlns:xlink="http://www.w3.org/1999/xlink">
    <!-- Generator: Sketch 62 (91390) - https://sketch.com -->
    <title>soda</title>
    <desc>Created with Sketch.</desc>
    <g id="Page-1" stroke="none" stroke-width="1" fill="none" fill-rule="evenodd">
        <g id="16.3-MAIN-UI---ALL-ITEM-(-ADD)-Copy-2" transform="translate(-837.000000, -1484.000000)">
            <g id="CREATE-ITEM" transform="translate(327.000000, 413.000000)">
                <g id="NOTIFICATION-BAR" transform="translate(66.000000, 545.000000)">
                    <g id="SET-3" transform="translate(23.000000, 485.000000)">
                        <g id="soda" transform="translate(421.000000, 41.000000)">
                            <g>
                                <path d="M17.9682,31.8072764 L15.4354,43.0263641 C16.9401,43.8085365 17.9682,45.379069 17.9682,47.1894331 C17.9682,48.3907867 17.5147,49.4879439 16.7707,50.3180226 L2.0293,50.3180226 C1.2853,49.4879439 0.8318,48.3907867 0.8318,47.1894331 C0.8318,45.894163 1.3584,44.7199563 2.209,43.8710144 C2.5465,43.5341723 2.9373,43.2484304 3.3647,43.0262643 L0.8319,31.8071766 L0.8319,19.2929185 L5.6259,9.12497778 L13.1742,9.12497778 L17.9682,19.2929185 L17.9682,31.8072764 L17.9682,31.8072764 Z" id="Shape" fill="#57565C" fill-rule="nonzero"></path>
                                <path d="M17.9682,19.2929185 L13.1742,9.12497778 L11.0844,9.12497778 L15.8784,19.2929185 L15.8784,31.8072764 L13.3456,43.0263641 C14.8503,43.8085365 15.8784,45.379069 15.8784,47.1894331 C15.8784,48.3907867 15.4249,49.4879439 14.6809,50.3180226 L16.7707,50.3180226 C17.5147,49.4879439 17.9682,48.3907867 17.9682,47.1894331 C17.9682,45.379069 16.94,43.8084366 15.4354,43.0263641 L17.9682,31.8072764 L17.9682,19.2929185 Z" id="Shape" fill="#3E3D42" fill-rule="nonzero"></path>
                                <path d="M0.8319,19.2929185 L5.6259,9.12497778 L7.7157,9.12497778 L2.9217,19.2929185 L2.9217,31.8072764 L5.4545,43.0263641 C3.9498,43.8085365 2.9217,45.379069 2.9217,47.1894331 C2.9217,48.3907867 3.3752,49.4879439 4.1192,50.3180226 L2.0294,50.3180226 C1.2854,49.4879439 0.8319,48.3907867 0.8319,47.1894331 C0.8319,45.379069 1.8601,43.8084366 3.3647,43.0263641 L0.8319,31.8072764 L0.8319,19.2929185 Z" id="Shape" fill="#7F7E89" fill-rule="nonzero"></path>
                                <polygon id="Rectangle-path" fill="#FF505D" fill-rule="nonzero" points="0.8319 19.2929185 17.9682 19.2929185 17.9682 31.8072764 0.8319 31.8072764"></polygon>
                                <rect id="Rectangle-path" fill="#E21220" fill-rule="nonzero" x="15.8784" y="19.2929185" width="2.0898" height="12.5143579"></rect>
                                <polygon id="Rectangle-path" fill="#FF7C80" fill-rule="nonzero" points="0.8319 19.2929185 2.9217 19.2929185 2.9217 31.8072764 0.8319 31.8072764"></polygon>
                                <path d="M5.7429,31.8072764 C5.7429,25.5500975 14.1021,25.5500975 14.1021,19.2929185 L8.8776,19.2929185 C8.8776,25.5500975 4.698,25.5500975 4.698,31.8072764" id="Shape" fill="#FFFFFF" fill-rule="nonzero"></path>
                                <polygon id="Rectangle-path" fill="#FF505D" fill-rule="nonzero" points="6.0041 0.78217232 12.7959 0.78217232 12.7959 5.99648811 6.0041 5.99648811"></polygon>
                                <polygon id="Rectangle-path" fill="#E21220" fill-rule="nonzero" points="10.7062 0.78217232 12.796 0.78217232 12.796 5.99648811 10.7062 5.99648811"></polygon>
                                <ellipse id="Oval" fill="#000000" fill-rule="nonzero" cx="14.2526" cy="36.7691852" rx="1" ry="1"></ellipse>
                                <ellipse id="Oval" fill="#000000" fill-rule="nonzero" cx="13.2077" cy="39.8977747" rx="1" ry="1"></ellipse>
                                <ellipse id="Oval" fill="#000000" fill-rule="nonzero" cx="12.1429" cy="34.422768" rx="1" ry="1"></ellipse>
                                <ellipse id="Oval" fill="#000000" fill-rule="nonzero" cx="14.3633" cy="16.9465014" rx="1" ry="1"></ellipse>
                                <ellipse id="Oval" fill="#000000" fill-rule="nonzero" cx="12.2735" cy="13.8179119" rx="1" ry="1"></ellipse>
                                <path d="M18.7519,19.1181598 L12.9337,6.77856062 L13.5797,6.77856062 L13.5797,0 L5.2205,0 L5.2205,6.77856062 L5.8665,6.77856062 L0.0483,19.1181598 L0.0483,31.8944062 L2.4756,42.6448094 C2.1806,42.8423236 1.906,43.0675836 1.6549,43.3181942 C0.6189,44.3522745 0.0483,45.7271891 0.0483,47.1896327 C0.0483,48.5382986 0.5444,49.8344671 1.4453,50.8396039 L1.6789,51.1002947 L17.1211,51.1002947 L17.3547,50.8396039 C18.2556,49.8343673 18.7517,48.5381988 18.7517,47.1896327 C18.7517,45.3471314 17.8353,43.6559345 16.3244,42.6448094 L18.7517,31.894506 L18.7517,19.1181598 L18.7519,19.1181598 Z M6.7878,1.56424483 L12.0123,1.56424483 L12.0123,5.21421598 L6.7878,5.21421598 L6.7878,1.56424483 Z M11.9391,8.34290526 L6.861,8.34290526 L7.5986,6.77866043 L11.2015,6.77866043 L11.9391,8.34290526 Z M6.1235,9.9071501 L12.6767,9.9071501 L16.7333,18.5107462 L2.0668,18.5107462 L6.1235,9.9071501 Z M13.2651,20.0750908 C12.9556,22.3008437 11.3188,23.5271485 9.4523,24.9244195 C8.4078,25.7062924 7.2946,26.5401637 6.4374,27.6111719 C6.7387,27.0342986 7.0858,26.5142144 7.4399,25.9839501 C8.4438,24.4809856 9.4785,22.929915 9.6391,20.0750908 L13.2651,20.0750908 L13.2651,20.0750908 Z M1.6156,20.0750908 L8.0691,20.0750908 C7.9135,22.4546433 7.0476,23.7513107 6.1357,25.1162448 C5.1318,26.6192094 4.0971,28.1702799 3.9365,31.0251041 L1.6156,31.0251041 L1.6156,20.0750908 Z M14.5379,43.4415532 L15.0729,43.7198097 C16.3755,44.3971867 17.1845,45.7266901 17.1845,47.1895329 C17.1845,48.0398721 16.9082,48.861168 16.4008,49.5359501 L2.3992,49.5359501 C1.8918,48.8610682 1.6155,48.0398721 1.6155,47.1895329 C1.6155,46.1448733 2.023,45.1627914 2.763,44.4241341 C3.0031,44.1845021 3.2755,43.9793029 3.5714,43.8083368 L9.1656,43.8083368 L9.1656,42.244092 L3.9917,42.244092 L1.8117,32.5894487 L16.9882,32.5894487 L14.5379,43.4415532 Z M17.1845,31.0251041 L6.5799,31.0251041 C6.8894,28.7993513 8.5262,27.5730464 10.3927,26.1757754 C12.3364,24.7208172 14.5181,23.0855111 14.8429,20.074991 L17.1845,20.074991 L17.1845,31.0251041 Z" id="Shape" fill="#000000" fill-rule="nonzero"></path>
                            </g>
                        </g>
                    </g>
                </g>
            </g>
        </g>
    </g>
</svg>