<?xml version="1.0" encoding="UTF-8"?>
<svg width="27px" height="52px" viewBox="0 0 27 52" version="1.1" xmlns="http://www.w3.org/2000/svg" xmlns:xlink="http://www.w3.org/1999/xlink">
    <!-- Generator: Sketch 62 (91390) - https://sketch.com -->
    <title>soda-3</title>
    <desc>Created with Sketch.</desc>
    <g id="Page-1" stroke="none" stroke-width="1" fill="none" fill-rule="evenodd">
        <g id="16.3-MAIN-UI---ALL-ITEM-(-ADD)-Copy-2" transform="translate(-915.000000, -1361.000000)">
            <g id="CREATE-ITEM" transform="translate(327.000000, 413.000000)">
                <g id="NOTIFICATION-BAR" transform="translate(66.000000, 545.000000)">
                    <g id="SET-2" transform="translate(23.000000, 279.000000)">
                        <g id="soda-3" transform="translate(499.000000, 124.000000)">
                            <g>
                                <path d="M25.9387,17.502 L21.7591,48.3265 C21.7591,49.4807 18.0166,50.4163 13.3999,50.4163 C8.7832,50.4163 5.0407,49.4807 5.0407,48.3265 L0.8612,17.502" id="Shape" fill="#FFDA44" fill-rule="nonzero"></path>
                                <path d="M23.5655,17.502 L19.6693,46.2367 C19.6693,47.3909 15.9268,48.3265 11.3101,48.3265 C8.7577,48.3265 6.474,48.0402 4.9408,47.5893 L5.0407,48.3265 C5.0407,49.4807 8.7832,50.4163 13.3999,50.4163 C18.0166,50.4163 21.7591,49.4807 21.7591,48.3265 L25.9387,17.502 L23.5655,17.502 L23.5655,17.502 Z" id="Shape" fill="#EEBF00" fill-rule="nonzero"></path>
                                <path d="M24.4257,28.6615 L22.9357,39.6517 C20.6359,40.3246 17.217,40.7509 13.4,40.7509 C9.583,40.7509 6.1641,40.3246 3.8643,39.6517 L2.3743,28.6615 C4.4986,29.6385 8.6395,30.302 13.4001,30.302 C18.1607,30.302 22.3014,29.6385 24.4257,28.6615 Z" id="Shape" fill="#FFFFFF" fill-rule="nonzero"></path>
                                <path d="M24.4257,28.6615 L22.9357,39.6517 C22.221,39.8607 21.3976,40.0466 20.4875,40.2024 L21.9441,29.4619 C22.9346,29.231 23.7747,28.9614 24.4257,28.6615 Z" id="Shape" fill="#EBE5DD" fill-rule="nonzero"></path>
                                <ellipse id="Oval" fill="#FFFFFF" fill-rule="nonzero" cx="13.3999" cy="17.502" rx="12.5388" ry="3.1347"></ellipse>
                                <path d="M25.9387,17.502 C25.9387,18.1279 25.2031,18.712 23.9367,19.201 L21.1625,15.0403 C24.0715,15.6139 25.9387,16.5031 25.9387,17.502 Z" id="Shape" fill="#EBE5DD" fill-rule="nonzero"></path>
                                <ellipse id="Oval" fill="#FFFFFF" fill-rule="nonzero" cx="13.3999" cy="14.3673" rx="10.449" ry="3.1347"></ellipse>
                                <polyline id="Shape" fill="#FF505D" fill-rule="nonzero" points="11.8326 14.3673 11.8326 0.7837 14.9673 0.7837 14.9673 14.3673"></polyline>
                                <path d="M26.7224,17.2648 L24.6102,14.0966 C24.4773,13.209 23.6856,12.4504 22.2472,11.8393 C20.9573,11.2915 19.1928,10.8806 17.1443,10.6514 L16.9699,12.2089 C18.8424,12.4185 20.4989,12.7996 21.6344,13.2819 C22.7662,13.7628 23.0652,14.2022 23.0652,14.3674 C23.0652,15.0705 19.7768,16.7184 13.3999,16.7184 C7.023,16.7184 3.7346,15.0705 3.7346,14.3674 C3.7346,14.197 4.099,13.629 5.7625,13.0543 C7.1432,12.5773 8.9975,12.244 11.0488,12.0988 L11.0488,13.5836 L9.2202,13.5836 L9.2202,15.1509 L17.5794,15.1509 L17.5794,13.5836 L15.751,13.5836 L15.751,0 L11.049,0 L11.049,10.5282 C8.819,10.6789 6.7817,11.044 5.2509,11.5728 C3.3662,12.2239 2.338,13.0732 2.1875,14.1001 L0.0776,17.2649 L0.0776,17.5021 C0.0776,17.6277 0.0923,17.7506 0.1204,17.8708 L4.2585,48.3892 C4.2998,49.3516 5.2956,50.0635 7.2992,50.5644 C8.9383,50.9743 11.105,51.2 13.4,51.2 C15.695,51.2 17.8617,50.9743 19.501,50.5645 C21.5046,50.0637 22.5004,49.3516 22.5417,48.3893 L26.6798,17.8709 C26.7079,17.7506 26.7226,17.6278 26.7226,17.5022 L26.7226,17.2649 L26.7224,17.2649 L26.7224,17.2648 Z M14.1836,1.5673 L14.1836,13.5836 L12.6163,13.5836 L12.6163,1.5673 L14.1836,1.5673 Z M22.2283,39.0337 C19.9341,39.6291 16.7566,39.9673 13.4,39.9673 C10.0434,39.9673 6.8658,39.6291 4.5717,39.0337 L3.3274,29.8569 C5.7719,30.6259 9.4607,31.0857 13.4,31.0857 C17.3393,31.0857 21.0281,30.6259 23.4727,29.8568 L22.2283,39.0337 Z M23.7088,28.1153 C21.5134,28.9853 17.6323,29.5184 13.3999,29.5184 C9.1675,29.5184 5.2865,28.9853 3.091,28.1153 L1.9441,19.6571 C2.582,19.9642 3.382,20.2386 4.3435,20.4789 C6.7722,21.0861 9.9885,21.4205 13.3998,21.4205 C16.8111,21.4205 20.0275,21.0861 22.4561,20.4789 C23.4175,20.2385 24.2176,19.9641 24.8555,19.6571 L23.7088,28.1153 Z M2.8909,15.8701 C3.4262,16.3815 4.3228,16.8956 5.7862,17.3346 C7.8306,17.948 10.5346,18.2857 13.4,18.2857 C16.2654,18.2857 18.9693,17.948 21.0138,17.3346 C22.4771,16.8956 23.3738,16.3814 23.909,15.8701 L25.0797,17.6262 C24.8878,17.8667 24.2313,18.4196 22.0761,18.9584 C19.7682,19.5353 16.6869,19.853 13.4,19.853 C10.1131,19.853 7.0318,19.5352 4.7238,18.9583 C2.5686,18.4194 1.9122,17.8666 1.7202,17.6261 L2.8909,15.8701 Z M20.9773,48.2598 C20.8544,48.4107 20.2739,48.7987 18.7246,49.1365 C17.2569,49.4566 15.3659,49.6327 13.3999,49.6327 C11.4339,49.6327 9.5429,49.4565 8.0752,49.1365 C6.5259,48.7988 5.9454,48.4108 5.8225,48.2598 L4.7976,40.7008 C7.1514,41.2346 10.207,41.5346 13.3999,41.5346 C16.5928,41.5346 19.6484,41.2346 22.0022,40.7008 L20.9825,48.2212 L20.9773,48.2598 Z" id="Shape" fill="#000000" fill-rule="nonzero"></path>
                            </g>
                        </g>
                    </g>
                </g>
            </g>
        </g>
    </g>
</svg>