<?xml version="1.0" encoding="UTF-8"?>
<svg width="34px" height="52px" viewBox="0 0 34 52" version="1.1" xmlns="http://www.w3.org/2000/svg" xmlns:xlink="http://www.w3.org/1999/xlink">
    <!-- Generator: Sketch 62 (91390) - https://sketch.com -->
    <title>watermelon</title>
    <desc>Created with Sketch.</desc>
    <g id="Page-1" stroke="none" stroke-width="1" fill="none" fill-rule="evenodd">
        <g id="16.3-MAIN-UI---ALL-ITEM-(-ADD)-Copy-2" transform="translate(-993.000000, -1279.000000)">
            <g id="CREATE-ITEM" transform="translate(327.000000, 413.000000)">
                <g id="NOTIFICATION-BAR" transform="translate(66.000000, 545.000000)">
                    <g id="SET-2" transform="translate(23.000000, 279.000000)">
                        <g id="watermelon" transform="translate(577.000000, 42.000000)">
                            <g>
                                <path d="M16.8,50.4163 L16.8,50.4163 C15.9344,50.4163 15.2327,49.7145 15.2327,48.849 L15.2327,35.2653 L18.3674,35.2653 L18.3674,48.849 C18.3673,49.7146 17.6656,50.4163 16.8,50.4163 Z" id="Shape" fill="#FF9811" fill-rule="nonzero"></path>
                                <path d="M1.1265,32.1392 L15.7551,0.7837 L17.8449,0.7837 L32.4735,32.1392 C22.438,36.3188 11.162,36.3188 1.1265,32.1392 Z" id="Shape" fill="#FF505D" fill-rule="nonzero"></path>
                                <path d="M17.8449,0.7837 L2.8955,32.8276 C2.302,32.6124 1.7116,32.3825 1.1265,32.139 L15.7551,0.7837 L17.8449,0.7837 Z" id="Shape" fill="#FF7C80" fill-rule="nonzero"></path>
                                <path d="M32.4735,32.139 C31.8884,32.3825 31.298,32.6123 30.7045,32.8276 L15.7551,0.7837 L17.8449,0.7837 L32.4735,32.139 Z" id="Shape" fill="#E21220" fill-rule="nonzero"></path>
                                <path d="M32.4735,32.139 C22.4383,36.3186 11.1618,36.3186 1.1266,32.139 L3.1934,27.7097 C11.9977,30.8287 21.6024,30.8287 30.4067,27.7097 L32.4735,32.139 Z" id="SVGCleanerId_0" fill="#91DC5A" fill-rule="nonzero"></path>
                                <path d="M32.4735,32.139 C22.4383,36.3186 11.1618,36.3186 1.1266,32.139 L3.1934,27.7097 C11.9977,30.8287 21.6024,30.8287 30.4067,27.7097 L32.4735,32.139 Z" id="SVGCleanerId_0_1_" fill="#91DC5A" fill-rule="nonzero"></path>
                                <path d="M5.0062,28.3042 L2.8955,32.8276 C2.302,32.6124 1.7116,32.3825 1.1265,32.139 L3.1933,27.7097 C3.7942,27.9228 4.3992,28.1203 5.0062,28.3042 Z" id="Shape" fill="#C9EEAE" fill-rule="nonzero"></path>
                                <path d="M32.4735,32.139 C31.8884,32.3825 31.298,32.6123 30.7045,32.8276 L28.5938,28.3042 C29.2009,28.1213 29.8059,27.9228 30.4067,27.7097 L32.4735,32.139 Z" id="Shape" fill="#6DC82A" fill-rule="nonzero"></path>
                                <rect id="Rectangle-path" fill="#000000" fill-rule="nonzero" x="19.6735" y="19.8572" width="1.5673" height="1.5673"></rect>
                                <rect id="Rectangle-path" fill="#000000" fill-rule="nonzero" x="21.7633" y="22.9919" width="1.5673" height="1.5673"></rect>
                                <rect id="Rectangle-path" fill="#000000" fill-rule="nonzero" x="17.5837" y="22.9919" width="1.5673" height="1.5673"></rect>
                                <rect id="Rectangle-path" fill="#000000" fill-rule="nonzero" x="13.4041" y="13.5879" width="1.5673" height="1.5673"></rect>
                                <rect id="Rectangle-path" fill="#000000" fill-rule="nonzero" x="11.3143" y="16.7225" width="1.5673" height="1.5673"></rect>
                                <path d="M33.5291,32.5485 L18.344,0 L15.2558,0 L0.0709,32.5485 L0.8253,32.8627 C5.1889,34.6801 9.7616,35.7286 14.4491,35.9911 L14.4491,48.849 C14.4491,50.1453 15.5038,51.2 16.8001,51.2 C18.0964,51.2 19.1511,50.1453 19.1511,48.849 L19.1511,35.9911 C23.8386,35.7285 28.4113,34.68 32.7749,32.8627 L33.5291,32.5485 Z M16.2542,1.5673 L17.3456,1.5673 L29.3278,27.2503 C29.0074,27.356 28.6863,27.4578 28.3669,27.5541 C24.3127,28.7801 20.1094,29.3522 15.876,29.2544 C11.9225,29.163 8.0234,28.4887 4.2723,27.25 L16.2542,1.5673 Z M17.5837,48.849 C17.5837,49.2812 17.2322,49.6327 16.8,49.6327 C16.3678,49.6327 16.0163,49.2812 16.0163,48.849 L16.0163,36.0495 C16.2772,36.0543 16.5384,36.0575 16.8,36.0575 C17.0615,36.0575 17.3228,36.0543 17.5837,36.0495 L17.5837,48.849 Z M16.8,34.4902 C11.7709,34.4902 6.8583,33.5594 2.1857,31.7226 L3.6054,28.6796 C7.5574,30.0041 11.6695,30.725 15.8398,30.8213 C16.1618,30.8287 16.483,30.8325 16.8047,30.8325 C20.8779,30.8325 24.9158,30.2353 28.8198,29.0546 C29.2103,28.9369 29.6033,28.811 29.9948,28.6799 L31.4143,31.7225 C26.7417,33.5594 21.8291,34.4902 16.8,34.4902 Z" id="Shape" fill="#000000" fill-rule="nonzero"></path>
                            </g>
                        </g>
                    </g>
                </g>
            </g>
        </g>
    </g>
</svg>