<?xml version="1.0" encoding="UTF-8"?>
<svg width="22px" height="52px" viewBox="0 0 22 52" version="1.1" xmlns="http://www.w3.org/2000/svg" xmlns:xlink="http://www.w3.org/1999/xlink">
    <!-- Generator: Sketch 62 (91390) - https://sketch.com -->
    <title>water-3</title>
    <desc>Created with Sketch.</desc>
    <g id="Page-1" stroke="none" stroke-width="1" fill="none" fill-rule="evenodd">
        <g id="16.3-MAIN-UI---ALL-ITEM-(-ADD)-Copy-2" transform="translate(-605.000000, -1484.000000)">
            <g id="CREATE-ITEM" transform="translate(327.000000, 413.000000)">
                <g id="NOTIFICATION-BAR" transform="translate(66.000000, 545.000000)">
                    <g id="SET-3" transform="translate(23.000000, 485.000000)">
                        <g id="water-3" transform="translate(189.000000, 41.000000)">
                            <g id="Shape">
                                <path d="M0.8735,21.2637 C1.9122,21.2637 2.7543,22.1058 2.7543,23.1445 C2.7543,24.1832 1.9122,25.0253 0.8735,25.0253 L0.8735,28.7869 C1.9121,28.7869 2.7543,29.6291 2.7543,30.6677 C2.7543,31.7063 1.9121,32.5485 0.8735,32.5485 L0.8735,36.3101 C1.9121,36.3101 2.7543,37.1523 2.7543,38.1909 L18.8457,38.1909 C18.8457,37.1523 19.6879,36.3101 20.7265,36.3101 L20.7265,32.5485 C19.6879,32.5485 18.8457,31.7063 18.8457,30.6677 C18.8457,29.6291 19.6879,28.7869 20.7265,28.7869 L20.7265,25.0253 C19.6879,25.0253 18.8457,24.1831 18.8457,23.1445 C18.8457,22.1059 19.6879,21.2637 20.7265,21.2637 L20.7265,17.502 L14.4571,5.4857 L7.1428,5.4857 L0.8735,17.502 L0.8735,21.2637 Z" fill="#AAFFF5" fill-rule="nonzero"></path>
                                <path d="M18.8457,23.0798 C18.8457,24.1184 19.6879,24.9606 20.7265,24.9606 L20.7265,28.7222 C19.6879,28.7222 18.8457,29.5644 18.8457,30.603 C18.8457,31.6416 19.6879,32.4838 20.7265,32.4838 L20.7265,36.2454 C19.6879,36.2454 18.8457,37.0876 18.8457,38.1262 L2.7543,38.1262 C2.7543,37.0876 1.9121,36.2454 0.8735,36.2454 L0.8735,32.4838 C1.9121,32.4838 2.7543,31.6416 2.7543,30.603 C2.7543,29.5644 1.9121,28.7222 0.8735,28.7222 L0.8735,24.9606 C1.9121,24.9606 2.7543,24.1184 2.7543,23.0798 C2.7543,22.0412 1.9121,21.199 0.8735,21.199 L0.8735,17.4374 L20.7266,17.4374 L20.7266,21.199 C19.6879,21.199 18.8457,22.0412 18.8457,23.0798 Z" fill="#0DD9DD" fill-rule="nonzero"></path>
                                <path d="M14.4571,5.4857 L7.1428,5.4857 L7.1428,1.8286 C7.1428,1.2515 7.6106,0.7837 8.1877,0.7837 L13.4122,0.7837 C13.9893,0.7837 14.4571,1.2515 14.4571,1.8286 L14.4571,5.4857 Z" fill="#FF505D" fill-rule="nonzero"></path>
                                <path d="M13.4122,0.7837 L11.3224,0.7837 C11.8995,0.7837 12.3673,1.2515 12.3673,1.8286 L12.3673,5.4857 L14.4571,5.4857 L14.4571,1.8286 C14.4571,1.2515 13.9893,0.7837 13.4122,0.7837 Z" fill="#E21220" fill-rule="nonzero"></path>
                                <path d="M18.8457,38.191 C18.8457,39.2296 19.6879,40.0718 20.7265,40.0718 L20.7265,47.2816 C20.7265,49.013 19.3232,50.4163 17.5918,50.4163 L4.0082,50.4163 C2.2768,50.4163 0.8735,49.013 0.8735,47.2816 L0.8735,40.0718 C1.9121,40.0718 2.7543,39.2296 2.7543,38.191" fill="#AAFFF5" fill-rule="nonzero"></path>
                                <path d="M18.8457,38.191 L18.6367,38.191 L18.6367,45.1918 C18.6367,46.9232 17.2334,48.3265 15.502,48.3265 L1.9184,48.3265 C1.6018,48.3265 1.2963,48.2792 1.0082,48.1918 C1.3982,49.4791 2.5934,50.4163 4.0082,50.4163 L17.5919,50.4163 C19.3233,50.4163 20.7266,49.013 20.7266,47.2816 L20.7266,40.0718 C19.6879,40.0718 18.8457,39.2296 18.8457,38.191 Z" fill="#0DD9DD" fill-rule="nonzero"></path>
                                <path d="M20.7265,22.0473 L21.5102,22.0473 L21.5102,17.3098 L15.2408,5.2935 L15.2408,1.8286 C15.2408,0.8203 14.4205,0 13.4122,0 L8.1877,0 C7.1795,0 6.3591,0.8203 6.3591,1.8286 L6.3591,5.2936 L0.0897,17.3099 L0.0897,22.0474 L0.8734,22.0474 C1.4784,22.0474 1.9705,22.5395 1.9705,23.1445 C1.9705,23.7495 1.4784,24.2416 0.8734,24.2416 L0.0897,24.2416 L0.0897,29.5706 L0.8734,29.5706 C1.4784,29.5706 1.9705,30.0627 1.9705,30.6677 C1.9705,31.2727 1.4784,31.7648 0.8734,31.7648 L0.0897,31.7648 L0.0897,37.0938 L0.8734,37.0938 C1.4784,37.0938 1.9705,37.5859 1.9705,38.1909 C1.9705,38.7959 1.4784,39.288 0.8734,39.288 L0.0897,39.288 L0.0897,47.2815 C0.0897,49.4421 1.8474,51.1999 4.0081,51.1999 L8.1877,51.1999 L13.4122,51.1999 L17.5918,51.1999 C19.7524,51.1999 21.5102,49.4422 21.5102,47.2815 L21.5102,39.288 L20.7265,39.288 C20.1215,39.288 19.6294,38.7959 19.6294,38.1909 C19.6294,37.5859 20.1215,37.0938 20.7265,37.0938 L21.5102,37.0938 L21.5102,31.7648 L20.7265,31.7648 C20.1215,31.7648 19.6294,31.2727 19.6294,30.6677 C19.6294,30.0627 20.1215,29.5706 20.7265,29.5706 L21.5102,29.5706 L21.5102,24.2416 L20.7265,24.2416 C20.1215,24.2416 19.6294,23.7495 19.6294,23.1445 C19.6294,22.5395 20.1215,22.0473 20.7265,22.0473 Z M19.4338,16.7184 L2.1662,16.7184 L7.6178,6.2694 L13.982,6.2694 L19.4338,16.7184 Z M7.9265,1.8286 C7.9265,1.6845 8.0437,1.5674 8.1877,1.5674 L13.4122,1.5674 C13.5563,1.5674 13.6734,1.6845 13.6734,1.8286 L13.6734,4.702 L7.9265,4.702 L7.9265,1.8286 Z M19.9429,33.2147 L19.9429,35.6441 C19.103,35.903 18.4409,36.5676 18.1817,37.4074 L4.8441,37.4074 L4.8441,38.9747 L18.1817,38.9747 C18.4408,39.8145 19.1031,40.479 19.9429,40.738 L19.9429,47.2817 C19.9429,48.578 18.8882,49.6327 17.5919,49.6327 L16.5449,49.6327 C17.038,48.9773 17.3307,48.163 17.3307,47.2817 L15.7634,47.2817 C15.7634,48.578 14.7087,49.6327 13.4124,49.6327 L8.1879,49.6327 C6.8915,49.6327 5.8369,48.578 5.8369,47.2817 L4.2696,47.2817 C4.2696,48.1631 4.5623,48.9774 5.0554,49.6327 L4.0084,49.6327 C2.712,49.6327 1.6574,48.578 1.6574,47.2817 L1.6574,40.738 C2.7453,40.4026 3.5382,39.3877 3.5382,38.1911 C3.5382,36.9945 2.7453,35.9796 1.6574,35.6442 L1.6574,33.2148 C2.4973,32.9559 3.1594,32.2913 3.4186,31.4515 L18.182,31.4515 C18.4408,32.2912 19.103,32.9558 19.9429,33.2147 Z M18.1817,22.3608 L4.8441,22.3608 L4.8441,23.9281 L18.1817,23.9281 C18.4408,24.7679 19.1031,25.4325 19.9429,25.6914 L19.9429,28.1208 C19.103,28.3797 18.4409,29.0443 18.1817,29.8841 L3.4183,29.8841 C3.1592,29.0443 2.4969,28.3798 1.6571,28.1208 L1.6571,25.6914 C2.745,25.356 3.5379,24.3411 3.5379,23.1445 C3.5379,21.9479 2.745,20.933 1.6571,20.5976 L1.6571,18.2858 L19.9428,18.2858 L19.9428,20.5976 C19.103,20.8564 18.4408,21.521 18.1817,22.3608 Z" fill="#000000" fill-rule="nonzero"></path>
                            </g>
                        </g>
                    </g>
                </g>
            </g>
        </g>
    </g>
</svg>