<?xml version="1.0" encoding="UTF-8"?>
<svg width="21px" height="28px" viewBox="0 0 21 28" version="1.1" xmlns="http://www.w3.org/2000/svg" xmlns:xlink="http://www.w3.org/1999/xlink">
    <!-- Generator: Sketch 62 (91390) - https://sketch.com -->
    <title>WAITER</title>
    <desc>Created with Sketch.</desc>
    <g id="Page-1" stroke="none" stroke-width="1" fill="none" fill-rule="evenodd">
        <g id="13.MAIN-UI---DINE-IN-DROP-DOWN" transform="translate(-1158.000000, -581.000000)" fill-rule="nonzero">
            <g id="NOTIFICATION-BAR" transform="translate(1132.000000, 277.000000)">
                <g id="CAPTAIN" transform="translate(0.000000, 288.000000)">
                    <g id="WAITER" transform="translate(26.000000, 16.000000)">
                        <path d="M19.5999997,23.1839996 C18.6339997,21.8469996 13.2999998,19.5999997 13.2999998,19.5999997 L7.69999987,19.5999997 C7.69999987,19.5999997 2.36599996,21.8469996 1.39999998,23.1839996 C0.618138707,24.4277636 0.138651277,25.8374566 -5.32907052e-15,27.2999995 L21,27.2999995 C20.8613484,25.8374566 20.3818609,24.4277636 19.5999997,23.1839996 Z" id="Path" fill="#CFD8DC"></path>
                        <polygon id="Path" fill="#90A4AE" points="13.2999998 21.6999996 7.69999987 21.6999996 7.69999987 24.4999996 9.79999983 23.7999996 11.1999998 23.7999996 13.2999998 24.4999996"></polygon>
                        <path d="M7.69999987,13.9999998 L7.69999987,19.5999997 C7.69999987,20.9999998 10.4999998,21.6999996 10.4999998,21.6999996 C10.4999998,21.6999996 13.2999998,20.9999998 13.2999998,19.5999997 L13.2999998,13.9999998 L7.69999987,13.9999998 Z" id="Path" fill="#FB8C00"></path>
                        <path d="M10.4999998,21.6999996 L11.8999998,21.6999996 L13.2999998,23.7999996 L14.0699998,19.9359997 L13.2999998,18.9699997 C12.5785233,20.074621 11.6225295,21.0067149 10.4999998,21.6999996 L10.4999998,21.6999996 Z" id="Path" fill="#ECEFF1"></path>
                        <path d="M10.4999998,21.6999996 L9.09999985,21.6999996 L7.69999987,23.7999996 L6.92999988,19.9359997 L7.69999987,18.9699997 C8.42147637,20.074621 9.37747011,21.0067149 10.4999998,21.6999996 Z" id="Path" fill="#ECEFF1"></path>
                        <rect id="Rectangle" fill="#455A64" x="9.79999983" y="21.6999996" width="1.39999998" height="1.39999998"></rect>
                        <path d="M7.69999987,20.2999997 L9.79999983,21.6999996 L9.79999983,23.0999996 L7.69999987,24.4999996 C7.21329762,23.9115939 6.96368152,23.1627456 6.99999988,22.3999996 C6.96368152,21.6372537 7.21329762,20.8884054 7.69999987,20.2999997 Z" id="Path" fill="#37474F"></path>
                        <path d="M13.2999998,24.4999996 L11.1999998,23.0999996 L11.1999998,21.6999996 L13.2999998,20.2999997 C13.786702,20.8884054 14.0363181,21.6372537 13.9999998,22.3999996 C14.0363181,23.1627456 13.786702,23.9115939 13.2999998,24.4999996 Z" id="Path" fill="#37474F"></path>
                        <path d="M11.1999998,22.3999996 C11.5394055,22.5463249 11.8906801,22.6634164 12.2499998,22.7499996 C12.4432995,22.7499996 12.5999998,22.5932993 12.5999998,22.3999996 C12.5999998,22.2067 12.4432995,22.0499996 12.2499998,22.0499996 C11.8906801,22.1365828 11.5394055,22.2536744 11.1999998,22.3999996 Z" id="Path" fill="#263238"></path>
                        <path d="M9.79999983,22.3999996 C9.46059419,22.2536744 9.10931951,22.1365828 8.74999985,22.0499996 C8.55670019,22.0499996 8.39999986,22.2067 8.39999986,22.3999996 C8.39999986,22.5932993 8.55670019,22.7499996 8.74999985,22.7499996 C9.10931951,22.6634164 9.46059419,22.5463249 9.79999983,22.3999996 Z" id="Path" fill="#263238"></path>
                        <path d="M15.3999997,20.5519997 C15.3999997,25.1999996 10.4999999,27.2999995 10.4999999,27.2999995 C10.4999999,27.2999995 5.5999999,25.1999996 5.5999999,20.5519997 C4.89999992,20.8739996 4.19999993,21.2519996 3.49999994,21.6369996 L3.49999994,27.2999995 L17.4999999,27.2999995 L17.4999999,21.6369996 C16.7999997,21.2519996 16.0999997,20.8739996 15.3999997,20.5519997 Z" id="Path" fill="#37474F"></path>
                        <path d="M1.39999998,18.8999997 L10.4999998,18.8999997 L10.4999998,0.699999988 C10.4999998,0.699999988 0.699999988,3.49999994 0.699999988,15.3999997 C0.682715595,16.6030853 0.92131994,17.796107 1.39999998,18.8999997 L1.39999998,18.8999997 Z" id="Path" fill="#795548"></path>
                        <path d="M19.5999997,18.8999997 L10.4999998,18.8999997 L10.4999998,0.699999988 C10.4999998,0.699999988 20.2999997,3.49999994 20.2999997,15.3999997 C20.317284,16.6030853 20.0786797,17.796107 19.5999997,18.8999997 Z" id="Path" fill="#795548"></path>
                        <path d="M4.19999993,9.62499984 C4.19999993,16.6179997 7.58799987,19.5999997 10.4999998,19.5999997 L10.4999998,3.49999994 C6.85299988,3.49999994 4.19999993,6.99999994 4.19999993,9.62499984 Z" id="Path" fill="#FFB74D"></path>
                        <path d="M16.7999997,9.62499984 C16.7999997,16.6179997 13.4119998,19.5999997 10.4999998,19.5999997 L10.4999998,3.49999994 C14.1469998,3.49999994 16.7999997,-0.293999995 16.7999997,9.62499984 Z" id="Path" fill="#FFB74D"></path>
                        <path d="M10.4999998,0.699999988 C6.63599989,0.699999988 0.699999988,3.49999994 0.699999988,15.3999997 C0.699999988,8.39999986 9.09999985,11.8999998 13.9999998,4.19999993 C13.9999998,12.5999998 20.2999997,11.8999998 20.2999997,15.3999997 C20.2999997,7.69999987 18.2,2.09999996 13.9999998,2.09999996 C13.0879947,1.15314062 11.8134237,0.643312248 10.4999998,0.699999988 Z" id="Path" fill="#8D6E63"></path>
                        <path d="M14.6999997,12.5999998 C14.3354412,12.997753 13.8369375,13.2470048 13.2999998,13.2999998 C12.7630621,13.2470048 12.2645584,12.997753 11.8999998,12.5999998 C12.2645584,12.2022466 12.7630621,11.9529948 13.2999998,11.8999998 C13.8369375,11.9529948 14.3354412,12.2022466 14.6999997,12.5999998 L14.6999997,12.5999998 Z" id="Path" fill="#FFFFFF"></path>
                        <path d="M9.09999985,12.5999998 C8.73544126,12.997753 8.23693757,13.2470048 7.69999987,13.2999998 C7.16306217,13.2470048 6.66455848,12.997753 6.29999989,12.5999998 C6.66455848,12.2022466 7.16306217,11.9529948 7.69999987,11.8999998 C8.23693757,11.9529948 8.73544126,12.2022466 9.09999985,12.5999998 Z" id="Path" fill="#FFFFFF"></path>
                        <circle id="Oval" fill="#3E2723" cx="13.2999998" cy="12.5999998" r="1"></circle>
                        <circle id="Oval" fill="#3E2723" cx="7.69999987" cy="12.5999998" r="1"></circle>
                        <path d="M9.46399984,15.1969997 C10.1381916,15.4658176 10.889808,15.4658176 11.5639998,15.1969997 C11.4300766,15.6658247 11.0015778,15.9890597 10.5139998,15.9890597 C10.0264219,15.9890597 9.59792303,15.6658247 9.46399984,15.1969997 Z" id="Path" fill="#FCA230"></path>
                        <path d="M8.74999985,16.5199997 C9.8867015,16.8939471 11.1132981,16.8939471 12.2499999,16.5199997 C11.8350679,17.0834995 11.1972661,17.4406685 10.4999998,17.4999997 C9.8027335,17.4406685 9.16493174,17.0834995 8.74999985,16.5199997 Z" id="Path" fill="#FB8C00"></path>
                        <path d="M15.0499997,10.7799998 C14.4847328,10.5964111 13.8943294,10.5019465 13.2999998,10.4999998 C12.3269998,10.4999998 11.8999998,10.4999998 11.8999998,10.1499998 C11.8999998,9.79999983 12.3969998,9.79999983 13.2999998,9.79999983 C14.0170772,9.78837164 14.6852172,10.16253 15.0499997,10.7799998 L15.0499997,10.7799998 Z" id="Path" fill="#6D4C41"></path>
                        <path d="M5.9499999,10.7799998 C6.5152668,10.5964111 7.10567023,10.5019465 7.69999987,10.4999998 C8.67299985,10.4999998 9.09999985,10.4999998 9.09999985,10.1499998 C9.09999985,9.79999983 8.60299985,9.79999983 7.69999987,9.79999983 C6.98292242,9.78837164 6.31478246,10.16253 5.9499999,10.7799998 L5.9499999,10.7799998 Z" id="Path" fill="#6D4C41"></path>
                    </g>
                </g>
            </g>
        </g>
    </g>
</svg>