<?xml version="1.0" encoding="UTF-8"?>
<svg width="62px" height="64px" viewBox="0 0 62 64" version="1.1" xmlns="http://www.w3.org/2000/svg" xmlns:xlink="http://www.w3.org/1999/xlink">
    <!-- Generator: Sketch 62 (91390) - https://sketch.com -->
    <title>BUG</title>
    <desc>Created with Sketch.</desc>
    <g id="Page-1" stroke="none" stroke-width="1" fill="none" fill-rule="evenodd">
        <g id="11.MAIN-UI---DINE-IN" transform="translate(-842.000000, -873.000000)">
            <g id="TABLES" transform="translate(312.000000, 340.000000)">
                <g id="TABLE-5" transform="translate(393.000000, 396.000000)">
                    <g id="BUG" transform="translate(137.000000, 137.000000)">
                        <g id="Group">
                            <g id="Circle_Shadow_41_" transform="translate(0.000000, 2.000000)" fill="#21A39D">
                                <circle id="Oval" cx="31" cy="31" r="31"></circle>
                            </g>
                            <g id="Circle_41_" fill="#1CBBB4">
                                <circle id="Oval" cx="31" cy="31" r="31"></circle>
                            </g>
                            <g id="Long_Shadow_42_" opacity="0.15" transform="translate(15.000000, 15.000000)" fill="#000000">
                                <path d="M12,7.3 L13.1,5 L10.6,2.5 C10.6,2.5 7.2,1 5,1 L4.3,1.8 L9.8,7.3 L12,7.3 L12,7.3 Z" id="Shape"></path>
                                <polygon id="Shape" points="8 13.3 2.5 11.4 6.2 15.1"></polygon>
                                <polygon id="Shape" points="6.6 22.5 6.6 18.1 0.3 18.7 5.3 23.8"></polygon>
                                <path d="M27.7,0.3 L27,1 C27,1 19.9,2.4 19.9,7.4 L6.8,23.4 L2.3,26.2 L22.5,46.4 C35.4,43.7 45.4,32.9 46.9,19.5 L27.7,0.3 L27.7,0.3 Z" id="Shape"></path>
                            </g>
                            <g id="Bug" transform="translate(15.000000, 14.000000)" fill="#FFFCF2">
                                <path d="M31,18 L27,18 C26.9,16.7 26.7,15.4 26.4,14.2 L29.6,12.4 C30.1,12.1 30.2,11.5 30,11 C29.7,10.5 29.1,10.4 28.6,10.6 L25.8,12.2 C24.8,10 23.4,8.1 21.7,6.8 C23.2,3.1 26.8,2.9 27.1,2.9 L27.1,2.9 C27.7,2.9 28.1,2.5 28.1,1.9 C28.1,1.3 27.7,0.9 27.1,0.9 L27.1,0.9 L27.1,0.9 C27,0.9 22.1,1 19.9,5.8 C18.7,5.2 17.4,4.9 16.1,4.9 C14.8,4.9 13.5,5.2 12.3,5.8 C10.2,1 5.2,0.9 5.1,0.9 L5.1,0.9 L5.1,0.9 C4.5,0.9 4.1,1.3 4.1,1.9 C4.1,2.5 4.5,2.9 5.1,2.9 L5.1,2.9 C5.5,2.9 9,3.1 10.5,6.8 C8.8,8.1 7.4,9.9 6.4,12.1 L3.6,10.5 C3.1,10.2 2.5,10.4 2.2,10.9 C1.9,11.4 2.1,12 2.6,12.3 L5.8,14.1 C5.5,15.3 5.2,16.6 5.2,17.9 L1.2,17.9 C0.6,17.9 0.2,18.3 0.2,18.9 C0.2,19.5 0.6,19.9 1.2,19.9 L5.2,19.9 C5.3,21.2 5.5,22.5 5.8,23.7 L2.6,25.5 C2.1,25.8 2,26.4 2.2,26.9 C2.5,27.4 3.1,27.5 3.6,27.3 L6.4,25.7 C8.3,30 11.9,33 16,33 C20.1,33 23.8,30.1 25.6,25.7 L28.4,27.3 C28.9,27.6 29.5,27.4 29.8,26.9 C30.1,26.4 29.9,25.8 29.4,25.5 L26.2,23.7 C26.5,22.5 26.8,21.2 26.8,19.9 L30.8,19.9 C31.4,19.9 31.8,19.5 31.8,18.9 C31.8,18.3 31.6,18 31,18 L31,18 Z" id="Shape"></path>
                            </g>
                            <g id="Orange" transform="translate(31.000000, 26.000000)" fill="#F7881C">
                                <path d="M3,9 C1.3,9 0,10.3 0,12 C0,13.7 1.3,15 3,15 C4.7,15 6,13.7 6,12 C6,10.3 4.7,9 3,9 L3,9 Z M2,2 C2.6,2 3,1.6 3,1 C3,0.4 2.6,0 2,0 C1.4,0 1,0.4 1,1 C1,1.6 1.4,2 2,2 L2,2 Z" id="Shape"></path>
                            </g>
                            <g id="Yellow" transform="translate(25.000000, 29.000000)" fill="#EDC03D">
                                <circle id="Oval" cx="2" cy="2" r="2"></circle>
                            </g>
                        </g>
                    </g>
                </g>
            </g>
        </g>
    </g>
</svg>