<?xml version="1.0" encoding="UTF-8"?>
<svg width="41px" height="31px" viewBox="0 0 41 31" version="1.1" xmlns="http://www.w3.org/2000/svg" xmlns:xlink="http://www.w3.org/1999/xlink">
    <!-- Generator: Sketch 62 (91390) - https://sketch.com -->
    <title>ICON</title>
    <desc>Created with Sketch.</desc>
    <g id="Page-1" stroke="none" stroke-width="1" fill="none" fill-rule="evenodd">
        <g id="11.MAIN-UI---DINE-IN" transform="translate(-341.000000, -513.000000)" fill-rule="nonzero">
            <g id="TABLES" transform="translate(312.000000, 340.000000)">
                <g id="TABLE-1">
                    <g id="OCCUPANT" transform="translate(25.000000, 170.000000)">
                        <g id="ICON">
                            <g id="PERSON-MALE" transform="translate(14.619067, 17.144829) rotate(-15.000000) translate(-14.619067, -17.144829) translate(3.619067, 2.644829)">
                                <path d="M18.6047984,13.3127989 C18.2879984,14.7527987 17.9999985,15.1199987 17.0927985,15.1199987 C16.576485,15.1575135 16.066641,14.9867728 15.6770511,14.6458816 C15.2874612,14.3049905 15.0505531,13.8223231 15.0191987,13.3055989 C15.1329163,12.2215586 16.093117,11.4277927 17.1791985,11.519999 C18.5903984,11.519999 18.9287984,11.879999 18.6047984,13.3127989 Z" id="Path" fill="#FB8C00"></path>
                                <path d="M2.99519974,13.3127989 C3.31199971,14.7527987 3.59999969,15.1199987 4.50719961,15.1199987 C5.02351319,15.1575135 5.53335712,14.9867728 5.92294701,14.6458816 C6.31253691,14.3049905 6.54944503,13.8223231 6.58079943,13.3055989 C6.46708182,12.2215586 5.50688113,11.4277927 4.42079962,11.519999 C3.00959974,11.519999 2.67119977,11.879999 2.99519974,13.3127989 Z" id="Path" fill="#FB8C00"></path>
                                <path d="M20.1599983,23.8463979 C19.1663983,22.4711981 13.6799988,20.1599983 13.6799988,20.1599983 L7.91999932,20.1599983 C7.91999932,20.1599983 2.43359979,22.4711981 1.43999988,23.8463979 C0.635799769,25.125698 0.142612733,26.5756678 -5.32907052e-15,28.0799976 L21.5999981,28.0799976 C21.4573854,26.5756678 20.9641984,25.125698 20.1599983,23.8463979 Z" id="Path" fill="#009688"></path>
                                <path d="M7.91999932,13.6799988 L7.91999932,20.1599983 C7.91999932,22.3199981 10.7999991,23.759998 10.7999991,23.759998 C10.7999991,23.759998 13.6799988,22.3199981 13.6799988,20.1599983 L13.6799988,13.6799988 L7.91999932,13.6799988 Z" id="Path" fill="#FB8C00"></path>
                                <path d="M3.59999969,9.89999915 C3.59999969,17.0927985 7.47359936,20.1599983 10.7999991,20.1599983 L10.7999991,3.59999969 C6.63119943,3.59999969 3.59999969,7.19999938 3.59999969,9.89999915 Z" id="Path" fill="#FFB74D"></path>
                                <path d="M17.9999985,9.89999915 C17.9999985,17.0927985 14.1263988,20.1599983 10.7999991,20.1599983 L10.7999991,3.59999969 C14.9687987,3.59999969 17.9999985,7.19999938 17.9999985,9.89999915 Z" id="Path" fill="#FFB74D"></path>
                                <path d="M10.7999991,0.719999938 C6.82559941,0.719999938 2.87999975,3.22559972 2.87999975,7.19999938 C2.96356279,9.40101725 3.34379449,11.5806894 4.01039965,13.6799988 C4.19493229,12.2469845 4.29829722,10.8046831 4.31999963,9.35999919 C10.9223991,9.35999919 14.3999988,5.7599995 14.3999988,5.7599995 C14.3999988,5.7599995 14.9399987,8.51759927 17.2799985,9.35999919 C17.4239985,12.4631989 17.5823985,13.6799988 17.5823985,13.6799988 C18.1983378,11.5683117 18.5798376,9.39521206 18.7199984,7.19999938 C18.7199984,4.31999963 17.2799985,2.15999981 14.3999988,2.15999981 C13.4619365,1.18608742 12.1509493,0.661692552 10.7999991,0.719999938 Z" id="Path" fill="#8D6E63"></path>
                                <path d="M15.1199987,12.9599989 C14.7450242,13.3691164 14.2322776,13.6254897 13.6799988,13.6799988 C13.1277201,13.6254897 12.6149735,13.3691164 12.2399989,12.9599989 C12.6149735,12.5508813 13.1277201,12.294508 13.6799988,12.2399989 C14.2322776,12.294508 14.7450242,12.5508813 15.1199987,12.9599989 L15.1199987,12.9599989 Z" id="Path" fill="#FFFFFF"></path>
                                <path d="M9.35999919,12.9599989 C8.98502467,13.3691164 8.47227806,13.6254897 7.91999932,13.6799988 C7.36772058,13.6254897 6.85497396,13.3691164 6.47999944,12.9599989 C6.85497396,12.5508813 7.36772058,12.294508 7.91999932,12.2399989 C8.47227806,12.294508 8.98502467,12.5508813 9.35999919,12.9599989 Z" id="Path" fill="#FFFFFF"></path>
                                <circle id="Oval" fill="#3E2723" cx="13.6799988" cy="12.9599989" r="1"></circle>
                                <circle id="Oval" fill="#3E2723" cx="7.91999932" cy="12.9599989" r="1"></circle>
                                <path d="M9.73439916,15.6311987 C10.4278535,15.907697 11.2009446,15.907697 11.894399,15.6311987 C11.7566494,16.1134186 11.3159078,16.4458889 10.8143991,16.4458889 C10.3128904,16.4458889 9.87214872,16.1134186 9.73439916,15.6311987 Z" id="Path" fill="#FCA230"></path>
                                <path d="M8.99999923,16.9919985 C10.169178,17.3766301 11.4308202,17.3766301 12.5999989,16.9919985 C12.1700871,17.5680476 11.5157927,17.9344525 10.7999991,17.9999985 C10.0842055,17.9344525 9.42991107,17.5680476 8.99999923,16.9919985 Z" id="Path" fill="#FB8C00"></path>
                                <path d="M15.4799987,11.087999 C14.8985813,10.8991649 14.2913093,10.8020014 13.6799988,10.7999991 C12.6791989,10.7999991 12.2399989,10.7999991 12.2399989,10.4399991 C12.2399989,10.0799991 12.7511989,10.0799991 13.6799988,10.0799991 C14.4175641,10.0680387 15.1047938,10.4528873 15.4799987,11.087999 L15.4799987,11.087999 Z" id="Path" fill="#6D4C41"></path>
                                <path d="M6.11999947,11.087999 C6.70141682,10.8991649 7.30868888,10.8020014 7.91999932,10.7999991 C8.92079923,10.7999991 9.35999919,10.7999991 9.35999919,10.4399991 C9.35999919,10.0799991 8.84879924,10.0799991 7.91999932,10.0799991 C7.182434,10.0680387 6.49520437,10.4528873 6.11999947,11.087999 L6.11999947,11.087999 Z" id="Path" fill="#6D4C41"></path>
                            </g>
                            <g id="PERSON-FEMALE" transform="translate(33.820951, 17.248357) rotate(15.000000) translate(-33.820951, -17.248357) translate(22.820951, 2.748357)">
                                <path d="M1.43999988,19.4399983 L10.7999991,19.4399983 L10.7999991,0.719999938 C10.7999991,0.719999938 0.719999938,3.59999969 0.719999938,15.8399986 C0.702221707,17.077458 0.947643301,18.3045659 1.43999988,19.4399983 L1.43999988,19.4399983 Z" id="Path" fill="#795548"></path>
                                <path d="M20.1599983,19.4399983 L10.7999991,19.4399983 L10.7999991,0.719999938 C10.7999991,0.719999938 20.8799982,3.59999969 20.8799982,15.8399986 C20.8977764,17.077458 20.6523548,18.3045659 20.1599983,19.4399983 Z" id="Path" fill="#795548"></path>
                                <path d="M20.1599983,23.8463979 C19.1663983,22.4711981 13.6799988,20.1599983 13.6799988,20.1599983 L7.91999932,20.1599983 C7.91999932,20.1599983 2.43359979,22.4711981 1.43999988,23.8463979 C0.635799769,25.125698 0.142612733,26.5756678 -5.32907052e-15,28.0799976 L21.5999981,28.0799976 C21.4573854,26.5756678 20.9641984,25.125698 20.1599983,23.8463979 Z" id="Path" fill="#009688"></path>
                                <path d="M7.91999932,13.6799988 L7.91999932,20.1599983 C7.91999932,22.3199981 10.7999991,23.759998 10.7999991,23.759998 C10.7999991,23.759998 13.6799988,22.3199981 13.6799988,20.1599983 L13.6799988,13.6799988 L7.91999932,13.6799988 Z" id="Path" fill="#FB8C00"></path>
                                <path d="M4.31999963,9.89999915 C4.31999963,17.0927985 7.80479933,20.1599983 10.7999991,20.1599983 L10.7999991,3.59999969 C7.04879939,3.59999969 4.31999963,7.19999938 4.31999963,9.89999915 Z" id="Path" fill="#FFB74D"></path>
                                <path d="M17.2799985,9.89999915 C17.2799985,17.0927985 13.7951988,20.1599983 10.7999991,20.1599983 L10.7999991,3.59999969 C14.5511987,3.59999969 17.2799985,-0.302399974 17.2799985,9.89999915 Z" id="Path" fill="#FFB74D"></path>
                                <path d="M10.7999991,0.719999938 C6.82559941,0.719999938 0.719999938,3.59999969 0.719999938,15.8399986 C0.719999938,8.63999926 9.35999919,12.2399989 14.3999988,4.31999963 C14.3999988,12.9599989 20.8799982,12.2399989 20.8799982,15.8399986 C20.8799982,7.91999932 18.7199999,2.15999981 14.3999988,2.15999981 C13.4619365,1.18608742 12.1509493,0.661692552 10.7999991,0.719999938 Z" id="Path" fill="#8D6E63"></path>
                                <path d="M15.1199987,12.9599989 C14.7450242,13.3691164 14.2322776,13.6254897 13.6799988,13.6799988 C13.1277201,13.6254897 12.6149735,13.3691164 12.2399989,12.9599989 C12.6149735,12.5508813 13.1277201,12.294508 13.6799988,12.2399989 C14.2322776,12.294508 14.7450242,12.5508813 15.1199987,12.9599989 L15.1199987,12.9599989 Z" id="Path" fill="#FFFFFF"></path>
                                <path d="M9.35999919,12.9599989 C8.98502467,13.3691164 8.47227806,13.6254897 7.91999932,13.6799988 C7.36772058,13.6254897 6.85497396,13.3691164 6.47999944,12.9599989 C6.85497396,12.5508813 7.36772058,12.294508 7.91999932,12.2399989 C8.47227806,12.294508 8.98502467,12.5508813 9.35999919,12.9599989 Z" id="Path" fill="#FFFFFF"></path>
                                <circle id="Oval" fill="#3E2723" cx="13.6799988" cy="12.9599989" r="1"></circle>
                                <circle id="Oval" fill="#3E2723" cx="7.91999932" cy="12.9599989" r="1"></circle>
                                <path d="M9.73439916,15.6311987 C10.4278535,15.907697 11.2009446,15.907697 11.894399,15.6311987 C11.7566494,16.1134186 11.3159078,16.4458889 10.8143991,16.4458889 C10.3128904,16.4458889 9.87214872,16.1134186 9.73439916,15.6311987 Z" id="Path" fill="#FCA230"></path>
                                <path d="M8.99999923,16.9919985 C10.169178,17.3766301 11.4308202,17.3766301 12.5999989,16.9919985 C12.1732119,17.5715983 11.5171872,17.9389721 10.7999991,17.9999985 C10.0828109,17.9389721 9.42678629,17.5715983 8.99999923,16.9919985 Z" id="Path" fill="#FB8C00"></path>
                                <path d="M15.4799987,11.087999 C14.8985813,10.8991649 14.2913093,10.8020014 13.6799988,10.7999991 C12.6791989,10.7999991 12.2399989,10.7999991 12.2399989,10.4399991 C12.2399989,10.0799991 12.7511989,10.0799991 13.6799988,10.0799991 C14.4175641,10.0680387 15.1047938,10.4528873 15.4799987,11.087999 L15.4799987,11.087999 Z" id="Path" fill="#6D4C41"></path>
                                <path d="M6.11999947,11.087999 C6.70141682,10.8991649 7.30868888,10.8020014 7.91999932,10.7999991 C8.92079923,10.7999991 9.35999919,10.7999991 9.35999919,10.4399991 C9.35999919,10.0799991 8.84879924,10.0799991 7.91999932,10.0799991 C7.182434,10.0680387 6.49520437,10.4528873 6.11999947,11.087999 L6.11999947,11.087999 Z" id="Path" fill="#6D4C41"></path>
                            </g>
                        </g>
                    </g>
                </g>
            </g>
        </g>
    </g>
</svg>