<?xml version="1.0" encoding="UTF-8"?>
<svg width="31px" height="32px" viewBox="0 0 31 32" version="1.1" xmlns="http://www.w3.org/2000/svg" xmlns:xlink="http://www.w3.org/1999/xlink">
    <!-- Generator: Sketch 62 (91390) - https://sketch.com -->
    <title>ICON</title>
    <desc>Created with Sketch.</desc>
    <g id="Page-1" stroke="none" stroke-width="1" fill="none" fill-rule="evenodd">
        <g id="11.MAIN-UI---DINE-IN" transform="translate(-344.000000, -560.000000)" fill-rule="nonzero">
            <g id="TABLES" transform="translate(312.000000, 340.000000)">
                <g id="TABLE-1">
                    <g id="PAYMENT" transform="translate(32.000000, 220.000000)">
                        <g id="ICON">
                            <path d="M29.6678898,28.9110805 C29.6678898,28.9110805 25.8206897,31.9266805 15.1190895,31.9266805 C4.41748924,31.9266805 0.570289148,28.9110805 0.570289148,28.9110805 C0.570289148,28.9110805 -4.41931096,7.84387998 15.1190895,7.84387998 C34.6574899,7.84387998 29.6678898,28.9110805 29.6678898,28.9110805 Z" id="Path" fill="#FF9800"></path>
                            <path d="M17.2022895,22.6866803 C17.2022895,21.4602803 16.1438895,21.1326803 15.0182895,20.6286803 C13.4390894,19.9146803 11.7590894,19.3266802 11.7590894,16.8822802 C11.7590894,16.0926802 12.0110894,13.8918801 15.1190895,13.5222801 L15.1190895,11.6910801 L16.4714895,11.6910801 L16.4714895,13.5138801 C19.2014896,13.9842801 19.6046896,16.0338802 19.6550896,17.4282802 L17.2190895,17.4282802 C17.2190895,15.9834802 16.5470895,15.4206802 15.6734895,15.4206802 C15.2770745,15.3923298 14.8880763,15.5386943 14.6086724,15.8213284 C14.3292684,16.1039625 14.1873847,16.4946172 14.2202895,16.8906802 C14.2202895,19.4106802 19.6550896,18.4782802 19.6550896,22.6446803 C19.6550896,25.5762804 16.7990895,26.0046804 16.2950895,26.0046804 L16.2950895,27.6846804 L14.9510895,27.6846804 L14.9510895,26.0466804 C13.9336988,26.0168285 12.9720156,25.5752251 12.286326,24.8230251 C11.6006364,24.0708252 11.2496949,23.0724825 11.3138894,22.0566803 L13.7582894,22.0566803 C13.7582894,24.1818804 15.3794895,24.1314803 15.6062895,24.1314803 C16.0131394,24.1665193 16.4162305,24.0307424 16.7189655,23.7566875 C17.0217005,23.4826327 17.1967952,23.0949993 17.2022895,22.6866803 Z" id="Path" fill="#E65100"></path>
                            <path d="M19.8818896,7.56667997 L10.3562894,7.56667997 L8.39908933,2.52667986 C10.5860651,1.92009492 12.8500921,1.63709154 15.1190895,1.68667984 C17.3880869,1.63709154 19.6521139,1.92009492 21.8390896,2.52667986 L19.8818896,7.56667997 Z" id="Path" fill="#F57C00"></path>
                            <path d="M18.1094895,7.56667997 L12.1286894,7.56667997 L11.0114894,0.426679811 C12.3564398,0.10770588 13.7374159,-0.0334982178 15.1190895,0.00667980167 C16.500763,-0.0334982178 17.8817391,0.10770588 19.2266896,0.426679811 L18.1094895,7.56667997 Z" id="Path" fill="#FF9800"></path>
                            <path d="M26.0390897,16.8066802 L24.3590897,16.8066802 C24.3590897,9.96908003 20.1590896,8.40667999 18.4790896,8.40667999 C18.4790896,7.84387998 19.6550896,7.91107998 20.1590896,8.40667999 C21.2762896,8.40667999 26.0390897,10.08668 26.0390897,16.8066802 Z" id="Path" fill="#455A64"></path>
                            <rect id="Rectangle" fill="#455A64" x="10.0790894" y="6.72667995" width="10.0800002" height="1.68000004"></rect>
                        </g>
                    </g>
                </g>
            </g>
        </g>
    </g>
</svg>