<?xml version="1.0" encoding="UTF-8"?>
<svg width="51px" height="65px" viewBox="0 0 51 65" version="1.1" xmlns="http://www.w3.org/2000/svg" xmlns:xlink="http://www.w3.org/1999/xlink">
    <!-- Generator: Sketch 62 (91390) - https://sketch.com -->
    <title>HOURGLASS</title>
    <desc>Created with Sketch.</desc>
    <g id="Page-1" stroke="none" stroke-width="1" fill="none" fill-rule="evenodd">
        <g id="11.MAIN-UI---DINE-IN" transform="translate(-456.000000, -2055.000000)" fill-rule="nonzero">
            <g id="TABLES" transform="translate(312.000000, 340.000000)">
                <g id="TABLE-13" transform="translate(0.000000, 1584.000000)">
                    <g id="HOURGLASS" transform="translate(144.000000, 131.000000)">
                        <rect id="Rectangle" fill="#E64A19" x="0" y="0" width="51.0000014" height="6.80000019"></rect>
                        <rect id="Rectangle" fill="#E64A19" x="0" y="57.8000016" width="51.0000014" height="6.80000019"></rect>
                        <path d="M44.2000012,16.0990005 L44.2000012,6.80000019 L6.80000019,6.80000019 L6.80000019,16.0990005 C6.80437381,19.8016772 8.81495344,23.2112038 12.0530003,25.0070007 L20.5530006,29.7670008 C21.4959644,30.2618278 22.0903996,31.2351336 22.1000006,32.3000002 L22.1000006,32.3000002 C22.1039444,33.3503689 21.53768,34.320178 20.6210006,34.833001 L12.1210003,39.5930011 C8.8566932,41.3709738 6.81803348,44.7839376 6.80000019,48.5010014 L6.80000019,57.8000002 L44.2000012,57.8000002 L44.2000012,48.5010014 C44.1956276,44.7983246 42.185048,41.388798 38.9470011,39.5930011 L30.4470009,34.833001 C29.504037,34.338174 28.9096019,33.3648682 28.9000008,32.3000002 L28.9000008,32.3000002 C28.8960571,31.2496329 29.4623214,30.2798238 30.3790009,29.7670008 L38.8790011,25.0070007 C42.1433082,23.229028 44.1819679,19.8160642 44.2000012,16.0990005 Z" id="Path" fill="#FFE0B2"></path>
                        <path d="M40.8000011,57.8000016 L10.2000003,57.8000016 C10.2000003,47.6000013 25.5000007,42.8060012 25.5000007,42.8060012 C25.5000007,42.8060012 40.8000011,47.6000013 40.8000011,57.8000016 Z" id="Path" fill="#FF9800"></path>
                        <path d="M11.7470003,20.4000006 C12.2792165,21.0909576 12.9438342,21.6688861 13.7020004,22.1000006 L23.8000007,27.6250008 L25.5000007,28.5940008 L27.2000008,27.6250008 L37.298001,22.1000006 C38.0561672,21.6688861 38.720785,21.0909576 39.2530011,20.4000006 L11.7470003,20.4000006 Z" id="Path" fill="#FF9800"></path>
                    </g>
                </g>
            </g>
        </g>
    </g>
</svg>