<?xml version="1.0" encoding="UTF-8"?>
<svg width="48px" height="24px" viewBox="0 0 48 24" version="1.1" xmlns="http://www.w3.org/2000/svg" xmlns:xlink="http://www.w3.org/1999/xlink">
    <!-- Generator: Sketch 62 (91390) - https://sketch.com -->
    <title>camping_table</title>
    <desc>Created with Sketch.</desc>
    <g id="Page-1" stroke="none" stroke-width="1" fill="none" fill-rule="evenodd">
        <g id="13.MAIN-UI---DINE-IN-DROP-DOWN" transform="translate(-1145.000000, -340.000000)">
            <g id="NOTIFICATION-BAR" transform="translate(1132.000000, 277.000000)">
                <g id="TIME-Copy" transform="translate(0.000000, 48.000000)">
                    <g id="camping_table" transform="translate(13.000000, 15.000000)">
                        <polygon id="Shape" fill="#BF360C" points="6.212 24 16.212 3 19.212 3 9.212 24"></polygon>
                        <polygon id="Shape" fill="#BF360C" points="42 24 32 3 29 3 39 24"></polygon>
                        <rect id="Rectangle-path" fill="#FF9800" transform="translate(24.000000, 12.500000) rotate(180.000000) translate(-24.000000, -12.500000) " x="1" y="11" width="46" height="3"></rect>
                        <rect id="Rectangle-path" fill="#FF9800" x="9" y="0" width="30" height="4"></rect>
                        <path d="M40,11 L47,11 C47.552,11 48,10.552 48,10 L48,10 C48,9.448 47.552,9 47,9 L40,9 C39.448,9 39,9.448 39,10 L39,10 C39,10.552 39.448,11 40,11 L40,11 Z" id="Shape" fill="#E64A19"></path>
                        <path d="M1,11 L8,11 C8.552,11 9,10.552 9,10 L9,10 C9,9.448 8.552,9 8,9 L1,9 C0.448,9 0,9.448 0,10 L0,10 C0,10.552 0.448,11 1,11 L1,11 Z" id="Shape" fill="#E64A19"></path>
                    </g>
                </g>
            </g>
        </g>
    </g>
</svg>