<?xml version="1.0" encoding="UTF-8"?>
<svg width="42px" height="42px" viewBox="0 0 25 26" version="1.1" xmlns="http://www.w3.org/2000/svg" xmlns:xlink="http://www.w3.org/1999/xlink">
    <!-- Generator: Sketch 62 (91390) - https://sketch.com -->
    <title>CALENDER</title>
    <desc>Created with Sketch.</desc>
    <g id="Page-1" stroke="none" stroke-width="1" fill="none" fill-rule="evenodd">
        <g id="10.MAIN-UI---RESERVATIONS" transform="translate(-802.000000, -363.000000)">
            <g id="TABLE-BOOKING" transform="translate(293.000000, 231.000000)">
                <g id="DATE" transform="translate(506.100000, 88.050000)">
                    <g id="DATE-TAG" transform="translate(0.000000, 35.700000)">
                        <g id="CALENDER" transform="translate(5.250000, 10.500000)">
                            <g id="ICON" transform="translate(0.000000, 0.000000)">
                                <g id="Circle_Shadow_4_" transform="translate(0.000000, 0.637571)" fill="#189F99">
                                    <circle id="Oval" cx="9.88235294" cy="9.88235294" r="9.88235294"></circle>
                                </g>
                                <g id="Circle_4_" fill="#1CBBB4">
                                    <circle id="Oval" cx="9.88235294" cy="9.88235294" r="9.88235294"></circle>
                                </g>
                                <g id="Long_Shadow_5_" opacity="0.15" transform="translate(5.718216, 4.781784)" fill="#000000">
                                    <polygon id="Shape" points="2.0601518 0.191271347 2.0601518 1.59392789 3.46280835 1.59392789"></polygon>
                                    <polygon id="Shape" points="7.16072106 0.191271347 7.16072106 1.59392789 8.56337761 1.59392789"></polygon>
                                    <path d="M9.37229602,1.76527514 L0.191271347,10.3087287 L5.16432638,15.2817837 C9.94611006,15.1223909 13.8352941,11.5519924 14.5685009,6.92960152 L9.37229602,1.76527514 L9.37229602,1.76527514 Z" id="Shape"></path>
                                </g>
                                <g id="Calendar" transform="translate(5.100569, 6.056926)" fill="#FFFCF2">
                                    <path d="M8.9259962,0 L0.637571157,0 C0.286907021,0 0,0.286907021 0,0.637571157 L0,8.28842505 C0,8.63908918 0.286907021,8.9259962 0.637571157,8.9259962 L8.9259962,8.9259962 C9.27666034,8.9259962 9.56356736,8.63908918 9.56356736,8.28842505 L9.56356736,0.637571157 C9.56356736,0.286907021 9.27666034,0 8.9259962,0 L8.9259962,0 Z" id="Shape"></path>
                                </g>
                                <g id="Rings" transform="translate(6.694497, 4.781784)" fill="#344E5F">
                                    <path d="M0.637571157,0 C0.286907021,0 0,0.286907021 0,0.637571157 L0,1.91271347 C0,2.26337761 0.286907021,2.55028463 0.637571157,2.55028463 C0.988235294,2.55028463 1.27514231,2.26337761 1.27514231,1.91271347 L1.27514231,0.637571157 C1.27514231,0.286907021 0.988235294,0 0.637571157,0 L0.637571157,0 Z M5.73814042,0 C5.38747628,0 5.10056926,0.286907021 5.10056926,0.637571157 L5.10056926,1.91271347 C5.10056926,2.26337761 5.38747628,2.55028463 5.73814042,2.55028463 C6.08880455,2.55028463 6.37571157,2.26337761 6.37571157,1.91271347 L6.37571157,0.637571157 C6.37571157,0.286907021 6.08880455,0 5.73814042,0 L5.73814042,0 Z" id="Shape"></path>
                                </g>
                                <g id="Shading_1_" opacity="0.149" transform="translate(12.113852, 12.432638)" fill="#344E5F">
                                    <g id="Group">
                                        <polygon id="Shape" points="0 1.91271347 1.91271347 1.91271347 1.91271347 0"></polygon>
                                    </g>
                                </g>
                                <g id="_x33_1" transform="translate(7.650854, 8.607211)" fill="#F3643F">
                                    <path d="M2.16774194,2.13586338 C2.10398482,2.07210626 2.0402277,2.00834915 1.97647059,1.97647059 C1.91271347,1.94459203 1.8170778,1.91271347 1.72144213,1.88083491 L1.72144213,1.88083491 C1.91271347,1.84895636 2.0402277,1.75332068 2.13586338,1.62580645 C2.23149905,1.49829222 2.26337761,1.33889943 2.26337761,1.17950664 C2.26337761,1.02011385 2.23149905,0.89259962 2.16774194,0.796963947 C2.10398482,0.701328273 2.0402277,0.6056926 1.94459203,0.510056926 C1.84895636,0.44629981 1.72144213,0.382542694 1.59392789,0.350664137 C1.46641366,0.318785579 1.33889943,0.286907021 1.17950664,0.286907021 C1.05199241,0.286907021 0.924478178,0.286907021 0.796963947,0.318785579 C0.669449715,0.350664137 0.573814042,0.382542694 0.478178368,0.44629981 C0.382542694,0.510056926 0.286907021,0.573814042 0.223149905,0.669449715 C0.159392789,0.765085389 0.0956356736,0.89259962 0.0637571157,1.02011385 L0.796963947,1.17950664 C0.828842505,1.08387097 0.860721063,1.02011385 0.924478178,0.956356736 C0.988235294,0.89259962 1.08387097,0.860721063 1.17950664,0.860721063 C1.27514231,0.860721063 1.37077799,0.89259962 1.46641366,0.956356736 C1.56204934,1.02011385 1.59392789,1.08387097 1.59392789,1.17950664 C1.59392789,1.24326376 1.59392789,1.30702087 1.56204934,1.37077799 C1.53017078,1.40265655 1.49829222,1.46641366 1.4345351,1.46641366 C1.37077799,1.49829222 1.33889943,1.49829222 1.27514231,1.53017078 L1.08387097,1.53017078 L0.860721063,1.53017078 L0.860721063,2.10398482 L1.02011385,2.10398482 L1.24326376,2.10398482 C1.30702087,2.10398482 1.37077799,2.13586338 1.4345351,2.13586338 C1.49829222,2.16774194 1.53017078,2.19962049 1.59392789,2.23149905 C1.62580645,2.29525617 1.65768501,2.35901328 1.65768501,2.45464896 C1.65768501,2.58216319 1.62580645,2.67779886 1.56204934,2.74155598 C1.49829222,2.80531309 1.37077799,2.86907021 1.24326376,2.86907021 C1.11574953,2.86907021 0.988235294,2.83719165 0.924478178,2.77343454 C0.860721063,2.70967742 0.796963947,2.61404175 0.765085389,2.51840607 L0.0637571157,2.67779886 C0.127514231,2.96470588 0.255028463,3.15597723 0.478178368,3.28349146 C0.669449715,3.41100569 0.924478178,3.47476281 1.2113852,3.47476281 C1.37077799,3.47476281 1.49829222,3.44288425 1.65768501,3.41100569 C1.78519924,3.37912713 1.91271347,3.31537002 2.00834915,3.21973435 C2.10398482,3.15597723 2.19962049,3.028463 2.26337761,2.93282732 C2.32713472,2.80531309 2.35901328,2.67779886 2.35901328,2.51840607 C2.35901328,2.4227704 2.35901328,2.32713472 2.32713472,2.26337761 C2.26337761,2.26337761 2.23149905,2.19962049 2.16774194,2.13586338 L2.16774194,2.13586338 Z M3.76166983,0.350664137 L2.74155598,1.2113852 L3.12409867,1.65768501 L3.76166983,1.08387097 L3.76166983,3.50664137 L4.39924099,3.50664137 L4.39924099,0.350664137 L3.76166983,0.350664137 L3.76166983,0.350664137 Z" id="Shape"></path>
                                </g>
                            </g>
                        </g>
                    </g>
                </g>
            </g>
        </g>
    </g>
</svg>