<?xml version="1.0" encoding="UTF-8"?>
<svg width="41px" height="41px" viewBox="0 0 41 41" version="1.1" xmlns="http://www.w3.org/2000/svg" xmlns:xlink="http://www.w3.org/1999/xlink">
    <!-- Generator: Sketch 62 (91390) - https://sketch.com -->
    <title>CANCEL</title>
    <desc>Created with Sketch.</desc>
    <defs>
        <filter x="-36.4%" y="-36.4%" width="172.7%" height="172.7%" filterUnits="objectBoundingBox" id="filter-1">
            <feOffset dx="0" dy="2" in="SourceAlpha" result="shadowOffsetOuter1"></feOffset>
            <feGaussianBlur stdDeviation="2" in="shadowOffsetOuter1" result="shadowBlurOuter1"></feGaussianBlur>
            <feColorMatrix values="0 0 0 0 0   0 0 0 0 0   0 0 0 0 0  0 0 0 0.5 0" type="matrix" in="shadowBlurOuter1" result="shadowMatrixOuter1"></feColorMatrix>
            <feMerge>
                <feMergeNode in="shadowMatrixOuter1"></feMergeNode>
                <feMergeNode in="SourceGraphic"></feMergeNode>
            </feMerge>
        </filter>
    </defs>
    <g id="Page-1" stroke="none" stroke-width="1" fill="none" fill-rule="evenodd">
        <g id="10.MAIN-UI---RESERVATIONS" transform="translate(-1228.000000, -768.000000)" fill="#F44336">
            <g id="RESERVATIONS" transform="translate(293.000000, 582.000000)">
                <g id="TAB-1" transform="translate(23.000000, 165.000000)">
                    <g id="CANCEL" transform="translate(916.000000, 19.000000)">
                        <g transform="translate(0.000000, 4.000000)" id="Cancel">
                            <g filter="url(#filter-1)">
                                <path d="M16.1999996,0 C7.25309981,0 0,7.25309981 0,16.1999996 C0,25.1468993 7.25309981,32.3999991 16.1999996,32.3999991 C25.1468993,32.3999991 32.3999991,25.1468993 32.3999991,16.1999996 C32.3999991,7.25309981 25.1468993,0 16.1999996,0 L16.1999996,0 Z M16.1999996,4.26329989 C18.6830995,4.26329989 20.9879994,5.02289987 22.8986994,6.31979983 L6.32069983,22.8977994 C5.02289987,20.9879994 4.26419989,18.6821995 4.26419989,16.1990996 C4.26329989,9.60749975 9.60749975,4.26329989 16.1999996,4.26329989 L16.1999996,4.26329989 Z M16.1999996,28.1366993 C13.7168996,28.1366993 11.4119997,27.3770993 9.50129975,26.0801993 L26.0792993,9.50219975 C27.3770993,11.4119997 28.1357993,13.7177996 28.1357993,16.2008996 C28.1366993,22.7924994 22.7924994,28.1366993 16.1999996,28.1366993 L16.1999996,28.1366993 Z" id="Shape"></path>
                            </g>
                        </g>
                    </g>
                </g>
            </g>
        </g>
    </g>
</svg>