<?xml version="1.0" encoding="UTF-8"?>
<svg width="36px" height="46px" viewBox="0 0 36 46" version="1.1" xmlns="http://www.w3.org/2000/svg" xmlns:xlink="http://www.w3.org/1999/xlink">
    <!-- Generator: Sketch 62 (91390) - https://sketch.com -->
    <title>MALE</title>
    <desc>Created with Sketch.</desc>
    <g id="Page-1" stroke="none" stroke-width="1" fill="none" fill-rule="evenodd">
        <g id="10.MAIN-UI---RESERVATIONS" transform="translate(-356.000000, -877.000000)">
            <g id="RESERVATIONS" transform="translate(293.000000, 582.000000)">
                <g id="TAB-2" transform="translate(23.000000, 277.000000)">
                    <g id="GUEST">
                        <g transform="translate(43.000000, 21.000000)">
                            <g id="FEMALE-fit">
                                <g id="FEMALE">
                                    <g id="Path">
                                        <path d="M26,30 L26,35.4 C26,35.73 25.7075,36 25.35,36 L0.65,36 C0.2925,36 0,35.73 0,35.4 L0,30 C0,28.014 1.742,26.4 3.9,26.4 L5.2,26.4 L5.2,26.412 L13,31.2 L20.8,26.406 L20.8,26.4 L22.1,26.4 C24.258,26.4 26,28.014 26,30 Z" fill="#4FC1E9" fill-rule="nonzero"></path>
                                        <path d="M22.1,26.4 L20.8,26.4 L20.8,26.406 L20.5777,26.5428 C22.2092,26.9742 23.4,28.359 23.4,30 L23.4,35.4 C23.4,35.73 23.1075,36 22.75,36 L25.35,36 C25.7075,36 26,35.73 26,35.4 L26,30 C26,28.014 24.258,26.4 22.1,26.4 Z" fill="#3BAFDA" fill-rule="nonzero"></path>
                                        <path d="M24.7,17.4 L24.7,23.4 C24.7,24.06 24.1215,24.6 23.4,24.6 L16.9,24.6 L16.9,23.25 C19.8185,22.074 21.996,19.614 22.5875,16.644 L24.6805,17.4 L24.7,17.4 Z" fill="#773E3E" fill-rule="nonzero"></path>
                                        <path d="M24.7,10.8 L24.7,17.4 L24.6805,17.4 L22.5875,16.644 L6.5,10.8 L6.5,1.836 C8.359,0.678 10.6015,0.006 13.013,0.006 C19.4675,0.006 24.7,4.836 24.7,10.8 Z" fill="#965353" fill-rule="nonzero"></path>
                                        <path d="M13.013,0.006 C12.57685,0.006 12.14915,0.0354 11.72535,0.078 C17.5617,0.681 22.1,5.2458 22.1,10.8 L22.1,16.467 L22.5875,16.644 L24.6805,17.4 L24.7,17.4 L24.7,10.8 C24.7,4.836 19.4675,0.006 13.013,0.006 Z" fill="#844646" fill-rule="nonzero"></path>
                                        <path d="M6.5,10.8 L22.5875,16.644 C21.996,19.614 19.8185,22.074 16.9,23.25 C15.704,23.736 14.391,24 13,24 C11.6155,24 10.296,23.73 9.1,23.25 C5.655,21.864 3.25,18.69 3.25,15 L3.25,12.678 L3.25,12.672 L6.5,10.8 Z" fill="#EAC6BB" fill-rule="nonzero"></path>
                                        <polygon fill="#F5F7FA" fill-rule="nonzero" points="20.8 26.4 20.8 26.406 13 31.2 5.2 26.412 5.2 26.4 9.1 26.4 13 28.8 16.9 26.4"></polygon>
                                        <path d="M20.8,26.406 L20.8,26.4 L19.5,26.4 C19.8744,26.4 20.2358,26.4516 20.5777,26.5422 L20.8,26.406 Z" fill="#E6E9ED" fill-rule="nonzero"></path>
                                        <path d="M16.9,24.6 L16.9,26.4 L13,28.8 L9.1,26.4 L9.1,24.6 L9.1,23.25 C10.296,23.73 11.6155,24 13,24 C14.391,24 15.704,23.736 16.9,23.25 L16.9,24.6 Z" fill="#EAC6BB" fill-rule="nonzero"></path>
                                        <path d="M9.1,23.25 L9.1,24.6 L2.6,24.6 C1.8785,24.6 1.3,24.06 1.3,23.4 L1.3,13.8 L3.25,12.678 L3.25,15 C3.25,18.69 5.655,21.864 9.1,23.25 Z" fill="#773E3E" fill-rule="nonzero"></path>
                                        <path d="M17.6982,22.8828 C17.8165,22.8228 17.93285,22.7622 18.0479,22.698 C18.12915,22.653 18.20845,22.6056 18.28775,22.5582 C18.38915,22.497 18.4912,22.4352 18.59,22.3704 C18.66995,22.3182 18.7499,22.266 18.8279,22.2114 C18.9241,22.1454 19.019,22.0764 19.1126,22.0068 C19.18735,21.951 19.2621,21.8958 19.33555,21.8388 C19.435,21.7602 19.5312,21.678 19.6274,21.5958 C19.68915,21.543 19.75155,21.4926 19.812,21.438 C19.96085,21.3042 20.1045,21.1668 20.2436,21.0246 C20.29105,20.9754 20.33655,20.9232 20.3827,20.8734 C20.4776,20.772 20.57185,20.67 20.66155,20.565 C20.7142,20.5026 20.7649,20.439 20.8156,20.376 C20.8949,20.2776 20.97355,20.1786 21.0483,20.0766 C21.09705,20.0112 21.1445,19.944 21.19195,19.8768 C21.2654,19.7718 21.3369,19.6656 21.40515,19.5582 C21.44675,19.4922 21.489,19.4262 21.52865,19.3596 C21.6008,19.2402 21.66905,19.1184 21.7347,18.9948 C21.7659,18.9378 21.79775,18.882 21.82765,18.8238 C21.91605,18.6504 21.99925,18.4746 22.0753,18.2952 C22.0792,18.2856 22.0844,18.2766 22.0883,18.267 C22.1689,18.0768 22.24105,17.8818 22.308,17.685 C22.32685,17.6292 22.34245,17.5722 22.36,17.5158 C22.40355,17.3766 22.4458,17.2356 22.4822,17.0934 C22.5017,17.0172 22.5186,16.9404 22.53615,16.8642 C22.5524,16.7904 22.5667,16.7166 22.581,16.6422 L20.11425,15.7464 C19.81525,19.1136 17.5097,21.9588 14.3,23.25 C13.4849,23.577 12.61,23.7966 11.7,23.9106 C11.7091,23.9118 11.71755,23.9136 11.72665,23.9142 C11.8833,23.9334 12.04125,23.9484 12.2005,23.9616 C12.46505,23.9814 12.73025,24 13,24 C14.3845,24 15.704,23.73 16.9,23.25 C17.0989,23.1702 17.2926,23.0826 17.48435,22.9908 C17.55715,22.9566 17.6267,22.9188 17.6982,22.8828 Z" fill="#D3B1A9" fill-rule="nonzero"></path>
                                        <path d="M6.5,1.836 L6.5,10.8 L3.25,12.672 L3.25,12.678 L1.3,13.8 L1.3,12.6 L1.3,10.8 L1.3195,10.8 C1.3195,7.062 3.3735,3.768 6.5,1.836 Z" fill="#844646" fill-rule="nonzero"></path>
                                    </g>
                                </g>
                            </g>
                        </g>
                    </g>
                </g>
            </g>
        </g>
    </g>
</svg>