<?xml version="1.0" encoding="UTF-8"?>
<svg width="40px" height="40px" viewBox="0 0 40 35" version="1.1" xmlns="http://www.w3.org/2000/svg" xmlns:xlink="http://www.w3.org/1999/xlink">
    <!-- Generator: Sketch 62 (91390) - https://sketch.com -->
    <title>GUEST</title>
    <desc>Created with Sketch.</desc>
    <g id="Page-1" stroke="none" stroke-width="1" fill="none" fill-rule="evenodd">
        <g id="10.MAIN-UI---RESERVATIONS" transform="translate(-904.000000, -769.000000)">
            <g id="RESERVATIONS" transform="translate(293.000000, 582.000000)">
                <g id="TAB-1" transform="translate(23.000000, 165.000000)">
                    <g id="GUESTS" transform="translate(588.000000, 22.000000)">
                        <g id="GUEST">
                            <g>
                                <path d="M34.2109099,17.1054549 C34.2109099,23.9566678 30.1830263,29.867467 24.3659292,32.5978772 C22.5597501,33.4461549 20.5810445,33.9872256 18.4963694,34.154793 C18.0375164,34.1918563 17.5739653,34.2106489 17.1054549,34.2106489 C16.5555099,34.2106489 16.0100022,34.184809 15.4725856,34.1331294 C14.7856111,34.0689212 14.1103821,33.9629517 13.4500305,33.8191361 C12.1032265,33.5257625 10.8164544,33.0742177 9.60928999,32.4848605 C5.97579028,30.7107855 3.06450112,27.6870017 1.43502486,23.9733723 C0.5120987,21.8712097 0.000261008529,19.5482338 0.000261008529,17.1054549 C0.000261008529,7.65825122 7.65851228,0 17.1054549,0 C26.5526586,0 34.2109099,7.65825122 34.2109099,17.1054549 Z" id="Path" fill="#3FB777" fill-rule="nonzero"></path>
                                <path d="M32.6756577,22.0567867 L32.6756577,24.1981007 C30.9903256,27.8921544 28.0291839,30.8812241 24.3560109,32.6028363 C23.6907001,32.9142195 23.0016376,33.1843633 22.2922164,33.4093527 C21.4943134,33.664097 20.6710924,33.8603754 19.8264688,33.9950558 C19.8228147,33.9955778 19.8186386,33.9963608 19.8152455,33.9963608 L19.8152455,22.0567867 C19.8152455,19.5119536 21.7748975,17.4244074 24.268834,17.2234308 C24.4001213,17.2122074 24.5321916,17.2072483 24.665306,17.2072483 L27.8240311,17.2072483 C28.1975344,17.2072483 28.5613803,17.2484876 28.9103487,17.3288782 C31.0662791,17.8216623 32.6756577,19.7520814 32.6756577,22.0567867 L32.6756577,22.0567867 Z" id="Path" fill="#BFD5DE" fill-rule="nonzero"></path>
                                <path d="M32.6756577,22.0567867 L32.6756577,24.1981007 C30.9903256,27.8921544 28.0291839,30.8812241 24.3560109,32.6028363 C23.6907001,32.9142195 23.0016376,33.1843633 22.2922164,33.4093527 L22.2922164,22.0567867 C22.2922164,19.3785782 24.4643294,17.2072483 27.1433209,17.2072483 L27.8245532,17.2072483 C30.5043278,17.2072483 32.6756577,19.3785782 32.6756577,22.0567867 L32.6756577,22.0567867 Z" id="Path" fill="#DDE8ED" fill-rule="nonzero"></path>
                                <path d="M21.4979674,11.8578785 C21.4979674,12.6589136 20.9125253,13.3231803 20.1462043,13.4466374 C20.0626815,13.4602098 19.9762878,13.467257 19.8885889,13.467257 C18.9993328,13.467257 18.2792103,12.7468735 18.2792103,11.8578785 C18.2792103,10.9688834 18.9993328,10.2484999 19.8885889,10.2484999 C19.9762878,10.2484999 20.0626815,10.2555471 20.1462043,10.2691196 C20.9125253,10.3925766 21.4979674,11.0568433 21.4979674,11.8578785 L21.4979674,11.8578785 Z" id="Path" fill="#D3A489" fill-rule="nonzero"></path>
                                <polyline id="Path" fill="#F74F4F" fill-rule="nonzero" points="27.5473622 18.9570495 26.2451906 21.0453787 24.94328 18.9570495"></polyline>
                                <polygon id="Path" fill="#F74F4F" fill-rule="nonzero" points="27.9970798 26.9452155 26.2454516 29.1562187 24.4930403 26.9452155 26.2457126 20.5019589"></polygon>
                                <path d="M21.4979674,11.8578785 C21.4979674,12.6589136 20.9125253,13.3231803 20.1462043,13.4466374 C20.0070867,12.9402808 19.9326993,12.4078234 19.9326993,11.8578785 C19.9326993,11.3081945 20.0070867,10.7754761 20.1462043,10.2691196 C20.9125253,10.3925766 21.4979674,11.0568433 21.4979674,11.8578785 L21.4979674,11.8578785 Z" id="Path" fill="#BF8E75" fill-rule="nonzero"></path>
                                <path d="M20.4638517,11.8578785 C20.4638517,12.1755258 20.2062363,12.4331413 19.8885889,12.4331413 C19.5709415,12.4331413 19.3133261,12.1755258 19.3133261,11.8578785 C19.3133261,11.5402311 19.5709415,11.2826157 19.8885889,11.2826157 C20.2062363,11.2826157 20.4638517,11.5402311 20.4638517,11.8578785 Z" id="Path" fill="#BF8E75" fill-rule="nonzero"></path>
                                <polyline id="Path" fill="#BFD5DE" fill-rule="nonzero" points="26.2449296 19.1924791 24.0610712 20.4061688 23.3968045 17.3163498 24.7537879 16.5171417"></polyline>
                                <polyline id="Path" fill="#BFD5DE" fill-rule="nonzero" points="26.2449296 19.1924791 28.428527 20.4061688 29.0927936 17.3163498 27.7360713 16.5171417"></polyline>
                                <path d="M30.9921527,11.8578785 C30.9921527,12.6589136 31.5773338,13.3231803 32.3436549,13.4466374 C32.4274386,13.4602098 32.5138324,13.467257 32.6015312,13.467257 C33.4907873,13.467257 34.2109099,12.7468735 34.2109099,11.8578785 C34.2109099,10.9688834 33.4907873,10.2484999 32.6015312,10.2484999 C32.5138324,10.2484999 32.4274386,10.2555471 32.3436549,10.2691196 C31.5773338,10.3925766 30.9921527,11.0568433 30.9921527,11.8578785 Z" id="Path" fill="#D3A489" fill-rule="nonzero"></path>
                                <g id="Group" transform="translate(20.245910, 4.944546)" fill="#BF8E75" fill-rule="nonzero">
                                    <path d="M10.7462431,6.91333292 C10.7462431,7.71436807 11.3314243,8.37863476 12.0977453,8.50209185 C12.2371239,7.99573523 12.3115113,7.46327783 12.3115113,6.91333292 C12.3115113,6.36364892 12.2371239,5.83093053 12.0977453,5.32457398 C11.3314243,5.448031 10.7462431,6.11229769 10.7462431,6.91333292 Z" id="Path"></path>
                                    <path d="M12.9308846,6.91333292 C12.9308846,7.23098028 12.6732691,7.48859571 12.3556217,7.48859571 C12.0379743,7.48859571 11.780359,7.23098028 11.780359,6.91333292 C11.780359,6.59568555 12.0379743,6.33807012 12.3556217,6.33807012 C12.6732691,6.33807012 12.9308846,6.59568555 12.9308846,6.91333292 Z" id="Path"></path>
                                    <path d="M11.9870777,6.05800792 C11.9870777,9.03768128 9.81026652,11.5096931 6.96031445,11.9685461 C6.6476262,12.0199648 6.32658574,12.0458046 5.99928101,12.0458046 C2.69204193,12.0458046 0.0112233834,9.365247 0.0112233834,6.05800792 C0.0112233834,4.49326184 0.554904165,2.14418508 1.5373402,1.07744321 C2.63174901,-0.110406624 4.25678808,0.0699502857 5.99928101,0.0699502857 C6.32658574,0.0699502857 6.6476262,0.0960511385 6.96031445,0.147469802 C9.81026652,0.606322829 11.9870777,3.07807356 11.9870777,6.05800792 L11.9870777,6.05800792 Z" id="Path"></path>
                                    <path d="M7.72976759,10.3938817 L7.72976759,12.517708 C7.72976759,13.2952524 7.21714684,13.9524719 6.51085773,14.170675 C6.3492935,14.2207887 6.17702781,14.2479336 5.99902002,14.2479336 C5.04320676,14.2479336 4.26853344,13.4735212 4.26853344,12.517708 L4.26853344,10.3938817 L7.72976759,10.3938817 Z" id="Path"></path>
                                </g>
                                <path d="M27.9756771,17.3278342 L27.9756771,17.4622536 C27.9756771,18.239798 27.4630564,18.8970175 26.7567673,19.1154816 C26.1196455,18.9194642 25.6406948,18.3656041 25.5522129,17.687765 C25.6678397,17.6948122 25.7839885,17.6984663 25.9009203,17.6984663 C26.228486,17.6984663 26.5492656,17.6723655 26.8619537,17.6209468 C27.2472023,17.5590877 27.6194005,17.4599045 27.9756771,17.3278342 L27.9756771,17.3278342 Z" id="Path" fill="#D3A489" fill-rule="nonzero"></path>
                                <path d="M32.2329873,11.0025535 C32.2329873,13.9822268 30.0561761,16.4542386 27.206224,16.9130917 C24.3560109,16.4542386 22.1791997,13.9822268 22.1791997,11.0025535 C22.1791997,9.16766356 23.0045087,7.5253979 24.3048532,6.42681302 C25.1152847,5.74140459 26.1112932,5.26819614 27.206224,5.09175438 C29.8632908,5.51954737 31.9356985,7.69766353 32.2034933,10.405366 C32.2230689,10.6019054 32.2329873,10.801316 32.2329873,11.0025535 Z" id="Path" fill="#D3A489" fill-rule="nonzero"></path>
                                <path d="M26.2451906,13.9516889 C25.7437932,13.9516889 25.2423958,13.8258828 24.7853699,13.5747926 C24.6564316,13.5037982 24.6091891,13.3419729 24.6801834,13.2130348 C24.7511777,13.0840965 24.913003,13.037115 25.0419413,13.1078483 C25.7954729,13.5220689 26.6949083,13.5220689 27.4484399,13.1078483 C27.5771171,13.037115 27.7392034,13.0840965 27.8101977,13.2130348 C27.880931,13.3419729 27.8339495,13.5037982 27.7050112,13.5747926 C27.2479854,13.8258828 26.7465879,13.9516889 26.2451906,13.9516889 L26.2451906,13.9516889 Z" id="Path" fill="#BF8E75" fill-rule="nonzero"></path>
                                <path d="M24.9699029,10.6538461 C24.9699029,11.0291764 24.665828,11.3332513 24.2907587,11.3332513 C23.9154285,11.3332513 23.6113536,11.0291764 23.6113536,10.6538461 C23.6113536,10.2787769 23.9154285,9.97470193 24.2907587,9.97470193 C24.665828,9.97470193 24.9699029,10.2787769 24.9699029,10.6538461 Z" id="Path" fill="#3D4159" fill-rule="nonzero"></path>
                                <path d="M28.8787667,10.6538461 C28.8787667,11.0291764 28.5746917,11.3332513 28.1996224,11.3332513 C27.8245532,11.3332513 27.5202173,11.0291764 27.5202173,10.6538461 C27.5202173,10.2787769 27.8245532,9.97470193 28.1996224,9.97470193 C28.5746917,9.97470193 28.8787667,10.2787769 28.8787667,10.6538461 Z" id="Path" fill="#3D4159" fill-rule="nonzero"></path>
                                <path d="M24.8315684,10.5340432 C24.8315684,10.6948245 24.7010641,10.8250677 24.5402829,10.8250677 C24.3795016,10.8250677 24.2492583,10.6948245 24.2492583,10.5340432 C24.2492583,10.373262 24.3795016,10.2430187 24.5402829,10.2430187 C24.7010641,10.2430187 24.8315684,10.373262 24.8315684,10.5340432 Z" id="Path" fill="#FFFFFF" fill-rule="nonzero"></path>
                                <path d="M28.7738412,10.5340432 C28.7738412,10.6948245 28.6433369,10.8250677 28.4825557,10.8250677 C28.3217744,10.8250677 28.1915311,10.6948245 28.1915311,10.5340432 C28.1915311,10.373262 28.3217744,10.2430187 28.4825557,10.2430187 C28.6433369,10.2430187 28.7738412,10.373262 28.7738412,10.5340432 Z" id="Path" fill="#FFFFFF" fill-rule="nonzero"></path>
                                <path d="M26.9243348,12.364235 L25.5657854,12.364235 C25.4039601,12.364235 25.2729338,12.2329477 25.2729338,12.0711224 C25.2729338,11.9092971 25.4039601,11.7782709 25.5657854,11.7782709 L26.9243348,11.7782709 C27.0861601,11.7782709 27.2174474,11.9092971 27.2174474,12.0711224 C27.2174474,12.2329477 27.0861601,12.364235 26.9243348,12.364235 L26.9243348,12.364235 Z" id="Path" fill="#BF8E75" fill-rule="nonzero"></path>
                                <polygon id="Path" fill="#BFD5DE" fill-rule="nonzero" points="28.216588 21.8978325 30.8269343 21.8978325 30.8269343 22.6970407 28.216588 22.6970407"></polygon>
                                <path d="M25.8946561,3.30384592 C27.7086654,3.43356721 29.165093,4.89886906 29.257229,6.74341635 L29.2744556,7.08977468 L30.3179676,7.08977468 L30.8799191,10.8268948 L32.2410785,10.405627 L32.0583725,6.74341635 C31.9617994,4.80595002 30.359207,3.28740244 28.4199136,3.29442525 L25.8946561,3.30384592 Z" id="Path" fill="#2A2F4F" fill-rule="nonzero"></path>
                                <path d="M31.9430068,1.85864172 C33.3874279,3.30306295 33.3874279,5.64509246 31.9430068,7.08951362 C30.4985855,8.53393485 28.156556,8.53393485 26.7121349,7.08951362 L31.9430068,1.85864172 Z" id="Path" fill="#3D4159" fill-rule="nonzero"></path>
                                <path d="M26.7123959,7.08951362 L22.1726745,7.08951362 L21.6104621,10.8268948 L20.2493026,10.405627 L20.4320086,6.74341635 C20.5283207,4.80621108 22.1309132,3.28714138 24.0704675,3.29442342 L30.6267408,3.31924544 L31.4935501,4.87929347" id="Path" fill="#3D4159" fill-rule="nonzero"></path>
                                <path d="M26.595464,3.30384592 C24.7817157,3.43356721 23.3252882,4.89886906 23.2328912,6.74341635 L23.2156646,7.08977468 L22.1724135,7.08977468 L21.6102011,10.8268948 L20.2490417,10.405627 L20.4320086,6.74341635 C20.5283207,4.80595002 22.1309132,3.28740244 24.0702065,3.29442525 L26.595464,3.30384592 Z" id="Path" fill="#2A2F4F" fill-rule="nonzero"></path>
                                <path d="M13.4500305,22.2000804 L13.4500305,33.8191361 C8.05237413,32.6440757 3.60635482,28.9213111 1.43502486,23.9733723 L1.43502486,22.2000804 C1.43502486,20.1033989 2.85856541,18.3389813 4.79237758,17.8224454 C4.86311091,17.8028697 4.93410523,17.7853821 5.00692662,17.7699826 C5.19876791,17.7282212 5.3958293,17.6995103 5.59602285,17.6835888 C5.71817485,17.6736705 5.84189292,17.6681893 5.96691596,17.6681893 L8.91813941,17.6681893 C9.24831518,17.6681893 9.5693557,17.7029034 9.87943383,17.7699826 C9.8977044,17.7736368 9.91493099,17.7778129 9.93241858,17.781989 C9.98488128,17.7937344 10.0365609,17.8062628 10.0882407,17.8203573 C10.0903287,17.8211404 10.0903287,17.8211404 10.0924168,17.8216623 C10.6026885,17.9579088 11.0774629,18.1813321 11.4992527,18.4744446 C12.6784893,19.2927064 13.4500305,20.656215 13.4500305,22.2000804 Z" id="Path" fill="#3D4159" fill-rule="nonzero"></path>
                                <path d="M10.1033791,17.7702437 L10.0924168,17.8216623 L8.64669054,24.543676 C8.57204206,24.5502012 8.49687161,24.5559434 8.42170115,24.5611635 C8.31599271,24.5679498 8.20950124,24.574475 8.10248777,24.5791731 C7.88376259,24.5896135 7.66399344,24.5948337 7.44318019,24.5948337 C7.2163638,24.5948337 6.99137442,24.5896135 6.76742913,24.5786511 C6.66615782,24.573953 6.56488651,24.5682108 6.4636152,24.5606416 C6.3879227,24.5554214 6.31275224,24.5502012 6.23758178,24.543937 L4.79263857,17.8221843 L4.78167624,17.7702437 L10.1033791,17.7702437 Z" id="Path" fill="#66BAED" fill-rule="nonzero"></path>
                                <polyline id="Path" fill="#DDE8ED" fill-rule="nonzero" points="8.65921895 19.3034077 7.44265821 21.2547075 6.22609748 19.3034077"></polyline>
                                <path d="M8.42170115,24.5611635 C8.31599271,24.5679498 7.66399344,28.0158724 7.4429192,28.0158724 C7.21610281,28.0158724 6.56488651,24.5682108 6.4636152,24.5606416 L7.4429192,20.7467849 L8.42170115,24.5611635 Z" id="Path" fill="#DDE8ED" fill-rule="nonzero"></path>
                                <polyline id="Path" fill="#2BA1CF" fill-rule="nonzero" points="7.44213616 19.5234379 5.4020935 20.657259 4.78141525 17.7705047 6.04913366 17.0237593"></polyline>
                                <polyline id="Path" fill="#2BA1CF" fill-rule="nonzero" points="7.44213616 19.5234379 9.48243981 20.657259 10.1031181 17.7705047 8.83539972 17.0237593"></polyline>
                                <polygon id="Path" fill="#2A2F4F" fill-rule="nonzero" points="10.1803767 21.6657959 10.8274168 21.6657959 8.05080805 28.8521437 7.50425622 30.267332 6.89819439 28.7615738 7.45596966 26.8462932 10.0882407 17.8203573 10.1036402 17.7699826 11.4992527 18.2259645"></polygon>
                                <polygon id="Path" fill="#2A2F4F" fill-rule="nonzero" points="8.05080805 28.8521437 7.50425622 30.267332 6.89819439 28.7615738 4.04197811 21.6657959 4.68980124 21.6657959 3.37040311 18.2259645 4.76653778 17.7699826 4.78141525 17.8203573 7.45596966 26.8462932"></polygon>
                                <path d="M9.059345,15.9225643 L9.059345,17.9070121 C9.059345,18.6333989 8.58039434,19.247291 7.92056478,19.4511386 C7.76970188,19.4981201 7.60865964,19.5234379 7.44239715,19.5234379 C6.54948699,19.5234379 5.82571036,18.7999223 5.82571036,17.9067512 L5.82571036,15.9225643 L9.059345,15.9225643 Z" id="Path" fill="#EAB599" fill-rule="nonzero"></path>
                                <path d="M9.059345,17.781206 L9.059345,17.9070121 C9.059345,18.6333989 8.58039434,19.247291 7.92056478,19.4511386 C7.32546533,19.2681716 6.87783576,18.7505917 6.795096,18.117385 C6.90315357,18.1239102 7.01173311,18.1273033 7.12083465,18.1273033 C7.42673671,18.1273033 7.72663549,18.1030296 8.01870398,18.055004 C8.37863476,17.9973211 8.72655911,17.9046631 9.059345,17.781206 Z" id="Path" fill="#F6CAAE" fill-rule="nonzero"></path>
                                <path d="M3.00707924,12.670659 C3.00707924,13.4192315 2.46052742,14.0399098 1.74458101,14.1550145 C1.66627845,14.1678039 1.58562683,14.1743291 1.50367012,14.1743291 C0.672879953,14.1743291 0,13.5014492 0,12.670659 C0,11.8401299 0.672879953,11.1669889 1.50367012,11.1669889 C1.58562683,11.1669889 1.66627845,11.1737751 1.74458101,11.1863035 C2.46052742,11.3016693 3.00707924,11.9220865 3.00707924,12.670659 Z" id="Path" fill="#F6CAAE" fill-rule="nonzero"></path>
                                <path d="M3.00707924,12.670659 C3.00707924,13.4192315 2.46052742,14.0399098 1.74458101,14.1550145 C1.61433773,13.6820671 1.5449095,13.1843238 1.5449095,12.670659 C1.5449095,12.1569942 1.61433773,11.659251 1.74458101,11.1863035 C2.46052742,11.3016693 3.00707924,11.9220865 3.00707924,12.670659 Z" id="Path" fill="#EAB599" fill-rule="nonzero"></path>
                                <path d="M2.04108669,12.670659 C2.04108669,12.9674257 1.8004368,13.2080756 1.50367012,13.2080756 C1.20690344,13.2080756 0.966253606,12.9674257 0.966253606,12.670659 C0.966253606,12.3738923 1.20690344,12.1332425 1.50367012,12.1332425 C1.8004368,12.1332425 2.04108669,12.3738923 2.04108669,12.670659 Z" id="Path" fill="#EAB599" fill-rule="nonzero"></path>
                                <path d="M11.8777151,12.670659 C11.8777151,13.4192315 12.4245279,14.0399098 13.1404744,14.1550145 C13.2187769,14.1678039 13.2991675,14.1743291 13.3813852,14.1743291 C14.2119144,14.1743291 14.8847944,13.5014492 14.8847944,12.670659 C14.8847944,11.8401299 14.2119144,11.1669889 13.3813852,11.1669889 C13.2991675,11.1669889 13.2187769,11.1737751 13.1404744,11.1863035 C12.4245279,11.3016693 11.8777151,11.9220865 11.8777151,12.670659 Z" id="Path" fill="#F6CAAE" fill-rule="nonzero"></path>
                                <path d="M11.8777151,12.670659 C11.8777151,13.4192315 12.4245279,14.0399098 13.1404744,14.1550145 C13.2704566,13.6820671 13.3398849,13.1843238 13.3398849,12.670659 C13.3398849,12.1569942 13.2704566,11.659251 13.1404744,11.1863035 C12.4245279,11.3016693 11.8777151,11.9220865 11.8777151,12.670659 Z" id="Path" fill="#EAB599" fill-rule="nonzero"></path>
                                <path d="M13.036854,9.74136027 L13.036854,11.8717119 C13.036854,14.6556289 11.0030755,16.9650324 8.34026649,17.3936083 C8.33139223,17.3951744 8.32173494,17.3964795 8.31286061,17.3980455 C8.02966638,17.443461 7.73890284,17.4659077 7.44239715,17.4659077 C4.35283922,17.4659077 1.84820137,14.9612699 1.84820137,11.8717119 L1.84820137,9.74136027 C1.84820137,9.09066603 1.95912998,8.46555058 2.16428272,7.88480663 C2.92929873,5.7077345 5.00379452,4.14664251 7.44239715,4.14664251 L7.44265821,4.14664251 C7.73890284,4.14664251 8.03018843,4.16961126 8.31390465,4.21424367 C10.9897641,4.63264036 13.036854,6.94804703 13.036854,9.74136027 Z" id="Path" fill="#EAB599" fill-rule="nonzero"></path>
                                <path d="M13.9185408,12.670659 C13.9185408,12.9674257 13.6781519,13.2080756 13.3813852,13.2080756 C13.0843575,13.2080756 12.8439687,12.9674257 12.8439687,12.670659 C12.8439687,12.3738923 13.0843575,12.1332425 13.3813852,12.1332425 C13.6781519,12.1332425 13.9185408,12.3738923 13.9185408,12.670659 Z" id="Path" fill="#EAB599" fill-rule="nonzero"></path>
                                <path d="M13.036854,9.74136027 L13.036854,11.8717119 C13.036854,14.6556289 11.0030755,16.9650324 8.34026649,17.3936083 C8.33139223,17.3951744 8.32173494,17.3964795 8.31286061,17.3980455 C5.63700118,16.9799098 3.59043332,14.6645032 3.59043332,11.8717119 L3.59043332,9.74136027 C3.59043332,6.94804703 5.63752323,4.63264036 8.31390465,4.21424367 C10.9897641,4.63264036 13.036854,6.94804703 13.036854,9.74136027 Z" id="Path" fill="#F6CAAE" fill-rule="nonzero"></path>
                                <path d="M6.25115429,11.5459733 C6.25115429,11.8962467 5.96691596,12.180485 5.61638155,12.180485 C5.26610807,12.180485 4.9818698,11.8962467 4.9818698,11.5459733 C4.9818698,11.1954388 5.26610807,10.9112005 5.61638155,10.9112005 C5.96691596,10.9112005 6.25115429,11.1954388 6.25115429,11.5459733 Z" id="Path" fill="#3D4159" fill-rule="nonzero"></path>
                                <path d="M9.90318563,11.5459733 C9.90318563,11.8962467 9.61920835,12.180485 9.26867388,12.180485 C8.91813941,12.180485 8.63390114,11.8962467 8.63390114,11.5459733 C8.63390114,11.1954388 8.91813941,10.9112005 9.26867388,10.9112005 C9.61920835,10.9112005 9.90318563,11.1954388 9.90318563,11.5459733 Z" id="Path" fill="#3D4159" fill-rule="nonzero"></path>
                                <path d="M6.12169406,11.4340006 C6.12169406,11.5840806 6.00006406,11.7057105 5.84972314,11.7057105 C5.69964322,11.7057105 5.57775222,11.5840806 5.57775222,11.4340006 C5.57775222,11.2836597 5.69964322,11.1620297 5.84972314,11.1620297 C6.00006406,11.1620297 6.12169406,11.2836597 6.12169406,11.4340006 Z" id="Path" fill="#FFFFFF" fill-rule="nonzero"></path>
                                <path d="M9.80504642,11.4340006 C9.80504642,11.5840806 9.68315542,11.7057105 9.5330755,11.7057105 C9.38299558,11.7057105 9.26110458,11.5840806 9.26110458,11.4340006 C9.26110458,11.2836597 9.38299558,11.1620297 9.5330755,11.1620297 C9.68315542,11.1620297 9.80504642,11.2836597 9.80504642,11.4340006 Z" id="Path" fill="#FFFFFF" fill-rule="nonzero"></path>
                                <path d="M8.07716989,12.8948653 L6.80788547,12.8948653 C6.65676151,12.8948653 6.53408747,12.7724524 6.53408747,12.6210674 C6.53408747,12.4699435 6.65676151,12.3472694 6.80788547,12.3472694 L8.07716989,12.3472694 C8.22829385,12.3472694 8.35096789,12.4699435 8.35096789,12.6210674 C8.35096789,12.7721914 8.22829385,12.8948653 8.07716989,12.8948653 Z" id="Path" fill="#EAB599" fill-rule="nonzero"></path>
                                <path d="M7.44239715,14.6269179 C6.97414789,14.6269179 6.50563756,14.5094641 6.07862761,14.2748175 C5.95830269,14.2085213 5.91419227,14.0571363 5.9804884,13.9368114 C6.0467846,13.8162255 6.19790849,13.7723761 6.31849446,13.8386722 C7.02243445,14.2254869 7.86288191,14.2254869 8.56682196,13.8386722 C8.68714688,13.7723761 8.83853182,13.8162255 8.90456696,13.9368114 C8.9708631,14.0571363 8.92701366,14.2085213 8.80642776,14.2748175 C8.3794178,14.5094641 7.91090748,14.6269179 7.44239715,14.6269179 Z" id="Path" fill="#EAB599" fill-rule="nonzero"></path>
                                <path d="M13.036854,7.80807015 L13.036854,9.99036244 L11.995691,9.99036244 L11.995691,8.2812786 L4.47968939,6.88462194 L2.88936445,6.5888993 L2.88936445,9.99036244 L1.84820137,9.99036244 L1.84820137,7.80807015 C1.84820137,5.32039785 3.86449231,3.30410698 6.35164256,3.30410698 L8.53315181,3.30410698 C8.59240076,3.30410698 8.65164972,3.30489002 8.71089867,3.30802206 C11.1155702,3.40041911 13.036854,5.3796468 13.036854,7.80807015 Z" id="Path" fill="#E8C934" fill-rule="nonzero"></path>
                                <path d="M13.036854,7.80807015 L13.036854,9.99036244 L11.995691,9.99036244 L11.995691,8.2812786 L4.47968939,6.88462194 C4.89390995,4.89573696 6.61943728,3.38867374 8.71089867,3.30802206 C11.1155702,3.40041911 13.036854,5.3796468 13.036854,7.80807015 Z" id="Path" fill="#FFE152" fill-rule="nonzero"></path>
                                <path d="M24.3659292,31.4160305 L24.3659292,32.5978772 C22.1624952,33.632515 19.7014457,34.2106489 17.1054549,34.2106489 C15.8510479,34.2106489 14.627701,34.0759685 13.4500305,33.8191361 C12.976561,33.7157767 12.5109218,33.5936247 12.0528518,33.4518971 C11.2087503,33.1914106 10.3917936,32.8667159 9.60928999,32.4848605 L9.60928999,31.4160305 C9.60928999,28.8411814 11.3575251,26.6745496 13.7327028,26.0392549 C13.8193575,26.0162861 13.9065344,25.9946224 13.9952773,25.9758298 C14.231229,25.9246721 14.4734449,25.8891749 14.719837,25.8688163 C14.8699169,25.8562879 15.0215628,25.8508067 15.1750359,25.8508067 L18.7994003,25.8508067 C19.2042245,25.8508067 19.5993914,25.8933511 19.9799418,25.9758298 C20.0016056,25.9800059 20.0240523,25.9847041 20.044933,25.9896633 C20.1091411,26.0042797 20.1733491,26.0204622 20.2362523,26.0379498 C20.2383403,26.0379498 20.2396453,26.0379498 20.2409504,26.0384718 C20.8681539,26.2060393 21.4509859,26.4806203 21.9690878,26.8408121 C23.4176852,27.8454339 24.3659292,29.5203256 24.3659292,31.4160305 L24.3659292,31.4160305 Z" id="Path" fill="#E8C934" fill-rule="nonzero"></path>
                                <path d="M24.3659292,31.4160305 L24.3659292,32.5978772 C22.1624952,33.632515 19.7014457,34.2106489 17.1054549,34.2106489 C15.8510479,34.2106489 14.627701,34.0759685 13.4500305,33.8191361 C12.976561,33.7157767 12.5109218,33.5936247 12.0528518,33.4518971 L12.0528518,31.4160305 C12.0528518,28.8411814 13.801087,26.6745496 16.1762646,26.0392549 C16.2629194,26.0162861 16.3500962,25.9946224 16.4388392,25.9758298 C16.6747909,25.9246721 16.9170068,25.8891749 17.1633989,25.8688163 C17.3137398,25.8562879 17.4651247,25.8508067 17.6185977,25.8508067 L18.7994003,25.8508067 C19.2042245,25.8508067 19.5993914,25.8933511 19.9799418,25.9758298 C20.0016056,25.9800059 20.0240523,25.9847041 20.044933,25.9896633 C20.1091411,26.0042797 20.1733491,26.0204622 20.2362523,26.0379498 C20.2383403,26.0379498 20.2396453,26.0379498 20.2409504,26.0384718 C20.8681539,26.2060393 21.4509859,26.4806203 21.9690878,26.8408121 C23.4176852,27.8454339 24.3659292,29.5203256 24.3659292,31.4160305 L24.3659292,31.4160305 Z" id="Path" fill="#FFE152" fill-rule="nonzero"></path>
                                <path d="M20.2550449,25.9758298 L20.2409504,26.0384718 L18.4963694,34.154793 C18.0375164,34.1918563 17.5739653,34.2106489 17.1054549,34.2106489 C16.5555099,34.2106489 16.0100022,34.184809 15.4725856,34.1331294 L13.7327028,26.0392549 L13.7186083,25.9758298 L20.2550449,25.9758298 Z" id="Path" fill="#F2F0EC" fill-rule="nonzero"></path>
                                <polyline id="Path" fill="#D8D5D0" fill-rule="nonzero" points="16.986696 28.1288891 14.4812752 29.5213696 13.7188693 25.9758298 15.2757852 25.0589068"></polyline>
                                <polyline id="Path" fill="#D8D5D0" fill-rule="nonzero" points="16.986696 28.1288891 19.4923779 29.5213696 20.2545228 25.9758298 18.697868 25.0589068"></polyline>
                                <path d="M9.50593061,24.5087008 L9.50593061,16.1151886 C9.50593061,15.2622127 9.64818024,14.4267244 9.92876443,13.6316924 C10.9793237,10.6423618 13.8159644,8.63311809 16.9872181,8.63311809 C17.3800359,8.63311809 17.7720707,8.66365607 18.1528821,8.72394906 C19.8953751,8.99618097 21.4937913,9.88543698 22.6529302,11.2280649 C23.8243365,12.5850482 24.4692885,14.320755 24.4692885,16.1151886 L24.4692885,24.5087008" id="Path" fill="#F74F4F" fill-rule="nonzero"></path>
                                <path d="M12.5834822,16.4430153 C12.5834822,19.4119873 14.321799,22.8465985 15.2765682,24.5087008 L9.50566962,24.5087008 L9.50566962,16.1151886 C9.50566962,15.2624737 9.64791925,14.4269854 9.92850344,13.6316924 C10.9725376,10.6595883 13.7833384,8.65634784 16.9326673,8.63390114 C14.6323991,8.69132301 12.5834822,12.3814616 12.5834822,16.4430153 Z" id="Path" fill="#DD3033" fill-rule="nonzero"></path>
                                <path d="M18.973232,23.7066216 L18.973232,26.1433973 C18.973232,27.0355244 18.3849188,27.7895781 17.5747483,28.0401463 C17.3891712,28.0975681 17.1915877,28.1288891 16.9872181,28.1288891 C15.8907212,28.1288891 15.0017262,27.2398941 15.0017262,26.1433973 L15.0017262,23.7066216 L18.973232,23.7066216 Z" id="Path" fill="#EAB599" fill-rule="nonzero"></path>
                                <path d="M18.973232,25.9891412 L18.973232,26.1433973 C18.973232,27.0355244 18.3849188,27.7895781 17.5747483,28.0401463 C16.8436634,27.8154179 16.2939794,27.1798622 16.1924471,26.4020567 C16.3250394,26.410148 16.4584148,26.4140631 16.5925732,26.4140631 C16.9681644,26.4140631 17.3364475,26.3843082 17.6953342,26.3255812 C18.1372216,26.2543259 18.5644926,26.1407872 18.973232,25.9891412 L18.973232,25.9891412 Z" id="Path" fill="#F6CAAE" fill-rule="nonzero"></path>
                                <path d="M11.5404921,19.7126691 C11.5404921,20.6319412 10.8689171,21.3943471 9.98984039,21.5358137 C9.89352826,21.5512132 9.79486707,21.5593045 9.69385675,21.5593045 C8.67383542,21.5593045 7.8472214,20.7329514 7.8472214,19.7126691 C7.8472214,18.6926478 8.67383542,17.8662948 9.69385675,17.8662948 C9.79486707,17.8662948 9.89352826,17.874386 9.98984039,17.8897855 C10.8689171,18.0312522 11.5404921,18.7933971 11.5404921,19.7126691 L11.5404921,19.7126691 Z" id="Path" fill="#F6CAAE" fill-rule="nonzero"></path>
                                <path d="M11.5404921,19.7126691 C11.5404921,20.6319412 10.8689171,21.3943471 9.98984039,21.5358137 C9.83010324,20.9548087 9.74475343,20.3437878 9.74475343,19.7126691 C9.74475343,19.0818115 9.83010324,18.4707906 9.98984039,17.8897855 C10.8689171,18.0312522 11.5404921,18.7933971 11.5404921,19.7126691 Z" id="Path" fill="#EAB599" fill-rule="nonzero"></path>
                                <path d="M10.3539473,19.7126691 C10.3539473,20.077298 10.0584857,20.3727597 9.69385675,20.3727597 C9.32948885,20.3727597 9.03402719,20.077298 9.03402719,19.7126691 C9.03402719,19.3483012 9.32948885,19.0528395 9.69385675,19.0528395 C10.0584857,19.0528395 10.3539473,19.3483012 10.3539473,19.7126691 Z" id="Path" fill="#EAB599" fill-rule="nonzero"></path>
                                <path d="M21.72896,17.3549791 L21.72896,23.7024455 C20.747829,24.6389441 19.4897679,25.2875503 18.0899791,25.5130617 C18.0790167,25.5148887 18.0672713,25.5167157 18.056309,25.5185428 C17.7086457,25.5741377 17.351586,25.6018046 16.9872181,25.6018046 C13.1929371,25.6018046 10.1169516,22.5258191 10.1169516,18.7315381 L10.1169516,16.1151886 C10.1169516,15.7803147 10.1409643,15.4506609 10.1874239,15.1285763 C11.8218593,16.3041587 14.1657159,16.1880099 15.6589456,14.7764758 C16.1535568,14.3095316 16.497044,13.7533224 16.6914954,13.1634431 C16.7995529,14.1965149 17.2722394,15.2019198 18.1095548,15.9935586 C19.1066073,16.9350164 20.4239173,17.3891712 21.72896,17.3549791 L21.72896,17.3549791 Z" id="Path" fill="#EAB599" fill-rule="nonzero"></path>
                                <path d="M21.72896,17.3549791 L21.72896,23.7024455 C20.747829,24.6389441 19.4897679,25.2875503 18.0899791,25.5130617 C18.0790167,25.5148887 18.0672713,25.5167157 18.056309,25.5185428 C14.7702116,25.005139 12.2566995,22.1614512 12.2566995,18.7315381 L12.2566995,16.1151886 C12.2566995,16.0454993 12.2577435,15.9765931 12.2603536,15.9074258 C13.4719552,16.0314048 14.7297553,15.6550306 15.6589456,14.7764758 C16.1535568,14.3095316 16.497044,13.7533224 16.6914954,13.1634431 C16.7998139,14.1965149 17.2722394,15.2019198 18.1095548,15.9935586 C19.1066073,16.9350164 20.4239173,17.3891712 21.72896,17.3549791 L21.72896,17.3549791 Z" id="Path" fill="#F6CAAE" fill-rule="nonzero"></path>
                                <path d="M20.6770956,18.1513161 C20.6770956,17.5209805 20.166302,17.0101868 19.5362273,17.0101868 C18.9058917,17.0101868 18.3950981,17.5209805 18.3950981,18.1513161" id="Path" fill="#EAB599" fill-rule="nonzero"></path>
                                <path d="M15.5806431,18.1513161 C15.5806431,17.5209805 15.0698494,17.0101868 14.4395138,17.0101868 C13.8094392,17.0101868 13.2986456,17.5209805 13.2986456,18.1513161" id="Path" fill="#EAB599" fill-rule="nonzero"></path>
                                <path d="M15.2188853,18.637053 C15.2188853,19.067456 14.8699169,19.4164245 14.4395138,19.4164245 C14.0091107,19.4164245 13.6601424,19.067456 13.6601424,18.637053 C13.6601424,18.2066499 14.0091107,17.8576815 14.4395138,17.8576815 C14.8699169,17.8576815 15.2188853,18.2066499 15.2188853,18.637053 Z" id="Path" fill="#3D4159" fill-rule="nonzero"></path>
                                <path d="M20.3155988,18.637053 C20.3155988,19.067456 19.9666304,19.4164245 19.5362273,19.4164245 C19.1055633,19.4164245 18.7568559,19.067456 18.7568559,18.637053 C18.7568559,18.2066499 19.1055633,17.8576815 19.5362273,17.8576815 C19.9666304,17.8576815 20.3155988,18.2066499 20.3155988,18.637053 Z" id="Path" fill="#3D4159" fill-rule="nonzero"></path>
                                <path d="M17.7671116,20.5993151 L16.2083686,20.5993151 C16.0227916,20.5993151 15.8721897,20.4489742 15.8721897,20.2631361 C15.8721897,20.0775591 16.0227916,19.9269571 16.2083686,19.9269571 L17.7671116,19.9269571 C17.9529496,19.9269571 18.1032906,20.0775591 18.1032906,20.2631361 C18.1032906,20.4489742 17.9529496,20.5993151 17.7671116,20.5993151 Z" id="Path" fill="#EAB599" fill-rule="nonzero"></path>
                                <path d="M16.9877401,22.7265346 C16.4124773,22.7265346 15.8372145,22.5821969 15.3128484,22.2940435 C15.1648565,22.2126088 15.1108278,22.0270318 15.1922625,21.8790399 C15.2734361,21.731048 15.4592741,21.6770193 15.607266,21.758454 C16.4717262,22.2337505 17.504015,22.2337505 18.3684752,21.758454 C18.516206,21.6770193 18.7020441,21.731048 18.7834787,21.8790399 C18.8649134,22.0270318 18.8108847,22.2126088 18.6628928,22.2940435 C18.1385267,22.5824579 17.5632639,22.7265346 16.9877401,22.7265346 L16.9877401,22.7265346 Z" id="Path" fill="#EAB599" fill-rule="nonzero"></path>
                                <path d="M15.0599311,18.4995015 C15.0599311,18.6840345 14.9106342,18.8333314 14.7261012,18.8333314 C14.5415681,18.8333314 14.3922713,18.6840345 14.3922713,18.4995015 C14.3922713,18.3149684 14.5415681,18.1656716 14.7261012,18.1656716 C14.9106342,18.1656716 15.0599311,18.3149684 15.0599311,18.4995015 Z" id="Path" fill="#FFFFFF" fill-rule="nonzero"></path>
                                <path d="M20.1947519,18.4995015 C20.1947519,18.6840345 20.045455,18.8333314 19.860922,18.8333314 C19.6763889,18.8333314 19.5270921,18.6840345 19.5270921,18.4995015 C19.5270921,18.3149684 19.6763889,18.1656716 19.860922,18.1656716 C20.045455,18.1656716 20.1947519,18.3149684 20.1947519,18.4995015 Z" id="Path" fill="#FFFFFF" fill-rule="nonzero"></path>
                                <path d="M21.6639689,20.535368 C21.6639689,21.0080545 21.2808084,21.391215 20.8081219,21.391215 C20.3354355,21.391215 19.952275,21.0080545 19.952275,20.535368 C19.952275,20.0626815 20.3354355,19.6795211 20.8081219,19.6795211 C21.2808084,19.6795211 21.6639689,20.0626815 21.6639689,20.535368 L21.6639689,20.535368 Z" id="Path" fill="#EAB599" fill-rule="nonzero"></path>
                                <path d="M14.0229442,20.535368 C14.0229442,21.0080545 13.6397837,21.391215 13.1670973,21.391215 C12.6944108,21.391215 12.3112503,21.0080545 12.3112503,20.535368 C12.3112503,20.0626815 12.6944108,19.6795211 13.1670973,19.6795211 C13.6397837,19.6795211 14.0229442,20.0626815 14.0229442,20.535368 L14.0229442,20.535368 Z" id="Path" fill="#EAB599" fill-rule="nonzero"></path>
                            </g>
                        </g>
                    </g>
                </g>
            </g>
        </g>
    </g>
</svg>