<?xml version="1.0" encoding="UTF-8"?>
<svg width="36px" height="46px" viewBox="0 0 36 46" version="1.1" xmlns="http://www.w3.org/2000/svg" xmlns:xlink="http://www.w3.org/1999/xlink">
    <!-- Generator: Sketch 62 (91390) - https://sketch.com -->
    <title>MALE</title>
    <desc>Created with Sketch.</desc>
    <g id="Page-1" stroke="none" stroke-width="1" fill="none" fill-rule="evenodd">
        <g id="10.MAIN-UI---RESERVATIONS" transform="translate(-356.000000, -765.000000)">
            <g id="RESERVATIONS" transform="translate(293.000000, 582.000000)">
                <g id="TAB-1" transform="translate(23.000000, 165.000000)">
                    <g id="GUEST" transform="translate(43.000000, 21.000000)">
                        <g id="MALE">
                            <g id="Path">
                                <path d="M8.86363636,25.8 C8.86363636,25.8 10.0454545,27.6 13,27.6 C15.9545455,27.6 17.1363636,25.8 17.1363636,25.8 L21.2727273,25.8 C23.8845455,25.8 26,27.948 26,30.6 L26,34.8 C26,35.13 25.7340909,35.4 25.4090909,35.4 L0.590909091,35.4 C0.265909091,35.4 0,35.13 0,34.8 L0,30.6 C0,27.948 2.11545455,25.8 4.72727273,25.8 L8.86363636,25.8 Z" fill="#4FC1E9" fill-rule="nonzero"></path>
                                <path d="M21.2727273,25.8 L18.9090909,25.8 C21.5209091,25.8 23.6363636,27.948 23.6363636,30.6 L23.6363636,34.8 C23.6363636,35.13 23.3704545,35.4 23.0454545,35.4 L25.4090909,35.4 C25.7340909,35.4 26,35.13 26,34.8 L26,30.6 C26,27.948 23.8845455,25.8 21.2727273,25.8 Z" fill="#3BAFDA" fill-rule="nonzero"></path>
                                <path d="M17.1363636,22.362 L17.1363636,25.8 C17.1363636,25.8 15.9545455,27.6 13,27.6 C10.0454545,27.6 8.86363636,25.8 8.86363636,25.8 L8.86363636,22.362 C10.0986364,23.022 11.505,23.4 13,23.4 C14.495,23.4 15.9013636,23.022 17.1363636,22.362 Z" fill="#EAC6BB" fill-rule="nonzero"></path>
                                <path d="M21.8636364,12.276 L21.8636364,14.4 C21.8636364,17.85 19.9490909,20.85 17.1363636,22.362 C15.9013636,23.022 14.495,23.4 13,23.4 C11.505,23.4 10.0986364,23.022 8.86363636,22.362 C6.05090909,20.85 4.13636364,17.85 4.13636364,14.4 L4.13636364,10.8 L7.68181818,8.4 L21.8636364,12.276 Z" fill="#EAC6BB" fill-rule="nonzero"></path>
                                <path d="M19.5,11.6298 L19.5,14.4 C19.5,17.85 17.5854545,20.85 14.7727273,22.362 C13.8692273,22.8456 12.8729545,23.175 11.8181818,23.3184 C12.2046364,23.3706 12.5987727,23.4 13,23.4 C14.495,23.4 15.9013636,23.022 17.1363636,22.362 C19.9490909,20.85 21.8636364,17.85 21.8636364,14.4 L21.8636364,12.276 L19.5,11.6298 Z" fill="#D3B1A9" fill-rule="nonzero"></path>
                                <path d="M23.0454545,9.6 L23.0454545,12.6 L21.8636364,12.276 L7.68181818,8.4 L4.13636364,10.8 L4.13636364,10.2 C4.13636364,3.6 5.90909091,0.6 5.90909091,0.6 L8.86363636,1.284 C10.2522727,0.4674 11.8713636,0 13.5909091,0 C18.8145455,0 23.0454545,4.296 23.0454545,9.6 Z" fill="#656D78" fill-rule="nonzero"></path>
                                <path d="M13.5909091,0 C13.1831818,0 12.7813636,0.0282 12.3860455,0.0792 C17.0613182,0.6606 20.6818182,4.695 20.6818182,9.6 L20.6818182,11.9532 L21.8636364,12.276 L23.0454545,12.6 L23.0454545,9.6 C23.0454545,4.296 18.8145455,0 13.5909091,0 Z" fill="#434A54" fill-rule="nonzero"></path>
                            </g>
                        </g>
                    </g>
                </g>
            </g>
        </g>
    </g>
</svg>