<?xml version="1.0" encoding="UTF-8"?>
<svg width="24px" height="42px" viewBox="0 0 24 42" version="1.1" xmlns="http://www.w3.org/2000/svg" xmlns:xlink="http://www.w3.org/1999/xlink">
    <!-- Generator: Sketch 62 (91390) - https://sketch.com -->
    <title>ICONE</title>
    <desc>Created with Sketch.</desc>
    <g id="Page-1" stroke="none" stroke-width="1" fill="none" fill-rule="evenodd">
        <g id="10.MAIN-UI---RESERVATIONS" transform="translate(-551.000000, -766.000000)">
            <g id="RESERVATIONS" transform="translate(293.000000, 582.000000)">
                <g id="TAB-1" transform="translate(23.000000, 165.000000)">
                    <g id="PHONE" transform="translate(234.000000, 16.000000)">
                        <g id="ICONE">
                            <g transform="translate(14.464063, 23.184420) rotate(12.000000) translate(-14.464063, -23.184420) translate(5.338189, 2.596815)">
                                <path d="M15.9471015,9.92875094 L11.8960648,9.92875094 L12.6055103,0.753566738 C12.6363557,0.336050032 12.9859376,0.0203666686 13.4074922,0.0203666686 L14.4459559,0.0203666686 C14.8675105,0.0203666686 15.2170924,0.346233366 15.2479378,0.753566738 L15.9471015,9.92875094 Z" id="Path" fill="#324A5E" fill-rule="nonzero"></path>
                                <path d="M11.5259193,6.47660061 L6.25134605,6.47660061 C4.85301864,6.47660061 3.50610033,7.01631733 2.52932751,8.01428409 C0.966491001,9.59270091 0.0102818192,11.7617511 0.0102818192,14.1446513 L0.0102818192,37.7903536 C0.0102818192,39.6335371 1.52170924,41.1304872 3.3827185,41.1304872 L14.3945468,41.1304872 C16.2555561,41.1304872 17.7669835,39.6335371 17.7669835,37.7903536 L17.7669835,14.1446513 C17.7669835,11.7617511 16.8107743,9.59270091 15.2479378,8.01428409 C14.271165,7.02650067 12.9242467,6.47660061 11.5259193,6.47660061 Z" id="Path" fill="#84DBFF" fill-rule="nonzero"></path>
                                <path d="M12.7083285,22.2811354 C13.6028467,22.2811354 14.4151105,21.5886687 14.7132832,20.5397853 C15.1554014,19.0122851 15.4021651,17.2811183 15.4021651,15.4481181 C15.4021651,13.8798846 15.2170924,12.3829345 14.8880741,11.0183677 C14.6207468,9.89820094 13.7879195,9.1446342 12.8419921,9.1446342 L4.91470956,9.1446342 C3.97906401,9.1446342 3.14623666,9.90838427 2.86862754,11.0183677 C2.53960933,12.3829345 2.35453659,13.8798846 2.35453659,15.4481181 C2.35453659,17.2811183 2.60130025,19.0122851 3.04341847,20.5397853 C3.35187304,21.5886687 4.15385494,22.2811354 5.04837321,22.2811354 L12.7083285,22.2811354 Z" id="Path" fill="#54C0EB" fill-rule="nonzero"></path>
                                <path d="M13.2738285,25.4481524 C14.3020104,25.4481524 15.2273742,24.765869 15.576956,23.7373522 C16.0807652,22.2302188 16.3686561,20.5397853 16.3686561,18.7373351 C16.3686561,17.1996516 16.1527379,15.7230682 15.7723106,14.3890514 C15.463856,13.2994346 14.5076468,12.5458679 13.4280558,12.5458679 L4.33892768,12.5458679 C3.25933667,12.5458679 2.31340931,13.2892513 1.99467292,14.3890514 C1.61424561,15.7230682 1.39832741,17.1894683 1.39832741,18.7373351 C1.39832741,20.5397853 1.68621834,22.2302188 2.19002748,23.7373522 C2.53960933,24.765869 3.46497306,25.4481524 4.49315497,25.4481524 L13.2738285,25.4481524 Z" id="Path" fill="#324A5E" fill-rule="nonzero"></path>
                                <rect id="Rectangle" fill="#FFFFFF" fill-rule="nonzero" x="3.52666397" y="14.8371181" width="10.7136556" height="8.31978412"></rect>
                                <g id="Group" transform="translate(2.364818, 27.698669)" fill="#324A5E" fill-rule="nonzero">
                                    <ellipse id="Oval" cx="1.67593652" cy="1.21181678" rx="1.67593652" ry="1.16090011"></ellipse>
                                    <ellipse id="Oval" cx="6.51867334" cy="1.21181678" rx="1.67593652" ry="1.16090011"></ellipse>
                                    <ellipse id="Oval" cx="11.3614102" cy="1.21181678" rx="1.67593652" ry="1.16090011"></ellipse>
                                </g>
                                <g id="Group" transform="translate(2.364818, 31.466503)" fill="#324A5E" fill-rule="nonzero">
                                    <ellipse id="Oval" cx="1.67593652" cy="1.25255012" rx="1.67593652" ry="1.16090011"></ellipse>
                                    <ellipse id="Oval" cx="6.51867334" cy="1.25255012" rx="1.67593652" ry="1.16090011"></ellipse>
                                    <ellipse id="Oval" cx="11.3614102" cy="1.25255012" rx="1.67593652" ry="1.16090011"></ellipse>
                                </g>
                                <g id="Group" transform="translate(2.364818, 35.336170)" fill="#324A5E" fill-rule="nonzero">
                                    <ellipse id="Oval" cx="1.67593652" cy="1.20163345" rx="1.67593652" ry="1.16090011"></ellipse>
                                    <ellipse id="Oval" cx="6.51867334" cy="1.20163345" rx="1.67593652" ry="1.16090011"></ellipse>
                                    <ellipse id="Oval" cx="11.3614102" cy="1.20163345" rx="1.67593652" ry="1.16090011"></ellipse>
                                </g>
                                <g id="Group" transform="translate(5.655001, 10.285168)" fill="#2B3B4E" fill-rule="nonzero">
                                    <ellipse id="Oval" cx="5.88120056" cy="0.570266721" rx="1" ry="1"></ellipse>
                                    <ellipse id="Oval" cx="3.22849122" cy="0.570266721" rx="1" ry="1"></ellipse>
                                    <ellipse id="Oval" cx="0.586063692" cy="0.570266721" rx="1" ry="1"></ellipse>
                                </g>
                            </g>
                        </g>
                    </g>
                </g>
            </g>
        </g>
    </g>
</svg>