<?xml version="1.0" encoding="UTF-8"?>
<svg width="40px" height="40px" viewBox="0 -4 35 45" version="1.1" xmlns="http://www.w3.org/2000/svg" xmlns:xlink="http://www.w3.org/1999/xlink">
    <!-- Generator: Sketch 62 (91390) - https://sketch.com -->
    <title>RESHEDULDE</title>
    <desc>Created with Sketch.</desc>
    <g id="Page-1" stroke="none" stroke-width="1" fill="none" fill-rule="evenodd">
        <g id="10.MAIN-UI---RESERVATIONS" transform="translate(-1033.000000, -769.000000)">
            <g id="RESERVATIONS" transform="translate(293.000000, 582.000000)">
                <g id="TAB-1" transform="translate(23.000000, 165.000000)">
                    <g id="RESHEDULDE" transform="translate(717.000000, 19.000000)">
                        <g transform="translate(0.000000, 3.000000)" id="Future">
                            <g>
                                <path d="M10.5560997,32.8976991 C12.5729997,33.7337991 14.7815996,34.1999991 17.0999995,34.1999991 L17.0999995,17.0999995 L10.5560997,32.8976991 L10.5560997,32.8976991 Z" id="Shape" fill="#8BC34A"></path>
                                <path d="M23.6438994,1.30229997 C21.6269994,0.466199988 19.4183995,0 17.0999995,0 L17.0999995,17.0999995 L23.6438994,1.30229997 L23.6438994,1.30229997 Z" id="Shape" fill="#33691E"></path>
                                <path d="M1.30229997,10.5560997 C0.466199988,12.5729997 0,14.7815996 0,17.0999995 L17.0999995,17.0999995 L1.30229997,10.5560997 L1.30229997,10.5560997 Z" id="Shape" fill="#33691E"></path>
                                <path d="M32.8976991,23.6438994 C33.7337991,21.6269994 34.1999991,19.4183995 34.1999991,17.0999995 L17.0999995,17.0999995 L32.8976991,23.6438994 L32.8976991,23.6438994 Z" id="Shape" fill="#DCEDC8"></path>
                                <path d="M1.30229997,23.6438994 C2.16899994,25.7336993 3.43349991,27.6164993 5.00849987,29.1914992 L17.0999995,17.0999995 L1.30229997,23.6438994 L1.30229997,23.6438994 Z" id="Shape" fill="#689F38"></path>
                                <path d="M5.00849987,5.00849987 L17.0999995,17.0999995 L10.5560997,1.30229997 C8.46629978,2.16899994 6.58349983,3.43349991 5.00849987,5.00849987 L5.00849987,5.00849987 Z" id="Shape" fill="#33691E"></path>
                                <path d="M17.0999995,17.0999995 L23.6438994,32.8976991 C25.7336993,32.0309992 27.6164993,30.7664992 29.1914992,29.1914992 L17.0999995,17.0999995 L17.0999995,17.0999995 Z" id="Shape" fill="#AED581"></path>
                                <path d="M10.5560997,32.8976991 L17.0999995,17.0999995 L5.00849987,29.1914992 C6.58349983,30.7664992 8.46629978,32.0309992 10.5560997,32.8976991 L10.5560997,32.8976991 Z" id="Shape" fill="#7CB342"></path>
                                <path d="M17.0999995,17.0999995 L29.1914992,5.00849987 C27.6164993,3.43349991 25.7336993,2.16899994 23.6438994,1.30229997 L17.0999995,17.0999995 L17.0999995,17.0999995 Z" id="Shape" fill="#33691E"></path>
                                <path d="M1.30229997,10.5560997 L17.0999995,17.0999995 L5.00849987,5.00849987 C3.43349991,6.58349983 2.16899994,8.46629978 1.30229997,10.5560997 L1.30229997,10.5560997 Z" id="Shape" fill="#33691E"></path>
                                <path d="M17.0999995,17.0999995 L29.1914992,29.1914992 C30.7664992,27.6164993 32.0309992,25.7336993 32.8976991,23.6438994 L17.0999995,17.0999995 L17.0999995,17.0999995 Z" id="Shape" fill="#C5E1A5"></path>
                                <path d="M0,17.0999995 L0,17.0999995 C0,19.4183995 0.466199988,21.6269994 1.30229997,23.6438994 L17.0999995,17.0999995 L0,17.0999995 L0,17.0999995 Z" id="Shape" fill="#558B2F"></path>
                                <path d="M17.0999995,17.0999995 L17.0999995,0 C14.7815996,0 12.5729997,0.466199988 10.5560997,1.30229997 L17.0999995,17.0999995 L17.0999995,17.0999995 Z" id="Shape" fill="#33691E"></path>
                                <path d="M17.0999995,17.0999995 L17.0999995,34.1999991 C19.4183995,34.1999991 21.6269994,33.7337991 23.6438994,32.8976991 L17.0999995,17.0999995 L17.0999995,17.0999995 Z" id="Shape" fill="#9CCC65"></path>
                                <path d="M17.0999995,17.0999995 L34.1999991,17.0999995 C34.1999991,14.7815996 33.7337991,12.5729997 32.8976991,10.5560997 L17.0999995,17.0999995 L17.0999995,17.0999995 Z" id="Shape" fill="#F1F8E9"></path>
                                <path d="M32.8976991,10.5560997 C32.0309992,8.46629978 30.7664992,6.58349983 29.1914992,5.00849987 L17.0999995,17.0999995 L32.8976991,10.5560997 L32.8976991,10.5560997 Z" id="Shape" fill="#33691E"></path>
                                <circle id="Oval" fill="#FFFFFF" cx="17.0999995" cy="17.0999995" r="13.4999996"></circle>
                                <polygon id="Shape" fill="#33691E" points="24.2999994 12.5999997 33.2999991 12.5999997 33.2999991 3.5999999"></polygon>
                                <path d="M17.9999995,17.0999995 L16.1999996,17.0999995 L16.1999996,8.92529976 C16.1999996,8.42849978 16.6031996,8.02529979 17.0999995,8.02529979 L17.0999995,8.02529979 C17.5967995,8.02529979 17.9999995,8.42849978 17.9999995,8.92529976 L17.9999995,17.0999995 L17.9999995,17.0999995 Z" id="Shape" fill="#37474F"></path>
                                <path d="M16.4636996,16.4636996 L17.7362995,17.7362995 L13.2362996,22.2362994 C12.8843997,22.5881994 12.3146997,22.5881994 11.9636997,22.2362994 L11.9636997,22.2362994 C11.6117997,21.8843994 11.6117997,21.3146994 11.9636997,20.9636994 L16.4636996,16.4636996 L16.4636996,16.4636996 Z" id="Shape" fill="#37474F"></path>
                                <circle id="Oval" fill="#37474F" cx="17.0999995" cy="17.0999995" r="1.79999995"></circle>
                                <circle id="Oval" fill="#689F38" cx="17.0999995" cy="17.0999995" r="1"></circle>
                                <circle id="Oval" fill="#37474F" cx="17.0999995" cy="6.29999983" r="1"></circle>
                                <circle id="Oval" fill="#37474F" cx="17.0999995" cy="27.8999993" r="1"></circle>
                                <circle id="Oval" fill="#37474F" cx="6.29999983" cy="17.0999995" r="1"></circle>
                                <circle id="Oval" fill="#37474F" cx="27.8999993" cy="17.0999995" r="1"></circle>
                                <circle id="Oval" fill="#35495D" transform="translate(7.746865, 22.499189) rotate(-30.000728) translate(-7.746865, -22.499189) " cx="7.74686499" cy="22.4991894" r="1"></circle>
                                <circle id="Oval" fill="#35495D" transform="translate(11.699730, 7.746865) rotate(-30.000728) translate(-11.699730, -7.746865) " cx="11.6997297" cy="7.74686499" r="1"></circle>
                                <circle id="Oval" fill="#35495D" transform="translate(22.499189, 26.452054) rotate(-30.000728) translate(-22.499189, -26.452054) " cx="22.4991894" cy="26.4520541" r="1"></circle>
                                <circle id="Oval" fill="#35495D" transform="translate(26.452259, 22.501015) rotate(-59.999272) translate(-26.452259, -22.501015) " cx="26.4522593" cy="22.5010146" r="1"></circle>
                                <circle id="Oval" fill="#35495D" transform="translate(7.746660, 11.700064) rotate(-59.999272) translate(-7.746660, -11.700064) " cx="7.74665979" cy="11.7000645" r="1"></circle>
                                <circle id="Oval" fill="#35495D" transform="translate(22.499935, 7.747740) rotate(-59.999272) translate(-22.499935, -7.747740) " cx="22.4999346" cy="7.74773979" r="1"></circle>
                                <circle id="Oval" fill="#35495D" transform="translate(11.698984, 26.453339) rotate(-59.999272) translate(-11.698984, -26.453339) " cx="11.6989845" cy="26.4533393" r="1"></circle>
                            </g>
                        </g>
                    </g>
                </g>
            </g>
        </g>
    </g>
</svg>