<?xml version="1.0" encoding="UTF-8"?>
<svg width="145px" height="145px" viewBox="0 0 145 145" version="1.1" xmlns="http://www.w3.org/2000/svg" xmlns:xlink="http://www.w3.org/1999/xlink">
    <!-- Generator: Sketch 61.1 (89650) - https://sketch.com -->
    <title>APPROVAL ICON</title>
    <desc>Created with Sketch.</desc>
    <defs>
        <circle id="path-1" cx="62.5" cy="62.5" r="62.5"></circle>
        <filter x="-11.2%" y="-11.2%" width="125.6%" height="125.6%" filterUnits="objectBoundingBox" id="filter-2">
            <feOffset dx="2" dy="2" in="SourceAlpha" result="shadowOffsetOuter1"></feOffset>
            <feGaussianBlur stdDeviation="5" in="shadowOffsetOuter1" result="shadowBlurOuter1"></feGaussianBlur>
            <feComposite in="shadowBlurOuter1" in2="SourceAlpha" operator="out" result="shadowBlurOuter1"></feComposite>
            <feColorMatrix values="0 0 0 0 0   0 0 0 0 0   0 0 0 0 0  0 0 0 0.5 0" type="matrix" in="shadowBlurOuter1"></feColorMatrix>
        </filter>
    </defs>
    <g id="Page-1" stroke="none" stroke-width="1" fill="none" fill-rule="evenodd">
        <g id="FORGOT-PASSWORD-APPROVED" transform="translate(-612.000000, -269.000000)">
            <g id="FORGOT-PASSWORD" transform="translate(390.000000, 173.000000)">
                <g id="APPROVAL-ICON" transform="translate(230.000000, 104.000000)">
                    <g id="Oval">
                        <use fill="black" fill-opacity="1" filter="url(#filter-2)" xlink:href="#path-1"></use>
                        <use fill-opacity="0.7" fill="#82C12B" fill-rule="evenodd" xlink:href="#path-1"></use>
                    </g>
                    <g id="Icon" transform="translate(40.000000, 43.000000)" stroke="#000000" stroke-linecap="round" stroke-width="4">
                        <path d="M0,15.5612 C0,14.9332 0.64,14.0002 1.271,14.0002 L12.193,14.0002 C12.828,14.0002 13,14.9382 13,15.5612 L13,36.8632 C13,37.4912 12.825,38.0002 12.193,38.0002 L1.271,38.0002 C0.636,38.0002 0,37.4862 0,36.8632 L0,15.5612 L0,15.5612 Z" id="Stroke-70"></path>
                        <path d="M29,12 L41.372,12 C42.837,12 44.129,15.754 43.837,17.129 C43.837,17.129 40.298,31.436 39.438,33.659 C38.577,35.882 35.696,36 35.078,36 L33,36" id="Stroke-72"></path>
                        <path d="M14.0294,17.1202 L16.2954,16.2212 L21.1254,7.6552 C21.1254,7.6552 20.9344,3.1152 21.4154,1.7492 C21.8974,0.3842 26.3254,-2.1048 28.9324,3.4742 C31.5384,9.0522 28.9324,12.1702 28.9324,12.1702" id="Stroke-74"></path>
                        <path d="M21.8624,36.3777 C19.5864,35.5457 13.7284,33.3387 13.7284,33.3387" id="Stroke-76"></path>
                        <line x1="22" y1="36" x2="35" y2="36" id="Stroke-78"></line>
                    </g>
                </g>
            </g>
        </g>
    </g>
</svg>