<?xml version="1.0" encoding="UTF-8"?>
<svg width="40px" height="40px" viewBox="0 0 40 40" version="1.1" xmlns="http://www.w3.org/2000/svg" xmlns:xlink="http://www.w3.org/1999/xlink">
    <!-- Generator: Sketch 61.1 (89650) - https://sketch.com -->
    <title>GERMANY LOGO</title>
    <desc>Created with Sketch.</desc>
    <g id="Symbols" stroke="none" stroke-width="1" fill="none" fill-rule="evenodd">
        <g id="GERMANY-LOGO">
            <g>
                <path d="M38.8607704,26.6666667 L1.13800218,26.6666667 C3.88349467,34.434616 11.2915275,40 19.9993863,40 C28.7072451,40 36.1152778,34.434616 38.8607696,26.6666667 L38.8607704,26.6666667 L38.8607704,26.6666667 Z" id="yellow" fill="#F2C500"></path>
                <path d="M1.13800218,26.6666667 L38.8607704,26.6666667 C39.5977567,24.581474 39.9987724,22.3375696 39.9987724,20 C39.9987724,17.6624304 39.5977567,15.4185261 38.8607696,13.3333332 L1.13800218,13.3333333 C0.401015796,15.4185261 0,17.6624304 0,20 C0,22.3375696 0.401015796,24.581474 1.13800303,26.6666667 L1.13800218,26.6666667 L1.13800218,26.6666667 Z" id="red" fill="#E94B35"></path>
                <path d="M1.13800218,13.3333333 L38.8607704,13.3333333 C36.1152778,5.56538389 28.7072451,0 19.9993863,0 C11.2915275,0 3.88349467,5.56538389 1.13800303,13.3333332 L1.13800218,13.3333333 L1.13800218,13.3333333 Z" id="black" fill="#000000"></path>
            </g>
        </g>
    </g>
</svg>