<?xml version="1.0" encoding="UTF-8"?>
<svg width="28px" height="18px" viewBox="0 0 28 18" version="1.1" xmlns="http://www.w3.org/2000/svg" xmlns:xlink="http://www.w3.org/1999/xlink">
    <!-- Generator: Sketch 61.1 (89650) - https://sketch.com -->
    <title>HANDBURGER</title>
    <desc>Created with Sketch.</desc>
    <g id="Page-1" stroke="none" stroke-width="1" fill="none" fill-rule="evenodd">
        <g id="LOGIN-Copy" transform="translate(-1237.000000, -105.000000)" fill="#000000">
            <g id="HANDBURGER" transform="translate(1237.000000, 105.000000)">
                <path d="M27.2142857,8 L6.78571429,8 C6.35141071,8 6,8.447265 6,9 C6,9.552735 6.3514225,10 6.78571429,10 L27.2142857,10 C27.6485893,10 28,9.552735 28,9 C28,8.447265 27.6485775,8 27.2142857,8 Z" id="Fill-1"></path>
                <path d="M27,0 L1,0 C0.44725,0 0,0.447265 0,1 C0,1.552735 0.447265,2 1,2 L27,2 C27.55275,2 28,1.552735 28,1 C28,0.447265 27.552735,0 27,0 Z" id="Fill-2"></path>
                <path d="M28,17 C28,16.734375 27.9397315,16.48045 27.8325887,16.29295 C27.7254459,16.10545 27.5803574,15.99998 27.4285604,15.99998 L12.5714282,15.99998 C12.2555712,15.99998 12,16.447245 12,16.99998 C12,17.552715 12.2555798,17.99998 12.5714282,17.99998 L27.4285604,17.99998 C27.580346,17.99998 27.7254459,17.89451 27.8325887,17.70701 C27.9397315,17.51951 28,17.265605 28,16.99996 L28,17 Z" id="Fill-3"></path>
            </g>
        </g>
    </g>
</svg>