<?xml version="1.0" encoding="UTF-8"?>
<svg width="36px" height="37px" viewBox="0 0 36 37" version="1.1" xmlns="http://www.w3.org/2000/svg" xmlns:xlink="http://www.w3.org/1999/xlink">
    <!-- Generator: Sketch 61.1 (89650) - https://sketch.com -->
    <title>icn_phone</title>
    <desc>Created with Sketch.</desc>
    <g id="Page-1" stroke="none" stroke-width="1" fill="none" fill-rule="evenodd">
        <g id="LOGIN-CONTACT" transform="translate(-539.000000, -472.000000)" fill="#E20E35">
            <g id="CONTACT" transform="translate(398.000000, 173.000000)">
                <g id="INFO" transform="translate(141.000000, 78.000000)">
                    <g id="PHONE-CONTACT" transform="translate(0.000000, 212.000000)">
                        <path d="M18,9.60000038 C8.07195822,9.60000038 0,17.6719586 0,27.6000004 C0,37.5280436 8.07195822,45.6000004 18,45.6000004 C27.9280432,45.6000004 36,37.5280436 36,27.6000004 C36,17.6719586 27.9280432,9.60000038 18,9.60000038 Z M27.8912853,34.2702329 C27.5508238,35.103614 26.9439169,35.9369951 26.5649695,36.3159425 C24.4052725,38.4756394 18.6070744,36.5439021 13.8315795,31.7685739 C9.05608457,26.9932457 7.12458976,21.2334577 9.2842109,19.0351839 C9.66315828,18.6562365 10.5350404,18.0493144 11.3299205,17.7088681 C11.9368426,17.4439005 12.6562363,17.6333742 13.0736847,18.1633018 L15.4613564,21.1948808 C15.9542912,21.801803 15.8788048,22.7106704 15.2718827,23.2405904 C14.6649606,23.7705104 14.2490279,24.1494578 14.1350406,24.2634452 C13.2261732,25.1723126 14.552489,27.1055506 16.5596975,29.1143506 C18.5684218,31.1230749 20.4632345,32.486376 21.410603,31.5390076 C21.5245828,31.4250278 21.9035377,31.0090875 22.4334577,30.4021654 C22.9633778,29.7952433 23.8352599,29.719757 24.4791673,30.2126917 L27.5107464,32.6003634 C28.0036811,32.9052986 28.1561316,33.6246961 27.8911716,34.2700814 L27.8912853,34.2702329 Z" id="icn_phone"></path>
                    </g>
                </g>
            </g>
        </g>
    </g>
</svg>