<?xml version="1.0" encoding="UTF-8"?>
<svg width="36px" height="36px" viewBox="0 0 36 36" version="1.1" xmlns="http://www.w3.org/2000/svg" xmlns:xlink="http://www.w3.org/1999/xlink">
    <!-- Generator: Sketch 61.1 (89650) - https://sketch.com -->
    <title>icn_adress</title>
    <desc>Created with Sketch.</desc>
    <g id="Page-1" stroke="none" stroke-width="1" fill="none" fill-rule="evenodd">
        <g id="LOGIN-CONTACT" transform="translate(-539.000000, -263.000000)" fill="#E20E35">
            <g id="CONTACT" transform="translate(398.000000, 173.000000)">
                <g id="INFO" transform="translate(141.000000, 78.000000)">
                    <g id="ADDRESS">
                        <g id="icn_adress" transform="translate(0.000000, 12.000000)">
                            <path d="M18,0 C8.05410032,0 0,8.05410032 0,18 C0,27.9459011 8.05410032,36 18,36 C27.9459011,36 36,27.9459011 36,18 C36,8.05410032 27.9459011,0 18,0 Z M26.235451,16.7395507 C26.189749,17.0541997 26.1001,17.3249107 26.010451,17.5938307 C24.614731,22.3188309 19.0813508,28.0792811 18.8563507,28.3042811 L18.0020707,29.2042803 L17.1477907,28.3042811 C16.9227907,28.0792811 11.3873405,22.2751809 9.9936904,17.5938307 C9.90404139,17.3231287 9.81439239,17.0084707 9.76869039,16.7395507 C9.67904138,16.1999106 9.58939238,15.6602706 9.58939238,15.1188306 C9.58939238,10.4833804 13.3686725,6.70428027 18.0039427,6.70428027 C22.6393929,6.70428027 26.418493,10.4835604 26.418493,15.1188306 C26.4149785,15.6602256 26.3253295,16.1998656 26.2356805,16.7395507 L26.235451,16.7395507 Z" id="Fill-1"></path>
                            <path d="M18.0000007,9.13545036 C14.6707206,9.13545036 12.0145505,11.8354505 12.0145505,15.1209006 C12.0145505,15.5251986 12.0602525,15.8855406 12.1499015,16.2916206 C12.1956035,16.5166207 12.2395505,16.7416207 12.3291995,16.9209007 C13.2291995,20.0251808 16.4688397,23.941801 18.0437497,25.741801 C19.6187498,23.987521 22.8146499,20.0709008 23.7582999,16.9209007 C23.8040019,16.6959007 23.8936509,16.5166027 23.937598,16.2916206 C24.027247,15.8873226 24.072949,15.5269806 24.072949,15.1209006 C23.9850595,11.8355405 21.3289838,9.13545036 17.9997487,9.13545036 L18.0000007,9.13545036 Z M18.0000007,18.0895507 C16.3792807,18.0895507 15.0750006,16.7852707 15.0750006,15.1645506 C15.0750006,13.5438305 16.3792807,12.2395505 18.0000007,12.2395505 C19.6207208,12.2395505 20.9250008,13.5438305 20.9250008,15.1645506 C20.9250008,16.7395505 19.6207208,18.0895507 18.0000007,18.0895507 Z" id="Fill-2"></path>
                        </g>
                    </g>
                </g>
            </g>
        </g>
    </g>
</svg>