<?xml version="1.0" encoding="UTF-8"?>
<svg width="36px" height="37px" viewBox="0 0 36 37" version="1.1" xmlns="http://www.w3.org/2000/svg" xmlns:xlink="http://www.w3.org/1999/xlink">
    <!-- Generator: Sketch 61.1 (89650) - https://sketch.com -->
    <title>icn_email</title>
    <desc>Created with Sketch.</desc>
    <g id="Page-1" stroke="none" stroke-width="1" fill="none" fill-rule="evenodd">
        <g id="LOGIN-CONTACT" transform="translate(-539.000000, -367.000000)" fill="#E20E35">
            <g id="CONTACT" transform="translate(398.000000, 173.000000)">
                <g id="INFO" transform="translate(141.000000, 78.000000)">
                    <g id="EMAIL" transform="translate(0.000000, 106.000000)">
                        <path d="M18,46.8000004 C22.7743209,46.8000004 27.3528011,44.9029818 30.7278012,41.5278017 C34.1028014,38.1526215 36,33.5739613 36,28.8000004 C36,24.026041 34.1029814,19.4472008 30.7278012,16.0722006 C27.3526211,12.6972005 22.7739609,10.8000004 18,10.8000004 C13.2260405,10.8000004 8.64720034,12.6970205 5.27220021,16.0722006 C1.89720008,19.4473808 0,24.026041 0,28.8000004 C0,33.5739613 1.89702008,38.1528015 5.27220021,41.5278017 C8.64738034,44.9028018 13.2260405,46.8000004 18,46.8000004 Z M9.23760037,23.7319209 C9.67492838,22.6772289 10.7211964,22.0064409 11.8616765,22.0500369 L17.9816767,22.0500369 L24.101677,22.0500369 C25.225273,22.0022253 26.265889,22.6406529 26.7341771,23.6630169 C26.8269887,23.7923937 26.8508963,23.9583286 26.7988655,24.107401 C26.7482423,24.2578702 26.6273039,24.3745894 26.4740231,24.4181818 L18.3599827,28.6564619 C18.1518595,28.7759927 17.8959067,28.7759927 17.6863867,28.6564619 L9.46398638,24.3829018 C9.33461317,24.342121 9.23054797,24.2422786 9.18554797,24.1143094 C9.14195556,23.9863402 9.16023636,23.8429017 9.23757877,23.7318093 L9.23760037,23.7319209 Z M9.77338839,26.4361331 C12.3299645,27.7720571 14.8835886,29.1038052 17.4345487,30.4314132 C17.7847063,30.6381324 18.2192407,30.6381324 18.5679727,30.4314132 C21.1076648,29.0997012 23.6500929,27.7792211 26.196733,26.4714131 C26.2712638,26.4292247 26.3514214,26.3996938 26.4343907,26.381413 C26.5722023,26.3336014 26.7240791,26.360317 26.8393907,26.4503207 C26.9532983,26.5403207 27.0137639,26.6823515 26.9997023,26.8272047 L26.9997023,31.9136449 C27.0207947,32.3538169 27.0053291,32.7939529 26.9532947,33.2313169 C26.7409523,34.581317 25.5681226,35.569913 24.2026786,35.550221 L19.1950784,35.550221 L11.8543181,35.550221 C10.56901,35.5797518 9.43133797,34.723337 9.10370196,33.4802209 C9.03901356,33.2453785 9.00385956,33.0035089 8.99964036,32.7602209 L8.99964036,26.8821407 C8.99964036,26.3885446 9.31604797,26.2015246 9.77306439,26.4349487 L9.77338839,26.4361331 Z" id="icn_email"></path>
                    </g>
                </g>
            </g>
        </g>
    </g>
</svg>