<?xml version="1.0" encoding="UTF-8"?>
<svg width="790px" height="425px" viewBox="0 0 790 425" version="1.1" xmlns="http://www.w3.org/2000/svg" xmlns:xlink="http://www.w3.org/1999/xlink">
    <!-- Generator: Sketch 61.1 (89650) - https://sketch.com -->
    <title>ILLUSTRATION</title>
    <desc>Created with Sketch.</desc>
    <defs>
        <path d="M24.7038138,27.1384785 C-0.38526537,46.8255117 -7.58869102,80.0815849 11.6134847,94.5438137 C22.3573244,102.635598 39.8163399,96.0228983 63.990531,74.7057138 L53.3042749,65.1273316 L67.9884552,67.3874065 C73.3603476,61.4227738 76.2167936,56.3397609 76.5577932,52.1383678 C77.8398764,36.3420551 87.5661402,33.7247357 91.5234182,27.1384785 C96.4230614,18.9838051 99.8367762,7.08331229 92.8543673,2.1830479 C82.1368976,-5.33848743 49.7928929,7.45144526 24.7038138,27.1384785 Z" id="path-1"></path>
        <path d="M23.9620352,4.92306021 C10.1632914,10.5053457 -7.04551543,31.7760197 4.44851834,44.4792936 C15.9425521,57.1825676 35.488729,41.9868098 36.8888978,29.1314557 C38.2890666,16.2761016 57.1112447,15.4422239 55.9551635,6.20583571 C54.7990823,-3.03055251 37.7607789,-0.659225283 23.9620352,4.92306021 Z" id="path-3"></path>
        <path d="M20.1689413,21.7827255 C0.175080464,37.5845414 -7.92778688,67.3244519 9.73706306,75.8856818 C19.3795391,80.5588861 33.2928885,75.2511962 51.4771113,59.9626121 L42.9610747,52.2745145 L54.6631167,54.0885658 C58.9440577,49.3010477 61.2204021,45.2211625 61.4921497,41.8489103 C62.513861,29.169985 70.2648654,27.0691911 73.4184792,21.7827255 C77.3230779,15.2373692 80.043518,5.68542733 74.4791323,1.75222547 C65.9382211,-4.284942 40.1628021,5.98090961 20.1689413,21.7827255 Z" id="path-5"></path>
        <path d="M22.7488769,5.02160276 C8.95013313,10.6038883 -5.96134919,30.6776109 3.23536007,44.5778362 C7.04520878,50.3361736 15.1649479,49.6953267 27.5945773,42.6552955 L23.5698889,35.4181841 L32.2051866,38.0198929 C34.3063085,34.1117221 35.4631594,31.1817572 35.6757395,29.2299983 C37.0759083,16.3746442 55.8980864,15.5407665 54.7420052,6.30437826 C53.585924,-2.93200996 36.5476206,-0.560682733 22.7488769,5.02160276 Z" id="path-7"></path>
    </defs>
    <g id="Page-1" stroke="none" stroke-width="1" fill="none" fill-rule="evenodd">
        <g id="LOGIN-LANGUAGE" transform="translate(-610.000000, -276.000000)">
            <g id="BACKGROUND" transform="translate(-190.000000, -139.000000)">
                <g id="ILLUSTRATION" transform="translate(800.000000, 415.000000)">
                    <g id="Background-Chart" transform="translate(148.959995, 0.000000)">
                        <g id="Group-7" fill="#F2F4FF">
                            <rect id="Rectangle" x="0" y="0" width="78.7114973" height="53.8597242" rx="1.95999993"></rect>
                            <rect id="Rectangle-Copy-6" x="85.1182471" y="0" width="78.7114973" height="53.8597242" rx="1.95999993"></rect>
                            <rect id="Rectangle-Copy-8" x="0" y="60.249861" width="78.7114973" height="53.8597242" rx="1.95999993"></rect>
                            <rect id="Rectangle-Copy-7" x="85.1182471" y="60.249861" width="78.7114973" height="53.8597242" rx="1.95999993"></rect>
                        </g>
                        <g id="Group-7-Copy" transform="translate(336.811989, 0.000000)" fill="#F2F4FF">
                            <rect id="Rectangle" x="0" y="0" width="78.7114973" height="53.8597242" rx="1.95999993"></rect>
                            <rect id="Rectangle-Copy-6" x="85.1182471" y="0" width="78.7114973" height="53.8597242" rx="1.95999993"></rect>
                            <rect id="Rectangle-Copy-8" x="0" y="60.249861" width="78.7114973" height="53.8597242" rx="1.95999993"></rect>
                            <rect id="Rectangle-Copy-7" x="85.1182471" y="60.249861" width="78.7114973" height="53.8597242" rx="1.95999993"></rect>
                        </g>
                        <path d="M260.804744,132.464427 C238.094069,132.464427 215.383394,132.464427 192.67272,132.464427 L192.67272,132.464427 C188.123412,132.464427 184.43547,128.786047 184.43547,124.248536 L184.43547,50.159465 L184.43547,50.159465 C184.43547,46.2067889 187.629585,43.0025118 191.569726,43.0025118 L316.419209,43.0025118 C320.35935,43.0025118 323.553465,46.2067889 323.553465,50.159465 L323.553465,125.307473 C323.553465,129.260149 320.35935,132.464427 316.419209,132.464427 C297.589954,132.464427 283.468013,132.464427 274.053385,132.464427" id="Path" fill="#CAE7FB"></path>
                        <path d="M227.452218,120.59703 C230.519944,120.59703 234.840273,119.71696 240.413204,117.956821 L227.452218,87.2958033 L254.520825,106.476232 C258.441086,98.6253305 260.401217,92.3777428 260.401217,87.7334692 C260.401217,69.5834259 245.649448,54.8699087 227.452218,54.8699087 C209.254989,54.8699087 194.50322,69.5834259 194.50322,87.7334692 C194.50322,105.883512 209.254989,120.59703 227.452218,120.59703 Z" id="Oval" fill="#FFFFFF"></path>
                        <path d="M21.6430088,132.464427 C16.5208257,132.464427 12.3684758,128.298866 12.3684758,123.160387 L12.3684758,50.159465 C12.3684758,46.2067889 15.5625911,43.0025118 19.502732,43.0025118 L144.352215,43.0025118 C148.292356,43.0025118 151.486471,46.2067889 151.486471,50.159465 L151.18332,124.429553 C151.163441,129.300666 147.198506,133.233365 142.327393,133.213482 C142.317338,133.213441 142.307284,133.213383 142.297229,133.213308 C75.7465886,132.714054 35.5285152,132.464427 21.6430088,132.464427 Z" id="Path" fill="#CAE7FB"></path>
                        <rect id="Rectangle" fill="#FFFFFF" x="273.214717" y="55.7827853" width="14.6439995" height="9.12876681"></rect>
                        <rect id="Rectangle-Copy-2" fill="#FFFFFF" x="273.214717" y="74.040319" width="29.287999" height="9.12876681"></rect>
                        <rect id="Rectangle-Copy-3" fill="#FFFFFF" x="273.214717" y="92.2978526" width="22.8812492" height="9.12876681"></rect>
                        <rect id="Rectangle-Copy-4" fill="#FFFFFF" x="273.214717" y="111.468263" width="36.6099988" height="9.12876681"></rect>
                        <g id="Group-4" transform="translate(363.824464, 43.002512)">
                            <path d="M4.47643989,89.4619148 C2.38942454,89.4619148 0,86.2576377 0,82.3049616 L0,7.15695318 C0,3.20427708 3.20690636,0 7.16282584,0 L141.107669,0 C145.063589,0 148.270495,3.20427708 148.270495,7.15695318 L148.270495,82.3049616 C148.270495,86.2576377 145.063589,89.4619148 141.107669,89.4619148 L33.3064766,89.4619148 L4.47643989,89.4619148 Z" id="Path" fill="#CAE7FB"></path>
                            <line x1="89.6816877" y1="31.0378072" x2="89.6816877" y2="77.1380796" id="Path-3" stroke="#262A50" stroke-width="0.979999967"></line>
                            <line x1="117.139187" y1="40.166574" x2="117.139187" y2="77.1380796" id="Path-3-Copy" stroke="#262A50" stroke-width="0.979999967"></line>
                            <line x1="62.2241887" y1="49.2953408" x2="62.2241887" y2="77.1380796" id="Path-3-Copy-2" stroke="#262A50" stroke-width="0.979999967"></line>
                            <line x1="34.7666896" y1="47.4695874" x2="34.7666896" y2="77.1380796" id="Path-3-Copy-3" stroke="#262A50" stroke-width="0.979999967"></line>
                            <path d="M12.3432734,58.3267998 C21.5679214,49.0374087 28.6975871,44.7104082 33.7322707,45.3457983 C41.284296,46.2988835 43.9135812,52.64183 54.4083014,52.64183 C64.9030216,52.64183 73.6317791,35.8609571 86.2855395,31.1185366 C98.9392999,26.376116 106.234657,39.7916121 118.725519,39.7916121 C127.05276,39.7916121 131.86301,35.31978 133.156269,26.376116" id="Path-270" stroke="#262A50" stroke-width="5.8799998" stroke-linecap="round"></path>
                            <line x1="21.4850017" y1="77.1380796" x2="127.219746" y2="77.1380796" id="Path-271" stroke="#262A50" stroke-width="0.979999967"></line>
                            <ellipse id="Oval" fill="#FCC72F" cx="91.9700206" cy="30.9404994" rx="7.32199975" ry="7.30301345"></ellipse>
                        </g>
                    </g>
                    <g id="Girl2" transform="translate(534.099982, 134.259995)">
                        <g id="Group" transform="translate(115.004372, 77.058694) scale(-1, 1) rotate(-20.000000) translate(-115.004372, -77.058694) translate(74.504372, 10.558694)">
                            <path d="M70.4894002,15.0430334 C68.516583,28.1175286 65.8658438,35.512239 63.0759278,36.3027991 C61.4130933,36.7739856 59.2233659,36.461829 56.5067455,35.3663295 L51.7807501,43.2968563 L56.2326591,51.9672822 C55.0340145,53.2687573 51.7732426,51.7166534 46.4503435,47.3109705 C41.1274445,42.9052876 38.2072395,39.4802089 37.6897288,37.0357342 L46.7451019,12.2215188 L66.1239766,9.05746252 C69.1326443,12.3958117 70.5877855,14.391002 70.4894002,15.0430334 Z" id="Path-272" fill="#FFBA5F" transform="translate(54.091901, 30.734966) rotate(9.000000) translate(-54.091901, -30.734966) "></path>
                            <path d="M18.0012171,108.506591 C15.3711577,99.1284786 13.8890534,91.3668385 13.5549041,85.2216713 C13.2300961,79.2482963 9.15213921,78.1066032 10.5605073,70.0847035 C11.2252687,66.2983007 14.7616337,65.30203 19.259296,61.2065593 C23.2772906,57.5478633 26.508156,49.256646 28.2533757,47.6794881 C31.1328445,45.0773075 38.266835,42.5444393 49.6553471,40.0808833 C56.6566927,51.8538528 58.4037185,64.7767985 54.8964246,78.8497203 C51.3891306,92.9226422 53.7472748,108.117282 61.9708572,124.433639 L21.1676785,127.628049 L18.0012171,108.506591 Z" id="Path-359" fill="#FF9B6D" transform="translate(36.118291, 83.854466) scale(-1, 1) rotate(-14.000000) translate(-36.118291, -83.854466) "></path>
                            <ellipse id="Oval" stroke="#262951" stroke-width="0.979999967" transform="translate(72.057405, 25.562703) rotate(6.000000) translate(-72.057405, -25.562703) " cx="72.0574046" cy="25.5627033" rx="3.19901313" ry="3.66107542"></ellipse>
                            <ellipse id="Oval-Copy" stroke="#262951" stroke-width="0.979999967" transform="translate(64.041500, 23.022327) rotate(6.000000) translate(-64.041500, -23.022327) " cx="64.0414999" cy="23.0223268" rx="3.19901313" ry="3.66107542"></ellipse>
                            <path d="M67.2624845,22.9295538 C68.2890357,22.2904608 69.0784485,22.4876649 69.630723,23.521166" id="Path-365" stroke="#262852" stroke-width="0.979999967" transform="translate(68.446604, 23.042213) rotate(6.000000) translate(-68.446604, -23.042213) "></path>
                            <path d="M31.4893121,20.2039244 C44.8897479,14.1155014 42.5750464,10.3509885 50.6571079,4.47265642 C58.7391694,-1.4056756 65.7696063,0.76002567 70.0090069,3.85388463 C72.835274,5.91645727 75.0264858,8.51300681 76.5826424,11.6435333 C80.5587729,13.0154931 81.5943868,15.059732 79.6894841,17.77625 C77.7845814,20.4927679 74.5577557,19.8521437 70.0090069,15.8543774 C63.6634844,18.4076646 58.7451059,19.3662985 55.2538715,18.7302791 C54.8398889,14.3366945 51.9811829,14.9170054 49.2402227,16.8236423 C47.4129159,18.0947335 47.4129159,19.7529416 49.2402227,21.7982666 C50.0075447,23.7279371 50.5088568,25.5358592 50.7441589,27.2220328 C51.0971121,29.7512932 48.6023052,49.739873 34.5181266,48.8768906 C20.4339479,48.0139081 18.0888763,26.2923475 31.4893121,20.2039244 Z" id="Path-276" fill="#262A50"></path>
                            <line x1="61.5529739" y1="20.8609802" x2="55.3073973" y2="17.4533668" id="Path-7" stroke="#262951" stroke-width="0.979999967"></line>
                        </g>
                        <g id="Group-7" transform="translate(79.663846, 104.700613) scale(-1, 1) rotate(-28.000000) translate(-79.663846, -104.700613) translate(26.663846, 50.200613)">
                            <path d="M70.9703267,80.9545938 C73.1539414,82.5686552 75.1185121,83.4635445 76.8640391,83.6392619 C79.4823295,83.9028379 80.3245022,83.8345504 82.6998466,85.1050373 C83.3737189,85.4654675 84.5421181,85.9331101 86.2050444,86.5079652 L85.0806503,88.9324291 C84.1576659,88.9658275 83.623174,88.9825267 83.4771744,88.9825267 C82.8325548,88.9825267 83.6064773,90.8600304 89.942884,91.4299005 C96.2792907,91.9997706 93.5755076,99.2455946 85.1809761,98.9610937 C76.7864445,98.6765929 73.9982667,96.81628 65.8072516,88.9825267" id="Path-351" fill="#FFBA5F"></path>
                            <polyline id="Path" stroke="#262A50" stroke-width="0.979999967" transform="translate(89.562551, 94.946195) rotate(-60.000000) translate(-89.562551, -94.946195) " points="91.3358783 87.9037452 100.766297 86.7173785 100.756216 103.175012 78.7350005 100.447224 78.358805 89.4901802 78.8694497 89.4720485 81.7306567 89.1121026"></polyline>
                            <path d="M77.7685273,82.0303189 L54.5867752,80.8290454 L14.3413729,79.2877564 C13.1698484,77.8141667 12.3299019,75.4700396 12.11442,73.0735274 C11.8989381,70.6770152 12.8955446,65.9836805 14.3509638,63.919589 L33.0023428,63.9079414 L53.8332747,63.8949326 L66.3097112,25.6682287 C69.0714316,17.2473287 73.6427501,14.0414296 80.0236667,16.0505313 C86.4750502,18.0818204 88.2584391,22.9281905 87.2069316,31.611289 L77.7685273,82.0303189 Z" id="Path" fill="#FF9B6D" transform="translate(49.786916, 48.750169) scale(-1, 1) rotate(-31.000000) translate(-49.786916, -48.750169) "></path>
                            <path d="M27.202882,51.474078 C34.4133914,22.2464393 41.8067154,6.51047992 49.3828538,4.26619996" id="Path-335" stroke="#262A50" stroke-width="0.979999967" transform="translate(38.292868, 27.870139) scale(-1, 1) rotate(-22.000000) translate(-38.292868, -27.870139) "></path>
                            <path d="M94.6143079,79.9059036 L98.6730564,79.9083897 C101.907085,79.9103707 104.590273,82.4102366 104.820735,85.6360434 L104.820735,85.6360434 L104.820735,85.6360434 L88.3631022,85.6259625 C88.6490744,82.387122 91.3628677,79.903912 94.6143079,79.9059036 Z" id="Rectangle" fill="#262A50" transform="translate(96.591919, 82.770973) rotate(-330.000000) translate(-96.591919, -82.770973) "></path>
                            <path d="M92.9946805,93.1167865 C92.9946805,93.1167865 90.334162,95.6278085 81.5099668,91.6450001" id="Path-352" stroke="#262A50" stroke-width="0.979999967"></path>
                            <path d="M92.8462169,96.0704821 C87.6864852,96.8002895 83.4399822,96.076062 80.1067078,93.8977997" id="Path-353" stroke="#262A50" stroke-width="0.979999967"></path>
                            <path d="M89.2792406,98.492281 C85.1650365,98.6925074 81.6570927,97.9768171 78.7554091,96.3452101" id="Path-354" stroke="#262A50" stroke-width="0.979999967"></path>
                            <path d="M97.070693,80.5942695 L101.42975,72.3844739 C101.800497,71.6862143 101.715443,70.8335786 101.214066,70.222317 L99.0870303,67.6291068 L99.0870303,67.6291068" id="Path-4" stroke="#262A50" stroke-width="0.979999967"></path>
                        </g>
                        <path d="M60.4153022,186.575987 L142.6679,186.575987 C143.931642,186.575987 144.956107,187.600453 144.956107,188.864195 C144.956107,190.127937 143.931642,191.152402 142.6679,191.152402 L60.4153022,191.152402 C59.1515601,191.152402 58.1270947,190.127937 58.1270947,188.864195 C58.1270947,187.600453 59.1515601,186.575987 60.4153022,186.575987 Z" id="Rectangle-Copy" fill="#262A50"></path>
                        <path d="M63.9384622,209.742099 L69.09497,191.152402 L129.418284,191.152402 L152.975928,276.07993 C154.597151,281.924594 151.180072,287.97875 145.343668,289.602268 C144.387773,289.86817 143.400272,290.002965 142.408184,290.002965 L56.1050704,290.002965 C50.0476802,290.002965 45.1371952,285.085531 45.1371952,279.019569 C45.1371952,278.026077 45.2717999,277.037178 45.5373262,276.07993 L55.9923971,238.388414 L63.9384622,209.742099 Z" id="Path" stroke="#262A50" stroke-width="0.979999967"></path>
                        <path d="M75.1591066,285.346676 C77.2708125,287.912417 78.6985065,288.172399 78.6985065,288.172399 C85.2489331,286.165133 85.6355015,285.346676 85.6355015,285.346676 L93.7726894,266.868522 C88.051459,263.741588 82.3364644,255.027344 76.6277056,240.725793 C68.0645673,219.273465 67.5994499,197.903518 54.0074107,191.152402 L76.6277056,177.666662 L71.1162093,155.059051 L32.3815909,167.479794 C24.6507421,169.958788 20.3932727,178.235501 22.8722667,185.96635 C23.3446306,187.439437 24.0465577,188.828729 24.9521351,190.08294 C64.01611,244.185917 80.7517672,275.940495 75.1591066,285.346676 Z" id="Path" fill="#FFBA5F"></path>
                        <path d="M28.0042338,267.072296 C30.2198241,254.110418 35.2979267,240.986254 43.2385416,227.699803 C55.1494639,207.770127 52.6581675,196.576594 52.6581675,192.832001 C52.6581675,191.214095 60.8946569,190.617299 71.9439157,186.944019 C75.9435994,185.614341 82.6679827,183.433324 92.1170655,180.400968 L92.1170655,172.14953 L70.2356949,157.593223 C64.2121898,160.599771 60.0228972,162.712684 57.6678172,163.93196 C51.7092577,167.016836 47.6272073,169.295089 45.102305,170.71398 C39.014664,174.134986 35.2555919,175.47286 34.0048152,178.0027 C32.7711481,180.497934 29.2610901,191.618773 26.5720804,205.884273 C21.1190593,234.813167 14.7339819,276.569409 7.3901454,284.817558 C8.62762398,288.734298 17.1704991,289.097026 20.6535209,285.572362 C22.9755354,283.222586 25.425773,277.055898 28.0042338,267.072296 Z" id="Path-370" fill="#FFBA5F"></path>
                        <path d="M46.727225,221.615725 C54.0074107,208.206299 56.4341392,198.191344 54.0074107,191.570858" id="Path-18" stroke="#262A50" stroke-width="0.979999967"></path>
                        <path d="M28.4128483,194.973446 L29.3666769,190.561471 C31.5770688,180.33721 38.7398064,171.888201 48.4644138,168.034196 L51.204482,166.948266 L51.204482,166.948266" id="Path-336" stroke="#262A50" stroke-width="0.979999967"></path>
                        <path d="M137.462267,146.303536 C141.189536,173.623144 131.310142,187.282948 107.824084,187.282948 C84.3380259,187.282948 67.6911037,188.712252 57.883317,191.570858 C56.7766173,187.92865 55.7640312,185.367287 54.8455588,183.886767 C52.4810924,180.075396 49.012756,177.277479 47.5664556,174.36235 C45.2774364,169.748658 44.0441214,166.067514 43.8665107,163.318919 L90.4740157,146.303536 L137.462267,146.303536 Z" id="Path-369" fill="#262A50"></path>
                        <path d="M25.6049324,284.709475 L24.8542329,284.853184 C20.0391348,285.774957 15.122291,283.85201 12.2101141,279.908146 C10.7340946,277.909222 9.42923005,275.789094 8.29552057,273.547761 C7.22057493,271.422604 6.00275449,268.772222 4.64205926,265.596615 C0.839665074,268.924021 -0.62677204,272.126962 0.24274792,275.205439 C0.744205709,276.980816 1.70130801,278.555699 2.21435297,281.506816 C2.46539761,282.950865 2.58551066,285.730608 2.57469211,289.846044 L4.64205926,289.846044 C4.62929098,283.836904 5.11694813,280.447643 6.1050307,279.678259 C7.58715456,278.524183 9.26901082,290.309256 13.5558701,290.309256 C16.4137763,290.309256 22.8435638,290.309256 32.8452328,290.309256 C33.098937,288.864308 32.5259267,287.641929 31.1262017,286.642118 C29.7264768,285.642307 27.8860537,284.998092 25.6049324,284.709475 Z" id="Path-298" fill="#262A50" transform="translate(16.451813, 277.952935) scale(-1, 1) translate(-16.451813, -277.952935) "></path>
                        <path d="M88.2426619,283.834211 C85.3695668,285.311342 81.8569255,284.606864 79.7755958,282.136104 C77.5585674,279.504243 75.6676262,276.641462 74.1027722,273.547761 C73.0278266,271.422604 71.8100061,268.772222 70.4493109,265.596615 C66.6469167,268.924021 65.1804796,272.126962 66.0499996,275.205439 C66.5514574,276.980816 67.5085597,278.555699 68.0216046,281.506816 C68.2726493,282.950865 68.3927623,285.730608 68.3819438,289.846044 L70.4493109,289.846044 C70.4365426,283.836904 70.9241998,280.447643 71.9122823,279.678259 C73.3944062,278.524183 75.0762625,290.309256 79.3631217,290.309256 C82.2210279,290.309256 88.6508155,290.309256 98.6524844,290.309256 C98.9061887,288.864308 98.3331783,287.641929 96.9334534,286.642118 C95.5337284,285.642307 92.636798,284.706338 88.2426619,283.834211 Z" id="Path-298-Copy-2" fill="#262A50" transform="translate(82.259065, 277.952935) scale(-1, 1) translate(-82.259065, -277.952935) "></path>
                        <path d="M115.27482,146.303536 C117.006677,162.852297 96.4671962,174.631162 53.6563783,181.64013" id="Path-371" stroke="#FFFFFF" stroke-width="0.979999967"></path>
                    </g>
                    <g id="Laptop2" transform="translate(630.139979, 217.559993)">
                        <ellipse id="Oval-Copy" fill="#262A50" cx="56.8450002" cy="26.916206" rx="5.02368915" ry="5.01827569"></ellipse>
                        <line x1="93.8652325" y1="51.3139278" x2="-4.16932232e-13" y2="51.3139278" id="Path-312-Copy" stroke="#262A50" stroke-width="3.91999987"></line>
                        <polygon id="Rectangle" fill="#E8F0FF" points="18.0255841 0 93.8376203 0 93.8376203 52.9199982 18.0255841 52.9199982"></polygon>
                    </g>
                    <g id="Boy" transform="translate(207.759993, 142.099995)">
                        <path d="M75.5879569,118.69495 C79.2510047,119.507086 81.7676929,120.122179 83.1380216,120.540231 C85.1935145,121.167309 87.5909551,120.106168 91.5395607,120.540231 C95.4881663,120.974294 103.907181,122.614329 104.822529,127.708957 L76.7724172,127.708957 L75.5879569,118.69495 Z" id="Path-338" fill="#FFBA5F"></path>
                        <path d="M81.9392392,45.9944496 C91.5055366,48.0700684 97.0271534,51.0839587 98.5040894,55.0361205 C99.9810254,58.9882824 105.282433,74.1370923 114.408311,100.48255 L137.765002,77.6851596 C139.620023,78.2562453 141.269166,79.1418834 142.71243,80.342074 C144.155695,81.5422647 145.337513,83.0160215 146.257885,84.7633443 C128.149289,113.948514 115.279241,126.658317 107.647739,122.892755 C100.528275,119.379843 93.3912897,108.140846 86.236783,89.1757632 C85.7222256,87.8117805 80.314312,109.815035 76.3615573,117.085349 L79.3412802,117.888253 C79.8235192,123.083702 78.9672315,126.412859 76.7724172,127.875724 C74.7843184,130.47138 72.6565889,132.145943 70.3892288,132.899413 C68.056722,133.674531 69.7951624,141.810315 60.9343403,143.014498 C28.9042795,149.432454 11.7848835,146.69626 8.75402075,143.014498 C4.05422623,137.30539 16.4503143,127.930453 13.9333766,127.965949 C11.6981463,127.997471 9.92381269,128.034306 8.61037567,128.076453 C-2.69715799,128.439302 0.827967923,118.292614 4.05422623,110.681016 C7.28048453,103.069417 31.2921424,56.8108355 35.8077588,49.2291001 C38.8181697,44.1746098 54.1953298,43.0963929 81.9392392,45.9944496 Z" id="Path-333" fill="#4A90E2"></path>
                        <g id="Group-2" transform="translate(74.593124, 30.730462) scale(-1, 1) rotate(-4.000000) translate(-74.593124, -30.730462) translate(56.093124, 1.730462)">
                            <path d="M21.9163629,17.8785873 C24.7144137,16.0979472 26.6983496,15.9716633 27.8681709,17.4997357 C29.0379921,19.0278082 27.8776342,21.1106792 24.3870972,23.7483487" id="Path-253" stroke="#262A50" stroke-width="0.881999947"></path>
                            <path d="M11.8467682,40.4657622 L11.7299047,50.2284886 C11.7509044,54.8884934 13.7579648,57.3598502 17.7510858,57.6425589 C21.7442068,57.9252677 24.3883725,54.8761833 25.6835828,48.4953058 C25.1258633,43.4996366 24.8730774,39.7047723 24.9252249,37.1107129 C24.9773725,34.5166536 25.3027781,32.159743 25.9014418,30.0399812 C29.3157013,29.2370796 30.69058,27.6804711 30.0260778,25.3701557 C29.3615757,23.0598403 27.162346,21.603541 23.428389,21.0012578 L22.667726,10.2930059 L4.13898503,10.7741196 C4.35821687,13.9947125 4.35832971,16.2939668 4.13932354,17.6718825 C3.28440273,23.0507664 1.70961597,27.4699838 1.80974468,31.9062995 C2.01765049,41.1178005 4.98068242,40.4257499 6.99675327,40.5667607 C8.34080051,40.6607678 9.95747216,40.6271017 11.8467682,40.4657622 Z" id="Path-254" fill="#FFBA5F"></path>
                            <path d="M4.49373891,18.0660302 C0.0981988971,15.4068684 -0.702474299,12.5397241 2.09171932,9.46459728 C0.448818068,2.45723685 9.14294923,-2.54047759 19.1256273,1.63633417 C25.780746,4.42087534 30.1649903,8.13755195 32.2783603,12.786364 C36.0769202,12.819582 37.0265601,15.7700842 35.1272802,21.6378707 C33.2280003,27.5056572 29.8040476,32.5401919 24.8554221,36.7414749 C24.8637224,35.9985283 24.9213389,35.1743781 25.0282717,34.2690244 C25.1352045,33.3636706 25.3346067,32.0117543 25.6264784,30.2132756 C28.4453837,28.0180306 29.3083902,26.1069915 28.2154977,24.4801581 C27.1226052,22.8533248 25.4912889,23.0556739 23.3215488,25.0872055 L22.5169072,28.4364744 C21.0485556,27.5569722 20.4568579,25.7416989 20.7418142,22.9906547 C21.0267704,20.2396106 21.2999302,17.5948516 21.5612936,15.056378 C19.2245382,16.5697206 16.2040154,16.5697206 12.4997252,15.056378 C8.79543505,13.5430353 6.57964616,12.786364 5.85235856,12.786364 C5.3819026,14.0222125 5.04256922,15.0446957 4.83435842,15.8538136 C4.62614763,16.6629315 4.51260779,17.400337 4.49373891,18.0660302 Z" id="Path-257" fill="#262A50"></path>
                        </g>
                        <polyline id="Path-332" stroke="#262A50" stroke-width="0.979999967" points="78.3082513 117.952027 29.8146181 108.803286 47.4423965 72.8936881"></polyline>
                        <g id="Group-3" transform="translate(148.714809, 70.502115) rotate(7.000000) translate(-148.714809, -70.502115) translate(139.214809, 54.002115)">
                            <path d="M0.17087553,25.3451991 C3.61364594,18.5257786 5.78383104,14.3231798 6.68143083,12.7374029 C8.02783052,10.3587374 13.3837035,2.83383193 14.3440952,1.41938062 C15.304487,0.00492930565 16.986611,0.89991293 16.0589912,3.76271464 C15.1313713,6.62551636 12.8697669,9.94566589 12.8697669,10.8844732 L18.4219833,14.442883 C18.1994027,21.5346841 15.4397651,26.1026202 10.1430705,28.1466914 C8.88656484,29.9557514 8.65818409,31.1221293 7.7445009,31.6679188 C5.35636488,33.094474 2.83182309,30.9869008 0.17087553,25.3451991 Z" id="Path-110" fill="#FFBA5F"></path>
                            <path d="M5.1138177,18.1729245 C7.10081922,15.3007083 8.45080762,13.669694 9.16378289,13.2798819 C10.2332458,12.6951636 14.4301953,14.2934659 15.644456,14.7641921 C16.8587167,15.2349184 15.2287698,17.2733678 13.962032,17.2733678 C13.1175401,17.2733678 11.8393838,17.0956716 10.1275628,16.7402793 C10.5013221,19.1803886 9.67035884,21.2435821 7.63467296,22.92986" id="Path-139" stroke="#262A50" stroke-width="0.979999967"></path>
                            <path d="M12.8697669,10.8844732 C14.5567461,11.627002 15.5171436,12.5632329 15.7509594,13.693166 C15.8430329,14.1381183 15.9685968,14.4723889 15.9280318,15.1356462 C15.8140776,16.9988499 15.0956328,19.6717407 14.0978785,20.8890076 C13.195924,21.989398 12.3928733,22.2102672 11.6887262,21.5516153" id="Path-142" stroke="#262A50" stroke-width="0.979999967"></path>
                            <path d="M12.9421344,17.1902071 C12.4036972,19.9008133 11.883961,21.4243069 11.3829258,21.7606877 C10.4089629,22.2459221 9.74361599,21.9494753 9.38688509,20.8713472" id="Path-143" stroke="#262A50" stroke-width="0.979999967"></path>
                            <path d="M15.9260883,13.2956865 C17.4844525,12.8712619 18.2636347,13.3932263 18.2636347,14.8615799 C18.2636347,17.0641103 17.314764,20.1113437 16.1760182,20.9102605 C15.4168543,21.4428717 14.8951508,21.217191 14.6109077,20.2332184" id="Path-144" stroke="#262A50" stroke-width="0.979999967"></path>
                        </g>
                        <path d="M92.0165879,68.3797969 C88.7389626,80.9195092 85.4857288,91.9335587 82.2568865,101.421945 C79.0280443,110.910332 76.8050678,116.267465 75.5879569,117.493343" id="Path-334" stroke="#262A50" stroke-width="0.979999967"></path>
                        <path d="M62.5086695,143.014498 L104.268245,150.242644 C114.401116,151.996538 121.193619,161.632665 119.439725,171.765537 C119.407221,171.953328 119.371835,172.14061 119.33358,172.327315 L115.071131,193.130478 L115.071131,193.130478 L94.4317248,260.317682 L70.3892288,260.317682 L89.9311587,177.063046 L38.418057,177.063046 L49.1509392,143.014498 L62.5086695,143.014498 Z" id="Path-339" fill="#262A50"></path>
                        <path d="M8.75402075,143.014498 C7.41737466,170.675767 15.4090467,184.810867 32.729037,185.4198 C50.0490272,186.028732 68.6104373,186.353324 88.4132671,186.393575 L112.673619,260.317682 L132.168082,260.317682 L110.865968,176.667594 C108.601023,167.773508 101.369408,161.009324 92.3440203,159.342852 L60.7941044,153.51739 L60.7941044,153.51739 L56.5069211,143.014498" id="Path-337" fill="#1A4E8A"></path>
                        <path d="M114.457526,260.317682 L117.116204,270.852464 C120.619639,271.929543 123.212128,272.198812 124.89367,271.660273 C126.575213,271.121734 128.129115,269.431613 129.555376,266.589911 L128.001805,260.317682" id="Path-341" fill="#FFBA5F"></path>
                        <path d="M115.013195,265.583873 C116.124533,264.530433 117.772529,272.454128 123.154528,269.927512 C128.536528,267.400896 128.482701,263.353271 130.825668,265.602619 C133.168636,267.851967 141.437807,273.073227 148.289189,273.930461 C152.856778,274.50195 154.959602,276.878473 154.597663,281.06003 L117.035364,281.370269 C115.895591,281.379682 114.945409,280.500306 114.866704,279.363216 C114.276032,270.82946 114.324862,266.236346 115.013195,265.583873 Z" id="Path-324-Copy" fill="#262A50"></path>
                        <path d="M72.5954104,260.317682 L71.1374273,268.460552 C76.0715628,271.132239 79.3794018,272.198812 81.0609444,271.660273 C82.742487,271.121734 83.9910284,269.559129 84.8065684,266.972459 L85.706604,260.317682" id="Path-341-Copy" fill="#FFBA5F"></path>
                        <path d="M71.1804693,265.583873 C72.2918069,264.530433 73.9398033,272.454128 79.3218025,269.927512 C84.7038018,267.400896 84.6499748,263.353271 86.9929424,265.602619 C89.33591,267.851967 97.605081,273.073227 104.456464,273.930461 C109.024052,274.50195 111.126877,276.878473 110.764937,281.06003 L73.2026383,281.370269 C72.0628657,281.379682 71.1126832,280.500306 71.0339783,279.363216 C70.4433061,270.82946 70.4921364,266.236346 71.1804693,265.583873 Z" id="Path-324-Copy-2" fill="#262A50"></path>
                        <line x1="42.8451422" y1="82.0515441" x2="49.1509392" y2="79.1548019" id="Path-343" stroke="#262A50" stroke-width="0.979999967"></line>
                        <path d="M29.8146181,108.803286 C24.5056252,107.226112 20.3001115,108.682901 17.1980767,113.173653" id="Path-344" stroke="#262A50" stroke-width="0.979999967"></path>
                        <path d="M102.143434,127.512875 C101.354676,124.863118 97.572689,123.230269 90.7974729,122.614329" id="Path-345" stroke="#262A50" stroke-width="0.979999967"></path>
                        <path d="M99.4591633,127.512875 C99.4591633,126.287232 96.1075376,125.502463 89.4042863,125.158567" id="Path-345-Copy" stroke="#262A50" stroke-width="0.979999967"></path>
                        <path d="M122.006451,260.317682 L98.1548593,182.258114 C95.8847717,174.828754 89.2408128,169.589465 81.4869272,169.114125 L46.796497,166.987485 C41.1096949,166.638865 36.6761094,161.925163 36.6761094,156.227685 L36.6761094,143.014498 L36.6761094,143.014498" id="Path-346" stroke="#262A50" stroke-width="0.979999967"></path>
                    </g>
                    <g id="Girl" transform="translate(479.099981, 250.919997) scale(-1, 1) translate(-479.099981, -250.919997) translate(399.599981, 77.419997)">
                        <path d="M28.7016689,324.455693 C30.8084998,321.108974 32.0409414,317.877138 32.3989938,314.760183 C32.9360722,310.084751 24.9112719,276.907442 26.0261778,255.509637 C27.1410837,234.111832 32.3722149,222.692885 33.0846671,217.72372 C33.5596352,214.410944 32.7890579,209.180654 30.7729351,202.032852 L55.1169958,202.41858 C55.1169958,207.207635 55.1169958,213.175308 55.1169958,220.321598 C55.1169958,231.041033 48.6611565,261.897463 45.993224,284.303277 C43.3252916,306.709091 41.361662,334.299221 50.5506454,343.351405 L36.6683586,343.351405 L28.7016689,324.455693 Z" id="Path-348" fill="#FFBA5F"></path>
                        <path d="M49.6557139,341.483726 L48.5108926,341.687016 C43.9162194,342.50291 39.2431509,340.741462 36.3302409,337.095689 C34.8377596,335.227712 33.5197279,333.245142 32.3761458,331.147979 C31.3030536,329.180084 30.0873328,326.72583 28.7289836,323.785218 C24.9331453,326.866396 23.4692365,329.832319 24.3372573,332.682989 C24.8378505,334.326988 25.7933026,335.78533 26.305463,338.518064 C26.5560748,339.855253 26.6759808,342.429295 26.6651809,346.240188 L28.7289836,346.240188 C28.7162373,340.675725 29.2030537,337.537269 30.1894327,336.82482 C31.6690012,335.756146 33.3479577,346.669122 37.6274258,346.669122 C40.4804045,346.669122 46.8991063,346.669122 56.883531,346.669122 C57.1367978,345.331101 56.5647754,344.199178 55.1674638,343.273353 C53.7701522,342.347528 51.9329022,341.750985 49.6557139,341.483726 Z" id="Path-298" fill="#262A50"></path>
                        <path d="M66.1106332,324.455693 C68.2174641,321.108974 69.4499057,317.877138 69.807958,314.760183 C70.3450365,310.084751 62.3202362,276.907442 63.435142,255.509637 C64.5500479,234.111832 69.7811792,222.692885 70.4936313,217.72372 C70.9685994,214.410944 70.1980221,209.180654 68.1818993,202.032852 L92.52596,202.41858 C92.52596,207.207635 92.52596,213.175308 92.52596,220.321598 C92.52596,231.041033 86.0701208,261.897463 83.4021883,284.303277 C80.7342558,306.709091 78.7706263,334.299221 87.9596097,343.351405 L74.0773228,343.351405 L66.1106332,324.455693 Z" id="Path-348" fill="#FFBA5F"></path>
                        <path d="M87.0646781,341.483726 L85.9198568,341.687016 C81.3251837,342.50291 76.6521151,340.741462 73.7392052,337.095689 C72.2467238,335.227712 70.9286921,333.245142 69.7851101,331.147979 C68.7120178,329.180084 67.4962971,326.72583 66.1379479,323.785218 C62.3421095,326.866396 60.8782007,329.832319 61.7462215,332.682989 C62.2468147,334.326988 63.2022669,335.78533 63.7144273,338.518064 C63.9650391,339.855253 64.084945,342.429295 64.0741451,346.240188 L66.1379479,346.240188 C66.1252016,340.675725 66.6120179,337.537269 67.5983969,336.82482 C69.0779654,335.756146 70.7569219,346.669122 75.03639,346.669122 C77.8893688,346.669122 84.3080705,346.669122 94.2924952,346.669122 C94.545762,345.331101 93.9737396,344.199178 92.576428,343.273353 C91.1791164,342.347528 89.3418664,341.750985 87.0646781,341.483726 Z" id="Path-298" fill="#262A50"></path>
                        <path d="M76.5567007,135.303221 C84.6659275,145.137676 89.0764087,162.808234 90.7896557,186.819348 C91.9318205,202.826758 92.9968202,211.923386 93.9846549,214.109234 L28.5884289,226.820972 C26.0373801,201.255017 23.8802244,183.936438 22.1169616,174.865238 C20.3536988,165.794037 20.3951508,149.754732 22.2413176,126.747322 L61.5052413,117.860331 L76.5567007,135.303221 Z" id="Path" fill="#262A50" transform="translate(57.404772, 172.340651) scale(-1, 1) rotate(11.000000) translate(-57.404772, -172.340651) "></path>
                        <path d="M98.8519107,52.1885047 C102.362301,52.9208372 104.896349,53.3245709 106.454056,53.399706 C118.315019,53.9718122 128.71494,57.1818015 135.645091,72.4811718 C148.088134,99.9510956 157.189008,110.237763 146.414287,120.009584 C139.231139,126.524132 130.609908,133.642138 120.550592,141.363603 C118.607587,140.938849 116.968969,139.99387 115.634738,138.528667 C114.300507,137.063464 113.324717,135.3162 112.707368,133.286876 L133.522785,110.848517 L116.071547,80.2067671 C116.037448,90.8626955 117.270882,99.8057992 119.771848,107.036078 C122.049961,107.370935 122.505719,108.544925 121.139122,110.558047 C122.010516,112.187072 122.446213,113.001584 122.446213,113.001584 L79.3905848,123.955195 C80.8863966,113.965018 79.8131703,107.395316 76.170906,104.24609 C70.7075095,99.5222518 69.2035116,97.8412163 67.606896,89.6273409 C58.9122328,105.597577 51.2571758,114.08036 44.6417251,115.075691 C38.0262744,116.071023 25.8252283,102.098736 8.03858671,73.1588294 C8.99309929,71.449662 10.0993867,70.0264599 11.357449,68.8892231 C12.6155112,67.7519863 14.3671372,66.6447285 16.6123268,65.5674496 L40.9084149,95.8694756 C50.8760245,78.2001147 58.7443443,66.9707038 64.5133745,62.1812427 C69.253778,58.2457496 77.5339683,56.2555596 82.0623478,54.7918428" id="Path-2" fill="#FED36E" transform="translate(79.617931, 96.776054) scale(-1, 1) rotate(11.000000) translate(-79.617931, -96.776054) "></path>
                        <path d="M76.9683749,38.3764337 C77.4772396,43.0079045 78.1382136,46.4083209 78.9512969,48.5776828 C79.7643802,50.7470448 81.0280655,52.4677101 82.7423527,53.7396787 C80.0608727,63.9008999 75.5733416,69.128034 69.2797593,69.4210809 C62.986177,69.7141278 61.9432342,65.1611342 66.1509309,55.7621003 L65.0836061,47.8337442 C58.7594706,50.3916063 55.2488102,49.8771839 54.551625,46.2904769 C53.8544398,42.7037699 52.4232328,35.3408483 50.2580041,24.201712 C62.7576726,20.0143461 70.0336066,19.3861974 72.0858062,22.3172659 C74.1380057,25.2483344 75.7655286,30.6013903 76.9683749,38.3764337 Z" id="Path-107" fill="#FFBA5F" transform="translate(66.500178, 44.970652) scale(-1, 1) rotate(11.000000) translate(-66.500178, -44.970652) "></path>
                        <path d="M57.0896378,14.9752456 C64.3463159,10.6879754 71.0712744,9.66362261 77.2645134,11.9021873 C86.5543719,15.2600343 85.0126597,27.3768169 84.2555191,37.8234102 C78.8609099,36.6481333 76.5346041,34.6993648 77.2766016,31.9771048 C79.5857877,31.1131368 80.52102,29.8521113 80.0822985,28.1940281 C79.4242162,25.7069034 76.9675016,24.8814207 73.6236879,25.8719049 C65.4025089,27.7327662 59.8930392,27.2232827 57.0952789,24.3434543 L58.225405,30.122537 C53.4486029,25.8932105 51.0592224,22.1526664 51.0572634,18.9009049 C51.0553063,15.6491433 53.0660978,14.3405903 57.0896378,14.9752456 Z" id="Path-98" fill="#262A50" transform="translate(67.950623, 24.286876) scale(-1, 1) rotate(11.000000) translate(-67.950623, -24.286876) "></path>
                        <ellipse id="Oval" fill="#262A50" transform="translate(51.458492, 11.032659) scale(-1, 1) rotate(11.000000) translate(-51.458492, -11.032659) " cx="51.4584918" cy="11.0326587" rx="9.19480974" ry="9.44520687"></ellipse>
                        <g id="Group-3" transform="translate(144.996248, 44.548693) rotate(1.000000) translate(-144.996248, -44.548693) translate(134.996248, 28.548693)">
                            <path d="M1.08314558,25.3995341 C4.52302047,18.5654941 6.69138035,14.3538859 7.58822522,12.7647093 C8.93349253,10.3809444 14.284861,2.8399071 15.244445,1.42242349 C16.204029,0.0049398731 17.8847383,0.901842163 16.9578986,3.77078115 C16.0310589,6.63972014 13.7713567,9.9669874 13.7713567,10.9078073 C18.6243057,12.2311213 20.5592022,15.0523352 19.576046,19.3714492 C18.5928899,23.6905632 17.1270733,25.3801088 15.1785963,24.440086 C14.2988116,26.3020303 12.8851815,27.5504093 10.9377059,28.1852231 L9.29440869,31.5307369 C4.92807816,30.2308362 1.91051495,29.1979856 0.24171905,28.432185 L1.08314558,25.3995341 Z" id="Path-110" fill="#FFBA5F"></path>
                            <path d="M6.02193052,18.2118836 C8.00726089,15.3335099 9.35611389,13.6989991 10.0684895,13.3083513 C11.137053,12.7223795 15.3304727,14.3241082 16.5437121,14.7958436 C17.7569516,15.267579 16.1283755,17.3103984 14.8627031,17.3103984 C14.0189215,17.3103984 12.7418401,17.1323213 11.0314589,16.7761671 C11.4049038,19.2215075 10.5746394,21.2891241 8.54066563,22.979017" id="Path-139" stroke="#262A50" stroke-width="0.979999967"></path>
                            <path d="M16.8270494,15.168094 C16.713191,17.0352921 15.9953505,19.7139129 14.9984353,20.9337894 C14.0972395,22.0365389 13.2948641,22.2578816 12.5913092,21.5978176" id="Path-142" stroke="#262A50" stroke-width="0.979999967"></path>
                            <path d="M13.8436632,17.2270594 C13.3056789,19.9434767 12.7863799,21.4702363 12.285766,21.8073383 C11.3126223,22.2936129 10.6478349,21.9965306 10.2914041,20.9160912" id="Path-143" stroke="#262A50" stroke-width="0.979999967"></path>
                            <line x1="14.3978615" y1="14.1835474" x2="14.8875734" y2="12.0453868" id="Path-8" stroke="#262A50" stroke-width="0.979999967"></line>
                        </g>
                        <line x1="83.5581307" y1="114.176685" x2="42.1343516" y2="124.926262" id="Path-5" stroke="#262A50" stroke-width="0.979999967" transform="translate(62.846241, 119.551473) scale(-1, 1) rotate(11.000000) translate(-62.846241, -119.551473) "></line>
                        <line x1="90.8136806" y1="87.3927817" x2="89.27482" y2="79.47603" id="Path-6" stroke="#262A50" stroke-width="0.979999967" transform="translate(90.044250, 83.434406) scale(-1, 1) rotate(11.000000) translate(-90.044250, -83.434406) "></line>
                        <path d="M48.7961212,99.3161444 C54.500929,101.732827 59.7666513,101.732827 64.5932879,99.3161444" id="Path-349" stroke="#262A50" stroke-width="0.979999967"></path>
                        <path d="M86.833646,100.258405 C85.7664994,101.744291 83.3591073,102.235586 79.6114696,101.73229" id="Path-350" stroke="#262A50" stroke-width="0.979999967"></path>
                        <polygon id="Path-356" fill="#4A90E2" points="67.4110338 149.775043 76.1507688 126.237073 107.795976 135.354607 92.6430376 178.398585 59.9948289 169.14821 64.2470807 158.393239"></polygon>
                        <path d="M53.7256125,140.377139 C55.9054622,141.991329 57.8666458,142.88629 59.6091632,143.062021 C62.2229393,143.325619 63.0636601,143.257326 65.434909,144.527914 C66.1076195,144.888373 67.2740042,145.356053 68.9340634,145.930954 L67.8116079,148.355612 C66.8902149,148.389013 66.3566444,148.405713 66.2108966,148.405713 C65.5673884,148.405713 66.3399766,150.283367 72.6654584,150.853283 C78.9909402,151.423199 76.2918189,158.669602 67.9117607,158.385078 C59.5317024,158.100555 56.7483318,156.240093 48.5714392,148.405713" id="Path-351" fill="#FFBA5F"></path>
                        <path d="M75.7119932,152.540304 C75.7119932,152.540304 73.0560618,155.051527 64.2470807,151.0684" id="Path-352" stroke="#262A50" stroke-width="0.979999967"></path>
                        <path d="M75.5637856,155.494236 C70.41295,156.224101 66.1737685,155.499816 62.8462411,153.321379" id="Path-353" stroke="#262A50" stroke-width="0.979999967"></path>
                        <path d="M72.0029593,157.916228 C67.8958486,158.116471 64.3939529,157.400723 61.4972722,155.768986" id="Path-354" stroke="#262A50" stroke-width="0.979999967"></path>
                        <polygon id="Rectangle" fill="#FDC804" transform="translate(88.596414, 140.873126) rotate(16.000000) translate(-88.596414, -140.873126) " points="77.1853287 137.202851 100.001262 137.222341 100.007498 144.543402 77.1915656 144.523912"></polygon>
                    </g>
                    <g id="Table" transform="translate(135.239995, 270.479991)">
                        <polygon id="Rectangle" fill="#7FBAFF" points="42.5223802 0 611.041773 0 611.041773 10.0783429 42.5223802 10.0783429"></polygon>
                        <polyline id="Path-372" stroke="#262A50" stroke-width="0.979999967" points="615.82048 142.777722 577.674294 9.68482913 610.253602 9.68482913 653.556834 154.230384"></polyline>
                        <polyline id="Path-372-Copy" stroke="#262A50" stroke-width="0.979999967" transform="translate(37.941270, 81.957607) scale(-1, 1) translate(-37.941270, -81.957607) " points="38.1461864 142.777722 1.13686838e-13 9.68482913 32.579308 9.68482913 75.8825402 154.230384"></polyline>
                    </g>
                    <g id="Laptop1" transform="translate(322.419989, 216.579993)">
                        <polygon id="Path-263" fill="#E8F0FF" points="33.582042 51.6919447 51.1004056 0 121.864456 0 104.001466 51.6919447"></polygon>
                        <ellipse id="Oval" fill="#262A50" cx="79.7480852" cy="26.3500324" rx="5.0279849" ry="5.0245761"></ellipse>
                        <line x1="104.001466" y1="51.6919447" x2="0.262349629" y2="51.6919447" id="Path-312" stroke="#262A50" stroke-width="3.91999987"></line>
                    </g>
                    <g id="Chair" transform="translate(194.039993, 255.779991)">
                        <path d="M0.654007057,0.68129608 L4.38944401,14.1816885 M7.04212884,23.7688631 L20.5665979,72.6481888" id="Shape" stroke="#262A50" stroke-width="0.979999967"></path>
                        <path d="M17.4134902,72.5876562 L101.69081,72.5876562 L101.69081,72.5876562 C101.69081,75.1163959 99.6408611,77.1663446 97.1121213,77.1663446 L17.4134902,77.1663446 C16.1491203,77.1663446 15.124146,76.1413703 15.124146,74.8770004 C15.124146,73.6126305 16.1491203,72.5876562 17.4134902,72.5876562 Z" id="Rectangle" fill="#262A50"></path>
                        <path d="M20.5665979,74.8770004 L0.543350396,154.395486 C-0.814697763,159.788714 2.43493091,165.267153 7.80159918,166.631922 C8.60542999,166.83634 9.43139456,166.939734 10.2605629,166.939734 L93.0169329,166.939734 C98.5527638,166.939734 103.040441,162.429847 103.040441,156.866619 C103.040441,156.414344 103.010131,155.962583 102.949717,155.514401 L101.757292,146.66848 M95.1789245,97.8672906 L92.3884507,77.1663446" id="Shape" stroke="#262A50" stroke-width="0.979999967"></path>
                    </g>
                    <g id="Flowers" transform="translate(0.000000, 174.439994)">
                        <path d="M62.5340748,190.797384 C62.1523092,190.799073 61.7898831,190.965594 61.5399256,191.254157 C61.061529,191.806443 61.1214278,192.641976 61.6737133,193.120372 L66.7056086,197.479063 L66.4331976,197.811007 C61.1576698,204.239468 58.2742689,212.298238 58.2742689,220.614264 L58.2742689,228.53895 C58.2743022,228.584092 58.2743022,228.584092 58.2744686,228.629234 C58.3243308,239.901411 67.5026574,248.998895 78.7748347,248.949033 L87.9866338,248.908284 C99.3255805,248.858127 108.491101,239.651973 108.491101,228.312915 L108.491101,220.484134 C108.491101,212.114412 105.551024,204.010639 100.1843,197.587983 L99.904017,197.252554 L104.968393,192.944167 C105.265427,192.691474 105.435843,192.320604 105.434118,191.930629 C105.430886,191.199964 104.835944,190.610263 104.105279,190.613495 L62.5340748,190.797384 Z" id="Rectangle" stroke="#262A50" stroke-width="0.881999947" fill="#262A50"></path>
                        <path d="M178.884041,2.1830479 C102.077232,51.3296012 69.754575,114.143785 81.9160695,190.6256 L88.1417098,190.6256 C89.5712733,138.278771 111.860303,104.205623 155.008799,88.4061576" id="Path-373" stroke="#262A50" stroke-width="0.881999947" stroke-linecap="round"></path>
                        <g id="Mask" transform="translate(86.029673, 0.000000)">
                            <mask id="mask-2" fill="white">
                                <use xlink:href="#path-1"></use>
                            </mask>
                            <use fill="#FED36E" xlink:href="#path-1"></use>
                            <path d="M92.8543673,2.1830479 C16.0475588,51.3296012 -16.2750982,114.143785 -4.11360374,190.6256 L2.11203652,190.6256 C3.54160001,138.278771 25.8306298,104.205623 68.979126,88.4061576" stroke="#FFFFFF" stroke-width="0.881999947" stroke-linecap="round" mask="url(#mask-2)"></path>
                        </g>
                        <g id="Mask" transform="translate(99.704347, 83.877621)">
                            <mask id="mask-4" fill="white">
                                <use xlink:href="#path-3"></use>
                            </mask>
                            <use fill="#FED36E" xlink:href="#path-3"></use>
                            <path d="M-11.5626373,106.747979 C-10.1330738,54.40115 12.155956,20.3280026 55.3044522,4.52853685" stroke="#FFFFFF" stroke-width="0.881999947" stroke-linecap="round" mask="url(#mask-4)"></path>
                        </g>
                        <path d="M12.0148165,113.519945 C50.3894353,130.849793 72.9639305,156.551677 79.7383019,190.6256 L88.338101,190.6256 C88.4939256,114.291369 64.8471826,57.9036372 17.3978719,21.462404" id="Path-374-Copy" stroke="#262A50" stroke-width="0.881999947"></path>
                        <g id="Path-376-Copy" transform="translate(0.000000, 9.897029)">
                            <mask id="mask-6" fill="white">
                                <use xlink:href="#path-5"></use>
                            </mask>
                            <use fill="#FED36E" transform="translate(38.817425, 38.763365) scale(-1, 1) translate(-38.817425, -38.763365) " xlink:href="#path-5"></use>
                            <path d="M12.0148165,103.622916 C50.3894353,120.952763 72.9639305,146.654648 79.7383019,180.72857 L88.338101,180.72857 C95.3649966,106.566189 63.4599712,44.2836857 -7.37697515,-6.11893849" id="Mask" stroke="#FFFFFF" stroke-width="0.881999947" mask="url(#mask-6)"></path>
                        </g>
                        <g id="Path-375-Copy" transform="translate(11.618786, 108.521652)">
                            <mask id="mask-8" fill="white">
                                <use xlink:href="#path-7"></use>
                            </mask>
                            <use fill="#FED36E" transform="translate(27.594577, 24.281315) scale(-1, 1) translate(-27.594577, -24.281315) " xlink:href="#path-7"></use>
                            <path d="M0.396030369,4.99829368 C38.7706492,22.3281409 61.3451444,48.0300257 68.1195159,82.1039482 L76.7193149,82.1039482 C103.183911,17.701837 71.2788857,-44.580666 -18.9957612,-104.743561" id="Mask" stroke="#FFFFFF" stroke-width="0.881999947" mask="url(#mask-8)"></path>
                        </g>
                        <line x1="58.5007929" y1="219.770624" x2="108.273893" y2="219.770624" id="Path-374" stroke="#FFFFFF" stroke-width="5.29199968"></line>
                        <line x1="58.2101239" y1="225.783815" x2="108.273893" y2="225.783815" id="Path-375" stroke="#FFFFFF" stroke-width="0.881999947"></line>
                        <line x1="40.8719916" y1="248.869641" x2="122.265289" y2="248.869641" id="Path-376" stroke="#262A50" stroke-width="0.979999967"></line>
                    </g>
                </g>
            </g>
        </g>
    </g>
</svg>