<?xml version="1.0" encoding="UTF-8"?>
<svg width="42px" height="42px" viewBox="0 0 42 42" version="1.1" xmlns="http://www.w3.org/2000/svg" xmlns:xlink="http://www.w3.org/1999/xlink">
    <!-- Generator: Sketch 61.1 (89650) - https://sketch.com -->
    <title>Instagram</title>
    <desc>Created with Sketch.</desc>
    <g id="Page-1" stroke="none" stroke-width="1" fill="none" fill-rule="evenodd">
        <g id="LOGIN-Copy" transform="translate(-60.000000, -734.000000)">
            <g id="SOCIAL-ICONS" transform="translate(60.000000, 677.000000)">
                <g id="Instagram" transform="translate(0.000000, 57.000000)">
                    <circle id="Oval" fill="#000000" cx="21" cy="21" r="21"></circle>
                    <path d="M20.9999996,0 C32.5979798,0 41.9999993,9.40201952 41.9999993,20.9999996 C41.9999993,32.5979798 32.5979798,41.9999993 20.9999996,41.9999993 C9.40201952,41.9999993 0,32.5979798 0,20.9999996 C0,9.40201952 9.40201952,0 20.9999996,0 Z M20.999,9.799 C17.9592847,9.79999983 17.5775474,9.81329997 16.3828683,9.8676672 C15.1905226,9.92226777 14.3766474,10.1110364 13.6645067,10.3880059 C12.9278657,10.6740756 12.3029925,11.0567462 11.6804527,11.6795194 C11.0574462,12.3020592 10.6747756,12.9269324 10.3877726,13.66334 C10.1101031,14.3757141 9.92110109,15.1898226 9.86743387,16.3817016 C9.81399998,17.5763807 9.79999983,17.9583513 9.79999983,21.0001163 C9.79999983,24.0418813 9.81353331,24.4224519 9.8676672,25.617131 C9.92250111,26.8094767 10.1112697,27.6233519 10.3880059,28.3354926 C10.6743089,29.0721336 11.0569796,29.6970068 11.6797527,30.3195466 C12.3020592,30.942553 12.9269324,31.326157 13.6631067,31.6122267 C14.3757141,31.8891962 15.1898226,32.0779648 16.3819349,32.1325654 C17.4942224,32.1831832 17.9016291,32.198203 20.4071832,32.2000339 L21.5921934,32.2000339 C24.0980125,32.198203 24.5046102,32.1831832 25.6168977,32.1325654 C26.8092434,32.0779648 27.6240519,31.8891962 28.3366593,31.6122267 C29.0730669,31.326157 29.6970068,30.942553 30.3193132,30.3195466 C30.9423197,29.6970068 31.3249904,29.0721336 31.6119933,28.3357259 C31.8873295,27.6233519 32.0763315,26.8092434 32.1323321,25.6173643 C32.1785969,24.5874686 32.1953827,24.1624146 32.199133,22.116022 L32.199133,19.8841622 C32.1953827,17.8375783 32.1785969,17.4118307 32.1323321,16.3819349 C32.0763315,15.1895892 31.8873295,14.3757141 31.6119933,13.6635733 C31.3249904,12.9269324 30.9423197,12.3020592 30.3193132,11.6795194 C29.6963067,11.0565129 29.0733003,10.6738423 28.3359593,10.3880059 C27.6219518,10.1110364 26.80761,9.92226777 25.6152643,9.8676672 C24.461781,9.8151747 24.0674464,9.80096592 21.3029569,9.80004842 L20.999,9.799 Z" id="Combined-Shape" fill="#FFFFFF"></path>
                    <path d="M19.9963059,11.8155541 L19.9963059,11.8183542 L21.583283,11.8185179 C24.0442995,11.8200388 24.42736,11.8327888 25.5268301,11.8827548 C26.6188414,11.9326887 27.2115142,12.1151572 27.6063183,12.2684588 C28.1289904,12.4714609 28.5016277,12.7141301 28.8933984,13.1061342 C29.2854025,13.4981383 29.5280717,13.8714755 29.7315404,14.3941476 C29.884842,14.788485 30.0675439,15.3811579 30.1172445,16.4731692 C30.1653599,17.531709 30.1797152,17.9262989 30.1821703,20.1506637 L30.1821703,21.8444356 C30.1797152,24.0688003 30.1653599,24.4633903 30.1172445,25.52193 C30.0673106,26.6139414 29.884842,27.2066142 29.7315404,27.6009516 C29.5285383,28.1236237 29.2854025,28.4957943 28.8933984,28.887565 C28.5013943,29.2795691 28.1292238,29.5222383 27.6063183,29.7252404 C27.2119809,29.879242 26.6188414,30.0612439 25.5268301,30.1111777 C24.5090034,30.1574426 24.1050356,30.1724943 22.0971178,30.1757663 L19.9049098,30.1757663 C17.8968903,30.1724943 17.4930959,30.1574426 16.4752693,30.1111777 C15.3832579,30.0607772 14.7905851,29.8783086 14.3955476,29.725007 C13.8728755,29.5220049 13.4995383,29.2793357 13.1075342,28.8873317 C12.7155302,28.4953276 12.472861,28.1229237 12.2693922,27.6000183 C12.1160906,27.2056808 11.9333887,26.613008 11.8836882,25.5209967 C11.8411245,24.5845961 11.8255668,24.1677658 11.8209511,22.5432915 L11.8209511,19.4464143 C11.8255668,17.8224259 11.8411245,17.4067697 11.8836882,16.4703692 C11.933622,15.3783578 12.1160906,14.785685 12.2693922,14.3908809 C12.4723943,13.8682088 12.7155302,13.4948716 13.1075342,13.1028675 C13.4995383,12.7108634 13.8728755,12.4681942 14.3955476,12.2647255 C14.7903517,12.1107239 15.3832579,11.928722 16.4752693,11.8785548 C17.50848,11.8318876 17.9088842,11.8178875 19.9963059,11.8155541 Z M21.0009846,15.2475541 C17.82465,15.2483898 15.2493232,17.8237166 15.2493232,21.0001163 C15.2493232,24.176516 17.82465,26.7506761 21.0010497,26.7506761 C24.1774494,26.7506761 26.7518428,24.176516 26.7518428,21.0001163 C26.7518428,17.8975864 24.2955737,15.3684975 21.2214244,15.2525435 L21.0009846,15.2475541 Z M26.9795785,13.6775735 C26.2375708,13.6780402 25.6355645,14.2793464 25.6355645,15.0215875 C25.6355645,15.7635952 26.2375708,16.3656014 26.9795785,16.3656014 C27.7215862,16.3656014 28.3235925,15.7635952 28.3235925,15.0215875 C28.3235925,14.2795798 27.7215862,13.6775735 26.9795785,13.6775735 Z" id="Combined-Shape" fill="#FFFFFF"></path>
                    <path d="M21.0010497,17.2667442 C23.0628044,17.2667442 24.7344218,18.9381282 24.7344218,21.0001163 C24.7344218,23.0618711 23.0628044,24.7334885 21.0010497,24.7334885 C18.9390615,24.7334885 17.2676775,23.0618711 17.2676775,21.0001163 C17.2676775,18.9381282 18.9390615,17.2667442 21.0010497,17.2667442 L21.0010497,17.2667442 Z" id="Shape" fill="#FFFFFF"></path>
                </g>
            </g>
        </g>
    </g>
</svg>