<?xml version="1.0" encoding="UTF-8"?>
<svg width="838px" height="900px" viewBox="0 0 838 900" version="1.1" xmlns="http://www.w3.org/2000/svg" xmlns:xlink="http://www.w3.org/1999/xlink">
    <!-- Generator: Sketch 61.1 (89650) - https://sketch.com -->
    <title>Path 200</title>
    <desc>Created with Sketch.</desc>
    <g id="Page-1" stroke="none" stroke-width="1" fill="none" fill-rule="evenodd" opacity="0.100000001">
        <g id="LOGIN-LANGUAGE" stroke="#FFFFFF">
            <g id="BACKGROUND" transform="translate(-190.000000, -139.000000)">
                <g id="LEFT">
                    <path d="M0,446.80787 C98.8325736,471.906037 202.707486,442.766296 311.624738,359.388646 C475.000615,234.322171 573.627436,163.446841 612.124738,245.095288 C650.622039,326.743735 474.124738,455.557891 379.124738,571.230345 C284.124738,686.9028 262.124738,602.008467 331.624738,526.930375 C401.124738,451.852283 575.124738,283.827375 477.124738,314.935334 C379.124738,346.043294 0,638.293498 0,760.099202 C0,881.904907 363.391349,740.095288 537.258043,567.095288 C711.124738,394.095288 690.588914,151.356507 831.351793,107.174594 C972.114672,62.992682 808.624738,424.763372 570.124738,635.893658 C331.624738,847.023945 144.524735,961.698261 144.524735,1151.96779 C144.524735,1342.23732 361.41946,1318.12959 550.930946,1151.96779 C740.442432,985.805994 904.275447,798.909415 913.184782,652.713346 C922.094116,506.517278 757.753786,882.967607 612.124738,975 C466.495689,1067.03239 357.124738,1104.5035 357.124738,967.912366 C357.124738,831.321232 565.124738,816.019662 717.124738,651.41722 C869.124738,486.814778 869.145081,359.388646 952.006589,359.388646 C1034.8681,359.388646 1080.3026,0 917.124738,0 C753.94688,0 513.436324,281.501072 39.7927327,314.935334" id="Path-200"></path>
                </g>
            </g>
        </g>
    </g>
</svg>