<?xml version="1.0" encoding="UTF-8"?>
<svg width="40px" height="40px" viewBox="0 0 40 40" version="1.1" xmlns="http://www.w3.org/2000/svg" xmlns:xlink="http://www.w3.org/1999/xlink">
    <!-- Generator: Sketch 61.1 (89650) - https://sketch.com -->
    <title>SPAIN LOGO</title>
    <desc>Created with Sketch.</desc>
    <g id="Symbols" stroke="none" stroke-width="1" fill="none" fill-rule="evenodd">
        <g id="SPAIN-LOGO">
            <g>
                <path d="M37.3243531,30.0000056 C39.026056,27.0582707 40,23.6428738 40,20 C40,16.3571262 39.026056,12.9417293 37.3243531,9.99999442 L2.67564364,10 C0.973943976,12.9417293 0,16.3571262 0,20 C0,23.6428738 0.973943976,27.0582707 2.67564687,30.0000056 L37.3243564,30 L37.3243531,30.0000056 L37.3243531,30.0000056 Z" id="yellow" fill="#F2C500"></path>
                <path d="M37.3243531,30.0000056 C33.8662582,35.9780164 27.4028218,40 20,40 C12.5971783,40 6.13374171,35.9780164 2.67564687,30.0000056 L37.3243564,30 L37.3243531,30.0000056 L37.3243531,30.0000056 Z M37.3243531,9.99999442 C33.8662582,4.02198367 27.4028218,0 20,0 C12.5971783,0 6.13374171,4.02198367 2.67564687,9.99999442 L37.3243564,10 L37.3243531,9.99999442 L37.3243531,9.99999442 Z" id="red" fill="#E94B35"></path>
                <g id="emblem" transform="translate(2.888889, 10.222222)">
                    <g id="Group" transform="translate(4.222222, 6.888889)">
                        <path d="M1.54478387,10.9032748 C0.749512867,10.5126404 0.222222222,9.7250486 0.222222222,8.82381433 L0.222222222,0 L10.1616162,0 L10.1616162,8.82381433 C10.1616162,9.7250486 9.63432491,10.5126404 8.83895489,10.9032748 C7.76015638,11.426721 6.49689147,11.7414622 5.2017354,11.7414622 C3.9069782,11.7414622 2.62368182,11.426721 1.54478387,10.9032748 Z" id="path961" fill="#FFFFFF"></path>
                        <path d="M8.2504054,1.44671724 C8.25706533,1.5126396 8.22933633,1.5704222 8.24007315,1.60690064 C8.2504054,1.64378104 8.25557671,1.6728232 8.26968913,1.69935287 C8.28300591,1.72598304 8.29035984,1.79331247 8.29035984,1.79331247 C8.29035984,1.79331247 8.25229653,1.76597864 8.21701524,1.73944896 C8.18233166,1.71251733 8.15738593,1.69583571 8.15738593,1.69583571 C8.15738593,1.69583571 8.16454382,1.76778747 8.16782089,1.79863844 C8.17159693,1.82948922 8.18938789,1.88757351 8.21820822,1.92194164 C8.24673102,1.95560616 8.30377724,2.01087651 8.321368,2.0551932 C8.3396538,2.09991184 8.33597631,2.19839371 8.33597631,2.19839371 C8.33597631,2.19839371 8.28966482,2.123628 8.2499116,2.11016209 C8.21085426,2.0962942 8.12498771,2.04815887 8.12498771,2.04815887 C8.12498771,2.04815887 8.20369846,2.12714518 8.20369846,2.20231284 C8.20369846,2.27738 8.17159795,2.36279769 8.17159795,2.36279769 C8.17159795,2.36279769 8.13601915,2.29476507 8.08980622,2.25014669 C8.04319595,2.20583 7.9787958,2.16121184 7.9787958,2.16121184 C7.9787958,2.16121184 8.02908353,2.27738 8.02908353,2.35576338 C8.02908353,2.43474967 8.01507069,2.60236936 8.01507069,2.60236936 C8.01507069,2.60236936 7.97581437,2.53755242 7.93655806,2.50599822 C7.89700404,2.4755492 7.85079111,2.4482156 7.83628135,2.42801682 C7.82226851,2.40751656 7.8829912,2.49253229 7.88955051,2.54388331 C7.89651129,2.59533502 7.9206572,2.77853136 8.07907251,3.01247491 C8.17159795,3.14924467 8.31480869,3.38841416 8.62160166,3.30972933 C8.9287932,3.23144647 8.8148024,2.81400404 8.75040222,2.61905056 C8.68600184,2.42449964 8.65380175,2.20864373 8.65757882,2.1331748 C8.66085693,2.05840889 8.71452442,1.83622229 8.70746822,1.79471931 C8.70041406,1.75402029 8.68371651,1.59524356 8.72187942,1.467318 C8.76113489,1.33406624 8.79373229,1.28231304 8.8148024,1.22734418 C8.83577186,1.17277744 8.85356075,1.14192649 8.86071655,1.09409242 C8.86777071,1.04625856 8.86777071,0.956921733 8.86777071,0.956921733 C8.86777071,0.956921733 8.92471735,1.06324164 8.93912751,1.10082549 C8.95323995,1.13871078 8.95323995,1.25106033 8.95323995,1.25106033 C8.95323995,1.25106033 8.96387406,1.13871078 9.04983917,1.08414387 C9.13570573,1.02887351 9.23558533,0.971090889 9.26062962,0.940240133 C9.28557535,0.909087689 9.29292929,0.888888889 9.29292929,0.888888889 C9.29292929,0.888888889 9.28557431,1.08062669 9.23220662,1.15609584 C9.19672717,1.20503509 9.0568954,1.36451527 9.0568954,1.36451527 C9.0568954,1.36451527 9.12864951,1.33687998 9.17853993,1.33406624 C9.22852911,1.33014733 9.26410793,1.33406624 9.26410793,1.33406624 C9.26410793,1.33406624 9.20338504,1.38190031 9.12487346,1.49806827 C9.04646044,1.61403567 9.07836177,1.62428569 9.02131657,1.71995362 C8.96387406,1.81562153 8.91766113,1.81913871 8.84620473,1.87732329 C8.7388718,1.96444951 8.79671266,2.31104451 8.81072551,2.36249622 C8.82513566,2.41354598 9.01058286,2.83802209 9.01426035,2.94052358 C9.01753846,3.04322624 9.03572673,3.27224578 8.85693844,3.41926513 C8.74185322,3.51463138 8.55352295,3.51533522 8.5105902,3.54256833 C8.46755682,3.56949936 8.38248593,3.65491724 8.38248593,3.83288807 C8.38248593,4.01116016 8.44619002,4.03809118 8.496179,4.08270976 C8.54646673,4.12732833 8.61056815,4.10331029 8.62487975,4.13767842 C8.63938951,4.17164482 8.64634613,4.19224536 8.66791211,4.21274624 C8.68937849,4.23294502 8.70378969,4.25706271 8.69643471,4.29424418 C8.68938055,4.33223018 8.60718942,4.41764829 8.57866682,4.47965129 C8.54984546,4.54054869 8.49280026,4.70183789 8.49280026,4.72555384 C8.49280026,4.74967153 8.48614033,4.824839 8.5105902,4.86272451 C8.5105902,4.86272451 8.59983549,4.96804013 8.5390132,4.98853998 C8.49985649,5.00200653 8.46139584,4.96371842 8.44290984,4.96804013 C8.38954213,4.98220949 8.36171457,5.01547202 8.34631062,5.01265871 C8.3107318,5.0059244 8.3107318,4.98823891 8.30705431,4.93749022 C8.30377622,4.88644044 8.30556049,4.86553887 8.28966273,4.86553887 C8.26819635,4.86553887 8.25736306,4.88332609 8.25378515,4.91025711 C8.24990537,4.93749022 8.24990537,4.99879042 8.22526235,4.99879042 C8.20011849,4.99879042 8.16453966,4.95447393 8.14307329,4.94462524 C8.12160691,4.934272 8.06098277,4.92402471 8.05750446,4.8967916 C8.05392553,4.86945778 8.09318286,4.81137349 8.13233957,4.8010234 C8.17159589,4.79077504 8.20747242,4.77057418 8.1823296,4.75007433 C8.15718573,4.72947276 8.13233957,4.72947276 8.10759302,4.75007433 C8.0824502,4.77057418 8.02908144,4.75318976 8.03246017,4.72243842 C8.03613249,4.69158744 8.04319389,4.65430529 8.03942095,4.63702053 C8.03614286,4.62033891 7.99320802,4.58597078 8.04985693,4.55471804 C8.10719986,4.52426987 8.13194642,4.5824536 8.18899162,4.57210351 C8.24633577,4.56225378 8.27485837,4.54095149 8.29632475,4.50728616 C8.31779217,4.47322011 8.31401509,4.40126771 8.27485837,4.35705193 C8.23560206,4.31233244 8.19644515,4.30529811 8.1819354,4.27796431 C8.16752524,4.2507312 8.14645617,4.18581418 8.14645617,4.18581418 C8.14645617,4.18581418 8.15678842,4.30529811 8.14973426,4.32268358 C8.14277349,4.33966624 8.14645617,4.41121711 8.14645617,4.41121711 C8.14645617,4.41121711 8.10719986,4.36689958 8.07499977,4.33293402 C8.04319804,4.29856589 8.01099795,4.19616427 8.01099795,4.19616427 C8.01099795,4.19616427 8.00761611,4.2918326 8.00761611,4.32971791 C8.00761611,4.36689958 8.05015155,4.40126771 8.03613871,4.41513602 C8.02172855,4.42860153 7.9540482,4.34318342 7.93625931,4.32971791 C7.91807206,4.31595031 7.86112646,4.27163382 7.8359826,4.22339738 C7.81113644,4.17556373 7.7929492,4.10753131 7.78599257,4.08311151 C7.77883469,4.05929487 7.76711029,3.95267433 7.77883469,3.92574227 C7.79662462,3.88494296 7.8252468,3.81299036 7.8252468,3.81299036 L7.68601131,3.81299036 C7.61127577,3.81299036 7.55760931,3.7892744 7.52908671,3.84032416 C7.50066371,3.89167518 7.51467655,3.99447856 7.55025535,4.12773009 C7.58613191,4.26057989 7.60720097,4.325799 7.59686562,4.34991669 C7.58643066,4.37363284 7.53991897,4.42860153 7.52213009,4.43854987 C7.50394284,4.44920207 7.45395386,4.4455884 7.43248644,4.43573864 C7.41141737,4.42538542 7.37593815,4.40800309 7.30776193,4.40800309 C7.24008242,4.40800309 7.19714862,4.4112234 7.17240311,4.40519187 C7.14725922,4.39815336 7.08653655,4.36730658 7.0576156,4.37403984 C7.029093,4.38107838 6.97979906,4.40659958 6.99321646,4.44599224 C7.01508015,4.50759349 6.9721474,4.52146076 6.94332604,4.51794358 C6.91480344,4.51432467 6.89035564,4.50407633 6.85408075,4.49412693 C6.81860153,4.48357544 6.76483546,4.49412693 6.77199024,4.45272447 C6.77895102,4.41162411 6.79345764,4.40840798 6.81114695,4.37795876 C6.8292346,4.34670582 6.83589351,4.3269088 6.81581513,4.32479933 C6.79077086,4.32229231 6.76562697,4.31947062 6.74604842,4.33575258 C6.72716613,4.35173036 6.69645675,4.38609869 6.67121329,4.37333704 C6.64596984,4.35987049 6.62649106,4.330427 6.62649106,4.26591069 C6.62649106,4.20179718 6.55940824,4.1458236 6.62092037,4.14863798 C6.68233913,4.15144918 6.7604536,4.19687336 6.77446644,4.16210347 C6.78818157,4.12703149 6.77973631,4.11145547 6.74644055,4.08412167 C6.71294893,4.0575924 6.67120811,4.04161358 6.71593033,4.00684369 C6.7604536,3.97247556 6.77158462,3.97247556 6.78857889,3.95338238 C6.80527542,3.93489236 6.82922631,3.87469776 6.8604326,3.88957096 C6.92175177,3.91901422 6.86331649,3.96182336 6.92473317,4.03096244 C6.98625153,4.10040151 7.02510949,4.12492098 7.12836762,4.11386702 C7.2315272,4.10331553 7.25975226,4.08985002 7.25975226,4.06040571 C7.25975226,4.03096244 7.25111095,3.97780218 7.24812435,3.95619673 C7.24564502,3.93489236 7.26233533,3.85731229 7.26233533,3.85731229 C7.26233533,3.85731229 7.21493024,3.88705871 7.2009174,3.91610022 C7.18750104,3.94554453 7.15937575,3.99589044 7.15937575,3.99589044 C7.15937575,3.99589044 7.14794597,3.93599796 7.151222,3.88705871 C7.15311002,3.85841789 7.16314764,3.80837282 7.16205426,3.79852518 C7.15936746,3.77189522 7.13979324,3.70496736 7.13979324,3.70496736 C7.13979324,3.70496736 7.12299713,3.7772208 7.11206529,3.79852518 C7.10093426,3.81972887 7.09536875,3.90554873 7.09536875,3.90554873 C7.09536875,3.90554873 7.02987622,3.84776549 7.04806242,3.75069153 C7.06167795,3.67582513 7.03683284,3.57704138 7.05909384,3.54478376 C7.08095857,3.51252611 7.13382937,3.38168613 7.26233117,3.37605847 C7.39073422,3.37113882 7.49101093,3.38169138 7.53583275,3.37927876 C7.5804554,3.37605847 7.7393678,3.34702093 7.7393678,3.34702093 C7.7393678,3.34702093 7.44648789,3.19497724 7.3796032,3.14925411 C7.31261893,3.10423378 7.20936057,2.98655824 7.1756698,2.93309693 C7.14227775,2.87953491 7.11166797,2.77572644 7.11166797,2.77572644 C7.11166797,2.77572644 7.05909384,2.77813904 7.01139022,2.804769 C6.96398533,2.8309972 6.916679,2.87179673 6.88885249,2.90325087 C6.86062762,2.93550849 6.81630271,3.00786264 6.81630271,3.00786264 C6.81630271,3.00786264 6.82445646,2.9143048 6.82445646,2.88486049 C6.82445646,2.85612002 6.81888575,2.79914133 6.81888575,2.79914133 C6.81888575,2.79914133 6.78559229,2.92736856 6.71860884,2.9752022 C6.65162457,3.02373971 6.57351031,3.09036549 6.57351031,3.09036549 C6.57351031,3.09036549 6.58205826,3.01881589 6.58205826,3.00253602 C6.58205826,2.98655824 6.5987548,2.90365262 6.5987548,2.90365262 C6.5987548,2.90365262 6.55134889,2.9752022 6.47880013,2.98937156 C6.40625035,3.00253602 6.30001082,2.9997248 6.29156346,3.04544584 C6.28340971,3.09036549 6.31114184,3.15206742 6.29454073,3.18392331 C6.27774462,3.21618093 6.24156911,3.23748533 6.24156911,3.23748533 C6.24156911,3.23748533 6.19982829,3.20241333 6.16345484,3.19990107 C6.12717995,3.19708987 6.09358875,3.21618093 6.09358875,3.21618093 C6.09358875,3.21618093 6.06287937,3.17578338 6.0739108,3.14925411 C6.08533955,3.12262311 6.14089506,3.08262836 6.12717995,3.06634849 C6.11316711,3.05036967 6.06844489,3.07197091 6.04061731,3.0851406 C6.0128904,3.09860611 5.95405573,3.11166987 5.95962124,3.06634849 C5.96519193,3.0209264 5.9791996,2.99439609 5.96519193,2.96213844 C5.95127764,2.93058467 5.95962124,2.90897818 5.9821862,2.90083931 C6.00434864,2.89340218 6.09359393,2.90325191 6.10204126,2.88274998 C6.11019502,2.86114453 6.07987882,2.83451438 6.02104415,2.82104887 C5.96250824,2.80798407 5.93448255,2.77291313 5.96519193,2.7434688 C5.99590131,2.71402449 6.00434864,2.70628736 6.01826191,2.67935529 C6.03217517,2.65242322 6.03764109,2.60448889 6.09091024,2.62860764 C6.14348435,2.65242322 6.13235333,2.71121118 6.18870244,2.73000329 C6.24386066,2.74909647 6.37524429,2.72216756 6.40287266,2.70628736 C6.43109753,2.68990678 6.52024322,2.62328102 6.55095262,2.60700116 C6.58176053,2.59142533 6.70976522,2.495054 6.70976522,2.495054 C6.70976522,2.495054 6.63463237,2.4421954 6.60650709,2.41496229 C6.57877913,2.38833213 6.52879015,2.32451987 6.5040436,2.31105396 C6.47880117,2.29728676 6.35596364,2.24975418 6.31412429,2.24694044 C6.27228389,2.24412713 6.14388166,2.19910658 6.14388166,2.19910658 C6.14388166,2.19910658 6.20241757,2.1800132 6.22199593,2.164035 C6.24157429,2.14805682 6.28560064,2.10765927 6.30855877,2.110473 C6.33042246,2.113387 6.3358884,2.113387 6.3358884,2.113387 C6.3358884,2.113387 6.21643042,2.10765862 6.191188,2.10022256 C6.16614269,2.09168087 6.09359393,2.04635907 6.06586595,2.04635907 C6.03764109,2.04635907 5.9821862,2.05731273 5.9821862,2.05731273 C5.9821862,2.05731273 6.05731904,2.00917718 6.1187378,1.9985252 C6.18015553,1.98827476 6.22756144,1.99038527 6.22756144,1.99038527 C6.22756144,1.99038527 6.13285024,1.96375511 6.11019089,1.93189922 C6.08802842,1.89964138 6.06586595,1.852109 6.04877211,1.83050313 C6.03217517,1.80929944 6.02104415,1.77422809 5.9903358,1.77171582 C5.95962642,1.76890147 5.90655644,1.80929944 5.87594664,1.80638522 C5.84563457,1.80397367 5.82297522,1.78477958 5.81999382,1.73975947 C5.81790869,1.6941364 5.81999382,1.71001409 5.80935969,1.68629793 C5.79822866,1.66187856 5.75350726,1.60580427 5.79524726,1.59274031 C5.83748497,1.57927438 5.92663171,1.60057813 5.93478029,1.58460038 C5.94332824,1.5686222 5.887475,1.52048687 5.85120009,1.50169496 C5.8149252,1.48320451 5.75638909,1.45094687 5.78709869,1.42441698 C5.81790662,1.39778682 5.84841682,1.38723511 5.86521295,1.3631172 C5.88190949,1.33899929 5.90148784,1.27237331 5.93776169,1.293577 C5.97403657,1.31488118 6.02422473,1.41939247 6.05215189,1.41125273 C6.08027613,1.4031128 6.08236333,1.32834711 6.07729471,1.29649122 C6.0717344,1.2642336 6.07729471,1.2082598 6.10472495,1.21348531 C6.13285024,1.21881193 6.15501269,1.25609367 6.19983346,1.25920907 C6.2441584,1.26172133 6.31114286,1.24865736 6.30557735,1.28011129 C6.30000666,1.31206744 6.2747684,1.35176158 6.2441584,1.38683316 C6.21424466,1.42190473 6.20013224,1.49104296 6.21941184,1.53636456 C6.2388906,1.58208811 6.28937773,1.65444204 6.3338012,1.6834842 C6.37812611,1.7128276 6.46180589,1.73453376 6.51507502,1.76890189 C6.56794686,1.80397347 6.69088295,1.90245511 6.73272335,1.91310731 C6.77446333,1.92406076 6.81630373,1.94536493 6.81630373,1.94536493 C6.81630373,1.94536493 6.86361006,1.92406076 6.9281088,1.92406076 C6.99211166,1.92406076 7.13979429,1.93471296 7.19564651,1.91059484 C7.25149995,1.88617547 7.32404975,1.84648133 7.30178771,1.79543156 C7.27972482,1.74508544 7.15678855,1.69936169 7.16791957,1.65966756 C7.17904955,1.61967216 7.22377177,1.61685822 7.29880629,1.61404449 C7.37403873,1.61153222 7.47729684,1.6275104 7.49657749,1.52048687 C7.51615584,1.413765 7.52172135,1.35206304 7.41627644,1.32834711 C7.31003586,1.3042292 7.2318218,1.30181742 7.21274035,1.22413749 C7.19296384,1.14685953 7.17348404,1.12816811 7.19564651,1.10646196 C7.21830586,1.08555953 7.25706546,1.07460609 7.33517973,1.06968207 C7.41329502,1.06395369 7.50244071,1.06395369 7.52768417,1.04486051 C7.55282804,1.02677222 7.5579952,0.975722467 7.5887046,0.954116822 C7.61931437,0.9332146 7.73966657,0.914020733 7.73966657,0.914020733 C7.73966657,0.914020733 7.88297666,0.9849676 8.01614955,1.08485611 C8.13530855,1.17489656 8.24304004,1.30784684 8.24304004,1.30784684 C8.24305042,1.306029 8.24346535,1.37798098 8.2504054,1.44671724 Z" id="path989" fill="#9C56B8"></path>
                        <path d="M8.05132818,0.874820578 L8.02093836,0.876701667 C8.01955676,0.879836489 8.00590207,0.8981978 7.99298349,0.908318822 C7.96608749,0.930083867 7.92553236,0.932591733 7.90266069,0.914320156 C7.89154262,0.904826111 7.88603609,0.891570067 7.88804771,0.877955778 C7.87025813,0.885568933 7.85172802,0.885568933 7.83436289,0.877329378 C7.80714856,0.864073533 7.80037207,0.832455978 7.82017324,0.8062128 C7.8233454,0.801196889 7.82652862,0.794568978 7.83129131,0.790807178 L7.82927969,0.762055956 L7.79253669,0.769311022 L7.78194807,0.786328844 C7.75907529,0.808183267 7.72519167,0.813826156 7.70824873,0.800928378 C7.69999227,0.794927044 7.69395409,0.778178311 7.69448351,0.777551333 C7.69481511,0.778177733 7.68569649,0.785074733 7.67627062,0.786955822 C7.61993864,0.798689222 7.5974892,0.693805711 7.59621922,0.666666667 L7.57768913,0.688789978 C7.57768913,0.688789978 7.59431262,0.751576667 7.5859456,0.804690178 C7.57768913,0.857714311 7.55555556,0.9108278 7.55555556,0.9108278 C7.634125,0.927845644 7.75166102,0.9818548 7.86824431,1.05798709 C7.9850398,1.1334926 8.0768448,1.21562584 8.114753,1.27312811 C8.114753,1.27312811 8.17510931,1.24464578 8.2385372,1.22762796 C8.30132847,1.21025187 8.38127484,1.2098936 8.38127484,1.2098936 L8.40404042,1.19099487 C8.37058011,1.19511511 8.23779556,1.19986178 8.24044271,1.1527496 C8.24099536,1.1452262 8.24764918,1.13698569 8.24880973,1.13698569 C8.24803602,1.13761211 8.22678471,1.13600029 8.21725493,1.13098438 C8.19798318,1.1202362 8.19840651,1.09273909 8.21968656,1.06998882 L8.23821667,1.05861369 L8.23937722,1.02834002 L8.2037992,1.03246027 C8.20062702,1.03622242 8.19246891,1.040611 8.18770402,1.04446236 C8.15974916,1.06497329 8.11951124,1.06649591 8.09738122,1.04723911 C8.08403911,1.03622224 8.07990864,1.02135402 8.0856274,1.00585882 C8.06942613,1.00997907 8.05248431,1.00872533 8.03818856,1.00173858 C8.01108142,0.987855578 8.00589322,0.955342733 8.02685938,0.930084622 C8.03659693,0.917724244 8.05597811,0.903214467 8.05936693,0.901691844 L8.052061,0.8750902 L8.05128729,0.874819089 L8.05132818,0.874820578 L8.05132818,0.874820578 Z" id="path1169" fill="#F2C500"></path>
                        <path d="M5.24058512,11.3596146 C5.24058512,11.3596146 4.814101,11.1516469 4.71994089,11.1337145 C4.48667691,11.0891221 4.22454756,11.1252212 4.11111111,11.1198159 C4.11430644,11.1228082 4.24712856,11.208615 4.30539118,11.2617007 C4.36376053,11.3144972 4.55814711,11.4199946 4.6679624,11.4448972 C4.90310519,11.4983339 5.24058511,11.4455146 5.24058511,11.4455146 L5.20079952,11.7246863 L5.3212151,11.6689408 L5.3212151,11.3912173 C5.52042029,11.2617007 5.95802879,11.5379594 6.55241627,11.161169 C5.67595143,11.0039153 5.42551009,11.3420364 5.3060346,11.3612121 L5.29985725,11.2359891 L5.2210812,11.2359891 L5.24058512,11.3596146 Z" id="path1032" fill="#058E6E"></path>
                        <path d="M5.50328153,10.4487268 C5.71629749,10.5092822 5.82423971,10.6592648 5.82423971,10.8348255 C5.82423971,11.0634818 5.58959467,11.2370077 5.28493607,11.2370077 C4.98037931,11.2370077 4.73333062,11.0634818 4.73333062,10.8348255 C4.73333062,10.6619772 4.83491802,10.4688799 5.04670324,10.4549284 C5.04670324,10.4549284 5.04024462,10.4368101 5.02199827,10.4070654 C5.0000612,10.3848775 4.95669962,10.3435064 4.95669962,10.3435064 C4.95669962,10.3435064 5.03757984,10.3291675 5.08422167,10.3459235 C5.13117122,10.3626856 5.16202664,10.3906867 5.16202664,10.3906867 C5.16202664,10.3906867 5.18416873,10.3497029 5.21512667,10.3179234 C5.24639191,10.2864351 5.28688349,10.2666694 5.28688349,10.2666694 C5.28688349,10.2666694 5.33373095,10.3038748 5.34910711,10.3287751 C5.36438053,10.3544502 5.3743242,10.3848725 5.3743242,10.3848725 C5.3743242,10.3848725 5.41737847,10.3513494 5.4547948,10.3376881 C5.49210842,10.3237366 5.54028807,10.3127888 5.54028807,10.3127888 C5.54028807,10.3127888 5.5265512,10.3568723 5.51742824,10.3793505 C5.50820469,10.4016345 5.50328153,10.4487218 5.50328153,10.4487218" id="path1030" fill="#F6CB7E"></path>
                        <polygon id="path965" stroke="#262626" stroke-width="0.1" fill="#CA4638" points="0.222222222 5.57944524 5.1919192 5.57944524 5.1919192 0 0.222222222 0"></polygon>
                        <path d="M2.71285176,11.2562931 C1.33720927,11.2562931 0.222222222,10.192763 0.222222222,8.88066791 L0.222222222,4.93432455e-17 L5.1919192,4.93432455e-17 L5.1919192,5.51106771 L10.1676432,5.51106771 L10.1676432,8.88066779 C10.1676432,8.88066779 10.1676432,11.2562934 7.70431858,11.2562934 C5.24099392,11.2562938 5.1919192,8.88066791 5.1919192,8.88066791 C5.1919192,10.192763 4.08799587,11.2562931 2.71285176,11.2562931 Z" id="path977" fill="#E94B35"></path>
                        <path d="M2.37575284,1.11111111 L2.46978016,1.18323322 L2.46896344,1.53007604 L2.74752242,1.53114062 L2.7515816,1.18772224 L2.82279073,1.11269722 L3.09642589,1.11242284 L3.17958047,1.18245927 L3.19045318,1.51871007 L3.4445368,1.52002487 L3.43991651,1.18772004 L3.52769076,1.11137978 L3.87878787,1.1124224 L3.87878787,1.83359571 L3.62011111,1.83411111 L3.62013242,3.293868 L4.02020202,3.2954202 L4.02020202,4.077953 L1.11111111,4.08233124 L1.11111111,3.29979842 L1.524745,3.29851387 L1.52411111,1.83811111 L1.33333333,1.83885276 L1.33333333,1.11587758 L1.65255713,1.1140184 L1.74737696,1.1779764 L1.75146053,1.52824364 L2.02059611,1.52901189 L2.01840264,1.16740544 L2.10020404,1.11138549 L2.37575284,1.11111111 Z M2.56021659,2.89070638 C2.18771104,2.89070638 2.14632161,3.16607236 2.14632161,3.2578606 L2.14632161,3.7397524 L2.99480646,3.7397524 L2.99480646,3.2578606 C2.99480646,3.16607236 2.95341706,2.89070638 2.56021659,2.89070638 Z M3.18876253,1.77956814 C3.07306038,1.77956814 3.00694444,1.8714569 3.00694444,1.98172188 L3.00694444,1.98172188 L3.00694444,2.38602956 L3.37058082,2.38602956 L3.37058082,1.98172188 C3.37058082,1.8714569 3.30446507,1.77956814 3.18876253,1.77956814 Z M1.95959596,1.77777778 C1.84389358,1.77777778 1.77777778,1.86966644 1.77777778,1.97993151 L1.77777778,1.97993151 L1.77777778,2.3842392 L2.14141413,2.3842392 L2.14141413,1.97993151 C2.14141413,1.86966644 2.07529833,1.77777778 1.95959596,1.77777778 Z" id="path6420" fill="#F2C500"></path>
                        <g transform="translate(5.666667, 5.711114)" id="Shape">
                            <path d="M0.472044444,2.25762222 C0.480488889,2.27556667 0.485238889,2.29361667 0.485238889,2.31272222 C0.485238889,2.37753333 0.430244444,2.42925556 0.361633333,2.42925556 C0.29355,2.42925556 0.238238889,2.37753333 0.238238889,2.31272222 C0.238238889,2.29361667 0.242988889,2.27556667 0.251644444,2.25983889 L0.0791666667,2.25762222 C0.0755777778,2.27525 0.0734666667,2.29361667 0.0734666667,2.31272222 C0.0734666667,2.43485 0.157911111,2.5384 0.274444444,2.57323333 L0.274233333,2.99682778 L0.455155556,2.99788333 L0.455472222,2.57133333 C0.539494444,2.54399444 0.605572222,2.48097778 0.634494444,2.40075556 L1.12036667,2.40075556 L1.12036667,2.25762222 L0.472044444,2.25762222 L0.472044444,2.25762222 Z M2.85548889,2.25762222 L2.85548889,2.40075556 L2.41859444,2.40191667 C2.41183889,2.42102222 2.40096667,2.43865 2.39051667,2.45543333 L2.89792222,3.03197778 L2.76175556,3.14217778 L2.25677778,2.565 C2.24748889,2.56795556 2.24284444,2.57165 2.23302778,2.57428889 L2.23176111,3.52819444 L2.05295,3.52819444 L2.05252778,2.57017222 C2.04492778,2.56837778 2.03859444,2.56457778 2.03152222,2.5612 L1.50585556,3.14217778 L1.36968889,3.03197778 L1.89503889,2.44878333 C1.88585556,2.43411111 1.87920556,2.41806667 1.87318889,2.40075556 L1.42162222,2.40075556 L1.42162222,2.25762222 L2.85591111,2.25762222 L2.85548889,2.25762222 L2.85548889,2.25762222 Z M3.14650556,2.25762222 L3.14650556,2.40075556 L3.6328,2.40075556 C3.66172222,2.48097778 3.72706111,2.54399444 3.81171667,2.57133333 L3.81203333,2.99788333 L3.99263889,2.99682778 L3.99221667,2.57323333 C4.10896111,2.5384 4.19372222,2.43485 4.19372222,2.31272222 C4.19372222,2.29361667 4.19171667,2.27525 4.18728333,2.25762222 L4.01554444,2.25762222 C4.02388333,2.27556667 4.02821111,2.29361667 4.02821111,2.31272222 C4.02821111,2.37753333 3.97363889,2.42925556 3.90513333,2.42925556 C3.83715556,2.42925556 3.78163333,2.37753333 3.78163333,2.31272222 C3.78163333,2.29361667 3.78638333,2.27556667 3.79514444,2.25983889 L3.14650556,2.25762222 L3.14650556,2.25762222 Z M2.41215556,4.68972778 C2.55391667,4.66735 2.68459444,4.62829444 2.81358333,4.57403889 L2.90225,4.72508889 C2.75383889,4.78873889 2.59392222,4.83455 2.42725,4.85956667 C2.39948889,4.98285556 2.28443333,5.07542778 2.14594444,5.07542778 C2.00777222,5.07542778 1.89250556,4.98401667 1.86400556,4.86157222 C1.68793889,4.83750556 1.52095,4.79211667 1.36462222,4.72508889 L1.45371111,4.57403889 C1.58945556,4.63135556 1.73427778,4.66956667 1.88458889,4.69046667 C1.91636111,4.62164444 1.97452222,4.56844444 2.05094444,4.54363889 L2.05252778,3.80411667 L2.23091667,3.80411667 L2.23260556,4.541 C2.31177222,4.56464444 2.37858889,4.61858333 2.41183889,4.68972778 L2.41215556,4.68972778 L2.41215556,4.68972778 Z M1.19900556,4.44167222 L1.11097222,4.59346111 C0.960027778,4.49972778 0.82555,4.38403889 0.710072222,4.25420556 C0.618238889,4.28122778 0.514477778,4.26518333 0.436155556,4.20142778 C0.314977778,4.10315556 0.300305556,3.93078333 0.404066667,3.81646667 L0.419161111,3.80042222 C0.346116667,3.63543889 0.296716667,3.45810556 0.279827778,3.27222222 L0.460327778,3.27296111 C0.474472222,3.43161111 0.514055556,3.58266111 0.5757,3.72431667 C0.626472222,3.71713889 0.680727778,3.72315556 0.729388889,3.74120556 L1.18095556,3.24150556 L1.31701667,3.35138889 L0.8683,3.85024444 C0.928888889,3.94239444 0.926461111,4.06125 0.857216667,4.15192222 C0.956861111,4.26222778 1.07128333,4.36039444 1.19900556,4.44167222 L1.19900556,4.44167222 Z M0.529466667,3.91769444 C0.573905556,3.86818889 0.651805556,3.86259444 0.703633333,3.9045 C0.755566667,3.94651111 0.7619,4.02071667 0.717566667,4.06948333 C0.673022222,4.11856667 0.595227778,4.12458333 0.5434,4.08257222 C0.491572222,4.04024444 0.485238889,3.96677778 0.529466667,3.91769444 L0.529466667,3.91769444 Z M0.301888889,3.42358889 L0.116322222,3.38210556 L0.0901444444,2.91206667 L0.274233333,2.85126667 L0.274444444,3.12085556 C0.274444444,3.22535556 0.283733333,3.32436667 0.301888889,3.42358889 L0.301888889,3.42358889 Z M0.455894444,2.84081667 L0.640722222,2.88430556 C0.640722222,2.88430556 0.650222222,3.18640556 0.646316667,3.11853333 C0.641461111,3.03947222 0.666477778,3.35476667 0.666477778,3.35476667 L0.480066667,3.4162 C0.461488889,3.32025 0.455155556,3.22197778 0.455155556,3.12085556 L0.455472222,2.84081667 L0.455894444,2.84081667 L0.455894444,2.84081667 Z M1.06526667,4.34456111 C1.22096111,4.46605556 1.40188333,4.56464444 1.59737222,4.62713333 L1.63853889,4.44842778 C1.47788333,4.39776111 1.32894444,4.32366111 1.19795,4.22728889 L1.06526667,4.34456111 L1.06526667,4.34456111 Z M0.975861111,4.49898889 C1.13377222,4.61784444 1.31437778,4.71305556 1.50786111,4.77902778 L1.36968889,4.90833333 C1.21452222,4.85101667 1.06864444,4.77533333 0.9348,4.68529444 L0.975861111,4.49898889 L0.975861111,4.49898889 Z M1.21705556,3.46306667 L1.39354444,3.53801111 L1.71643889,3.17965 L1.61035556,3.02712222 L1.21705556,3.46306667 L1.21705556,3.46306667 Z M1.08015,3.35244444 L0.974277778,3.19917778 L1.29738333,2.84081667 L1.47334444,2.91607778 L1.08015,3.35244444 L1.08015,3.35244444 Z M3.06807778,4.44167222 L3.15632222,4.59346111 C3.30705556,4.49972778 3.44174444,4.38403889 3.55722222,4.25420556 C3.64863333,4.28122778 3.75281667,4.26518333 3.83103333,4.20142778 C3.95221111,4.10315556 3.96614444,3.93078333 3.86301667,3.81646667 L3.84771111,3.80042222 C3.92096667,3.63543889 3.97047222,3.45810556 3.98662222,3.27222222 L3.80707222,3.27296111 C3.79282222,3.43161111 3.75281667,3.58266111 3.69138333,3.72431667 C3.6404,3.71713889 3.58656667,3.72315556 3.53748333,3.74120556 L3.08633889,3.24150556 L2.95017222,3.35138889 L3.39857222,3.85024444 C3.33840556,3.94239444 3.34072778,4.06125 3.40965556,4.15192222 C3.31022222,4.26222778 3.19590556,4.36039444 3.06807778,4.44167222 L3.06807778,4.44167222 Z M3.7373,3.91769444 C3.69296667,3.86818889 3.61538333,3.86259444 3.56366111,3.9045 C3.51162222,3.94651111 3.50539444,4.02071667 3.54972778,4.06948333 C3.59406111,4.11856667 3.67206667,4.12458333 3.72389444,4.08257222 C3.77582778,4.04024444 3.78163333,3.96677778 3.7373,3.91769444 L3.7373,3.91769444 Z M3.96498333,3.42358889 L4.15055,3.38210556 L4.17672778,2.91206667 L3.99306111,2.85126667 L3.99263889,3.12085556 C3.99263889,3.22535556 3.98345556,3.32436667 3.96498333,3.42358889 L3.96498333,3.42358889 Z M3.8114,2.84081667 L3.62657222,2.88430556 C3.62657222,2.88430556 3.61654444,3.18640556 3.62066111,3.11853333 C3.62572778,3.03947222 3.60039444,3.35476667 3.60039444,3.35476667 L3.78680556,3.4162 C3.80548889,3.32025 3.81171667,3.22197778 3.81171667,3.12085556 L3.8114,2.84081667 L3.8114,2.84081667 Z M3.20181667,4.34456111 C3.04591111,4.46605556 2.86498889,4.56464444 2.66992222,4.62713333 L2.62875556,4.44842778 C2.78909444,4.39776111 2.93824444,4.32366111 3.06892222,4.22728889 L3.20181667,4.34456111 L3.20181667,4.34456111 Z M3.29132778,4.49898889 C3.13288889,4.61784444 2.95291667,4.71305556 2.75932778,4.77902778 L2.8975,4.90833333 C3.05266667,4.85101667 3.19865,4.77533333 3.33249444,4.68529444 L3.29132778,4.49898889 L3.29132778,4.49898889 Z M3.05023889,3.46306667 L2.87375,3.53801111 L2.55075,3.17965 L2.65683333,3.02712222 L3.05023889,3.46306667 L3.05023889,3.46306667 Z M3.18703889,3.35244444 L3.29291111,3.19917778 L2.96991111,2.84081667 L2.79384444,2.91607778 L3.18703889,3.35244444 L3.18703889,3.35244444 Z M0.976388889,2.40117778 L1.03064444,2.57724444 L1.52812778,2.57724444 L1.58175,2.40117778 L0.976388889,2.40117778 L0.976388889,2.40117778 Z M3.3003,2.40117778 L3.24572778,2.57724444 L2.74856111,2.57724444 L2.69493889,2.40117778 L3.3003,2.40117778 L3.3003,2.40117778 Z M2.02244444,4.80225 C2.02244444,4.73733333 2.07775556,4.68497778 2.14594444,4.68497778 C2.21392222,4.68497778 2.26891667,4.73733333 2.26891667,4.80225 C2.26891667,4.86674444 2.21392222,4.91878333 2.14594444,4.91878333 C2.07775556,4.91878333 2.02244444,4.86674444 2.02244444,4.80225 L2.02244444,4.80225 Z M2.23176111,3.94988889 L2.41743333,3.89785 L2.41743333,3.42738889 L2.23176111,3.37640556 L2.23176111,3.94988889 L2.23176111,3.94988889 Z M2.05178889,3.94988889 L1.86653889,3.89785 L1.86653889,3.42738889 L2.05178889,3.37640556 L2.05178889,3.94988889 L2.05178889,3.94988889 Z" fill="#F2C500"></path>
                            <path d="M0.0791666667,2.26173889 C0.100488889,2.16367778 0.177122222,2.08408889 0.275922222,2.05432222 L0.274444444,1.47355556 L0.453572222,1.47355556 L0.453888889,2.05748889 C0.542238889,2.08525 0.610216667,2.15058889 0.637555556,2.23471667 L1.12036667,2.23545556 L1.12036667,2.26173889 L0.472044444,2.26173889 C0.451988889,2.22606111 0.409872222,2.19946111 0.361633333,2.19946111 C0.313816667,2.19946111 0.271805556,2.22606111 0.251644444,2.26395556 L0.0791666667,2.26173889 L0.0791666667,2.26173889 Z M1.4212,2.26173889 L1.4212,2.23545556 L1.86970556,2.23545556 C1.87477222,2.22078333 1.88142222,2.20653333 1.88902222,2.19302222 L1.3357,1.57636667 L1.47176111,1.46595556 L2.01811667,2.07258333 C2.02751111,2.06793889 2.03753889,2.06382222 2.04725,2.06044444 L2.04777778,1.25231111 L2.22658889,1.25231111 L2.22658889,2.05548333 C2.23461111,2.05780556 2.24675,2.06002222 2.25477222,2.06234444 L2.78835556,1.45476667 L2.92547222,1.56359444 L2.38977778,2.16863889 C2.40360556,2.18890556 2.413,2.21149444 2.4206,2.23545556 L2.85517222,2.23545556 L2.85517222,2.26173889 L1.42077778,2.26173889 L1.4212,2.26173889 L1.4212,2.26173889 Z M3.79514444,2.26173889 C3.8152,2.22606111 3.85689444,2.19946111 3.90513333,2.19946111 C3.95347778,2.19946111 3.99506667,2.22606111 4.01554444,2.26395556 L4.18728333,2.26173889 C4.16585556,2.16367778 4.08996111,2.08408889 3.99105556,2.05432222 L3.99221667,1.47387222 L3.81361667,1.47387222 L3.81287778,2.05780556 C3.72505556,2.08556667 3.65697222,2.15058889 3.62963333,2.23471667 L3.14650556,2.23545556 L3.14650556,2.26173889 L3.79514444,2.26173889 L3.79514444,2.26173889 Z M0.482494444,0.621405556 L1.14802222,1.36757778 L1.28429444,1.25716667 L0.615072222,0.51395 C0.628372222,0.494 0.637872222,0.472361111 0.645894444,0.448927778 L1.13271667,0.448927778 L1.13271667,0.279194444 L0.645577778,0.279194444 C0.608211111,0.169205556 0.499066667,0.0903555556 0.3705,0.0903555556 C0.211322222,0.0903555556 0.0819111111,0.2128 0.0819111111,0.36385 C0.0819111111,0.48355 0.162872222,0.585727778 0.276133333,0.622566667 L0.275077778,1.19826667 L0.453888889,1.19826667 L0.453888889,0.626366667 C0.461488889,0.62415 0.475211111,0.62415 0.482494444,0.621405556 L0.482494444,0.621405556 Z M3.99422222,0.625205556 L3.99263889,1.19826667 L3.81361667,1.19826667 L3.81361667,0.622988889 C3.79989444,0.618661111 3.78638333,0.613066667 3.77361111,0.606627778 L3.11167222,1.35375 L2.97476667,1.24481667 L3.64937222,0.483127778 C3.64388333,0.472361111 3.63797222,0.461066667 3.63396111,0.448927778 L3.1445,0.448927778 L3.1445,0.279194444 L3.63248333,0.279194444 C3.67006111,0.169205556 3.77815,0.0903555556 3.90629444,0.0903555556 C4.06536667,0.0903555556 4.19488333,0.2128 4.19488333,0.36385 C4.19488333,0.486611111 4.11128333,0.590161111 3.99422222,0.625205556 L3.99422222,0.625205556 Z M2.22859444,0.622988889 L2.22701111,0.975861111 L2.0482,0.975861111 L2.04862222,0.625944444 C1.95953333,0.599555556 1.88933889,0.533583333 1.8601,0.448927778 L1.42352222,0.448927778 L1.42352222,0.279194444 L1.8601,0.279194444 C1.89778333,0.169205556 2.00534444,0.0903555556 2.13359444,0.0903555556 C2.26184444,0.0903555556 2.37025,0.169205556 2.40793333,0.279194444 L2.85316667,0.279194444 L2.85316667,0.448927778 L2.40677222,0.448927778 C2.37858889,0.530522222 2.31377778,0.595544444 2.22859444,0.622988889 L2.22859444,0.622988889 Z M0.276661111,1.05133333 L0.0910944444,1.10358333 L0.0910944444,1.57531111 L0.276661111,1.6264 L0.276661111,1.05133333 L0.276661111,1.05133333 Z M0.456738889,1.05133333 L0.641883333,1.10358333 L0.641883333,1.57531111 L0.456738889,1.6264 L0.456738889,1.05133333 L0.456738889,1.05133333 Z M3.81203333,1.05133333 L3.62688889,1.10358333 L3.62688889,1.57531111 L3.81203333,1.6264 L3.81203333,1.05133333 L3.81203333,1.05133333 Z M3.99221667,1.05133333 L4.17788889,1.10358333 L4.17788889,1.57531111 L3.99221667,1.6264 L3.99221667,1.05133333 L3.99221667,1.05133333 Z M1.18317222,1.14443333 L1.35987222,1.06948889 L1.68287222,1.42848333 L1.57678889,1.58164444 L1.18317222,1.14443333 L1.18317222,1.14443333 Z M1.04647778,1.25568889 L0.940816667,1.40937778 L1.26371111,1.76795 L1.43977778,1.69247778 L1.04647778,1.25568889 L1.04647778,1.25568889 Z M3.07441111,1.13060556 L2.8975,1.05703333 L2.57766667,1.41866667 L2.68491111,1.57077222 L3.07441111,1.13060556 L3.07441111,1.13060556 Z M3.21216111,1.2407 L3.3193,1.39312222 L2.99957222,1.75475556 L2.82308333,1.68076111 L3.21216111,1.2407 L3.21216111,1.2407 Z M0.976388889,2.23513889 L1.03064444,2.05896667 L1.52812778,2.05896667 L1.58175,2.23513889 L0.976388889,2.23513889 L0.976388889,2.23513889 Z M0.247,0.364166667 C0.247,0.299672222 0.302311111,0.247 0.3705,0.247 C0.438477778,0.247 0.493577778,0.299672222 0.493577778,0.364166667 C0.493577778,0.428766667 0.438477778,0.480911111 0.3705,0.480911111 C0.302311111,0.480911111 0.247,0.428766667 0.247,0.364166667 L0.247,0.364166667 Z M1.57752778,0.44935 L1.52295556,0.625944444 L1.02578889,0.625944444 L0.972061111,0.44935 L1.57752778,0.44935 L1.57752778,0.44935 Z M1.57752778,0.278455556 L1.52295556,0.102388889 L1.02578889,0.102388889 L0.972061111,0.278455556 L1.57752778,0.278455556 L1.57752778,0.278455556 Z M3.3003,2.23513889 L3.24572778,2.05896667 L2.74856111,2.05896667 L2.69493889,2.23513889 L3.3003,2.23513889 L3.3003,2.23513889 Z M3.7829,0.364166667 C3.7829,0.299672222 3.83789444,0.247 3.90629444,0.247 C3.97448333,0.247 4.02947778,0.299672222 4.02947778,0.364166667 C4.02947778,0.428766667 3.97448333,0.480911111 3.90629444,0.480911111 C3.83789444,0.480911111 3.7829,0.428766667 3.7829,0.364166667 L3.7829,0.364166667 Z M2.0102,0.364166667 C2.0102,0.299672222 2.06561667,0.247 2.13359444,0.247 C2.20178333,0.247 2.25677778,0.299672222 2.25677778,0.364166667 C2.25677778,0.428766667 2.20178333,0.480911111 2.13359444,0.480911111 C2.06561667,0.480911111 2.0102,0.428766667 2.0102,0.364166667 L2.0102,0.364166667 Z M2.69916111,0.44935 L2.75383889,0.625944444 L3.2509,0.625944444 L3.30473333,0.44935 L2.69916111,0.44935 L2.69916111,0.44935 Z M2.69916111,0.278455556 L2.75383889,0.102388889 L3.2509,0.102388889 L3.30473333,0.278455556 L2.69916111,0.278455556 L2.69916111,0.278455556 Z M2.04978333,0.829455556 L1.86453333,0.8816 L1.86453333,1.35332778 L2.04978333,1.40441667 L2.04978333,0.829455556 L2.04978333,0.829455556 Z M2.22785556,0.829455556 L2.413,0.8816 L2.413,1.35332778 L2.22785556,1.40441667 L2.22785556,0.829455556 L2.22785556,0.829455556 Z" fill="#F2C500"></path>
                            <path d="M1.85693333,2.31567778 C1.85693333,2.16431111 1.98645,2.04176111 2.14594444,2.04176111 C2.30501667,2.04176111 2.43442778,2.16431111 2.43442778,2.31567778 C2.43442778,2.46641111 2.30501667,2.58853889 2.14594444,2.58853889 C1.98645,2.58853889 1.85693333,2.46641111 1.85693333,2.31567778" fill="#058E6E"></path>
                        </g>
                        <path d="M2.9838377,5.5111084 L2.98383771,11.2405056 C2.79181638,11.2589851 2.61494929,11.2636052 2.37777711,11.2405056 L2.37777711,11.2405056 L2.3777771,5.5111084 L2.9838377,5.5111084 Z M1.85804108,5.5111084 L1.87272661,11.0905536 C1.64120017,11.0362123 1.42446054,10.9004073 1.26666599,10.8188459 L1.26666599,10.8188459 L1.26666599,5.5111084 L1.85804108,5.5111084 Z M4.09494881,5.5111084 L4.09494881,10.8324554 C3.98133132,10.9049442 3.72037594,11.045286 3.48888821,11.0905536 L3.48888821,11.0905536 L3.50367254,5.5111084 L4.09494881,5.5111084 Z M5.20605992,5.5111084 L5.19100886,9.10427438 C5.10475539,9.66055193 4.86747966,10.1485113 4.61515352,10.3627999 L4.61515352,10.3627999 L4.59999932,5.5111084 L5.20605992,5.5111084 Z M0.822221544,5.5111084 L0.807067344,10.3627999 C0.554741211,10.1485113 0.317465477,9.66055193 0.231212011,9.10427438 L0.216160944,5.5111084 L0.822221544,5.5111084 Z" id="path968" fill="#C7A200"></path>
                        <path d="M5.13116662,3.77777778 C6.00159442,3.77777778 6.70707071,4.59232364 6.70707071,5.597162 C6.70707071,6.60199931 6.00159442,7.41654642 5.13116662,7.41654642 C4.26103287,7.41654642 3.55555556,6.60199931 3.55555556,5.597162 C3.55555556,4.59232469 4.26103287,3.77777778 5.13116662,3.77777778 Z" id="path1153" fill="#E94B35"></path>
                        <path d="M5.15166731,4.22222222 C5.7876644,4.22222222 6.30303031,4.81935769 6.30303031,5.55608764 C6.30303031,6.2931178 5.7876644,6.89065256 5.15166731,6.89065256 C4.51526496,6.89065256 4,6.2931178 4,5.55608764 C4,4.81905749 4.51526496,4.22222222 5.15166731,4.22222222 Z" id="path1155" fill="#346DA6"></path>
                        <path d="M5.09509284,5.55555556 C5.09509284,5.55555556 5.23154278,5.71287718 5.23154278,5.85891604 C5.23154278,6.00495469 5.175265,6.12651191 5.175265,6.12651191 C5.1958996,6.06871376 5.24990698,6.02709509 5.3138864,6.02709509 C5.39474822,6.02709509 5.46060333,6.09394073 5.46060333,6.17685918 C5.46060333,6.20123396 5.44688198,6.23838276 5.43671,6.25903211 L5.43671,6.25903211 L5.38892329,6.36302676 C5.37263244,6.32470689 5.33580513,6.30299313 5.29255924,6.30299313 C5.23450471,6.30299313 5.18770533,6.35099827 5.18770533,6.41039302 C5.18770533,6.41976051 5.18848858,6.42870356 5.19066313,6.43700329 L5.19066313,6.43700329 L5.31012987,6.4373366 L5.31012987,6.54697198 L5.2032024,6.54697198 L5.2829788,6.71664098 L5.17782707,6.67204129 L5.09548447,6.76847842 L5.01610278,6.67204129 L4.91124804,6.71664098 L4.99072824,6.54697198 L4.88370144,6.54697198 L4.88370144,6.4373366 L5.0031688,6.43700329 C5.0054392,6.42870133 5.00652544,6.4197594 5.00652544,6.41039302 C5.00652544,6.35099827 4.95942967,6.30299313 4.90127578,6.30299313 C4.85793178,6.30299313 4.82120318,6.32470689 4.80501087,6.36302676 L4.80501087,6.36302676 L4.75722395,6.25903211 C4.74695571,6.23838276 4.73333062,6.20123396 4.73333062,6.17685918 C4.73333062,6.09394073 4.79918551,6.02709509 4.88004818,6.02709509 C4.9443236,6.02709509 4.99842929,6.06871376 5.01866958,6.12651191 C5.01866958,6.12651191 4.9623916,6.00495469 4.9623916,5.85891604 C4.9623916,5.71287718 5.09548447,5.55555556 5.09548447,5.55555556 Z M4.65094155,4.66666667 C4.65094155,4.66666667 4.78697189,4.8239878 4.78697189,4.96960022 C4.78697189,5.11606376 4.73105835,5.2376204 4.73105835,5.2376204 C4.75130975,5.17982253 4.80534638,5.13820404 4.86936075,5.13820404 C4.95066275,5.13820404 5.01615891,5.20504938 5.01615891,5.28796767 C5.01615891,5.31202347 5.00252631,5.34949098 4.99215364,5.37014022 L4.99215364,5.37014022 L4.94473542,5.47413418 C4.9286332,5.43581449 4.89139031,5.41441971 4.84802269,5.41441971 C4.78993567,5.41441971 4.74360429,5.46210573 4.74360429,5.52150022 C4.74360429,5.530441 4.74399922,5.53948513 4.74617293,5.54768482 L4.74617293,5.54768482 L4.86610084,5.54812924 L4.86610084,5.65776411 L4.75941038,5.65776411 L4.83853909,5.82743236 L4.73362678,5.78315287 L4.65123811,5.87958956 L4.57181304,5.78315287 L4.46660413,5.82743236 L4.54602944,5.65776411 L4.43933898,5.65776411 L4.43933898,5.54812924 L4.55897053,5.54768482 C4.56114422,5.53948958 4.56223107,5.53044433 4.56223107,5.52150022 C4.56223107,5.46210573 4.51501062,5.41441971 4.45702238,5.41441971 C4.41365478,5.41441971 4.37641187,5.43581449 4.3606058,5.47413418 L4.3606058,5.47413418 L4.31279264,5.37014022 C4.30251875,5.34949098 4.28888618,5.31202347 4.28888618,5.28796767 C4.28888618,5.20504938 4.35477747,5.13820404 4.43568433,5.13820404 C4.49969869,5.13820404 4.55413044,5.17982253 4.57428309,5.2376204 C4.57428309,5.2376204 4.5179744,5.11606376 4.5179744,4.96960022 C4.5179744,4.8239878 4.65123853,4.66666667 4.65123853,4.66666667 Z M5.76210373,4.66666667 C5.76210373,4.66666667 5.89815151,4.8239878 5.89815151,4.96960022 C5.89815151,5.11606376 5.84193444,5.2376204 5.84193444,5.2376204 C5.86199111,5.17982253 5.91662722,5.13820404 5.9805512,5.13820404 C6.06156809,5.13820404 6.12727002,5.20504938 6.12727002,5.28796767 C6.12727002,5.31202347 6.11383324,5.34949098 6.10345942,5.37014022 L6.10345942,5.37014022 L6.0556402,5.47413418 C6.03983142,5.43581449 6.00268284,5.41441971 5.95930955,5.41441971 C5.90111547,5.41441971 5.85438324,5.46210573 5.85438324,5.52150022 C5.85438324,5.530441 5.8550742,5.53948513 5.85734307,5.54768482 L5.85734307,5.54768482 L5.97689111,5.54812924 L5.97689111,5.65776411 L5.87018684,5.65776411 L5.94972158,5.82743236 L5.84449929,5.78315287 L5.7623956,5.87958956 L5.68256489,5.78315287 L5.57773758,5.82743236 L5.65717329,5.65776411 L5.55046902,5.65776411 L5.55046902,5.54812924 L5.67011609,5.54768482 C5.67226118,5.53948958 5.67298309,5.53044433 5.67298309,5.52150022 C5.67298309,5.46210573 5.62625087,5.41441971 5.56815578,5.41441971 C5.52478229,5.41441971 5.48763391,5.43581449 5.47133113,5.47413418 L5.47133113,5.47413418 L5.42390793,5.37014022 C5.41363209,5.34949098 5.39999729,5.31202347 5.39999729,5.28796767 C5.39999729,5.20504938 5.46550224,5.13820404 5.54681513,5.13820404 C5.61083811,5.13820404 5.66527724,5.17982253 5.68513591,5.2376204 C5.68513591,5.2376204 5.6292148,5.11606376 5.6292148,4.96960022 C5.6292148,4.8239878 5.76239764,4.66666667 5.76239764,4.66666667 Z" id="path1157" fill="#F2C500"></path>
                    </g>
                    <g id="right" transform="translate(14.222222, 5.333333)">
                        <path d="M1.16087388,2.16201698 C1.16087388,2.16201698 1.2429051,2.29106998 1.24290511,2.4098444 C1.24290511,2.52861881 1.16087386,2.64706771 1.16087386,2.64706771 L2.88721932,2.64706771 C2.88721932,2.64706771 2.73685582,2.54541026 2.73685582,2.4098444 C2.73685581,2.27427853 2.88721936,2.16201698 2.88721936,2.16201698 L3.07070706,2.16201698 L3.07070706,1.55555556 L0.888888889,1.55555556 L0.888888889,2.16201698 L1.16087388,2.16201698 Z" id="path648" fill="#C7A200"></path>
                        <path d="M1.16087388,12.4038382 C1.16087388,12.4038382 1.2429051,12.5328912 1.24290511,12.6516656 C1.24290511,12.77044 1.16087386,12.8888889 1.16087386,12.8888889 L2.88721932,12.8888889 C2.88721932,12.8888889 2.73685582,12.7872314 2.73685582,12.6516656 C2.73685581,12.5160997 2.88721936,12.4038382 2.88721936,12.4038382 L3.07070706,12.4038382 L3.07070706,11.7973767 L0.888888889,11.7973767 L0.888888889,12.4038382 L1.16087388,12.4038382 Z" id="path648" fill="#C7A200" transform="translate(1.979798, 12.343133) scale(1, -1) translate(-1.979798, -12.343133) "></path>
                        <rect id="Rectangle-1" fill="#FFFFFF" x="1.11111111" y="2.66666667" width="1.77777778" height="9.11111111"></rect>
                        <path d="M3.09288676,12.7397454 C2.99514456,12.6943623 2.86283014,12.6666667 2.7169024,12.6666667 C2.57028892,12.6666667 2.43464467,12.6947194 2.33690247,12.7403712 C2.23876854,12.787363 2.10312429,12.8163092 1.95504172,12.8163092 C1.80509861,12.8163092 1.67170689,12.7845048 1.57318115,12.7366186 C1.4762224,12.6931108 1.34635642,12.6666667 1.2041503,12.6666667 C1.0571452,12.6666667 0.926593791,12.6922174 0.828851558,12.7384949 C0.730325838,12.7861125 0.593995976,12.8163092 0.444444444,12.8163092 L0.444444444,13.9194324 C0.593995976,13.9194324 0.730325838,13.8882528 0.828851558,13.8409922 C0.926593791,13.7949834 1.0571452,13.7688964 1.2041503,13.7688964 C1.34596468,13.7688964 1.47583066,13.7956082 1.57318115,13.8394741 C1.67131514,13.8870023 1.80509861,13.9194324 1.95504172,13.9194324 C2.10312429,13.9194324 2.23876854,13.8898615 2.33690247,13.8432257 C2.43464467,13.7969482 2.57028892,13.7688964 2.7169024,13.7688964 C2.86283014,13.7688964 2.99514456,13.7969482 3.09288676,13.8426009 C3.19141245,13.8904863 3.32264956,13.9194324 3.47298463,13.9194324 L3.47474707,12.8163092 C3.32490209,12.8163092 3.19141245,12.7876316 3.09288676,12.7397454 Z" id="path656" fill="#227FBB"></path>
                        <path d="M3.47474747,13.4837587 C3.32490209,13.4837587 3.19141245,13.4548339 3.09288676,13.4069837 C2.99514456,13.3613646 2.86283014,13.3333333 2.7169024,13.3333333 C2.57028892,13.3333333 2.43464467,13.3613646 2.33690247,13.407608 C2.23876854,13.4542095 2.10312429,13.4837587 1.95504172,13.4837587 C1.80509861,13.4837587 1.67170689,13.4513524 1.57318115,13.4038592 C1.4762224,13.3600255 1.34635642,13.3333333 1.2041503,13.3333333 C1.0571452,13.3333333 0.926593791,13.3594011 0.828851558,13.4053762 C0.730325838,13.4526021 0.593995976,13.4837587 0.444444444,13.4837587 L0.444444444,13.6972102 C0.593995976,13.6972102 0.730325838,13.6666788 0.828851558,13.6194532 C0.926593791,13.5728528 1.0571452,13.5470534 1.2041503,13.5470534 C1.34596468,13.5470534 1.47583066,13.573835 1.57318115,13.6175782 C1.67131514,13.6651608 1.80509861,13.6972102 1.95504172,13.6972102 C2.10312429,13.6972102 2.23876854,13.667661 2.33690247,13.6210606 C2.43464467,13.5750846 2.57028892,13.5470534 2.7169024,13.5470534 C2.86283014,13.5470534 2.99514456,13.5750846 3.09288676,13.6207028 C3.19141245,13.6682853 3.32264956,13.6972102 3.47298463,13.6972102 L3.47474707,13.4837587" id="path657" fill="#FFFFFF"></path>
                        <path d="M1.83968,5.78144696 C2.07334082,5.78318682 2.33394984,5.8047046 2.60314756,5.8487972 C2.95248261,5.90603663 3.27133687,5.99250801 3.53225603,6.09407404 L2.8713469,6.2917028 L2.9141709,7.04275174 C2.9141709,7.04275174 3.35279889,7.03663016 3.7010995,6.93572765 C4.00704328,6.8470959 4.23916341,6.70195527 4.23491764,6.72432009 C4.23373266,6.73081427 4.57706464,5.91779629 4.58229604,5.88775416 C4.64626411,5.55012793 3.84113898,5.13516822 2.78330089,4.961897 C2.45132009,4.90753105 2.12713869,4.88640576 1.84629216,4.88911876 C1.16920122,4.88911876 0.530570185,4.95402111 0.176278874,5.08319974 L0.171837808,6.02882671 C0.519811652,5.88772894 1.16140513,5.80334811 1.83968,5.78144696 Z" id="path819" fill="#E94B35"></path>
                        <path d="M3.39143101,7.95587002 C3.1154921,7.85745858 2.88761303,7.75495033 2.60521359,7.6307894 C1.76643001,7.26133111 1.11803339,6.6824674 1.11803339,6.6824674 L1.11803339,7.4645914 C1.04148695,7.60630844 1.60863708,8.02424096 2.38017195,8.39301689 C2.62743155,8.51064293 3.14965123,8.7028824 3.39612799,8.78890678 C3.59520032,8.85772812 4.01036917,9.05980794 4.01036917,9.05980794 C4.01036917,9.05980794 3.45518663,9.366428 3.9693648,9.95341433 C4.01036919,9.60177956 4.39326393,9.45949618 4.38105647,9.4922418 L4.38105452,8.5509246 C4.42256026,8.42598382 3.99528872,8.1766864 3.39143101,7.95587002 Z" id="path825" fill="#E94B35"></path>
                        <path d="M3.47474747,13.0393143 C3.32490209,13.0393143 3.19141245,13.0103894 3.09288676,12.9625392 C2.99514456,12.9169201 2.86283014,12.8888889 2.7169024,12.8888889 C2.57028892,12.8888889 2.43464467,12.9169201 2.33690247,12.9631636 C2.23876854,13.0097651 2.10312429,13.0393143 1.95504172,13.0393143 C1.80509861,13.0393143 1.67170689,13.006908 1.57318115,12.9594147 C1.4762224,12.915581 1.34635642,12.8888889 1.2041503,12.8888889 C1.0571452,12.8888889 0.926593791,12.9149567 0.828851558,12.9609318 C0.730325838,13.0081576 0.593995976,13.0393143 0.444444444,13.0393143 L0.444444444,13.2527658 C0.593995976,13.2527658 0.730325838,13.2222344 0.828851558,13.1750087 C0.926593791,13.1284083 1.0571452,13.1026089 1.2041503,13.1026089 C1.34596468,13.1026089 1.47583066,13.1293905 1.57318115,13.1731338 C1.67131514,13.2207164 1.80509861,13.2527658 1.95504172,13.2527658 C2.10312429,13.2527658 2.23876854,13.2232165 2.33690247,13.1766162 C2.43464467,13.1306401 2.57028892,13.1026089 2.7169024,13.1026089 C2.86283014,13.1026089 2.99514456,13.1306401 3.09288676,13.1762583 C3.19141245,13.2238409 3.32264956,13.2527658 3.47298463,13.2527658 L3.47474707,13.0393143" id="path657" fill="#FFFFFF"></path>
                        <g id="crown" transform="translate(0.888889, 0.000000)">
                            <path d="M0.444755621,1.10691387 C0.419592068,1.08895831 0.343650594,1.00062041 0.343650594,1.00062041 L0.282861371,0.947418038 L0.227483653,0.853205552 C0.227483653,0.853205552 0.16164363,0.724301127 0.19185789,0.62377095 C0.222072073,0.523684111 0.272759918,0.48810503 0.318487134,0.458843873 C0.36412416,0.42947188 0.459907797,0.394003611 0.459907797,0.394003611 C0.459907797,0.394003611 0.536119861,0.352882682 0.561283414,0.346675826 C0.586446853,0.340801917 0.677811093,0.311429226 0.677811093,0.311429226 C0.677811093,0.311429226 0.703064836,0.293916773 0.728228371,0.282168069 C0.753752587,0.270419132 0.789017591,0.270419132 0.80949116,0.264212276 C0.829603892,0.25833839 0.88038187,0.238387062 0.910596036,0.236391992 C0.957585889,0.234064186 1.03217459,0.246589453 1.05769889,0.246589453 C1.08286242,0.246589453 1.16890523,0.252796542 1.20417022,0.252796542 C1.23943539,0.252796542 1.36597443,0.240715101 1.40160017,0.240715101 C1.43686516,0.240715101 1.46238946,0.235284321 1.50306583,0.240715101 C1.54338162,0.246590151 1.61418217,0.275850844 1.63465565,0.288042886 C1.65485856,0.299791822 1.77643712,0.35288338 1.82180354,0.370506669 C1.86744055,0.387686386 1.97891766,0.41151653 2.02969568,0.440888755 C2.08002255,0.470593275 2.11095842,0.520248633 2.13612196,0.561591254 C2.16164626,0.602712416 2.16633613,0.647601792 2.17643776,0.677306311 C2.18617846,0.706678304 2.18653922,0.769966834 2.1767955,0.799338849 C2.16660388,0.82860024 2.13079774,0.889228692 2.13079774,0.889228692 L2.07496891,1.00095338 L2.00416837,1.07133549 C2.00416837,1.07133549 1.95339035,1.13074473 1.91316492,1.12453786 C1.87248836,1.11943914 1.82180355,1.25359434 1.20417026,1.25359434 C0.586536973,1.25359439 0.487630217,1.12453783 0.487630217,1.12453783 C0.487993989,1.12453716 0.469919078,1.12453718 0.444755621,1.10691387 Z" id="path556" fill="#CA4638"></path>
                            <path d="M0.657564416,0.715203562 L0.633213793,0.565660051 C0.498671742,0.395202073 0.374872558,0.283363562 0.333333333,0.307322095 C0.343257949,0.275803006 0.355023758,0.252237229 0.381011338,0.237705251 C0.500615656,0.169463073 0.747497907,0.333244206 0.93309436,0.602284962 C0.949771513,0.626930606 0.965834587,0.651478273 0.97995396,0.676123918 L1.11503092,0.676123918 C1.11503092,0.676123918 1.00977444,0.426830086 1.0653524,0.304212063 C1.08347849,0.264221657 1.14929199,0.270705382 1.14929199,0.270705382 L1.14929199,0.134296152 L1.07172717,0.134296149 L1.07172717,0.0884738498 L1.14929199,0.0884738498 L1.14929199,0.00533564885 L1.20600043,0.00533564885 L1.20600043,0.0884738498 L1.27953741,0.0884738498 L1.27953741,0.134296149 L1.20405043,0.13429615 C1.20405043,0.13429615 1.20281118,0.249481447 1.20600043,0.270705382 C1.21417551,0.270705382 1.27953741,0.270705382 1.29751328,0.306620901 C1.34213596,0.380384657 1.25339084,0.676123918 1.25339084,0.676123918 L1.38337561,0.676123918 C1.38337561,0.676123918 1.41386501,0.627225184 1.43064426,0.602284962 C1.61583159,0.333244206 1.86302079,0.169463073 1.98231823,0.237705251 C2.00820339,0.252237229 2.0200717,0.275803006 2.03030303,0.307322095 C1.9884569,0.283756318 1.8649647,0.395202073 1.72970652,0.565660051 L1.71168471,0.677749131 L1.7307027,0.712982578 C1.72283083,0.723776244 1.72020792,0.736261267 1.72020792,0.749632489 C1.72020792,0.794256889 1.76794099,0.830342978 1.82647199,0.830342978 C1.86370985,0.830342978 1.89600276,0.815844067 1.91517672,0.794256889 L1.93778172,0.771541867 L1.93738145,0.799653644 C1.93738145,0.827443222 1.95241796,0.852494156 1.98662843,0.857004889 C1.98662843,0.857004889 2.02527908,0.859259911 2.0779569,0.826315556 C2.12982741,0.793693067 2.15838652,0.766386756 2.15838652,0.766386756 L2.16161616,0.799895289 C2.16161616,0.799895289 2.11065388,0.866912356 2.06403085,0.888258044 C2.0388021,0.900179244 1.96805972,1.11589576 1.93738143,1.11162652 C1.93476117,1.11130628 1.5855224,1.02746986 1.1940421,1.02707248 C0.819869962,1.02669268 0.465773399,1.12868873 0.449991941,1.13061757 C0.419212635,1.13488714 0.349274798,0.900179067 0.323743196,0.888258044 C0.277120156,0.866912356 0.222222222,0.799895289 0.222222222,0.799895289 L0.22938728,0.766386756 C0.22938728,0.766386756 0.258350042,0.793693067 0.309816922,0.826315556 C0.362091109,0.859260244 0.401145436,0.857004889 0.401145436,0.857004889 C0.435355818,0.852494 0.450392222,0.827443222 0.450392222,0.799653644 L0.449991938,0.771541867 L0.472496058,0.794256889 C0.491670013,0.815844067 0.524063849,0.830342978 0.561200802,0.830342978 C0.61453225,0.830342978 0.658846402,0.800486427 0.666422656,0.761505091 L0.657564416,0.715203562 Z" id="Combined-Shape" fill="#C7A200"></path>
                        </g>
                        <g id="group" transform="translate(0.444444, 12.888889)"></g>
                    </g>
                    <g id="left" transform="translate(0.000000, 5.333333)">
                        <path d="M1.82754054,2.16201698 C1.82754054,2.16201698 1.90957177,2.29106998 1.90957178,2.4098444 C1.90957178,2.52861881 1.82754053,2.64706771 1.82754053,2.64706771 L3.55388599,2.64706771 C3.55388599,2.64706771 3.40352249,2.54541026 3.40352249,2.4098444 C3.40352248,2.27427853 3.55388603,2.16201698 3.55388603,2.16201698 L3.73737373,2.16201698 L3.73737373,1.55555556 L1.55555556,1.55555556 L1.55555556,2.16201698 L1.82754054,2.16201698 Z" id="path648" fill="#C7A200"></path>
                        <path d="M1.82754054,12.4038382 C1.82754054,12.4038382 1.90957177,12.5328912 1.90957178,12.6516656 C1.90957178,12.77044 1.82754053,12.8888889 1.82754053,12.8888889 L3.55388599,12.8888889 C3.55388599,12.8888889 3.40352249,12.7872314 3.40352249,12.6516656 C3.40352248,12.5160997 3.55388603,12.4038382 3.55388603,12.4038382 L3.73737373,12.4038382 L3.73737373,11.7973767 L1.55555556,11.7973767 L1.55555556,12.4038382 L1.82754054,12.4038382 Z" id="path648" fill="#C7A200" transform="translate(2.646465, 12.343133) scale(1, -1) translate(-2.646465, -12.343133) "></path>
                        <rect id="Rectangle-1" fill="#FFFFFF" x="1.77777778" y="2.66666667" width="1.77777778" height="9.11111111"></rect>
                        <path d="M3.75955343,12.7397454 C3.66181123,12.6943623 3.5294968,12.6666667 3.38356907,12.6666667 C3.23695558,12.6666667 3.10131134,12.6947194 3.00356914,12.7403712 C2.9054352,12.787363 2.76979096,12.8163092 2.62170839,12.8163092 C2.47176528,12.8163092 2.33837356,12.7845048 2.23984781,12.7366186 C2.14288907,12.6931108 2.01302309,12.6666667 1.87081696,12.6666667 C1.72381187,12.6666667 1.59326046,12.6922174 1.49551822,12.7384949 C1.3969925,12.7861125 1.26066264,12.8163092 1.11111111,12.8163092 L1.11111111,13.9194324 C1.26066264,13.9194324 1.3969925,13.8882528 1.49551822,13.8409922 C1.59326046,13.7949834 1.72381187,13.7688964 1.87081696,13.7688964 C2.01263134,13.7688964 2.14249733,13.7956082 2.23984781,13.8394741 C2.33798181,13.8870023 2.47176528,13.9194324 2.62170839,13.9194324 C2.76979096,13.9194324 2.9054352,13.8898615 3.00356914,13.8432257 C3.10131134,13.7969482 3.23695558,13.7688964 3.38356907,13.7688964 C3.5294968,13.7688964 3.66181123,13.7969482 3.75955343,13.8426009 C3.85807912,13.8904863 3.98931623,13.9194324 4.13965129,13.9194324 L4.14141374,12.8163092 C3.99156876,12.8163092 3.85807912,12.7876316 3.75955343,12.7397454 Z" id="path656" fill="#227FBB"></path>
                        <path d="M4.14141414,13.4837587 C3.99156876,13.4837587 3.85807912,13.4548339 3.75955343,13.4069837 C3.66181123,13.3613646 3.5294968,13.3333333 3.38356907,13.3333333 C3.23695558,13.3333333 3.10131134,13.3613646 3.00356914,13.407608 C2.9054352,13.4542095 2.76979096,13.4837587 2.62170839,13.4837587 C2.47176528,13.4837587 2.33837356,13.4513524 2.23984781,13.4038592 C2.14288907,13.3600255 2.01302309,13.3333333 1.87081696,13.3333333 C1.72381187,13.3333333 1.59326046,13.3594011 1.49551822,13.4053762 C1.3969925,13.4526021 1.26066264,13.4837587 1.11111111,13.4837587 L1.11111111,13.6972102 C1.26066264,13.6972102 1.3969925,13.6666788 1.49551822,13.6194532 C1.59326046,13.5728528 1.72381187,13.5470534 1.87081696,13.5470534 C2.01263134,13.5470534 2.14249733,13.573835 2.23984781,13.6175782 C2.33798181,13.6651608 2.47176528,13.6972102 2.62170839,13.6972102 C2.76979096,13.6972102 2.9054352,13.667661 3.00356914,13.6210606 C3.10131134,13.5750846 3.23695558,13.5470534 3.38356907,13.5470534 C3.5294968,13.5470534 3.66181123,13.5750846 3.75955343,13.6207028 C3.85807912,13.6682853 3.98931623,13.6972102 4.13965129,13.6972102 L4.14141374,13.4837587" id="path657" fill="#FFFFFF"></path>
                        <path d="M1.74865028,5.78144696 C1.9823111,5.78318682 2.24292013,5.8047046 2.51211784,5.8487972 C2.86145289,5.90603663 3.18030715,5.99250801 3.44122631,6.09407404 L2.78031718,6.2917028 L2.82314118,7.04275174 C2.82314118,7.04275174 3.26176917,7.03663016 3.61006979,6.93572765 C3.91601356,6.8470959 4.14813369,6.70195527 4.14388792,6.72432009 C4.14270295,6.73081427 4.48603493,5.91779629 4.49126633,5.88775416 C4.55523439,5.55012793 3.75010926,5.13516822 2.69227117,4.961897 C2.36029037,4.90753105 2.03610897,4.88640576 1.75526244,4.88911876 C1.0781715,4.88911876 0.439540468,4.95402111 0.0852491571,5.08319974 L0.0808080904,6.02882671 C0.428781935,5.88772894 1.07037542,5.80334811 1.74865028,5.78144696 Z" id="path819" fill="#E94B35" transform="translate(2.287818, 5.965820) scale(-1, 1) translate(-2.287818, -5.965820) "></path>
                        <path d="M2.56314995,7.95587002 C2.28721104,7.85745858 2.05933197,7.75495033 1.77693253,7.6307894 C0.938148952,7.26133111 0.28975233,6.6824674 0.28975233,6.6824674 L0.28975233,7.4645914 C0.213205886,7.60630844 0.780356019,8.02424096 1.55189089,8.39301689 C1.79915049,8.51064293 2.32137017,8.7028824 2.56784693,8.78890678 C2.76691926,8.85772812 3.18208812,9.05980794 3.18208812,9.05980794 C3.18208812,9.05980794 2.62690557,9.366428 3.14108374,9.95341433 C3.18208814,9.60177956 3.56498287,9.45949618 3.55277541,9.4922418 L3.55277346,8.5509246 C3.5942792,8.42598382 3.16700766,8.1766864 2.56314995,7.95587002 Z" id="path825" fill="#E94B35" transform="translate(1.919193, 8.317941) scale(-1, 1) translate(-1.919193, -8.317941) "></path>
                        <path d="M4.14141414,13.0393143 C3.99156876,13.0393143 3.85807912,13.0103894 3.75955343,12.9625392 C3.66181123,12.9169201 3.5294968,12.8888889 3.38356907,12.8888889 C3.23695558,12.8888889 3.10131134,12.9169201 3.00356914,12.9631636 C2.9054352,13.0097651 2.76979096,13.0393143 2.62170839,13.0393143 C2.47176528,13.0393143 2.33837356,13.006908 2.23984781,12.9594147 C2.14288907,12.915581 2.01302309,12.8888889 1.87081696,12.8888889 C1.72381187,12.8888889 1.59326046,12.9149567 1.49551822,12.9609318 C1.3969925,13.0081576 1.26066264,13.0393143 1.11111111,13.0393143 L1.11111111,13.2527658 C1.26066264,13.2527658 1.3969925,13.2222344 1.49551822,13.1750087 C1.59326046,13.1284083 1.72381187,13.1026089 1.87081696,13.1026089 C2.01263134,13.1026089 2.14249733,13.1293905 2.23984781,13.1731338 C2.33798181,13.2207164 2.47176528,13.2527658 2.62170839,13.2527658 C2.76979096,13.2527658 2.9054352,13.2232165 3.00356914,13.1766162 C3.10131134,13.1306401 3.23695558,13.1026089 3.38356907,13.1026089 C3.5294968,13.1026089 3.66181123,13.1306401 3.75955343,13.1762583 C3.85807912,13.2238409 3.98931623,13.2527658 4.13965129,13.2527658 L4.14141374,13.0393143" id="path657" fill="#FFFFFF"></path>
                        <g id="crown" transform="translate(1.444444, 0.000000)">
                            <path d="M0.444755621,1.10691387 C0.419592068,1.08895831 0.343650594,1.00062041 0.343650594,1.00062041 L0.282861371,0.947418038 L0.227483653,0.853205552 C0.227483653,0.853205552 0.16164363,0.724301127 0.19185789,0.62377095 C0.222072073,0.523684111 0.272759918,0.48810503 0.318487134,0.458843873 C0.36412416,0.42947188 0.459907797,0.394003611 0.459907797,0.394003611 C0.459907797,0.394003611 0.536119861,0.352882682 0.561283414,0.346675826 C0.586446853,0.340801917 0.677811093,0.311429226 0.677811093,0.311429226 C0.677811093,0.311429226 0.703064836,0.293916773 0.728228371,0.282168069 C0.753752587,0.270419132 0.789017591,0.270419132 0.80949116,0.264212276 C0.829603892,0.25833839 0.88038187,0.238387062 0.910596036,0.236391992 C0.957585889,0.234064186 1.03217459,0.246589453 1.05769889,0.246589453 C1.08286242,0.246589453 1.16890523,0.252796542 1.20417022,0.252796542 C1.23943539,0.252796542 1.36597443,0.240715101 1.40160017,0.240715101 C1.43686516,0.240715101 1.46238946,0.235284321 1.50306583,0.240715101 C1.54338162,0.246590151 1.61418217,0.275850844 1.63465565,0.288042886 C1.65485856,0.299791822 1.77643712,0.35288338 1.82180354,0.370506669 C1.86744055,0.387686386 1.97891766,0.41151653 2.02969568,0.440888755 C2.08002255,0.470593275 2.11095842,0.520248633 2.13612196,0.561591254 C2.16164626,0.602712416 2.16633613,0.647601792 2.17643776,0.677306311 C2.18617846,0.706678304 2.18653922,0.769966834 2.1767955,0.799338849 C2.16660388,0.82860024 2.13079774,0.889228692 2.13079774,0.889228692 L2.07496891,1.00095338 L2.00416837,1.07133549 C2.00416837,1.07133549 1.95339035,1.13074473 1.91316492,1.12453786 C1.87248836,1.11943914 1.82180355,1.25359434 1.20417026,1.25359434 C0.586536973,1.25359439 0.487630217,1.12453783 0.487630217,1.12453783 C0.487993989,1.12453716 0.469919078,1.12453718 0.444755621,1.10691387 Z" id="path556" fill="#CA4638"></path>
                            <path d="M0.657564416,0.715203562 L0.633213793,0.565660051 C0.498671742,0.395202073 0.374872558,0.283363562 0.333333333,0.307322095 C0.343257949,0.275803006 0.355023758,0.252237229 0.381011338,0.237705251 C0.500615656,0.169463073 0.747497907,0.333244206 0.93309436,0.602284962 C0.949771513,0.626930606 0.965834587,0.651478273 0.97995396,0.676123918 L1.11503092,0.676123918 C1.11503092,0.676123918 1.00977444,0.426830086 1.0653524,0.304212063 C1.08347849,0.264221657 1.14929199,0.270705382 1.14929199,0.270705382 L1.14929199,0.134296152 L1.07172717,0.134296149 L1.07172717,0.0884738498 L1.14929199,0.0884738498 L1.14929199,0.00533564885 L1.20600043,0.00533564885 L1.20600043,0.0884738498 L1.27953741,0.0884738498 L1.27953741,0.134296149 L1.20405043,0.13429615 C1.20405043,0.13429615 1.20281118,0.249481447 1.20600043,0.270705382 C1.21417551,0.270705382 1.27953741,0.270705382 1.29751328,0.306620901 C1.34213596,0.380384657 1.25339084,0.676123918 1.25339084,0.676123918 L1.38337561,0.676123918 C1.38337561,0.676123918 1.41386501,0.627225184 1.43064426,0.602284962 C1.61583159,0.333244206 1.86302079,0.169463073 1.98231823,0.237705251 C2.00820339,0.252237229 2.0200717,0.275803006 2.03030303,0.307322095 C1.9884569,0.283756318 1.8649647,0.395202073 1.72970652,0.565660051 L1.71168471,0.677749131 L1.7307027,0.712982578 C1.72283083,0.723776244 1.72020792,0.736261267 1.72020792,0.749632489 C1.72020792,0.794256889 1.76794099,0.830342978 1.82647199,0.830342978 C1.86370985,0.830342978 1.89600276,0.815844067 1.91517672,0.794256889 L1.93778172,0.771541867 L1.93738145,0.799653644 C1.93738145,0.827443222 1.95241796,0.852494156 1.98662843,0.857004889 C1.98662843,0.857004889 2.02527908,0.859259911 2.0779569,0.826315556 C2.12982741,0.793693067 2.15838652,0.766386756 2.15838652,0.766386756 L2.16161616,0.799895289 C2.16161616,0.799895289 2.11065388,0.866912356 2.06403085,0.888258044 C2.0388021,0.900179244 1.96805972,1.11589576 1.93738143,1.11162652 C1.93476117,1.11130628 1.5855224,1.02746986 1.1940421,1.02707248 C0.819869962,1.02669268 0.465773399,1.12868873 0.449991941,1.13061757 C0.419212635,1.13488714 0.349274798,0.900179067 0.323743196,0.888258044 C0.277120156,0.866912356 0.222222222,0.799895289 0.222222222,0.799895289 L0.22938728,0.766386756 C0.22938728,0.766386756 0.258350042,0.793693067 0.309816922,0.826315556 C0.362091109,0.859260244 0.401145436,0.857004889 0.401145436,0.857004889 C0.435355818,0.852494 0.450392222,0.827443222 0.450392222,0.799653644 L0.449991938,0.771541867 L0.472496058,0.794256889 C0.491670013,0.815844067 0.524063849,0.830342978 0.561200802,0.830342978 C0.61453225,0.830342978 0.658846402,0.800486427 0.666422656,0.761505091 L0.657564416,0.715203562 Z" id="Combined-Shape" fill="#C7A200"></path>
                        </g>
                    </g>
                    <g id="crown" transform="translate(4.666667, 0.000000)">
                        <path d="M6.50670053,2.6904032 C6.72347869,2.78787898 7.01452936,2.85990064 7.33311056,2.90232429 C7.57573531,2.93468473 7.8062784,2.94129507 8.00681504,2.92600278 C8.27498996,2.92077427 8.66289187,2.99901102 9.05089322,3.16919907 C9.37204936,3.31117033 9.64012482,3.48372622 9.81818182,3.6507572 L9.66409011,3.78749956 L9.61952733,4.17572576 L9.19676598,4.65797449 L8.98553344,4.83654853 L8.48513278,5.23562718 L8.22953509,5.25644436 L8.15179553,5.47675164 C8.15179553,5.47675164 9.05089315,6.63221571 5.0093316,6.56222873 C0.967770041,6.49224181 1.66688164,5.47675164 1.66688164,5.47675164 L1.58904367,5.25644436 L1.33304967,5.23562718 L0.832747622,4.83654853 L0.621416467,4.65797449 L0.198853178,4.17572576 L0.154883733,3.78749956 L0,3.6507572 C0.178849022,3.48372622 0.447023733,3.31117033 0.767387444,3.16919907 C1.155389,2.99901102 1.54339056,2.92077387 1.8113672,2.92600278 C2.01190384,2.94129507 2.24254596,2.93468536 2.48517071,2.90232429 C2.80385096,2.85990064 3.09519871,2.78787898 3.31158031,2.6904032 C3.69076813,2.540835 4.2397934,2.44444444 4.89289956,2.44444444 C5.54640164,2.44444444 6.12790947,2.540835 6.50670053,2.6904032 Z" id="path833" fill="#E94B35"></path>
                        <circle id="Oval-1" fill="#346DA6" cx="4.77777778" cy="0.777777778" r="1"></circle>
                        <path d="M2.44597618,3.47264216 C2.4272536,3.53896842 2.41999164,3.60949964 2.42723771,3.67847938 C2.42723771,3.67847938 2.4058562,3.65679749 2.33772251,3.64342129 C2.2695886,3.63015318 2.22222222,3.64881496 2.22222222,3.64881496 C2.22222222,3.64881496 2.27368064,3.74082809 2.29465298,3.77275753 C2.31603429,3.8043636 2.35409087,3.90856618 2.41005073,3.99497013 C2.42297038,4.01502858 2.43648547,4.03372669 2.44962329,4.05061509 C2.42979951,4.04390289 2.40884522,4.03747802 2.38759373,4.03198424 C2.31168436,4.01241082 2.17812653,4.01167813 2.13778336,4.01094547 C2.09743996,4.00979387 2.01685933,4.00801407 2.01685933,4.00801407 C2.01685933,4.00801407 2.02354836,4.02612209 2.04647989,4.06558291 C2.07408331,4.11320796 2.09860776,4.14303898 2.09860776,4.14303898 C1.96494378,4.17339356 1.851133,4.26006076 1.77915191,4.36054453 C1.88362,4.43172064 2.02237989,4.47494958 2.1586982,4.46123787 C2.1586982,4.46123787 2.14680756,4.49713971 2.138208,4.55135916 C2.13109453,4.59605344 2.13151898,4.61447549 2.13151898,4.61447549 C2.13151898,4.61447549 2.20657882,4.58715656 2.24416173,4.57354929 C2.28174484,4.55983738 2.40702162,4.51702713 2.4714648,4.47421689 C2.50078751,4.45442136 2.5322878,4.43868689 2.56089173,4.42658593 L2.56089173,4.42658593 C2.59338022,4.48515593 2.60640458,4.55082713 2.60640458,4.62120624 C2.60640458,4.85696911 2.39767444,5.04764996 2.14009069,5.04764996 C1.97831233,5.04764996 1.83545504,4.97228707 1.75196316,4.85793673 L1.65395518,4.73749144 L1.65465531,4.8852182 C1.65465531,5.03362216 1.58988384,5.16674067 1.4400188,5.19024938 C1.4400188,5.19024938 1.26812931,5.20079427 1.03997798,5.0275274 C0.968977067,4.9736022 0.907890422,4.92256349 0.857436889,4.87785238 C0.874412311,4.87495547 0.887180244,4.87601044 0.890557067,4.88749382 C0.931686689,4.89543289 0.999550644,4.90543064 1.06006996,4.90925296 C1.14213353,4.91474171 1.27913447,4.89298278 1.32085164,4.88749382 C1.36198127,4.88161304 1.44512202,4.86985124 1.44512202,4.86985124 C1.44512202,4.86985124 1.43464378,4.854659 1.4024256,4.82211842 C1.36384184,4.78379484 1.32153713,4.74890153 1.32153713,4.74890153 C1.43924649,4.70430513 1.52865449,4.61717058 1.57575758,4.52454709 C1.46558891,4.48171451 1.3240832,4.46201387 1.20343627,4.4778922 C1.20343627,4.4778922 1.2074504,4.44711587 1.20490413,4.39703051 C1.20225971,4.35517847 1.19971344,4.33822198 1.19971344,4.33822198 C1.19971344,4.33822198 1.13194742,4.38458262 1.06613971,4.41535918 C1.00023449,4.44642978 0.8737116,4.51454976 0.824160178,4.57669073 C0.774510822,4.63932178 0.741705089,4.73331744 0.741705089,4.73331744 C0.741705089,4.73331744 0.807610511,4.51454976 0.747189133,4.36311753 C0.686669822,4.21207758 0.554663089,4.18580982 0.554663089,4.18580982 L0.532727111,4.29019511 C0.498904222,4.24797067 0.450998067,4.21648938 0.396293822,4.19876758 L0.396293822,4.19876758 L0.668221356,3.709772 C0.503552311,3.56647589 0.398382244,3.3565586 0.398382244,3.12236936 C0.398382244,3.0074076 0.4237982,2.89782809 0.4691772,2.79962298 C0.639591733,2.41431764 1.22776504,2.1291472 1.93084662,2.1291472 C2.06589002,2.1291472 2.19659042,2.13958979 2.32104858,2.15923744 C2.26579991,2.2610108 2.2330154,2.37017713 2.22673336,2.48312907 C2.22372593,2.51366609 2.22222222,2.54450867 2.22222222,2.57535127 C2.22222222,2.85507131 2.34813556,3.10700264 2.5470304,3.282184 L2.53797342,3.29725133 C2.5361216,3.29598371 2.53426542,3.29473011 2.53240518,3.29349069 C2.50411429,3.33201496 2.48039587,3.375906 2.46246473,3.42286902 L2.43695656,3.46530491 L2.44597618,3.47264216 L2.44597618,3.47264216 Z M2.66928567,3.42145567 C2.71454976,3.47967389 2.74954673,3.54703244 2.76698607,3.61839544 C2.76698607,3.61839544 2.77967182,3.59099651 2.83900762,3.55485993 C2.89885493,3.51947847 2.94949496,3.52055716 2.94949496,3.52055716 C2.94949496,3.52055716 2.93241027,3.62443611 2.92402138,3.66175922 C2.9153258,3.6982194 2.91450676,3.80975704 2.89169367,3.9101842 C2.88658236,3.93258422 2.88054471,3.95398071 2.87424829,3.97370691 C2.94186727,3.93623996 3.04361082,3.90123593 3.07680422,3.88951296 C3.1144436,3.87590571 3.18972282,3.84816809 3.18972282,3.84816809 C3.18972282,3.84816809 3.19004469,3.8670088 3.18291831,3.91170311 C3.17430584,3.96560853 3.162291,4.00140593 3.162291,4.00140593 C3.29902667,3.98738 3.43820778,4.03238831 3.54283311,4.10398309 C3.47085016,4.2040482 3.35601769,4.28925002 3.22257809,4.3196046 C3.22257809,4.3196046 3.24671409,4.34943562 3.27478431,4.39706067 C3.29775076,4.43694016 3.30455573,4.45462951 3.30455573,4.45462951 C3.30455573,4.45462951 3.22374764,4.4528486 3.1833436,4.45211767 C3.14293958,4.45138564 3.0091812,4.45096609 2.93315771,4.43107889 C2.88101173,4.41740078 2.83036449,4.39844558 2.79378982,4.38341562 L2.79378982,4.38341562 L2.79621362,4.38573342 C2.79391051,4.40353418 2.7925092,4.42191536 2.7925092,4.44029656 C2.7925092,4.68737864 3.01074982,4.88695956 3.28044689,4.88695956 C3.52091193,4.88695956 3.73374629,4.73439569 3.76508078,4.50888749 C3.77178844,4.51198364 3.76998587,4.34074796 3.78700509,4.3390066 C3.80722736,4.33697482 3.84707124,4.50346993 3.85377849,4.49872938 C3.91754884,4.67780098 4.10175187,4.80743676 4.31909129,4.80743676 C4.58888844,4.80743676 4.8074294,4.60679149 4.8074294,4.36019331 C4.8074294,4.30485624 4.80402593,4.25232469 4.78390336,4.20424349 L4.80012984,4.2014618 C4.79051978,4.16716629 4.78108991,4.13327149 4.77201231,4.10150118 C4.692752,4.12360556 4.6097676,4.14386282 4.62626262,4.16167442 C4.62626262,4.16167442 4.5407592,4.22106367 4.44605084,4.26223522 C4.37430776,4.29402484 4.24107076,4.31552169 4.20111869,4.32326404 C4.16088171,4.33027771 4.08097756,4.34439633 4.08097756,4.34439633 C4.08097756,4.34439633 4.08420404,4.32581447 4.09967251,4.28436967 C4.11846233,4.23299622 4.13715729,4.20056898 4.13715729,4.20056898 C3.99832122,4.19182467 3.8682158,4.12724327 3.77777778,4.04216758 C3.8682158,3.956363 3.9987008,3.89023293 4.13715729,3.88221769 C4.13715729,3.88221769 4.11846233,3.84942611 4.09967251,3.79832593 C4.08420384,3.75624351 4.08097756,3.73793491 4.08097756,3.73793491 C4.08097756,3.73793491 4.16088171,3.75241769 4.20111869,3.75979589 C4.24107076,3.76690064 4.37430776,3.78867056 4.44605084,3.82018691 C4.5407592,3.86126738 4.62483898,3.9216586 4.62483898,3.9216586 C4.61112069,3.93606053 4.66649989,3.95280458 4.73134733,3.97100909 C4.71706584,3.93218347 4.70508496,3.91128873 4.69660133,3.92031427 C4.69660133,3.92031427 4.63356216,3.84764118 4.58797027,3.75106636 C4.54185933,3.65516889 4.5191154,3.54388522 4.50208333,3.5083712 C4.48473969,3.47295396 4.44444444,3.37154056 4.44444444,3.37154056 C4.44444444,3.37154056 4.50208333,3.36166989 4.57633867,3.38692678 C4.65090558,3.41218344 4.67074164,3.43743993 4.67074164,3.43743993 C4.67191847,3.421617 4.67396607,3.40584376 4.6768278,3.39018004 L4.6768278,3.39018004 L4.22222222,2.97037891 C4.29497656,2.78302091 4.3453452,2.47701289 4.3521626,2.13039572 C4.35256622,2.1104387 4.35643662,2.0893895 4.35643662,2.06982961 C4.35643662,2.05295048 4.35521518,2.03617066 4.35561878,2.01899368 C4.35654796,1.96097132 4.35902071,1.90419803 4.362874,1.84905226 C4.15865033,1.74485337 3.90233604,1.68295446 3.624411,1.68295446 C2.95654922,1.68295446 2.43064056,2.0451247 2.40898671,2.48343444 C2.40517669,2.51366609 2.40337267,2.54410151 2.40337267,2.57535127 C2.40337267,2.85181404 2.55745611,3.09448236 2.78221538,3.2341388 L2.66928567,3.42145567 L2.66928567,3.42145567 Z M4.3807284,1.67086415 C4.38564687,1.63358784 4.3912046,1.59740523 4.39733807,1.56246379 C4.4333592,1.4083676 4.59280818,1.29349047 4.7705732,1.29349047 C4.94895467,1.29349047 5.10209522,1.4083676 5.13852316,1.56246379 C5.1471588,1.61186905 5.15461658,1.66375568 5.16077513,1.71770688 C5.39601936,1.59095535 5.69144836,1.51571269 6.0125362,1.51571269 C6.52841696,1.51571269 6.96885284,1.71580429 7.21114573,2.00628608 C7.36748584,1.97615438 7.53337084,1.96015713 7.70544409,1.96015713 C8.47360784,1.96015713 9.11984696,2.28178662 9.32620402,2.72376027 C9.38268649,2.84481556 9.4141414,2.980495 9.4141414,3.12236936 C9.4141414,3.35767591 9.32688509,3.57287409 9.18441271,3.73983282 L9.44300958,4.234978 C9.44871436,4.2346948 9.45444418,4.23455187 9.46019218,4.23455187 C9.62431951,4.23455187 9.75162527,4.36030402 9.75162527,4.5158526 C9.75162527,4.5158526 9.53755489,4.49860229 9.4109338,4.56672227 C9.28441104,4.63405793 9.17757162,4.83694749 9.17757162,4.83694749 C9.17583822,4.83339307 9.16262447,4.84116456 9.14766989,4.85058538 L9.14766989,4.85058538 L9.15151516,4.884541 C9.15151516,4.884541 8.96220622,5.16741784 8.75607953,5.28273562 C8.64345553,5.34619922 8.47236671,5.41266184 8.33631678,5.39118469 C8.19235829,5.36864358 8.08984564,5.25709876 8.03698687,5.12852713 C7.93437391,5.18686342 7.81324093,5.22091682 7.68349822,5.22091682 C7.40469071,5.22091682 7.15411496,5.07319007 7.05500578,4.85077762 C6.92676387,4.98447678 6.74816691,5.06670836 6.53873687,5.06670836 C6.31609127,5.06670836 6.11216613,4.96986853 5.98432549,4.8210776 C5.85868764,4.931655 5.68789851,4.99985878 5.49969202,4.99985878 C5.25322007,4.99985878 5.03337791,4.88318662 4.90874053,4.70711422 C4.78430358,4.88318662 4.56466144,4.99985878 4.31859033,4.99985878 C4.13048311,4.99985878 3.95929438,4.931655 3.833556,4.8210776 C3.70621571,4.96986853 3.50189053,5.06670836 3.27934527,5.06670836 C3.06981449,5.06670836 2.89121776,4.98447678 2.76287636,4.85077762 C2.66386709,5.07319007 2.41339122,5.22091682 2.134484,5.22091682 C2.00464098,5.22091682 1.88400793,5.18686342 1.78149507,5.12852713 C1.72813616,5.25709876 1.62562331,5.36864358 1.48206507,5.39118469 C1.34601513,5.41266184 1.17492671,5.34619922 1.0620022,5.28273562 C0.855774978,5.16741784 0.666666667,4.884541 0.666666667,4.884541 L0.668100289,4.87200942 C0.624024978,4.82847187 0.576147644,4.78027833 0.573954867,4.78477498 C0.573954867,4.78477498 0.466723956,4.58188542 0.340201089,4.51454976 C0.214070111,4.44642978 0,4.46368009 0,4.46368009 C0,4.33918156 0.0815540667,4.23377102 0.198216867,4.19664853 L0.452135711,3.73983282 C0.3095718,3.57287409 0.222222222,3.35767591 0.222222222,3.12236936 C0.222222222,2.980495 0.253675822,2.84481556 0.310643156,2.72376027 C0.516601133,2.28178662 1.16281296,1.96015713 1.93084662,1.96015713 C2.10299273,1.96015713 2.2690106,1.9761692 2.42543113,2.00632795 C2.66770127,1.71582352 3.10830222,1.51571269 3.624411,1.51571269 C3.90315467,1.51571269 4.16301324,1.57263555 4.3807284,1.67086415 L4.3807284,1.67086415 L4.3807284,1.67086415 Z M5.01169158,3.25171631 C5.04232431,3.3101646 5.06234084,3.37339516 5.06715176,3.43743993 C5.06715176,3.43743993 5.08646836,3.41218344 5.16113847,3.38692678 C5.2357058,3.36167029 5.29292929,3.37154056 5.29292929,3.37154056 C5.29292929,3.37154056 5.25315351,3.47295396 5.2357058,3.5083712 C5.21836216,3.54388522 5.19593002,3.65516889 5.14940367,3.75106636 C5.10422718,3.84764118 5.0411878,3.92031427 5.0411878,3.92031427 C5.03348298,3.91211733 5.02719733,3.92859911 5.02160784,3.96077844 L5.02160784,3.96077844 C5.08060998,3.94651511 5.12358844,3.93331918 5.11244022,3.9216586 C5.11244022,3.9216586 5.19666158,3.86126738 5.29142369,3.82018691 C5.36349196,3.78867056 5.49680347,3.76690064 5.53677729,3.75979589 C5.57637251,3.75241769 5.656226,3.73793491 5.656226,3.73793491 C5.656226,3.73793491 5.65347069,3.75624351 5.63752062,3.79832593 C5.61872007,3.84942611 5.60039527,3.88221769 5.60039527,3.88221769 C5.73902333,3.89023293 5.8693922,3.956363 5.95959598,4.04216758 C5.8693922,4.12724327 5.73930878,4.19182467 5.60039527,4.20056898 C5.60039527,4.20056898 5.61872007,4.23299622 5.63752062,4.28436967 C5.65309309,4.32581447 5.656226,4.34439633 5.656226,4.34439633 C5.656226,4.34439633 5.57675211,4.33027771 5.53677729,4.32326404 C5.49680347,4.31552169 5.36349196,4.29402484 5.29142369,4.26223522 C5.19666158,4.22106367 5.11111111,4.16167442 5.11111111,4.16167442 C5.12324071,4.14858367 5.07113104,4.13417184 5.00413929,4.1186766 C5.00190287,4.14415304 4.99964024,4.17074809 4.99728444,4.19762931 L5.0345044,4.20424349 C5.01468236,4.25232469 5.01057771,4.30485624 5.01057771,4.36019331 C5.01057771,4.60679149 5.229819,4.80743676 5.49971709,4.80743676 C5.71635516,4.80743676 5.90085847,4.67780098 5.96422862,4.49872938 C5.97133442,4.50346953 6.01088027,4.33697502 6.03130213,4.3390066 C6.04842084,4.34074756 6.04661931,4.51198324 6.05292676,4.50888749 C6.08426124,4.73439569 6.29749602,4.88695956 6.53756022,4.88695956 C6.80705727,4.88695956 7.0255982,4.68737864 7.0255982,4.44029656 C7.0255982,4.42191536 7.024501,4.40353418 7.02189902,4.38573342 L7.09576891,4.31500133 C7.09525122,4.29486131 7.09485493,4.27440389 7.09450047,4.25411436 L7.09450047,4.25411436 C7.04727558,4.24500178 7.0156996,4.23204349 7.02604456,4.24883247 C7.02604456,4.24883247 6.93141444,4.29457347 6.83157471,4.32084571 C6.75608393,4.34073291 6.62136809,4.34115247 6.58139024,4.34188449 C6.54098622,4.34261542 6.46071089,4.34439633 6.46071089,4.34439633 C6.46071089,4.34439633 6.46698373,4.32670698 6.49026947,4.28682749 C6.51812667,4.23920244 6.54226253,4.20937142 6.54226253,4.20937142 C6.40882324,4.17901684 6.29441676,4.09381502 6.22222222,3.99374991 C6.32642144,3.92215513 6.46581396,3.87714682 6.60244296,3.89117276 C6.60244296,3.89117276 6.5905354,3.85537536 6.58213384,3.80146993 C6.57510849,3.75677562 6.57544144,3.73793491 6.57544144,3.73793491 C6.57544144,3.73793491 6.65029518,3.76567253 6.68793347,3.77927978 C6.72546764,3.79257302 6.85146318,3.83580196 6.91557802,3.8786122 C6.98641778,3.92601231 7.04772564,3.98545569 7.065514,4.00324682 C7.05381427,3.97860662 7.02423058,3.91195338 7.00616102,3.83275509 C6.98335473,3.73232793 6.98304509,3.62079029 6.97424718,3.58433011 C6.96545031,3.547007 6.94826553,3.44312804 6.94826553,3.44312804 C6.94826553,3.44312804 6.9617172,3.44284433 6.98283949,3.4473404 L6.98283949,3.4473404 L6.85432113,3.2341388 C7.07895038,3.09448236 7.23311318,2.85181404 7.23311318,2.57535127 C7.23311318,2.54410151 7.23131356,2.51366609 7.22759924,2.48343444 C7.2062498,2.0451247 6.67960824,1.68295446 6.0125362,1.68295446 C5.68783918,1.68295446 5.39340147,1.76712099 5.17631236,1.90437864 C5.17833631,1.94194962 5.179759,1.98019235 5.18054749,2.01899368 C5.18086611,2.03617066 5.17932602,2.05295048 5.17932602,2.06982961 C5.17985709,2.0893895 5.1835958,2.1104387 5.18390382,2.13039572 C5.19001107,2.47701289 5.24078418,2.78302091 5.31313131,2.97037891 L5.01169158,3.25171631 L5.01169158,3.25171631 Z M7.17577542,3.42577167 C7.22144098,3.34017409 7.29012971,3.26640927 7.36539958,3.21606158 C7.44191164,3.32026413 7.48538344,3.46373147 7.47014296,3.60105027 C7.47014296,3.60105027 7.49152171,3.57936838 7.55974836,3.56599218 C7.62787249,3.55272407 7.67553824,3.57138584 7.67553824,3.57138584 C7.67553824,3.57138584 7.62367853,3.66339898 7.60270871,3.69532842 C7.58214891,3.72693449 7.54368893,3.83113707 7.48814562,3.91754102 C7.43209193,4.00394498 7.36580851,4.06510736 7.36580851,4.06510736 C7.36241642,4.05917609 7.35724542,4.06188762 7.35067218,4.07120333 C7.37302173,4.0691604 7.38539929,4.06492573 7.38007333,4.05645456 C7.38007333,4.05645456 7.47301558,4.00998089 7.5729684,3.98412731 C7.64902122,3.96455389 7.7830702,3.9638212 7.82290276,3.96308853 C7.86337173,3.96193693 7.94399258,3.96015713 7.94399258,3.96015713 C7.94399258,3.96015713 7.93761731,3.97826516 7.91446353,4.01772598 C7.88663418,4.06535102 7.86220422,4.09518204 7.86220422,4.09518204 C7.99582833,4.12553662 8.10969471,4.21220382 8.18181818,4.3126876 C8.07772311,4.38386371 7.93889458,4.42709264 7.80208396,4.41338093 C7.80208396,4.41338093 7.81429893,4.44928278 7.82268989,4.50350222 C7.82927578,4.54819651 7.82895424,4.56661856 7.82895424,4.56661856 C7.82895424,4.56661856 7.75375049,4.53929962 7.7166798,4.52569236 C7.67907802,4.51198044 7.55363309,4.4691702 7.48915771,4.42635996 C7.40535036,4.36952378 7.33333333,4.29635893 7.33333333,4.29635893 C7.34733258,4.28522471 7.30569327,4.30341138 7.25226693,4.30868578 L7.25226693,4.30868578 C7.24502038,4.32763889 7.2377174,4.34652167 7.23044673,4.36485413 L7.25735824,4.42597853 C7.22462244,4.48470178 7.21160838,4.55058373 7.21160838,4.62120624 C7.21160838,4.85696911 7.42033809,5.04764996 7.67802153,5.04764996 C7.84010084,5.04764996 7.98245718,4.97228707 8.06604958,4.85793673 L8.16405736,4.73749144 L8.16332589,4.8852182 C8.16332589,5.03362216 8.22819787,5.16674067 8.37806333,5.19024938 C8.37806333,5.19024938 8.55015222,5.20050404 8.77810436,5.0275274 C8.82227136,4.99404131 8.86259664,4.96166827 8.8989124,4.93123227 C8.87973582,4.92702513 8.86485269,4.92679993 8.86107031,4.93966633 C8.82023378,4.9476054 8.75237049,4.95760316 8.69185064,4.96142547 C8.60978707,4.96691422 8.472296,4.94515529 8.43116609,4.93966633 C8.38954656,4.93378556 8.30679813,4.92202376 8.30679813,4.92202376 C8.30679813,4.92202376 8.31698222,4.90683151 8.3490044,4.87429093 C8.38768616,4.83596736 8.4299916,4.80107404 8.4299916,4.80107404 C8.31257556,4.75647764 8.22287316,4.66934309 8.17586769,4.5767196 C8.28593929,4.53388702 8.42715093,4.51418638 8.54819084,4.53006471 C8.54819084,4.53006471 8.54417364,4.49928838 8.54671889,4.44920302 C8.54927438,4.40735098 8.55220807,4.39039449 8.55220807,4.39039449 C8.55220807,4.39039449 8.61968087,4.43675513 8.68568478,4.46753169 C8.75168767,4.49860229 8.87821042,4.56672227 8.9274688,4.62886324 C8.95532547,4.66407349 8.98731898,4.75792433 9.00999382,4.83335378 C9.01181191,4.8316664 9.01361044,4.82999251 9.01538938,4.82833238 C8.99193676,4.7059874 8.96522876,4.51378422 9.00433678,4.41529004 C9.06495476,4.26425009 9.19696156,4.23798233 9.19696156,4.23798233 L9.21909302,4.34236762 C9.23478667,4.32256147 9.25368776,4.30511907 9.27498569,4.29035173 L9.27498569,4.29035173 L8.96783076,3.709772 C9.1325076,3.56647589 9.23768216,3.3565586 9.23768216,3.12236936 C9.23768216,3.0074076 9.21255684,2.89782809 9.16688398,2.79962298 C8.99685113,2.41431764 8.40836104,2.1291472 7.70505478,2.1291472 C7.570774,2.1291472 7.43980709,2.13957758 7.31556638,2.15920298 C7.37084969,2.26098616 7.40368278,2.37016438 7.41002951,2.48312907 C7.41263478,2.51366609 7.41414142,2.54450867 7.41414142,2.57535127 C7.41414142,2.85507131 7.28844491,3.10700264 7.089476,3.282184 L7.17577542,3.42577167 L7.17577542,3.42577167 Z M7.13832549,3.51510382 C7.1356864,3.5236592 7.13329278,3.53228313 7.13115778,3.54096633 C7.13115778,3.54096633 7.12892671,3.53629727 7.12214024,3.52827189 L7.13832549,3.51510382 L7.13832549,3.51510382 Z M7.08320356,4.02608164 C7.08009958,4.01375153 7.07599656,4.00873769 7.0705012,4.01343767 C7.0705012,4.01343767 7.06995389,4.0123774 7.06895029,4.01034807 C7.0660648,4.01478382 7.07181138,4.02000976 7.08320356,4.02608164 L7.08320356,4.02608164 L7.08320356,4.02608164 Z M1.82551656,6.04160656 C1.85571158,6.02729444 1.70994622,5.92801327 1.64067924,5.80168273 C1.56171113,5.65765909 1.55555556,5.48540289 1.55555556,5.48540289 C2.41537607,5.23169427 3.61227378,5.07296427 4.94440156,5.07126824 C6.27702871,5.07296573 7.48351398,5.23169427 8.34343436,5.48540289 C8.34343436,5.48540289 8.30425407,5.65010376 8.22292751,5.80168273 C8.16042107,5.91818416 8.04524851,6.02829604 8.07337389,6.04160656 C7.29574949,5.80236424 6.17016284,5.64822351 4.93920798,5.64582913 C3.70815324,5.64822331 2.60324042,5.80236424 1.82551656,6.04160656 L1.82551656,6.04160656 Z M4.64625091,0.180783961 L4.4145716,0.180783961 L4.4145716,0.364078993 L4.64625091,0.364078993 L4.64625091,0.615167949 L4.64625091,0.891365782 L4.3543952,0.891365782 C4.35096007,0.908563358 4.33333333,0.921101442 4.33333333,0.939072636 C4.33333333,0.985253051 4.34498807,1.0296368 4.36643044,1.06963901 C4.36701336,1.07071925 4.36884549,1.07107486 4.36943944,1.07215008 L5.14571609,1.07215008 C5.14631909,1.07108493 5.14814822,1.07071087 5.14872109,1.06963901 C5.17015702,1.0296368 5.18181818,0.985253051 5.18181818,0.939072636 C5.18181818,0.92116552 5.16414402,0.90851572 5.16075713,0.891365782 L4.87792702,0.891365782 L4.87792702,0.617678853 L4.87792702,0.364078993 L5.10960696,0.364078993 L5.10960696,0.180783961 L4.87792702,0.180783961 L4.87792702,0 L4.64624811,0 L4.64625091,0.180783961 L4.64625091,0.180783961 Z" id="path-35" fill="#C7A200"></path>
                    </g>
                </g>
            </g>
        </g>
    </g>
</svg>