<?xml version="1.0" encoding="UTF-8"?>
<svg width="42px" height="42px" viewBox="0 0 42 42" version="1.1" xmlns="http://www.w3.org/2000/svg" xmlns:xlink="http://www.w3.org/1999/xlink">
    <!-- Generator: Sketch 61.1 (89650) - https://sketch.com -->
    <title>TWITTER</title>
    <desc>Created with Sketch.</desc>
    <g id="Page-1" stroke="none" stroke-width="1" fill="none" fill-rule="evenodd">
        <g id="LOGIN-Copy" transform="translate(-60.000000, -791.000000)">
            <g id="SOCIAL-ICONS" transform="translate(60.000000, 677.000000)">
                <g id="TWITTER" transform="translate(0.000000, 114.000000)">
                    <circle id="Oval" fill="#000000" cx="21" cy="21" r="21"></circle>
                    <path d="M20.9999996,0 C32.5979798,0 41.9999993,9.40201952 41.9999993,20.9999996 C41.9999993,32.5979798 32.5979798,41.9999993 20.9999996,41.9999993 C9.40201952,41.9999993 0,32.5979798 0,20.9999996 C0,9.40201952 9.40201952,0 20.9999996,0 Z M23.2354198,12.7981558 C21.3992865,13.465485 20.2388504,15.1857114 20.3710519,17.0690628 L20.4151191,17.7957101 L19.6806659,17.7067329 C17.0072559,17.3656535 14.6716945,16.2089496 12.6886706,14.2662801 L11.7191923,13.3023601 L11.4694782,14.0141779 C10.9406718,15.6009385 11.2785203,17.2766763 12.3802002,18.4037212 C12.9677629,19.0265618 12.8355613,19.115539 11.8220157,18.7448006 C11.4694782,18.6261643 11.1610078,18.537187 11.1316296,18.5816756 C11.0288062,18.6854824 11.3813438,20.0349704 11.660436,20.5688337 C12.0423517,21.3103106 12.8208722,22.036958 13.672838,22.4670146 L14.3926022,22.808094 L13.5406364,22.8229235 C12.7180487,22.8229235 12.6886706,22.8377531 12.776805,23.1491734 C13.0705863,24.1130933 14.2310225,25.1363315 15.5236603,25.5812176 L16.4343824,25.8926379 L15.6411728,26.3671831 C14.4660476,27.0493419 13.0852754,27.4349099 11.7045032,27.4645689 C11.0434953,27.4793985 10.4999998,27.5387166 10.4999998,27.5832052 C10.4999998,27.7315006 12.2920658,28.5619547 13.3349895,28.8882046 C16.4637605,29.8521246 20.1800941,29.4368975 22.9710166,27.7908188 C24.9540404,26.6192853 26.9370643,24.2910478 27.8624754,22.036958 C28.3619037,20.8357654 28.8613319,18.6409938 28.8613319,17.5880966 C28.8613319,16.9059378 28.9053991,16.8169606 29.7279868,16.001336 C30.2127259,15.5267908 30.668087,15.007757 30.7562214,14.8594616 C30.903112,14.5777004 30.888423,14.5777004 30.1392806,14.8298025 C28.89071,15.2746887 28.7144412,15.2153705 29.331382,14.5480413 C29.786743,14.0734961 30.3302385,13.2133829 30.3302385,12.9612807 C30.3302385,12.9167921 30.1099025,12.9909398 29.8601884,13.1244056 C29.5957852,13.272701 29.0082226,13.4951441 28.5675506,13.6286099 L27.774341,13.8807121 L27.0545768,13.3913373 C26.6579721,13.1244056 26.0997876,12.8278149 25.8060062,12.7388376 C25.0568639,12.5312241 23.9111168,12.5608832 23.2354198,12.7981558 Z" id="Combined-Shape" fill="#FFFFFF"></path>
                </g>
            </g>
        </g>
    </g>
</svg>