<?xml version="1.0" encoding="UTF-8"?>
<svg width="40px" height="40px" viewBox="0 0 40 40" version="1.1" xmlns="http://www.w3.org/2000/svg" xmlns:xlink="http://www.w3.org/1999/xlink">
    <!-- Generator: Sketch 61.1 (89650) - https://sketch.com -->
    <title>UK LOGO</title>
    <desc>Created with Sketch.</desc>
    <g id="Symbols" stroke="none" stroke-width="1" fill="none" fill-rule="evenodd">
        <g id="UK-LOGO">
            <g>
                <circle id="blue" fill="#227FBB" cx="19.8947373" cy="19.8947373" r="19.8947373"></circle>
                <path d="M8.22726637,3.77866785 L19.8947373,15.4461388 L31.5622082,3.77866785 C33.2696135,5.01691678 34.7725577,6.51986093 36.0108068,8.2272663 L24.3433356,19.8947371 L36.0108068,31.5622082 C34.7725579,33.2696135 33.2696139,34.7725575 31.5622087,36.0108063 L19.8947373,24.3433352 L8.22726581,36.0108063 C6.51986064,34.7725575 5.01691667,33.2696135 3.77866785,31.5622082 L15.446139,19.8947371 L3.77866789,8.2272663 C5.01691685,6.51986093 6.51986097,5.01691678 8.22726637,3.77866785 L8.22726637,3.77866785 Z" id="white" fill="#FFFFFF"></path>
                <path d="M35.6195774,32.0835476 L25.4035094,21.6631584 L21.9508776,21.6631584 L34.0089813,33.9157475 C34.5821401,33.3388014 35.1201645,32.7269089 35.6195774,32.0835476 L35.6195774,32.0835476 Z M7.6772705,35.5972909 L21.2210531,21.8842111 L17.6842109,21.8842111 L5.79088668,33.9262019 C6.38348025,34.5218334 7.01355312,35.0801414 7.6772705,35.5972909 L7.6772705,35.5972909 Z M33.9858236,5.85045466 L22.6578953,17.2697373 L19.452632,17.2697373 L32.2880611,4.33079674 C32.882706,4.80492914 33.4495713,5.31242644 33.9858236,5.85045466 L33.9858236,5.85045466 Z M4.18853933,7.68194912 L13.0514299,16.5789479 L16.5287203,16.5789479 L5.81819596,5.83587644 C5.23805972,6.41673771 4.69364845,7.03328764 4.18853933,7.68194912 L4.18853933,7.68194912 Z" id="red" fill="#E94B35"></path>
                <path d="M15.4736846,0.492983621 L15.4736846,15.4736846 L0.492983621,15.4736846 C0.170346321,16.8955454 0,18.3752481 0,19.8947373 C0,21.4142265 0.170346321,22.8939293 0.492983621,24.31579 L15.4736846,24.31579 L15.4736846,39.296491 C16.8955454,39.6191283 18.3752481,39.7894746 19.8947373,39.7894746 C21.4142265,39.7894746 22.8939293,39.6191283 24.31579,39.296491 L24.31579,24.31579 L39.296491,24.31579 C39.6191283,22.8939293 39.7894746,21.4142265 39.7894746,19.8947373 C39.7894746,18.3752481 39.6191283,16.8955454 39.296491,15.4736846 L24.31579,15.4736846 L24.31579,0.492983621 C22.8939293,0.170346321 21.4142265,0 19.8947373,0 C18.3752481,0 16.8955454,0.170346321 15.4736846,0.492983621 L15.4736846,0.492983621 Z" id="white" fill="#FFFFFF"></path>
                <path d="M16.5789477,0.275072691 L16.5789477,16.5789477 L0.275072691,16.5789477 C0.0941644179,17.6572706 0,18.7650073 0,19.8947373 C0,21.0244673 0.0941644179,22.132204 0.275072691,23.2105268 L16.5789477,23.2105268 L16.5789477,39.514402 C17.6572706,39.6953101 18.7650073,39.7894746 19.8947373,39.7894746 C21.0244673,39.7894746 22.132204,39.6953101 23.2105268,39.514402 L23.2105268,23.2105268 L39.514402,23.2105268 C39.6953101,22.132204 39.7894746,21.0244673 39.7894746,19.8947373 C39.7894746,18.7650073 39.6953101,17.6572706 39.514402,16.5789477 L23.2105268,16.5789477 L23.2105268,0.275072691 C22.132204,0.0941644179 21.0244673,0 19.8947373,0 C18.7650073,0 17.6572706,0.0941644179 16.5789477,0.275072691 L16.5789477,0.275072691 Z" id="red" fill="#E94B35"></path>
            </g>
        </g>
    </g>
</svg>