<?xml version="1.0" encoding="UTF-8"?>
<svg width="23px" height="23px" viewBox="0 0 23 23" version="1.1" xmlns="http://www.w3.org/2000/svg" xmlns:xlink="http://www.w3.org/1999/xlink">
    <!-- Generator: Sketch 63.1 (92452) - https://sketch.com -->
    <title>ACCOUNTS</title>
    <desc>Created with Sketch.</desc>
    <g id="Page-1" stroke="none" stroke-width="1" fill="none" fill-rule="evenodd">
        <g id="23.2.1-MAIN-UI---INVENTORY-MANAGEMENT-(SUPPLIER)" transform="translate(-1295.000000, -516.000000)">
            <g id="INVENTORY-MANAGEMENT" transform="translate(293.000000, 233.000000)">
                <g id="CREATE-NEW-SUPPLIER" transform="translate(0.000000, 150.000000)">
                    <g id="ACCOUNTS" transform="translate(992.000000, 88.000000)">
                        <g id="NAME-TAB" transform="translate(0.000000, 35.700000)">
                            <g id="ACCOUNTS" transform="translate(10.000000, 9.300000)">
                                <g id="Layer_1">
                                    <g>
                                        <path d="M13.0615789,14.1958421 C13.0615789,13.0827632 12.1119211,12.7819474 11.0878158,12.3273947 C9.67210526,11.6991316 8.15107895,11.1640789 8.15107895,8.94881579 C8.15107895,8.23097368 8.38047368,6.23118421 11.1677105,5.87105263 L11.1677105,4.23684211 L12.3897368,4.23684211 L12.3897368,5.89405263 C14.8567895,6.32015789 15.2199474,8.16923684 15.2689737,9.44573684 L13.0615789,9.44573684 C13.0694474,8.13413158 12.4587368,7.62026316 11.6712895,7.62026316 C10.3796579,7.62026316 10.3578684,8.76844737 10.3578684,8.95668421 C10.3578684,11.2482105 15.2689737,10.3984211 15.2689737,14.1807105 C15.2689737,16.8396316 12.6875263,17.1973421 12.2293421,17.2433421 L12.2293421,18.7631579 L11.0151842,18.7631579 L11.0151842,17.2512105 C10.5927105,17.2052105 7.73102632,16.9461579 7.73102632,13.6311316 L9.93842105,13.6311316 C9.93842105,15.5570789 11.4025526,15.5098684 11.6107632,15.5098684 C11.8498421,15.5098684 13.0615789,15.4505526 13.0615789,14.1958421 L13.0615789,14.1958421 Z" id="Shape" fill="#4CAF50"></path>
                                        <path d="M21.0801053,5.152 L18.1578947,12.1052632 L20.5480789,12.1052632 C20.2345526,16.8293421 16.3015526,20.5789474 11.5,20.5789474 C9.82523684,20.5789474 8.26002632,20.1147105 6.9115,19.3206053 L5.152,21.0801053 C6.97263158,22.2906316 9.15460526,23 11.5,23 C17.8413421,23 23,17.8413421 23,11.5 C23,9.15460526 22.2906316,6.97263158 21.0801053,5.152 L21.0801053,5.152 Z" id="Shape" fill="#3FB5A8"></path>
                                        <path d="M1.91989474,17.848 L4.84210526,10.8947368 L2.45192105,10.8947368 C2.76544737,6.17065789 6.69844737,2.42105263 11.5,2.42105263 C13.1747632,2.42105263 14.7399737,2.88528947 16.0885,3.67939474 L17.848,1.91989474 C16.0273684,0.709368421 13.8453947,0 11.5,0 C5.15865789,0 0,5.15865789 0,11.5 C0,13.8453947 0.709368421,16.0273684 1.91989474,17.848 L1.91989474,17.848 Z" id="Shape" fill="#3FB5A8"></path>
                                    </g>
                                </g>
                            </g>
                        </g>
                    </g>
                </g>
            </g>
        </g>
    </g>
</svg>