<?xml version="1.0" encoding="UTF-8"?>
<svg width="45px" height="42px" viewBox="0 0 45 44" version="1.1" xmlns="http://www.w3.org/2000/svg" xmlns:xlink="http://www.w3.org/1999/xlink">
    <!-- Generator: Sketch 63.1 (92452) - https://sketch.com -->
    <title>ADD</title>
    <desc>Created with Sketch.</desc>
    <defs>
        <filter x="-7.4%" y="-4.4%" width="114.7%" height="108.8%" filterUnits="objectBoundingBox" id="filter-1">
            <feOffset dx="4" dy="4" in="SourceAlpha" result="shadowOffsetOuter1"></feOffset>
            <feGaussianBlur stdDeviation="0" in="shadowOffsetOuter1" result="shadowBlurOuter1"></feGaussianBlur>
            <feColorMatrix values="0 0 0 0 0   0 0 0 0 0   0 0 0 0 0  0 0 0 0 0" type="matrix" in="shadowBlurOuter1" result="shadowMatrixOuter1"></feColorMatrix>
            <feMerge>
                <feMergeNode in="shadowMatrixOuter1"></feMergeNode>
                <feMergeNode in="SourceGraphic"></feMergeNode>
            </feMerge>
        </filter>
    </defs>
    <g id="Page-1" stroke="none" stroke-width="1" fill="none" fill-rule="evenodd">
        <g id="23.2.2--MAIN-UI---INVENTORY-MANAGEMENT-(SUPPLIER)-(EDIT-1)" transform="translate(-887.000000, -613.000000)">
            <g id="ITEMS-PANEL" filter="url(#filter-1)" transform="translate(873.000000, 560.000000)">
                <g id="ITEMS" transform="translate(20.000000, 15.000000)">
                    <g id="INVENTORY-ITEM" transform="translate(0.000000, 43.000000)">
                        <g id="ADD" transform="translate(0.000000, 1.000000)">
                            <g id="Group">
                                <g>
                                    <g id="Circle_Shadow_44_" transform="translate(0.000000, 1.000000)" fill="#349F59">
                                        <circle id="Oval" cx="15.5" cy="15.5" r="15.5"></circle>
                                    </g>
                                    <g id="Circle_44_" fill="#3DBB69">
                                        <circle id="Oval" cx="15.5" cy="15.5" r="15.5"></circle>
                                    </g>
                                    <path d="M9.15,21.85 L18.05,30.75 C24.55,29.65 29.7,24.55 30.8,18 L21.9,9.1 L9.15,21.85 L9.15,21.85 Z" id="Long_Shadow_47_" fill="#000000" opacity="0.15"></path>
                                    <g id="Circle_45_" transform="translate(6.500000, 6.500000)" fill="#FFFCF2">
                                        <circle id="Oval" cx="9" cy="9" r="9"></circle>
                                    </g>
                                    <g id="Plus" transform="translate(10.500000, 10.500000)" fill="#344E5F">
                                        <path d="M9,4 L6,4 L6,1 C6,0.45 5.55,0 5,0 C4.45,0 4,0.45 4,1 L4,4 L1,4 C0.45,4 0,4.45 0,5 C0,5.55 0.45,6 1,6 L4,6 L4,9 C4,9.55 4.45,10 5,10 C5.55,10 6,9.55 6,9 L6,6 L9,6 C9.55,6 10,5.55 10,5 C10,4.45 9.55,4 9,4 L9,4 Z" id="Shape"></path>
                                    </g>
                                </g>
                            </g>
                        </g>
                    </g>
                </g>
            </g>
        </g>
    </g>
</svg>