<?xml version="1.0" encoding="UTF-8"?>
<svg width="27px" height="30px" viewBox="0 0 27 30" version="1.1" xmlns="http://www.w3.org/2000/svg" xmlns:xlink="http://www.w3.org/1999/xlink">
    <!-- Generator: Sketch 63.1 (92452) - https://sketch.com -->
    <title>BILL AMOUNT</title>
    <desc>Created with Sketch.</desc>
    <g id="Page-1" stroke="none" stroke-width="1" fill="none" fill-rule="evenodd">
        <g id="24.3-MAIN-UI---CUSTOMER-ANALYTICS-(-SORTING)" transform="translate(-1188.000000, -2093.000000)">
            <g id="2.CUSTOMER-DETAILS" transform="translate(310.000000, 1722.000000)">
                <g id="NOTIFICATION-BAR" transform="translate(855.000000, 68.000000)">
                    <g id="BILL-AMOUNT" transform="translate(0.000000, 288.000000)">
                        <g transform="translate(23.000000, 15.000000)" id="POS_Terminal">
                            <g>
                                <path d="M3,27.75 L3,22.5 L19.5,22.5 L19.5,27.75 C19.5,28.99275 18.49275,30 17.25,30 L5.25,30 C4.00725,30 3,28.99275 3,27.75 L3,27.75 Z" id="Shape" fill="#AB47BC"></path>
                                <rect id="Rectangle-path" fill="#8E24AA" x="3" y="22.5" width="16.5" height="1.5"></rect>
                                <polygon id="Rectangle-path" fill="#37474F" transform="translate(15.235950, 26.250350) rotate(90.000000) translate(-15.235950, -26.250350) " points="11.4859 24.8201 18.9859 24.8201 18.9859 27.6806 11.4859 27.6806"></polygon>
                                <path d="M25.5,19.5 L22.5,19.5 L22.5,3 L25.5,3 C26.32875,3 27,3.67125 27,4.5 L27,18 C27,18.82875 26.32875,19.5 25.5,19.5 L25.5,19.5 Z" id="Shape" fill="#607D8B"></path>
                                <path d="M21,22.5 L1.5,22.5 C0.67125,22.5 0,21.82875 0,21 L0,1.5 C0,0.67125 0.67125,0 1.5,0 L21,0 C21.82875,0 22.5,0.67125 22.5,1.5 L22.5,21 C22.5,21.82875 21.82875,22.5 21,22.5 L21,22.5 Z" id="Shape" fill="#607D8B"></path>
                                <rect id="Rectangle-path" fill="#455A64" x="22.5" y="3" width="1.5" height="16.5"></rect>
                                <path d="M18.75,7.5 L3.75,7.5 C3.336,7.5 3,7.164 3,6.75 L3,3.75 C3,3.336 3.336,3 3.75,3 L18.75,3 C19.164,3 19.5,3.336 19.5,3.75 L19.5,6.75 C19.5,7.164 19.164,7.5 18.75,7.5 L18.75,7.5 Z" id="Shape" fill="#8BC34A"></path>
                                <path d="M6,11.25 L5.25,11.25 C4.836,11.25 4.5,10.914 4.5,10.5 L4.5,9.75 C4.5,9.336 4.836,9 5.25,9 L6,9 C6.414,9 6.75,9.336 6.75,9.75 L6.75,10.5 C6.75,10.914 6.414,11.25 6,11.25 L6,11.25 Z" id="Shape" fill="#CFD8DC"></path>
                                <path d="M9.75,11.25 L9,11.25 C8.586,11.25 8.25,10.914 8.25,10.5 L8.25,9.75 C8.25,9.336 8.586,9 9,9 L9.75,9 C10.164,9 10.5,9.336 10.5,9.75 L10.5,10.5 C10.5,10.914 10.164,11.25 9.75,11.25 L9.75,11.25 Z" id="Shape" fill="#CFD8DC"></path>
                                <path d="M13.5,11.25 L12.75,11.25 C12.336,11.25 12,10.914 12,10.5 L12,9.75 C12,9.336 12.336,9 12.75,9 L13.5,9 C13.914,9 14.25,9.336 14.25,9.75 L14.25,10.5 C14.25,10.914 13.914,11.25 13.5,11.25 L13.5,11.25 Z" id="Shape" fill="#CFD8DC"></path>
                                <path d="M17.25,11.25 L16.5,11.25 C16.086,11.25 15.75,10.914 15.75,10.5 L15.75,9.75 C15.75,9.336 16.086,9 16.5,9 L17.25,9 C17.664,9 18,9.336 18,9.75 L18,10.5 C18,10.914 17.664,11.25 17.25,11.25 L17.25,11.25 Z" id="Shape" fill="#81C784"></path>
                                <path d="M6,15 L5.25,15 C4.836,15 4.5,14.664 4.5,14.25 L4.5,13.5 C4.5,13.086 4.836,12.75 5.25,12.75 L6,12.75 C6.414,12.75 6.75,13.086 6.75,13.5 L6.75,14.25 C6.75,14.664 6.414,15 6,15 L6,15 Z" id="Shape" fill="#CFD8DC"></path>
                                <path d="M9.75,15 L9,15 C8.586,15 8.25,14.664 8.25,14.25 L8.25,13.5 C8.25,13.086 8.586,12.75 9,12.75 L9.75,12.75 C10.164,12.75 10.5,13.086 10.5,13.5 L10.5,14.25 C10.5,14.664 10.164,15 9.75,15 L9.75,15 Z" id="Shape" fill="#CFD8DC"></path>
                                <path d="M13.5,15 L12.75,15 C12.336,15 12,14.664 12,14.25 L12,13.5 C12,13.086 12.336,12.75 12.75,12.75 L13.5,12.75 C13.914,12.75 14.25,13.086 14.25,13.5 L14.25,14.25 C14.25,14.664 13.914,15 13.5,15 L13.5,15 Z" id="Shape" fill="#CFD8DC"></path>
                                <path d="M17.25,15 L16.5,15 C16.086,15 15.75,14.664 15.75,14.25 L15.75,13.5 C15.75,13.086 16.086,12.75 16.5,12.75 L17.25,12.75 C17.664,12.75 18,13.086 18,13.5 L18,14.25 C18,14.664 17.664,15 17.25,15 L17.25,15 Z" id="Shape" fill="#FFEB3B"></path>
                                <path d="M6,18.75 L5.25,18.75 C4.836,18.75 4.5,18.414 4.5,18 L4.5,17.25 C4.5,16.836 4.836,16.5 5.25,16.5 L6,16.5 C6.414,16.5 6.75,16.836 6.75,17.25 L6.75,18 C6.75,18.414 6.414,18.75 6,18.75 L6,18.75 Z" id="Shape" fill="#CFD8DC"></path>
                                <path d="M9.75,18.75 L9,18.75 C8.586,18.75 8.25,18.414 8.25,18 L8.25,17.25 C8.25,16.836 8.586,16.5 9,16.5 L9.75,16.5 C10.164,16.5 10.5,16.836 10.5,17.25 L10.5,18 C10.5,18.414 10.164,18.75 9.75,18.75 L9.75,18.75 Z" id="Shape" fill="#CFD8DC"></path>
                                <path d="M13.5,18.75 L12.75,18.75 C12.336,18.75 12,18.414 12,18 L12,17.25 C12,16.836 12.336,16.5 12.75,16.5 L13.5,16.5 C13.914,16.5 14.25,16.836 14.25,17.25 L14.25,18 C14.25,18.414 13.914,18.75 13.5,18.75 L13.5,18.75 Z" id="Shape" fill="#CFD8DC"></path>
                                <path d="M17.25,18.75 L16.5,18.75 C16.086,18.75 15.75,18.414 15.75,18 L15.75,17.25 C15.75,16.836 16.086,16.5 16.5,16.5 L17.25,16.5 C17.664,16.5 18,16.836 18,17.25 L18,18 C18,18.414 17.664,18.75 17.25,18.75 L17.25,18.75 Z" id="Shape" fill="#FF8A80"></path>
                                <rect id="Rectangle-path" fill="#33691E" x="16.5" y="4.5" width="1.5" height="1.5"></rect>
                                <rect id="Rectangle-path" fill="#33691E" x="13.5" y="4.5" width="1.5" height="1.5"></rect>
                            </g>
                        </g>
                    </g>
                </g>
            </g>
        </g>
    </g>
</svg>