<?xml version="1.0" encoding="UTF-8"?>
<svg width="50px" height="51px" viewBox="0 0 50 51" version="1.1" xmlns="http://www.w3.org/2000/svg" xmlns:xlink="http://www.w3.org/1999/xlink">
    <!-- Generator: Sketch 63.1 (92452) - https://sketch.com -->
    <title>CAPTAIN</title>
    <desc>Created with Sketch.</desc>
    <defs>
        <filter x="-17.8%" y="-17.8%" width="135.6%" height="135.6%" filterUnits="objectBoundingBox" id="filter-1">
            <feOffset dx="1" dy="1" in="SourceAlpha" result="shadowOffsetOuter1"></feOffset>
            <feGaussianBlur stdDeviation="1.5" in="shadowOffsetOuter1" result="shadowBlurOuter1"></feGaussianBlur>
            <feColorMatrix values="0 0 0 0 0   0 0 0 0 0   0 0 0 0 0  0 0 0 0.5 0" type="matrix" in="shadowBlurOuter1" result="shadowMatrixOuter1"></feColorMatrix>
            <feMerge>
                <feMergeNode in="shadowMatrixOuter1"></feMergeNode>
                <feMergeNode in="SourceGraphic"></feMergeNode>
            </feMerge>
        </filter>
    </defs>
    <g id="Page-1" stroke="none" stroke-width="1" fill="none" fill-rule="evenodd">
        <g id="24.2-MAIN-UI---CUSTOMER-ANALYTICS-(DETAILS)" transform="translate(-892.000000, -1940.000000)">
            <g id="2.CUSTOMER-DETAILS" transform="translate(317.000000, 1722.000000)">
                <g id="ORDER-LIST" transform="translate(0.000000, 91.000000)">
                    <g id="ACTIVE-TAB" transform="translate(1.000000, 48.000000)">
                        <g id="CAPTAIN-RATING" transform="translate(576.000000, 81.000000)">
                            <g id="CAPTAIN">
                                <g filter="url(#filter-1)" id="Path">
                                    <path d="M28.3486019,30.4311021 L28.3486019,29.731102 L26.7246018,29.577102 C24.5686017,31.4251021 22.1963015,32.5311022 20.2986014,32.5311022 C18.4023013,32.5311022 16.0286011,31.4251021 13.8726009,29.577102 L12.2486008,29.731102 L12.2486008,30.4311021 C5.28850036,35.4074024 0.350000024,33.9311023 0.350000024,40.2311027 C0.350000024,43.0311029 0.350000024,44.430403 0.350000024,44.430403 L40.2472027,44.430403 C40.2472027,44.430403 40.2472027,43.0311029 40.2472027,40.2311027 C40.2472027,33.9311023 35.3087024,35.4074024 28.3486019,30.4311021 Z" fill="#CCD1D9" fill-rule="nonzero"></path>
                                    <polygon fill="#000000" fill-rule="nonzero" points="19.2486013 33.5496023 19.2486013 33.5496023 19.9486014 33.2493023"></polygon>
                                    <polygon fill="#000000" fill-rule="nonzero" points="20.6486014 33.2493023 21.3486015 33.5496023 21.3486015 33.5496023"></polygon>
                                    <path d="M35.4291024,34.1677023 C33.4971023,33.3424023 31.0800021,32.3834022 28.3486019,30.4311021 C28.3486019,30.4311021 26.6000018,40.2864027 20.3000014,44.430403 L35.4291024,44.430403 L35.4291024,34.1677023 Z" fill="#545C66" fill-rule="nonzero"></path>
                                    <path d="M5.16810035,34.1677023 C7.10150048,33.3424023 9.51860065,32.3834022 12.2486008,30.4311021 C12.2486008,30.4311021 13.998601,40.2864027 20.2986014,44.430403 L5.16810035,44.430403 L5.16810035,34.1677023 Z" fill="#545C66" fill-rule="nonzero"></path>
                                    <path d="M12.2486008,30.4311021 C12.2486008,30.4311021 13.3000009,40.2157027 19.6000013,44.359003 L21.0000014,44.359003 C22.1823015,43.582003 23.1763016,42.6090029 24.0177016,41.5450028 C27.6570019,36.9313025 28.3493019,30.4304021 28.3493019,30.4304021 L12.2486008,30.4304021 L12.2486008,30.4311021 Z" fill="#CCD1D9" fill-rule="nonzero"></path>
                                    <path d="M20.3161014,30.4311021 L20.2986014,30.4311021 L12.2486008,30.4311021 C12.2486008,30.4311021 13.3000009,40.2864027 19.6000013,44.430403 L20.2986014,44.430403 L20.3161014,44.430403 L21.0147014,44.430403 C27.3147019,40.2864027 28.3661019,30.4311021 28.3661019,30.4311021 L20.3161014,30.4311021 Z" fill="#CCD1D9" fill-rule="nonzero"></path>
                                    <polygon fill="#E6E9ED" fill-rule="nonzero" points="20.2986014 31.8304022 12.2374008 26.7106018 12.2486008 29.731102 12.2486008 30.4311021 16.4486011 35.3311024 20.2986014 33.9745023 24.1500016 35.3311024 28.3486019 30.4311021 28.3486019 29.731102 28.3598019 26.7106018"></polygon>
                                    <path d="M32.5486005,15.7304011 L32.5486005,17.1304012 C32.5486005,25.1454017 24.9606017,31.8304022 20.2986014,31.8304022 C20.0046014,31.8304022 19.7036013,31.8024022 19.3963013,31.7534022 C14.718901,30.9904021 8.04860055,24.6421017 8.04860055,17.1304012 L8.04860055,15.7304011 L10.9746007,10.7044007 C10.9746007,10.7044007 15.7913011,12.7141009 20.2006014,12.7141009 C24.6043017,12.7141009 29.475602,10.7044007 29.475602,10.7044007 L32.5486005,15.7304011 Z" fill="#F0C7B7" fill-rule="nonzero"></path>
                                    <path d="M26.7603018,5.67210039 C26.7603018,5.67210039 34.2783023,4.62910032 32.5493022,15.7304011 L29.475602,10.7044007 C29.475602,10.7044007 24.6043017,12.7141009 20.2006014,12.7141009 C15.7913011,12.7141009 10.9746007,10.7044007 10.9746007,10.7044007 L8.04860055,15.7304011 C6.29860043,-2.9386002 28.774902,0.646100044 28.774902,0.646100044 C25.4856017,1.99710014 26.7603018,5.67210039 26.7603018,5.67210039 Z" fill="#965353" fill-rule="nonzero"></path>
                                    <path d="M20.3196014,36.3825025 C20.1264014,36.3825025 19.9661014,36.2257025 19.9661014,36.0325025 C19.9661014,35.8393024 20.1194014,35.6825024 20.3119014,35.6825024 L20.3196014,35.6825024 C20.5121014,35.6825024 20.6696014,35.8393024 20.6696014,36.0325025 C20.6696014,36.2257025 20.5128014,36.3825025 20.3196014,36.3825025 Z" fill="#E6E9ED" fill-rule="nonzero"></path>
                                    <path d="M20.3196014,39.1832027 C20.1264014,39.1832027 19.9661014,39.0264027 19.9661014,38.8332026 C19.9661014,38.6400026 20.1194014,38.4832026 20.3119014,38.4832026 L20.3196014,38.4832026 C20.5121014,38.4832026 20.6696014,38.6400026 20.6696014,38.8332026 C20.6696014,39.0264027 20.5128014,39.1832027 20.3196014,39.1832027 Z" fill="#E6E9ED" fill-rule="nonzero"></path>
                                    <path d="M20.3196014,41.9853029 C20.1264014,41.9853029 19.9661014,41.8285028 19.9661014,41.6353028 C19.9661014,41.4421028 20.1194014,41.2853028 20.3119014,41.2853028 L20.3196014,41.2853028 C20.5121014,41.2853028 20.6696014,41.4421028 20.6696014,41.6353028 C20.6696014,41.8285028 20.5128014,41.9853029 20.3196014,41.9853029 Z" fill="#E6E9ED" fill-rule="nonzero"></path>
                                    <path d="M32.5514022,27.6276019 C33.1282023,27.6276019 33.6014023,28.0994019 33.6014023,28.677602 C33.6014023,29.253702 33.1282023,29.727602 32.5514022,29.727602 C31.9746022,29.727602 31.5014021,29.253702 31.5014021,28.677602 C31.5014021,28.0994019 31.9746022,27.6276019 32.5514022,27.6276019 Z" fill="#F6BB42" fill-rule="nonzero"></path>
                                    <path d="M32.5514022,29.378302 C38.7394026,29.378302 43.751403,34.3903023 43.751403,40.5783028 L43.751403,44.079003 L21.3514015,44.079003 L21.3514015,40.5783028 C21.3514015,37.0986025 22.9404016,33.9913023 25.4254017,31.9333022 C27.3644019,30.3366021 29.842402,29.378302 32.5514022,29.378302 Z" fill="#FFCE54" fill-rule="nonzero"></path>
                                    <path d="M44.100003,44.430403 L21.0021014,44.430403 C20.8089014,44.430403 20.6521014,44.273603 20.6521014,44.080403 C20.6521014,43.887203 20.8089014,43.730403 21.0021014,43.730403 L44.100003,43.730403 C44.293203,43.730403 44.450003,43.887203 44.450003,44.080403 C44.450003,44.273603 44.293203,44.430403 44.100003,44.430403 Z" fill="#656D78" fill-rule="nonzero"></path>
                                </g>
                            </g>
                        </g>
                    </g>
                </g>
            </g>
        </g>
    </g>
</svg>