<?xml version="1.0" encoding="UTF-8"?>
<svg width="47px" height="51px" viewBox="0 0 47 51" version="1.1" xmlns="http://www.w3.org/2000/svg" xmlns:xlink="http://www.w3.org/1999/xlink">
    <!-- Generator: Sketch 63.1 (92452) - https://sketch.com -->
    <title>CHEF</title>
    <desc>Created with Sketch.</desc>
    <defs>
        <filter x="-19.5%" y="-17.8%" width="139.0%" height="135.6%" filterUnits="objectBoundingBox" id="filter-1">
            <feOffset dx="1" dy="1" in="SourceAlpha" result="shadowOffsetOuter1"></feOffset>
            <feGaussianBlur stdDeviation="1.5" in="shadowOffsetOuter1" result="shadowBlurOuter1"></feGaussianBlur>
            <feColorMatrix values="0 0 0 0 0   0 0 0 0 0   0 0 0 0 0  0 0 0 0.5 0" type="matrix" in="shadowBlurOuter1" result="shadowMatrixOuter1"></feColorMatrix>
            <feMerge>
                <feMergeNode in="shadowMatrixOuter1"></feMergeNode>
                <feMergeNode in="SourceGraphic"></feMergeNode>
            </feMerge>
        </filter>
    </defs>
    <g id="Page-1" stroke="none" stroke-width="1" fill="none" fill-rule="evenodd">
        <g id="24.2-MAIN-UI---CUSTOMER-ANALYTICS-(DETAILS)" transform="translate(-724.000000, -1940.000000)">
            <g id="2.CUSTOMER-DETAILS" transform="translate(317.000000, 1722.000000)">
                <g id="ORDER-LIST" transform="translate(0.000000, 91.000000)">
                    <g id="ACTIVE-TAB" transform="translate(1.000000, 48.000000)">
                        <g id="CHEF-RATING" transform="translate(408.000000, 81.000000)">
                            <g id="CHEF">
                                <g filter="url(#filter-1)">
                                    <path d="M28.3499995,33.5978994 L28.3499995,29.3943995 L26.7259995,29.2403995 C24.5699996,31.0883995 22.1969996,32.1943995 20.2999997,32.1943995 C18.4029997,32.1943995 16.0299997,31.0883995 13.8739998,29.2403995 L12.2499998,29.3943995 L12.2499998,33.5978994 C5.28989991,38.5741993 0.351399994,37.0978994 0.351399994,43.3978993 L0.351399994,44.7999992 L40.2485993,44.7999992 L40.2485993,43.3978993 C40.2485993,37.0978994 35.3100994,38.5741993 28.3499995,33.5978994 Z" id="Path" fill="#545C66" fill-rule="nonzero"></path>
                                    <polygon id="Path" fill="#ED5565" fill-rule="nonzero" points="26.2506996 34.1263994 22.7513996 35.6978994 20.6513996 35.6999994 19.9513997 35.6999994 17.8513997 35.6978994 14.3520998 34.1263994 14.3520998 44.7999992 23.4513996 44.7999992 26.2506996 44.7999992"></polygon>
                                    <polygon id="Path" fill="#656D78" fill-rule="nonzero" points="20.3006997 34.2992994 12.2499998 29.3943995 12.2499998 33.5978994 16.4499997 37.7999994 20.2999997 35.6999994 20.3013997 35.6999994 24.1513996 37.7999994 28.3499995 33.5978994 28.3499995 29.3943995"></polygon>
                                    <g id="Group" transform="translate(17.500000, 39.199999)" fill="#DA4453" fill-rule="nonzero">
                                        <circle id="Oval" cx="0.956199984" cy="0.699999988" r="1"></circle>
                                        <circle id="Oval" cx="4.45479992" cy="0.699999988" r="1"></circle>
                                        <circle id="Oval" cx="4.45479992" cy="3.49999994" r="1"></circle>
                                        <circle id="Oval" cx="0.956199984" cy="3.49999994" r="1"></circle>
                                    </g>
                                    <g id="Group" transform="translate(7.700000, 6.300000)" fill-rule="nonzero">
                                        <path d="M12.5999998,0 C5.8379999,0 0.349999994,5.28499991 0.349999994,13.2999998 L0.349999994,14.8203997 C0.349999994,14.8203997 0.909999985,19.2842997 4.57099992,18.2769997 C8.23129986,17.2696997 10.4579998,15.5959997 11.8579998,16.9399997 C12.3619998,17.4236997 12.5999998,17.9409997 12.5999998,18.4449997 C12.5999998,17.9402997 12.8379998,17.4236997 13.3419998,16.9399997 C14.7419997,15.5959997 16.9686997,17.2696997 20.6289996,18.2769997 C24.2899996,19.2842997 24.85,14.8203997 24.85,14.8203997 L24.85,13.2999998 C24.85,5.28499991 19.3619997,0 12.5999998,0 Z" id="Path" fill="#F0C7B7"></path>
                                        <path d="M16.8139997,21.7139996 C14.1469998,21.0209996 12.5999998,19.7462997 12.5999998,18.4449997 C12.5999998,19.7462997 11.0529998,21.0209996 8.38599986,21.7139996 C7.16099988,22.0296996 3.69669994,20.9551996 2.20499996,20.4161997 L3.47199994,22.3999996 C3.81499994,22.8892996 4.17899993,23.3582996 4.54999992,23.7999996 C7.05599988,26.7679995 10.2129998,28.6999995 12.5999998,28.6999995 C14.9869997,28.6999995 18.1439997,26.7679995 20.6499996,23.7999996 C21.0209996,23.3582996 21.3849996,22.8892996 21.7279996,22.3999996 L22.9949996,20.4161997 C21.5032996,20.9551996 18.0389997,22.0296996 16.8139997,21.7139996 Z" id="Path" fill="#F0C7B7"></path>
                                        <g transform="translate(0.000000, 14.000000)" fill="#ED5565" id="Path">
                                            <path d="M11.8572998,2.93929995 C12.3619998,3.42229994 12.5999998,3.94029993 12.5999998,4.44359992 C12.5999998,5.02459991 12.2926998,5.5985999 11.7109998,6.1235999 C11.4372998,6.36859989 11.1012998,6.60589989 10.7029998,6.82359988 C10.0736998,7.17359988 9.29529984,7.47459987 8.38599986,7.71259987 C6.29999989,8.25229986 3.06529995,7.40529987 1.28099998,5.6755999 C-0.0629999989,4.38059993 0.059499999,1.20609998 0.349999994,0.524299991 C0.349999994,0.524299991 0.909999985,5.28499991 4.57029992,4.27559993 C8.23199986,3.26759994 10.4572998,1.58759997 11.8572998,2.93929995 Z"></path>
                                            <path d="M13.3426998,2.93929995 C12.8379998,3.42229994 12.5999998,3.94029993 12.5999998,4.44359992 C12.5999998,5.02459991 12.9072998,5.5985999 13.4889998,6.1235999 C13.7626998,6.36859989 14.0986998,6.60589989 14.4969998,6.82359988 C15.1262997,7.17359988 15.9046997,7.47459987 16.8139997,7.71259987 C18.8999997,8.25229986 22.1346996,7.40529987 23.9189996,5.6755999 C25.2629996,4.38059993 25.1404996,1.20609998 24.8499996,0.524299991 C24.8499996,0.524299991 24.2899996,5.28499991 20.6296996,4.27559993 C16.9679997,3.26759994 14.7426997,1.58759997 13.3426998,2.93929995 Z"></path>
                                        </g>
                                    </g>
                                    <path d="M32.5709994,1.39999998 L26.3150996,1.39999998 C25.0907996,0.655899989 23.1986996,0 20.3202997,0 C17.4453997,0 15.5581997,0.655199989 14.3338998,1.39999998 L12.9702998,1.39999998 L8.48539986,1.39999998 L8.06959986,1.39999998 C5.36059991,1.39999998 3.16959995,3.59099994 3.16959995,6.29999989 C3.16959995,9.00899985 5.36059991,11.1999998 8.06959986,11.1999998 L8.06959986,17.5 C8.06959986,18.1999997 10.8702998,18.8999997 20.3202997,18.8999997 C29.7702995,18.8999997 32.5709994,18.1999997 32.5709994,17.5 L32.5709994,11.1999998 C35.2799994,11.1999998 37.4709994,9.00899985 37.4709994,6.29999989 C37.4709994,3.59869994 35.2799994,1.39999998 32.5709994,1.39999998 Z" id="Path" fill="#656D78" fill-rule="nonzero"></path>
                                </g>
                            </g>
                        </g>
                    </g>
                </g>
            </g>
        </g>
    </g>
</svg>