<?xml version="1.0" encoding="UTF-8"?>
<svg width="52px" height="48px" viewBox="0 0 52 48" version="1.1" xmlns="http://www.w3.org/2000/svg" xmlns:xlink="http://www.w3.org/1999/xlink">
    <!-- Generator: Sketch 63.1 (92452) - https://sketch.com -->
    <title>COGS</title>
    <desc>Created with Sketch.</desc>
    <g id="Page-1" stroke="none" stroke-width="1" fill="none" fill-rule="evenodd">
        <g id="23.1-MAIN-UI---INVENTORY-MANAGEMENT" transform="translate(-1305.000000, -256.000000)">
            <g id="INVENTORY-MANAGEMENT" transform="translate(293.000000, 203.000000)">
                <g id="TOP-TOOLBAR" transform="translate(23.000000, 30.000000)">
                    <g id="COGS" transform="translate(965.000000, 12.000000)">
                        <g transform="translate(10.000000, 4.000000)">
                            <g transform="translate(14.000000, 7.000000)">
                                <g>
                                    <path d="M2.4000001,0 L43.2000017,0 C44.5260018,0 45.6000018,1.07400004 45.6000018,2.4000001 L45.6000018,34.8000014 L42.0000017,38.4000015 L0,38.4000015 L0,2.4000001 C0,1.07400004 1.07400004,0 2.4000001,0 L2.4000001,0 Z" id="Shape" fill="#90CAF9"></path>
                                    <rect id="Rectangle-path" fill="#FFFFFF" x="2.4000001" y="10.8000004" width="40.8000016" height="25.200001"></rect>
                                    <rect id="Rectangle-path" fill="#2196F3" transform="translate(30.000001, 25.200001) rotate(180.000000) translate(-30.000001, -25.200001) " x="27.6000011" y="19.2000008" width="4.80000019" height="12.0000005"></rect>
                                    <rect id="Rectangle-path" fill="#FF9800" transform="translate(22.800001, 27.000001) rotate(180.000000) translate(-22.800001, -27.000001) " x="20.4000008" y="22.8000009" width="4.80000019" height="8.40000033"></rect>
                                    <rect id="Rectangle-path" fill="#4CAF50" transform="translate(15.600001, 22.800001) rotate(180.000000) translate(-15.600001, -22.800001) " x="13.2000005" y="14.4000006" width="4.80000019" height="16.8000007"></rect>
                                    <rect id="Rectangle-path" fill="#FFFFFF" x="15.6000006" y="3.60000014" width="27.6000011" height="4.80000019"></rect>
                                    <circle id="Oval" fill="#1E88E5" cx="4.80000019" cy="6.00000024" r="2.4000001"></circle>
                                    <circle id="Oval" fill="#1E88E5" cx="10.8000004" cy="6.00000024" r="2.4000001"></circle>
                                    <polygon id="Rectangle-path" fill="#F19B2C" transform="translate(41.043306, 36.956727) rotate(-45.000000) translate(-41.043306, -36.956727) " points="31.1422005 33.6105586 50.9444113 33.6105586 50.9444113 40.3028947 31.1422005 40.3028947"></polygon>
                                    <polygon id="Shape" fill="#F0C330" points="30.0000012 48.0000019 31.6764013 41.5920017 36.4080014 46.3236018"></polygon>
                                    <polygon id="Shape" fill="#35495D" points="30.7332012 45.1956018 30.0000012 48.0000019 32.8044013 47.2668019"></polygon>
                                    <path d="M50.835602,28.2036011 L49.796402,27.1644011 C48.7764019,26.144401 47.1228019,26.144401 46.1040018,27.1644011 L44.9856018,28.2828011 L49.717202,33.0144013 L50.835602,31.8960013 C51.8544021,30.8772012 51.8544021,29.2236012 50.835602,28.2036011 L50.835602,28.2036011 Z" id="Shape" fill="#E54D42"></path>
                                    <rect id="Rectangle-path" fill="#7F8C8D" transform="translate(47.106962, 30.892270) rotate(-45.000000) translate(-47.106962, -30.892270) " x="45.7815745" y="27.5461024" width="2.65077468" height="6.69233609"></rect>
                                </g>
                            </g>
                        </g>
                    </g>
                </g>
            </g>
        </g>
    </g>
</svg>