<?xml version="1.0" encoding="UTF-8"?>
<svg width="20px" height="19px" viewBox="0 0 20 19" version="1.1" xmlns="http://www.w3.org/2000/svg" xmlns:xlink="http://www.w3.org/1999/xlink">
    <!-- Generator: Sketch 63.1 (92452) - https://sketch.com -->
    <title>COMMENTS</title>
    <desc>Created with Sketch.</desc>
    <g id="Page-1" stroke="none" stroke-width="1" fill="none" fill-rule="evenodd">
        <g id="23.3.1.1--MAIN-UI---INVENTORY-MANAGEMENT-(ORDER)-" transform="translate(-942.000000, -518.000000)">
            <g id="INVENTORY-MANAGEMENT" transform="translate(293.000000, 233.000000)">
                <g id="PLACE-ORDER" transform="translate(0.000000, 150.000000)">
                    <g id="COMMENTS" transform="translate(639.000000, 88.000000)">
                        <g id="ITEM-TAB" transform="translate(0.000000, 35.700000)">
                            <g id="COMMENTS" transform="translate(10.000000, 11.300000)">
                                <g id="Copy">
                                    <g id="Layer_1">
                                        <g id="Group">
                                            <polygon id="Shape" fill="#B0BEC5" points="0 15.9999997 0 0 8.29629616 0 12.4444442 3.99999993 12.4444442 15.9999997"></polygon>
                                            <polygon id="Shape" fill="#B0BEC5" points="0 15.9999997 0 0 8.29629616 0 12.4444442 3.99999993 12.4444442 15.9999997"></polygon>
                                            <polygon id="Shape" fill="#FFFFFF" points="1.03703702 14.9999997 1.03703702 0.999999983 9.33333317 0.999999983 11.4074072 2.99999995 11.4074072 14.9999997"></polygon>
                                            <polygon id="Shape" fill="#B0BEC5" points="8.29629616 3.99999993 8.29629616 0 12.4444442 3.99999993"></polygon>
                                            <polygon id="Shape" fill="#90A4AE" points="8.29629616 3.99999993 12.4444442 5.49999991 12.4444442 3.99999993"></polygon>
                                        </g>
                                        <g id="Group" transform="translate(7.259259, 3.000000)">
                                            <polygon id="Shape" fill="#CFD8DC" points="0 15.9999997 0 0 8.29629616 0 12.4444442 3.99999993 12.4444442 15.9999997"></polygon>
                                            <polygon id="Shape" fill="#B0BEC5" points="0 15.9999997 0 0 8.29629616 0 12.4444442 3.99999993 12.4444442 15.9999997"></polygon>
                                            <polygon id="Shape" fill="#FFFFFF" points="1.03703702 14.9999997 1.03703702 0.999999983 9.33333317 0.999999983 11.4074072 2.99999995 11.4074072 14.9999997"></polygon>
                                            <polygon id="Shape" fill="#B0BEC5" points="8.29629616 3.99999993 8.29629616 0 12.4444442 3.99999993"></polygon>
                                            <polygon id="Shape" fill="#90A4AE" points="8.29629616 3.99999993 12.4444442 5.49999991 12.4444442 3.99999993"></polygon>
                                        </g>
                                        <g id="Group" transform="translate(2.592593, 6.000000)" fill="#2196F3">
                                            <rect id="Rectangle-path" x="0" y="0" width="4.66666659" height="1"></rect>
                                            <rect id="Rectangle-path" x="0" y="1.99999997" width="4.66666659" height="1"></rect>
                                            <rect id="Rectangle-path" x="0" y="3.99999993" width="4.66666659" height="1"></rect>
                                            <rect id="Rectangle-path" x="7.25925914" y="3.49999994" width="7.25925914" height="1"></rect>
                                            <rect id="Rectangle-path" x="7.25925914" y="5.49999991" width="7.25925914" height="1"></rect>
                                            <rect id="Rectangle-path" x="7.25925914" y="7.49999987" width="7.25925914" height="1"></rect>
                                        </g>
                                    </g>
                                </g>
                            </g>
                        </g>
                    </g>
                </g>
            </g>
        </g>
    </g>
</svg>