<?xml version="1.0" encoding="UTF-8"?>
<svg width="13px" height="22px" viewBox="0 0 13 22" version="1.1" xmlns="http://www.w3.org/2000/svg" xmlns:xlink="http://www.w3.org/1999/xlink">
    <!-- Generator: Sketch 63.1 (92452) - https://sketch.com -->
    <title>ICON</title>
    <desc>Created with Sketch.</desc>
    <g id="Page-1" stroke="none" stroke-width="1" fill="none" fill-rule="evenodd">
        <g id="23.2.1-MAIN-UI---INVENTORY-MANAGEMENT-(SUPPLIER)" transform="translate(-572.000000, -517.000000)">
            <g id="INVENTORY-MANAGEMENT" transform="translate(293.000000, 233.000000)">
                <g id="CREATE-NEW-SUPPLIER" transform="translate(0.000000, 150.000000)">
                    <g id="CONTACT" transform="translate(263.550000, 88.050000)">
                        <g id="CONTACT-TAG" transform="translate(0.000000, 35.700000)">
                            <g id="ICONE" transform="translate(14.700000, 8.400000)">
                                <g transform="translate(7.837748, 12.560960) rotate(12.000000) translate(-7.837748, -12.560960) translate(2.871124, 1.391574)">
                                    <path d="M8.66092582,5.3235005 L6.46079379,5.3235005 L6.8460961,0.404040038 C6.86284838,0.180180017 7.05270749,0.010920001 7.28165524,0.010920001 L7.84564847,0.010920001 C8.07459622,0.010920001 8.26445533,0.185640018 8.2812076,0.404040038 L8.66092582,5.3235005 Z" id="Path" fill="#324A5E" fill-rule="nonzero"></path>
                                    <path d="M6.2597665,3.47256033 L3.39512759,3.47256033 C2.63569116,3.47256033 1.90417518,3.76194036 1.37368649,4.29702041 C0.524904595,5.14332049 0.00558409144,6.3063006 0.00558409144,7.58394072 L0.00558409144,20.2620619 C0.00558409144,21.250322 0.826445533,22.0529421 1.83716608,22.0529421 L7.81772801,22.0529421 C8.82844856,22.0529421 9.64931001,21.250322 9.64931001,20.2620619 L9.64931001,7.58394072 C9.64931001,6.3063006 9.1299895,5.14332049 8.2812076,4.29702041 C7.75071892,3.76740036 7.01920294,3.47256033 6.2597665,3.47256033 Z" id="Path" fill="#84DBFF" fill-rule="nonzero"></path>
                                    <path d="M6.90193702,11.9464811 C7.38775297,11.9464811 7.8288962,11.5752011 7.99083485,11.012821 C8.23095078,10.193821 8.36496897,9.26562088 8.36496897,8.28282078 C8.36496897,7.44198071 8.26445533,6.63936063 8.0857644,5.90772056 C7.94057803,5.3071205 7.48826662,4.90308046 6.97453021,4.90308046 L2.66919571,4.90308046 C2.16104339,4.90308046 1.70873198,5.3125805 1.55796151,5.90772056 C1.37927059,6.63936063 1.27875694,7.44198071 1.27875694,8.28282078 C1.27875694,9.26562088 1.41277513,10.193821 1.65289107,11.012821 C1.82041381,11.5752011 2.25597294,11.9464811 2.7417889,11.9464811 L6.90193702,11.9464811 Z" id="Path" fill="#54C0EB" fill-rule="nonzero"></path>
                                    <path d="M7.20906205,13.6445413 C7.76747119,13.6445413 8.27003942,13.2787213 8.45989853,12.7272612 C8.73351901,11.9191811 8.88987357,11.012821 8.88987357,10.046401 C8.88987357,9.22194087 8.77260765,8.4302408 8.56599627,7.71498073 C8.39847352,7.13076068 7.87915302,6.72672064 7.29282342,6.72672064 L2.35648659,6.72672064 C1.77015699,6.72672064 1.25642057,7.12530068 1.08331374,7.71498073 C0.876702356,8.4302408 0.759436436,9.21648087 0.759436436,10.046401 C0.759436436,11.012821 0.915790996,11.9191811 1.18941148,12.7272612 C1.37927059,13.2787213 1.88183881,13.6445413 2.44024796,13.6445413 L7.20906205,13.6445413 Z" id="Path" fill="#324A5E" fill-rule="nonzero"></path>
                                    <rect id="Rectangle" fill="#FFFFFF" fill-rule="nonzero" x="1.91534336" y="7.95522075" width="5.81862328" height="4.46082042"></rect>
                                    <g id="Group" transform="translate(1.284341, 14.851201)" fill="#324A5E" fill-rule="nonzero">
                                        <ellipse id="Oval" cx="0.910206904" cy="0.649740062" rx="1" ry="1"></ellipse>
                                        <ellipse id="Oval" cx="3.54031397" cy="0.649740062" rx="1" ry="1"></ellipse>
                                        <ellipse id="Oval" cx="6.17042104" cy="0.649740062" rx="1" ry="1"></ellipse>
                                    </g>
                                    <g id="Group" transform="translate(1.284341, 16.871402)" fill="#324A5E" fill-rule="nonzero">
                                        <ellipse id="Oval" cx="0.910206904" cy="0.671580064" rx="1" ry="1"></ellipse>
                                        <ellipse id="Oval" cx="3.54031397" cy="0.671580064" rx="1" ry="1"></ellipse>
                                        <ellipse id="Oval" cx="6.17042104" cy="0.671580064" rx="1" ry="1"></ellipse>
                                    </g>
                                    <g id="Group" transform="translate(1.284341, 18.946202)" fill="#324A5E" fill-rule="nonzero">
                                        <ellipse id="Oval" cx="0.910206904" cy="0.644280061" rx="1" ry="1"></ellipse>
                                        <ellipse id="Oval" cx="3.54031397" cy="0.644280061" rx="1" ry="1"></ellipse>
                                        <ellipse id="Oval" cx="6.17042104" cy="0.644280061" rx="1" ry="1"></ellipse>
                                    </g>
                                    <g id="Group" transform="translate(3.071250, 5.514601)" fill="#2B3B4E" fill-rule="nonzero">
                                        <ellipse id="Oval" cx="3.1941003" cy="0.314810536" rx="1" ry="1"></ellipse>
                                        <ellipse id="Oval" cx="1.75340471" cy="0.314810536" rx="1" ry="1"></ellipse>
                                        <ellipse id="Oval" cx="0.318293212" cy="0.314810536" rx="1" ry="1"></ellipse>
                                    </g>
                                </g>
                            </g>
                        </g>
                    </g>
                </g>
            </g>
        </g>
    </g>
</svg>