<?xml version="1.0" encoding="UTF-8"?>
<svg width="48px" height="48px" viewBox="0 0 48 48" version="1.1" xmlns="http://www.w3.org/2000/svg" xmlns:xlink="http://www.w3.org/1999/xlink">
    <!-- Generator: Sketch 63.1 (92452) - https://sketch.com -->
    <title>ICON</title>
    <desc>Created with Sketch.</desc>
    <g id="Page-1" stroke="none" stroke-width="1" fill="none" fill-rule="evenodd">
        <g id="24.1-MAIN-UI---CUSTOMER-ANALYTICS" transform="translate(-587.000000, -526.000000)" fill="#387DFF">
            <g id="1.BLOCKS" transform="translate(312.000000, 226.000000)">
                <g id="AVERAGE-SEAT-TIME" transform="translate(1.000000, 274.000000)">
                    <g id="ICON" transform="translate(274.455007, 26.820002)">
                        <circle id="椭圆形备份-4" opacity="0.100000001" cx="23.5125006" cy="23.5125006" r="23.5125006"></circle>
                        <path d="M37.282585,19.2998154 C36.5233989,18.4526201 32.4384862,11.9700003 32.4384862,11.9700003 L15.4365163,11.9700003 L9.78494497,19.1552561 C9.78494497,19.1552561 8.93006936,20.5523145 9.78494497,21.6123167 C10.6398206,22.6721695 21.8952657,34.8608507 21.8952657,34.8608507 C21.8952657,34.8608507 23.4625131,37.2214388 25.2196674,34.8608507 L37.282585,21.5159936 C37.282585,21.5159936 38.0417711,20.1470107 37.282585,19.2998154 Z M29.9448168,19.5535409 L28.9951349,19.6102894 L24.1906369,30.2646704 L23.3247201,30.2646704 L18.6478572,19.6102894 L17.3747447,19.5535409 L17.3747447,17.6833793 L22.5993934,17.6833793 L22.5993934,19.6102894 L20.9062775,19.6102894 L23.6877515,27.1476846 L26.9838881,19.6668886 L25.1403187,19.5535409 L25.1403187,17.6833793 L29.9448168,17.6833793 L29.9448168,19.5535409 Z" id="形状" fill-rule="nonzero"></path>
                    </g>
                </g>
            </g>
        </g>
    </g>
</svg>