<?xml version="1.0" encoding="UTF-8"?>
<svg width="56px" height="61px" viewBox="0 0 56 61" version="1.1" xmlns="http://www.w3.org/2000/svg" xmlns:xlink="http://www.w3.org/1999/xlink">
    <!-- Generator: Sketch 63.1 (92452) - https://sketch.com -->
    <title>EDIT</title>
    <desc>Created with Sketch.</desc>
    <defs>
        <filter x="-29.3%" y="-26.5%" width="158.7%" height="152.9%" filterUnits="objectBoundingBox" id="filter-1">
            <feOffset dx="2" dy="2" in="SourceAlpha" result="shadowOffsetOuter1"></feOffset>
            <feGaussianBlur stdDeviation="2.5" in="shadowOffsetOuter1" result="shadowBlurOuter1"></feGaussianBlur>
            <feColorMatrix values="0 0 0 0 0   0 0 0 0 0   0 0 0 0 0  0 0 0 0.5 0" type="matrix" in="shadowBlurOuter1" result="shadowMatrixOuter1"></feColorMatrix>
            <feMerge>
                <feMergeNode in="shadowMatrixOuter1"></feMergeNode>
                <feMergeNode in="SourceGraphic"></feMergeNode>
            </feMerge>
        </filter>
    </defs>
    <g id="Page-1" stroke="none" stroke-width="1" fill="none" fill-rule="evenodd">
        <g id="23.2.1-MAIN-UI---INVENTORY-MANAGEMENT-(SUPPLIER)" transform="translate(-356.000000, -1089.000000)">
            <g id="INVENTORY-MANAGEMENT" transform="translate(293.000000, 233.000000)">
                <g id="SUPPLIERS" transform="translate(0.000000, 501.000000)">
                    <g id="TAB-1" transform="translate(23.000000, 165.000000)">
                        <g id="EDIT" transform="translate(43.000000, 193.000000)">
                            <g filter="url(#filter-1)">
                                <polygon id="Shape" fill="#CFD8DC" points="0 43.2000017 0 0 22.8000009 0 33.6000013 10.8000004 33.6000013 43.2000017"></polygon>
                                <polygon id="Shape" fill="#B0BEC5" points="0 43.2000017 0 0 22.8000009 0 33.6000013 10.8000004 33.6000013 43.2000017"></polygon>
                                <polygon id="Shape" fill="#FFFFFF" points="2.4000001 40.8000016 2.4000001 2.4000001 25.200001 2.4000001 31.2000012 8.40000033 31.2000012 40.8000016"></polygon>
                                <polygon id="Shape" fill="#B0BEC5" points="22.8000009 10.8000004 22.8000009 0 33.6000013 10.8000004"></polygon>
                                <polygon id="Shape" fill="#90A4AE" points="22.8000009 10.8000004 33.6000013 14.4000006 33.6000013 10.8000004"></polygon>
                                <rect id="Rectangle-path" fill="#2196F3" transform="translate(24.000001, 26.400001) rotate(180.000000) translate(-24.000001, -26.400001) " x="21.6000009" y="20.4000008" width="4.80000019" height="12.0000005"></rect>
                                <rect id="Rectangle-path" fill="#FF9800" transform="translate(16.800001, 28.200001) rotate(180.000000) translate(-16.800001, -28.200001) " x="14.4000006" y="24.000001" width="4.80000019" height="8.40000033"></rect>
                                <rect id="Rectangle-path" fill="#4CAF50" transform="translate(9.600000, 24.000001) rotate(180.000000) translate(-9.600000, -24.000001) " x="7.20000029" y="15.6000006" width="4.80000019" height="16.8000007"></rect>
                                <circle id="Oval" fill="#3F51B5" cx="34.8000014" cy="39.6000016" r="10.8000004"></circle>
                                <path d="M30.1308012,40.6728016 C30.1308012,40.6716016 30.1296012,40.6704016 30.1296012,40.6692016 L32.4000013,38.4000015 L30.1704012,38.4000015 C30.7068012,36.3360014 32.5704013,34.8000014 34.8000014,34.8000014 C36.1728014,34.8000014 37.4028015,35.3880014 38.2764015,36.3156014 L39.9804016,34.6116014 C38.6700015,33.2508013 36.8340015,32.4000013 34.8000014,32.4000013 C30.8292012,32.4000013 27.6000011,35.6292014 27.6000011,39.6000016 C27.6000011,40.6560016 27.8340011,41.6556017 28.2444011,42.5604017 L30.1308012,40.6728016 L30.1308012,40.6728016 Z" id="Shape" fill="#FFFFFF"></path>
                                <path d="M37.2012015,40.8000016 L39.4296016,40.8000016 C38.8932015,42.8640017 37.0296015,44.4000018 34.8000014,44.4000018 C33.4284013,44.4000018 32.1996013,43.8132017 31.3272012,42.8868017 L29.6232012,44.5908018 C30.9324012,45.9504018 32.7672013,46.8000019 34.8000014,46.8000019 C38.7708015,46.8000019 42.0000017,43.5708017 42.0000017,39.6000016 C42.0000017,38.5452015 41.7672017,37.5468015 41.3580016,36.6432015 L37.2012015,40.8000016 L37.2012015,40.8000016 Z" id="Shape" fill="#FFFFFF"></path>
                            </g>
                        </g>
                    </g>
                </g>
            </g>
        </g>
    </g>
</svg>