<?xml version="1.0" encoding="UTF-8"?>
<svg width="23px" height="23px" viewBox="0 0 23 23" version="1.1" xmlns="http://www.w3.org/2000/svg" xmlns:xlink="http://www.w3.org/1999/xlink">
    <!-- Generator: Sketch 63.1 (92452) - https://sketch.com -->
    <title>EXPENSE</title>
    <desc>Created with Sketch.</desc>
    <g id="Page-1" stroke="none" stroke-width="1" fill="none" fill-rule="evenodd">
        <g id="26.2-MAIN-UI---REVENUE-ANALYTICS-(DROP-DOWN)" transform="translate(-344.000000, -1962.000000)">
            <g id="4.EXPENSE-DETAILS" transform="translate(310.000000, 1722.000000)">
                <g id="ORDER-LIST" transform="translate(0.000000, 91.000000)">
                    <g id="DROP-DOWN-1" transform="translate(0.000000, 48.000000)">
                        <g id="ACTIVE-TAB" transform="translate(31.000000, 98.000000)">
                            <g id="EXPENSE-DETAILS">
                                <g id="HEADER">
                                    <g id="EXPENSE">
                                        <g id="Layer_1">
                                            <g>
                                                <path d="M15.947999,17.072399 C15.947999,15.968999 15.0065991,15.6707991 13.9913992,15.2201991 C12.5879992,14.5973991 11.0801993,14.0669992 11.0801993,11.8709993 C11.0801993,11.1593993 11.3075993,9.17699945 14.0705992,8.81999947 L14.0705992,7.19999957 L15.2819991,7.19999957 L15.2819991,8.84279947 C17.7275989,9.26519945 18.0875989,11.0981993 18.1361989,12.3635993 L15.947999,12.3635993 C15.955799,11.0633993 15.3503991,10.5539994 14.5697991,10.5539994 C13.2893992,10.5539994 13.2677992,11.6921993 13.2677992,11.8787993 C13.2677992,14.1503992 18.1361989,13.3079992 18.1361989,17.057399 C18.1361989,19.6931988 15.5771991,20.0477988 15.1229991,20.0933988 L15.1229991,21.5999987 L13.9193992,21.5999987 L13.9193992,20.1011988 C13.5005992,20.0555988 10.6637994,19.7987988 10.6637994,16.512599 L12.8519992,16.512599 C12.8519992,18.4217989 14.3033991,18.3749989 14.5097991,18.3749989 C14.7467991,18.3749989 15.947999,18.3161989 15.947999,17.072399 L15.947999,17.072399 Z" id="Shape" fill="#4CAF50"></path>
                                                <path d="M4.90319971,20.6927988 L7.79999954,13.7999992 L5.43059968,13.7999992 C5.74139966,9.11699946 9.64019943,5.39999968 14.3999991,5.39999968 C16.060199,5.39999968 17.611799,5.86019965 18.9485989,6.6473996 L20.6927988,4.90319971 C18.8879989,3.70319978 16.724999,2.99999982 14.3999991,2.99999982 C8.11379952,2.99999982 2.99999982,8.11379952 2.99999982,14.3999991 C2.99999982,16.724999 3.70319978,18.8879989 4.90319971,20.6927988 L4.90319971,20.6927988 Z" id="Shape" fill="#F44336"></path>
                                                <rect id="Rectangle-path" x="0" y="0" width="28.7999983" height="28.7999983"></rect>
                                                <g id="Group" transform="translate(8.399999, 4.200000)" stroke="#F44336" stroke-width="2.39999986">
                                                    <path d="M5.99999964,0 C6.40559962,0 6.80519959,0.0336206897 7.19879957,0.1" id="Shape"></path>
                                                    <path d="M9.50699943,0.618599963 C13.4123992,2.04899988 16.199999,5.79899965 16.199999,10.1999994 C16.199999,15.8333991 11.6333993,20.3999988 5.99999964,20.3999988 C4.74959972,20.3999988 3.55139979,20.1749988 2.44439985,19.7633988" id="Shape" stroke-dasharray="2.376419879411458,2.376419879411458"></path>
                                                    <path d="M1.36079992,19.2863989 C1.00379994,19.1033989 0.658199961,18.9005989 0.326999981,18.6785989" id="Shape"></path>
                                                </g>
                                            </g>
                                        </g>
                                    </g>
                                </g>
                            </g>
                        </g>
                    </g>
                </g>
            </g>
        </g>
    </g>
</svg>