<?xml version="1.0" encoding="UTF-8"?>
<svg width="41px" height="47px" viewBox="0 0 41 47" version="1.1" xmlns="http://www.w3.org/2000/svg" xmlns:xlink="http://www.w3.org/1999/xlink">
    <!-- Generator: Sketch 63.1 (92452) - https://sketch.com -->
    <title>FOOD SURPLUS</title>
    <desc>Created with Sketch.</desc>
    <g id="Page-1" stroke="none" stroke-width="1" fill="none" fill-rule="evenodd">
        <g id="23.1-MAIN-UI---INVENTORY-MANAGEMENT" transform="translate(-1156.000000, -255.000000)">
            <g id="INVENTORY-MANAGEMENT" transform="translate(293.000000, 203.000000)">
                <g id="TOP-TOOLBAR" transform="translate(23.000000, 30.000000)">
                    <g id="INVENTORY" transform="translate(427.000000, 10.000000)">
                        <g id="SURPLUS" transform="translate(394.000000, 6.000000)">
                            <g id="FOOD-SURPLUS" transform="translate(19.000000, 6.000000)">
                                <g>
                                    <g id="Apple">
                                        <path d="M17.1937179,1.71811111 C19.4718462,3.98142222 18.8442308,8.27617778 18.8442308,8.27617778 C18.8442308,8.27617778 14.521359,8.90075556 12.2432308,6.6364 C9.96510256,4.37204444 10.5927179,0.0783333333 10.5927179,0.0783333333 C10.5927179,0.0783333333 14.9145385,-0.5452 17.1937179,1.71811111 L17.1937179,1.71811111 Z" id="Shape" fill="#4CAF50"></path>
                                        <path d="M24.1794872,2.95891111 C24.1794872,2.95891111 18.9230769,5.87186667 18.9230769,11.3144667" id="Shape" stroke="#BF360C" stroke-width="2.07999992"></path>
                                        <path d="M26.8907436,9.4 C23.9250769,9.4 21.1602051,10.4444444 18.9230769,10.4444444 C16.6859487,10.4444444 14.4645897,9.4 10.9554103,9.4 C4.20302564,9.4 0,13.6686444 0,19.8695111 C0,27.918 7.19287179,40.7333333 13.9431538,40.7333333 C16.2296923,40.7333333 17.9905897,39.6888889 18.9230769,39.6888889 C19.8555641,39.6888889 21.6164615,40.7333333 23.903,40.7333333 C30.6532821,40.7333333 37.8461538,27.918 37.8461538,19.8695111 C37.8461538,13.6686444 33.6431282,9.4 26.8907436,9.4 L26.8907436,9.4 Z" id="Shape" fill="#4CAF50"></path>
                                        <path d="M23.903,38.6444444 C22.8422564,38.6444444 21.8771795,38.3311111 21.0245897,38.0553778 C20.2718718,37.8109778 19.5780256,37.8381333 18.9230769,37.6 L18.9230769,12.5333333 C18.9230769,12.5333333 21.968641,11.4888889 26.8907436,11.4888889 C32.3511026,11.4888889 35.7435897,14.7005556 35.7435897,19.8695111 C35.7435897,27.0041111 29.1289231,38.6444444 23.903,38.6444444 L23.903,38.6444444 Z" id="Shape" fill="#F0F4C3"></path>
                                        <path d="M26.2820513,25.0666667 C26.2820513,26.7973111 24.8701795,28.2 23.1282051,28.2 C21.3862308,28.2 19.974359,26.7973111 19.974359,25.0666667 L19.974359,18.8 C19.974359,18.8 26.2820513,21.4111111 26.2820513,25.0666667 L26.2820513,25.0666667 Z" id="Shape" fill="#DCE775"></path>
                                        <path d="M24.1794872,24.4577556 C24.1794872,25.3225556 23.4730256,26.1111111 22.6025641,26.1111111 C21.7321026,26.1111111 21.025641,25.3225556 21.025641,24.4577556 L21.025641,21.4111111 C21.025641,21.4111111 24.1794872,22.8305111 24.1794872,24.4577556 L24.1794872,24.4577556 Z" id="Shape" fill="#BF360C"></path>
                                    </g>
                                    <g id="Process" transform="translate(21.025641, 27.155556)" fill="#D4AE00">
                                        <path d="M11.5641026,4.7 L11.5641026,2.24764444 C13.6372308,2.66646667 15.4144231,3.89212222 16.5492821,5.58151111 L17.8654872,3.83833333 C16.0378333,1.50608889 13.1925385,4.63826508e-16 9.98717949,4.63826508e-16 C8.65941026,4.63826508e-16 7.39524359,0.262677778 6.23620513,0.730066667 L11.5641026,4.7 L11.5641026,4.7 Z" id="Shape"></path>
                                        <path d="M4.73076923,8.35555556 L2.26235897,8.35555556 C2.68392308,6.29591111 3.91760256,4.53027778 5.61805128,3.4028 L3.86346154,2.09567778 C1.51594872,3.91092222 4.66863015e-16,6.73771111 4.66863015e-16,9.92222222 C4.66863015e-16,11.2413556 0.264397436,12.4973 0.734846154,13.6488 L4.73076923,8.35555556 L4.73076923,8.35555556 Z" id="Shape"></path>
                                        <path d="M8.41025641,15.1444444 L8.41025641,17.5968 C6.33712821,17.1779778 4.5599359,15.9523222 3.42507692,14.2629333 L2.10939744,16.0061111 C3.93652564,18.3383556 6.78182051,19.8444444 9.98717949,19.8444444 C11.3149487,19.8444444 12.5791154,19.5817667 13.7381538,19.1143778 L8.41025641,15.1444444 L8.41025641,15.1444444 Z" id="Shape"></path>
                                        <path d="M19.2395128,6.19564444 L15.2435897,11.4888889 L17.712,11.4888889 C17.2904359,13.5485333 16.0567564,15.3141667 14.3563077,16.4416444 L16.1108974,17.7492889 C18.4584103,15.9335222 19.974359,13.1067333 19.974359,9.92222222 C19.974359,8.60308889 19.7099615,7.34714444 19.2395128,6.19564444 L19.2395128,6.19564444 Z" id="Shape"></path>
                                    </g>
                                </g>
                            </g>
                        </g>
                    </g>
                </g>
            </g>
        </g>
    </g>
</svg>