<?xml version="1.0" encoding="UTF-8"?>
<svg width="30px" height="30px" viewBox="0 0 30 30" version="1.1" xmlns="http://www.w3.org/2000/svg" xmlns:xlink="http://www.w3.org/1999/xlink">
    <!-- Generator: Sketch 63.1 (92452) - https://sketch.com -->
    <title>GUEST</title>
    <desc>Created with Sketch.</desc>
    <g id="Page-1" stroke="none" stroke-width="1" fill="none" fill-rule="evenodd">
        <g id="24.3-MAIN-UI---CUSTOMER-ANALYTICS-(-SORTING)" transform="translate(-1187.000000, -1913.000000)">
            <g id="2.CUSTOMER-DETAILS" transform="translate(310.000000, 1722.000000)">
                <g id="NOTIFICATION-BAR" transform="translate(855.000000, 68.000000)">
                    <g id="GUESTS" transform="translate(0.000000, 108.000000)">
                        <g id="GUEST" transform="translate(22.000000, 15.000000)">
                            <g>
                                <path d="M29.323637,14.6618185 C29.323637,20.5342867 25.8711654,25.600686 20.8850821,27.9410376 C19.3369287,28.6681328 17.6408953,29.1319076 15.8540309,29.2755369 C15.4607283,29.3073054 15.0633988,29.3234133 14.6618185,29.3234133 C14.1904371,29.3234133 13.722859,29.3012649 13.2622162,29.256968 C12.673381,29.2019325 12.0946132,29.1111015 11.5285976,28.9878309 C10.3741941,28.7363679 9.27124665,28.3493295 8.23653428,27.8441661 C5.12210595,26.3235305 2.62671524,23.7317157 1.23002131,20.5486049 C0.438941743,18.7467512 0.000223721596,16.7556289 0.000223721596,14.6618185 C0.000223721596,6.56421533 6.5644391,0 14.6618185,0 C22.7594217,0 29.323637,6.56421533 29.323637,14.6618185 Z" id="Path" fill="#3FB777" fill-rule="nonzero"></path>
                                <path d="M28.0077066,18.9058172 L28.0077066,20.7412292 C26.5631362,23.9075609 24.0250148,26.4696206 20.8765807,27.9452883 C20.3063144,28.2121881 19.7156894,28.44374 19.1076141,28.636588 C18.4236972,28.8549403 17.7180792,29.0231789 16.9941161,29.1386193 C16.9909841,29.1390667 16.9874045,29.1397378 16.9844962,29.1397378 L16.9844962,18.9058172 C16.9844962,16.7245316 18.6641978,14.9352063 20.8018577,14.7629407 C20.9143897,14.7533206 21.0275928,14.74907 21.1416908,14.74907 L23.8491695,14.74907 C24.1693152,14.74907 24.4811831,14.7844179 24.7802989,14.8533242 C26.6282392,15.2757106 28.0077066,16.9303555 28.0077066,18.9058172 L28.0077066,18.9058172 Z" id="Path" fill="#BFD5DE" fill-rule="nonzero"></path>
                                <path d="M28.0077066,18.9058172 L28.0077066,20.7412292 C26.5631362,23.9075609 24.0250148,26.4696206 20.8765807,27.9452883 C20.3063144,28.2121881 19.7156894,28.44374 19.1076141,28.636588 L19.1076141,18.9058172 C19.1076141,16.6102099 20.9694252,14.74907 23.2657036,14.74907 L23.849617,14.74907 C26.1465667,14.74907 28.0077066,16.6102099 28.0077066,18.9058172 L28.0077066,18.9058172 Z" id="Path" fill="#DDE8ED" fill-rule="nonzero"></path>
                                <path d="M18.4268292,10.1638958 C18.4268292,10.8504974 17.9250217,11.4198689 17.2681751,11.5256892 C17.1965842,11.5373227 17.1225324,11.5433632 17.0473619,11.5433632 C16.2851424,11.5433632 15.6678945,10.9258916 15.6678945,10.1638958 C15.6678945,9.40190006 16.2851424,8.78442845 17.0473619,8.78442845 C17.1225324,8.78442845 17.1965842,8.79046895 17.2681751,8.80210247 C17.9250217,8.90792277 18.4268292,9.47729422 18.4268292,10.1638958 L18.4268292,10.1638958 Z" id="Path" fill="#D3A489" fill-rule="nonzero"></path>
                                <polyline id="Path" fill="#F74F4F" fill-rule="nonzero" points="23.6120247 16.2488995 22.4958776 18.038896 21.3799543 16.2488995"></polyline>
                                <polygon id="Path" fill="#F74F4F" fill-rule="nonzero" points="23.997497 23.095899 22.4961013 24.9910446 20.9940346 23.095899 22.4963251 17.5731076"></polygon>
                                <path d="M18.4268292,10.1638958 C18.4268292,10.8504974 17.9250217,11.4198689 17.2681751,11.5256892 C17.1489315,11.0916693 17.0851708,10.6352772 17.0851708,10.1638958 C17.0851708,9.69273813 17.1489315,9.23612237 17.2681751,8.80210247 C17.9250217,8.90792277 18.4268292,9.47729422 18.4268292,10.1638958 L18.4268292,10.1638958 Z" id="Path" fill="#BF8E75" fill-rule="nonzero"></path>
                                <path d="M17.5404443,10.1638958 C17.5404443,10.436165 17.3196311,10.6569782 17.0473619,10.6569782 C16.7750927,10.6569782 16.5542795,10.436165 16.5542795,10.1638958 C16.5542795,9.89162667 16.7750927,9.67081344 17.0473619,9.67081344 C17.3196311,9.67081344 17.5404443,9.89162667 17.5404443,10.1638958 Z" id="Path" fill="#BF8E75" fill-rule="nonzero"></path>
                                <polyline id="Path" fill="#BFD5DE" fill-rule="nonzero" points="22.4956539 16.4506964 20.6237753 17.4910018 20.0544039 14.8425856 21.2175325 14.15755"></polyline>
                                <polyline id="Path" fill="#BFD5DE" fill-rule="nonzero" points="22.4956539 16.4506964 24.3673088 17.4910018 24.9366803 14.8425856 23.7737754 14.15755"></polyline>
                                <path d="M26.5647023,10.1638958 C26.5647023,10.8504974 27.0662862,11.4198689 27.7231328,11.5256892 C27.7949474,11.5373227 27.8689992,11.5433632 27.9441696,11.5433632 C28.7063891,11.5433632 29.323637,10.9258916 29.323637,10.1638958 C29.323637,9.40190006 28.7063891,8.78442845 27.9441696,8.78442845 C27.8689992,8.78442845 27.7949474,8.79046895 27.7231328,8.80210247 C27.0662862,8.90792277 26.5647023,9.47729422 26.5647023,10.1638958 Z" id="Path" fill="#D3A489" fill-rule="nonzero"></path>
                                <g id="Group" transform="translate(17.353637, 4.238182)" fill="#BF8E75" fill-rule="nonzero">
                                    <path d="M9.21106555,5.92571393 C9.21106555,6.61231549 9.7126494,7.18168694 10.369496,7.2875073 C10.4889633,6.85348734 10.5527239,6.39709529 10.5527239,5.92571393 C10.5527239,5.45455622 10.4889633,4.99794045 10.369496,4.56392056 C9.7126494,4.66974086 9.21106555,5.23911231 9.21106555,5.92571393 Z" id="Path"></path>
                                    <path d="M11.0836153,5.92571393 C11.0836153,6.1979831 10.8628021,6.41879632 10.5905329,6.41879632 C10.3182637,6.41879632 10.0974505,6.1979831 10.0974505,5.92571393 C10.0974505,5.65344476 10.3182637,5.43263153 10.5905329,5.43263153 C10.8628021,5.43263153 11.0836153,5.65344476 11.0836153,5.92571393 Z" id="Path"></path>
                                    <path d="M10.274638,5.19257821 C10.274638,7.74658395 8.40879988,9.8654512 5.96598381,10.2587538 C5.69796531,10.3028269 5.42278778,10.3249754 5.14224087,10.3249754 C2.30746451,10.3249754 0.00962004295,8.02735457 0.00962004295,5.19257821 C0.00962004295,3.85136729 0.475632142,1.83787293 1.31772017,0.923522748 C2.25578487,-0.0946342494 3.64867549,0.0599573877 5.14224087,0.0599573877 C5.42278778,0.0599573877 5.69796531,0.0823295473 5.96598381,0.126402687 C8.40879988,0.519705282 10.274638,2.63834877 10.274638,5.19257821 L10.274638,5.19257821 Z" id="Path"></path>
                                    <path d="M6.62551508,8.90904142 L6.62551508,10.729464 C6.62551508,11.3959306 6.18612587,11.9592616 5.5807352,12.1462929 C5.44225157,12.1892474 5.29459526,12.2125145 5.14201716,12.2125145 C4.32274865,12.2125145 3.65874295,11.5487325 3.65874295,10.729464 L3.65874295,8.90904142 L6.62551508,8.90904142 Z" id="Path"></path>
                                </g>
                                <path d="M23.9791518,14.8524293 L23.9791518,14.967646 C23.9791518,15.6341125 23.5397626,16.1974435 22.934372,16.3846985 C22.3882676,16.2166836 21.9777384,15.7419464 21.9018968,15.1609414 C22.0010055,15.1669818 22.1005616,15.170114 22.2007888,15.170114 C22.4815594,15.170114 22.7565133,15.1477418 23.0245318,15.1036687 C23.3547448,15.0506466 23.6737718,14.9656325 23.9791518,14.8524293 L23.9791518,14.8524293 Z" id="Path" fill="#D3A489" fill-rule="nonzero"></path>
                                <path d="M27.6282748,9.43076013 C27.6282748,11.9847659 25.7624366,14.1036331 23.3196206,14.4969357 C20.8765807,14.1036331 19.0107426,11.9847659 19.0107426,9.43076013 C19.0107426,7.85799734 19.7181503,6.45034106 20.8327313,5.50869687 C21.5273869,4.92120393 22.3811085,4.51559669 23.3196206,4.36436089 C25.5971064,4.7310406 27.3734559,6.59799731 27.6029942,8.91888512 C27.6197734,9.08734752 27.6282748,9.25827082 27.6282748,9.43076013 Z" id="Path" fill="#D3A489" fill-rule="nonzero"></path>
                                <path d="M22.4958776,11.9585905 C22.0661085,11.9585905 21.6363393,11.8507567 21.2446028,11.6355365 C21.1340843,11.5746842 21.0935907,11.4359768 21.1544429,11.3254584 C21.2152952,11.2149399 21.3540026,11.17467 21.4645211,11.2352986 C22.1104054,11.5903447 22.88135,11.5903447 23.5272342,11.2352986 C23.6375289,11.17467 23.77646,11.2149399 23.8373123,11.3254584 C23.8979409,11.4359768 23.857671,11.5746842 23.7471525,11.6355365 C23.355416,11.8507567 22.9256468,11.9585905 22.4958776,11.9585905 L22.4958776,11.9585905 Z" id="Path" fill="#BF8E75" fill-rule="nonzero"></path>
                                <path d="M21.4027739,9.13186808 C21.4027739,9.45357976 21.1421383,9.71421541 20.8206503,9.71421541 C20.4989387,9.71421541 20.238303,9.45357976 20.238303,9.13186808 C20.238303,8.81038016 20.4989387,8.54974451 20.8206503,8.54974451 C21.1421383,8.54974451 21.4027739,8.81038016 21.4027739,9.13186808 Z" id="Path" fill="#3D4159" fill-rule="nonzero"></path>
                                <path d="M24.7532286,9.13186808 C24.7532286,9.45357976 24.4925929,9.71421541 24.1711049,9.71421541 C23.849617,9.71421541 23.5887577,9.45357976 23.5887577,9.13186808 C23.5887577,8.81038016 23.849617,8.54974451 24.1711049,8.54974451 C24.4925929,8.54974451 24.7532286,8.81038016 24.7532286,9.13186808 Z" id="Path" fill="#3D4159" fill-rule="nonzero"></path>
                                <path d="M21.2842015,9.02917991 C21.2842015,9.16699241 21.1723407,9.27862944 21.0345282,9.27862944 C20.8967157,9.27862944 20.7850786,9.16699241 20.7850786,9.02917991 C20.7850786,8.8913674 20.8967157,8.77973031 21.0345282,8.77973031 C21.1723407,8.77973031 21.2842015,8.8913674 21.2842015,9.02917991 Z" id="Path" fill="#FFFFFF" fill-rule="nonzero"></path>
                                <path d="M24.6632924,9.02917991 C24.6632924,9.16699241 24.5514317,9.27862944 24.4136191,9.27862944 C24.2758066,9.27862944 24.1641696,9.16699241 24.1641696,9.02917991 C24.1641696,8.8913674 24.2758066,8.77973031 24.4136191,8.77973031 C24.5514317,8.77973031 24.6632924,8.8913674 24.6632924,9.02917991 Z" id="Path" fill="#FFFFFF" fill-rule="nonzero"></path>
                                <path d="M23.0780012,10.5979157 L21.9135304,10.5979157 C21.7748229,10.5979157 21.6625147,10.4853838 21.6625147,10.3466764 C21.6625147,10.207969 21.7748229,10.0956608 21.9135304,10.0956608 L23.0780012,10.0956608 C23.2167086,10.0956608 23.3292406,10.207969 23.3292406,10.3466764 C23.3292406,10.4853838 23.2167086,10.5979157 23.0780012,10.5979157 L23.0780012,10.5979157 Z" id="Path" fill="#BF8E75" fill-rule="nonzero"></path>
                                <polygon id="Path" fill="#BFD5DE" fill-rule="nonzero" points="24.1856468 18.7695707 26.4230866 18.7695707 26.4230866 19.4546063 24.1856468 19.4546063"></polygon>
                                <path d="M22.1954195,2.83186793 C23.7502846,2.94305761 24.9986511,4.19903062 25.0776248,5.78007115 L25.0923905,6.07694973 L25.9868294,6.07694973 L26.4685021,9.28019551 L27.6352101,8.91910888 L27.478605,5.78007115 C27.3958281,4.11938573 26.0221775,2.81777352 24.359926,2.82379307 L22.1954195,2.83186793 Z" id="Path" fill="#2A2F4F" fill-rule="nonzero"></path>
                                <path d="M27.3797201,1.59312147 C28.6177954,2.83119681 28.6177954,4.83865068 27.3797201,6.07672596 C26.1416448,7.3148013 24.1341909,7.3148013 22.8961156,6.07672596 L27.3797201,1.59312147 Z" id="Path" fill="#3D4159" fill-rule="nonzero"></path>
                                <path d="M22.8963393,6.07672596 L19.0051496,6.07672596 L18.5232533,9.28019551 L17.3565451,8.91910888 L17.5131502,5.78007115 C17.5957035,4.1196095 18.9693542,2.81754975 20.6318293,2.82379151 L26.2514921,2.84506752 L26.9944715,4.18225154" id="Path" fill="#3D4159" fill-rule="nonzero"></path>
                                <path d="M22.796112,2.83186793 C21.2414706,2.94305761 19.9931042,4.19903062 19.9139067,5.78007115 L19.899141,6.07694973 L19.0049258,6.07694973 L18.5230296,9.28019551 L17.3563214,8.91910888 L17.5131502,5.78007115 C17.5957035,4.11938573 18.9693542,2.81777352 20.6316056,2.82379307 L22.796112,2.83186793 Z" id="Path" fill="#2A2F4F" fill-rule="nonzero"></path>
                                <path d="M11.5285976,19.0286404 L11.5285976,28.9878309 C6.90203497,27.9806363 3.09116128,24.7896952 1.23002131,20.5486049 L1.23002131,19.0286404 C1.23002131,17.2314848 2.45019892,15.7191268 4.10775221,15.2763818 C4.16838078,15.2596026 4.22923305,15.2446133 4.29165139,15.2314137 C4.45608678,15.1956182 4.62499654,15.1710089 4.79659102,15.1573619 C4.90129272,15.1488604 5.00733679,15.1441623 5.11449939,15.1441623 L7.64411949,15.1441623 C7.9271273,15.1441623 8.20230489,15.1739172 8.46808614,15.2314137 C8.48374663,15.2345458 8.49851228,15.2381253 8.51350164,15.2417049 C8.55846967,15.2517723 8.60276652,15.262511 8.64706342,15.274592 C8.64885319,15.2752632 8.64885319,15.2752632 8.65064297,15.2757106 C9.0880187,15.3924932 9.49496824,15.5839989 9.85650234,15.8352383 C10.8672765,16.5366055 11.5285976,17.7053271 11.5285976,19.0286404 Z" id="Path" fill="#3D4159" fill-rule="nonzero"></path>
                                <path d="M8.66003924,15.2316374 L8.65064297,15.2757106 L7.41144903,21.0374365 C7.34746463,21.0430296 7.28303281,21.0479515 7.21860099,21.0524259 C7.12799376,21.0582427 7.03671534,21.0638357 6.94498952,21.0678627 C6.75751079,21.0768115 6.56913724,21.081286 6.37986874,21.081286 C6.18545469,21.081286 5.99260664,21.0768115 5.80065354,21.0674153 C5.71384956,21.0633883 5.62704558,21.0584664 5.5402416,21.0519785 C5.47536231,21.047504 5.41093049,21.0430296 5.34649867,21.0376603 L4.10797592,15.276158 L4.09857964,15.2316374 L8.66003924,15.2316374 Z" id="Path" fill="#66BAED" fill-rule="nonzero"></path>
                                <polyline id="Path" fill="#DDE8ED" fill-rule="nonzero" points="7.42218767 16.5457781 6.37942132 18.2183207 5.33665498 16.5457781"></polyline>
                                <path d="M7.21860099,21.0524259 C7.12799376,21.0582427 6.56913724,24.0136049 6.37964503,24.0136049 C6.18523098,24.0136049 5.62704558,21.0584664 5.5402416,21.0519785 L6.37964503,17.7829585 L7.21860099,21.0524259 Z" id="Path" fill="#DDE8ED" fill-rule="nonzero"></path>
                                <polyline id="Path" fill="#2BA1CF" fill-rule="nonzero" points="6.37897385 16.7343754 4.63036586 17.706222 4.09835593 15.2318611 5.18497171 14.5917937"></polyline>
                                <polyline id="Path" fill="#2BA1CF" fill-rule="nonzero" points="6.37897385 16.7343754 8.12780555 17.706222 8.65981554 15.2318611 7.57319976 14.5917937"></polyline>
                                <polygon id="Path" fill="#2A2F4F" fill-rule="nonzero" points="8.72603713 18.5706822 9.28064298 18.5706822 6.90069261 24.7304089 6.43221962 25.9434274 5.91273805 24.6527775 6.39083114 23.0111085 8.64706342 15.274592 8.66026301 15.2314137 9.85650234 15.6222553"></polygon>
                                <polygon id="Path" fill="#2A2F4F" fill-rule="nonzero" points="6.90069261 24.7304089 6.43221962 25.9434274 5.91273805 24.6527775 3.46455266 18.5706822 4.01982964 18.5706822 2.88891695 15.6222553 4.08560381 15.2314137 4.09835593 15.274592 6.39083114 23.0111085"></polygon>
                                <path d="M7.76515286,13.6479122 L7.76515286,15.3488676 C7.76515286,15.9714848 7.35462372,16.497678 6.78905552,16.6724045 C6.65974447,16.7126744 6.52170826,16.7343754 6.37919756,16.7343754 C5.61384599,16.7343754 4.99346602,16.1142191 4.99346602,15.3486438 L4.99346602,13.6479122 L7.76515286,13.6479122 Z" id="Path" fill="#EAB599" fill-rule="nonzero"></path>
                                <path d="M7.76515286,15.2410337 L7.76515286,15.3488676 C7.76515286,15.9714848 7.35462372,16.497678 6.78905552,16.6724045 C6.27897028,16.5155757 5.89528779,16.0719357 5.824368,15.5291871 C5.91698877,15.5347802 6.01005695,15.5376886 6.10357255,15.5376886 C6.36577432,15.5376886 6.62283042,15.5168825 6.87317484,15.4757177 C7.18168694,15.4262752 7.47990781,15.3468541 7.76515286,15.2410337 Z" id="Path" fill="#F6CAAE" fill-rule="nonzero"></path>
                                <path d="M2.57749649,10.8605649 C2.57749649,11.5021984 2.1090235,12.0342084 1.49535515,12.1328696 C1.42823867,12.1438319 1.35910871,12.149425 1.2888601,12.149425 C0.576754246,12.149425 0,11.5726707 0,10.8605649 C0,10.1486828 0.576754246,9.57170476 1.2888601,9.57170476 C1.35910871,9.57170476 1.42823867,9.5775215 1.49535515,9.58826013 C2.1090235,9.68714511 2.57749649,10.2189313 2.57749649,10.8605649 Z" id="Path" fill="#F6CAAE" fill-rule="nonzero"></path>
                                <path d="M2.57749649,10.8605649 C2.57749649,11.5021984 2.1090235,12.0342084 1.49535515,12.1328696 C1.38371806,11.7274861 1.32420814,11.300849 1.32420814,10.8605649 C1.32420814,10.4202808 1.38371806,9.99364372 1.49535515,9.58826013 C2.1090235,9.68714511 2.57749649,10.2189313 2.57749649,10.8605649 Z" id="Path" fill="#EAB599" fill-rule="nonzero"></path>
                                <path d="M1.74950288,10.8605649 C1.74950288,11.1149363 1.54323154,11.3212076 1.2888601,11.3212076 C1.03448866,11.3212076 0.828217377,11.1149363 0.828217377,10.8605649 C0.828217377,10.6061934 1.03448866,10.3999221 1.2888601,10.3999221 C1.54323154,10.3999221 1.74950288,10.6061934 1.74950288,10.8605649 Z" id="Path" fill="#EAB599" fill-rule="nonzero"></path>
                                <path d="M10.1808987,10.8605649 C10.1808987,11.5021984 10.6495954,12.0342084 11.2632637,12.1328696 C11.3303802,12.1438319 11.3992865,12.149425 11.4697588,12.149425 C12.1816409,12.149425 12.7583952,11.5726707 12.7583952,10.8605649 C12.7583952,10.1486828 12.1816409,9.57170476 11.4697588,9.57170476 C11.3992865,9.57170476 11.3303802,9.5775215 11.2632637,9.58826013 C10.6495954,9.68714511 10.1808987,10.2189313 10.1808987,10.8605649 Z" id="Path" fill="#F6CAAE" fill-rule="nonzero"></path>
                                <path d="M10.1808987,10.8605649 C10.1808987,11.5021984 10.6495954,12.0342084 11.2632637,12.1328696 C11.3746771,11.7274861 11.434187,11.300849 11.434187,10.8605649 C11.434187,10.4202808 11.3746771,9.99364372 11.2632637,9.58826013 C10.6495954,9.68714511 10.1808987,10.2189313 10.1808987,10.8605649 Z" id="Path" fill="#EAB599" fill-rule="nonzero"></path>
                                <path d="M11.1744463,8.34973738 L11.1744463,10.1757531 C11.1744463,12.5619676 9.4312076,14.5414563 7.14879985,14.9088072 C7.14119334,14.9101495 7.13291566,14.9112681 7.1253091,14.9126104 C6.88257118,14.951538 6.63334529,14.970778 6.37919756,14.970778 C3.73100504,14.970778 1.58417261,12.8239456 1.58417261,10.1757531 L1.58417261,8.34973738 C1.58417261,7.79199945 1.67925427,7.25618622 1.85509947,6.75840568 C2.51082749,4.89234386 4.28896673,3.55426501 6.37919756,3.55426501 L6.37942132,3.55426501 C6.63334529,3.55426501 6.88301865,3.57395251 7.12620398,3.61220886 C9.41979778,3.97083459 11.1744463,5.95546889 11.1744463,8.34973738 Z" id="Path" fill="#EAB599" fill-rule="nonzero"></path>
                                <path d="M11.9301779,10.8605649 C11.9301779,11.1149363 11.7241302,11.3212076 11.4697588,11.3212076 C11.2151636,11.3212076 11.009116,11.1149363 11.009116,10.8605649 C11.009116,10.6061934 11.2151636,10.3999221 11.4697588,10.3999221 C11.7241302,10.3999221 11.9301779,10.6061934 11.9301779,10.8605649 Z" id="Path" fill="#EAB599" fill-rule="nonzero"></path>
                                <path d="M11.1744463,8.34973738 L11.1744463,10.1757531 C11.1744463,12.5619676 9.4312076,14.5414563 7.14879985,14.9088072 C7.14119334,14.9101495 7.13291566,14.9112681 7.1253091,14.9126104 C4.83171529,14.5542084 3.07751427,12.5695741 3.07751427,10.1757531 L3.07751427,8.34973738 C3.07751427,5.95546889 4.83216277,3.97083459 7.12620398,3.61220886 C9.41979778,3.97083459 11.1744463,5.95546889 11.1744463,8.34973738 Z" id="Path" fill="#F6CAAE" fill-rule="nonzero"></path>
                                <path d="M5.35813225,9.89654852 C5.35813225,10.1967829 5.11449939,10.4404157 4.81404133,10.4404157 C4.51380692,10.4404157 4.27017412,10.1967829 4.27017412,9.89654852 C4.27017412,9.5960904 4.51380692,9.3524576 4.81404133,9.3524576 C5.11449939,9.3524576 5.35813225,9.5960904 5.35813225,9.89654852 Z" id="Path" fill="#3D4159" fill-rule="nonzero"></path>
                                <path d="M8.48844482,9.89654852 C8.48844482,10.1967829 8.24503573,10.4404157 7.94457761,10.4404157 C7.64411949,10.4404157 7.40048669,10.1967829 7.40048669,9.89654852 C7.40048669,9.5960904 7.64411949,9.3524576 7.94457761,9.3524576 C8.24503573,9.3524576 8.48844482,9.5960904 8.48844482,9.89654852 Z" id="Path" fill="#3D4159" fill-rule="nonzero"></path>
                                <path d="M5.24716634,9.80057197 C5.24716634,9.9292119 5.14291205,10.0334661 5.01404841,10.0334661 C4.88540848,10.0334661 4.78093048,9.9292119 4.78093048,9.80057197 C4.78093048,9.67170833 4.88540848,9.56745404 5.01404841,9.56745404 C5.14291205,9.56745404 5.24716634,9.67170833 5.24716634,9.80057197 Z" id="Path" fill="#FFFFFF" fill-rule="nonzero"></path>
                                <path d="M8.4043255,9.80057197 C8.4043255,9.9292119 8.2998475,10.0334661 8.17120757,10.0334661 C8.04256764,10.0334661 7.93808964,9.9292119 7.93808964,9.80057197 C7.93808964,9.67170833 8.04256764,9.56745404 8.17120757,9.56745404 C8.2998475,9.56745404 8.4043255,9.67170833 8.4043255,9.80057197 Z" id="Path" fill="#FFFFFF" fill-rule="nonzero"></path>
                                <path d="M6.92328848,11.0527417 L5.8353304,11.0527417 C5.70579558,11.0527417 5.60064641,10.9478163 5.60064641,10.8180578 C5.60064641,10.688523 5.70579558,10.5833738 5.8353304,10.5833738 L6.92328848,10.5833738 C7.0528233,10.5833738 7.15797248,10.688523 7.15797248,10.8180578 C7.15797248,10.9475926 7.0528233,11.0527417 6.92328848,11.0527417 Z" id="Path" fill="#EAB599" fill-rule="nonzero"></path>
                                <path d="M6.37919756,12.5373582 C5.97784104,12.5373582 5.57626077,12.4366835 5.21025223,12.2355578 C5.10711659,12.1787325 5.06930766,12.048974 5.12613291,11.9458383 C5.18295823,11.842479 5.31249299,11.8048938 5.4158524,11.861719 C6.01922953,12.1932745 6.73961306,12.1932745 7.34299025,11.861719 C7.44612589,11.8048938 7.57588442,11.842479 7.63248597,11.9458383 C7.68931123,12.048974 7.651726,12.1787325 7.54836665,12.2355578 C7.18235812,12.4366835 6.78077784,12.5373582 6.37919756,12.5373582 Z" id="Path" fill="#EAB599" fill-rule="nonzero"></path>
                                <path d="M11.1744463,6.69263156 L11.1744463,8.56316781 L10.2820208,8.56316781 L10.2820208,7.0982388 L3.83973377,5.90110452 L2.4765981,5.64762797 L2.4765981,8.56316781 L1.58417261,8.56316781 L1.58417261,6.69263156 C1.58417261,4.56034101 3.31242198,2.8320917 5.44426505,2.8320917 L7.31413012,2.8320917 C7.36491494,2.8320917 7.41569976,2.83276288 7.46648457,2.83544748 C9.52763162,2.91464495 11.1744463,4.61112583 11.1744463,6.69263156 Z" id="Path" fill="#E8C934" fill-rule="nonzero"></path>
                                <path d="M11.1744463,6.69263156 L11.1744463,8.56316781 L10.2820208,8.56316781 L10.2820208,7.0982388 L3.83973377,5.90110452 C4.19477995,4.19634596 5.67380338,2.9045775 7.46648457,2.83544748 C9.52763162,2.91464495 11.1744463,4.61112583 11.1744463,6.69263156 Z" id="Path" fill="#FFE152" fill-rule="nonzero"></path>
                                <path d="M20.8850821,26.9280262 L20.8850821,27.9410376 C18.9964245,28.82787 16.8869535,29.3234133 14.6618185,29.3234133 C13.5866125,29.3234133 12.5380294,29.207973 11.5285976,28.9878309 C11.1227666,28.8992372 10.7236472,28.7945355 10.3310158,28.6730546 C9.60750022,28.4497805 8.90725165,28.1714708 8.23653428,27.8441661 L8.23653428,26.9280262 C8.23653428,24.7210126 9.7350215,22.8638997 11.7708881,22.3193613 C11.8451636,22.2996738 11.9198866,22.2811049 11.995952,22.2649969 C12.1981963,22.2211475 12.4058099,22.1907214 12.6170031,22.1732711 C12.7456431,22.1625325 12.8756253,22.1578343 13.0071736,22.1578343 L16.1137716,22.1578343 C16.4607639,22.1578343 16.7994784,22.1943009 17.1256644,22.2649969 C17.1442333,22.2685765 17.1634734,22.2726035 17.1813712,22.2768542 C17.2364066,22.2893826 17.2914421,22.3032533 17.3453591,22.3182427 C17.3471488,22.3182427 17.3482674,22.3182427 17.349386,22.3186901 C17.886989,22.4623194 18.3865594,22.6976745 18.8306467,23.0064103 C20.0723016,23.8675147 20.8850821,25.3031362 20.8850821,26.9280262 L20.8850821,26.9280262 Z" id="Path" fill="#E8C934" fill-rule="nonzero"></path>
                                <path d="M20.8850821,26.9280262 L20.8850821,27.9410376 C18.9964245,28.82787 16.8869535,29.3234133 14.6618185,29.3234133 C13.5866125,29.3234133 12.5380294,29.207973 11.5285976,28.9878309 C11.1227666,28.8992372 10.7236472,28.7945355 10.3310158,28.6730546 L10.3310158,26.9280262 C10.3310158,24.7210126 11.8295031,22.8638997 13.8653696,22.3193613 C13.9396452,22.2996738 14.0143682,22.2811049 14.0904336,22.2649969 C14.2926779,22.2211475 14.5002916,22.1907214 14.7114847,22.1732711 C14.8403484,22.1625325 14.9701068,22.1578343 15.1016552,22.1578343 L16.1137716,22.1578343 C16.4607639,22.1578343 16.7994784,22.1943009 17.1256644,22.2649969 C17.1442333,22.2685765 17.1634734,22.2726035 17.1813712,22.2768542 C17.2364066,22.2893826 17.2914421,22.3032533 17.3453591,22.3182427 C17.3471488,22.3182427 17.3482674,22.3182427 17.349386,22.3186901 C17.886989,22.4623194 18.3865594,22.6976745 18.8306467,23.0064103 C20.0723016,23.8675147 20.8850821,25.3031362 20.8850821,26.9280262 L20.8850821,26.9280262 Z" id="Path" fill="#FFE152" fill-rule="nonzero"></path>
                                <path d="M17.361467,22.2649969 L17.349386,22.3186901 L15.8540309,29.2755369 C15.4607283,29.3073054 15.0633988,29.3234133 14.6618185,29.3234133 C14.1904371,29.3234133 13.722859,29.3012649 13.2622162,29.256968 L11.7708881,22.3193613 L11.7588071,22.2649969 L17.361467,22.2649969 Z" id="Path" fill="#F2F0EC" fill-rule="nonzero"></path>
                                <polyline id="Path" fill="#D8D5D0" fill-rule="nonzero" points="14.5600252 24.1104764 12.4125216 25.3040311 11.7590308 22.2649969 13.0935302 21.479063"></polyline>
                                <polyline id="Path" fill="#D8D5D0" fill-rule="nonzero" points="14.5600252 24.1104764 16.7077525 25.3040311 17.3610196 22.2649969 16.026744 21.479063"></polyline>
                                <path d="M8.14794053,21.0074579 L8.14794053,13.8130188 C8.14794053,13.0818966 8.26986878,12.3657638 8.51036951,11.6843078 C9.41084892,9.12202438 11.8422552,7.39981551 14.5604726,7.39981551 C14.8971736,7.39981551 15.2332034,7.42599092 15.5596133,7.47767062 C17.0531786,7.71101226 18.4232497,8.4732317 19.4167973,9.62405559 C20.4208599,10.7871842 20.9736759,12.2749328 20.9736759,13.8130188 L20.9736759,21.0074579" id="Path" fill="#F74F4F" fill-rule="nonzero"></path>
                                <path d="M10.7858419,14.0940131 C10.7858419,16.6388462 12.2758277,19.5827987 13.0942013,21.0074579 L8.14771682,21.0074579 L8.14771682,13.8130188 C8.14771682,13.0821203 8.26964507,12.3659875 8.5101458,11.6843078 C9.40503219,9.13678998 11.81429,7.41972672 14.5137148,7.40048669 C12.5420564,7.44970544 10.7858419,10.6126813 10.7858419,14.0940131 Z" id="Path" fill="#DD3033" fill-rule="nonzero"></path>
                                <path d="M16.2627703,20.3199614 L16.2627703,22.4086262 C16.2627703,23.1733066 15.7585018,23.8196384 15.06407,24.0344111 C14.9050039,24.0836298 14.7356466,24.1104764 14.5604726,24.1104764 C13.6206182,24.1104764 12.8586225,23.3484806 12.8586225,22.4086262 L12.8586225,20.3199614 L16.2627703,20.3199614 Z" id="Path" fill="#EAB599" fill-rule="nonzero"></path>
                                <path d="M16.2627703,22.2764068 L16.2627703,22.4086262 C16.2627703,23.1733066 15.7585018,23.8196384 15.06407,24.0344111 C14.4374257,23.8417867 13.9662681,23.2970247 13.8792404,22.6303343 C13.9928909,22.6372697 14.1072127,22.6406255 14.2222056,22.6406255 C14.5441409,22.6406255 14.8598121,22.6151213 15.1674293,22.5647839 C15.54619,22.5037079 15.9124223,22.406389 16.2627703,22.2764068 L16.2627703,22.2764068 Z" id="Path" fill="#F6CAAE" fill-rule="nonzero"></path>
                                <path d="M9.89185038,16.8965735 C9.89185038,17.684521 9.31621467,18.3380118 8.56272034,18.4592689 C8.48016708,18.4724684 8.39560035,18.4794038 8.30902008,18.4794038 C7.43471608,18.4794038 6.72618977,17.7711012 6.72618977,16.8965735 C6.72618977,16.0222695 7.43471608,15.313967 8.30902008,15.313967 C8.39560035,15.313967 8.48016708,15.3209023 8.56272034,15.3341019 C9.31621467,15.455359 9.89185038,16.1086261 9.89185038,16.8965735 L9.89185038,16.8965735 Z" id="Path" fill="#F6CAAE" fill-rule="nonzero"></path>
                                <path d="M9.89185038,16.8965735 C9.89185038,17.684521 9.31621467,18.3380118 8.56272034,18.4592689 C8.42580278,17.9612646 8.3526458,17.4375324 8.3526458,16.8965735 C8.3526458,16.3558384 8.42580278,15.8321062 8.56272034,15.3341019 C9.31621467,15.455359 9.89185038,16.1086261 9.89185038,16.8965735 Z" id="Path" fill="#EAB599" fill-rule="nonzero"></path>
                                <path d="M8.87481198,16.8965735 C8.87481198,17.2091126 8.62155913,17.4623655 8.30902008,17.4623655 C7.99670473,17.4623655 7.74345188,17.2091126 7.74345188,16.8965735 C7.74345188,16.5842582 7.99670473,16.3310053 8.30902008,16.3310053 C8.62155913,16.3310053 8.87481198,16.5842582 8.87481198,16.8965735 Z" id="Path" fill="#EAB599" fill-rule="nonzero"></path>
                                <path d="M18.6248228,14.8756964 L18.6248228,20.3163819 C17.7838534,21.119095 16.7055153,21.6750431 15.5056964,21.8683386 C15.4963,21.8699046 15.4862326,21.8714706 15.4768363,21.8730367 C15.1788391,21.9206894 14.872788,21.9444039 14.5604726,21.9444039 C11.3082318,21.9444039 8.67167277,19.3078449 8.67167277,16.0556041 L8.67167277,13.8130188 C8.67167277,13.525984 8.69225515,13.2434236 8.73207763,12.9673511 C10.1330222,13.9749932 12.1420422,13.8754371 13.4219534,12.6655507 C13.8459058,12.2653128 14.1403235,11.788562 14.3069961,11.2829512 C14.3996168,12.1684413 14.8047766,13.0302169 15.5224755,13.7087645 C16.377092,14.5157283 17.5062149,14.9050039 18.6248228,14.8756964 L18.6248228,14.8756964 Z" id="Path" fill="#EAB599" fill-rule="nonzero"></path>
                                <path d="M18.6248228,14.8756964 L18.6248228,20.3163819 C17.7838534,21.119095 16.7055153,21.6750431 15.5056964,21.8683386 C15.4963,21.8699046 15.4862326,21.8714706 15.4768363,21.8730367 C12.6601814,21.4329763 10.5057424,18.9955296 10.5057424,16.0556041 L10.5057424,13.8130188 C10.5057424,13.7532851 10.5066373,13.6942226 10.5088745,13.6349364 C11.5473902,13.7412041 12.6255045,13.4185976 13.4219534,12.6655507 C13.8459058,12.2653128 14.1403235,11.788562 14.3069961,11.2829512 C14.3998405,12.1684413 14.8047766,13.0302169 15.5224755,13.7087645 C16.377092,14.5157283 17.5062149,14.9050039 18.6248228,14.8756964 L18.6248228,14.8756964 Z" id="Path" fill="#F6CAAE" fill-rule="nonzero"></path>
                                <path d="M17.7232248,15.558271 C17.7232248,15.0179833 17.2854017,14.5801601 16.7453377,14.5801601 C16.2050501,14.5801601 15.7672269,15.0179833 15.7672269,15.558271" id="Path" fill="#EAB599" fill-rule="nonzero"></path>
                                <path d="M13.354837,15.558271 C13.354837,15.0179833 12.9170138,14.5801601 12.3767261,14.5801601 C11.8366622,14.5801601 11.3988391,15.0179833 11.3988391,15.558271" id="Path" fill="#EAB599" fill-rule="nonzero"></path>
                                <path d="M13.0447588,15.9746168 C13.0447588,16.3435337 12.7456431,16.6426496 12.3767261,16.6426496 C12.0078092,16.6426496 11.7086934,16.3435337 11.7086934,15.9746168 C11.7086934,15.6056999 12.0078092,15.3065841 12.3767261,15.3065841 C12.7456431,15.3065841 13.0447588,15.6056999 13.0447588,15.9746168 Z" id="Path" fill="#3D4159" fill-rule="nonzero"></path>
                                <path d="M17.4133704,15.9746168 C17.4133704,16.3435337 17.1142546,16.6426496 16.7453377,16.6426496 C16.3761971,16.6426496 16.0773051,16.3435337 16.0773051,15.9746168 C16.0773051,15.6056999 16.3761971,15.3065841 16.7453377,15.3065841 C17.1142546,15.3065841 17.4133704,15.6056999 17.4133704,15.9746168 Z" id="Path" fill="#3D4159" fill-rule="nonzero"></path>
                                <path d="M15.2289528,17.6565558 L13.8928874,17.6565558 C13.7338213,17.6565558 13.604734,17.5276921 13.604734,17.3684024 C13.604734,17.2093363 13.7338213,17.0802489 13.8928874,17.0802489 L15.2289528,17.0802489 C15.3882426,17.0802489 15.5171062,17.2093363 15.5171062,17.3684024 C15.5171062,17.5276921 15.3882426,17.6565558 15.2289528,17.6565558 Z" id="Path" fill="#EAB599" fill-rule="nonzero"></path>
                                <path d="M14.5609201,19.4798868 C14.0678377,19.4798868 13.5747553,19.3561688 13.1252986,19.1091801 C12.9984484,19.039379 12.9521381,18.8803129 13.0219392,18.7534628 C13.0915166,18.6266126 13.2508064,18.5803023 13.3776566,18.6501034 C14.1186225,19.0575004 15.0034414,19.0575004 15.7444073,18.6501034 C15.8710337,18.5803023 16.0303235,18.6266126 16.1001246,18.7534628 C16.1699258,18.8803129 16.1236155,19.039379 15.9967653,19.1091801 C15.5473086,19.3563925 15.0542262,19.4798868 14.5609201,19.4798868 L14.5609201,19.4798868 Z" id="Path" fill="#EAB599" fill-rule="nonzero"></path>
                                <path d="M12.9085124,15.8567155 C12.9085124,16.0148867 12.7805436,16.1428555 12.6223724,16.1428555 C12.4642013,16.1428555 12.3362325,16.0148867 12.3362325,15.8567155 C12.3362325,15.6985444 12.4642013,15.5705757 12.6223724,15.5705757 C12.7805436,15.5705757 12.9085124,15.6985444 12.9085124,15.8567155 Z" id="Path" fill="#FFFFFF" fill-rule="nonzero"></path>
                                <path d="M17.3097873,15.8567155 C17.3097873,16.0148867 17.1818186,16.1428555 17.0236474,16.1428555 C16.8654762,16.1428555 16.7375075,16.0148867 16.7375075,15.8567155 C16.7375075,15.6985444 16.8654762,15.5705757 17.0236474,15.5705757 C17.1818186,15.5705757 17.3097873,15.6985444 17.3097873,15.8567155 Z" id="Path" fill="#FFFFFF" fill-rule="nonzero"></path>
                                <path d="M18.5691162,17.601744 C18.5691162,18.0069038 18.2406929,18.3353271 17.835533,18.3353271 C17.4303733,18.3353271 17.10195,18.0069038 17.10195,17.601744 C17.10195,17.1965842 17.4303733,16.8681609 17.835533,16.8681609 C18.2406929,16.8681609 18.5691162,17.1965842 18.5691162,17.601744 L18.5691162,17.601744 Z" id="Path" fill="#EAB599" fill-rule="nonzero"></path>
                                <path d="M12.0196665,17.601744 C12.0196665,18.0069038 11.6912431,18.3353271 11.2860834,18.3353271 C10.8809235,18.3353271 10.5525002,18.0069038 10.5525002,17.601744 C10.5525002,17.1965842 10.8809235,16.8681609 11.2860834,16.8681609 C11.6912431,16.8681609 12.0196665,17.1965842 12.0196665,17.601744 L12.0196665,17.601744 Z" id="Path" fill="#EAB599" fill-rule="nonzero"></path>
                            </g>
                        </g>
                    </g>
                </g>
            </g>
        </g>
    </g>
</svg>