<?xml version="1.0" encoding="UTF-8"?>
<svg width="17px" height="30px" viewBox="0 0 17 30" version="1.1" xmlns="http://www.w3.org/2000/svg" xmlns:xlink="http://www.w3.org/1999/xlink">
    <!-- Generator: Sketch 63.1 (92452) - https://sketch.com -->
    <title>KEY</title>
    <desc>Created with Sketch.</desc>
    <g id="Page-1" stroke="none" stroke-width="1" fill="none" fill-rule="evenodd">
        <g id="25.2-MAIN-UI---EMPLOYEE-ANALYTICS-(EMPLOYEE-DETAILS)" transform="translate(-355.000000, -1196.000000)">
            <g id="2.EMPLOYEE-DETAILS" transform="translate(310.000000, 730.000000)">
                <g id="DETAILS" transform="translate(0.000000, 91.000000)">
                    <g id="TAB--ACTIVE" transform="translate(1.000000, 48.000000)">
                        <g id="EMPLOYEE-DETAILS" transform="translate(23.000000, 81.000000)">
                            <g id="LOGIN-PASSWORD" transform="translate(21.000000, 246.000000)">
                                <g id="KEY">
                                    <g id="Key">
                                        <polygon id="Shape" fill="#FF9800" points="11.8999998 16.7999997 4.89999992 16.7999997 4.89999992 27.2999995 6.99999988 29.3999995 9.79999983 29.3999995 11.8999998 27.2999995 11.8999998 25.1999996 10.4999998 23.7999996 11.8999998 22.3999996 10.4999998 20.9999996 11.8999998 19.5999997"></polygon>
                                        <path d="M16.7999997,8.39999986 C16.7999997,3.76109994 13.0388998,0 8.39999986,0 C3.76109994,0 0,3.76109994 0,8.39999986 C0,11.2083998 1.38319998,13.6877998 3.49999994,15.2130997 L3.49999994,16.0999997 C3.49999994,16.8734997 4.12649993,17.4999997 4.89999992,17.4999997 L11.8999998,17.4999997 C12.6734998,17.4999997 13.2999998,16.8734997 13.2999998,16.0999997 L13.2999998,15.2130997 C15.4167997,13.6877998 16.7999997,11.2083998 16.7999997,8.39999986 L16.7999997,8.39999986 Z M8.39999986,2.09999996 C9.55989984,2.09999996 10.4999998,3.04009995 10.4999998,4.19999993 C10.4999998,5.35989991 9.55989984,6.29999989 8.39999986,6.29999989 C7.24009988,6.29999989 6.29999989,5.35989991 6.29999989,4.19999993 C6.29999989,3.04009995 7.24009988,2.09999996 8.39999986,2.09999996 L8.39999986,2.09999996 Z" id="Shape" fill="#FF9800"></path>
                                        <rect id="Rectangle-path" fill="#F57C00" x="7.69999987" y="17.4999997" width="1.39999998" height="11.8999998"></rect>
                                    </g>
                                </g>
                            </g>
                        </g>
                    </g>
                </g>
            </g>
        </g>
    </g>
</svg>