<?xml version="1.0" encoding="UTF-8"?>
<svg width="21px" height="22px" viewBox="0 0 21 22" version="1.1" xmlns="http://www.w3.org/2000/svg" xmlns:xlink="http://www.w3.org/1999/xlink">
    <!-- Generator: Sketch 63.1 (92452) - https://sketch.com -->
    <title>MOP</title>
    <desc>Created with Sketch.</desc>
    <g id="Page-1" stroke="none" stroke-width="1" fill="none" fill-rule="evenodd">
        <g id="23.4--MAIN-UI---INVENTORY-MANAGEMENT-(ORDER-2.1)-" transform="translate(-651.000000, -518.000000)">
            <g id="INVENTORY-MANAGEMENT" transform="translate(293.000000, 233.000000)">
                <g id="PLACE-ORDER" transform="translate(79.000000, 151.000000)">
                    <g id="CLEANING-SCHEDULDE" transform="translate(263.000000, 88.000000)">
                        <g id="ITEM-TAB" transform="translate(0.000000, 35.700000)">
                            <g id="MOP" transform="translate(16.000000, 11.000000)">
                                <g id="mop">
                                    <path d="M20.3609942,1.83830769 C20.5641692,1.63448654 20.6764788,1.36443462 20.6764788,1.07673462 C20.6764788,0.789640385 20.5641692,0.518942308 20.3609942,0.315726923 L20.3609942,0.315726923 C20.1578192,0.112551923 19.8877673,0.000242307692 19.6000269,0.000242307692 C19.3122865,0.000242307692 19.0422346,0.112551923 18.8390596,0.315726923 L5.25743077,13.8976788 L6.77964808,15.4196538 L20.3609942,1.83830769 Z M19.0100885,2.09761731 C18.7721827,2.09761731 18.57975,1.90453846 18.57975,1.66663269 C18.57975,1.42872692 18.7722231,1.23629423 19.0100885,1.23629423 C19.2479538,1.23629423 19.4410327,1.42872692 19.4410327,1.66663269 C19.4410327,1.90453846 19.2479538,2.09761731 19.0100885,2.09761731 Z" id="Shape" fill="#434A54" fill-rule="nonzero"></path>
                                    <path d="M10.0525788,18.5404558 C10.1541865,18.4388885 10.2099981,18.3038827 10.2099981,18.1599923 C10.2099981,18.0161019 10.1541462,17.8810962 10.0525788,17.7794885 L2.89783846,10.6247481 C2.68804038,10.4146269 2.34670962,10.4146269 2.13654808,10.6247481 L0.157782692,12.6035135 C-0.0520153846,12.8136346 -0.0520153846,13.1549654 0.157782692,13.3644808 L7.31248269,20.5199077 C7.52228077,20.7294231 7.86365192,20.7287769 8.07349038,20.5192615 L10.0525788,18.5404558 Z" id="Path" fill="#5D9CEC" fill-rule="nonzero"></path>
                                    <path d="M7.38852692,16.333275 L4.34405192,13.2887192 C4.17589038,13.1202346 4.17589038,12.8476788 4.34405192,12.6798404 C4.51221346,12.5113558 4.78476923,12.5113558 4.95293077,12.6798404 L7.99744615,15.7243962 C8.16560769,15.8921942 8.16560769,16.1647904 7.99744615,16.333275 C7.82928462,16.5011538 7.55668846,16.5011538 7.38852692,16.333275 Z" id="Path" fill="#E6E9ED" fill-rule="nonzero"></path>
                                    <path d="M20.3609942,1.83830769 C20.5641692,1.63448654 20.6764788,1.36443462 20.6764788,1.07673462 C20.6764788,0.789640385 20.5641692,0.518942308 20.3609942,0.315726923 L20.3609942,0.315726923 C20.1578192,0.112551923 19.8877673,0.000242307692 19.6000269,0.000242307692 C19.3122865,0.000242307692 19.0422346,0.112551923 18.8390596,0.315726923 L16.4224038,2.73238269 L17.9442981,4.25431731 L20.3609942,1.83830769 Z M19.0100885,2.09761731 C18.7721827,2.09761731 18.57975,1.90453846 18.57975,1.66663269 C18.57975,1.42872692 18.7722231,1.23629423 19.0100885,1.23629423 C19.2479538,1.23629423 19.4410327,1.42872692 19.4410327,1.66663269 C19.4410327,1.90453846 19.2479538,2.09761731 19.0100885,2.09761731 Z" id="Shape" fill="#656D78" fill-rule="nonzero"></path>
                                    <path d="M8.30190577,19.6819269 L8.30158269,19.6819269 L7.08439038,18.4647346 L7.08406731,18.4640885 C7.08374423,18.4640885 7.08374423,18.4640885 7.08374423,18.4640885 L5.86655192,17.2468962 L5.86622885,17.24625 C5.86590577,17.24625 5.86590577,17.24625 5.86590577,17.24625 L4.64875385,16.0290577 C4.64843077,16.0290577 4.64843077,16.0284115 4.64843077,16.0284115 L4.64810769,16.0284115 L0.690657692,12.0709615 L0.157782692,12.6035135 C-0.0520153846,12.8136346 -0.0520153846,13.1549654 0.157782692,13.3644808 L0.386157692,13.5928962 L0.690617308,13.2887596 L1.29953654,13.8976788 L0.995076923,14.2018154 L1.60395577,14.8106942 L1.90841538,14.5065981 L2.51729423,15.1154769 L2.212875,15.4196135 L2.82175385,16.0284923 L3.12621346,15.7243962 L3.73509231,16.333275 L3.43063269,16.6374115 L4.03955192,17.2462904 L4.34401154,16.9421942 L4.95289038,17.5510327 L4.64847115,17.8551692 L5.25735,18.4640885 L5.56176923,18.1599519 L6.17068846,18.7688308 L5.86622885,19.0729673 L6.47514808,19.6818865 L6.77956731,19.37775 L7.38844615,19.9866288 L7.08402692,20.2907654 L7.31240192,20.5198269 C7.5222,20.7293423 7.86357115,20.7286962 8.07340962,20.5191808 L8.60628462,19.9865885 L8.30214808,19.6824923 L8.30190577,19.6819269 Z" id="Path" fill="#4A89DC" fill-rule="nonzero"></path>
                                </g>
                            </g>
                        </g>
                    </g>
                </g>
            </g>
        </g>
    </g>
</svg>