<?xml version="1.0" encoding="UTF-8"?>
<svg width="14px" height="20px" viewBox="0 0 14 20" version="1.1" xmlns="http://www.w3.org/2000/svg" xmlns:xlink="http://www.w3.org/1999/xlink">
    <!-- Generator: Sketch 63.1 (92452) - https://sketch.com -->
    <title>FEMALE</title>
    <desc>Created with Sketch.</desc>
    <g id="Page-1" stroke="none" stroke-width="1" fill="none" fill-rule="evenodd">
        <g id="23.2.1-MAIN-UI---INVENTORY-MANAGEMENT-(SUPPLIER)" transform="translate(-324.000000, -517.000000)">
            <g id="INVENTORY-MANAGEMENT" transform="translate(293.000000, 233.000000)">
                <g id="CREATE-NEW-SUPPLIER" transform="translate(0.000000, 150.000000)">
                    <g id="NAME" transform="translate(21.000000, 88.050000)">
                        <g id="NAME-TAB" transform="translate(0.000000, 35.700000)">
                            <g id="FEMALE" transform="translate(10.500000, 10.500000)">
                                <g id="Path">
                                    <path d="M12.6,15.75 L12.6,18.585 C12.6,18.75825 12.45825,18.9 12.285,18.9 L0.315,18.9 C0.14175,18.9 0,18.75825 0,18.585 L0,15.75 C0,14.70735 0.8442,13.86 1.89,13.86 L2.52,13.86 L2.52,13.8663 L6.3,16.38 L10.08,13.86315 L10.08,13.86 L10.71,13.86 C11.7558,13.86 12.6,14.70735 12.6,15.75 Z" fill="#4FC1E9" fill-rule="nonzero"></path>
                                    <path d="M10.71,13.86 L10.08,13.86 L10.08,13.86315 L9.97227,13.93497 C10.76292,14.161455 11.34,14.888475 11.34,15.75 L11.34,18.585 C11.34,18.75825 11.19825,18.9 11.025,18.9 L12.285,18.9 C12.45825,18.9 12.6,18.75825 12.6,18.585 L12.6,15.75 C12.6,14.70735 11.7558,13.86 10.71,13.86 Z" fill="#3BAFDA" fill-rule="nonzero"></path>
                                    <path d="M11.97,9.135 L11.97,12.285 C11.97,12.6315 11.68965,12.915 11.34,12.915 L8.19,12.915 L8.19,12.20625 C9.60435,11.58885 10.6596,10.29735 10.94625,8.7381 L11.96055,9.135 L11.97,9.135 Z" fill="#773E3E" fill-rule="nonzero"></path>
                                    <path d="M11.97,5.67 L11.97,9.135 L11.96055,9.135 L10.94625,8.7381 L3.15,5.67 L3.15,0.9639 C4.0509,0.35595 5.13765,0.00315 6.3063,0.00315 C9.43425,0.00315 11.97,2.5389 11.97,5.67 Z" fill="#965353" fill-rule="nonzero"></path>
                                    <path d="M6.3063,0.00315 C6.094935,0.00315 5.887665,0.018585 5.682285,0.04095 C8.51067,0.357525 10.71,2.754045 10.71,5.67 L10.71,8.645175 L10.94625,8.7381 L11.96055,9.135 L11.97,9.135 L11.97,5.67 C11.97,2.5389 9.43425,0.00315 6.3063,0.00315 Z" fill="#844646" fill-rule="nonzero"></path>
                                    <path d="M3.15,5.67 L10.94625,8.7381 C10.6596,10.29735 9.60435,11.58885 8.19,12.20625 C7.6104,12.4614 6.9741,12.6 6.3,12.6 C5.62905,12.6 4.9896,12.45825 4.41,12.20625 C2.7405,11.4786 1.575,9.81225 1.575,7.875 L1.575,6.65595 L1.575,6.6528 L3.15,5.67 Z" fill="#EAC6BB" fill-rule="nonzero"></path>
                                    <polygon fill="#F5F7FA" fill-rule="nonzero" points="10.08 13.86 10.08 13.86315 6.3 16.38 2.52 13.8663 2.52 13.86 4.41 13.86 6.3 15.12 8.19 13.86"></polygon>
                                    <path d="M10.08,13.86315 L10.08,13.86 L9.45,13.86 C9.63144,13.86 9.80658,13.88709 9.97227,13.934655 L10.08,13.86315 Z" fill="#E6E9ED" fill-rule="nonzero"></path>
                                    <path d="M8.19,12.915 L8.19,13.86 L6.3,15.12 L4.41,13.86 L4.41,12.915 L4.41,12.20625 C4.9896,12.45825 5.62905,12.6 6.3,12.6 C6.9741,12.6 7.6104,12.4614 8.19,12.20625 L8.19,12.915 Z" fill="#EAC6BB" fill-rule="nonzero"></path>
                                    <path d="M4.41,12.20625 L4.41,12.915 L1.26,12.915 C0.91035,12.915 0.63,12.6315 0.63,12.285 L0.63,7.245 L1.575,6.65595 L1.575,7.875 C1.575,9.81225 2.7405,11.4786 4.41,12.20625 Z" fill="#773E3E" fill-rule="nonzero"></path>
                                    <path d="M8.57682,12.01347 C8.63415,11.98197 8.690535,11.950155 8.74629,11.91645 C8.785665,11.892825 8.824095,11.86794 8.862525,11.843055 C8.911665,11.810925 8.96112,11.77848 9.009,11.74446 C9.047745,11.717055 9.08649,11.68965 9.12429,11.660985 C9.17091,11.626335 9.2169,11.59011 9.26226,11.55357 C9.298485,11.524275 9.33471,11.495295 9.370305,11.46537 C9.4185,11.424105 9.46512,11.38095 9.51174,11.337795 C9.541665,11.310075 9.571905,11.283615 9.6012,11.25495 C9.673335,11.184705 9.74295,11.11257 9.81036,11.037915 C9.833355,11.012085 9.855405,10.98468 9.87777,10.958535 C9.92376,10.9053 9.969435,10.85175 10.012905,10.796625 C10.03842,10.763865 10.06299,10.730475 10.08756,10.6974 C10.12599,10.64574 10.164105,10.593765 10.20033,10.540215 C10.223955,10.50588 10.24695,10.4706 10.269945,10.43532 C10.30554,10.380195 10.34019,10.32444 10.373265,10.268055 C10.393425,10.233405 10.4139,10.198755 10.433115,10.16379 C10.46808,10.101105 10.501155,10.03716 10.53297,9.97227 C10.54809,9.942345 10.563525,9.91305 10.578015,9.882495 C10.620855,9.79146 10.661175,9.699165 10.69803,9.60498 C10.69992,9.59994 10.70244,9.595215 10.70433,9.590175 C10.74339,9.49032 10.778355,9.387945 10.8108,9.284625 C10.819935,9.25533 10.827495,9.225405 10.836,9.195795 C10.857105,9.122715 10.87758,9.04869 10.89522,8.974035 C10.90467,8.93403 10.91286,8.89371 10.921365,8.853705 C10.92924,8.81496 10.93617,8.776215 10.9431,8.737155 L9.747675,8.26686 C9.602775,10.03464 8.48547,11.52837 6.93,12.20625 C6.53499,12.377925 6.111,12.493215 5.67,12.553065 C5.67441,12.553695 5.678505,12.55464 5.682915,12.554955 C5.75883,12.565035 5.835375,12.57291 5.91255,12.57984 C6.040755,12.590235 6.169275,12.6 6.3,12.6 C6.97095,12.6 7.6104,12.45825 8.19,12.20625 C8.28639,12.164355 8.38026,12.118365 8.473185,12.07017 C8.508465,12.052215 8.54217,12.03237 8.57682,12.01347 Z" fill="#D3B1A9" fill-rule="nonzero"></path>
                                    <path d="M3.15,0.9639 L3.15,5.67 L1.575,6.6528 L1.575,6.65595 L0.63,7.245 L0.63,6.615 L0.63,5.67 L0.63945,5.67 C0.63945,3.70755 1.63485,1.9782 3.15,0.9639 Z" fill="#844646" fill-rule="nonzero"></path>
                                </g>
                            </g>
                        </g>
                    </g>
                </g>
            </g>
        </g>
    </g>
</svg>