<?xml version="1.0" encoding="UTF-8"?>
<svg width="48px" height="48px" viewBox="0 0 48 48" version="1.1" xmlns="http://www.w3.org/2000/svg" xmlns:xlink="http://www.w3.org/1999/xlink">
    <!-- Generator: Sketch 63.1 (92452) - https://sketch.com -->
    <title>ICON</title>
    <desc>Created with Sketch.</desc>
    <g id="Page-1" stroke="none" stroke-width="1" fill="none" fill-rule="evenodd">
        <g id="24.1-MAIN-UI---CUSTOMER-ANALYTICS" transform="translate(-1344.000000, -317.000000)" fill="#D5698A">
            <g id="1.BLOCKS" transform="translate(312.000000, 226.000000)">
                <g id="ITEMS-PER-TABLE" transform="translate(758.000000, 65.000000)">
                    <g id="ICON" transform="translate(274.000000, 26.000000)">
                        <circle id="椭圆形备份-4" opacity="0.100000001" cx="23.5125006" cy="23.5125006" r="23.5125006"></circle>
                        <path d="M32.4091998,11.9700003 L15.4705119,11.9700003 C13.5451871,11.9700003 11.9700003,13.5565493 11.9700003,15.495762 L11.9700003,32.3842393 C11.9700003,34.323452 13.5451871,35.910001 15.4705119,35.910001 L32.4094894,35.910001 C34.3348142,35.910001 35.910001,34.323452 35.910001,32.3842393 L35.910001,15.495762 C35.910001,13.5565493 34.3345246,11.9700003 32.4091998,11.9700003 Z M27.7786315,19.9392077 C27.7786315,19.403649 28.2095706,18.969893 28.7412939,18.969893 L29.7036667,18.969893 C30.2353899,18.969893 30.6660394,19.4039407 30.6660394,19.9392077 L30.6660394,26.7252853 C30.6660394,27.260844 30.2351003,27.6945999 29.7036667,27.6945999 L28.7412939,27.6945999 C28.2095706,27.6945999 27.7786315,27.2605523 27.7786315,26.7252853 L27.7786315,19.9392077 Z M22.4848571,17.0309721 C22.4848571,16.4954133 22.9157962,16.0616574 23.4472299,16.0616574 L24.4096027,16.0616574 C24.9413259,16.0616574 25.3719755,16.495705 25.3719755,17.0309721 L25.3719755,26.725577 C25.3719755,27.2611357 24.9410363,27.6948916 24.4096027,27.6948916 L23.4472299,27.6948916 C22.9155066,27.6948916 22.4848571,27.260844 22.4848571,26.725577 L22.4848571,17.0309721 Z M17.1910827,21.8781287 C17.1910827,21.3425699 17.6220218,20.908814 18.1534555,20.908814 L19.1161179,20.908814 C19.6475516,20.908814 20.0784907,21.3428616 20.0784907,21.8781287 L20.0784907,26.7252853 C20.0784907,27.260844 19.6475516,27.6945999 19.1161179,27.6945999 L18.1534555,27.6945999 C17.6220218,27.6945999 17.1910827,27.2605523 17.1910827,26.7252853 L17.1910827,21.8781287 Z M31.6287019,31.5727336 L16.2284203,31.5727336 L16.2284203,29.6338126 L31.6284122,29.6338126 L31.6284122,31.5727336 L31.6287019,31.5727336 Z" id="形状" fill-rule="nonzero"></path>
                    </g>
                </g>
            </g>
        </g>
    </g>
</svg>