<?xml version="1.0" encoding="UTF-8"?>
<svg width="23px" height="27px" viewBox="0 0 23 27" version="1.1" xmlns="http://www.w3.org/2000/svg" xmlns:xlink="http://www.w3.org/1999/xlink">
    <!-- Generator: Sketch 63.1 (92452) - https://sketch.com -->
    <title>INVOICE</title>
    <desc>Created with Sketch.</desc>
    <g id="Page-1" stroke="none" stroke-width="1" fill="none" fill-rule="evenodd">
        <g id="23.3.1.1--MAIN-UI---INVENTORY-MANAGEMENT-(ORDER)-" transform="translate(-1232.000000, -507.000000)">
            <g id="INVENTORY-MANAGEMENT" transform="translate(293.000000, 233.000000)">
                <g id="PLACE-ORDER" transform="translate(0.000000, 150.000000)">
                    <g id="INVOICE" transform="translate(939.000000, 111.000000)">
                        <g transform="translate(0.000000, 13.390001)">
                            <g>
                                <path d="M14.3788313,0.0311999985 L2.42049588,0.0311999985 C1.78621045,0.0316962229 1.17811002,0.284183876 0.730012139,0.733100949 C0.281914258,1.18201802 0.0305377108,1.79057861 0.0311986931,2.42486388 L0.0311986931,21.3495349 C0.0305377108,21.9838202 0.281914258,22.5923808 0.730012139,23.0412979 C1.17811002,23.490215 1.78621045,23.7427026 2.42049588,23.7431988 L16.9859032,23.7431988 C17.6201886,23.7427026 18.228289,23.490215 18.6763869,23.0412979 C19.1244848,22.5923808 19.3758613,21.9838202 19.3752004,21.3495349 L19.3752004,5.03630375 L14.3788313,0.0311999985 Z" id="Path" fill="#DEE2E6" fill-rule="nonzero"></path>
                                <path d="M5.57855973,4.62321577 L5.57855973,4.62321577 C5.45520886,4.6963264 5.29713144,4.66998016 5.20415974,4.56081578 C5.16689029,4.51388014 5.12195289,4.47358416 5.07124775,4.44163178 C4.96572386,4.37980736 4.84462218,4.34969442 4.72243177,4.35489579 C4.56339726,4.34886939 4.40777345,4.40200381 4.28563179,4.50403178 C4.17416241,4.59340289 4.11034113,4.72933991 4.1127838,4.87219176 C4.1127838,5.07603175 4.26399979,5.24014374 4.56643177,5.36452774 L4.98263975,5.53487973 C5.32126374,5.67215972 5.56899173,5.83855971 5.72582372,6.0340797 C5.88603359,6.24185844 5.96917884,6.49879268 5.96107171,6.76103967 C5.97187511,7.11813553 5.83270832,7.4634502 5.57731173,7.71326362 C5.32223471,7.96471945 4.9756456,8.10128187 4.61759977,8.0914076 C4.25567979,8.0914076 3.9567838,7.98407961 3.72091182,7.76942362 C3.55968867,7.61755426 3.43911659,7.42768541 3.37022383,7.21718364 C3.3391915,7.1301616 3.34680365,7.03402854 3.3911448,6.95297482 C3.43548595,6.87192111 3.51233417,6.81366425 3.60235182,6.79286367 L3.60235182,6.79286367 C3.77036544,6.75794375 3.93638169,6.86040262 3.9804958,7.02623965 C3.9992241,7.09961595 4.0311525,7.16897037 4.0747198,7.23091164 C4.20451179,7.41145563 4.39358378,7.50172763 4.64193577,7.50172763 C4.82546989,7.5069694 5.00283968,7.43525227 5.13115175,7.30391964 C5.26099788,7.17076714 5.33125383,6.99062366 5.32583974,6.80471966 C5.32669824,6.72892785 5.31531997,6.65349414 5.29214374,6.58132768 C5.26922511,6.51278525 5.2334325,6.44924806 5.18668774,6.39412768 C5.13242485,6.33202232 5.069355,6.27820271 4.99948775,6.23438369 C4.91366003,6.17931684 4.82326429,6.13171816 4.72929577,6.0921117 L4.32681579,5.92425571 C3.75606381,5.68255972 3.47068783,5.32895974 3.47068783,4.86345576 C3.46582439,4.56023388 3.59785305,4.27096275 3.83011181,4.0759678 C4.07705793,3.86024063 4.3965653,3.74608308 4.72430377,3.75647981 C5.07696922,3.7495152 5.41421923,3.90085414 5.64345572,4.16894379 C5.70297736,4.23468987 5.73015487,4.32351348 5.71761265,4.41130906 C5.70507042,4.49910464 5.6541094,4.5767656 5.57855973,4.62321577 Z" id="Path" fill="#868E96" fill-rule="nonzero"></path>
                                <path d="M4.65753577,8.72726357 C4.47488417,8.72726357 4.32681579,8.57919519 4.32681579,8.39654359 L4.32681579,8.0221436 C4.32153579,7.90067491 4.38333093,7.78610387 4.48773395,7.72379392 C4.59213698,7.66148396 4.72231056,7.66148396 4.82671359,7.72379392 C4.93111661,7.78610387 4.99291175,7.90067491 4.98763175,8.0221436 L4.98763175,8.39654359 C4.98763208,8.57895178 4.83994364,8.7269194 4.65753577,8.72726357 L4.65753577,8.72726357 Z" id="Path" fill="#868E96" fill-rule="nonzero"></path>
                                <path d="M4.65753577,4.17580779 C4.47488417,4.17580779 4.32681579,4.02773941 4.32681579,3.84508781 L4.32681579,3.47068783 C4.32153579,3.34921913 4.38333093,3.2346481 4.48773395,3.17233814 C4.59213698,3.11002819 4.72231056,3.11002819 4.82671359,3.17233814 C4.93111661,3.2346481 4.99291175,3.34921913 4.98763175,3.47068783 L4.98763175,3.84508781 C4.98763208,4.027496 4.83994364,4.17546363 4.65753577,4.17580779 Z" id="Path" fill="#868E96" fill-rule="nonzero"></path>
                                <rect id="Rectangle" fill="#ADB5BD" fill-rule="nonzero" x="8.0739356" y="4.0210558" width="3.22982384" height="1.06391995" rx="0.531647974"></rect>
                                <rect id="Rectangle" fill="#ADB5BD" fill-rule="nonzero" x="8.0739356" y="6.78100767" width="6.99129566" height="1.06391995" rx="0.531647974"></rect>
                                <path d="M19.358975,5.04004775 L15.5469592,5.04004775 C14.8921705,5.04004775 14.3613593,4.50923658 14.3613593,3.85444781 L14.3613593,0.0311999985 L19.358975,5.04004775 Z" id="Path" fill="#868E96" fill-rule="nonzero"></path>
                                <path d="M16.1840632,21.7114549 L3.22233584,21.7114549 C3.13418424,21.7114549 3.04965218,21.6763943 2.98737814,21.6140032 C2.92510409,21.5516121 2.89020216,21.4670144 2.89036727,21.3788629 L2.89036727,10.6747675 C2.89020216,10.586616 2.92510409,10.5020183 2.98737814,10.4396272 C3.04965218,10.3772361 3.13418424,10.3421755 3.22233584,10.3421755 L16.1840632,10.3421755 C16.2722148,10.3421755 16.3567469,10.3772361 16.4190209,10.4396272 C16.4812949,10.5020183 16.5161969,10.586616 16.5160318,10.6747675 L16.5160318,21.3788629 C16.5161969,21.4670144 16.4812949,21.5516121 16.4190209,21.6140032 C16.3567469,21.6763943 16.2722148,21.7114549 16.1840632,21.7114549 Z M3.55679982,21.046271 L15.8495992,21.046271 L15.8495992,11.0067355 L3.55679982,11.0067355 L3.55679982,21.046271 Z" id="Shape" fill="#ADB5BD" fill-rule="nonzero"></path>
                                <path d="M16.1840632,13.6000793 L3.22233584,13.6000793 C3.04441891,13.5923675 2.90414664,13.4458833 2.90414664,13.2677993 C2.90414664,13.0897154 3.04441891,12.9432312 3.22233584,12.9355194 L16.1840632,12.9355194 C16.3619801,12.9432312 16.5022524,13.0897154 16.5022524,13.2677993 C16.5022524,13.4458833 16.3619801,13.5923675 16.1840632,13.6000793 Z" id="Path" fill="#ADB5BD" fill-rule="nonzero"></path>
                                <path d="M5.91239971,21.7114549 C5.8242481,21.7114549 5.73971605,21.6763943 5.677442,21.6140032 C5.61516796,21.5516121 5.58026603,21.4670144 5.58043114,21.3788629 L5.58043114,10.6747675 C5.58043114,10.4914266 5.72905885,10.3427995 5.91239971,10.3427995 C6.09574056,10.3427995 6.24436828,10.4914266 6.24436828,10.6747675 L6.24436828,21.3788629 C6.24453339,21.4670144 6.20963146,21.5516121 6.14735741,21.6140032 C6.08508337,21.6763943 6.00055131,21.7114549 5.91239971,21.7114549 Z" id="Path" fill="#ADB5BD" fill-rule="nonzero"></path>
                                <path d="M17.0039992,15.0695993 L17.0039992,15.0695993 C20.1400927,15.0695993 22.6823989,17.6119054 22.6823989,20.747999 L22.6823989,20.747999 C22.6823989,22.2540042 22.0841406,23.6983274 21.0192341,24.7632339 C19.9543276,25.8281404 18.5100044,26.4263987 17.0039992,26.4263987 L11.7985914,26.4263987 C11.5373652,26.4263987 11.3255994,26.214633 11.3255994,25.9534067 L11.3255994,20.747999 C11.3255994,17.6119054 13.8679056,15.0695993 17.0039992,15.0695993 L17.0039992,15.0695993 Z" id="Path" fill="#5C7CFA" fill-rule="nonzero" transform="translate(17.003999, 20.747999) rotate(90.000000) translate(-17.003999, -20.747999) "></path>
                                <path d="M18.9265431,21.4655989 L15.6817432,21.4655989 L15.0153113,19.1524311 L19.2054711,19.1524311 C19.3490246,19.152456 19.4849452,19.2170829 19.5755784,19.3284079 C19.6662115,19.439733 19.7019331,19.5859349 19.672847,19.726511 L19.392671,21.087455 C19.345886,21.3076386 19.151642,21.4652181 18.9265431,21.4655989 L18.9265431,21.4655989 Z" id="Path" fill="#FFE066" fill-rule="nonzero"></path>
                                <path d="M18.9695991,21.8917909 L16.2920152,21.8917909 C16.1809083,21.8917103 16.0832314,21.8181982 16.0523992,21.7114549 L15.2062553,18.7786551 C15.1039512,18.4285914 14.7834719,18.1875971 14.4187673,18.1864791 L13.6075673,18.1864791 C13.4500734,18.1864791 13.3223993,18.3141532 13.3223993,18.4716471 C13.3223993,18.629141 13.4500734,18.7568151 13.6075673,18.7568151 L14.4187673,18.7568151 C14.5298742,18.7568957 14.6275511,18.8304078 14.6583833,18.9371511 L15.5045272,21.8699509 C15.6061458,22.2207562 15.9267908,22.4626374 16.2920152,22.4639989 L18.9695991,22.4639989 C19.127093,22.4639989 19.2547671,22.3363248 19.2547671,22.1788309 C19.2547671,22.021337 19.127093,21.8936629 18.9695991,21.8936629 L18.9695991,21.8917909 Z" id="Path" fill="#FFD43B" fill-rule="nonzero"></path>
                                <circle id="Oval" fill="#FFD43B" fill-rule="nonzero" cx="16.6907512" cy="23.2458709" r="1"></circle>
                                <circle id="Oval" fill="#FFD43B" fill-rule="nonzero" cx="18.4722711" cy="23.2458709" r="1"></circle>
                            </g>
                        </g>
                    </g>
                </g>
            </g>
        </g>
    </g>
</svg>