<?xml version="1.0" encoding="UTF-8"?>
<svg width="70px" height="50px" viewBox="0 0 70 50" version="1.1" xmlns="http://www.w3.org/2000/svg" xmlns:xlink="http://www.w3.org/1999/xlink">
    <!-- Generator: Sketch 63.1 (92452) - https://sketch.com -->
    <title>FOOD</title>
    <desc>Created with Sketch.</desc>
    <defs>
        <filter x="-19.2%" y="-28.5%" width="138.5%" height="159.2%" filterUnits="objectBoundingBox" id="filter-1">
            <feOffset dx="2" dy="2" in="SourceAlpha" result="shadowOffsetOuter1"></feOffset>
            <feGaussianBlur stdDeviation="2" in="shadowOffsetOuter1" result="shadowBlurOuter1"></feGaussianBlur>
            <feColorMatrix values="0 0 0 0 0   0 0 0 0 0   0 0 0 0 0  0 0 0 0.5 0" type="matrix" in="shadowBlurOuter1" result="shadowMatrixOuter1"></feColorMatrix>
            <feMerge>
                <feMergeNode in="shadowMatrixOuter1"></feMergeNode>
                <feMergeNode in="SourceGraphic"></feMergeNode>
            </feMerge>
        </filter>
    </defs>
    <g id="Page-1" stroke="none" stroke-width="1" fill="none" fill-rule="evenodd">
        <g id="24.2-MAIN-UI---CUSTOMER-ANALYTICS-(DETAILS)" transform="translate(-1056.000000, -1940.000000)">
            <g id="2.CUSTOMER-DETAILS" transform="translate(317.000000, 1722.000000)">
                <g id="ORDER-LIST" transform="translate(0.000000, 91.000000)">
                    <g id="ACTIVE-TAB" transform="translate(1.000000, 48.000000)">
                        <g id="OVERALL-FOOD-RATING" transform="translate(740.000000, 81.000000)">
                            <g id="FOOD">
                                <g filter="url(#filter-1)">
                                    <ellipse id="Oval" fill="#009688" cx="29.8928571" cy="20.9487179" rx="21.0357143" ry="20.9487179"></ellipse>
                                    <ellipse id="Oval" fill="#ECEFF1" cx="29.8928571" cy="20.9487179" rx="19.9285714" ry="19.8461538"></ellipse>
                                    <ellipse id="Oval" fill="#CFD8DC" cx="29.8928571" cy="20.9487179" rx="14.3928571" ry="14.3333333"></ellipse>
                                    <path d="M29.8928571,8.82051282 C37.4679286,8.82051282 43.6623929,14.6519744 44.22925,22.0512821 C44.2580357,21.6863333 44.2857143,21.3213846 44.2857143,20.9487179 C44.2857143,13.0323077 37.8421429,6.61538462 29.8928571,6.61538462 C21.9435714,6.61538462 15.5,13.0323077 15.5,20.9487179 C15.5,21.3213846 15.5276786,21.6863333 15.5564643,22.0512821 C16.1233214,14.6519744 22.3177857,8.82051282 29.8928571,8.82051282 L29.8928571,8.82051282 Z" id="Shape" fill="#B0BEC5"></path>
                                    <g id="Fork" transform="translate(0.000000, 11.025641)">
                                        <path d="M21.8604246,10.9648896 C21.7092996,11.1153896 21.5108996,11.1910255 21.3124996,11.1910255 C21.1140996,11.1910255 20.9156996,11.1153896 20.7645746,10.9648896 C20.4615497,10.6631178 20.4615497,10.1753434 20.7645746,9.87357163 L27.3520745,3.31331533 L26.1229246,2.08924868 L19.5354247,8.64950498 C19.3842997,8.80000498 19.1858997,8.87564087 18.9874997,8.87564087 C18.7890997,8.87564087 18.5906997,8.80000498 18.4395747,8.64950498 C18.1365497,8.34773319 18.1365497,7.85995884 18.4395747,7.55818705 L25.0270746,0.997930752 L24.0249996,0 L15.4426497,5.67269221 C13.1556248,7.37835885 12.9169248,10.7055665 14.9373497,12.7176357 L16.6795497,14.4526305 C18.6999747,16.4646997 22.0409996,16.2269869 23.7537496,13.9494203 L29.4499995,5.40256401 L28.4479245,4.40463326 L21.8604246,10.9648896 L21.8604246,10.9648896 Z" id="Shape" fill="#90A4AE"></path>
                                        <polygon id="Rectangle-path" fill="#90A4AE" transform="translate(15.500000, 13.892076) rotate(45.000000) translate(-15.500000, -13.892076) " points="13.9596299 10.801721 17.0531899 10.7953108 17.0403696 16.9824308 13.9468095 16.988841"></polygon>
                                        <path d="M14.5242748,17.0605254 L12.3193998,14.864769 C12.3193998,14.864769 1.72824997,23.2163611 0.913724984,24.0275175 C-0.303799995,25.2400073 -0.303799995,27.2065406 0.913724984,28.4198021 C2.13124996,29.6322918 4.10594993,29.6322918 5.32424991,28.4198021 C6.1379999,27.6078739 14.5242748,17.0605254 14.5242748,17.0605254 L14.5242748,17.0605254 Z" id="Shape" fill="#009688"></path>
                                        <path d="M12.9533498,17.3823638 L11.9869248,16.4199356 C11.9869248,16.4199356 2.45597496,24.646497 2.04134997,25.0594073 C1.42134998,25.6768432 1.42134998,26.6778611 2.04134997,27.295297 C2.66134995,27.9127329 3.66652494,27.9127329 4.28652493,27.295297 C4.70114992,26.8823867 12.9533498,17.3823638 12.9533498,17.3823638 L12.9533498,17.3823638 Z" id="Shape" fill="#26A69A"></path>
                                    </g>
                                    <g id="Knife" transform="translate(46.902598, 26.561771) scale(-1, 1) translate(-46.902598, -26.561771) translate(31.805195, 11.025641)">
                                        <path d="M14.1150074,16.9033647 C11.6781419,14.4765772 13.2987331,16.5937647 12.9878475,16.9033647 C12.8858132,17.004977 2.50860836,26.2159731 2.06141125,26.6621146 C1.43884273,27.2821084 1.43884273,28.2871176 2.06141125,28.9071114 C2.68397977,29.5271052 3.69316254,29.5271052 4.31573106,28.9071114 C4.7637253,28.4609699 14.0129731,18.1274754 14.1150074,18.0258631 C14.4266902,17.7162631 14.4266902,17.2129647 14.1150074,16.9033647 L14.1150074,16.9033647 Z" id="Shape" fill="#BDC3C7"></path>
                                        <path d="M28.7346061,0.0992307607 L11.7634361,15.4117279 L15.1249873,18.7593768 L15.7850215,18.1020723 L17.4550356,19.7651798 C29.4679775,7.80271317 30.6206459,4.6543196 28.7346061,0.0992307607 L28.7346061,0.0992307607 Z" id="Shape" fill="#95A5A6"></path>
                                        <path d="M15.2485444,18.6498261 L11.8734418,15.2886818 C11.8734418,15.2886818 1.77683128,24.6727363 0.939034205,25.5070686 C-0.313277116,26.7542008 -0.313277116,28.7769206 0.939034205,30.0248466 C2.19134553,31.2719788 4.22246535,31.2719788 5.47557381,30.0248466 C7.68684791,27.8227176 11.2413076,22.6404904 15.2485444,18.6498261 L15.2485444,18.6498261 Z" id="Shape" fill="#009688"></path>
                                        <path d="M13.3234446,18.6728476 L11.8367733,17.1923247 C11.8367733,17.1923247 2.5261455,26.144527 2.0996741,26.5692346 C1.46195987,27.2043115 1.46195987,28.2339299 2.0996741,28.8690067 C2.73738834,29.5040836 3.77128253,29.5040836 4.40899676,28.8690067 C4.83546816,28.4442991 10.4816305,21.5021151 13.3234446,18.6728476 L13.3234446,18.6728476 Z" id="Shape" fill="#26A69A"></path>
                                    </g>
                                </g>
                            </g>
                        </g>
                    </g>
                </g>
            </g>
        </g>
    </g>
</svg>