<?xml version="1.0" encoding="UTF-8"?>
<svg width="48px" height="48px" viewBox="0 0 48 48" version="1.1" xmlns="http://www.w3.org/2000/svg" xmlns:xlink="http://www.w3.org/1999/xlink">
    <!-- Generator: Sketch 63.1 (92452) - https://sketch.com -->
    <title>ICON</title>
    <desc>Created with Sketch.</desc>
    <g id="Page-1" stroke="none" stroke-width="1" fill="none" fill-rule="evenodd">
        <g id="24.1-MAIN-UI---CUSTOMER-ANALYTICS" transform="translate(-969.000000, -528.000000)" fill="#6DD230">
            <g id="1.BLOCKS" transform="translate(312.000000, 226.000000)">
                <g id="OVERALL-RATING" transform="translate(383.000000, 274.725000)">
                    <g id="ICON" transform="translate(274.000000, 27.275000)">
                        <circle id="椭圆形备份-4" opacity="0.100000001" cx="23.5125006" cy="23.5125006" r="23.5125006"></circle>
                        <path d="M25.92869,11.9700003 L20.8817811,11.9700003 C20.2626694,11.9700003 19.7678036,12.5428099 19.7678036,13.2508679 C19.7678036,13.9604529 20.2635359,14.5350397 20.8817811,14.5350397 L25.9599561,14.5350397 C26.5478499,14.5350397 27.0435341,13.9604278 27.0435341,13.2508679 C27.0435341,12.5427849 26.5485961,11.9700003 25.9287382,11.9700003 L25.9287382,11.9700003 L25.92869,11.9700003 Z M31.4089916,12.8249717 L28.8957426,12.8249717 C28.9212561,12.9652266 28.9360347,13.1071836 28.9360347,13.2507928 C28.9368771,14.3289755 28.1846859,15.3900111 27.2901727,15.3900111 L19.5689667,15.3900111 C18.6275905,15.3900111 17.8744606,14.3289755 17.8744606,13.2507928 C17.8753271,13.1071336 17.8901057,12.9652516 17.9156192,12.8249717 L15.3719706,12.8249717 C13.3273276,12.8249717 12.8250003,14.0304927 12.8250003,15.7695729 L12.8250003,32.9962143 C12.8250003,34.8644351 13.5443609,35.910001 15.5263995,35.910001 L31.2543701,35.910001 C33.2365531,35.910001 34.2000009,35.0901746 34.2000009,32.9971405 L34.2000009,15.7695729 C34.2000009,14.0305428 33.2981706,12.8249717 31.4089916,12.8249717 L31.4089916,12.8249717 L31.4089916,12.8249717 Z M28.8267598,29.8336086 L17.8974468,29.8336086 C17.4945741,29.8336086 17.0925438,29.3197246 17.0925438,28.8999863 C17.0925438,28.4818501 17.4329566,28.1235657 17.835709,28.1235657 L28.733804,28.1235657 C29.1365323,28.1235657 29.4769692,28.4493334 29.507465,28.8999863 C29.507465,29.3197997 29.2294881,29.8336086 28.8267357,29.8336086 L28.8267357,29.8336086 L28.8267598,29.8336086 Z M28.8711678,25.2723593 L17.9418548,25.2723593 C17.538982,25.2723593 17.282475,24.8217814 17.282475,24.401893 C17.282475,23.9821297 17.6228878,23.5623163 18.0256402,23.5623163 L28.9237352,23.5623163 C29.326608,23.5623163 29.6669004,23.9512651 29.6973963,24.401893 C29.6973963,24.8216563 29.273174,25.2723593 28.8711918,25.2723593 L28.8711918,25.2723593 L28.8711678,25.2723593 Z M28.8711678,20.5877017 L17.9418548,20.5877017 C17.538982,20.5877017 17.282475,20.1371238 17.282475,19.7173605 C17.282475,19.2975972 17.6228878,18.8777088 18.0256402,18.8777088 L28.9237352,18.8777088 C29.326608,18.8777088 29.6669004,19.2668578 29.6973963,19.7173605 C29.6973963,20.1371238 29.273174,20.5877017 28.8711918,20.5877017 L28.8711918,20.5877017 L28.8711678,20.5877017 Z" id="形状"></path>
                    </g>
                </g>
            </g>
        </g>
    </g>
</svg>