<?xml version="1.0" encoding="UTF-8"?>
<svg width="31px" height="30px" viewBox="0 0 31 30" version="1.1" xmlns="http://www.w3.org/2000/svg" xmlns:xlink="http://www.w3.org/1999/xlink">
    <!-- Generator: Sketch 63.1 (92452) - https://sketch.com -->
    <title>RATING</title>
    <desc>Created with Sketch.</desc>
    <g id="Page-1" stroke="none" stroke-width="1" fill="none" fill-rule="evenodd">
        <g id="24.3-MAIN-UI---CUSTOMER-ANALYTICS-(-SORTING)" transform="translate(-1186.000000, -2032.000000)">
            <g id="2.CUSTOMER-DETAILS" transform="translate(310.000000, 1722.000000)">
                <g id="NOTIFICATION-BAR" transform="translate(855.000000, 68.000000)">
                    <g id="RATING" transform="translate(0.000000, 228.000000)">
                        <g transform="translate(21.000000, 14.000000)" id="Star_Stroked">
                            <g>
                                <polygon id="Shape" fill="#FFECB3" points="15.7142857 23.2092857 7.30142857 28.115 9.36785714 18.5978571 2.10214286 12.1128571 11.7921429 11.1371429 15.7142857 2.22357143 19.6364286 11.1371429 29.3264286 12.1128571 22.0607143 18.5978571 24.1271429 28.115"></polygon>
                                <path d="M15.7142857,3.99714286 L18.815,11.0442857 L19.1507143,11.8071429 L19.9792857,11.8907143 L27.6392857,12.6621429 L21.8957143,17.7885714 L21.2742857,18.3435714 L21.4507143,19.1578571 L23.0842857,26.6814286 L16.4335714,22.8028571 L15.7142857,22.3821429 L14.9942857,22.8021429 L8.34357143,26.6807143 L9.97714286,19.1571429 L10.1535714,18.3428571 L9.53214286,17.7878571 L3.78857143,12.6614286 L11.4485714,11.89 L12.2771429,11.8064286 L12.6128571,11.0435714 L15.7142857,3.99714286 L15.7142857,3.99714286 Z M15.7142857,0.45 L11.3057143,10.4685714 L0.415714286,11.565 L8.58142857,18.8535714 L6.25928571,29.55 L15.7142857,24.0364286 L25.1692857,29.5507143 L22.8471429,18.8542857 L31.0128571,11.5657143 L20.1221429,10.4692857 L15.7142857,0.45 L15.7142857,0.45 L15.7142857,0.45 Z" id="Shape" fill="#FFC107"></path>
                            </g>
                        </g>
                    </g>
                </g>
            </g>
        </g>
    </g>
</svg>