<?xml version="1.0" encoding="UTF-8"?>
<svg width="33px" height="35px" viewBox="0 0 33 35" version="1.1" xmlns="http://www.w3.org/2000/svg" xmlns:xlink="http://www.w3.org/1999/xlink">
    <!-- Generator: Sketch 63.1 (92452) - https://sketch.com -->
    <title>RESTAURANT ICON</title>
    <desc>Created with Sketch.</desc>
    <g id="Page-1" stroke="none" stroke-width="1" fill="none" fill-rule="evenodd">
        <g id="24.2-MAIN-UI---CUSTOMER-ANALYTICS-(DETAILS)" transform="translate(-1247.000000, -1943.000000)">
            <g id="2.CUSTOMER-DETAILS" transform="translate(317.000000, 1722.000000)">
                <g id="ORDER-LIST" transform="translate(0.000000, 91.000000)">
                    <g id="ACTIVE-TAB" transform="translate(1.000000, 48.000000)">
                        <g id="OVERALL-FOOD-RATING-Copy" transform="translate(929.000000, 80.000000)">
                            <g id="RESTAURANT-ICON" transform="translate(0.000000, 2.000000)">
                                <g id="DINE-IN">
                                    <path d="M0.5625,34.53125 L0.5625,32.5390625 C0.5625,32.1007812 0.92109375,31.7421875 1.359375,31.7421875 L31.2421875,31.7421875 C31.6804688,31.7421875 32.0390625,32.1007812 32.0390625,32.5390625 L32.0390625,34.53125 L0.5625,34.53125" id="Fill-238" fill="#ACADA9"></path>
                                    <polygon id="Fill-239" fill="#E5E5E0" points="2.15625 31.7421875 30.84375 31.7421875 30.84375 7.8359375 2.15625 7.8359375"></polygon>
                                    <path d="M30.84375,7.8359375 L2.15625,7.8359375 L2.15625,13.7810234 C2.62560937,14.0527578 3.16867969,14.2109375 3.75,14.2109375 C5.51029688,14.2109375 6.9375,12.7837344 6.9375,11.0234375 C6.9375,12.7837344 8.36470312,14.2109375 10.125,14.2109375 C11.8852969,14.2109375 13.3125,12.7837344 13.3125,11.0234375 C13.3125,12.7837344 14.7397031,14.2109375 16.5,14.2109375 C18.2602969,14.2109375 19.6875,12.7837344 19.6875,11.0234375 C19.6875,12.7837344 21.1147031,14.2109375 22.875,14.2109375 C24.6352969,14.2109375 26.0625,12.7837344 26.0625,11.0234375 C26.0625,12.7837344 27.4897031,14.2109375 29.25,14.2109375 C29.8313203,14.2109375 30.3743906,14.0527578 30.84375,13.7810234 L30.84375,7.8359375" id="Fill-240" fill="#C7C6C1"></path>
                                    <path d="M13.3125,0.265625 L13.3125,10.2265625 C13.3125,11.9868594 14.7397031,13.4140625 16.5,13.4140625 C18.2602969,13.4140625 19.6875,11.9868594 19.6875,10.2265625 L19.6875,0.265625 L13.3125,0.265625" id="Fill-241" fill="#BD544A"></path>
                                    <path d="M26.0625,0.265625 L26.0625,10.2265625 C26.0625,11.9868594 27.4897031,13.4140625 29.25,13.4140625 C31.0102969,13.4140625 32.4375,11.9868594 32.4375,10.2265625 L30.84375,0.265625 L26.0625,0.265625" id="Fill-242" fill="#BD544A"></path>
                                    <path d="M2.15625,0.265625 L0.5625,10.2265625 C0.5625,11.9868594 1.98970312,13.4140625 3.75,13.4140625 C5.51029688,13.4140625 6.9375,11.9868594 6.9375,10.2265625 L6.9375,0.265625 L2.15625,0.265625" id="Fill-243" fill="#BD544A"></path>
                                    <path d="M0.5625,10.2265625 C0.5625,11.9868594 1.98970312,13.4140625 3.75,13.4140625 C5.51029688,13.4140625 6.9375,11.9868594 6.9375,10.2265625 L0.5625,10.2265625" id="Fill-244" fill="#B04F45"></path>
                                    <path d="M6.9375,0.265625 L6.9375,10.2265625 C6.9375,11.9868594 8.36470312,13.4140625 10.125,13.4140625 C11.8852969,13.4140625 13.3125,11.9868594 13.3125,10.2265625 L13.3125,0.265625 L6.9375,0.265625" id="Fill-245" fill="#F8F7F5"></path>
                                    <path d="M6.9375,10.2265625 C6.9375,11.9868594 8.36470312,13.4140625 10.125,13.4140625 C11.8852969,13.4140625 13.3125,11.9868594 13.3125,10.2265625 L6.9375,10.2265625" id="Fill-246" fill="#E5E5E0"></path>
                                    <path d="M13.3125,10.2265625 C13.3125,11.9868594 14.7397031,13.4140625 16.5,13.4140625 C18.2602969,13.4140625 19.6875,11.9868594 19.6875,10.2265625 L13.3125,10.2265625" id="Fill-247" fill="#B04F45"></path>
                                    <path d="M26.0625,10.2265625 C26.0625,11.9868594 27.4897031,13.4140625 29.25,13.4140625 C31.0102969,13.4140625 32.4375,11.9868594 32.4375,10.2265625 L26.0625,10.2265625" id="Fill-248" fill="#B04F45"></path>
                                    <path d="M19.6875,0.265625 L19.6875,10.2265625 C19.6875,11.9868594 21.1147031,13.4140625 22.875,13.4140625 C24.6352969,13.4140625 26.0625,11.9868594 26.0625,10.2265625 L26.0625,0.265625 L19.6875,0.265625" id="Fill-249" fill="#F8F7F5"></path>
                                    <path d="M19.6875,10.2265625 C19.6875,11.9868594 21.1147031,13.4140625 22.875,13.4140625 C24.6352969,13.4140625 26.0625,11.9868594 26.0625,10.2265625 L19.6875,10.2265625" id="Fill-250" fill="#E5E5E0"></path>
                                    <polyline id="Fill-251" fill="#8CCAB7" points="32.4375 10.2265625 32.4375 10.2265625 32.37375 9.828125 32.4375 9.828125 32.4375 10.2265625"></polyline>
                                    <polyline id="Fill-252" fill="#D19087" points="32.4375 10.2265625 26.0625 10.2265625 26.0625 9.828125 32.37375 9.828125 32.4375 10.2265625"></polyline>
                                    <polygon id="Fill-253" fill="#D19087" points="13.3125 10.2265625 19.6875 10.2265625 19.6875 9.828125 13.3125 9.828125"></polygon>
                                    <polyline id="Fill-254" fill="#8CCAB7" points="0.5625 10.2265625 0.5625 9.828125 0.62625 9.828125 0.5625 10.2265625"></polyline>
                                    <polyline id="Fill-255" fill="#D19087" points="6.9375 10.2265625 0.5625 10.2265625 0.62625 9.828125 6.9375 9.828125 6.9375 10.2265625"></polyline>
                                    <polygon id="Fill-256" fill="#F8F7F5" points="6.9375 10.2265625 13.3125 10.2265625 13.3125 9.828125 6.9375 9.828125"></polygon>
                                    <polygon id="Fill-257" fill="#F8F7F5" points="19.6875 10.2265625 26.0625 10.2265625 26.0625 9.828125 19.6875 9.828125"></polygon>
                                    <polygon id="Fill-258" fill="#91928E" points="3.75 29.3515625 29.25 29.3515625 29.25 15.8046875 3.75 15.8046875"></polygon>
                                    <polygon id="Fill-259" fill="#C1E0E9" points="4.546875 28.5546875 28.453125 28.5546875 28.453125 16.6015625 4.546875 16.6015625"></polygon>
                                    <path d="M6.140625,23.375 C6.038625,23.375 5.936625,23.3359531 5.85892969,23.2582578 C5.70314062,23.1024687 5.70314062,22.8506563 5.85892969,22.6948672 L10.6401797,17.9136172 C10.717875,17.8359219 10.819875,17.796875 10.921875,17.796875 C11.023875,17.796875 11.125875,17.8359219 11.2035703,17.9136172 C11.3593594,18.0694063 11.3593594,18.3212187 11.2035703,18.4770078 L6.42232031,23.2582578 C6.344625,23.3359531 6.242625,23.375 6.140625,23.375 M6.140625,20.984375 C6.038625,20.984375 5.936625,20.9453281 5.85892969,20.8676328 C5.70314062,20.7118437 5.70314062,20.4600313 5.85892969,20.3042422 L8.24955469,17.9136172 C8.32725,17.8359219 8.42925,17.796875 8.53125,17.796875 C8.63325,17.796875 8.73525,17.8359219 8.81294531,17.9136172 C8.96873437,18.0694063 8.96873437,18.3212187 8.81294531,18.4770078 L6.42232031,20.8676328 C6.344625,20.9453281 6.242625,20.984375 6.140625,20.984375" id="Fill-260" fill="#CFE7EC"></path>
                                    <polygon id="Fill-261" fill="#C7C6C1" points="2.15625 31.7421875 30.84375 31.7421875 30.84375 31.34375 2.15625 31.34375"></polygon>
                                    <polygon id="Fill-262" fill="#C7C6C1" points="4.1484375 34.53125 4.546875 34.53125 4.546875 31.7421875 4.1484375 31.7421875"></polygon>
                                    <polygon id="Fill-263" fill="#C7C6C1" points="8.9296875 34.53125 9.328125 34.53125 9.328125 31.7421875 8.9296875 31.7421875"></polygon>
                                    <polygon id="Fill-264" fill="#C7C6C1" points="13.7109375 34.53125 14.109375 34.53125 14.109375 31.7421875 13.7109375 31.7421875"></polygon>
                                    <polygon id="Fill-265" fill="#C7C6C1" points="18.4921875 34.53125 18.890625 34.53125 18.890625 31.7421875 18.4921875 31.7421875"></polygon>
                                    <polygon id="Fill-266" fill="#C7C6C1" points="23.2734375 34.53125 23.671875 34.53125 23.671875 31.7421875 23.2734375 31.7421875"></polygon>
                                    <polygon id="Fill-267" fill="#C7C6C1" points="28.0546875 34.53125 28.453125 34.53125 28.453125 31.7421875 28.0546875 31.7421875"></polygon>
                                </g>
                            </g>
                        </g>
                    </g>
                </g>
            </g>
        </g>
    </g>
</svg>