<?xml version="1.0" encoding="UTF-8"?>
<svg width="48px" height="48px" viewBox="0 0 48 48" version="1.1" xmlns="http://www.w3.org/2000/svg" xmlns:xlink="http://www.w3.org/1999/xlink">
    <!-- Generator: Sketch 63.1 (92452) - https://sketch.com -->
    <title>ICON</title>
    <desc>Created with Sketch.</desc>
    <g id="Page-1" stroke="none" stroke-width="1" fill="none" fill-rule="evenodd">
        <g id="24.1-MAIN-UI---CUSTOMER-ANALYTICS" transform="translate(-1345.000000, -528.000000)" fill="#FE7C4B">
            <g id="1.BLOCKS" transform="translate(312.000000, 226.000000)">
                <g id="AVERAGE-TABLE-REVENUE" transform="translate(759.000000, 274.725000)">
                    <g id="ICON" transform="translate(274.000000, 27.275000)">
                        <circle id="椭圆形备份-4" opacity="0.100000001" cx="23.5125006" cy="23.5125006" r="23.5125006"></circle>
                        <path d="M11.9700003,33.7119033 L11.9700003,19.2669939 C12.0657327,18.9954753 12.1190319,18.7028474 12.2573536,18.4526569 C12.7629306,17.547793 13.5452136,17.0955015 14.5936489,17.0955015 C20.8308677,17.1007477 27.062716,17.0955015 33.2999349,17.0955015 C33.4010377,17.0955015 33.5073863,17.1007477 33.6085204,17.1061188 C34.7101299,17.1700404 35.6947749,18.0641622 35.8650386,19.1552637 C35.8916414,19.3254195 35.9076279,19.4958251 35.9076279,19.6661058 C35.9129673,20.8795858 35.9076279,22.0984057 35.9076279,23.3332138 C35.7799224,23.3385848 35.6734489,23.349202 35.5616987,23.349202 C33.4808148,23.3545731 31.4000245,23.3279676 29.3191406,23.37053 C28.2548435,23.3917643 27.4671589,23.9612818 27.0893188,24.9512705 C26.7008313,25.9732355 26.9296398,26.9205369 27.680012,27.7295028 C28.1165218,28.1979073 28.685858,28.368188 29.303154,28.368188 C31.3998996,28.3735591 33.5020469,28.3735591 35.5989175,28.3735591 L35.9022575,28.3735591 L35.9022575,33.3499827 C35.9022575,34.8508446 34.8485766,35.910001 33.3477386,35.910001 L14.6468231,35.910001 C13.4814232,35.910001 12.4649612,35.2075191 12.1030765,34.169597 C12.0551478,34.0205195 12.017929,33.866227 11.9700003,33.7119033 Z M28.249473,25.8134472 C28.2654597,25.1055942 28.8189341,24.5999671 29.548074,24.6159553 C30.2398702,24.6318185 30.7826348,25.1907189 30.7667731,25.8773687 C30.7507865,26.5746045 30.1813254,27.1227627 29.4842836,27.1120519 C28.7763759,27.1068058 28.2336113,26.5319173 28.249598,25.8134472 L28.249473,25.8134472 Z M28.260214,11.9700003 C28.4197369,12.0019767 28.5741389,12.0339219 28.7338178,12.0657734 C29.6012483,12.2467962 30.2718123,12.6832243 30.6762863,13.4974364 C31.0647425,14.2798281 31.4957881,15.0409855 31.9056015,15.8073891 C31.9427891,15.8819278 31.9801016,15.9564666 32.0332759,16.0629506 L19.3833601,16.0629506 C19.4898335,15.999029 19.5483782,15.9618064 19.6121686,15.9298612 C21.6930525,14.8494705 23.7738428,13.7742322 25.8493875,12.6885954 C26.424219,12.3852254 27.0095417,12.1137068 27.6481637,11.9700003 L28.260214,11.9700003 Z" id="形状" fill-rule="nonzero"></path>
                    </g>
                </g>
            </g>
        </g>
    </g>
</svg>