<?xml version="1.0" encoding="UTF-8"?>
<svg width="49px" height="40px" viewBox="0 0 49 40" version="1.1" xmlns="http://www.w3.org/2000/svg" xmlns:xlink="http://www.w3.org/1999/xlink">
    <!-- Generator: Sketch 63.1 (92452) - https://sketch.com -->
    <title>SEND ICON</title>
    <desc>Created with Sketch.</desc>
    <g id="Page-1" stroke="none" stroke-width="1" fill="none" fill-rule="evenodd">
        <g id="25.2-MAIN-UI---EMPLOYEE-ANALYTICS-(EMPLOYEE-DETAILS)" transform="translate(-678.000000, -1156.000000)">
            <g id="2.EMPLOYEE-DETAILS" transform="translate(310.000000, 730.000000)">
                <g id="DETAILS" transform="translate(0.000000, 91.000000)">
                    <g id="TAB--ACTIVE" transform="translate(1.000000, 48.000000)">
                        <g id="SEND-PASSWORD" transform="translate(367.000000, 282.000000)">
                            <g id="SEND-ICON" transform="translate(0.000000, 5.000000)">
                                <g>
                                    <g id="Read_Message">
                                        <polygon id="Shape" fill="#80DEEA" points="36 23 0 23 0 9 18 0 36 9"></polygon>
                                        <rect id="Rectangle-path" fill="#FFFFFF" x="6" y="8" width="24" height="18"></rect>
                                        <rect id="Rectangle-path" fill="#CFD8DC" x="10" y="12" width="16" height="2"></rect>
                                        <rect id="Rectangle-path" fill="#CFD8DC" x="10" y="16" width="16" height="2"></rect>
                                        <polygon id="Shape" fill="#00BCD4" points="0 11 14 21 22 21 36 11 36 32 0 32"></polygon>
                                    </g>
                                    <g id="Reply_to_All" transform="translate(34.500000, 29.000000) scale(-1, 1) translate(-34.500000, -29.000000) translate(20.000000, 18.000000)">
                                        <polygon id="Shape" fill="#0288D1" points="9.79999983 16.7999997 0 8.39999986 9.79999983 0"></polygon>
                                        <path d="M14.6999997,16.7999997 L4.89999992,8.39999986 L14.6999997,0 L14.6999997,4.89999992 C28.9197995,4.89999992 28.6999995,21.6999996 28.6999995,21.6999996 C28.6999995,21.6999996 26.4179996,11.8999998 14.6999997,11.8999998 L14.6999997,16.7999997 L14.6999997,16.7999997 Z" id="Shape" fill="#03A9F4"></path>
                                    </g>
                                </g>
                            </g>
                        </g>
                    </g>
                </g>
            </g>
        </g>
    </g>
</svg>