<?xml version="1.0" encoding="UTF-8"?>
<svg width="38px" height="38px" viewBox="0 0 38 38" version="1.1" xmlns="http://www.w3.org/2000/svg" xmlns:xlink="http://www.w3.org/1999/xlink">
    <!-- Generator: Sketch 63.1 (92452) - https://sketch.com -->
    <title>SEND MAIL</title>
    <desc>Created with Sketch.</desc>
    <defs>
        <polygon id="path-1" points="0.0178125 0 38 0 38 38 0.0178125 38"></polygon>
        <path d="M19,0 C29.4933437,0 38,8.50665625 38,19 C38,29.4933438 29.4933437,38 19,38 C8.78148192,38 0.446949506,29.9330954 0.0173880619,19.8202716 L0.0173880619,18.1797284" id="path-3"></path>
    </defs>
    <g id="Page-1" stroke="none" stroke-width="1" fill="none" fill-rule="evenodd">
        <g id="23.3.1.1--MAIN-UI---INVENTORY-MANAGEMENT-(ORDER)-" transform="translate(-736.000000, -645.000000)">
            <g id="INVENTORY-MANAGEMENT" transform="translate(293.000000, 233.000000)">
                <g id="PLACE-ORDER" transform="translate(0.000000, 150.000000)">
                    <g id="SEND-&amp;-PLACE-ORDER" transform="translate(433.000000, 256.000000)">
                        <g id="SEND-MAIL" transform="translate(10.000000, 6.000000)">
                            <g>
                                <g id="Group-3">
                                    <mask id="mask-2" fill="white">
                                        <use xlink:href="#path-1"></use>
                                    </mask>
                                    <g id="Clip-2"></g>
                                    <path d="M19,0 C29.4933438,0 38,8.50665625 38,19 C38,29.4933438 29.4933438,38 19,38 C8.50665625,38 0,29.4933438 0,19 C0,8.50665625 8.50665625,0 19,0" id="Fill-1" fill="#2BC3EF" mask="url(#mask-2)"></path>
                                </g>
                                <g id="Group-10">
                                    <mask id="mask-4" fill="white">
                                        <use xlink:href="#path-3"></use>
                                    </mask>
                                    <g id="Clip-5"></g>
                                    <path d="M0,25.3798437 L0.02196875,25.3878594 L0,25.4119063 L0,38 L14.2010156,38 C15.1646719,36.8125 15.8599531,35.456375 16.1882969,33.9319219 C17.3695625,34.5045937 18.6951094,34.8261094 20.0957656,34.8261094 C23.1105313,34.8261094 25.7755781,33.3372813 27.4015625,31.0560937 C28.4162813,31.9256406 29.7338125,32.452 31.1748438,32.452 C34.3796094,32.452 36.9778594,29.85375 36.9778594,26.6486875 C36.9778594,25.4994844 36.6423906,24.4289531 36.0658594,23.5276406 C36.9294687,23.2049375 37.703125,22.5446875 38,21.7080937 L38,18.926375 C37.40625,17.7264062 36.2656562,16.8889219 34.8676719,16.8889219 C32.9739062,16.8889219 31.4384687,18.4240625 31.4384687,20.318125 C31.4384687,20.5007031 31.456875,20.6788281 31.4844844,20.8539844 C31.3817656,20.8486406 31.27875,20.8456719 31.1748438,20.8456719 C30.0312812,20.8456719 28.9657969,21.1775781 28.0671563,21.7487656 C26.5765469,18.8628437 23.5677187,16.8889219 20.0957656,16.8889219 C15.9335781,16.8889219 12.4346094,16.9530469 11.4228594,20.7975781 C10.0795,20.0699375 7.89984375,20.6491406 6.9065,22.4283125 C6.77023438,22.6726406 6.45228125,22.6162344 6.1310625,22.5595312 C5.95234375,22.5280625 5.77273437,22.4968906 5.6228125,22.5170781 C5.76917187,22.0738438 5.85140625,21.6015156 5.85140625,21.1092969 C5.85140625,18.6327656 3.84364063,16.625 1.36710938,16.625 C0.89003125,16.625 0.296875,16.701 0,16.8390469 L0,25.3798437" id="Fill-4" fill="#8DD7F7" mask="url(#mask-4)"></path>
                                    <path d="M0,35.6520156 C1.1875,36.9140313 2.87790625,37.703125 4.75,37.703125 C6.37182813,37.703125 7.85442187,37.1105625 8.99620313,36.1320625 C9.49109375,36.8258594 10.0735625,37.40625 10.7237187,38 L38,38 L38,19.9057656 C35.328125,20.0601406 33.25,22.2504844 33.25,24.9375 C33.25,25.4914687 33.342625,26.0231719 33.5073906,26.5219219 C33.0344688,26.4577969 32.5529375,26.421875 32.0625,26.421875 C30.2224688,26.421875 28.4913906,26.8870781 26.9797031,27.7058594 C25.8411875,23.3789062 21.9031406,20.1875 17.21875,20.1875 C13.3112813,20.1875 9.92482812,22.4093125 8.24748437,25.657125 C7.23603125,25.0143906 6.03695313,24.640625 4.75,24.640625 C4.63303125,24.640625 4.51695312,24.6438906 4.40146875,24.650125 C4.43234375,24.453 4.453125,24.2526094 4.453125,24.046875 C4.453125,21.9153125 2.7253125,20.1875 0.59375,20.1875 C0.39128125,20.1875 0.296875,20.2076875 0,20.2379688 L0,35.6520156" id="Fill-6" fill="#C6E9FA" mask="url(#mask-4)"></path>
                                    <path d="M28.0671563,21.7487656 C27.0001875,19.6831094 25.1554063,18.0847344 22.9196406,17.3428437 L30.5380469,8.55148437 L37.7132188,15.6934062 C37.8975781,16.7434531 37.9955469,17.8240781 38,18.9260781 C37.4059531,17.7264062 36.2656562,16.8889219 34.8676719,16.8889219 C32.9739062,16.8889219 31.4384687,18.4240625 31.4384687,20.318125 C31.4384687,20.5007031 31.456875,20.6788281 31.4844844,20.8539844 C31.3817656,20.8486406 31.27875,20.8456719 31.1748438,20.8456719 C30.0312812,20.8456719 28.9657969,21.1775781 28.0671563,21.7487656" id="Fill-7" fill="#2DB8E2" mask="url(#mask-4)"></path>
                                    <path d="M26.9797031,27.7058594 C26.0840312,24.3018906 23.4555,21.600625 20.0942813,20.603125 L22.9196406,17.3428438 C25.1554063,18.0847344 27.0001875,19.6831094 28.0671563,21.7487656 C28.9657969,21.1775781 30.0312812,20.8456719 31.1748438,20.8456719 C31.27875,20.8456719 31.3817656,20.8486406 31.4844844,20.8539844 C31.456875,20.6788281 31.4384687,20.5007031 31.4384687,20.318125 C31.4384687,18.4240625 32.9739062,16.8889219 34.8676719,16.8889219 C36.2656562,16.8889219 37.4059531,17.7264063 38,18.9260781 C38,18.9510156 38,18.9750625 38,19 C38,19.3042969 37.992875,19.6062188 37.978625,19.9069531 C35.3171406,20.0717188 33.25,22.2573125 33.25,24.9375 C33.25,25.4914688 33.342625,26.0231719 33.5073906,26.5219219 C33.0344688,26.4577969 32.5529375,26.421875 32.0625,26.421875 C30.2224688,26.421875 28.4913906,26.8870781 26.9797031,27.7058594" id="Fill-8" fill="#71C6E8" mask="url(#mask-4)"></path>
                                    <path d="M20.6319219,37.9308281 L12.3045781,29.5925 L20.0942813,20.603125 C23.4555,21.600625 26.0840313,24.3018906 26.9797031,27.7058594 C28.4913906,26.8870781 30.2224688,26.421875 32.0625,26.421875 C32.5529375,26.421875 33.0344688,26.4577969 33.5073906,26.5219219 C33.342625,26.0231719 33.25,25.4914688 33.25,24.9375 C33.25,22.2573125 35.3171406,20.0717188 37.978625,19.9069531 C37.5306406,29.43575 30.0639375,37.1289687 20.6319219,37.9308281" id="Fill-9" fill="#99D3EA" mask="url(#mask-4)"></path>
                                </g>
                                <polyline id="Fill-11" fill="#F2F2F2" points="30.5080625 8.55148437 6.11859375 17.6596094 11.267 21.5308594 12.3045781 29.5925 16.1701875 25.1242344 21.5682656 29.3131406 30.5080625 8.55148437"></polyline>
                                <polyline id="Fill-12" fill="#2B3E74" points="19.59375 15.9136875 11.267 21.5308594 12.3045781 29.5925 19.59375 21.0751562 19.59375 15.9136875"></polyline>
                                <polyline id="Fill-13" fill="#376AB2" points="14.4198125 23.7657344 21.5682656 29.3131406 21.5682656 17.0055937 14.4198125 23.7657344"></polyline>
                                <polyline id="Fill-14" fill="#376AB2" points="6.11859375 17.6596094 11.267 21.5308594 19.59375 15.9136875 6.11859375 17.6596094"></polyline>
                                <polyline id="Fill-15" fill="#32352A" points="14.4198125 23.7657344 12.3045781 29.5925 16.1701875 25.1242344 14.4198125 23.7657344"></polyline>
                                <polyline id="Fill-16" fill="#C9D4D4" points="30.5080625 8.55148437 19.59375 18.8726406 19.59375 15.9136875 30.5080625 8.55148437"></polyline>
                            </g>
                        </g>
                    </g>
                </g>
            </g>
        </g>
    </g>
</svg>