<?xml version="1.0" encoding="UTF-8"?>
<svg width="23px" height="22px" viewBox="0 0 23 22" version="1.1" xmlns="http://www.w3.org/2000/svg" xmlns:xlink="http://www.w3.org/1999/xlink">
    <!-- Generator: Sketch 63.1 (92452) - https://sketch.com -->
    <title>SHELF LIFE</title>
    <desc>Created with Sketch.</desc>
    <g id="Page-1" stroke="none" stroke-width="1" fill="none" fill-rule="evenodd">
        <g id="23.5.1--MAIN-UI---INVENTORY-MANAGEMENT-(INVENTORY-ITEM)" transform="translate(-595.000000, -2054.000000)">
            <g id="INVENTORY-MANAGEMENT" transform="translate(293.000000, 233.000000)">
                <g id="INVENTORY-ITEMS" transform="translate(0.000000, 1174.000000)">
                    <g id="CREATE-NEW-ITEM" transform="translate(21.000000, 405.000000)">
                        <g id="SHELF-LIFE" transform="translate(271.000000, 196.000000)">
                            <g id="DATE-TAG" transform="translate(0.000000, 36.000000)">
                                <g id="SHELF-LIFE" transform="translate(10.000000, 10.000000)">
                                    <g>
                                        <g id="Strawberry" transform="translate(2.139535, 0.000000)">
                                            <path d="M12.3023256,0.55 C12.3023256,0.55 9.09302326,1.54825 9.09302326,4.4 L11.2325581,4.4 C11.2325581,2.68895 12.3023256,0.55 12.3023256,0.55 L12.3023256,0.55 Z" id="Shape" fill="#388E3C"></path>
                                            <path d="M13.9069767,2.2 C13.9069767,2.2 10.7944884,1.925 10.1627907,4.4 L12.3023256,4.4 C13.0784419,2.6807 13.9069767,2.2 13.9069767,2.2 L13.9069767,2.2 Z" id="Shape" fill="#4CAF50"></path>
                                            <path d="M5.88372093,0.55 C5.88372093,0.55 9.09302326,1.54825 9.09302326,4.4 L6.95348837,4.4 C6.95348837,2.68895 5.88372093,0.55 5.88372093,0.55 L5.88372093,0.55 Z" id="Shape" fill="#388E3C"></path>
                                            <path d="M4.27906977,2.2 C4.27906977,2.2 7.39155814,1.925 8.02325581,4.4 L5.88372093,4.4 C5.10760465,2.6807 4.27906977,2.2 4.27906977,2.2 L4.27906977,2.2 Z" id="Shape" fill="#4CAF50"></path>
                                            <path d="M12.9217209,4.4 L5.26432558,4.4 C2.01972093,4.4 0,6.57965 0,9.74655 C0,13.85615 5.28518605,22 9.09302326,22 C12.9008605,22 18.1860465,13.85615 18.1860465,9.74655 C18.1860465,6.57965 16.1663256,4.4 12.9217209,4.4 L12.9217209,4.4 Z" id="Shape" fill="#F44336"></path>
                                            <path d="M9.09302326,0 C9.09302326,0 8.02325581,1.0692 8.02325581,4.4 L10.1627907,4.4 C10.1627907,1.0692 9.09302326,0 9.09302326,0 L9.09302326,0 Z" id="Shape" fill="#4CAF50"></path>
                                            <path d="M9.62790698,7.15 C9.62790698,7.4536 9.09302326,8.25 9.09302326,8.25 C9.09302326,8.25 8.55813953,7.4536 8.55813953,7.15 C8.55813953,6.8464 8.79776744,6.6 9.09302326,6.6 C9.38827907,6.6 9.62790698,6.8464 9.62790698,7.15 L9.62790698,7.15 Z" id="Shape" fill="#F48A88"></path>
                                            <path d="M9.62790698,11 C9.62790698,11.3036 9.09302326,12.1 9.09302326,12.1 C9.09302326,12.1 8.55813953,11.3036 8.55813953,11 C8.55813953,10.6964 8.79776744,10.45 9.09302326,10.45 C9.38827907,10.45 9.62790698,10.6964 9.62790698,11 L9.62790698,11 Z" id="Shape" fill="#F48A88"></path>
                                            <path d="M9.62790698,14.85 C9.62790698,15.1536 9.09302326,15.95 9.09302326,15.95 C9.09302326,15.95 8.55813953,15.1536 8.55813953,14.85 C8.55813953,14.5464 8.79776744,14.3 9.09302326,14.3 C9.38827907,14.3 9.62790698,14.5464 9.62790698,14.85 L9.62790698,14.85 Z" id="Shape" fill="#F48A88"></path>
                                            <path d="M9.62790698,18.7 C9.62790698,19.0036 9.09302326,19.8 9.09302326,19.8 C9.09302326,19.8 8.55813953,19.0036 8.55813953,18.7 C8.55813953,18.3964 8.79776744,18.15 9.09302326,18.15 C9.38827907,18.15 9.62790698,18.3964 9.62790698,18.7 L9.62790698,18.7 Z" id="Shape" fill="#F48A88"></path>
                                            <path d="M11.7674419,8.8 C11.7674419,9.1036 11.2325581,9.9 11.2325581,9.9 C11.2325581,9.9 10.6976744,9.1036 10.6976744,8.8 C10.6976744,8.4964 10.9373023,8.25 11.2325581,8.25 C11.527814,8.25 11.7674419,8.4964 11.7674419,8.8 L11.7674419,8.8 Z" id="Shape" fill="#F48A88"></path>
                                            <path d="M11.7674419,12.65 C11.7674419,12.9536 11.2325581,13.75 11.2325581,13.75 C11.2325581,13.75 10.6976744,12.9536 10.6976744,12.65 C10.6976744,12.3464 10.9373023,12.1 11.2325581,12.1 C11.527814,12.1 11.7674419,12.3464 11.7674419,12.65 L11.7674419,12.65 Z" id="Shape" fill="#F48A88"></path>
                                            <path d="M11.7674419,16.5 C11.7674419,16.8036 11.2325581,17.6 11.2325581,17.6 C11.2325581,17.6 10.6976744,16.8036 10.6976744,16.5 C10.6976744,16.1964 10.9373023,15.95 11.2325581,15.95 C11.527814,15.95 11.7674419,16.1964 11.7674419,16.5 L11.7674419,16.5 Z" id="Shape" fill="#F48A88"></path>
                                            <path d="M13.9069767,7.15 C13.9069767,7.4536 13.372093,8.25 13.372093,8.25 C13.372093,8.25 12.8372093,7.4536 12.8372093,7.15 C12.8372093,6.8464 13.0768372,6.6 13.372093,6.6 C13.6673488,6.6 13.9069767,6.8464 13.9069767,7.15 L13.9069767,7.15 Z" id="Shape" fill="#F48A88"></path>
                                            <path d="M13.9069767,11 C13.9069767,11.3036 13.372093,12.1 13.372093,12.1 C13.372093,12.1 12.8372093,11.3036 12.8372093,11 C12.8372093,10.6964 13.0768372,10.45 13.372093,10.45 C13.6673488,10.45 13.9069767,10.6964 13.9069767,11 L13.9069767,11 Z" id="Shape" fill="#F48A88"></path>
                                            <path d="M13.9069767,14.85 C13.9069767,15.1536 13.372093,15.95 13.372093,15.95 C13.372093,15.95 12.8372093,15.1536 12.8372093,14.85 C12.8372093,14.5464 13.0768372,14.3 13.372093,14.3 C13.6673488,14.3 13.9069767,14.5464 13.9069767,14.85 L13.9069767,14.85 Z" id="Shape" fill="#F48A88"></path>
                                            <path d="M16.0465116,8.8 C16.0465116,9.1036 15.5116279,9.9 15.5116279,9.9 C15.5116279,9.9 14.9767442,9.1036 14.9767442,8.8 C14.9767442,8.4964 15.2163721,8.25 15.5116279,8.25 C15.8068837,8.25 16.0465116,8.4964 16.0465116,8.8 L16.0465116,8.8 Z" id="Shape" fill="#F48A88"></path>
                                            <path d="M16.0465116,12.65 C16.0465116,12.9536 15.5116279,13.75 15.5116279,13.75 C15.5116279,13.75 14.9767442,12.9536 14.9767442,12.65 C14.9767442,12.3464 15.2163721,12.1 15.5116279,12.1 C15.8068837,12.1 16.0465116,12.3464 16.0465116,12.65 L16.0465116,12.65 Z" id="Shape" fill="#F48A88"></path>
                                            <path d="M6.41860465,8.8 C6.41860465,9.1036 6.95348837,9.9 6.95348837,9.9 C6.95348837,9.9 7.48837209,9.1036 7.48837209,8.8 C7.48837209,8.4964 7.24874419,8.25 6.95348837,8.25 C6.65823256,8.25 6.41860465,8.4964 6.41860465,8.8 L6.41860465,8.8 Z" id="Shape" fill="#F48A88"></path>
                                            <path d="M6.41860465,12.65 C6.41860465,12.9536 6.95348837,13.75 6.95348837,13.75 C6.95348837,13.75 7.48837209,12.9536 7.48837209,12.65 C7.48837209,12.3464 7.24874419,12.1 6.95348837,12.1 C6.65823256,12.1 6.41860465,12.3464 6.41860465,12.65 L6.41860465,12.65 Z" id="Shape" fill="#F48A88"></path>
                                            <path d="M6.41860465,16.5 C6.41860465,16.8036 6.95348837,17.6 6.95348837,17.6 C6.95348837,17.6 7.48837209,16.8036 7.48837209,16.5 C7.48837209,16.1964 7.24874419,15.95 6.95348837,15.95 C6.65823256,15.95 6.41860465,16.1964 6.41860465,16.5 L6.41860465,16.5 Z" id="Shape" fill="#F48A88"></path>
                                            <path d="M4.27906977,7.15 C4.27906977,7.4536 4.81395349,8.25 4.81395349,8.25 C4.81395349,8.25 5.34883721,7.4536 5.34883721,7.15 C5.34883721,6.8464 5.1092093,6.6 4.81395349,6.6 C4.51869767,6.6 4.27906977,6.8464 4.27906977,7.15 L4.27906977,7.15 Z" id="Shape" fill="#F48A88"></path>
                                            <path d="M4.27906977,11 C4.27906977,11.3036 4.81395349,12.1 4.81395349,12.1 C4.81395349,12.1 5.34883721,11.3036 5.34883721,11 C5.34883721,10.6964 5.1092093,10.45 4.81395349,10.45 C4.51869767,10.45 4.27906977,10.6964 4.27906977,11 L4.27906977,11 Z" id="Shape" fill="#F48A88"></path>
                                            <path d="M4.27906977,14.85 C4.27906977,15.1536 4.81395349,15.95 4.81395349,15.95 C4.81395349,15.95 5.34883721,15.1536 5.34883721,14.85 C5.34883721,14.5464 5.1092093,14.3 4.81395349,14.3 C4.51869767,14.3 4.27906977,14.5464 4.27906977,14.85 L4.27906977,14.85 Z" id="Shape" fill="#F48A88"></path>
                                            <path d="M2.13953488,8.8 C2.13953488,9.1036 2.6744186,9.9 2.6744186,9.9 C2.6744186,9.9 3.20930233,9.1036 3.20930233,8.8 C3.20930233,8.4964 2.96967442,8.25 2.6744186,8.25 C2.37916279,8.25 2.13953488,8.4964 2.13953488,8.8 L2.13953488,8.8 Z" id="Shape" fill="#F48A88"></path>
                                            <path d="M2.13953488,12.65 C2.13953488,12.9536 2.6744186,13.75 2.6744186,13.75 C2.6744186,13.75 3.20930233,12.9536 3.20930233,12.65 C3.20930233,12.3464 2.96967442,12.1 2.6744186,12.1 C2.37916279,12.1 2.13953488,12.3464 2.13953488,12.65 L2.13953488,12.65 Z" id="Shape" fill="#F48A88"></path>
                                        </g>
                                        <g id="Virus" transform="translate(12.837209, 14.300000)">
                                            <g>
                                                <ellipse id="Oval" fill="#388E3C" cx="2.80813949" cy="1.34749998" rx="1" ry="1"></ellipse>
                                                <ellipse id="Oval" fill="#388E3C" cx="0.748837197" cy="3.46499994" rx="1" ry="1"></ellipse>
                                                <path d="M2.02429415,1.43604998 C1.63414997,1.03487998 1.83914415,0.720334988 1.52276044,0.395009993 C1.26010579,0.124932498 0.834204637,0.124932498 0.57154999,0.395009993 C0.308895344,0.665087489 0.308895344,1.10302498 0.57154999,1.37310248 C0.876701148,1.68687747 1.17136858,1.46453998 1.58397788,1.88880997 C1.70566392,2.01393497 1.90279532,2.01393497 2.02448136,1.88880997 C2.14579299,1.76387747 2.14579299,1.56117497 2.02429415,1.43604998 L2.02429415,1.43604998 Z" id="Shape" fill="#388E3C"></path>
                                                <path d="M5.88192897,5.6677774 C6.21759524,6.0129299 6.04124408,6.28339239 6.31325919,6.56328739 C6.53922082,6.79563488 6.90558942,6.79563488 7.13155104,6.56328739 C7.35751267,6.33093989 7.35751267,5.9542174 7.13155104,5.7218699 C6.8690836,5.45198491 6.61560221,5.6431374 6.26065338,5.27834991 C6.15600338,5.17074241 5.98639176,5.17074241 5.88174176,5.27834991 C5.77727897,5.38576491 5.77727897,5.56016991 5.88192897,5.6677774 L5.88192897,5.6677774 Z" id="Shape" fill="#388E3C"></path>
                                                <path d="M3.48415227,6.20350489 C3.48415227,6.67724739 3.18255809,6.73846239 3.18255809,7.12249988 C3.18255809,7.44147237 3.43398017,7.69999987 3.74418598,7.69999987 C4.05439179,7.69999987 4.30581388,7.44147237 4.30581388,7.12249988 C4.30581388,6.75212989 4.0042197,6.70438989 4.0042197,6.20350489 C4.0042197,6.0558574 3.88777552,5.9361224 3.74418598,5.9361224 C3.60059645,5.9361224 3.48415227,6.0558574 3.48415227,6.20350489 L3.48415227,6.20350489 Z" id="Shape" fill="#388E3C"></path>
                                                <path d="M3.67136157,0.267382495 C3.67136157,0.741124987 3.36976738,0.802339986 3.36976738,1.18637748 C3.36976738,1.50534997 3.62118947,1.76387747 3.93139528,1.76387747 C4.24160109,1.76387747 4.49302318,1.50534997 4.49302318,1.18637748 C4.49302318,0.816007486 4.191429,0.768267487 4.191429,0.267382495 C4.191429,0.119734998 4.07498481,0 3.93139528,0 C3.78780575,0 3.67136157,0.119734998 3.67136157,0.267382495 L3.67136157,0.267382495 Z" id="Shape" fill="#43A047"></path>
                                                <path d="M6.18670571,2.58970246 C6.5549464,2.34330246 6.75937895,2.55928746 7.05779058,2.35966496 C7.30565569,2.19392246 7.37585918,1.85281247 7.21467197,1.59794247 C7.05348476,1.34307248 6.72174989,1.27088498 6.47388477,1.43662748 C6.18595687,1.62931997 6.30577082,1.90189997 5.91637548,2.16235246 C5.80161618,2.23915996 5.76904176,2.39700996 5.84373827,2.51501246 C5.91824757,2.63301496 6.07194641,2.66631745 6.18670571,2.58970246 L6.18670571,2.58970246 Z" id="Shape" fill="#388E3C"></path>
                                                <path d="M5.02451038,1.40736748 C5.12448015,1.10879998 5.32760223,1.13748248 5.40866386,0.895509985 C5.47605921,0.694539988 5.37215805,0.475474992 5.17652433,0.406174993 C4.98107782,0.336874994 4.76803364,0.443712492 4.70063829,0.644874989 C4.62238481,0.878377485 4.80248015,0.975782483 4.6967069,1.29148248 C4.66544294,1.38465248 4.71355573,1.48590747 4.80416503,1.51805497 C4.89458713,1.55000997 4.99324643,1.50053747 5.02451038,1.40736748 L5.02451038,1.40736748 Z" id="Shape" fill="#388E3C"></path>
                                                <path d="M5.73590572,1.01716998 C5.47474874,1.28570748 5.43112898,1.14479748 5.30607317,1.31092498 C5.202172,1.44894748 5.22669642,1.64741497 5.36092549,1.75405997 C5.49515456,1.86089747 5.68816734,1.83567997 5.7918813,1.69765747 C5.91244409,1.53730497 5.79749758,1.41294998 5.96074408,1.19619498 C6.00885687,1.13228498 5.99743711,1.04046248 5.93528362,0.990989983 C5.87331734,0.941709984 5.79150688,0.960189984 5.73590572,1.01716998 L5.73590572,1.01716998 Z" id="Shape" fill="#388E3C"></path>
                                                <path d="M0.815483707,2.17736746 C1.08974533,2.38391996 0.971241844,2.44436496 1.13579882,2.53791996 C1.27246161,2.61568996 1.44450695,2.56467746 1.52013951,2.42434496 C1.59577207,2.28381996 1.5461616,2.10691246 1.40968602,2.02914247 C1.25093254,1.93885997 1.15714068,2.06379246 0.942411612,1.94174747 C0.879134869,1.90574997 0.799570917,1.92923497 0.764562778,1.99429997 C0.72918022,2.05955746 0.757074406,2.13347746 0.815483707,2.17736746 L0.815483707,2.17736746 Z" id="Shape" fill="#388E3C"></path>
                                                <path d="M2.10760229,6.86570488 C2.30473368,6.59697489 2.35977322,6.71516989 2.44963368,6.55366239 C2.52433019,6.41948989 2.47902554,6.24835739 2.34854066,6.17154989 C2.21805578,6.0947424 2.05162671,6.1413274 1.9769302,6.27549989 C1.89025229,6.43142489 2.00594764,6.52613489 1.88856741,6.73692239 C1.85393369,6.79909988 1.87490113,6.87821738 1.93536973,6.91382988 C1.99602555,6.94944238 2.06566741,6.92287738 2.10760229,6.86570488 L2.10760229,6.86570488 Z" id="Shape" fill="#43A047"></path>
                                                <path d="M5.59512432,6.98486238 C5.38694758,6.44874989 5.52492084,6.38888239 5.37421735,6.1095649 C5.24916154,5.8776024 5.04454177,5.8758699 4.81895457,6.0044599 C4.59336736,6.1330499 4.43236737,6.34345239 4.55742318,6.57541489 C4.70269759,6.84472238 5.02039177,6.83625238 5.21696154,7.20046238 C5.27480921,7.30787738 5.40641735,7.34656987 5.51088014,7.28708738 C5.61534293,7.22741238 5.63949293,7.09882238 5.59512432,6.98486238 L5.59512432,6.98486238 Z" id="Shape" fill="#388E3C"></path>
                                                <path d="M2.91653367,7.02220738 C3.04121506,6.69976989 3.12733134,6.80179488 3.17375925,6.61583989 C3.21232436,6.46145489 3.12190227,6.30418239 2.97176041,6.26452739 C2.82161856,6.22487239 2.66866856,6.31784989 2.63010344,6.47223489 C2.58536042,6.65145239 2.72558019,6.71324489 2.66492437,6.95560238 C2.64713949,7.02701988 2.68888716,7.09997738 2.75852902,7.11826488 C2.82779646,7.13674488 2.88994995,7.09092988 2.91653367,7.02220738 L2.91653367,7.02220738 Z" id="Shape" fill="#43A047"></path>
                                                <path d="M0.923503473,5.18748991 C1.21760928,5.07949741 1.20132207,5.20346741 1.35539533,5.12319491 C1.48325928,5.05639741 1.53455463,4.89565992 1.469593,4.76418242 C1.40463137,4.63270492 1.24831161,4.57995992 1.12044766,4.64675742 C0.971803472,4.72433492 1.01579766,4.86216492 0.814922079,4.96707742 C0.755763941,4.99806991 0.73198836,5.07237491 0.762129057,5.13339741 C0.791895335,5.19422741 0.860975567,5.21058991 0.923503473,5.18748991 L0.923503473,5.18748991 Z" id="Shape" fill="#43A047"></path>
                                                <path d="M1.43477207,5.51281491 C1.15302207,5.8025274 0.93230231,5.6502599 0.703906965,5.8851099 C0.514263945,6.0801124 0.514263945,6.39638989 0.703906965,6.59139239 C0.893549985,6.78639488 1.20113486,6.78639488 1.39077788,6.59139239 C1.61112323,6.36481989 1.45499067,6.1461399 1.75284067,5.8398724 C1.84064183,5.7495899 1.84064183,5.6032899 1.75284067,5.51281491 C1.6648523,5.42253241 1.52257323,5.42253241 1.43477207,5.51281491 L1.43477207,5.51281491 Z" id="Shape" fill="#388E3C"></path>
                                                <ellipse id="Oval" fill="#4CAF50" cx="3.74418598" cy="3.84999993" rx="2.99534879" ry="3.07999995"></ellipse>
                                                <ellipse id="Oval" fill="#81C784" cx="6.36511617" cy="3.84999993" rx="1" ry="1"></ellipse>
                                                <ellipse id="Oval" fill="#81C784" cx="4.68023248" cy="3.07999995" rx="1" ry="1"></ellipse>
                                                <ellipse id="Oval" fill="#81C784" cx="2.02186043" cy="4.23499993" rx="1" ry="1"></ellipse>
                                                <path d="M5.99069757,3.84999993 C5.99069757,3.63728744 6.1582499,3.46499994 6.36511617,3.46499994" id="Shape" stroke="#C8E6C9" stroke-width="0.5"></path>
                                                <ellipse id="Oval" fill="#81C784" cx="3.93139528" cy="5.00499991" rx="1" ry="1"></ellipse>
                                                <path d="M3.55697668,5.00499991 C3.55697668,4.79228742 3.72452901,4.61999992 3.93139528,4.61999992" id="Shape" stroke="#C8E6C9" stroke-width="0.5"></path>
                                                <ellipse id="Oval" fill="#81C784" cx="2.80813949" cy="2.30999996" rx="1" ry="1"></ellipse>
                                                <path d="M2.50860461,2.30999996 C2.50860461,2.13982996 2.64264647,2.00199997 2.80813949,2.00199997" id="Shape" stroke="#C8E6C9" stroke-width="0.5"></path>
                                            </g>
                                        </g>
                                        <g id="Virus" transform="translate(0.000000, 6.600000)">
                                            <g>
                                                <ellipse id="Oval" fill="#388E3C" cx="2.80813949" cy="1.34749998" rx="1" ry="1"></ellipse>
                                                <ellipse id="Oval" fill="#388E3C" cx="0.748837197" cy="3.46499994" rx="1" ry="1"></ellipse>
                                                <path d="M2.02429415,1.43604998 C1.63414997,1.03487998 1.83914415,0.720334988 1.52276044,0.395009993 C1.26010579,0.124932498 0.834204637,0.124932498 0.57154999,0.395009993 C0.308895344,0.665087489 0.308895344,1.10302498 0.57154999,1.37310248 C0.876701148,1.68687747 1.17136858,1.46453998 1.58397788,1.88880997 C1.70566392,2.01393497 1.90279532,2.01393497 2.02448136,1.88880997 C2.14579299,1.76387747 2.14579299,1.56117497 2.02429415,1.43604998 L2.02429415,1.43604998 Z" id="Shape" fill="#388E3C"></path>
                                                <path d="M5.88192897,5.6677774 C6.21759524,6.0129299 6.04124408,6.28339239 6.31325919,6.56328739 C6.53922082,6.79563488 6.90558942,6.79563488 7.13155104,6.56328739 C7.35751267,6.33093989 7.35751267,5.9542174 7.13155104,5.7218699 C6.8690836,5.45198491 6.61560221,5.6431374 6.26065338,5.27834991 C6.15600338,5.17074241 5.98639176,5.17074241 5.88174176,5.27834991 C5.77727897,5.38576491 5.77727897,5.56016991 5.88192897,5.6677774 L5.88192897,5.6677774 Z" id="Shape" fill="#388E3C"></path>
                                                <path d="M3.48415227,6.20350489 C3.48415227,6.67724739 3.18255809,6.73846239 3.18255809,7.12249988 C3.18255809,7.44147237 3.43398017,7.69999987 3.74418598,7.69999987 C4.05439179,7.69999987 4.30581388,7.44147237 4.30581388,7.12249988 C4.30581388,6.75212989 4.0042197,6.70438989 4.0042197,6.20350489 C4.0042197,6.0558574 3.88777552,5.9361224 3.74418598,5.9361224 C3.60059645,5.9361224 3.48415227,6.0558574 3.48415227,6.20350489 L3.48415227,6.20350489 Z" id="Shape" fill="#388E3C"></path>
                                                <path d="M3.67136157,0.267382495 C3.67136157,0.741124987 3.36976738,0.802339986 3.36976738,1.18637748 C3.36976738,1.50534997 3.62118947,1.76387747 3.93139528,1.76387747 C4.24160109,1.76387747 4.49302318,1.50534997 4.49302318,1.18637748 C4.49302318,0.816007486 4.191429,0.768267487 4.191429,0.267382495 C4.191429,0.119734998 4.07498481,0 3.93139528,0 C3.78780575,0 3.67136157,0.119734998 3.67136157,0.267382495 L3.67136157,0.267382495 Z" id="Shape" fill="#43A047"></path>
                                                <path d="M6.18670571,2.58970246 C6.5549464,2.34330246 6.75937895,2.55928746 7.05779058,2.35966496 C7.30565569,2.19392246 7.37585918,1.85281247 7.21467197,1.59794247 C7.05348476,1.34307248 6.72174989,1.27088498 6.47388477,1.43662748 C6.18595687,1.62931997 6.30577082,1.90189997 5.91637548,2.16235246 C5.80161618,2.23915996 5.76904176,2.39700996 5.84373827,2.51501246 C5.91824757,2.63301496 6.07194641,2.66631745 6.18670571,2.58970246 L6.18670571,2.58970246 Z" id="Shape" fill="#388E3C"></path>
                                                <path d="M5.02451038,1.40736748 C5.12448015,1.10879998 5.32760223,1.13748248 5.40866386,0.895509985 C5.47605921,0.694539988 5.37215805,0.475474992 5.17652433,0.406174993 C4.98107782,0.336874994 4.76803364,0.443712492 4.70063829,0.644874989 C4.62238481,0.878377485 4.80248015,0.975782483 4.6967069,1.29148248 C4.66544294,1.38465248 4.71355573,1.48590747 4.80416503,1.51805497 C4.89458713,1.55000997 4.99324643,1.50053747 5.02451038,1.40736748 L5.02451038,1.40736748 Z" id="Shape" fill="#388E3C"></path>
                                                <path d="M5.73590572,1.01716998 C5.47474874,1.28570748 5.43112898,1.14479748 5.30607317,1.31092498 C5.202172,1.44894748 5.22669642,1.64741497 5.36092549,1.75405997 C5.49515456,1.86089747 5.68816734,1.83567997 5.7918813,1.69765747 C5.91244409,1.53730497 5.79749758,1.41294998 5.96074408,1.19619498 C6.00885687,1.13228498 5.99743711,1.04046248 5.93528362,0.990989983 C5.87331734,0.941709984 5.79150688,0.960189984 5.73590572,1.01716998 L5.73590572,1.01716998 Z" id="Shape" fill="#388E3C"></path>
                                                <path d="M0.815483707,2.17736746 C1.08974533,2.38391996 0.971241844,2.44436496 1.13579882,2.53791996 C1.27246161,2.61568996 1.44450695,2.56467746 1.52013951,2.42434496 C1.59577207,2.28381996 1.5461616,2.10691246 1.40968602,2.02914247 C1.25093254,1.93885997 1.15714068,2.06379246 0.942411612,1.94174747 C0.879134869,1.90574997 0.799570917,1.92923497 0.764562778,1.99429997 C0.72918022,2.05955746 0.757074406,2.13347746 0.815483707,2.17736746 L0.815483707,2.17736746 Z" id="Shape" fill="#388E3C"></path>
                                                <path d="M2.10760229,6.86570488 C2.30473368,6.59697489 2.35977322,6.71516989 2.44963368,6.55366239 C2.52433019,6.41948989 2.47902554,6.24835739 2.34854066,6.17154989 C2.21805578,6.0947424 2.05162671,6.1413274 1.9769302,6.27549989 C1.89025229,6.43142489 2.00594764,6.52613489 1.88856741,6.73692239 C1.85393369,6.79909988 1.87490113,6.87821738 1.93536973,6.91382988 C1.99602555,6.94944238 2.06566741,6.92287738 2.10760229,6.86570488 L2.10760229,6.86570488 Z" id="Shape" fill="#43A047"></path>
                                                <path d="M5.59512432,6.98486238 C5.38694758,6.44874989 5.52492084,6.38888239 5.37421735,6.1095649 C5.24916154,5.8776024 5.04454177,5.8758699 4.81895457,6.0044599 C4.59336736,6.1330499 4.43236737,6.34345239 4.55742318,6.57541489 C4.70269759,6.84472238 5.02039177,6.83625238 5.21696154,7.20046238 C5.27480921,7.30787738 5.40641735,7.34656987 5.51088014,7.28708738 C5.61534293,7.22741238 5.63949293,7.09882238 5.59512432,6.98486238 L5.59512432,6.98486238 Z" id="Shape" fill="#388E3C"></path>
                                                <path d="M2.91653367,7.02220738 C3.04121506,6.69976989 3.12733134,6.80179488 3.17375925,6.61583989 C3.21232436,6.46145489 3.12190227,6.30418239 2.97176041,6.26452739 C2.82161856,6.22487239 2.66866856,6.31784989 2.63010344,6.47223489 C2.58536042,6.65145239 2.72558019,6.71324489 2.66492437,6.95560238 C2.64713949,7.02701988 2.68888716,7.09997738 2.75852902,7.11826488 C2.82779646,7.13674488 2.88994995,7.09092988 2.91653367,7.02220738 L2.91653367,7.02220738 Z" id="Shape" fill="#43A047"></path>
                                                <path d="M0.923503473,5.18748991 C1.21760928,5.07949741 1.20132207,5.20346741 1.35539533,5.12319491 C1.48325928,5.05639741 1.53455463,4.89565992 1.469593,4.76418242 C1.40463137,4.63270492 1.24831161,4.57995992 1.12044766,4.64675742 C0.971803472,4.72433492 1.01579766,4.86216492 0.814922079,4.96707742 C0.755763941,4.99806991 0.73198836,5.07237491 0.762129057,5.13339741 C0.791895335,5.19422741 0.860975567,5.21058991 0.923503473,5.18748991 L0.923503473,5.18748991 Z" id="Shape" fill="#43A047"></path>
                                                <path d="M1.43477207,5.51281491 C1.15302207,5.8025274 0.93230231,5.6502599 0.703906965,5.8851099 C0.514263945,6.0801124 0.514263945,6.39638989 0.703906965,6.59139239 C0.893549985,6.78639488 1.20113486,6.78639488 1.39077788,6.59139239 C1.61112323,6.36481989 1.45499067,6.1461399 1.75284067,5.8398724 C1.84064183,5.7495899 1.84064183,5.6032899 1.75284067,5.51281491 C1.6648523,5.42253241 1.52257323,5.42253241 1.43477207,5.51281491 L1.43477207,5.51281491 Z" id="Shape" fill="#388E3C"></path>
                                                <ellipse id="Oval" fill="#4CAF50" cx="3.74418598" cy="3.84999993" rx="2.99534879" ry="3.07999995"></ellipse>
                                                <ellipse id="Oval" fill="#81C784" cx="6.36511617" cy="3.84999993" rx="1" ry="1"></ellipse>
                                                <ellipse id="Oval" fill="#81C784" cx="4.68023248" cy="3.07999995" rx="1" ry="1"></ellipse>
                                                <ellipse id="Oval" fill="#81C784" cx="2.02186043" cy="4.23499993" rx="1" ry="1"></ellipse>
                                                <path d="M5.99069757,3.84999993 C5.99069757,3.63728744 6.1582499,3.46499994 6.36511617,3.46499994" id="Shape" stroke="#C8E6C9" stroke-width="0.5"></path>
                                                <ellipse id="Oval" fill="#81C784" cx="3.93139528" cy="5.00499991" rx="1" ry="1"></ellipse>
                                                <path d="M3.55697668,5.00499991 C3.55697668,4.79228742 3.72452901,4.61999992 3.93139528,4.61999992" id="Shape" stroke="#C8E6C9" stroke-width="0.5"></path>
                                                <ellipse id="Oval" fill="#81C784" cx="2.80813949" cy="2.30999996" rx="1" ry="1"></ellipse>
                                                <path d="M2.50860461,2.30999996 C2.50860461,2.13982996 2.64264647,2.00199997 2.80813949,2.00199997" id="Shape" stroke="#C8E6C9" stroke-width="0.5"></path>
                                            </g>
                                        </g>
                                        <g id="Virus" transform="translate(15.511628, 3.300000)">
                                            <g>
                                                <ellipse id="Oval" fill="#388E3C" cx="2.80813949" cy="1.34749998" rx="1" ry="1"></ellipse>
                                                <ellipse id="Oval" fill="#388E3C" cx="0.748837197" cy="3.46499994" rx="1" ry="1"></ellipse>
                                                <path d="M2.02429415,1.43604998 C1.63414997,1.03487998 1.83914415,0.720334988 1.52276044,0.395009993 C1.26010579,0.124932498 0.834204637,0.124932498 0.57154999,0.395009993 C0.308895344,0.665087489 0.308895344,1.10302498 0.57154999,1.37310248 C0.876701148,1.68687747 1.17136858,1.46453998 1.58397788,1.88880997 C1.70566392,2.01393497 1.90279532,2.01393497 2.02448136,1.88880997 C2.14579299,1.76387747 2.14579299,1.56117497 2.02429415,1.43604998 L2.02429415,1.43604998 Z" id="Shape" fill="#388E3C"></path>
                                                <path d="M5.88192897,5.6677774 C6.21759524,6.0129299 6.04124408,6.28339239 6.31325919,6.56328739 C6.53922082,6.79563488 6.90558942,6.79563488 7.13155104,6.56328739 C7.35751267,6.33093989 7.35751267,5.9542174 7.13155104,5.7218699 C6.8690836,5.45198491 6.61560221,5.6431374 6.26065338,5.27834991 C6.15600338,5.17074241 5.98639176,5.17074241 5.88174176,5.27834991 C5.77727897,5.38576491 5.77727897,5.56016991 5.88192897,5.6677774 L5.88192897,5.6677774 Z" id="Shape" fill="#388E3C"></path>
                                                <path d="M3.48415227,6.20350489 C3.48415227,6.67724739 3.18255809,6.73846239 3.18255809,7.12249988 C3.18255809,7.44147237 3.43398017,7.69999987 3.74418598,7.69999987 C4.05439179,7.69999987 4.30581388,7.44147237 4.30581388,7.12249988 C4.30581388,6.75212989 4.0042197,6.70438989 4.0042197,6.20350489 C4.0042197,6.0558574 3.88777552,5.9361224 3.74418598,5.9361224 C3.60059645,5.9361224 3.48415227,6.0558574 3.48415227,6.20350489 L3.48415227,6.20350489 Z" id="Shape" fill="#388E3C"></path>
                                                <path d="M3.67136157,0.267382495 C3.67136157,0.741124987 3.36976738,0.802339986 3.36976738,1.18637748 C3.36976738,1.50534997 3.62118947,1.76387747 3.93139528,1.76387747 C4.24160109,1.76387747 4.49302318,1.50534997 4.49302318,1.18637748 C4.49302318,0.816007486 4.191429,0.768267487 4.191429,0.267382495 C4.191429,0.119734998 4.07498481,0 3.93139528,0 C3.78780575,0 3.67136157,0.119734998 3.67136157,0.267382495 L3.67136157,0.267382495 Z" id="Shape" fill="#43A047"></path>
                                                <path d="M6.18670571,2.58970246 C6.5549464,2.34330246 6.75937895,2.55928746 7.05779058,2.35966496 C7.30565569,2.19392246 7.37585918,1.85281247 7.21467197,1.59794247 C7.05348476,1.34307248 6.72174989,1.27088498 6.47388477,1.43662748 C6.18595687,1.62931997 6.30577082,1.90189997 5.91637548,2.16235246 C5.80161618,2.23915996 5.76904176,2.39700996 5.84373827,2.51501246 C5.91824757,2.63301496 6.07194641,2.66631745 6.18670571,2.58970246 L6.18670571,2.58970246 Z" id="Shape" fill="#388E3C"></path>
                                                <path d="M5.02451038,1.40736748 C5.12448015,1.10879998 5.32760223,1.13748248 5.40866386,0.895509985 C5.47605921,0.694539988 5.37215805,0.475474992 5.17652433,0.406174993 C4.98107782,0.336874994 4.76803364,0.443712492 4.70063829,0.644874989 C4.62238481,0.878377485 4.80248015,0.975782483 4.6967069,1.29148248 C4.66544294,1.38465248 4.71355573,1.48590747 4.80416503,1.51805497 C4.89458713,1.55000997 4.99324643,1.50053747 5.02451038,1.40736748 L5.02451038,1.40736748 Z" id="Shape" fill="#388E3C"></path>
                                                <path d="M5.73590572,1.01716998 C5.47474874,1.28570748 5.43112898,1.14479748 5.30607317,1.31092498 C5.202172,1.44894748 5.22669642,1.64741497 5.36092549,1.75405997 C5.49515456,1.86089747 5.68816734,1.83567997 5.7918813,1.69765747 C5.91244409,1.53730497 5.79749758,1.41294998 5.96074408,1.19619498 C6.00885687,1.13228498 5.99743711,1.04046248 5.93528362,0.990989983 C5.87331734,0.941709984 5.79150688,0.960189984 5.73590572,1.01716998 L5.73590572,1.01716998 Z" id="Shape" fill="#388E3C"></path>
                                                <path d="M0.815483707,2.17736746 C1.08974533,2.38391996 0.971241844,2.44436496 1.13579882,2.53791996 C1.27246161,2.61568996 1.44450695,2.56467746 1.52013951,2.42434496 C1.59577207,2.28381996 1.5461616,2.10691246 1.40968602,2.02914247 C1.25093254,1.93885997 1.15714068,2.06379246 0.942411612,1.94174747 C0.879134869,1.90574997 0.799570917,1.92923497 0.764562778,1.99429997 C0.72918022,2.05955746 0.757074406,2.13347746 0.815483707,2.17736746 L0.815483707,2.17736746 Z" id="Shape" fill="#388E3C"></path>
                                                <path d="M2.10760229,6.86570488 C2.30473368,6.59697489 2.35977322,6.71516989 2.44963368,6.55366239 C2.52433019,6.41948989 2.47902554,6.24835739 2.34854066,6.17154989 C2.21805578,6.0947424 2.05162671,6.1413274 1.9769302,6.27549989 C1.89025229,6.43142489 2.00594764,6.52613489 1.88856741,6.73692239 C1.85393369,6.79909988 1.87490113,6.87821738 1.93536973,6.91382988 C1.99602555,6.94944238 2.06566741,6.92287738 2.10760229,6.86570488 L2.10760229,6.86570488 Z" id="Shape" fill="#43A047"></path>
                                                <path d="M5.59512432,6.98486238 C5.38694758,6.44874989 5.52492084,6.38888239 5.37421735,6.1095649 C5.24916154,5.8776024 5.04454177,5.8758699 4.81895457,6.0044599 C4.59336736,6.1330499 4.43236737,6.34345239 4.55742318,6.57541489 C4.70269759,6.84472238 5.02039177,6.83625238 5.21696154,7.20046238 C5.27480921,7.30787738 5.40641735,7.34656987 5.51088014,7.28708738 C5.61534293,7.22741238 5.63949293,7.09882238 5.59512432,6.98486238 L5.59512432,6.98486238 Z" id="Shape" fill="#388E3C"></path>
                                                <path d="M2.91653367,7.02220738 C3.04121506,6.69976989 3.12733134,6.80179488 3.17375925,6.61583989 C3.21232436,6.46145489 3.12190227,6.30418239 2.97176041,6.26452739 C2.82161856,6.22487239 2.66866856,6.31784989 2.63010344,6.47223489 C2.58536042,6.65145239 2.72558019,6.71324489 2.66492437,6.95560238 C2.64713949,7.02701988 2.68888716,7.09997738 2.75852902,7.11826488 C2.82779646,7.13674488 2.88994995,7.09092988 2.91653367,7.02220738 L2.91653367,7.02220738 Z" id="Shape" fill="#43A047"></path>
                                                <path d="M0.923503473,5.18748991 C1.21760928,5.07949741 1.20132207,5.20346741 1.35539533,5.12319491 C1.48325928,5.05639741 1.53455463,4.89565992 1.469593,4.76418242 C1.40463137,4.63270492 1.24831161,4.57995992 1.12044766,4.64675742 C0.971803472,4.72433492 1.01579766,4.86216492 0.814922079,4.96707742 C0.755763941,4.99806991 0.73198836,5.07237491 0.762129057,5.13339741 C0.791895335,5.19422741 0.860975567,5.21058991 0.923503473,5.18748991 L0.923503473,5.18748991 Z" id="Shape" fill="#43A047"></path>
                                                <path d="M1.43477207,5.51281491 C1.15302207,5.8025274 0.93230231,5.6502599 0.703906965,5.8851099 C0.514263945,6.0801124 0.514263945,6.39638989 0.703906965,6.59139239 C0.893549985,6.78639488 1.20113486,6.78639488 1.39077788,6.59139239 C1.61112323,6.36481989 1.45499067,6.1461399 1.75284067,5.8398724 C1.84064183,5.7495899 1.84064183,5.6032899 1.75284067,5.51281491 C1.6648523,5.42253241 1.52257323,5.42253241 1.43477207,5.51281491 L1.43477207,5.51281491 Z" id="Shape" fill="#388E3C"></path>
                                                <ellipse id="Oval" fill="#4CAF50" cx="3.74418598" cy="3.84999993" rx="2.99534879" ry="3.07999995"></ellipse>
                                                <ellipse id="Oval" fill="#81C784" cx="6.36511617" cy="3.84999993" rx="1" ry="1"></ellipse>
                                                <ellipse id="Oval" fill="#81C784" cx="4.68023248" cy="3.07999995" rx="1" ry="1"></ellipse>
                                                <ellipse id="Oval" fill="#81C784" cx="2.02186043" cy="4.23499993" rx="1" ry="1"></ellipse>
                                                <path d="M5.99069757,3.84999993 C5.99069757,3.63728744 6.1582499,3.46499994 6.36511617,3.46499994" id="Shape" stroke="#C8E6C9" stroke-width="0.5"></path>
                                                <ellipse id="Oval" fill="#81C784" cx="3.93139528" cy="5.00499991" rx="1" ry="1"></ellipse>
                                                <path d="M3.55697668,5.00499991 C3.55697668,4.79228742 3.72452901,4.61999992 3.93139528,4.61999992" id="Shape" stroke="#C8E6C9" stroke-width="0.5"></path>
                                                <ellipse id="Oval" fill="#81C784" cx="2.80813949" cy="2.30999996" rx="1" ry="1"></ellipse>
                                                <path d="M2.50860461,2.30999996 C2.50860461,2.13982996 2.64264647,2.00199997 2.80813949,2.00199997" id="Shape" stroke="#C8E6C9" stroke-width="0.5"></path>
                                            </g>
                                        </g>
                                    </g>
                                </g>
                            </g>
                        </g>
                    </g>
                </g>
            </g>
        </g>
    </g>
</svg>