<?xml version="1.0" encoding="UTF-8"?>
<svg width="49px" height="49px" viewBox="0 0 49 49" version="1.1" xmlns="http://www.w3.org/2000/svg" xmlns:xlink="http://www.w3.org/1999/xlink">
    <!-- Generator: Sketch 63.1 (92452) - https://sketch.com -->
    <title>SUPPLIER</title>
    <desc>Created with Sketch.</desc>
    <g id="Page-1" stroke="none" stroke-width="1" fill="none" fill-rule="evenodd">
        <g id="23.1-MAIN-UI---INVENTORY-MANAGEMENT" transform="translate(-541.000000, -253.000000)">
            <g id="INVENTORY-MANAGEMENT" transform="translate(293.000000, 203.000000)">
                <g id="TOP-TOOLBAR" transform="translate(23.000000, 30.000000)">
                    <g id="SUPPLY" transform="translate(191.000000, 11.000000)">
                        <g id="SUPPLIER" transform="translate(18.000000, 6.000000)">
                            <g transform="translate(16.000000, 3.000000)">
                                <g>
                                    <g id="geek_male">
                                        <path d="M32.7858518,37.5884051 C31.1452134,35.349788 22.234043,31.5957454 22.234043,31.5957454 L17.5531919,31.5957454 L12.8723407,31.5957454 C12.8723407,31.5957454 3.9611703,35.349788 2.32053197,37.5884051 C0.338191497,40.293937 0,44.4680861 0,44.4680861 L35.1063837,44.4680861 C35.1063837,44.4680861 34.7681922,40.293937 32.7858518,37.5884051 Z" id="Shape" fill="#66BB6A" fill-rule="nonzero"></path>
                                        <path d="M25.764575,38.7586179 C25.764575,35.6762774 24.0232984,32.3821284 23.4171282,32.1118092 C22.690426,31.7876603 22.234043,31.5957454 22.234043,31.5957454 L17.5531919,31.5957454 L17.5531919,42.1276605 L22.234043,39.7872349 L21.0638302,37.4468093 L25.764575,38.7586179 Z" id="Shape" fill="#388E3C" fill-rule="nonzero"></path>
                                        <path d="M9.34180871,38.7586179 C9.34180871,35.6762774 11.0830853,32.3821284 11.6892556,32.1118092 C12.4159577,31.7876603 12.8723407,31.5957454 12.8723407,31.5957454 L17.5531919,31.5957454 L17.5531919,42.1276605 L12.8723407,39.7872349 L14.0425535,37.4468093 L9.34180871,38.7586179 Z" id="Shape" fill="#388E3C" fill-rule="nonzero"></path>
                                        <path d="M30.240639,20.4646813 C29.7210645,22.7489367 29.2553198,23.4042558 27.7785112,23.4042558 C25.8394686,23.4042558 24.4094686,22.0596813 24.4094686,20.4564898 C24.4094686,18.8532983 25.9810644,17.5531919 27.920107,17.5531919 C30.2125538,17.5531919 30.7707453,18.1347876 30.240639,20.4646813 Z" id="Shape" fill="#FB8C00" fill-rule="nonzero"></path>
                                        <path d="M4.86574479,20.4646813 C5.38531927,22.7489367 5.85106396,23.4042558 7.3278725,23.4042558 C9.26691509,23.4042558 10.6969151,22.0596813 10.6969151,20.4564898 C10.6969151,18.8532983 9.12531935,17.5531919 7.18627675,17.5531919 C4.89382989,17.5531919 4.33563839,18.1347876 4.86574479,20.4646813 Z" id="Shape" fill="#FB8C00" fill-rule="nonzero"></path>
                                        <path d="M12.8723407,21.0638302 L12.8723407,31.5957454 C12.8723407,35.058405 17.5531919,37.4468093 17.5531919,37.4468093 C17.5531919,37.4468093 22.234043,35.0935114 22.234043,31.5957454 L22.234043,21.0638302 L12.8723407,21.0638302 Z" id="Shape" fill="#FB8C00" fill-rule="nonzero"></path>
                                        <path d="M5.85106396,14.9155322 C5.85106396,26.6094687 12.147979,31.5957454 17.5531919,31.5957454 L17.5531919,4.68085117 C10.7800002,4.68085117 5.85106396,10.5494683 5.85106396,14.9155322 Z" id="Shape" fill="#FFB74D" fill-rule="nonzero"></path>
                                        <path d="M29.2553198,14.9155322 C29.2553198,26.6094687 22.9584048,31.5957454 17.5531919,31.5957454 L17.5531919,4.68085117 C24.3263835,4.68085117 29.2553198,10.5494683 29.2553198,14.9155322 Z" id="Shape" fill="#FFB74D" fill-rule="nonzero"></path>
                                        <path d="M17.5531919,0 C11.0901066,0 4.68085117,4.06882988 4.68085117,10.5319151 C4.68085117,15.4795748 6.51691503,21.0638302 6.51691503,21.0638302 C6.51691503,21.0638302 7.02127675,17.3097876 7.02127675,14.0425535 C17.7486174,14.0425535 23.4042558,8.19148954 23.4042558,8.19148954 C23.4042558,8.19148954 24.2819154,12.6769152 28.085107,14.0425535 C28.3203198,19.0885111 28.5812772,21.0638302 28.5812772,21.0638302 C28.5812772,21.0638302 30.4255326,14.7002131 30.4255326,10.5319151 C30.4255326,5.81478736 28.1213836,2.34042558 23.4042558,2.34042558 C23.4042558,2.34042558 21.5248941,0 17.5531919,0 Z" id="Shape" fill="#8D6E63" fill-rule="nonzero"></path>
                                        <path d="M15.8177663,24.2315963 C15.8177663,24.2315963 16.5865961,24.5627665 17.5531919,24.5627665 C18.5197876,24.5627665 19.2886174,24.2315963 19.2886174,24.2315963 C19.2886174,24.2315963 18.7901068,25.4802133 17.5531919,25.4802133 C16.3162769,25.4802133 15.8177663,24.2315963 15.8177663,24.2315963 Z" id="Shape" fill="#FCA230" fill-rule="nonzero"></path>
                                        <path d="M14.6276599,26.4503197 C14.6276599,26.4503197 15.9230855,26.9148942 17.5531919,26.9148942 C19.1832983,26.9148942 20.4787238,26.4503197 20.4787238,26.4503197 C20.4787238,26.4503197 19.2909579,28.085107 17.5531919,28.085107 C15.8154259,28.085107 14.6276599,26.4503197 14.6276599,26.4503197 Z" id="Shape" fill="#FB8C00" fill-rule="nonzero"></path>
                                        <path d="M25.159575,16.8475536 C25.159575,16.8475536 23.8641495,16.3829791 22.234043,16.3829791 C20.6039366,16.3829791 19.8936175,16.3736174 19.8936175,15.7955323 C19.8936175,15.2186174 20.7244685,15.2127663 22.234043,15.2127663 C24.3193622,15.2127663 25.159575,16.8475536 25.159575,16.8475536 Z" id="Shape" fill="#6D4C41" fill-rule="nonzero"></path>
                                        <path d="M9.94680873,16.8475536 C9.94680873,16.8475536 11.2422343,16.3829791 12.8723407,16.3829791 C14.5024471,16.3829791 15.2127663,16.3736174 15.2127663,15.7955323 C15.2127663,15.2186174 14.3819152,15.2127663 12.8723407,15.2127663 C10.7870215,15.2127663 9.94680873,16.8475536 9.94680873,16.8475536 Z" id="Shape" fill="#6D4C41" fill-rule="nonzero"></path>
                                        <path d="M15.2127663,18.7234047 C15.2127663,18.7234047 16.1267025,17.5531919 17.5555323,17.5531919 C18.9843621,17.5531919 19.8936175,18.7234047 19.8936175,18.7234047" id="Shape" stroke="#607D8B" stroke-width="1.10000002"></path>
                                        <line x1="26.3297878" y1="18.1382983" x2="28.6702134" y2="18.1382983" id="Shape" stroke="#607D8B" stroke-width="1.10000002" stroke-linecap="round"></line>
                                        <line x1="6.43617035" y1="18.1382983" x2="8.77659593" y2="18.1382983" id="Shape" stroke="#607D8B" stroke-width="1.10000002" stroke-linecap="round"></line>
                                        <g id="Group" transform="translate(18.723405, 16.382979)">
                                            <path d="M6.43617035,0.585106396 L1.75531919,0.585106396 C1.10936173,0.585106396 0.585106396,1.10936173 0.585106396,1.75531919 L0.585106396,2.92553198 C0.585106396,4.86457457 2.15670217,6.43617035 4.09574477,6.43617035 C6.03478736,6.43617035 7.60638314,4.86457457 7.60638314,2.92553198 L7.60638314,1.75531919 C7.60638314,1.10936173 7.08212781,0.585106396 6.43617035,0.585106396 Z" id="Shape" fill="#FFDCA9" fill-rule="nonzero"></path>
                                            <path d="M6.43617035,0.585106396 L1.75531919,0.585106396 C1.10936173,0.585106396 0.585106396,1.10936173 0.585106396,1.75531919 L0.585106396,2.92553198 C0.585106396,4.86457457 2.15670217,6.43617035 4.09574477,6.43617035 C6.03478736,6.43617035 7.60638314,4.86457457 7.60638314,2.92553198 L7.60638314,1.75531919 C7.60638314,1.10936173 7.08212781,0.585106396 6.43617035,0.585106396 Z" id="Shape" stroke="#607D8B" stroke-width="1.10000002"></path>
                                        </g>
                                        <path d="M22.234043,18.7234047 C21.1106388,18.7234047 20.1732983,19.6069153 19.9474472,19.8374472 C19.9568089,19.8865962 19.9685111,19.9334047 19.979043,19.9802132 C20.2435111,20.2446813 21.1480856,21.0638302 22.234043,21.0638302 C23.5271282,21.0638302 24.5744686,19.8936175 24.5744686,19.8936175 C24.5744686,19.8936175 23.5271282,18.7234047 22.234043,18.7234047 Z" id="Shape" fill="#FFFFFF" fill-rule="nonzero"></path>
                                        <circle id="Oval" fill="#3E2723" fill-rule="nonzero" cx="22.234043" cy="19.8936175" r="1.17021279"></circle>
                                        <g id="Group" transform="translate(8.191490, 16.382979)">
                                            <path d="M6.43617035,0.585106396 L1.75531919,0.585106396 C1.10936173,0.585106396 0.585106396,1.10936173 0.585106396,1.75531919 L0.585106396,2.92553198 C0.585106396,4.86457457 2.15670217,6.43617035 4.09574477,6.43617035 C6.03478736,6.43617035 7.60638314,4.86457457 7.60638314,2.92553198 L7.60638314,1.75531919 C7.60638314,1.10936173 7.08212781,0.585106396 6.43617035,0.585106396 Z" id="Shape" fill="#FFDCA9" fill-rule="nonzero"></path>
                                            <path d="M6.43617035,0.585106396 L1.75531919,0.585106396 C1.10936173,0.585106396 0.585106396,1.10936173 0.585106396,1.75531919 L0.585106396,2.92553198 C0.585106396,4.86457457 2.15670217,6.43617035 4.09574477,6.43617035 C6.03478736,6.43617035 7.60638314,4.86457457 7.60638314,2.92553198 L7.60638314,1.75531919 C7.60638314,1.10936173 7.08212781,0.585106396 6.43617035,0.585106396 Z" id="Shape" stroke="#607D8B" stroke-width="1.10000002"></path>
                                        </g>
                                        <path d="M12.8723407,18.7234047 C13.995745,18.7234047 14.9330854,19.6069153 15.1589365,19.8374472 C15.1495748,19.8865962 15.1378727,19.9334047 15.1273408,19.9802132 C14.8628727,20.2446813 13.9582982,21.0638302 12.8723407,21.0638302 C11.5792556,21.0638302 10.5319151,19.8936175 10.5319151,19.8936175 C10.5319151,19.8936175 11.5792556,18.7234047 12.8723407,18.7234047 Z" id="Shape" fill="#FFFFFF" fill-rule="nonzero"></path>
                                        <circle id="Oval" fill="#3E2723" fill-rule="nonzero" cx="12.8723407" cy="19.8936175" r="1.17021279"></circle>
                                    </g>
                                    <g id="Box" transform="translate(28.085107, 28.085107)">
                                        <polygon id="Shape" fill="#FFCC80" points="20.2212746 2.24680829 0 2.24680829 2.3569019 0 17.8643727 0"></polygon>
                                        <rect id="Rectangle-path" fill="#FFA726" x="0" y="2.24680829" width="20.2212746" height="17.9744663"></rect>
                                        <path d="M12.3574456,5.61702073 L7.86382902,5.61702073 C7.55376948,5.61702073 7.30212695,5.3653782 7.30212695,5.05531866 L7.30212695,5.05531866 C7.30212695,4.74525911 7.55376948,4.49361658 7.86382902,4.49361658 L12.3574456,4.49361658 C12.6675051,4.49361658 12.9191477,4.74525911 12.9191477,5.05531866 L12.9191477,5.05531866 C12.9191477,5.3653782 12.6675051,5.61702073 12.3574456,5.61702073 L12.3574456,5.61702073 Z" id="Shape" fill="#4E342E"></path>
                                        <rect id="Rectangle-path" fill="#795548" x="13.4808497" y="16.8510622" width="3.93191451" height="1"></rect>
                                        <rect id="Rectangle-path" fill="#795548" x="16.2893601" y="14.0425518" width="1" height="2.24680829"></rect>
                                        <polygon id="Shape" fill="#795548" points="16.5702111 13.4808497 15.727658 14.6042539 17.4127643 14.6042539"></polygon>
                                        <rect id="Rectangle-path" fill="#795548" x="14.0425518" y="14.0425518" width="1" height="2.24680829"></rect>
                                        <polygon id="Shape" fill="#795548" points="14.3234029 13.4808497 13.4808497 14.6042539 15.165956 14.6042539"></polygon>
                                    </g>
                                </g>
                            </g>
                        </g>
                    </g>
                </g>
            </g>
        </g>
    </g>
</svg>