<?xml version="1.0" encoding="UTF-8"?>
<svg width="48px" height="48px" viewBox="0 0 48 48" version="1.1" xmlns="http://www.w3.org/2000/svg" xmlns:xlink="http://www.w3.org/1999/xlink">
    <!-- Generator: Sketch 63.1 (92452) - https://sketch.com -->
    <title>ICON</title>
    <desc>Created with Sketch.</desc>
    <g id="Page-1" stroke="none" stroke-width="1" fill="none" fill-rule="evenodd">
        <g id="24.1-MAIN-UI---CUSTOMER-ANALYTICS" transform="translate(-586.000000, -317.000000)" fill="#23B899">
            <g id="1.BLOCKS" transform="translate(312.000000, 226.000000)">
                <g id="TOTAL-CUSTOMERS" transform="translate(0.000000, 64.275000)">
                    <g id="ICON" transform="translate(274.000000, 26.725000)">
                        <circle id="椭圆形备份-4" opacity="0.100000001" cx="23.5125006" cy="23.5125006" r="23.5125006"></circle>
                        <g id="Group" transform="translate(9.000000, 13.000000)" fill-rule="nonzero">
                            <path d="M21.1199992,5.86666644 C23.0640414,5.86666644 24.6399991,7.44262407 24.6399991,9.38666631 C24.6399991,11.3307086 23.0640414,12.9066662 21.1199992,12.9066662 C19.175957,12.9066662 17.5999993,11.3307086 17.5999993,9.38666631 C17.5999993,7.44262407 19.175957,5.86666644 21.1199992,5.86666644 Z M10.5599996,0 C13.1520559,0 15.2533328,2.10127683 15.2533328,4.69333316 C15.2533328,7.28538948 13.1520559,9.38666631 10.5599996,9.38666631 C7.96794327,9.38666631 5.86666644,7.28538948 5.86666644,4.69333316 C5.86666644,2.10127683 7.96794327,0 10.5599996,0 Z" id="Combined-Shape" opacity="0.587820871"></path>
                            <path d="M20.6522217,14.0809269 L20.5192159,14.0799995 C24.5764965,14.0799995 27.9099152,16.0980091 28.1582315,20.4159992 C28.1681238,20.5880164 28.1582315,21.1199992 27.5216469,21.1199992 L22.9973325,21.1199992 L22.9973325,21.1199992 C22.9973325,18.4789938 22.1247771,16.0417846 20.6522217,14.0809269 Z M10.5404534,11.7333329 C16.1582266,11.7333329 20.7737294,14.4240124 21.117552,20.1813326 C21.131249,20.4106888 21.117552,21.1199992 20.2361271,21.1199992 L0.853602581,21.1199992 L0.853602581,21.1199992 C0.559342241,21.1199992 -0.024008453,20.4854371 0.000764642872,20.1804004 C0.455556652,14.5804447 5.00064363,11.7333329 10.5404534,11.7333329 Z" id="Combined-Shape"></path>
                        </g>
                    </g>
                </g>
            </g>
        </g>
    </g>
</svg>