<?xml version="1.0" encoding="UTF-8"?>
<svg width="48px" height="48px" viewBox="0 0 48 48" version="1.1" xmlns="http://www.w3.org/2000/svg" xmlns:xlink="http://www.w3.org/1999/xlink">
    <!-- Generator: Sketch 63.1 (92452) - https://sketch.com -->
    <title>ICON</title>
    <desc>Created with Sketch.</desc>
    <g id="Page-1" stroke="none" stroke-width="1" fill="none" fill-rule="evenodd">
        <g id="24.1-MAIN-UI---CUSTOMER-ANALYTICS" transform="translate(-968.000000, -318.000000)" fill="#8978FF">
            <g id="1.BLOCKS" transform="translate(312.000000, 226.000000)">
                <g id="TOTAL-ORDERS" transform="translate(382.000000, 65.000000)">
                    <g id="ICON" transform="translate(274.000000, 27.000000)">
                        <circle id="椭圆形备份-4" opacity="0.100000001" cx="23.5125006" cy="23.5125006" r="23.5125006"></circle>
                        <path d="M12,19.0531756 L22.3203923,25.0116569 C22.4315223,25.0758178 22.5480492,25.1221628 22.666666,25.1515782 L22.666666,36.7077627 L12.7360519,30.8308058 C12.2798271,30.5608111 12,30.0700516 12,29.5399212 L12,19.0531756 Z M35.9999986,18.8947727 L35.9999986,29.5399212 C35.9999986,30.0700516 35.7201715,30.5608111 35.2639467,30.8308058 L25.3333325,36.7077627 L25.3333325,25.0503379 C25.3575279,25.0382512 25.3815092,25.0253604 25.4052444,25.0116569 L35.9999986,18.8947727 L35.9999986,18.8947727 Z" id="Combined-Shape"></path>
                        <path d="M12.3241775,16.1611383 C12.4502376,16.0019504 12.6093478,15.8674109 12.7948512,15.7686078 L23.2948505,10.1760796 C23.7356377,9.9413068 24.2643609,9.9413068 24.705148,10.1760796 L35.2051474,15.7686078 C35.3481447,15.8447712 35.4754585,15.9421702 35.5840394,16.0557256 L24.0719112,22.7022559 C23.9962135,22.74596 23.9264225,22.7959659 23.8628184,22.8512282 C23.7992142,22.7959659 23.7294233,22.74596 23.6537256,22.7022559 L12.3241775,16.1611383 Z" id="Path" opacity="0.499209449"></path>
                    </g>
                </g>
            </g>
        </g>
    </g>
</svg>