<?xml version="1.0" encoding="UTF-8"?>
<svg width="24px" height="24px" viewBox="0 0 24 24" version="1.1" xmlns="http://www.w3.org/2000/svg" xmlns:xlink="http://www.w3.org/1999/xlink">
    <!-- Generator: Sketch 63.1 (92452) - https://sketch.com -->
    <title>UNITS</title>
    <desc>Created with Sketch.</desc>
    <g id="Page-1" stroke="none" stroke-width="1" fill="none" fill-rule="evenodd">
        <g id="23.5.1--MAIN-UI---INVENTORY-MANAGEMENT-(INVENTORY-ITEM)" transform="translate(-353.000000, -2054.000000)">
            <g id="INVENTORY-MANAGEMENT" transform="translate(293.000000, 233.000000)">
                <g id="INVENTORY-ITEMS" transform="translate(0.000000, 1174.000000)">
                    <g id="CREATE-NEW-ITEM" transform="translate(21.000000, 405.000000)">
                        <g id="UNITS-IN-HAND" transform="translate(30.000000, 196.000000)">
                            <g id="DATE-TAG" transform="translate(0.000000, 36.000000)">
                                <g id="UNITS" transform="translate(9.000000, 10.000000)">
                                    <g id="Pen">
                                        <g id="Layer_1">
                                            <path d="M9.39130379,8.13912995 C11.7097036,5.82073009 11.7867123,3.47039979 12.7446253,2.51248681 C13.7025383,1.55457382 15.3084513,1.53453904 16.286399,2.51248681 L18.2009728,4.42706061" id="Shape" stroke="#0277BD" stroke-width="1.79999989"></path>
                                            <path d="M23.0581551,0.733147782 L23.0581551,0.733147782 C24.0361029,1.71109555 24.0361029,3.29634763 23.0581551,4.2742954 L21.4309552,5.9014953 L17.8898076,2.36034769 L19.5170075,0.733147782 C20.4943292,-0.244173898 22.0802074,-0.244173898 23.0581551,0.733147782 L23.0581551,0.733147782 Z" id="Shape" fill="#0277BD"></path>
                                            <polygon id="Rectangle-path" fill="#0277BD" transform="translate(7.643052, 16.148096) rotate(-45.000000) translate(-7.643052, -16.148096) " points="3.13088705 12.4626711 12.1552174 12.4626711 12.1552174 19.8335217 3.13088705 19.8335217"></polygon>
                                            <path d="M22.7983291,4.43394756 L19.3567293,0.992347767 C18.8677554,0.503373883 18.0751294,0.503373883 17.5861555,0.992347767 L7.41662564,11.1625037 L12.6287992,16.3746773 L22.7983291,6.20514746 C23.287303,5.71617357 23.287303,4.92292145 22.7983291,4.43394756 L22.7983291,4.43394756 Z" id="Shape" fill="#03A9F4"></path>
                                            <path d="M0.218504335,23.5727986 L0.218504335,23.5727986 C-0.0726260826,23.2816682 -0.0726260826,22.8089726 0.218504335,22.5178421 L1.44939122,21.2869553 L2.50434768,22.3419117 L1.27346079,23.5727986 C0.982330376,23.863929 0.509634752,23.863929 0.218504335,23.5727986 L0.218504335,23.5727986 Z" id="Shape" fill="#F19B2C"></path>
                                            <polygon id="Shape" fill="#03A9F4" points="2.09551292 23.2428508 7.05850393 21.9449726 1.84633032 16.732799 0.548452141 21.69579"></polygon>
                                        </g>
                                    </g>
                                </g>
                            </g>
                        </g>
                    </g>
                </g>
            </g>
        </g>
    </g>
</svg>