<?xml version="1.0" encoding="UTF-8"?>
<svg width="41px" height="41px" viewBox="0 0 41 41" version="1.1" xmlns="http://www.w3.org/2000/svg" xmlns:xlink="http://www.w3.org/1999/xlink">
    <!-- Generator: Sketch 63.1 (92452) - https://sketch.com -->
    <title>UPDATE</title>
    <desc>Created with Sketch.</desc>
    <defs>
        <circle id="path-1" cx="20.1846162" cy="20.1846162" r="20.1846162"></circle>
        <circle id="path-3" cx="20.1846162" cy="20.1846162" r="20.1846162"></circle>
        <path d="M24.1184087,7.00406182 C24.1057933,7.00406182 24.0934933,7.00595412 24.0808779,7.00595412 C23.7065163,3.2273309 20.51987,0.275961549 16.6428468,0.275961549 C13.2799005,0.275961549 10.4370235,2.4969001 9.4971773,5.55140022 C8.97111574,5.21046944 8.34539264,5.01051558 7.67173107,5.01051558 C5.81380023,5.01051558 4.30752325,6.51679257 4.30752325,8.37472341 C4.30752325,8.65257727 4.34505402,8.92096959 4.40844633,9.1792696 C2.02729239,9.52366961 0.195853854,11.6947774 0.195853854,14.1714929 C0.195853854,16.8894776 2.39944625,19.2204854 5.11743097,19.2204854 L24.1184087,19.2204854 C27.4214319,19.2204854 30.0990473,16.4154545 30.0990473,13.1124313 C30.098732,9.8090927 27.4211165,7.00406182 24.1184087,7.00406182 Z" id="path-5"></path>
    </defs>
    <g id="Page-1" stroke="none" stroke-width="1" fill="none" fill-rule="evenodd">
        <g id="25.2-MAIN-UI---EMPLOYEE-ANALYTICS-(EMPLOYEE-DETAILS)" transform="translate(-1173.000000, -1016.000000)">
            <g id="2.EMPLOYEE-DETAILS" transform="translate(310.000000, 730.000000)">
                <g id="DETAILS" transform="translate(0.000000, 91.000000)">
                    <g id="TAB--ACTIVE" transform="translate(1.000000, 48.000000)">
                        <g id="UPDATE-DETAILS" transform="translate(862.000000, 147.000000)">
                            <g id="UPDATE">
                                <g id="Update">
                                    <circle id="Oval" fill="#F59A00" fill-rule="nonzero" cx="20.1846162" cy="20.1846162" r="20.1846162"></circle>
                                    <g id="Clipped">
                                        <mask id="mask-2" fill="white">
                                            <use xlink:href="#path-1"></use>
                                        </mask>
                                        <g id="SVGID_59_"></g>
                                        <g id="Group" opacity="0.67" mask="url(#mask-2)" fill="#EF830B" fill-rule="nonzero">
                                            <g transform="translate(6.623077, 10.092308)" id="Path">
                                                <polygon points="0.0394230785 15.4847545 14.9076006 30.275032 33.7461552 30.2769243 33.724709 13.5643775 26.7960241 6.6391618 20.18367 0.10155385"></polygon>
                                            </g>
                                        </g>
                                    </g>
                                    <g id="Clipped">
                                        <mask id="mask-4" fill="white">
                                            <use xlink:href="#path-3"></use>
                                        </mask>
                                        <g id="SVGID_61_"></g>
                                        <polygon id="Path" fill="#EE7203" fill-rule="nonzero" opacity="0.38" mask="url(#mask-4)" points="12.5318082 27.0814472 25.5458395 40.0951631 33.5827859 40.0951631 37.6181323 32.3969397 31.7169705 26.5102857 12.5318082 26.7490318"></polygon>
                                    </g>
                                    <path d="M29.1645627,14.8886775 C29.1519473,14.8886775 29.1396473,14.8905698 29.1270319,14.8905698 C28.7526704,11.1119466 25.5660241,8.16057725 21.6890009,8.16057725 C18.3260546,8.16057725 15.4831775,10.3815158 14.5433313,13.4360159 C14.0172698,13.0950851 13.3915467,12.8951313 12.7178851,12.8951313 C10.8599543,12.8951313 9.35367729,14.4014083 9.35367729,16.2593391 C9.35367729,16.537193 9.39120807,16.8055853 9.45460038,17.0638853 C7.07344643,17.4082853 5.2420079,19.5793931 5.2420079,22.0561086 C5.2420079,24.7740933 7.4456003,27.1051011 10.163585,27.1051011 L29.1645627,27.1051011 C32.4675859,27.1051011 35.1452014,24.3000702 35.1452014,20.997047 C35.144886,17.6937084 32.4672705,14.8886775 29.1645627,14.8886775 Z" id="Path" fill="#D7EBF3" fill-rule="nonzero"></path>
                                    <path d="M6.64925411,22.0557932 C6.64925411,19.5790777 7.92940032,17.5227699 10.3105543,17.1783699 C10.2471619,16.9200699 10.1967004,16.2981314 10.1967004,16.0202776 C10.1967004,14.4099236 11.5818697,12.9421236 13.4041621,12.9742928 C13.1818159,12.9276159 12.9544236,12.8948159 12.7178851,12.8948159 C10.8599543,12.8948159 9.35367729,14.4010929 9.35367729,16.2590237 C9.35367729,16.5368776 9.39089268,16.8052699 9.45460038,17.0635699 C7.07344643,17.4079699 5.2420079,19.5790777 5.2420079,22.0557932 C5.2420079,24.7737779 7.4456003,27.1047857 10.163585,27.1047857 L11.5708312,27.1047857 C8.85253112,27.1047857 6.64925411,24.7737779 6.64925411,22.0557932 Z" id="Path" fill="#FFFFFF" fill-rule="nonzero"></path>
                                    <path d="M29.1645627,14.8886775 C29.1519473,14.8886775 29.1396473,14.8905698 29.1270319,14.8905698 C28.9441088,13.0436774 28.0859473,11.3973697 26.8067472,10.1938619 C27.8456242,11.3475389 28.4830165,12.8695851 28.4830165,14.5442775 C28.4830165,14.8495698 28.4546319,15.1472929 28.4139473,15.4412314 C28.4732396,15.4396545 28.8447627,15.4270391 28.8564319,15.4270391 C31.099132,15.4270391 33.7376398,17.6940238 33.7376398,20.997047 C33.7376398,24.3000702 31.0600243,27.1051011 27.7570011,27.1051011 L29.1642473,27.1051011 C32.4672705,27.1051011 35.144886,24.3000702 35.144886,20.997047 C35.144886,17.6937084 32.4675859,14.8886775 29.1645627,14.8886775 Z" id="Path" fill="#BDDDED" fill-rule="nonzero"></path>
                                    <path d="M19.9209546,8.36715418 C17.4382468,8.9575542 15.3481929,10.7830004 14.543016,13.4360159 C15.002216,13.7271159 15.2412775,13.9122467 15.4765545,14.2165929 C15.613116,11.4818928 17.4300468,9.19377729 19.9209546,8.36715418 Z" id="Path" fill="#FFFFFF" fill-rule="nonzero"></path>
                                    <g id="Clipped" transform="translate(5.046154, 7.884616)">
                                        <mask id="mask-6" fill="white">
                                            <use xlink:href="#path-5"></use>
                                        </mask>
                                        <g id="SVGID_63_"></g>
                                        <polygon id="Path" fill="#A3C7D7" fill-rule="nonzero" opacity="0.45" mask="url(#mask-6)" points="6.14716178 17.8646469 7.62379261 19.3444315 27.4075549 19.3608315 20.2587316 12.2252543 15.1472929 11.2529235 12.4819774 13.6164159 18.1595315 19.2854546 15.7916237 19.2829315 9.56214653 13.0474621"></polygon>
                                    </g>
                                    <path d="M27.2287319,24.3010164 C26.8761318,20.7501008 23.8806086,17.9769238 20.23697,17.9769238 C18.7543469,17.9769238 17.3833699,18.44117 16.2511391,19.2267931 C16.1079545,19.3261392 16.0786237,19.5273546 16.1808083,19.6683316 L17.4571699,21.431647 C17.5552545,21.566947 17.7438546,21.6054239 17.8823084,21.5117547 C18.5547084,21.0560239 19.36367,20.7876316 20.23697,20.7876316 C22.3251317,20.7876316 24.0524933,22.3081009 24.3874317,24.3010164 L22.8959778,24.3010164 C22.638624,24.3010164 22.489447,24.5927471 22.6405163,24.8012164 L25.8344164,29.2137627 C25.8974933,29.3008089 26.026801,29.3008089 26.089878,29.2137627 L29.2837781,24.8012164 C29.4348473,24.5927471 29.2856704,24.3010164 29.0283165,24.3010164 L27.2287319,24.3010164 L27.2287319,24.3010164 Z M20.23697,29.219755 C18.2081007,29.219755 16.5148007,27.7860165 16.1126853,25.8769933 L17.5779622,25.8769933 C17.8353161,25.8769933 17.984493,25.5852626 17.8334238,25.3767933 L14.6395237,20.9639316 C14.5764467,20.8768854 14.447139,20.8768854 14.3840621,20.9639316 L11.190162,25.3764779 C11.0390927,25.5849472 11.1882697,25.876678 11.4456235,25.876678 L13.266339,25.876678 C13.6965236,29.3452781 16.6523084,32.0304628 20.23697,32.0304628 C21.7331547,32.0304628 23.1148548,31.5570705 24.2530779,30.7582012 C24.3953164,30.6582243 24.4240164,30.4582704 24.3221471,30.3172935 L23.0467317,28.5552396 C22.9483317,28.4189934 22.7581548,28.3808319 22.6197009,28.4763934 C21.9419393,28.9434781 21.1225701,29.219755 20.23697,29.219755 Z" id="Shape" fill="#353840" fill-rule="nonzero"></path>
                                    <path d="M14.5026467,24.8308625 L13.2136698,24.8308625 C13.0846774,24.8308625 13.0102467,24.6848394 13.085939,24.5804471 L14.3900544,22.7808624 C14.4531313,22.6938163 14.5827544,22.6938163 14.6458314,22.7808624 L15.9499468,24.5804471 C16.0256391,24.6848394 15.9508929,24.8308625 15.822216,24.8308625 L14.5026467,24.8308625 Z" id="Path" fill="#BED01E" fill-rule="nonzero"></path>
                                    <path d="M26.0050395,25.3982395 L27.2940165,25.3982395 C27.4230088,25.3982395 27.4974396,25.5442626 27.4217472,25.6486549 L26.1176318,27.4482396 C26.0545549,27.5352857 25.9249318,27.5352857 25.8618549,27.4482396 L24.5577394,25.6486549 C24.4820471,25.5442626 24.5567933,25.3982395 24.6854702,25.3982395 L26.0050395,25.3982395 Z" id="Path" fill="#00ACC8" fill-rule="nonzero"></path>
                                    <path d="M20.1846162,30.9076935 C16.8803314,30.9076935 14.1923083,28.2196704 14.1923083,24.9153856 C14.1923083,24.5804471 14.2200621,24.2448779 14.274939,23.9175086 C14.3039544,23.745624 14.4657467,23.6289317 14.6382621,23.6585779 C14.8098314,23.6875932 14.9258929,23.8500163 14.8971929,24.0215856 C14.8479929,24.3148933 14.8230775,24.6154548 14.8230775,24.9153856 C14.8230775,27.8718011 17.2282007,30.2769243 20.1846162,30.2769243 C21.021647,30.2769243 21.8233547,30.0892704 22.5676624,29.7196396 C22.724724,29.6417396 22.913324,29.7054473 22.9905932,29.8615627 C23.0681778,30.0176781 23.0044701,30.2069089 22.8486701,30.2844935 C22.0160547,30.6979628 21.120047,30.9076935 20.1846162,30.9076935 Z" id="Path" fill="#BED01E" fill-rule="nonzero"></path>
                                    <path d="M25.7211933,26.4923087 C25.6981703,26.4923087 25.6748318,26.4897857 25.6508626,26.4847395 C25.4811856,26.4459472 25.3745856,26.2772164 25.4130625,26.1072241 C25.5013702,25.7186703 25.5461549,25.317501 25.5461549,24.9153856 C25.5461549,21.9589701 23.1410317,19.5538469 20.1846162,19.5538469 C19.4617546,19.5538469 18.7600238,19.6951392 18.0996084,19.9742546 C17.9387623,20.041747 17.7539469,19.9670008 17.6861392,19.80647 C17.6183315,19.6459392 17.693393,19.4608085 17.8539238,19.3930008 C18.59287,19.0810854 19.3769162,18.9230777 20.1846162,18.9230777 C23.4889009,18.9230777 26.1769241,21.6111009 26.1769241,24.9153856 C26.1769241,25.3644933 26.1270933,25.8126549 26.028378,26.2469395 C25.9952626,26.393278 25.8650087,26.4923087 25.7211933,26.4923087 Z" id="Path" fill="#00ACC8" fill-rule="nonzero"></path>
                                </g>
                            </g>
                        </g>
                    </g>
                </g>
            </g>
        </g>
    </g>
</svg>