<?xml version="1.0" encoding="UTF-8"?>
<svg width="39px" height="46px" viewBox="0 0 39 46" version="1.1" xmlns="http://www.w3.org/2000/svg" xmlns:xlink="http://www.w3.org/1999/xlink">
    <!-- Generator: Sketch 63.1 (92452) - https://sketch.com -->
    <title>WASTAGE</title>
    <desc>Created with Sketch.</desc>
    <g id="Page-1" stroke="none" stroke-width="1" fill="none" fill-rule="evenodd">
        <g id="23.1-MAIN-UI---INVENTORY-MANAGEMENT" transform="translate(-1063.000000, -254.000000)">
            <g id="INVENTORY-MANAGEMENT" transform="translate(293.000000, 203.000000)">
                <g id="TOP-TOOLBAR" transform="translate(23.000000, 30.000000)">
                    <g id="INVENTORY" transform="translate(427.000000, 10.000000)">
                        <g id="WASTAGE" transform="translate(300.000000, 5.000000)">
                            <g transform="translate(20.000000, 6.000000)">
                                <g>
                                    <path d="M23.091841,0.00696540029 L15.4273506,0.00696540029 C14.3674206,0.00696540029 13.5077406,0.859244636 13.5077406,1.91093078 L13.5077406,6.37459147 C13.5077406,6.72464748 13.6033206,6.84180909 13.7699106,6.84180909 C14.1030906,6.84180909 14.7203106,6.37459147 15.4273506,6.37459147 L23.091841,6.37459147 C23.798971,6.37459147 24.416191,6.84180909 24.749281,6.84180909 C24.916591,6.84180909 25.0122611,6.72464748 25.0122611,6.37459147 L25.0122611,1.91093078 C25.0122611,0.859244636 24.151861,0.00696540029 23.091841,0.00696540029 Z M23.091841,4.47053679 L15.4273506,4.47053679 L15.4273506,1.91093078 L23.091841,1.91093078 L23.091841,4.47053679 Z" id="Shape" fill="#434A54" fill-rule="nonzero"></path>
                                    <path d="M36.5344215,3.81507476 L1.98495008,3.81507476 C0.925020039,3.81507476 0.0653400028,4.6687828 0.0653400028,5.72046894 L0.0653400028,7.62443432 L5.82354025,45.7146365 L32.6964614,45.7146365 L38.4546616,7.62443432 L38.4546616,5.72046894 C38.4546616,4.6686935 37.5943516,3.81507476 36.5344215,3.81507476 Z" id="Path" fill="#4A89DC" fill-rule="nonzero"></path>
                                    <path d="M38.4547516,5.72046894 C38.4547516,4.6687828 37.5942616,3.81507476 36.5343315,3.81507476 L1.98495008,3.81507476 C0.925020039,3.81507476 0.0653400028,4.6687828 0.0653400028,5.72046894 L0.0653400028,7.62443432 L38.4547516,7.62443432 L38.4547516,5.72046894 L38.4547516,5.72046894 Z" id="Path" fill="#5D9CEC" fill-rule="nonzero"></path>
                                    <path d="M28.1444412,21.4979936 C28.0966512,21.3836003 28.0263612,21.2762617 27.9335712,21.1841041 C27.5596212,20.8116338 26.9523011,20.8116338 26.5769111,21.1841041 C26.2803611,21.4770081 26.2198811,21.9150246 26.3899811,22.2692777 C26.8919111,23.2931916 27.1561511,24.4230152 27.1561511,25.5932918 C27.1561511,27.6285282 26.3562311,29.5423165 24.906871,30.9804038 C23.457511,32.4184911 21.5287209,33.2121895 19.4783408,33.2121895 C18.4239908,33.2121895 17.4019507,33.0016201 16.4608207,32.6026277 L17.6901307,32.0739716 C18.1765808,31.8661705 18.4001408,31.3053665 18.1892708,30.8227 C17.9790308,30.3401228 17.4139207,30.1183016 16.9274707,30.3261027 L13.4044206,31.8395591 C12.9483005,32.0361977 12.7233905,32.5411 12.8709005,33.0015308 C12.8807105,33.0321607 12.8919605,33.0628799 12.9053705,33.0921703 L14.4306906,36.5878189 C14.6408406,37.0703962 15.2059506,37.2923067 15.6924007,37.0829875 C16.1788507,36.8737576 16.4024107,36.3144716 16.1922607,35.8304656 L15.5089807,34.2653937 C19.0453508,35.8584165 23.356261,35.2125096 26.2635311,32.3265121 C29.2156212,29.3987221 29.8426513,25.0354347 28.1444412,21.4979936 Z" id="Path" fill="#E6E9ED" fill-rule="nonzero"></path>
                                    <path d="M11.3631305,25.9072706 C11.3631305,23.8720342 12.1617005,21.9596746 13.6117806,20.5201586 C15.0618606,19.0820713 16.9906507,18.2897124 19.0410308,18.2897124 C20.0953808,18.2897124 21.1181409,18.4989423 22.0585509,18.8979347 L20.8284309,19.4265907 C20.3427909,19.6358206 20.1192308,20.1965354 20.3301009,20.6792019 C20.5403409,21.1617791 21.1054509,21.3836003 21.5919009,21.1743704 L25.1149511,19.6609139 C25.6013111,19.451684 25.8248711,18.8909693 25.6140011,18.4083921 L24.088681,14.9127434 C23.877811,14.4301662 23.314141,14.2082557 22.827691,14.4175749 C22.3412409,14.6268048 22.1163309,15.1875195 22.3271109,15.6700968 L23.010391,17.2351686 C19.4740208,15.6421459 15.1631106,16.2880528 12.2551205,19.1740503 C9.30294039,22.1033583 8.67663037,26.4651277 10.3748404,30.0039976 C10.4219104,30.1183016 10.4922004,30.2243007 10.5849904,30.3177978 C10.9603805,30.6888393 11.5677005,30.6888393 11.9422805,30.3177978 C12.2382005,30.023465 12.2994005,29.5855377 12.1285805,29.2311953 C11.6281805,28.2088889 11.3631305,27.0776364 11.3631305,25.9072706 Z" id="Path" fill="#F5F7FA" fill-rule="nonzero"></path>
                                    <g id="Group" opacity="0.2" transform="translate(30.690001, 3.750600)" fill="#FFFFFF" fill-rule="nonzero">
                                        <path d="M5.84442025,0.0644746027 L3.92400017,0.0644746027 C4.98402021,0.0644746027 5.84442025,0.918182639 5.84442025,1.96986878 L5.84442025,3.87383416 L0.0862200036,41.9640364 L2.00655008,41.9640364 L7.76475033,3.87383416 L7.76475033,1.96986878 C7.76466033,0.918093339 6.90435029,0.0644746027 5.84442025,0.0644746027 Z" id="Path"></path>
                                    </g>
                                </g>
                            </g>
                        </g>
                    </g>
                </g>
            </g>
        </g>
    </g>
</svg>