<?xml version="1.0" encoding="UTF-8"?>
<svg width="34px" height="34px" viewBox="0 0 34 34" version="1.1" xmlns="http://www.w3.org/2000/svg" xmlns:xlink="http://www.w3.org/1999/xlink">
    <!-- Generator: Sketch 62 (91390) - https://sketch.com -->
    <title>Euro</title>
    <desc>Created with Sketch.</desc>
    <g id="Page-1" stroke="none" stroke-width="1" fill="none" fill-rule="evenodd">
        <g id="14.MAIN-UI---ONLINE-ORDER" transform="translate(-977.000000, -427.000000)">
            <g id="ONLINE-ORDER" transform="translate(293.000000, 203.000000)">
                <g id="TAB-1" transform="translate(23.000000, 165.000000)">
                    <g id="VALUE" transform="translate(661.000000, 52.000000)">
                        <g id="Euro" transform="translate(0.000000, 7.000000)">
                            <g id="Layer_1">
                                <g>
                                    <circle id="Oval" fill="#3F51B5" cx="16.6709667" cy="16.6709667" r="16.6709667"></circle>
                                    <path d="M19.4365924,19.4576505 L15.183741,19.4576505 C15.2091862,20.1683601 15.183741,23.2033535 19.0812376,23.2033535 C20.3701665,23.2033535 21.4932632,22.8093922 21.4932632,22.8093922 L21.9503987,25.8821146 C21.9503987,25.8821146 20.3850827,26.2506307 18.7004376,26.2506307 C12.1197928,26.2506307 11.3494187,20.9931342 11.3617025,19.4585279 L9.21641235,19.4585279 L9.21641235,17.5290828 L11.3617025,17.5290828 L11.3617025,15.9549926 L9.21641235,15.9549926 L9.21641235,14.0255476 L11.3871477,14.0255476 C11.4634832,12.9164896 12.0241541,7.28433505 18.9540118,7.28433505 C20.4693149,7.28433505 21.9503987,7.67829632 21.9503987,7.67829632 L21.4932632,10.7633026 C21.4932632,10.7633026 20.4473794,10.3570574 19.1444118,10.3570574 C15.4636378,10.3570574 15.3048249,13.2657024 15.2083088,14.026425 L19.435715,14.026425 L19.435715,15.95587 L15.1828636,15.95587 L15.1828636,17.5299602 L19.435715,17.5299602 L19.435715,19.4576505 L19.4365924,19.4576505 Z" id="Shape" fill="#FFFFFF"></path>
                                </g>
                            </g>
                        </g>
                    </g>
                </g>
            </g>
        </g>
    </g>
</svg>