<?xml version="1.0" encoding="UTF-8"?>
<svg width="42px" height="42px" viewBox="0 0 42 42" version="1.1" xmlns="http://www.w3.org/2000/svg" xmlns:xlink="http://www.w3.org/1999/xlink">
    <!-- Generator: Sketch 62 (91390) - https://sketch.com -->
    <title>ITEMS</title>
    <desc>Created with Sketch.</desc>
    <defs>
        <filter x="-34.5%" y="-34.5%" width="169.0%" height="169.0%" filterUnits="objectBoundingBox" id="filter-1">
            <feOffset dx="2" dy="2" in="SourceAlpha" result="shadowOffsetOuter1"></feOffset>
            <feGaussianBlur stdDeviation="2" in="shadowOffsetOuter1" result="shadowBlurOuter1"></feGaussianBlur>
            <feColorMatrix values="0 0 0 0 0   0 0 0 0 0   0 0 0 0 0  0 0 0 0.5 0" type="matrix" in="shadowBlurOuter1" result="shadowMatrixOuter1"></feColorMatrix>
            <feMerge>
                <feMergeNode in="shadowMatrixOuter1"></feMergeNode>
                <feMergeNode in="SourceGraphic"></feMergeNode>
            </feMerge>
        </filter>
        <path d="M18.1105781,9.36540625 L28.1490781,18.0609062 C28.8115469,18.6346562 28.8843281,19.6464219 28.3105781,20.3094219 L25.527625,23.5218906 C24.953875,24.1843594 23.942375,24.256875 23.2796406,23.6825938 L13.240875,14.9870937 L18.1105781,9.36540625" id="path-2"></path>
        <filter x="-6.5%" y="-6.8%" width="125.9%" height="127.2%" filterUnits="objectBoundingBox" id="filter-3">
            <feOffset dx="1" dy="1" in="SourceAlpha" result="shadowOffsetOuter1"></feOffset>
            <feGaussianBlur stdDeviation="0.5" in="shadowOffsetOuter1" result="shadowBlurOuter1"></feGaussianBlur>
            <feColorMatrix values="0 0 0 0 0.149258379   0 0 0 0 0.149258379   0 0 0 0 0.149258379  0 0 0 0.5 0" type="matrix" in="shadowBlurOuter1"></feColorMatrix>
        </filter>
        <path d="M9.62704688,11.8567031 L13.240875,14.9870937 L18.1105781,9.36540625 L14.4964844,6.23501563 C13.83375,5.661 12.82225,5.73378125 12.2482344,6.39625 L9.4658125,9.60871875 C8.89179688,10.2711875 8.96457813,11.2829531 9.62704688,11.8567031" id="path-4"></path>
        <filter x="-11.1%" y="-10.9%" width="144.3%" height="143.8%" filterUnits="objectBoundingBox" id="filter-5">
            <feOffset dx="1" dy="1" in="SourceAlpha" result="shadowOffsetOuter1"></feOffset>
            <feGaussianBlur stdDeviation="0.5" in="shadowOffsetOuter1" result="shadowBlurOuter1"></feGaussianBlur>
            <feColorMatrix values="0 0 0 0 0.149258379   0 0 0 0 0.149258379   0 0 0 0 0.149258379  0 0 0 0.5 0" type="matrix" in="shadowBlurOuter1"></feColorMatrix>
        </filter>
        <path d="M14.0693594,10.7854375 C13.6857969,11.2279687 13.0137656,11.2765781 12.5707031,10.89275 C12.1276406,10.5089219 12.0798281,9.83635938 12.463125,9.39382813 C12.8466875,8.95076562 13.5189844,8.9026875 13.9620469,9.28651563 C14.4048438,9.6698125 14.4531875,10.342375 14.0693594,10.7854375" id="path-6"></path>
        <filter x="-47.1%" y="-47.1%" width="288.3%" height="288.3%" filterUnits="objectBoundingBox" id="filter-7">
            <feOffset dx="1" dy="1" in="SourceAlpha" result="shadowOffsetOuter1"></feOffset>
            <feGaussianBlur stdDeviation="0.5" in="shadowOffsetOuter1" result="shadowBlurOuter1"></feGaussianBlur>
            <feColorMatrix values="0 0 0 0 0.149258379   0 0 0 0 0.149258379   0 0 0 0 0.149258379  0 0 0 0.5 0" type="matrix" in="shadowBlurOuter1"></feColorMatrix>
        </filter>
        <path d="M13.7880625,9.48732812 C14.1208906,9.77526562 14.15675,10.2783594 13.8685469,10.6109219 C13.5806094,10.9440156 13.07725,10.979875 12.7446875,10.6919375 C12.412125,10.4034688 12.376,9.90010938 12.6642031,9.5678125 C12.9521406,9.23525 13.4552344,9.19885937 13.7880625,9.48732812" id="path-8"></path>
        <filter x="-62.8%" y="-62.7%" width="351.0%" height="351.0%" filterUnits="objectBoundingBox" id="filter-9">
            <feOffset dx="1" dy="1" in="SourceAlpha" result="shadowOffsetOuter1"></feOffset>
            <feGaussianBlur stdDeviation="0.5" in="shadowOffsetOuter1" result="shadowBlurOuter1"></feGaussianBlur>
            <feColorMatrix values="0 0 0 0 0.149258379   0 0 0 0 0.149258379   0 0 0 0 0.149258379  0 0 0 0.5 0" type="matrix" in="shadowBlurOuter1"></feColorMatrix>
        </filter>
        <path d="M26.3550753,22.5661719 C26.3571719,22.1547188 26.2402969,21.73875 25.9932656,21.3724531 L18.3087344,9.96704687 L18.28775,9.90914063 L18.2752656,9.917375 L17.9939688,9.50034375 L13.240875,14.9870937 L23.2796406,23.6825938 C23.942375,24.256875 24.953875,24.1843594 25.527625,23.5218906 L26.3550753,22.5661719" id="path-10"></path>
        <filter x="-7.6%" y="-6.9%" width="130.5%" height="127.5%" filterUnits="objectBoundingBox" id="filter-11">
            <feOffset dx="1" dy="1" in="SourceAlpha" result="shadowOffsetOuter1"></feOffset>
            <feGaussianBlur stdDeviation="0.5" in="shadowOffsetOuter1" result="shadowBlurOuter1"></feGaussianBlur>
            <feColorMatrix values="0 0 0 0 0.149258379   0 0 0 0 0.149258379   0 0 0 0 0.149258379  0 0 0 0.5 0" type="matrix" in="shadowBlurOuter1"></feColorMatrix>
        </filter>
        <path d="M18.1315625,10.6550156 L25.5528594,21.6691562 C26.0426719,22.3961719 25.8485,23.3917344 25.12175,23.8812813 L21.5971719,26.2565 C20.8701563,26.7460469 19.8748594,26.5521406 19.3850469,25.8253906 L11.9634844,14.8107187 L18.1315625,10.6550156" id="path-12"></path>
        <filter x="-7.2%" y="-6.3%" width="128.9%" height="125.2%" filterUnits="objectBoundingBox" id="filter-13">
            <feOffset dx="1" dy="1" in="SourceAlpha" result="shadowOffsetOuter1"></feOffset>
            <feGaussianBlur stdDeviation="0.5" in="shadowOffsetOuter1" result="shadowBlurOuter1"></feGaussianBlur>
            <feColorMatrix values="0 0 0 0 0.149258379   0 0 0 0 0.149258379   0 0 0 0 0.149258379  0 0 0 0.5 0" type="matrix" in="shadowBlurOuter1"></feColorMatrix>
        </filter>
        <path d="M9.29182813,10.8454687 L11.9634844,14.8107187 L18.1315625,10.6550156 L15.4599063,6.69003125 C14.9698281,5.96301563 13.9745313,5.76910938 13.2475156,6.25865625 L9.7229375,8.63334375 C8.99592187,9.1236875 8.80201563,10.1187188 9.29182813,10.8454687" id="path-14"></path>
        <filter x="-11.0%" y="-11.3%" width="143.9%" height="145.3%" filterUnits="objectBoundingBox" id="filter-15">
            <feOffset dx="1" dy="1" in="SourceAlpha" result="shadowOffsetOuter1"></feOffset>
            <feGaussianBlur stdDeviation="0.5" in="shadowOffsetOuter1" result="shadowBlurOuter1"></feGaussianBlur>
            <feColorMatrix values="0 0 0 0 0.149258379   0 0 0 0 0.149258379   0 0 0 0 0.149258379  0 0 0 0.5 0" type="matrix" in="shadowBlurOuter1"></feColorMatrix>
        </filter>
        <path d="M13.8600469,10.9705781 C13.3742187,11.2978281 12.7128125,11.1692656 12.3850313,10.6831719 C12.0577813,10.1970781 12.186875,9.53540625 12.6727031,9.20815625 C13.1585313,8.88090625 13.8202031,9.00946875 14.1474531,9.49609375 C14.4749688,9.98165625 14.345875,10.6430625 13.8600469,10.9705781" id="path-16"></path>
        <filter x="-47.1%" y="-47.1%" width="288.3%" height="288.3%" filterUnits="objectBoundingBox" id="filter-17">
            <feOffset dx="1" dy="1" in="SourceAlpha" result="shadowOffsetOuter1"></feOffset>
            <feGaussianBlur stdDeviation="0.5" in="shadowOffsetOuter1" result="shadowBlurOuter1"></feGaussianBlur>
            <feColorMatrix values="0 0 0 0 0.149258379   0 0 0 0 0.149258379   0 0 0 0 0.149258379  0 0 0 0.5 0" type="matrix" in="shadowBlurOuter1"></feColorMatrix>
        </filter>
        <path d="M13.92725,9.64404688 C14.1732188,10.0092813 14.0765313,10.5041406 13.7115625,10.7501094 C13.3468594,10.9963437 12.8514688,10.8999219 12.6055,10.5346875 C12.3595313,10.1699844 12.4562188,9.67459375 12.8211875,9.428625 C13.1861563,9.18265625 13.6812813,9.27934375 13.92725,9.64404688" id="path-18"></path>
        <filter x="-62.7%" y="-62.7%" width="351.0%" height="351.0%" filterUnits="objectBoundingBox" id="filter-19">
            <feOffset dx="1" dy="1" in="SourceAlpha" result="shadowOffsetOuter1"></feOffset>
            <feGaussianBlur stdDeviation="0.5" in="shadowOffsetOuter1" result="shadowBlurOuter1"></feGaussianBlur>
            <feColorMatrix values="0 0 0 0 0.149258379   0 0 0 0 0.149258379   0 0 0 0 0.149258379  0 0 0 0.5 0" type="matrix" in="shadowBlurOuter1"></feColorMatrix>
        </filter>
        <path d="M18.1679531,11.1355313 L18.0205313,10.7296563 L11.9634844,14.8107188 L19.3850469,25.8253906 C19.8748594,26.5521406 20.8701563,26.7460469 21.5971719,26.2565 L22.9494688,25.344875 C23.0458906,24.95175 23.0318125,24.5262188 22.8833281,24.1179531 L18.1679531,11.1355313" id="path-20"></path>
        <filter x="-9.1%" y="-6.3%" width="136.2%" height="125.3%" filterUnits="objectBoundingBox" id="filter-21">
            <feOffset dx="1" dy="1" in="SourceAlpha" result="shadowOffsetOuter1"></feOffset>
            <feGaussianBlur stdDeviation="0.5" in="shadowOffsetOuter1" result="shadowBlurOuter1"></feGaussianBlur>
            <feColorMatrix values="0 0 0 0 0.149258379   0 0 0 0 0.149258379   0 0 0 0 0.149258379  0 0 0 0.5 0" type="matrix" in="shadowBlurOuter1"></feColorMatrix>
        </filter>
        <path d="M17.85,11.8160625 L22.3839531,24.2991094 C22.6833125,25.1228125 22.2540625,26.0421406 21.4300938,26.3415 L17.4353594,27.7920781 C16.6116563,28.0914375 15.6925938,27.6624531 15.3935,26.8384844 L10.8592813,14.3551719 L17.85,11.8160625" id="path-22"></path>
        <filter x="-8.6%" y="-6.2%" width="134.4%" height="124.9%" filterUnits="objectBoundingBox" id="filter-23">
            <feOffset dx="1" dy="1" in="SourceAlpha" result="shadowOffsetOuter1"></feOffset>
            <feGaussianBlur stdDeviation="0.5" in="shadowOffsetOuter1" result="shadowBlurOuter1"></feGaussianBlur>
            <feColorMatrix values="0 0 0 0 0.149258379   0 0 0 0 0.149258379   0 0 0 0 0.149258379  0 0 0 0.5 0" type="matrix" in="shadowBlurOuter1"></feColorMatrix>
        </filter>
        <path d="M9.22701562,9.86079687 L10.8592812,14.3551719 L17.85,11.8160625 L16.2177344,7.3216875 C15.918375,6.49798437 14.9993125,6.069 14.1756094,6.36835937 L10.180875,7.81867187 C9.35690625,8.11829687 8.92765625,9.03682812 9.22701562,9.86079687" id="path-24"></path>
        <filter x="-11.5%" y="-12.4%" width="145.9%" height="149.5%" filterUnits="objectBoundingBox" id="filter-25">
            <feOffset dx="1" dy="1" in="SourceAlpha" result="shadowOffsetOuter1"></feOffset>
            <feGaussianBlur stdDeviation="0.5" in="shadowOffsetOuter1" result="shadowBlurOuter1"></feGaussianBlur>
            <feColorMatrix values="0 0 0 0 0.149258379   0 0 0 0 0.149258379   0 0 0 0 0.149258379  0 0 0 0.5 0" type="matrix" in="shadowBlurOuter1"></feColorMatrix>
        </filter>
        <path d="M16.4445781,7.92226562 L16.4315625,7.91110938 L16.2177344,7.3216875 C16.1925,7.25289063 16.1632813,7.18701563 16.1300781,7.12379688 L16.1534531,7.16310937 C16.1784219,7.214375 16.20525,7.26723437 16.2251719,7.3216875 L16.4445781,7.92226562" id="path-26"></path>
        <filter x="-318.0%" y="-125.2%" width="1371.9%" height="601.0%" filterUnits="objectBoundingBox" id="filter-27">
            <feOffset dx="1" dy="1" in="SourceAlpha" result="shadowOffsetOuter1"></feOffset>
            <feGaussianBlur stdDeviation="0.5" in="shadowOffsetOuter1" result="shadowBlurOuter1"></feGaussianBlur>
            <feColorMatrix values="0 0 0 0 0.149258379   0 0 0 0 0.149258379   0 0 0 0 0.149258379  0 0 0 0.5 0" type="matrix" in="shadowBlurOuter1"></feColorMatrix>
        </filter>
        <polyline id="path-28" points="16.6270625 8.4224375 16.6058125 8.39082813 16.4315625 7.91110938 16.4445781 7.92226562 16.6270625 8.4224375"></polyline>
        <filter x="-363.3%" y="-195.6%" width="1579.5%" height="882.3%" filterUnits="objectBoundingBox" id="filter-29">
            <feOffset dx="1" dy="1" in="SourceAlpha" result="shadowOffsetOuter1"></feOffset>
            <feGaussianBlur stdDeviation="0.5" in="shadowOffsetOuter1" result="shadowBlurOuter1"></feGaussianBlur>
            <feColorMatrix values="0 0 0 0 0.149258379   0 0 0 0 0.149258379   0 0 0 0 0.149258379  0 0 0 0.5 0" type="matrix" in="shadowBlurOuter1"></feColorMatrix>
        </filter>
        <polyline id="path-30" points="17.53125 10.9387031 16.6058125 8.39082813 16.6270625 8.4224375 17.53125 10.8972656 17.53125 10.9387031"></polyline>
        <filter x="-108.1%" y="-39.2%" width="532.2%" height="257.0%" filterUnits="objectBoundingBox" id="filter-31">
            <feOffset dx="1" dy="1" in="SourceAlpha" result="shadowOffsetOuter1"></feOffset>
            <feGaussianBlur stdDeviation="0.5" in="shadowOffsetOuter1" result="shadowBlurOuter1"></feGaussianBlur>
            <feColorMatrix values="0 0 0 0 0.149258379   0 0 0 0 0.149258379   0 0 0 0 0.149258379  0 0 0 0.5 0" type="matrix" in="shadowBlurOuter1"></feColorMatrix>
        </filter>
        <path d="M9.13245312,9.37098438 C9.13192187,9.35398437 9.13165625,9.33698438 9.13165625,9.31998437 C9.13165625,9.33671875 9.13192187,9.35398437 9.13245312,9.37098438" id="path-32"></path>
        <filter x="-326.6%" y="-336.1%" width="1506.2%" height="1525.1%" filterUnits="objectBoundingBox" id="filter-33">
            <feOffset dx="1" dy="1" in="SourceAlpha" result="shadowOffsetOuter1"></feOffset>
            <feGaussianBlur stdDeviation="0.5" in="shadowOffsetOuter1" result="shadowBlurOuter1"></feGaussianBlur>
            <feColorMatrix values="0 0 0 0 0.149258379   0 0 0 0 0.149258379   0 0 0 0 0.149258379  0 0 0 0.5 0" type="matrix" in="shadowBlurOuter1"></feColorMatrix>
        </filter>
        <path d="M9.305375,10.0770156 L9.22701563,9.86185938 C9.1683125,9.70009375 9.1375,9.53460937 9.13245313,9.37098438 C9.13776563,9.53434375 9.1683125,9.69929687 9.22701563,9.86079688 L9.305375,10.0770156" id="path-34"></path>
        <filter x="-359.0%" y="-141.6%" width="1571.0%" height="666.5%" filterUnits="objectBoundingBox" id="filter-35">
            <feOffset dx="1" dy="1" in="SourceAlpha" result="shadowOffsetOuter1"></feOffset>
            <feGaussianBlur stdDeviation="0.5" in="shadowOffsetOuter1" result="shadowBlurOuter1"></feGaussianBlur>
            <feColorMatrix values="0 0 0 0 0.149258379   0 0 0 0 0.149258379   0 0 0 0 0.149258379  0 0 0 0.5 0" type="matrix" in="shadowBlurOuter1"></feColorMatrix>
        </filter>
        <polyline id="path-36" points="10.8667187 14.3557031 10.8656563 14.3527813 17.53125 11.931875 17.53125 11.9369219 10.8667187 14.3557031"></polyline>
        <filter x="-15.0%" y="-41.3%" width="160.0%" height="265.0%" filterUnits="objectBoundingBox" id="filter-37">
            <feOffset dx="1" dy="1" in="SourceAlpha" result="shadowOffsetOuter1"></feOffset>
            <feGaussianBlur stdDeviation="0.5" in="shadowOffsetOuter1" result="shadowBlurOuter1"></feGaussianBlur>
            <feColorMatrix values="0 0 0 0 0.149258379   0 0 0 0 0.149258379   0 0 0 0 0.149258379  0 0 0 0.5 0" type="matrix" in="shadowBlurOuter1"></feColorMatrix>
        </filter>
        <path d="M10.8656563,14.3527813 L9.305375,10.0770156 L9.22701563,9.86079688 C9.1683125,9.69929688 9.13776563,9.53434375 9.13245313,9.37098438 C9.13192188,9.35398438 9.13165625,9.33671875 9.13165625,9.31998438 C9.13245313,8.6689375 9.53567188,8.05534375 10.180875,7.82079688 L14.1684375,6.375 L15.263875,6.375 L15.2657344,6.37340625 C15.3162031,6.392 15.3656094,6.41139063 15.4139531,6.43476562 L15.4431719,6.45017188 C15.4819531,6.46982813 15.5196719,6.4908125 15.5565938,6.51365625 L15.595375,6.53835938 C15.6277813,6.56014063 15.6599219,6.58245313 15.6907344,6.60582813 L15.7324375,6.6395625 C15.7608594,6.6629375 15.7884844,6.68684375 15.8153125,6.71234375 L15.8570156,6.75271875 C15.8817188,6.77821875 15.9058906,6.80451563 15.9292656,6.83214063 L15.9685781,6.87809375 C15.9908906,6.90625 16.0121406,6.93573438 16.0325938,6.96548438 L16.067125,7.01515625 C16.0878438,7.04782813 16.1075,7.08209375 16.1260938,7.11689063 L16.1300781,7.12379688 C16.1632813,7.18701563 16.1925,7.25289063 16.2177344,7.3216875 L17.53125,10.9387031 L17.53125,11.931875 L10.8656563,14.3527813" id="path-38"></path>
        <filter x="-11.9%" y="-12.5%" width="147.6%" height="150.1%" filterUnits="objectBoundingBox" id="filter-39">
            <feOffset dx="1" dy="1" in="SourceAlpha" result="shadowOffsetOuter1"></feOffset>
            <feGaussianBlur stdDeviation="0.5" in="shadowOffsetOuter1" result="shadowBlurOuter1"></feGaussianBlur>
            <feColorMatrix values="0 0 0 0 0.149258379   0 0 0 0 0.149258379   0 0 0 0 0.149258379  0 0 0 0.5 0" type="matrix" in="shadowBlurOuter1"></feColorMatrix>
        </filter>
        <path d="M15.5175469,27.0993281 C15.5573906,27.1673281 15.6020156,27.2313437 15.650625,27.291375 L15.6755938,27.3208594 C15.7276563,27.3822187 15.7829063,27.4403906 15.8432031,27.4927188 L15.8445313,27.4937812 C15.9080156,27.5487656 15.9760156,27.5979062 16.0469375,27.642 L16.0565,27.648375 C16.1274219,27.6919375 16.2015313,27.7293906 16.2780313,27.7615313 L16.2907813,27.7665781 C16.5290469,27.8635312 16.798125,27.9041719 17.0613594,27.8776094 C17.3498281,27.5145 17.53125,27.0568281 17.53125,26.55825 L17.53125,11.9369219 L10.8667188,14.3551719 L15.3972188,26.8384844 C15.4259063,26.9179062 15.4601719,26.9920156 15.49975,27.0637344 L15.5175469,27.0993281" id="path-40"></path>
        <filter x="-15.0%" y="-6.3%" width="160.0%" height="125.1%" filterUnits="objectBoundingBox" id="filter-41">
            <feOffset dx="1" dy="1" in="SourceAlpha" result="shadowOffsetOuter1"></feOffset>
            <feGaussianBlur stdDeviation="0.5" in="shadowOffsetOuter1" result="shadowBlurOuter1"></feGaussianBlur>
            <feColorMatrix values="0 0 0 0 0.149258379   0 0 0 0 0.149258379   0 0 0 0 0.149258379  0 0 0 0.5 0" type="matrix" in="shadowBlurOuter1"></feColorMatrix>
        </filter>
        <path d="M13.6292188,11.08825 C13.0783125,11.288 12.4679063,11.00325 12.267625,10.4523437 C12.0676094,9.90117187 12.3528906,9.29076562 12.9037969,9.09101562 C13.4541719,8.89073437 14.0651094,9.17601562 14.265125,9.72692187 C14.4651406,10.2772969 14.1798594,10.8879687 13.6292188,11.08825" id="path-42"></path>
        <filter x="-47.1%" y="-47.1%" width="288.2%" height="288.2%" filterUnits="objectBoundingBox" id="filter-43">
            <feOffset dx="1" dy="1" in="SourceAlpha" result="shadowOffsetOuter1"></feOffset>
            <feGaussianBlur stdDeviation="0.5" in="shadowOffsetOuter1" result="shadowBlurOuter1"></feGaussianBlur>
            <feColorMatrix values="0 0 0 0 0.149258379   0 0 0 0 0.149258379   0 0 0 0 0.149258379  0 0 0 0.5 0" type="matrix" in="shadowBlurOuter1"></feColorMatrix>
        </filter>
        <path d="M14.0154375,9.81723438 C14.1657813,10.2313437 13.9519531,10.6882187 13.538375,10.8382969 C13.1247969,10.9886406 12.6676563,10.7753437 12.5173125,10.3615 C12.3672344,9.94792187 12.5807969,9.49078125 12.994375,9.3404375 C13.4079531,9.19009375 13.8650938,9.40365625 14.0154375,9.81723438" id="path-44"></path>
        <filter x="-62.7%" y="-62.7%" width="350.9%" height="350.9%" filterUnits="objectBoundingBox" id="filter-45">
            <feOffset dx="1" dy="1" in="SourceAlpha" result="shadowOffsetOuter1"></feOffset>
            <feGaussianBlur stdDeviation="0.5" in="shadowOffsetOuter1" result="shadowBlurOuter1"></feGaussianBlur>
            <feColorMatrix values="0 0 0 0 0.149258379   0 0 0 0 0.149258379   0 0 0 0 0.149258379  0 0 0 0.5 0" type="matrix" in="shadowBlurOuter1"></feColorMatrix>
        </filter>
        <path d="M17,13.28125 L17,26.55825 C17,27.4345469 16.2679375,28.15625 15.391375,28.15625 L11.141375,28.15625 C10.2648125,28.15625 9.5625,27.4345469 9.5625,26.55825 L9.5625,13.28125 L17,13.28125" id="path-46"></path>
        <filter x="-13.4%" y="-6.7%" width="153.8%" height="126.9%" filterUnits="objectBoundingBox" id="filter-47">
            <feOffset dx="1" dy="1" in="SourceAlpha" result="shadowOffsetOuter1"></feOffset>
            <feGaussianBlur stdDeviation="0.5" in="shadowOffsetOuter1" result="shadowBlurOuter1"></feGaussianBlur>
            <feColorMatrix values="0 0 0 0 0.149258379   0 0 0 0 0.149258379   0 0 0 0 0.149258379  0 0 0 0.5 0" type="matrix" in="shadowBlurOuter1"></feColorMatrix>
        </filter>
        <path d="M16.46875,13.28125 L16.46875,26.55825 C16.46875,27.4345469 15.7366875,28.15625 14.860125,28.15625 L15.391375,28.15625 C16.2679375,28.15625 17,27.4345469 17,26.55825 L17,13.28125 L16.46875,13.28125" id="path-48"></path>
        <filter x="-46.7%" y="-6.7%" width="286.9%" height="126.9%" filterUnits="objectBoundingBox" id="filter-49">
            <feOffset dx="1" dy="1" in="SourceAlpha" result="shadowOffsetOuter1"></feOffset>
            <feGaussianBlur stdDeviation="0.5" in="shadowOffsetOuter1" result="shadowBlurOuter1"></feGaussianBlur>
            <feColorMatrix values="0 0 0 0 0.149258379   0 0 0 0 0.149258379   0 0 0 0 0.149258379  0 0 0 0.5 0" type="matrix" in="shadowBlurOuter1"></feColorMatrix>
        </filter>
        <path d="M9.5625,8.49575 L9.5625,13.28125 L17,13.28125 L17,8.49575 C17,7.6191875 16.2679375,6.90625 15.391375,6.90625 L11.141375,6.90625 C10.2648125,6.90625 9.5625,7.6191875 9.5625,8.49575" id="path-50"></path>
        <filter x="-13.4%" y="-15.7%" width="153.8%" height="162.7%" filterUnits="objectBoundingBox" id="filter-51">
            <feOffset dx="1" dy="1" in="SourceAlpha" result="shadowOffsetOuter1"></feOffset>
            <feGaussianBlur stdDeviation="0.5" in="shadowOffsetOuter1" result="shadowBlurOuter1"></feGaussianBlur>
            <feColorMatrix values="0 0 0 0 0.149258379   0 0 0 0 0.149258379   0 0 0 0 0.149258379  0 0 0 0.5 0" type="matrix" in="shadowBlurOuter1"></feColorMatrix>
        </filter>
        <path d="M15.391375,6.90625 L14.860125,6.90625 C15.7366875,6.90625 16.46875,7.6191875 16.46875,8.49575 L16.46875,13.28125 L17,13.28125 L17,8.49575 C17,7.6191875 16.2679375,6.90625 15.391375,6.90625" id="path-52"></path>
        <filter x="-46.7%" y="-15.7%" width="286.9%" height="162.7%" filterUnits="objectBoundingBox" id="filter-53">
            <feOffset dx="1" dy="1" in="SourceAlpha" result="shadowOffsetOuter1"></feOffset>
            <feGaussianBlur stdDeviation="0.5" in="shadowOffsetOuter1" result="shadowBlurOuter1"></feGaussianBlur>
            <feColorMatrix values="0 0 0 0 0.149258379   0 0 0 0 0.149258379   0 0 0 0 0.149258379  0 0 0 0.5 0" type="matrix" in="shadowBlurOuter1"></feColorMatrix>
        </filter>
        <path d="M13.266375,11.152 C12.6804062,11.152 12.203875,10.6752031 12.203875,10.0895 C12.203875,9.50326562 12.6804062,9.027 13.266375,9.027 C13.8520781,9.027 14.328875,9.50326562 14.328875,10.0895 C14.328875,10.6752031 13.8520781,11.152 13.266375,11.152" id="path-54"></path>
        <filter x="-47.1%" y="-47.1%" width="288.2%" height="288.2%" filterUnits="objectBoundingBox" id="filter-55">
            <feOffset dx="1" dy="1" in="SourceAlpha" result="shadowOffsetOuter1"></feOffset>
            <feGaussianBlur stdDeviation="0.5" in="shadowOffsetOuter1" result="shadowBlurOuter1"></feGaussianBlur>
            <feColorMatrix values="0 0 0 0 0.149258379   0 0 0 0 0.149258379   0 0 0 0 0.149258379  0 0 0 0.5 0" type="matrix" in="shadowBlurOuter1"></feColorMatrix>
        </filter>
        <path d="M14.06325,10.0895 C14.06325,10.5296406 13.7065156,10.886375 13.266375,10.886375 C12.8262344,10.886375 12.4695,10.5296406 12.4695,10.0895 C12.4695,9.64909375 12.8262344,9.292625 13.266375,9.292625 C13.7065156,9.292625 14.06325,9.64909375 14.06325,10.0895" id="path-56"></path>
        <filter x="-62.7%" y="-62.7%" width="351.0%" height="351.0%" filterUnits="objectBoundingBox" id="filter-57">
            <feOffset dx="1" dy="1" in="SourceAlpha" result="shadowOffsetOuter1"></feOffset>
            <feGaussianBlur stdDeviation="0.5" in="shadowOffsetOuter1" result="shadowBlurOuter1"></feGaussianBlur>
            <feColorMatrix values="0 0 0 0 0.149258379   0 0 0 0 0.149258379   0 0 0 0 0.149258379  0 0 0 0.5 0" type="matrix" in="shadowBlurOuter1"></feColorMatrix>
        </filter>
        <polygon id="path-58" points="9.5625 13.546875 17 13.546875 17 13.28125 9.5625 13.28125"></polygon>
        <filter x="-13.4%" y="-376.5%" width="153.8%" height="1605.9%" filterUnits="objectBoundingBox" id="filter-59">
            <feOffset dx="1" dy="1" in="SourceAlpha" result="shadowOffsetOuter1"></feOffset>
            <feGaussianBlur stdDeviation="0.5" in="shadowOffsetOuter1" result="shadowBlurOuter1"></feGaussianBlur>
            <feColorMatrix values="0 0 0 0 0.149258379   0 0 0 0 0.149258379   0 0 0 0 0.149258379  0 0 0 0.5 0" type="matrix" in="shadowBlurOuter1"></feColorMatrix>
        </filter>
    </defs>
    <g id="Page-1" stroke="none" stroke-width="1" fill="none" fill-rule="evenodd">
        <g id="14.MAIN-UI---ONLINE-ORDER" transform="translate(-714.000000, -424.000000)">
            <g id="ONLINE-ORDER" transform="translate(293.000000, 203.000000)">
                <g id="TAB-1" transform="translate(23.000000, 165.000000)">
                    <g id="ITEMS" transform="translate(400.000000, 30.000000)">
                        <g transform="translate(0.000000, 28.000000)" id="ICONS">
                            <g filter="url(#filter-1)">
                                <path d="M34,17 C34,26.3887813 26.3887813,34 17,34 C7.61121875,34 0,26.3887813 0,17 C0,7.61121875 7.61121875,0 17,0 C26.3887813,0 34,7.61121875 34,17" id="Fill-234" fill="#CA88D1"></path>
                                <g id="Fill-235">
                                    <use fill="black" fill-opacity="1" filter="url(#filter-3)" xlink:href="#path-2"></use>
                                    <use fill="#EDCA63" fill-rule="evenodd" xlink:href="#path-2"></use>
                                </g>
                                <g id="Fill-236">
                                    <use fill="black" fill-opacity="1" filter="url(#filter-5)" xlink:href="#path-4"></use>
                                    <use fill="#F8F7F5" fill-rule="evenodd" xlink:href="#path-4"></use>
                                </g>
                                <g id="Fill-237">
                                    <use fill="black" fill-opacity="1" filter="url(#filter-7)" xlink:href="#path-6"></use>
                                    <use fill="#416372" fill-rule="evenodd" xlink:href="#path-6"></use>
                                </g>
                                <g id="Fill-238">
                                    <use fill="black" fill-opacity="1" filter="url(#filter-9)" xlink:href="#path-8"></use>
                                    <use fill="#324C58" fill-rule="evenodd" xlink:href="#path-8"></use>
                                </g>
                                <g id="Fill-239">
                                    <use fill="black" fill-opacity="1" filter="url(#filter-11)" xlink:href="#path-10"></use>
                                    <use fill="#DDBE5C" fill-rule="evenodd" xlink:href="#path-10"></use>
                                </g>
                                <g id="Fill-240">
                                    <use fill="black" fill-opacity="1" filter="url(#filter-13)" xlink:href="#path-12"></use>
                                    <use fill="#87BFBF" fill-rule="evenodd" xlink:href="#path-12"></use>
                                </g>
                                <g id="Fill-241">
                                    <use fill="black" fill-opacity="1" filter="url(#filter-15)" xlink:href="#path-14"></use>
                                    <use fill="#E5E5E0" fill-rule="evenodd" xlink:href="#path-14"></use>
                                </g>
                                <g id="Fill-242">
                                    <use fill="black" fill-opacity="1" filter="url(#filter-17)" xlink:href="#path-16"></use>
                                    <use fill="#416372" fill-rule="evenodd" xlink:href="#path-16"></use>
                                </g>
                                <g id="Fill-243">
                                    <use fill="black" fill-opacity="1" filter="url(#filter-19)" xlink:href="#path-18"></use>
                                    <use fill="#324C58" fill-rule="evenodd" xlink:href="#path-18"></use>
                                </g>
                                <g id="Fill-244">
                                    <use fill="black" fill-opacity="1" filter="url(#filter-21)" xlink:href="#path-20"></use>
                                    <use fill="#7DB1B2" fill-rule="evenodd" xlink:href="#path-20"></use>
                                </g>
                                <g id="Fill-245">
                                    <use fill="black" fill-opacity="1" filter="url(#filter-23)" xlink:href="#path-22"></use>
                                    <use fill="#48B095" fill-rule="evenodd" xlink:href="#path-22"></use>
                                </g>
                                <g id="Fill-246">
                                    <use fill="black" fill-opacity="1" filter="url(#filter-25)" xlink:href="#path-24"></use>
                                    <use fill="#F8F7F5" fill-rule="evenodd" xlink:href="#path-24"></use>
                                </g>
                                <g id="Fill-247">
                                    <use fill="black" fill-opacity="1" filter="url(#filter-27)" xlink:href="#path-26"></use>
                                    <use fill="#D5DCD8" fill-rule="evenodd" xlink:href="#path-26"></use>
                                </g>
                                <g id="Fill-248">
                                    <use fill="black" fill-opacity="1" filter="url(#filter-29)" xlink:href="#path-28"></use>
                                    <use fill="#ECECE8" fill-rule="evenodd" xlink:href="#path-28"></use>
                                </g>
                                <g id="Fill-249">
                                    <use fill="black" fill-opacity="1" filter="url(#filter-31)" xlink:href="#path-30"></use>
                                    <use fill="#E5E5E0" fill-rule="evenodd" xlink:href="#path-30"></use>
                                </g>
                                <g id="Fill-250">
                                    <use fill="black" fill-opacity="1" filter="url(#filter-33)" xlink:href="#path-32"></use>
                                    <use fill="#D5DCD8" fill-rule="evenodd" xlink:href="#path-32"></use>
                                </g>
                                <g id="Fill-251">
                                    <use fill="black" fill-opacity="1" filter="url(#filter-35)" xlink:href="#path-34"></use>
                                    <use fill="#E5E5E0" fill-rule="evenodd" xlink:href="#path-34"></use>
                                </g>
                                <g id="Fill-252">
                                    <use fill="black" fill-opacity="1" filter="url(#filter-37)" xlink:href="#path-36"></use>
                                    <use fill="#A6CFC0" fill-rule="evenodd" xlink:href="#path-36"></use>
                                </g>
                                <g id="Fill-253">
                                    <use fill="black" fill-opacity="1" filter="url(#filter-39)" xlink:href="#path-38"></use>
                                    <use fill="#ECECE8" fill-rule="evenodd" xlink:href="#path-38"></use>
                                </g>
                                <g id="Fill-254">
                                    <use fill="black" fill-opacity="1" filter="url(#filter-41)" xlink:href="#path-40"></use>
                                    <use fill="#439D86" fill-rule="evenodd" xlink:href="#path-40"></use>
                                </g>
                                <g id="Fill-255">
                                    <use fill="black" fill-opacity="1" filter="url(#filter-43)" xlink:href="#path-42"></use>
                                    <use fill="#416372" fill-rule="evenodd" xlink:href="#path-42"></use>
                                </g>
                                <g id="Fill-256">
                                    <use fill="black" fill-opacity="1" filter="url(#filter-45)" xlink:href="#path-44"></use>
                                    <use fill="#324C58" fill-rule="evenodd" xlink:href="#path-44"></use>
                                </g>
                                <g id="Fill-257">
                                    <use fill="black" fill-opacity="1" filter="url(#filter-47)" xlink:href="#path-46"></use>
                                    <use fill="#D16555" fill-rule="evenodd" xlink:href="#path-46"></use>
                                </g>
                                <g id="Fill-258">
                                    <use fill="black" fill-opacity="1" filter="url(#filter-49)" xlink:href="#path-48"></use>
                                    <use fill="#BD5C4E" fill-rule="evenodd" xlink:href="#path-48"></use>
                                </g>
                                <g id="Fill-259">
                                    <use fill="black" fill-opacity="1" filter="url(#filter-51)" xlink:href="#path-50"></use>
                                    <use fill="#F8F7F5" fill-rule="evenodd" xlink:href="#path-50"></use>
                                </g>
                                <g id="Fill-260">
                                    <use fill="black" fill-opacity="1" filter="url(#filter-53)" xlink:href="#path-52"></use>
                                    <use fill="#E5E5E0" fill-rule="evenodd" xlink:href="#path-52"></use>
                                </g>
                                <g id="Fill-261">
                                    <use fill="black" fill-opacity="1" filter="url(#filter-55)" xlink:href="#path-54"></use>
                                    <use fill="#416372" fill-rule="evenodd" xlink:href="#path-54"></use>
                                </g>
                                <g id="Fill-262">
                                    <use fill="black" fill-opacity="1" filter="url(#filter-57)" xlink:href="#path-56"></use>
                                    <use fill="#324C58" fill-rule="evenodd" xlink:href="#path-56"></use>
                                </g>
                                <g id="Fill-263">
                                    <use fill="black" fill-opacity="1" filter="url(#filter-59)" xlink:href="#path-58"></use>
                                    <use fill="#BD5C4E" fill-rule="evenodd" xlink:href="#path-58"></use>
                                </g>
                            </g>
                        </g>
                    </g>
                </g>
            </g>
        </g>
    </g>
</svg>